<svg xmlns="http://www.w3.org/2000/svg" width="75" height="19" viewBox="0 0 75 19" fill="none">
  <path d="M52.7645 0.792969H55.0597C55.9439 0.792969 56.4476 1.40809 56.5706 2.63833V6.64047C56.5706 6.95572 56.5744 7.6708 56.5821 8.78571C57.3482 8.2339 58.2948 8.06774 59.131 7.94376C59.9672 7.81977 62.0977 6.92795 62.2417 5.23809C63.0762 6.96959 62.4418 7.87003 61.0687 8.62424C61.9837 9.14709 62.4412 9.83141 62.4412 10.6772V12.8455C62.4412 13.7682 62.6103 14.2757 62.9486 14.3679L63.2831 14.4371H64.0904L64.1596 14.5063V14.7601L64.0904 14.8293H62.0375C61.2455 14.737 60.8495 14.2641 60.8495 13.4107V10.8271C60.8495 8.62424 56.5706 9.05521 56.5706 10.4696V12.8801C56.5706 13.9181 56.1631 14.5679 55.348 14.8293L54.9098 14.8639H52.6953V14.7947V14.0796V14.0104H53.6987C54.2447 14.0104 54.5637 13.6336 54.656 12.8801V2.81134C54.656 2.01168 54.2639 1.61185 53.4796 1.61185H52.7645L52.6953 1.54265V0.86217L52.7645 0.792969Z" fill="#B24C4C"/>
  <path d="M46.0971 4.67969H48.6691C49.2227 4.67969 49.6879 4.96803 50.0646 5.5447C50.2646 5.93684 50.3645 6.41356 50.3645 6.97486V12.5456C50.3261 13.4452 50.6298 13.9296 51.2757 13.9988L51.564 14.0334H52.0484L52.083 14.0564V14.8638L52.0484 14.8984H49.9608C49.2227 14.8984 48.7191 14.5063 48.4499 13.722C48.3192 13.3375 48.2539 12.9685 48.2539 12.6148V7.0556C48.2539 6.37896 47.9924 5.93684 47.4696 5.72924C47.3235 5.69079 47.1966 5.67157 47.089 5.67157H46.0971L46.0625 5.6485V4.70275L46.0971 4.67969Z" fill="#B24C4C"/>
  <path d="M40.8728 4.41406H41.0919C42.1376 4.41406 43.0411 4.79851 43.8023 5.56742C44.5481 6.39783 44.921 7.35511 44.921 8.43927V12.2338C44.921 13.3103 45.1325 13.9485 45.5554 14.1484C45.5554 14.1945 45.7092 14.2445 46.0167 14.2983H47.2162L47.2508 14.3329V14.8865L47.2162 14.9211H44.3674C43.5831 14.9211 43.0718 14.3483 42.8335 13.2026C42.8027 13.0719 42.7873 12.9335 42.7873 12.7874V8.70454C42.7873 7.35896 42.3068 6.48625 41.3456 6.08642C40.9535 5.94802 40.5421 5.87882 40.1115 5.87882C39.3196 5.90189 38.5391 6.29787 37.7702 7.06678C37.4857 7.41278 37.3435 7.75879 37.3435 8.10479V14.9211L37.3089 14.9557H35.2329L35.1867 14.9211V6.91684C35.1867 6.24021 34.9099 5.78271 34.3563 5.54435L33.9526 5.48668H32.9838L32.9492 5.45208V4.55246L32.9838 4.51786H35.6019C36.2632 4.51786 36.7745 4.88309 37.1359 5.61355L37.2397 5.97109C38.37 4.95614 39.581 4.43713 40.8728 4.41406Z" fill="#B24C4C"/>
  <path d="M26.0077 14.9222H25.8001C24.7621 14.9222 23.8625 14.5416 23.1012 13.7804C22.3631 12.9577 21.994 12.0042 21.994 10.9201V7.14862C21.994 6.07985 21.7826 5.44935 21.3597 5.25712C21.3597 5.2033 21.2059 5.14948 20.8983 5.09565H19.7104L19.6758 5.06105V4.51898L19.7104 4.48438H22.5361C23.3204 4.48438 23.8279 5.05336 24.0585 6.19134C24.097 6.32205 24.1162 6.46045 24.1162 6.60654V10.6548C24.1162 11.9927 24.5891 12.8616 25.5348 13.2614C25.9346 13.3998 26.3422 13.469 26.7574 13.469C27.3725 13.469 28.0607 13.0884 28.8219 12.3272C29.1064 11.9812 29.2486 11.6352 29.2486 11.2892V4.51898L29.2832 4.48438H31.3477L31.3823 4.51898V12.4656C31.3823 13.1422 31.6591 13.5997 32.2127 13.8381L32.6164 13.8842H33.5737L33.6083 13.9188V14.8184L33.5737 14.853H30.9786C30.3251 14.853 29.8176 14.4916 29.4562 13.7689L29.3524 13.4113C28.2298 14.4186 27.1149 14.9222 26.0077 14.9222Z" fill="#B24C4C"/>
  <path d="M15.4987 14.8526L12.0387 6.62919C11.6158 5.61424 10.7969 5.05294 9.58203 4.9453V4.51855H11.4851C12.7922 4.51855 13.6841 5.07985 14.1608 6.20245L16.6175 12.0038L18.9522 6.79438H20.0709L16.1677 16.006C15.7371 17.1209 15.2411 17.8859 14.6799 18.3011C14.2031 18.6702 13.5457 18.8317 12.7076 18.7855L11.5658 18.7163V17.6322C13.465 17.909 14.626 17.3669 15.0489 16.006L15.4987 14.8526Z" fill="#B24C4C"/>
  <path fill-rule="evenodd" clip-rule="evenodd" d="M5.88037 4.37988H3.18152L3.16999 4.39142V5.3487L3.18152 5.36023C3.45497 5.36865 3.75053 5.35226 4.05262 5.33551C5.15246 5.27453 6.33895 5.20874 6.86072 6.31752C7.10851 7.00456 7.11446 7.66457 7.11446 8.38202C4.7792 8.80661 0.858919 9.63955 0.863285 12.5802C0.865332 13.9591 2.2298 14.8754 3.57367 14.8754C4.79622 14.8754 5.99186 14.2872 7.16059 13.1108C7.30974 14.0056 7.78358 14.9446 8.82142 14.9446H10.6553V14.3333C9.58659 14.3333 9.14436 13.7731 9.14436 12.6956V9.45377C8.77836 9.53836 7.57383 9.85299 7.11446 9.97751V12.1535C6.22921 13.2619 3.17903 14.4494 3.16999 12.0381V12.0266C3.16999 10.1649 5.66612 9.63824 7.11446 9.36237V9.36334C7.58861 9.27006 8.75907 9.06354 9.14436 8.99856V8.99838C9.15032 8.99745 9.15626 8.99651 9.16218 8.99556C9.17678 8.99311 9.19004 8.9909 9.20188 8.98894C10.081 8.83719 10.5063 8.40704 10.1692 7.49623C10.0378 7.87345 9.70951 8.02368 9.14436 8.09288C9.12778 7.46398 9.07321 6.8611 8.83296 6.27138C8.33734 5.14718 7.11041 4.37988 5.88037 4.37988Z" fill="#B24C4C"/>
  <path fill-rule="evenodd" clip-rule="evenodd" d="M69.3608 4.37988H66.662L66.6505 4.39142V5.3487L66.662 5.36023C66.9354 5.36865 67.231 5.35226 67.5331 5.33551C68.6329 5.27453 69.8194 5.20874 70.3412 6.31752C70.589 7.00456 70.5949 7.66457 70.5949 8.38202C68.2597 8.80661 64.3394 9.63955 64.3438 12.5802C64.3458 13.9591 65.7103 14.8754 67.0541 14.8754C68.2767 14.8754 69.4723 14.2872 70.6411 13.1108C70.7902 14.0056 71.2641 14.9446 72.3019 14.9446H74.1357V14.3333C73.0671 14.3333 72.6248 13.7731 72.6248 12.6956V9.45377C72.2588 9.53836 71.0543 9.85299 70.5949 9.97751V12.1535C69.7097 13.2619 66.6595 14.4494 66.6505 12.0381V12.0266C66.6505 10.1649 69.1466 9.63824 70.5949 9.36237V9.36334C71.0691 9.27006 72.2395 9.06354 72.6248 8.99856V8.99838C72.6308 8.99745 72.6367 8.99651 72.6426 8.99556C72.6572 8.99311 72.6705 8.9909 72.6823 8.98894C73.5615 8.83719 73.9867 8.40704 73.6497 7.49623C73.5182 7.87345 73.19 8.02368 72.6248 8.09288C72.6082 7.46398 72.5537 6.8611 72.3134 6.27138C71.8178 5.14718 70.5909 4.37988 69.3608 4.37988Z" fill="#B24C4C"/>
</svg>