<svg xmlns="http://www.w3.org/2000/svg" width="60" height="61" viewBox="0 0 60 61" fill="none">
  <path d="M20.6405 60.08C16.1071 60.08 12.3471 59.36 9.36047 57.92C6.3738 56.5333 4.1338 54.6933 2.64047 52.4C1.20047 50.0533 0.480469 47.5733 0.480469 44.96C0.480469 42.0267 1.36047 39.12 3.12047 36.24C4.88047 33.3067 7.4938 30.8 10.9605 28.72C14.4805 26.5867 18.7738 25.2533 23.8405 24.72C23.0938 23.7067 22.5338 22.56 22.1605 21.28C21.7871 19.9467 21.6005 18.6933 21.6005 17.52C21.6538 14.6933 22.4538 12.2133 24.0005 10.08C25.5471 7.89333 27.5205 6.05333 29.9205 4.56C32.3738 3.06667 34.9871 1.94667 37.7605 1.2C40.5338 0.4 43.1471 0 45.6005 0C47.0938 0 48.6138 0.213334 50.1605 0.640001C51.7071 1.01333 53.0138 1.70667 54.0805 2.72C55.1471 3.73333 55.6805 5.17333 55.6805 7.04C55.6805 8.58667 55.2005 9.97333 54.2405 11.2C53.2805 12.4267 52.1071 13.04 50.7205 13.04C49.7071 13.04 48.8271 12.6667 48.0805 11.92C47.3338 11.1733 46.9605 10.32 46.9605 9.36C46.9605 8.24 47.3071 7.33333 48.0005 6.64C48.7471 5.89333 49.6538 5.52 50.7205 5.52C51.2005 5.52 51.7338 5.68 52.3205 6C52.9605 6.32 53.3605 6.64 53.5205 6.96C53.5738 6.74667 53.6005 6.45333 53.6005 6.08C53.6005 4.64 53.0138 3.62667 51.8405 3.04C50.6671 2.45333 49.4138 2.16 48.0805 2.16C45.9471 2.16 43.4671 2.69333 40.6405 3.76C37.8138 4.77333 35.0671 6.45333 32.4005 8.8C31.4405 9.65333 30.4538 10.7733 29.4405 12.16C28.4271 13.5467 27.5738 15.04 26.8805 16.64C26.1871 18.1867 25.8405 19.76 25.8405 21.36C25.8405 22.5867 26.0538 23.6533 26.4805 24.56C27.2805 24.56 28.1871 24.5333 29.2005 24.48C30.2671 24.3733 31.3605 24.32 32.4805 24.32C33.8671 24.32 34.9605 24.6133 35.7605 25.2C36.5605 25.7867 36.9605 26.4533 36.9605 27.2C36.9605 27.7333 36.6405 28.24 36.0005 28.72C35.3605 29.2 34.3471 29.44 32.9605 29.44C31.2005 29.44 29.6005 29.0667 28.1605 28.32C26.7738 27.52 25.6805 26.72 24.8805 25.92C21.3605 26.4 18.3738 27.7067 15.9205 29.84C13.4671 31.9733 11.6005 34.5067 10.3205 37.44C9.04047 40.32 8.40047 43.2 8.40047 46.08C8.40047 48.3733 8.82714 50.5067 9.68047 52.48C10.5871 54.4533 11.9471 56.0267 13.7605 57.2C15.5738 58.4267 17.8671 59.04 20.6405 59.04C23.5205 59.04 26.1338 58.5067 28.4805 57.44C30.8805 56.4267 32.9338 55.0933 34.6405 53.44C36.3471 51.7867 37.6538 50.0533 38.5605 48.24C39.5205 46.3733 40.0005 44.64 40.0005 43.04C40.0005 41.6533 39.4938 40.5067 38.4805 39.6C37.5205 38.64 36.2405 37.9467 34.6405 37.52C33.0405 37.04 31.3338 36.8 29.5205 36.8C27.6538 36.8 25.7871 37.0667 23.9205 37.6C22.1071 38.08 20.5605 38.8533 19.2805 39.92C18.0005 40.9333 17.2271 42.24 16.9605 43.84C16.9605 43.9467 16.9338 44.08 16.8805 44.24C16.8805 44.3467 16.8805 44.4533 16.8805 44.56C16.8805 45.7333 17.3071 46.9067 18.1605 48.08C19.0671 49.2 20.4538 50.24 22.3205 51.2C22.8005 51.4133 23.0405 51.8133 23.0405 52.4C23.0405 52.9867 22.7738 53.1467 22.2405 52.88C19.3071 51.3333 17.1471 49.6533 15.7605 47.84C14.4271 45.9733 13.7605 44.2133 13.7605 42.56C13.7605 40.16 15.0405 38.1067 17.6005 36.4C20.2138 34.64 23.9205 33.76 28.7205 33.76H42.8805C43.7338 33.76 44.9871 33.5733 46.6405 33.2C48.3471 32.8267 50.0805 32.2933 51.8405 31.6C53.6005 30.8533 55.0938 30 56.3205 29.04C57.6005 28.0267 58.2405 26.88 58.2405 25.6C58.2405 24.9067 58.0005 24.16 57.5205 23.36C57.4138 23.2 57.3605 23.0133 57.3605 22.8C57.3605 22.48 57.4938 22.32 57.7605 22.32C57.9738 22.32 58.1605 22.4533 58.3205 22.72C59.1205 23.8933 59.5205 25.0933 59.5205 26.32C59.5205 27.76 58.9871 29.0933 57.9205 30.32C56.9071 31.5467 55.5205 32.64 53.7605 33.6C52.0005 34.5067 50.0271 35.2 47.8405 35.68C45.7071 36.16 43.5205 36.3733 41.2805 36.32C42.2938 37.1733 43.0405 38.1333 43.5205 39.2C44.0005 40.2667 44.2405 41.3867 44.2405 42.56C44.2405 44.5333 43.6538 46.56 42.4805 48.64C41.3071 50.6667 39.6538 52.56 37.5205 54.32C35.3871 56.0267 32.8805 57.4133 30.0005 58.48C27.1738 59.5467 24.0538 60.08 20.6405 60.08ZM32.9605 28.08C34.7205 28.08 35.6005 27.7333 35.6005 27.04C35.6005 26.7733 35.3605 26.5067 34.8805 26.24C34.4538 25.92 33.8671 25.7333 33.1205 25.68C32.8005 25.6267 32.2671 25.6 31.5205 25.6C30.7738 25.6 29.9738 25.6 29.1205 25.6C28.3205 25.6 27.6538 25.6 27.1205 25.6C28.4538 27.2533 30.4005 28.08 32.9605 28.08Z" fill="url(#paint0_linear_700_37359)"/>
  <defs>
    <linearGradient id="paint0_linear_700_37359" x1="36.7832" y1="80.82" x2="-17.8102" y2="54.8974" gradientUnits="userSpaceOnUse">
      <stop stop-color="#D89E3A"/>
      <stop offset="0.0970249" stop-color="#DBA140"/>
      <stop offset="0.2252" stop-color="#E2AA50"/>
      <stop offset="0.37" stop-color="#EEB96A"/>
      <stop offset="0.5" stop-color="#FCCA89"/>
      <stop offset="0.5778" stop-color="#F9C683"/>
      <stop offset="0.6736" stop-color="#F1B973"/>
      <stop offset="0.7789" stop-color="#E3A559"/>
      <stop offset="0.8901" stop-color="#D08A37"/>
      <stop offset="1" stop-color="#BB6C15"/>
    </linearGradient>
  </defs>
</svg>