<svg xmlns="http://www.w3.org/2000/svg" width="24" height="25" viewBox="0 0 24 25" fill="none">
  <path d="M17 21.0801V19.0801C17 18.0192 16.5786 17.0018 15.8284 16.2517C15.0783 15.5015 14.0609 15.0801 13 15.0801H5C3.93913 15.0801 2.92172 15.5015 2.17157 16.2517C1.42143 17.0018 1 18.0192 1 19.0801V21.0801M23 21.0801V19.0801C22.9993 18.1938 22.7044 17.3329 22.1614 16.6324C21.6184 15.9319 20.8581 15.4316 20 15.2101M16 3.21008C16.8604 3.43038 17.623 3.93078 18.1676 4.63239C18.7122 5.334 19.0078 6.19691 19.0078 7.08508C19.0078 7.97325 18.7122 8.83616 18.1676 9.53777C17.623 10.2394 16.8604 10.7398 16 10.9601M13 7.08008C13 9.28922 11.2091 11.0801 9 11.0801C6.79086 11.0801 5 9.28922 5 7.08008C5 4.87094 6.79086 3.08008 9 3.08008C11.2091 3.08008 13 4.87094 13 7.08008Z" stroke="url(#paint0_linear_700_37406)" stroke-width="2" stroke-linecap="round" stroke-linejoin="round"/>
  <defs>
    <linearGradient id="paint0_linear_700_37406" x1="14.5275" y1="27.2938" x2="-3.95577" y2="16.3781" gradientUnits="userSpaceOnUse">
      <stop stop-color="#D89E3A"/>
      <stop offset="0.0970249" stop-color="#DBA140"/>
      <stop offset="0.2252" stop-color="#E2AA50"/>
      <stop offset="0.37" stop-color="#EEB96A"/>
      <stop offset="0.5" stop-color="#FCCA89"/>
      <stop offset="0.5778" stop-color="#F9C683"/>
      <stop offset="0.6736" stop-color="#F1B973"/>
      <stop offset="0.7789" stop-color="#E3A559"/>
      <stop offset="0.8901" stop-color="#D08A37"/>
      <stop offset="1" stop-color="#BB6C15"/>
    </linearGradient>
  </defs>
</svg>