<svg xmlns="http://www.w3.org/2000/svg" width="75" height="18" viewBox="0 0 75 18" fill="none">
  <path d="M52.7645 0H55.0597C55.9439 0 56.4476 0.615122 56.5706 1.84537V5.8475C56.5706 6.16275 56.5744 6.87783 56.5821 7.99274C57.3482 7.44094 58.2948 7.27478 59.131 7.15079C59.9672 7.0268 62.0977 6.13498 62.2417 4.44512C63.0762 6.17662 62.4418 7.07706 61.0687 7.83127C61.9837 8.35412 62.4412 9.03845 62.4412 9.88424V12.0525C62.4412 12.9752 62.6103 13.4827 62.9486 13.575L63.2831 13.6442H64.0904L64.1596 13.7134V13.9671L64.0904 14.0363H62.0375C61.2455 13.944 60.8495 13.4712 60.8495 12.6177V10.0342C60.8495 7.83127 56.5706 8.26224 56.5706 9.67663V12.0871C56.5706 13.1252 56.1631 13.7749 55.348 14.0363L54.9098 14.0709H52.6953V14.0017V13.2866V13.2174H53.6987C54.2447 13.2174 54.5637 12.8407 54.656 12.0871V2.01837C54.656 1.21871 54.2639 0.818881 53.4796 0.818881H52.7645L52.6953 0.74968V0.0692012L52.7645 0Z" fill="white"/>
  <path d="M46.0971 3.88672H48.6691C49.2227 3.88672 49.6879 4.17506 50.0646 4.75173C50.2646 5.14387 50.3645 5.62059 50.3645 6.18189V11.7526C50.3261 12.6522 50.6298 13.1366 51.2757 13.2058L51.564 13.2404H52.0484L52.083 13.2635V14.0708L52.0484 14.1054H49.9608C49.2227 14.1054 48.7191 13.7133 48.4499 12.929C48.3192 12.5446 48.2539 12.1755 48.2539 11.8218V6.26263C48.2539 5.58599 47.9924 5.14387 47.4696 4.93627C47.3235 4.89783 47.1966 4.8786 47.089 4.8786H46.0971L46.0625 4.85554V3.90979L46.0971 3.88672Z" fill="white"/>
  <path d="M40.8728 3.62109H41.0919C42.1376 3.62109 43.0411 4.00554 43.8023 4.77445C44.5481 5.60486 44.921 6.56214 44.921 7.6463V11.4408C44.921 12.5173 45.1325 13.1555 45.5554 13.3554C45.5554 13.4015 45.7092 13.4515 46.0167 13.5053H47.2162L47.2508 13.5399V14.0935L47.2162 14.1281H44.3674C43.5831 14.1281 43.0718 13.5553 42.8335 12.4096C42.8027 12.2789 42.7873 12.1405 42.7873 11.9944V7.91157C42.7873 6.56599 42.3068 5.69329 41.3456 5.29346C40.9535 5.15505 40.5421 5.08585 40.1115 5.08585C39.3196 5.10892 38.5391 5.5049 37.7702 6.27381C37.4857 6.61981 37.3435 6.96582 37.3435 7.31182V14.1281L37.3089 14.1627H35.2329L35.1867 14.1281V6.12387C35.1867 5.44724 34.9099 4.98974 34.3563 4.75138L33.9526 4.69371H32.9838L32.9492 4.65911V3.7595L32.9838 3.7249H35.6019C36.2632 3.7249 36.7745 4.09012 37.1359 4.82058L37.2397 5.17812C38.37 4.16317 39.581 3.64416 40.8728 3.62109Z" fill="white"/>
  <path d="M26.0077 14.1293H25.8001C24.7621 14.1293 23.8625 13.7486 23.1012 12.9874C22.3631 12.1647 21.994 11.2113 21.994 10.1271V6.35565C21.994 5.28688 21.7826 4.65638 21.3597 4.46415C21.3597 4.41033 21.2059 4.35651 20.8983 4.30268H19.7104L19.6758 4.26808V3.72601L19.7104 3.69141H22.5361C23.3204 3.69141 23.8279 4.26039 24.0585 5.39837C24.097 5.52908 24.1162 5.66748 24.1162 5.81358V9.86185C24.1162 11.1997 24.5891 12.0686 25.5348 12.4684C25.9346 12.6068 26.3422 12.676 26.7574 12.676C27.3725 12.676 28.0607 12.2954 28.8219 11.5342C29.1064 11.1882 29.2486 10.8422 29.2486 10.4962V3.72601L29.2832 3.69141H31.3477L31.3823 3.72601V11.6726C31.3823 12.3492 31.6591 12.8067 32.2127 13.0451L32.6164 13.0912H33.5737L33.6083 13.1258V14.0255L33.5737 14.0601H30.9786C30.3251 14.0601 29.8176 13.6987 29.4562 12.9759L29.3524 12.6184C28.2298 13.6256 27.1149 14.1293 26.0077 14.1293Z" fill="white"/>
  <path d="M15.4987 14.0596L12.0387 5.83622C11.6158 4.82127 10.7969 4.25997 9.58203 4.15233V3.72559H11.4851C12.7922 3.72559 13.6841 4.28688 14.1608 5.40948L16.6175 11.2108L18.9522 6.00141H20.0709L16.1677 15.213C15.7371 16.3279 15.2411 17.093 14.6799 17.5082C14.2031 17.8772 13.5457 18.0387 12.7076 17.9926L11.5658 17.9234V16.8392C13.465 17.116 14.626 16.5739 15.0489 15.213L15.4987 14.0596Z" fill="white"/>
  <path fill-rule="evenodd" clip-rule="evenodd" d="M5.88037 3.58691H3.18152L3.16999 3.59845V4.55573L3.18152 4.56726C3.45497 4.57568 3.75053 4.55929 4.05262 4.54254C5.15246 4.48156 6.33895 4.41578 6.86072 5.52455C7.10851 6.2116 7.11446 6.8716 7.11446 7.58905C4.7792 8.01364 0.858919 8.84658 0.863285 11.7873C0.865332 13.1661 2.2298 14.0824 3.57367 14.0824C4.79622 14.0824 5.99186 13.4942 7.16059 12.3178C7.30974 13.2127 7.78358 14.1516 8.82142 14.1516H10.6553V13.5404C9.58659 13.5404 9.14436 12.9801 9.14436 11.9026V8.6608C8.77836 8.74539 7.57383 9.06002 7.11446 9.18454V11.3605C6.22921 12.4689 3.17903 13.6564 3.16999 11.2452V11.2336C3.16999 9.37197 5.66612 8.84528 7.11446 8.5694V8.57037C7.58861 8.47709 8.75907 8.27057 9.14436 8.20559V8.20541C9.15032 8.20448 9.15626 8.20354 9.16218 8.20259C9.17678 8.20014 9.19004 8.19793 9.20188 8.19597C10.081 8.04423 10.5063 7.61407 10.1692 6.70326C10.0378 7.08048 9.70951 7.23071 9.14436 7.29991C9.12778 6.67101 9.07321 6.06813 8.83296 5.47841C8.33734 4.35421 7.11041 3.58691 5.88037 3.58691Z" fill="white"/>
  <path fill-rule="evenodd" clip-rule="evenodd" d="M69.3608 3.58691H66.662L66.6505 3.59845V4.55573L66.662 4.56726C66.9354 4.57568 67.231 4.55929 67.5331 4.54254C68.6329 4.48156 69.8194 4.41578 70.3412 5.52455C70.589 6.2116 70.5949 6.8716 70.5949 7.58905C68.2597 8.01364 64.3394 8.84658 64.3438 11.7873C64.3458 13.1661 65.7103 14.0824 67.0541 14.0824C68.2767 14.0824 69.4723 13.4942 70.6411 12.3178C70.7902 13.2127 71.2641 14.1516 72.3019 14.1516H74.1357V13.5404C73.0671 13.5404 72.6248 12.9801 72.6248 11.9026V8.6608C72.2588 8.74539 71.0543 9.06002 70.5949 9.18454V11.3605C69.7097 12.4689 66.6595 13.6564 66.6505 11.2452V11.2336C66.6505 9.37197 69.1466 8.84528 70.5949 8.5694V8.57037C71.0691 8.47709 72.2395 8.27057 72.6248 8.20559V8.20541C72.6308 8.20448 72.6367 8.20354 72.6426 8.20259C72.6572 8.20014 72.6705 8.19793 72.6823 8.19597C73.5615 8.04423 73.9867 7.61407 73.6497 6.70326C73.5182 7.08048 73.19 7.23071 72.6248 7.29991C72.6082 6.67101 72.5537 6.06813 72.3134 5.47841C71.8178 4.35421 70.5909 3.58691 69.3608 3.58691Z" fill="white"/>
</svg>