<svg xmlns="http://www.w3.org/2000/svg" width="25" height="25" viewBox="0 0 25 25" fill="none">
  <path d="M12.6723 23.2293C12.4477 21.9616 13.6139 21.7555 13.3892 20.4878C13.1646 19.2201 11.9985 19.4262 11.7769 18.1585C11.5523 16.8908 12.7185 16.6847 12.4939 15.417" stroke="black" stroke-width="0.615385" stroke-miterlimit="10" stroke-linecap="round" stroke-linejoin="round"/>
  <path d="M12.8133 15.4103H12.2133C11.9487 15.4103 11.761 15.1519 11.8441 14.8996L12.1456 13.998C12.1979 13.8411 12.3456 13.7334 12.5149 13.7334C12.681 13.7334 12.8287 13.8411 12.8841 13.998L13.1856 14.8996C13.2656 15.1519 13.0779 15.4103 12.8133 15.4103Z" fill="#FF0B5C" stroke="black" stroke-width="0.615385" stroke-miterlimit="10"/>
  <path d="M15.177 1.74921C13.3217 2.01383 12.6047 3.66921 12.6047 3.66921C12.6047 3.66921 11.8847 2.01383 10.0293 1.74921C8.41089 1.51844 5.62012 2.40768 5.62012 5.53383C5.62012 9.88768 12.6017 13.7031 12.6017 13.7031C12.6017 13.7031 19.5832 9.88768 19.5832 5.53383C19.5863 2.4046 16.7955 1.51537 15.177 1.74921Z" fill="#FF6498"/>
  <path d="M13.1252 13.399C14.7436 12.4113 19.5867 9.16212 19.5867 5.53442C19.5867 3.45442 18.3529 2.36519 17.0513 1.9375C17.0482 1.9375 17.0482 1.9375 17.0452 1.9375C15.6575 2.1375 14.9805 2.00827 13.839 2.26058C12.9652 2.83904 12.6052 3.66981 12.6052 3.66981C12.6052 3.66981 12.4267 3.26058 12.0205 2.8175C10.4359 3.27904 8.06055 3.61442 8.06055 6.4575C8.06055 9.30981 11.0575 11.9313 13.1252 13.399Z" fill="#FF0B5C"/>
  <path d="M15.177 1.74921C13.3217 2.01383 12.6047 3.66921 12.6047 3.66921C12.6047 3.66921 11.8847 2.01383 10.0293 1.74921C8.41089 1.51844 5.62012 2.40768 5.62012 5.53383C5.62012 9.88768 12.6017 13.7031 12.6017 13.7031C12.6017 13.7031 19.5832 9.88768 19.5832 5.53383C19.5863 2.4046 16.7955 1.51537 15.177 1.74921Z" stroke="black" stroke-width="0.615385" stroke-miterlimit="10" stroke-linecap="round" stroke-linejoin="round"/>
</svg>