<svg xmlns="http://www.w3.org/2000/svg" width="121" height="120" viewBox="0 0 121 120" fill="none">
  <path d="M9.5 21C9.5 20.4477 9.94772 20 10.5 20H13.5C14.0523 20 14.5 20.4477 14.5 21V34C14.5 34.5523 14.0523 35 13.5 35H10.5C9.94772 35 9.5 34.5523 9.5 34L9.5 21Z" stroke="#426720" stroke-width="2"/>
  <path d="M106.5 21C106.5 20.4477 106.948 20 107.5 20H110.5C111.052 20 111.5 20.4477 111.5 21V34C111.5 34.5523 111.052 35 110.5 35H107.5C106.948 35 106.5 34.5523 106.5 34L106.5 21Z" stroke="#426720" stroke-width="2"/>
  <path d="M26.1998 15.3753C26.3895 15.1381 26.6768 15 26.9806 15H94.0194C94.3232 15 94.6105 15.1381 94.8002 15.3753L110.5 35H10.5L26.1998 15.3753Z" fill="white" stroke="#426720" stroke-width="2"/>
  <path d="M5.5 36C5.5 35.4477 5.94772 35 6.5 35H114.5C115.052 35 115.5 35.4477 115.5 36V44C115.5 44.5523 115.052 45 114.5 45H6.5C5.94771 45 5.5 44.5523 5.5 44L5.5 36Z" fill="white" stroke="#426720" stroke-width="2"/>
  <path d="M5.5 96C5.5 95.4477 5.94772 95 6.5 95H114.5C115.052 95 115.5 95.4477 115.5 96V104C115.5 104.552 115.052 105 114.5 105H6.5C5.94771 105 5.5 104.552 5.5 104L5.5 96Z" stroke="#426720" stroke-width="2"/>
  <path d="M35.5 50H85.5V55H35.5L35.5 50Z" stroke="#426720" stroke-width="2"/>
  <path d="M10.5 46C10.5 45.4477 10.9477 45 11.5 45H109.5C110.052 45 110.5 45.4477 110.5 46V94C110.5 94.5523 110.052 95 109.5 95H11.5C10.9477 95 10.5 94.5523 10.5 94L10.5 46Z" stroke="#426720" stroke-width="2"/>
  <path d="M35.5 56C35.5 55.4477 35.9477 55 36.5 55H84.5C85.0523 55 85.5 55.4477 85.5 56V94C85.5 94.5523 85.0523 95 84.5 95H36.5C35.9477 95 35.5 94.5523 35.5 94L35.5 56Z" stroke="#426720" stroke-width="2"/>
  <path d="M40.5 56C40.5 55.4477 40.9477 55 41.5 55H79.5C80.0523 55 80.5 55.4477 80.5 56V94C80.5 94.5523 80.0523 95 79.5 95H41.5C40.9477 95 40.5 94.5523 40.5 94L40.5 56Z" stroke="#426720" stroke-width="2"/>
  <path d="M50.5 75C50.5 69.4772 54.9772 65 60.5 65V65C66.0228 65 70.5 69.4772 70.5 75V94.0323C70.5 94.5667 70.0667 95 69.5323 95H51.4677C50.9333 95 50.5 94.5667 50.5 94.0323L50.5 75Z" stroke="#426720" stroke-width="2"/>
  <path d="M15.5 72.5C15.5 68.3579 18.8579 65 23 65V65C27.1421 65 30.5 68.3579 30.5 72.5V84.3548C30.5 84.7112 30.2112 85 29.8548 85H16.1452C15.7888 85 15.5 84.7112 15.5 84.3548L15.5 72.5Z" stroke="#426720" stroke-width="2"/>
  <path d="M90.5 72.5C90.5 68.3579 93.8579 65 98 65V65C102.142 65 105.5 68.3579 105.5 72.5V84.3548C105.5 84.7112 105.211 85 104.855 85H91.1452C90.7888 85 90.5 84.7112 90.5 84.3548L90.5 72.5Z" stroke="#426720" stroke-width="2"/>
  <path d="M59.7929 20.7071C60.1834 20.3166 60.8166 20.3166 61.2071 20.7071L88.7929 48.2929C89.4229 48.9229 88.9767 50 88.0858 50H32.9142C32.0233 50 31.5771 48.9229 32.2071 48.2929L59.7929 20.7071Z" fill="white" stroke="#426720" stroke-width="2"/>
  <rect x="53" y="58.5" width="3" height="3" rx="0.5" stroke="#426720"/>
  <rect x="59" y="58.5" width="3" height="3" rx="0.5" stroke="#426720"/>
  <rect x="65" y="58.5" width="3" height="3" rx="0.5" stroke="#426720"/>
  <rect x="91" y="53.5" width="3" height="3" rx="0.5" stroke="#426720"/>
  <rect x="97" y="53.5" width="3" height="3" rx="0.5" stroke="#426720"/>
  <rect x="103" y="53.5" width="3" height="3" rx="0.5" stroke="#426720"/>
  <rect x="15" y="53.5" width="3" height="3" rx="0.5" stroke="#426720"/>
  <rect x="21" y="53.5" width="3" height="3" rx="0.5" stroke="#426720"/>
  <rect x="27" y="53.5" width="3" height="3" rx="0.5" stroke="#426720"/>
  <path d="M60.5 65V94.5" stroke="#426720" stroke-width="2"/>
</svg>