<svg xmlns="http://www.w3.org/2000/svg" width="24" height="24" viewBox="0 0 24 24" fill="none">
  <path d="M9.38958 1L8.23162 2.63758L9.72598 2.63758L10.8839 1H9.38958ZM11.9365 1L10.7786 2.63758L14.236 2.63758L13.1657 1L11.9364 1H11.9365ZM14.2183 1L15.2887 2.63758H16.7831L15.7127 1H14.2183ZM8.44771 3.4957L10.8221 5.88486L9.66683 3.4957H8.44771ZM10.646 3.4957L12.3881 7.09834L14.3228 3.49566L10.646 3.4957ZM15.3019 3.4957L14.0189 5.88486L16.5211 3.4957H15.3019ZM8.72048 5.01639C5.2614 6.44211 2.76553 9.76924 2.6622 13.6336C2.5243 18.7911 6.69945 22.9921 11.9631 22.9921C17.2267 22.9921 21.6265 18.7912 21.7644 13.6336C21.8678 9.76929 19.5498 6.44211 16.167 5.01639L14.6433 6.47124C17.7515 7.40526 19.9446 10.2514 19.8542 13.6336C19.7433 17.7796 16.2443 21.1205 12.0131 21.1205C7.78189 21.1205 4.4616 17.7795 4.57245 13.6336C4.66289 10.2514 7.00821 7.40526 10.1664 6.47129L8.72048 5.01649L8.72048 5.01639Z" fill="#426720"/>
</svg>