<svg width="88" height="92" viewBox="0 0 88 92" fill="none" xmlns="http://www.w3.org/2000/svg">
<g filter="url(#filter0_d_953_4589)">
<rect x="28" y="28" width="36" height="36" rx="18" fill="white"/>
<path fill-rule="evenodd" clip-rule="evenodd" d="M42.7377 39.7976C42.7376 39.5486 42.8304 39.3085 42.998 39.1243C43.1655 38.9401 43.3958 38.825 43.6437 38.8016L52.6437 37.9556C52.7824 37.9425 52.9222 37.9585 53.0544 38.0026C53.1865 38.0467 53.3079 38.118 53.4109 38.2117C53.5139 38.3055 53.5962 38.4197 53.6524 38.5471C53.7087 38.6746 53.7378 38.8123 53.7377 38.9516V41.1326C53.7377 41.3807 53.6455 41.6199 53.479 41.8037C53.3124 41.9876 53.0835 42.103 52.8367 42.1276L43.8367 43.0206C43.6977 43.0344 43.5574 43.019 43.4247 42.9753C43.2921 42.9316 43.1701 42.8606 43.0665 42.7668C42.963 42.6731 42.8803 42.5587 42.8236 42.431C42.767 42.3034 42.7377 42.1653 42.7377 42.0256V39.7976Z" fill="#151737"/>
<path d="M50.7377 53.4878C52.3946 53.4878 53.7377 52.3685 53.7377 50.9878C53.7377 49.6071 52.3946 48.4878 50.7377 48.4878C49.0808 48.4878 47.7377 49.6071 47.7377 50.9878C47.7377 52.3685 49.0808 53.4878 50.7377 53.4878Z" fill="#151737"/>
<path d="M41.7377 54.4878C43.3946 54.4878 44.7377 53.3685 44.7377 51.9878C44.7377 50.6071 43.3946 49.4878 41.7377 49.4878C40.0808 49.4878 38.7377 50.6071 38.7377 51.9878C38.7377 53.3685 40.0808 54.4878 41.7377 54.4878Z" fill="#151737"/>
<path fill-rule="evenodd" clip-rule="evenodd" d="M51.7377 40.9878H53.7377V50.9878H51.7377V40.9878ZM42.7377 41.9878H44.7377V51.9878H42.7377V41.9878Z" fill="#151737"/>
<path d="M37.2807 38.6947C37.0986 38.5061 36.9978 38.2535 37 37.9913C37.0023 37.7291 37.1075 37.4783 37.2929 37.2929C37.4783 37.1075 37.7291 37.0023 37.9913 37C38.2535 36.9978 38.5061 37.0986 38.6947 37.2807L54.6947 53.2807C54.8769 53.4693 54.9777 53.7219 54.9754 53.9841C54.9731 54.2463 54.8679 54.4971 54.6825 54.6825C54.4971 54.8679 54.2463 54.9731 53.9841 54.9754C53.7219 54.9777 53.4693 54.8769 53.2807 54.6947L37.2807 38.6947Z" fill="#151737"/>
</g>
<defs>
<filter id="filter0_d_953_4589" x="0" y="0" width="92" height="92" filterUnits="userSpaceOnUse" color-interpolation-filters="sRGB">
<feFlood flood-opacity="0" result="BackgroundImageFix"/>
<feColorMatrix in="SourceAlpha" type="matrix" values="0 0 0 0 0 0 0 0 0 0 0 0 0 0 0 0 0 0 127 0" result="hardAlpha"/>
<feMorphology radius="4" operator="dilate" in="SourceAlpha" result="effect1_dropShadow_953_4589"/>
<feOffset/>
<feGaussianBlur stdDeviation="12"/>
<feComposite in2="hardAlpha" operator="out"/>
<feColorMatrix type="matrix" values="0 0 0 0 0 0 0 0 0 0 0 0 0 0 0 0 0 0 0.1 0"/>
<feBlend mode="normal" in2="BackgroundImageFix" result="effect1_dropShadow_953_4589"/>
<feBlend mode="normal" in="SourceGraphic" in2="effect1_dropShadow_953_4589" result="shape"/>
</filter>
</defs>
</svg>
