<svg width="21" height="22" viewBox="0 0 21 22" fill="none" xmlns="http://www.w3.org/2000/svg">
<g id="Brandmark">
<rect width="21" height="21.6562" rx="10.5" fill="#585661"/>
<path id="Subtract" fill-rule="evenodd" clip-rule="evenodd" d="M10.8227 6.23504C10.8227 6.23504 8.74501 6.66977 8.38803 5.61426C8.0401 6.09603 8.24818 7.02687 9.03107 7.16661C9.2492 7.20554 9.49075 7.19127 9.73773 7.17668C10.3772 7.1389 11.053 7.09898 11.4526 7.97474C11.659 8.56491 11.664 9.13185 11.664 9.74812C9.71882 10.1128 6.4534 10.8283 6.45703 13.3543C6.45874 14.5388 7.40523 15.3258 8.71466 15.3258C9.733 15.3258 10.7289 14.8206 11.7024 13.8101C11.8266 14.5787 12.2213 15.3853 13.0858 15.3853C14.5933 15.3853 14.8576 14.6942 14.7108 13.9069C14.0941 14.7396 13.3548 14.379 13.3548 13.4534V10.6864C13.3215 10.6997 13.2854 10.7138 13.247 10.7288C12.6925 10.9456 11.6517 11.3524 11.6648 12.0627C11.6649 12.0677 11.6646 12.0665 11.664 12.0599V12.9878C10.9266 13.9399 8.38595 14.9599 8.37842 12.8887V12.8788C8.37842 11.2796 10.4576 10.8272 11.664 10.5902V10.5916C12.0593 10.5115 13.0343 10.3341 13.3548 10.2783V10.2776C14.1194 10.1549 14.4953 9.78649 14.2084 8.98724C14.099 9.31127 13.8255 9.44031 13.3548 9.49976C13.341 8.95954 13.2955 8.44167 13.0954 7.93512C12.6826 6.96944 11.8472 6.23504 10.8227 6.23504Z" fill="white"/>
</g>
</svg>
