<svg width="36" height="36" viewBox="0 0 36 36" fill="none" xmlns="http://www.w3.org/2000/svg">
<g id="clean-hand">
<path id="Vector" d="M25.8757 32.6249C25.4995 32.6239 25.1314 32.5157 24.8146 32.313C24.4978 32.1102 24.2454 31.8214 24.0869 31.4802L24.5977 31.2445C24.7109 31.4883 24.8912 31.6947 25.1176 31.8395C25.3439 31.9844 25.6069 32.0617 25.8757 32.0624C26.2299 32.0614 26.5707 31.9271 26.8304 31.6862C27.0902 31.4453 27.2497 31.1156 27.2774 30.7625L27.8388 30.8041C27.7998 31.2986 27.5763 31.7603 27.2126 32.0977C26.8489 32.435 26.3717 32.6232 25.8757 32.6249Z" fill="#585661"/>
<path id="Vector_2" d="M28.6869 31.5C28.2828 31.5001 27.8862 31.3913 27.5387 31.1851C27.1911 30.9789 26.9056 30.683 26.7119 30.3283L27.2052 30.0589C27.3507 30.3248 27.5649 30.5467 27.8256 30.7013C28.0863 30.8558 28.3838 30.9375 28.6869 30.9375C28.9525 30.9371 29.2142 30.874 29.4509 30.7534C29.6875 30.6329 29.8924 30.4583 30.049 30.2437C30.2055 30.0291 30.3093 29.7807 30.3518 29.5185C30.3944 29.2563 30.3745 28.9878 30.2939 28.7348L30.1499 28.2825L30.6157 28.3731C30.7197 28.3939 30.8272 28.4063 30.9369 28.4063C31.8672 28.4063 32.6244 27.6491 32.6244 26.7188C32.6244 26.3357 32.4989 25.9751 32.2627 25.6753L32.7042 25.3271C33.0198 25.7271 33.1869 26.208 33.1869 26.7188C33.1869 27.9596 32.1777 28.9688 30.9369 28.9688H30.9194C30.9589 29.2854 30.9307 29.6069 30.8366 29.9118C30.7425 30.2168 30.5847 30.4982 30.3736 30.7376C30.1625 30.9769 29.903 31.1687 29.6122 31.3001C29.3214 31.4315 29.006 31.4997 28.6869 31.5Z" fill="#585661"/>
<path id="Vector_3" d="M31.7831 25.875V25.3125C32.4035 25.3125 32.9081 24.808 32.9081 24.1875C32.9074 23.9739 32.8462 23.7648 32.7317 23.5845C32.6171 23.4043 32.4538 23.2601 32.2606 23.1688L31.9389 23.0181L32.1599 22.7396C32.2796 22.5923 32.3453 22.4085 32.3461 22.2188C32.3461 21.9004 32.1701 21.6124 31.8866 21.4673L32.1425 20.9666C32.4683 21.1324 32.7164 21.419 32.8338 21.7652C32.9512 22.1114 32.9286 22.4898 32.7708 22.8195C32.9868 22.9765 33.1626 23.1822 33.2842 23.4199C33.4058 23.6576 33.4696 23.9205 33.4706 24.1875C33.4706 25.1179 32.7134 25.875 31.7831 25.875ZM23.3456 32.0625C22.9833 32.0641 22.6303 31.9484 22.3392 31.7327C22.0482 31.5171 21.8347 31.2131 21.7306 30.8661L22.2689 30.7024C22.3382 30.9338 22.4805 31.1365 22.6746 31.2803C22.8686 31.4241 23.104 31.5012 23.3456 31.5C23.8068 31.5 24.2169 31.2233 24.389 30.7958L24.911 31.0061C24.7859 31.3187 24.5697 31.5865 24.2906 31.7749C24.0115 31.9632 23.6823 32.0634 23.3456 32.0625ZM13.2014 11.461C13.0202 11.118 12.9306 10.734 12.9413 10.3462C12.952 9.95843 13.0627 9.57999 13.2627 9.24756C13.4627 8.91514 13.7451 8.64 14.0826 8.44881C14.4202 8.25761 14.8014 8.15684 15.1893 8.15626C15.4183 8.15626 15.6455 8.19283 15.8677 8.26651C16.0218 7.746 16.3405 7.28945 16.776 6.96534C17.2114 6.64122 17.7402 6.46699 18.2831 6.46876C19.0267 6.46876 19.7298 6.79389 20.2119 7.36089L19.7833 7.72483C19.5985 7.50734 19.3686 7.33266 19.1095 7.21289C18.8505 7.09313 18.5685 7.03115 18.2831 7.03126C17.8141 7.02994 17.3603 7.19745 17.0047 7.50318C16.6491 7.8089 16.4154 8.23241 16.3464 8.69626L16.2873 9.07764L15.9425 8.90439C15.7094 8.78441 15.4515 8.72083 15.1893 8.71876C14.8984 8.71932 14.6126 8.79497 14.3595 8.93838C14.1064 9.08178 13.8947 9.2881 13.7447 9.53735C13.5947 9.78661 13.5116 10.0704 13.5035 10.3611C13.4953 10.6519 13.5624 10.9399 13.6981 11.1971L13.2014 11.461Z" fill="#585661"/>
<path id="Vector_4" d="M19.9687 8.71875H19.4062C19.4062 7.16794 20.6679 5.90625 22.2187 5.90625C23.1351 5.90625 23.9962 6.35456 24.5233 7.10606L24.0632 7.42894C23.8554 7.13274 23.5794 6.89087 23.2585 6.72376C22.9375 6.55664 22.5811 6.46918 22.2193 6.46875C21.6227 6.4692 21.0506 6.70637 20.6286 7.12822C20.2067 7.55006 19.9693 8.1221 19.9687 8.71875Z" fill="#585661"/>
<path id="Vector_5" d="M27.3847 10.1059L27.0067 9.68906C27.1816 9.53076 27.3213 9.33763 27.417 9.12208C27.5127 8.90653 27.5623 8.67334 27.5625 8.4375C27.5625 7.50713 26.8054 6.75 25.875 6.75C25.5439 6.7509 25.2203 6.84876 24.9442 7.0315C24.6681 7.21423 24.4516 7.47384 24.3214 7.77825L23.8027 7.55887C23.9766 7.15296 24.2654 6.80681 24.6337 6.56312C25.0019 6.31943 25.4334 6.18885 25.875 6.1875C27.1159 6.1875 28.125 7.19662 28.125 8.4375C28.1248 8.75185 28.0589 9.06268 27.9314 9.35001C27.8039 9.63735 27.6177 9.89482 27.3847 10.1059Z" fill="#585661"/>
<path id="Vector_6" d="M33.0283 17.2536L32.7538 16.7631C32.8845 16.6904 32.9934 16.5844 33.0696 16.4558C33.1458 16.3272 33.1865 16.1807 33.1875 16.0312C33.1875 15.6932 32.9867 15.3883 32.6745 15.255L32.4315 15.1509L32.5204 14.9018C32.5907 14.7049 32.625 14.5221 32.625 14.3438C32.625 13.4134 31.8679 12.6562 30.9375 12.6562C30.9178 12.6562 30.8987 12.6596 30.879 12.6624L30.3615 12.7057L30.5151 12.2929C30.6084 12.0431 30.6557 11.7872 30.6557 11.5312C30.6553 11.1933 30.5789 10.8598 30.4321 10.5554C30.2853 10.251 30.0718 9.98353 29.8076 9.77283C29.5434 9.56214 29.2351 9.41361 28.9057 9.33825C28.5762 9.26289 28.2341 9.26263 27.9045 9.3375L27.7802 8.7885C28.1921 8.69529 28.6196 8.6959 29.0312 8.7903C29.4428 8.8847 29.8279 9.07046 30.158 9.33384C30.4881 9.59722 30.7547 9.93147 30.9381 10.3118C31.1216 10.6922 31.2171 11.109 31.2176 11.5312C31.2176 11.7231 31.1968 11.9149 31.1552 12.1044C31.7114 12.1591 32.2273 12.4186 32.6029 12.8324C32.9785 13.2463 33.1868 13.7849 33.1875 14.3438C33.1875 14.5136 33.1656 14.6841 33.1211 14.8596C33.3146 14.9877 33.4733 15.1618 33.583 15.3663C33.6928 15.5707 33.7501 15.7992 33.75 16.0312C33.75 16.5358 33.4738 17.0038 33.0283 17.2536ZM24.3669 10.1076C24.1334 9.89649 23.9468 9.63882 23.819 9.35116C23.6912 9.06351 23.6251 8.75226 23.625 8.4375C23.625 7.19662 24.6341 6.1875 25.875 6.1875C27.1159 6.1875 28.125 7.19662 28.125 8.4375H27.5625C27.5625 7.50713 26.8054 6.75 25.875 6.75C24.9446 6.75 24.1875 7.50713 24.1875 8.4375C24.1875 8.91394 24.39 9.37069 24.7438 9.69019L24.3669 10.1076ZM13.4111 11.7872C13.1028 11.3931 12.936 10.9067 12.9375 10.4062C12.9375 9.16537 13.9466 8.15625 15.1875 8.15625V8.71875C14.8719 8.71949 14.5628 8.80861 14.2953 8.97601C14.0277 9.14341 13.8124 9.38239 13.6737 9.66588C13.535 9.94938 13.4784 10.2661 13.5105 10.58C13.5425 10.894 13.6618 11.1927 13.8549 11.4424L13.4111 11.7872Z" fill="#585661"/>
<path id="Vector_7" d="M8.00486 18.8112C7.98181 18.7622 7.94508 18.721 7.89911 18.6925L3.08917 15.7056L2.79273 16.1837L7.53348 19.1273C7.61842 19.3 7.84398 19.7393 8.18036 20.2934L8.7783 20.1854C8.29455 19.4136 8.01161 18.8247 8.00486 18.8112ZM12.0025 12.6169L2.97611 6.07617L2.64648 6.5318L11.7894 13.1569C11.8252 13.1833 11.8668 13.2007 11.9108 13.2076C11.9548 13.2144 11.9998 13.2106 12.0419 13.1963L13.9904 12.5534L14.5765 11.7681L12.0025 12.6169ZM24.4698 13.7813C24.728 13.7813 24.9665 13.8555 25.1746 13.977C25.9902 13.491 26.5015 12.5652 26.4121 11.5735L26.3845 11.2731C26.3775 11.2006 26.3428 11.1335 26.2876 11.0859C26.2324 11.0383 26.1609 11.0139 26.0881 11.0177L18.9438 11.4334C18.898 11.6294 18.8257 11.8183 18.7289 11.9948L18.9269 11.997L25.8496 11.5949L25.8524 11.6235C25.9441 12.6377 25.2303 13.5675 24.2088 13.7447L23.554 13.9022C23.5889 13.9489 23.6317 13.9889 23.6615 14.0395C23.8976 13.8717 24.1801 13.7815 24.4698 13.7813ZM29.7342 24.178C29.9158 23.868 29.9745 23.5012 29.8988 23.1501C29.823 22.7989 29.6184 22.4889 29.3253 22.2812L28.9389 22.0101L28.2684 22.2261L28.7161 22.5405C29.2128 22.4359 29.6268 22.4393 29.8068 22.9427C29.9092 23.2291 29.8937 23.5444 29.7638 23.8194C29.6338 24.0943 29.4001 24.3065 29.1138 24.4092L27.6766 24.8749L28.6902 25.5646C28.7998 25.637 28.8941 25.7303 28.9676 25.8391C29.0411 25.948 29.0925 26.0702 29.1188 26.199C29.145 26.3277 29.1457 26.4603 29.1207 26.5892C29.0957 26.7182 29.0456 26.841 28.9732 26.9506C28.9007 27.0601 28.8074 27.1544 28.6986 27.2279C28.5897 27.3014 28.4675 27.3528 28.3388 27.3791C28.2101 27.4053 28.0775 27.406 27.9485 27.381C27.8195 27.3561 27.6968 27.3059 27.5872 27.2335L25.1757 25.6849L24.4839 25.9094L26.0982 26.946C26.3182 27.0862 26.4746 27.3067 26.5343 27.5606C26.594 27.8144 26.5522 28.0816 26.4177 28.305C26.2805 28.5357 26.0605 28.6988 25.7995 28.764C25.6715 28.7968 25.5382 28.8037 25.4075 28.7842C25.2768 28.7646 25.1513 28.7192 25.0385 28.6504L21.8823 26.7526L21.146 26.991L22.8284 28.0142C23.2109 28.282 23.3127 28.7989 23.0607 29.1916C22.9989 29.2879 22.9185 29.371 22.8243 29.4361C22.7301 29.5012 22.624 29.5469 22.512 29.5707C22.4 29.5945 22.2844 29.5959 22.1719 29.5747C22.0593 29.5536 21.9521 29.5103 21.8564 29.4475L19.7949 28.2156C19.7054 28.3928 19.553 28.534 19.3392 28.5992L21.5594 29.9256C21.7172 30.0274 21.8936 30.0969 22.0784 30.1301C22.2632 30.1633 22.4527 30.1596 22.636 30.1191C22.8194 30.0794 22.9931 30.0039 23.1472 29.8968C23.3013 29.7898 23.4327 29.6533 23.5338 29.4953C23.725 29.1977 23.7925 28.8563 23.7475 28.5306L24.7482 29.1325C24.9245 29.2393 25.1203 29.3099 25.3242 29.3402C25.5281 29.3705 25.7359 29.36 25.9357 29.3091C26.136 29.2596 26.3244 29.1708 26.4901 29.0478C26.6557 28.9247 26.7952 28.77 26.9004 28.5925C27.0798 28.2934 27.1542 27.943 27.1119 27.5969L27.2823 27.7066C27.6417 27.9372 28.0681 28.0103 28.4849 27.913C28.7801 27.8432 29.0487 27.6891 29.2579 27.4694C29.4671 27.2497 29.6079 26.9739 29.6632 26.6756C29.7184 26.3773 29.6857 26.0694 29.5691 25.7893C29.4525 25.5093 29.257 25.2692 29.0064 25.0982L28.6694 24.8693C28.7245 24.8631 28.7791 24.853 28.8337 24.84C29.021 24.797 29.1975 24.716 29.3524 24.6021C29.5073 24.4883 29.6372 24.3439 29.7342 24.178Z" fill="#585661"/>
<path id="Vector_8" d="M18.3096 15.7618L18.9255 15.6189C19.0081 15.4092 19.1518 15.2292 19.3379 15.1021C19.5241 14.975 19.7441 14.9068 19.9695 14.9062C20.1259 14.9062 20.2817 14.9406 20.4313 15.0086L20.7913 15.1712L20.8273 14.778C20.8522 14.483 20.9703 14.2035 21.1644 13.98C21.3585 13.7564 21.6187 13.6004 21.9073 13.5344C22.196 13.4684 22.4981 13.4959 22.7701 13.6129C23.0421 13.7298 23.2698 13.9302 23.4204 14.1851L23.5763 14.4439L23.8226 14.2695C24.015 14.1339 24.2389 14.0625 24.4695 14.0625C24.6658 14.0625 24.8469 14.1176 25.0078 14.2059L25.7025 14.0439C25.5458 13.8729 25.3553 13.7362 25.1431 13.6426C24.9308 13.549 24.7015 13.5004 24.4695 13.5C24.2158 13.5 23.9689 13.5574 23.7422 13.6665C23.5594 13.4385 23.3276 13.2545 23.064 13.1283C22.8004 13.0021 22.5118 12.9369 22.2195 12.9375C21.789 12.9363 21.3702 13.0775 21.0283 13.3391C20.6863 13.6006 20.4405 13.9679 20.3289 14.3837C20.211 14.3572 20.0904 14.3438 19.9695 14.3438C19.5696 14.3447 19.183 14.4879 18.8789 14.7477C18.5748 15.0074 18.373 15.3669 18.3096 15.7618ZM25.8758 5.34375C25.2553 5.34375 24.7508 4.83919 24.7508 4.21875C24.7508 3.59831 25.2553 3.09375 25.8758 3.09375C26.4962 3.09375 27.0008 3.59831 27.0008 4.21875C27.0008 4.83919 26.4962 5.34375 25.8758 5.34375ZM25.8758 3.65625C25.7309 3.66273 25.5942 3.72482 25.494 3.8296C25.3938 3.93438 25.3379 4.07377 25.3379 4.21875C25.3379 4.36373 25.3938 4.50312 25.494 4.6079C25.5942 4.71268 25.7309 4.77477 25.8758 4.78125C26.0206 4.77477 26.1573 4.71268 26.2575 4.6079C26.3577 4.50312 26.4137 4.36373 26.4137 4.21875C26.4137 4.07377 26.3577 3.93438 26.2575 3.8296C26.1573 3.72482 26.0206 3.66273 25.8758 3.65625ZM28.9695 4.21875C28.3491 4.21875 27.8445 3.71419 27.8445 3.09375C27.8445 2.47331 28.3491 1.96875 28.9695 1.96875C29.5899 1.96875 30.0945 2.47331 30.0945 3.09375C30.0945 3.71419 29.5899 4.21875 28.9695 4.21875ZM28.9695 2.53125C28.8247 2.53773 28.6879 2.59982 28.5877 2.7046C28.4875 2.80938 28.4316 2.94877 28.4316 3.09375C28.4316 3.23873 28.4875 3.37812 28.5877 3.4829C28.6879 3.58768 28.8247 3.64977 28.9695 3.65625C29.1143 3.64977 29.2511 3.58768 29.3513 3.4829C29.4515 3.37812 29.5074 3.23873 29.5074 3.09375C29.5074 2.94877 29.4515 2.80938 29.3513 2.7046C29.2511 2.59982 29.1143 2.53773 28.9695 2.53125ZM31.2195 7.875C30.4438 7.875 29.8133 7.24388 29.8133 6.46875C29.8133 5.69362 30.4438 5.0625 31.2195 5.0625C31.9952 5.0625 32.6258 5.69362 32.6258 6.46875C32.6258 7.24388 31.9952 7.875 31.2195 7.875ZM31.2195 5.625C30.7543 5.625 30.3758 6.00356 30.3758 6.46875C30.3758 6.93394 30.7543 7.3125 31.2195 7.3125C31.6847 7.3125 32.0633 6.93394 32.0633 6.46875C32.0633 6.00356 31.6847 5.625 31.2195 5.625Z" fill="#585661"/>
<g id="Group">
<path id="Vector_9" d="M13.425 27.7606C12.7269 27.5862 12.264 27.4062 12.2521 27.4017C12.1947 27.3792 12.1316 27.3759 12.0721 27.3921L2.73633 30.0044L2.8882 30.5461L12.1346 27.9586C12.3056 28.0221 12.6993 28.16 13.2298 28.2961C13.2495 28.0981 13.3164 27.9141 13.425 27.7606ZM32.1956 16.9538C32.0717 16.5751 31.808 16.2578 31.4583 16.0668C31.1085 15.8757 30.6991 15.8252 30.3135 15.9256L30.0946 15.983C30.2505 15.6593 30.2776 15.2886 30.1706 14.9457C30.0636 14.6024 29.8314 14.3119 29.5202 14.1318C29.2089 13.9517 28.8413 13.8953 28.4904 13.9737L16.8022 16.6895L18.9645 12.1506C19.6153 11.0144 19.28 9.54514 18.2006 8.80489L17.9525 8.63445C17.8926 8.59326 17.8191 8.57687 17.7473 8.58872C17.6756 8.60057 17.6112 8.63974 17.5678 8.69801L13.3721 14.3202L11.2166 17.0225C11.1974 17.0462 11.1823 17.073 11.1721 17.1018L9.91664 20.5521L2.76277 21.8403L2.86289 22.3938L10.1754 21.077C10.2238 21.0682 10.269 21.0469 10.3066 21.0152C10.3442 20.9835 10.3728 20.9426 10.3897 20.8964L11.6851 17.3375L13.8176 14.6639L17.8575 9.25095L17.8828 9.26839C18.7226 9.84439 18.9836 10.9874 18.4678 11.8902L16.0445 16.9752C16.0212 17.023 16.0119 17.0764 16.0178 17.1292C16.0238 17.182 16.0446 17.2321 16.078 17.2735C16.1114 17.3148 16.1558 17.3459 16.2062 17.3629C16.2565 17.3799 16.3107 17.3822 16.3623 17.3695L28.617 14.5216C28.7798 14.4853 28.9496 14.4968 29.106 14.5546C29.2625 14.6124 29.399 14.714 29.4991 14.8474C29.5993 14.9808 29.6588 15.1403 29.6707 15.3066C29.6825 15.473 29.6461 15.6393 29.5659 15.7855C29.4511 15.9936 29.2616 16.1416 29.0326 16.2035L21.219 18.3044C21.1506 18.3268 21.0934 18.3745 21.0591 18.4377C21.0248 18.5009 21.0159 18.5748 21.0343 18.6443C21.0527 18.7138 21.097 18.7737 21.1581 18.8116C21.2192 18.8495 21.2925 18.8627 21.363 18.8483L30.4575 16.4701C30.7043 16.4053 30.9665 16.4374 31.1904 16.5598C31.4143 16.6822 31.583 16.8855 31.6618 17.1282C31.7467 17.3881 31.7225 17.6643 31.5954 17.9056C31.4671 18.1475 31.2523 18.3224 30.9896 18.3989L21.9969 21.0066C21.9269 21.0288 21.8683 21.0775 21.8337 21.1422C21.7991 21.207 21.7912 21.2828 21.8117 21.3533C21.8322 21.4238 21.8794 21.4835 21.9434 21.5196C22.0073 21.5558 22.0828 21.5655 22.1538 21.5466L29.7943 19.331C30.0444 19.2574 30.3133 19.2845 30.5437 19.4066C30.774 19.5286 30.9476 19.7358 31.0273 19.984C31.1105 20.2394 31.0891 20.5116 30.9671 20.7513C30.9073 20.8691 30.8247 20.9738 30.7241 21.0594C30.6235 21.1449 30.5068 21.2096 30.381 21.2496L22.502 23.7882C22.4309 23.8109 22.3718 23.8609 22.3375 23.9272C22.3033 23.9935 22.2968 24.0706 22.3195 24.1417C22.3422 24.2128 22.3921 24.272 22.4584 24.3062C22.5247 24.3404 22.6019 24.3469 22.673 24.3243L28.4685 22.5029C28.6819 22.4355 28.9131 22.4535 29.1135 22.5531C29.3139 22.6528 29.4678 22.8264 29.5428 23.0373C29.621 23.255 29.6092 23.4901 29.5102 23.6988C29.4144 23.9045 29.2408 24.0637 29.0276 24.1414L19.8729 27.1075C19.9331 27.247 19.9685 27.4006 19.9685 27.5626C19.9685 27.5997 19.9606 27.6351 19.9573 27.6711L29.2076 24.6741C29.5665 24.5453 29.8539 24.2849 30.017 23.9401C30.1801 23.5953 30.1987 23.2071 30.0705 22.8483C29.9647 22.5503 29.7629 22.296 29.4967 22.1255L30.5514 21.7857C30.9508 21.6569 31.2753 21.3807 31.466 21.0072C31.6567 20.6337 31.6899 20.2085 31.5605 19.8102C31.4535 19.4781 31.2385 19.1914 30.9496 18.9957L31.1448 18.9389C31.3464 18.8811 31.5341 18.7831 31.6968 18.6508C31.8594 18.5184 31.9935 18.3545 32.091 18.1688C32.1897 17.9839 32.25 17.7809 32.268 17.5721C32.2859 17.3632 32.2613 17.1529 32.1956 16.9538Z" fill="#585661"/>
<path id="Vector_10" d="M16.5947 30.376C16.2974 30.3752 16.0042 30.3068 15.7373 30.176C15.4703 30.0451 15.2367 29.8551 15.054 29.6205C14.839 29.7468 14.5941 29.8134 14.3447 29.8135C13.569 29.8135 12.9385 29.1824 12.9385 28.4072C12.9385 27.6321 13.569 27.001 14.3447 27.001C14.5962 27.001 14.8397 27.0685 15.054 27.1939C15.3583 26.8035 15.7992 26.5428 16.2879 26.4643C16.7766 26.3857 17.2769 26.495 17.6882 26.7704C17.8163 26.5816 17.9887 26.427 18.1903 26.3201C18.3919 26.2132 18.6166 26.1573 18.8447 26.1572C19.6204 26.1572 20.251 26.7884 20.251 27.5635C20.251 28.3386 19.6204 28.9697 18.8447 28.9697C18.7244 28.9697 18.604 28.9534 18.487 28.9219C18.374 29.3379 18.1278 29.7053 17.786 29.968C17.4442 30.2306 17.0258 30.3739 16.5947 30.376ZM15.1924 28.7605L15.369 29.0811C15.4894 29.3015 15.6665 29.4856 15.882 29.6144C16.0976 29.7432 16.3436 29.8119 16.5947 29.8135C16.9491 29.8114 17.2896 29.6756 17.5482 29.4332C17.8067 29.1908 17.9642 28.8597 17.9892 28.5062L18.0218 28.0495L18.4144 28.2846C18.55 28.3662 18.6951 28.4072 18.8447 28.4072C19.3099 28.4072 19.6885 28.0287 19.6885 27.5635C19.6885 27.0983 19.3099 26.7197 18.8447 26.7197C18.4842 26.7197 18.1647 26.952 18.0494 27.298L17.9059 27.7277L17.5847 27.4088C17.3218 27.1471 16.9657 27.0004 16.5947 27.001C16.3436 27.0025 16.0976 27.0712 15.882 27.2C15.6665 27.3288 15.4894 27.513 15.369 27.7334L15.193 28.0534L14.9286 27.8003C14.7721 27.6486 14.5627 27.5636 14.3447 27.5635C13.8795 27.5635 13.501 27.942 13.501 28.4072C13.501 28.8724 13.8795 29.251 14.3447 29.251C14.5619 29.251 14.7694 29.1672 14.9286 29.0142L15.1924 28.7605Z" fill="#585661"/>
</g>
<path id="Vector_11" d="M19.4062 33.1875C18.6306 33.1875 18 32.5564 18 31.7812C18 31.0061 18.6306 30.375 19.4062 30.375C20.1819 30.375 20.8125 31.0061 20.8125 31.7812C20.8125 32.5564 20.1819 33.1875 19.4062 33.1875ZM19.4062 30.9375C18.9411 30.9375 18.5625 31.3161 18.5625 31.7812C18.5625 32.2464 18.9411 32.625 19.4062 32.625C19.8714 32.625 20.25 32.2464 20.25 31.7812C20.25 31.3161 19.8714 30.9375 19.4062 30.9375Z" fill="#585661"/>
</g>
</svg>
