<svg xmlns="http://www.w3.org/2000/svg" width="162" height="225" viewBox="0 0 162 225" fill="none">
  <path d="M162.241 146.875C164.754 138.446 167.942 128.102 178.054 126.848C183.543 125.556 189.221 124.965 194.589 123.093C195.05 122.967 195.563 122.7 195.977 123.148C197.314 126.89 188.602 129.409 186.54 132.166C180.91 138.245 165.955 138.373 164.238 146.966C163.823 154.748 168.386 161.433 172.587 167.301C175.897 171.157 178.572 175.599 182.516 178.869C194.695 186.538 206.882 194.314 220.081 200.118C225.057 202.435 230.365 203.914 235.305 206.218C235.904 206.517 236.378 206.955 236.131 207.76C235.101 209.564 232.387 207.923 230.87 207.803C219.056 204.193 207.706 199.21 197.053 192.956C192.03 190.014 186.996 187.06 182.265 183.711C180.223 182.273 177.73 181.622 175.246 181.876C173.133 182.115 171.177 183.11 169.741 184.679C168.305 186.247 167.486 188.282 167.434 190.408C167.32 196.92 171.849 201.747 175.213 206.659C178.276 210.743 180.243 215.542 180.927 220.601C181.353 221.959 180.82 226.646 178.933 224.08C168.599 207.908 157.547 208.417 167.015 185.54C148.173 198.871 164.474 211.35 130.965 221.155C128.695 221.768 126.489 222.595 124.375 223.626C123.373 224.437 122.145 223.382 123.157 222.308C127.885 215.751 132.852 208.88 140.827 206.511C157.641 201.162 159.151 182.666 174.43 179.472C174.935 179.42 175.258 179.146 174.713 178.681C171.682 176.273 168.335 174.272 165.367 171.759C155.19 166.482 143.124 171.408 132.654 174.468C130.307 175.271 127.917 175.94 125.495 176.473C122.995 176.986 122.886 180.659 120.06 180.919C117.675 181.879 116.946 186.977 113.987 189.112C111.038 192.505 107.049 191.581 103.291 191.804C101.878 192.053 100.425 191.961 99.0547 191.536C97.684 191.111 96.4344 190.365 95.4097 189.36C90.2963 185.074 89.6349 176.95 83.5834 173.668C80.888 171.549 87.4924 172.661 88.3458 172.586C89.1992 172.512 93.9185 173.13 90.7287 171.698C89.4979 171.015 85.3691 166.671 87.9237 166.592C96.1865 168.176 106.514 155.707 112.48 165.382C119.444 177.109 115.86 169.289 123.346 174.172C123.574 174.438 123.874 174.632 124.211 174.73C124.547 174.829 124.905 174.827 125.24 174.726C136.216 171.914 146.432 167.13 157.801 166.19C149.428 157.677 136.603 147.863 123.943 154.491C113.601 160.359 101.735 159.639 90.9642 156.638C90.3125 156.457 89.0993 156.54 89.2711 155.529C89.4428 154.518 90.4639 155.049 91.1117 155.027C96.8806 155.011 102.572 153.692 107.759 151.168C112.358 148.928 117.573 148.286 122.577 149.346C128.33 150.783 134.363 150.602 140.104 152.026C142.91 152.568 135.031 147.034 134.764 146.521C128.738 141.671 122.936 135.093 114.527 135.396C104.31 135.064 94.6396 138.192 84.9688 141.32C84.6179 141.384 84.2924 141.546 84.0304 141.788C83.7684 142.03 83.5807 142.342 83.4893 142.687C82.7013 145.351 79.2532 145.91 79.0882 148.874C78.298 154.628 74.3609 162.714 67.6087 160.795C63.4142 159.024 58.3404 159.195 55.1036 155.617C53.3883 154.16 51.6572 151.887 49.0799 152.54C48.373 152.848 48.0683 152.069 48.6852 151.614C50.967 149.344 52.794 146.458 56.2238 145.755C56.8524 145.612 56.8206 145.203 56.3172 144.908C55.0138 144.545 48.6392 140.041 51.5666 139.018C52.3191 138.966 53.0459 138.724 53.6784 138.313C54.3109 137.902 54.8281 137.336 55.1811 136.669C61.7515 127.118 69.4217 130.056 76.0778 136.836C78.9171 139.559 79.6187 138.174 82.0093 139.214C84.9305 141.378 88.7493 137.803 91.8336 137.051C99.6872 133.528 107.962 132.98 116.155 133.016C103.102 123.846 89.238 115.888 74.7359 109.243C72.1301 108.493 69.8878 111.28 68.1099 112.923C59.523 121.364 46.4099 119.145 36.7556 115.182C29.0142 111.618 20.7421 108.752 11.9175 110.476C11.2181 110.592 10.8371 110.229 11.3134 109.697C12.7552 107.766 9.91785 104.994 8.48783 103.896C4.14079 101.436 8.89051 97.946 6.59776 97.4601C2.35093 96.4059 1.6371 90.52 2.78915 86.8281C3.21745 85.8905 3.35027 84.8447 3.16997 83.8298C2.98966 82.8149 2.50477 81.8789 1.77973 81.1461C-1.75209 76.85 5.69793 75.6588 8.52211 76.9443C10.2801 77.6247 9.25364 74.1941 12.2519 73.4979C16.9981 72.5234 20.9566 63.2882 25.6255 68.5158C26.6239 69.3218 27.2229 71.4419 28.3598 71.7743C28.9364 71.1262 28.3853 69.3076 29.2081 69.1005C30.0308 68.8934 30.1501 70.12 30.6441 70.6546C32.8588 73.5133 35.3694 76.1301 38.1341 78.4612C49.079 86.1408 67.4593 86.3276 72.1054 101.233C72.4173 103.042 73.9554 104.133 74.1544 106.07C74.1699 106.286 74.6656 106.473 74.9833 106.618C81.692 109.638 88.4553 112.792 95.015 116.249C95.461 116.483 96.0957 117.095 96.4744 116.606C95.1954 113.539 93.0736 110.897 90.3546 108.986C83.8384 104.428 84.7698 95.708 84.0399 88.408C84.1516 84.064 81.7118 80.6256 80.7205 76.6094C80.2042 75.427 81.751 74.7814 81.9469 76.1906L81.7977 76.3285C81.9815 76.5274 81.8352 76.5935 81.6764 76.6711C83.2443 81.86 85.2619 86.887 85.2063 92.5389C85.3567 98.4385 86.579 105.099 91.3294 108.569C89.0114 104.204 87.7 99.3757 87.4912 94.438C88.0521 94.7955 87.9433 95.4261 88.0421 95.957C88.8128 99.4017 89.9833 102.745 91.5299 105.918C91.6515 106.174 91.6653 106.737 92.1273 106.564C91.988 99.7785 91.1116 92.245 87.4383 86.374C85.9567 83.5484 83.7683 81.0302 82.8118 77.9498L82.9113 77.8579C87.3701 83.8558 92.0071 90.196 92.4819 98.1928C93.0459 112.422 98.4114 117.605 109.718 124.329C120.452 131.04 130.663 138.556 140.262 146.81C143.307 150.104 136.118 138.608 136.071 137.983C129.114 125.466 125.18 111.355 118.408 98.7136C117.355 95.3539 113.373 95.7596 111.663 92.9609C111.463 92.6863 111.205 92.4595 110.907 92.2965C110.609 92.1336 110.279 92.0386 109.939 92.0183C106.478 91.6122 103.143 90.4673 100.162 88.6611C97.1812 86.8549 94.6228 84.4295 92.6601 81.5491C88.9405 76.5074 86.6322 70.5653 85.9729 64.3348C85.6904 56.3217 81.845 46.6226 72.3138 49.5523C68.8128 51.4505 62.005 53.0623 62.8975 46.8445C63.1515 45.8723 63.2794 45.3622 62.0966 44.9801C56.3016 41.8763 65.0614 34.8193 67.5524 31.8031C72.7233 26.7486 67.0045 19.2874 75.4967 16.5801C76.5832 16.1776 77.5434 15.4941 78.2795 14.5993C79.0156 13.7045 79.5012 12.6306 79.6868 11.4869C80.657 7.5482 79.7681 -2.09405 86.16 0.757841C89.3972 3.41325 91.0707 7.14493 96.0646 5.96459C103.806 4.36569 100.028 10.2539 101.898 8.71055C102.626 7.97793 103.584 7.5181 104.612 7.40818C105.639 7.29825 106.673 7.54493 107.54 8.10683C109.851 9.33612 116.372 11.3546 113.15 14.9768C111.716 16.215 110.639 17.8144 110.032 19.6092C110.231 22.4681 108.374 24.5989 107.424 27.1129C107.224 27.6201 106.648 28.2681 107.861 28.1843C108.366 28.7313 107.63 30.0798 107.6 30.8453C104.641 45.1032 124.226 49.3625 126.667 64.3008C128.497 71.6443 126.255 79.5698 122.252 85.9881C121.797 86.593 121.94 87.2216 121.987 87.8463C122.759 91.9736 119.398 93.9731 120.116 95.7983C124.185 103.17 126.148 112.304 130.159 119.338C130.024 112.433 129.019 104.835 131.504 97.7215C132.579 93.6793 134.877 90.0677 138.082 87.3799C141.769 84.411 144.244 80.2802 147.122 76.5606C148.624 74.6194 148.977 77.8198 148.946 78.9086C148.999 90.9136 139.261 99.3815 133.072 108.672C129.479 115.334 133.802 122.956 134.89 129.671C142.781 146.56 155.317 160.854 171.032 170.881C171.239 171.105 171.595 171.49 171.869 171.213C172.144 170.937 171.739 170.573 171.559 170.279C165.774 161.15 160.385 151.402 159.379 140.186C159.32 131.367 154.033 124.797 149.203 118.198C147.812 117.616 139.363 97.0975 143.931 100.021C150.692 106.565 160.11 112.268 160.139 123.074C160.324 131.131 159.488 139.256 162.156 146.908C162.256 146.816 162.268 146.804 162.156 146.908L162.241 146.875ZM72.5562 105.288C72.0177 109.519 70.8292 107.16 72.5562 105.288V105.288ZM172.154 211.63C168.85 207.33 165.47 201.902 165.219 196.142L165.161 196.08L165.242 196.167C163.393 200.826 165.955 207.216 169.287 210.522C172.91 214.115 176.139 218.086 178.917 222.366C179.296 223.4 180.042 223.01 179.737 221.932C178.982 211.935 170.088 202.061 166.493 195.127C165.61 201.405 170.091 206.23 172.106 211.628L172.154 211.63ZM156.744 126.21C156.044 122.488 154.558 118.958 152.386 115.856C151.288 114.243 150.14 112.677 149.004 111.098C148.728 110.8 148.269 110.303 148.604 109.993C148.94 109.682 149.241 110.257 149.493 110.555C153.814 115.546 156.922 121.471 158.572 127.863L158.429 127.834C159.862 121.901 157.581 115.642 153.915 111.101C150.768 107.694 147.195 104.427 143.816 101.418C145.741 110.711 150.199 119.291 156.697 126.208L156.711 126.448C156.847 126.346 156.777 126.295 156.697 126.208L156.744 126.21ZM110.438 154.916C111.259 153.858 125.04 151.587 122.376 150.799C112.902 148.029 104.496 155.244 95.0702 155.495C90.0138 156.133 102.208 157.957 103.143 157.946C110.614 158.629 118.096 156.768 124.375 152.663C120.837 152.451 116.886 153.936 113.265 154.608C112.334 154.823 111.382 155.288 110.438 154.916ZM181.596 129.659C175.814 132.006 170.375 134.75 166.768 140.226C166.594 140.387 166.321 140.64 166.574 140.889C173.156 137.112 181.234 135.802 187.018 130.389C187.305 129.501 197.168 123.913 193.593 124.659C189.668 125.857 185.682 126.847 181.653 127.625C176.272 128.886 169.348 130.122 167.619 136.283C171.526 132.741 176.346 130.363 181.534 129.417C181.534 129.417 181.528 129.561 181.561 129.646L181.596 129.659ZM112.533 188.312C112.476 188.25 112.517 188.119 112.615 188.052L112.497 188.322C112.181 187.831 111.763 188.102 111.375 188.206C105.854 189.989 101.074 186.062 97.7514 182.541C99.2293 181.821 103.285 186.509 105.728 186.833C107.833 187.408 110.07 187.252 112.075 186.392C114.08 185.531 115.734 184.016 116.768 182.094C116.978 181.623 116.841 181.151 116.251 181.535C110.31 185.457 103.443 180.67 108.465 181.814C112.143 182.427 116.499 181.305 118.481 177.837C116.785 178.095 115.053 177.991 113.399 177.533C111.745 177.076 110.206 176.275 108.883 175.182C107.333 173.987 105.53 173.163 103.612 172.774C101.694 172.384 99.7124 172.44 97.8193 172.937C94.269 173.834 90.5691 173.969 86.9626 173.334C86.7357 173.253 86.4939 173.221 86.2535 173.24C86.0131 173.259 85.7795 173.33 85.5686 173.447C91.34 178.97 93.114 190.468 102.868 190.074C106.199 190.362 109.54 190.709 112.498 188.298L112.533 188.312ZM60.8709 137.888C63.2711 135.547 66.35 134.025 69.6674 133.54C64.9326 130.586 58.4906 132.643 55.4935 137.556C53.8857 140.655 52.2182 139.2 51.9069 140.409C53.7717 144.148 66.1351 147.152 70.308 145.832C71.4789 145.303 71.711 146.402 70.676 146.829C67.4449 148.869 63.8025 147.372 60.4239 147.083C58.5596 146.751 56.641 146.914 54.8589 147.554C53.0768 148.194 51.4932 149.289 50.2654 150.73C49.8925 151.075 49.6391 151.424 50.3635 151.585C53.9471 152.445 55.9402 156.273 59.7427 156.747C61.7297 157.007 63.6458 157.656 65.3812 158.658C73.2263 162.933 77.5764 152.576 79.1089 146.227C79.2645 145.793 79.3072 145.326 79.233 144.87C79.1588 144.415 78.9701 143.986 78.6847 143.623C77.9243 142.251 76.2018 145.526 74.8885 144.503C74.7047 144.304 74.9754 144.123 75.159 144.023C79.8776 141.322 77.4367 137.309 72.7736 137.999C71.5146 138.161 70.2728 138.437 69.0635 138.823C68.7239 138.929 68.1999 139.46 68.0302 138.902C68.6239 137.823 71.5667 137.317 72.8238 137.031C73.1127 136.994 73.438 136.947 73.4398 136.6C70.5884 134.487 67.0389 134.886 63.9186 136.547C62.9525 137.048 62.1244 137.998 60.9091 137.83L60.8709 137.888ZM12.8502 87.465C19.291 86.6533 26.216 86.0164 32.1143 88.9326C32.5249 89.1525 33.0791 89.6775 33.4167 89.3195C33.7543 88.9615 33.2038 88.3408 32.995 87.8654C31.9204 85.6547 32.0594 82.4379 29.2231 81.7628C21.9371 80.0136 19.1485 84.8029 11.1974 78.9666C9.11758 77.6386 3.89187 76.4979 2.16214 78.7415C1.83379 82.2024 6.42909 81.7131 3.94402 88.8263C2.88833 97.661 13.0811 95.5719 18.6063 94.8917C19.2215 94.7843 19.5212 95.3831 18.6917 95.4581C15.704 96.1906 4.34611 96.8441 8.91169 101.96C10.488 103.154 11.6087 104.851 12.0878 106.769C12.271 107.591 12.6701 107.798 13.3912 107.132C16.4347 104.615 20.2576 103.234 24.2068 103.223C30.8138 103.663 36.6066 100.454 42.8326 98.7115L42.8269 98.855C42.6795 98.6227 42.4776 98.4298 42.2388 98.293C42 98.1562 41.7314 98.0798 41.4564 98.0702C36.4306 96.7217 31.0522 96.4135 26.0524 95.3176C27.3685 94.8591 28.7867 94.7781 30.1464 95.0839C33.4771 95.0717 36.8149 96.09 40.0174 96.2884C34.721 89.6585 26.2257 87.8975 17.98 88.0031C16.2547 88.1578 14.5158 87.971 12.8627 87.4535L12.8502 87.465ZM100.185 50.5573C98.6256 43.3323 96.1045 35.8896 97.7378 28.2037C97.7508 27.5694 98.2999 27.3155 98.3865 28.1574C98.4687 35.9161 99.7192 43.618 102.096 51.0041C103.379 48.5511 102.987 45.1336 102.736 42.3925C101.512 36.0792 105.393 30.3029 107.753 24.5504C109.373 22.3384 108.049 19.483 109.656 17.3064C110.239 16.4909 110.777 15.6018 111.431 14.8369C112.762 13.2843 112.341 13.3276 111.376 11.9838C103.987 5.55872 100.613 8.79159 98.9611 17.8543C98.8256 18.5557 99.0327 19.3784 98.3058 19.8888C97.6562 16.3174 99.5355 12.714 99.9891 9.11432C100.876 2.7406 89.6035 12.1421 86.2853 4.56014C83.1704 -0.2826 81.0765 2.68934 81.2051 7.3183C81.1695 12.4678 77.063 16.654 80.0278 21.6585C82.5416 25.9504 79.3053 30.8538 81.1063 35.2972C83.1709 40.6495 87.1519 45.7061 92.5368 47.6677C93.2163 48.0539 93.7731 47.9082 92.9422 47.1088C88.0943 41.8622 84.4337 34.4583 86.7673 26.9319C87.6024 24.46 87.9298 21.845 87.7299 19.2435C87.6847 18.8704 87.4461 18.238 87.9886 18.1516C89.4751 19.3364 87.9554 24.4513 87.6043 26.366C85.6402 34.5419 90.1516 42.2429 95.2734 47.8357C102.359 54.3566 94.5637 44.5733 94.6663 41.367C94.0821 40.0862 95.1563 39.5776 95.3895 40.9524C96.7464 44.271 98.3877 47.4659 100.295 50.5017C100.352 50.5638 100.382 50.4213 100.295 50.5017C100.238 50.4395 100.367 50.804 100.21 50.5343L100.185 50.5573ZM111.996 73.0171C108.955 66.608 106.588 59.8063 100.612 55.5095C94.9012 49.6777 87.2521 47.1116 79.4057 45.9033C78.9167 45.848 78.697 46.5581 79.1946 46.6976C82.8373 48.794 84.8516 52.9943 85.8429 57.0105C87.9615 68.8814 91.0812 81.1872 102.223 87.2095C108.247 92.4067 118.797 91.5776 122.116 83.0718C134.555 52.6334 103.045 52.4551 106.552 31.307C106.904 30.5662 106.065 30.2815 105.829 31.0988C102.125 37.5409 105.67 44.8204 104.071 51.6451C103.93 53.3885 103.755 55.0945 105.068 56.4401C109.22 61.1082 110.601 67.0923 112.044 73.019L111.996 73.0171ZM69.1508 106.89C75.2262 95.0077 57.4042 88.2664 49.1198 85.4116C41.5873 83.279 35.077 78.5006 30.7844 71.9538C30.4004 71.3637 29.351 69.7291 29.3643 71.5145C29.3328 73.7291 29.9553 75.9038 31.1538 77.7663C33.3464 80.7877 31.9689 85.0337 34.2475 87.9987C41.3756 99.205 50.1387 96.6162 60.0944 100.831C51.4486 98.6325 42.4889 98.3146 34.3262 103.598C27.9925 108.068 19.8862 103.735 13.5937 108.374C12.9001 108.646 12.8422 109.506 13.7319 109.122C23.0216 107.452 31.8394 111.059 40.1786 114.347C49.8425 118.37 62.9942 117.189 69.1508 106.89ZM61.8921 39.845C61.288 40.8873 60.4051 43.2243 62.5617 43.2136C65.4983 43.4734 65.4172 44.0092 64.2666 46.7549C64.0532 47.1462 63.9562 47.5904 63.987 48.0351C64.0179 48.4798 64.1754 48.9064 64.4408 49.2645C64.7063 49.6225 65.0686 49.8972 65.4851 50.0561C65.9017 50.2149 66.3549 50.2512 66.7914 50.1608C70.4201 49.2739 73.5473 46.223 77.4566 47.6351C77.7169 47.7173 78.026 47.7774 78.1703 47.4597C75.2729 45.2968 78.7596 43.458 80.9971 44.4328C89.4039 46.9211 83.1139 43.3066 79.9699 41.6251C76.9813 39.8862 73.4407 39.3564 70.0739 40.1442C68.8027 40.7888 68.5045 39.5432 69.8898 39.3463C74.3564 37.8696 78.5705 40.36 82.6881 41.3492C74.4459 31.3566 81.3083 29.8787 78.1699 20.1716C77.6681 19.2294 78.395 16.8983 77.7213 16.668C67.923 19.0841 75.5859 24.6336 70.3359 30.1761C67.5256 33.6947 64.307 35.7238 61.9726 39.9321L61.8921 39.845ZM108.991 173.354C111.745 174.613 115.062 176.457 118.209 175.623C118.453 175.213 117.999 175.171 117.812 175.068C114.276 172.988 113.2 168.705 111.017 165.42C107.899 160.673 101.673 164.835 97.4599 165.963C94.7659 166.839 92.1085 168.003 89.2217 167.698C89.0188 167.678 88.7672 167.68 88.7214 167.929C94.5038 176.507 101.215 166.734 109.072 173.441L108.991 173.354ZM152.771 205.27C153.238 203.779 154.784 202.235 154.485 200.714C150.126 207.046 143.872 212.825 136.572 214.477C136.394 213.512 137.591 213.535 138.201 213.248C144.123 210.719 149.126 206.434 152.534 200.972C148.443 204.198 143.876 206.769 138.996 208.595C135.948 209.499 133.23 211.273 131.176 213.701C129.306 216.466 126.772 219.037 125.105 221.822C134.949 218.557 147.444 215.817 152.852 205.357L152.771 205.27ZM135.91 96.5539C135.123 97.0738 130.689 109.261 133.041 106.12C137.737 99.1296 144.135 93.333 147.02 85.2054C147.837 82.7221 148.937 79.4234 147.591 77.1182C146.626 77.2718 144.852 80.6396 144.095 81.6159C139.608 89.3808 130.874 94.5702 131.329 104.567C131.939 104.303 131.876 103.462 132.125 102.933C133.648 98.9442 135.787 94.2251 138.946 91.5827C139.565 91.9785 136.297 95.551 135.991 96.6409L135.91 96.5539ZM26.6034 78.0298L26.6904 77.9494C27.3355 78.2983 30.3554 80.6935 29.2339 78.4571C27.9613 74.5855 28.3547 73.1157 25.015 70.3245C22.2924 67.3779 21.6341 67.3639 18.4436 70.1967C15.7281 71.9222 18.5303 73.1589 19.7433 74.5964C20.3062 75.2056 19.7102 75.4336 19.3206 74.987C18.1903 74.4871 16.9499 71.9226 15.676 72.9384C14.5135 74.32 12.9988 75.3612 11.2925 75.9516C11.1033 76.0155 10.9386 76.1366 10.8211 76.298C10.7036 76.4595 10.6391 76.6534 10.6364 76.8531C10.6338 77.0527 10.6932 77.2484 10.8064 77.4129C10.9196 77.5774 11.0811 77.7026 11.2686 77.7715C13.9087 79.0641 16.8215 79.701 19.7602 79.6282C21.6996 79.3251 23.6603 79.1783 25.6232 79.189C25.8146 79.1965 26.0988 79.2796 26.1341 78.9935C25.6121 77.9547 23.3598 77.9615 23.2175 76.7101C23.8601 75.9089 25.9153 77.8588 26.7211 78.0823L26.6034 78.0298ZM114.637 93.4856C118.017 95.8712 120.832 91.634 119.946 88.5803C118.074 89.273 116.514 91.152 114.334 91.4612C112.13 91.7695 113.58 92.9647 114.755 93.5382L114.637 93.4856ZM121.331 173.913C120.635 173.658 118.993 172.755 118.527 173.647C118.858 174.654 120.867 174.458 121.018 175.47C121.17 176.482 119.664 178.22 119.724 179.432C122.016 179.319 123.933 175.082 121.331 173.913ZM81.2094 143.088C81.5152 142.744 81.6942 142.306 81.7166 141.847C81.7391 141.388 81.6037 140.934 81.3329 140.563C81.062 140.191 80.6722 139.923 80.228 139.803C79.7838 139.684 79.3122 139.72 78.8914 139.906C78.0048 140.518 80.0025 146.047 81.2439 143.125L81.2094 143.088ZM81.6465 76.2147L81.5097 76.3411C81.5097 76.3411 81.486 76.6396 81.5165 76.4731L82.2668 76.8861C82.4771 76.4152 82.124 76.2575 81.8445 76.0548L81.6465 76.2147ZM82.2898 76.911C82.1408 77.3483 82.4203 77.551 82.6998 77.7537L82.7992 77.6618C82.8774 77.1977 82.5721 77.0419 82.218 76.9081L82.2898 76.911ZM114.474 77.8946C113.992 77.9714 114.479 78.6973 114.551 78.9757C114.624 79.2541 114.804 79.8482 115.073 79.7151C115.699 79.3445 114.921 78.4034 114.771 77.9662L114.474 77.8946ZM112.214 73.5528C112.175 73.6059 112.148 73.6673 112.135 73.7324C112.123 73.7974 112.125 73.8645 112.142 73.9285C112.159 73.9925 112.19 74.0518 112.234 74.1021C112.277 74.1523 112.331 74.1922 112.391 74.2186C112.731 74.1123 112.502 73.5402 112.154 73.5624L112.214 73.5528ZM112.214 73.5528C112.45 73.3345 112.304 73.1011 112.069 72.9721C112.138 73.0467 111.957 73.3989 112.274 73.5432L112.214 73.5528ZM12.8502 87.465C12.1262 87.9036 12.2873 86.8558 12.8502 87.465V87.465ZM26.0552 95.2459C25.9293 95.1308 25.7697 95.0591 25.6 95.0417C25.4303 95.0242 25.2594 95.0617 25.1127 95.1487C25.3769 95.4347 25.6297 95.7082 26.0543 95.2697L26.0552 95.2459ZM25.1127 95.1487C24.7501 95.2302 25.0688 95.3506 25.1127 95.1487V95.1487ZM60.8106 137.898C60.6227 137.939 60.4525 138.038 60.3242 138.182C60.196 138.325 60.1162 138.505 60.0963 138.696C60.2692 138.623 60.4239 138.512 60.5495 138.372C60.6751 138.232 60.7684 138.066 60.823 137.886L60.8106 137.898ZM59.4035 138.645L59.3414 138.702C59.3414 138.702 59.4725 138.72 59.4284 138.622L59.4035 138.645ZM60.0963 138.696C59.8665 138.448 59.6484 138.511 59.4246 138.718L60.0839 138.708L60.0963 138.696ZM181.536 129.669C182.002 129.699 182.001 129.124 181.474 129.427L181.536 129.669ZM110.378 154.925C110.378 154.925 110.175 154.905 110.134 155.035C110.093 155.165 110.371 154.793 110.39 154.914L110.378 154.925ZM172.044 211.685C171.875 212.026 172.186 212.338 172.423 212.095C172.297 211.959 172.17 211.822 172.044 211.685ZM87.027 92.2394C85.2515 87.1501 87.5167 88.0302 87.027 92.2394V92.2394ZM87.3038 92.8134C87.1561 93.0492 87.0826 93.324 87.093 93.6021C87.1034 93.8802 87.1971 94.1488 87.362 94.3729C87.5089 94.1411 87.5819 93.8702 87.5714 93.5959C87.5608 93.3217 87.4672 93.0571 87.3029 92.8373L87.3038 92.8134ZM87.0758 92.2174C87.0176 92.4787 87.033 92.6949 87.3038 92.8134C87.3296 92.7595 87.344 92.7009 87.3464 92.6413C87.3488 92.5817 87.3391 92.5222 87.3177 92.4665C87.2964 92.4107 87.264 92.3599 87.2224 92.3171C87.1808 92.2742 87.1309 92.2404 87.0758 92.2174Z" fill="#A1BDBD"/>
</svg>