<svg xmlns="http://www.w3.org/2000/svg" width="105" height="158" viewBox="0 0 105 158" fill="none">
  <path d="M-56.5674 79.8753C-59.0805 71.4455 -62.2682 61.1018 -72.38 59.8481C-77.8695 58.5555 -83.5469 57.9652 -88.9155 56.0929C-89.3757 55.9673 -89.8893 55.7001 -90.3029 56.1477C-91.6405 59.89 -82.9281 62.4089 -80.8666 65.1665C-75.236 71.245 -60.2812 71.3732 -58.5643 79.9661C-58.1491 87.748 -62.7126 94.4328 -66.9131 100.301C-70.2227 104.157 -72.8982 108.599 -76.8419 111.869C-89.0211 119.538 -101.208 127.314 -114.407 133.118C-119.383 135.435 -124.691 136.914 -129.631 139.218C-130.23 139.517 -130.704 139.955 -130.457 140.76C-129.427 142.564 -126.713 140.923 -125.196 140.803C-113.382 137.193 -102.032 132.21 -91.3791 125.956C-86.3563 123.014 -81.322 120.06 -76.5908 116.711C-74.5487 115.273 -72.0561 114.622 -69.5717 114.876C-67.4587 115.115 -65.5035 116.11 -64.0675 117.679C-62.6315 119.247 -61.8118 121.282 -61.7599 123.408C-61.6464 129.92 -66.1755 134.747 -69.5393 139.659C-72.6025 143.743 -74.5697 148.542 -75.2536 153.601C-75.6791 154.959 -75.1466 159.646 -73.2595 157.08C-62.9255 140.908 -51.8727 141.417 -61.3412 118.54C-42.4989 131.871 -58.8005 144.35 -25.2914 154.155C-23.0213 154.768 -20.8147 155.595 -18.7013 156.626C-17.699 157.437 -16.4708 156.382 -17.4836 155.308C-22.2107 148.751 -27.1778 141.88 -35.1535 139.511C-51.9676 134.162 -53.4768 115.666 -68.7563 112.472C-69.2615 112.42 -69.5838 112.146 -69.0391 111.681C-66.0077 109.273 -62.6607 107.272 -59.6934 104.759C-49.5161 99.4818 -37.4504 104.408 -26.9797 107.468C-24.6331 108.271 -22.243 108.94 -19.8209 109.473C-17.321 109.986 -17.2119 113.659 -14.3866 113.919C-12.0008 114.879 -11.2724 119.977 -8.3131 122.112C-5.36401 125.505 -1.37559 124.581 2.38262 124.804C3.79599 125.053 5.24836 124.961 6.6191 124.536C7.98985 124.111 9.2394 123.365 10.2641 122.36C15.3775 118.074 16.0389 109.95 22.0904 106.668C24.7859 104.549 18.1814 105.661 17.328 105.586C16.4746 105.512 11.7554 106.13 14.9451 104.698C16.1759 104.015 20.3048 99.671 17.7501 99.5923C9.48733 101.176 -0.839868 88.7069 -6.8066 98.382C-13.7704 110.109 -10.1861 102.289 -17.6717 107.172C-17.9001 107.438 -18.2007 107.632 -18.537 107.73C-18.8733 107.829 -19.2309 107.827 -19.5665 107.726C-30.5425 104.914 -40.7578 100.13 -52.127 99.1896C-43.7545 90.6773 -30.9293 80.8632 -18.2694 87.4906C-7.92734 93.3592 3.9393 92.6389 14.7096 89.638C15.3613 89.4566 16.5745 89.5405 16.4028 88.529C16.2311 87.5176 15.2099 88.0491 14.5621 88.0267C8.79319 88.0111 3.10232 86.692 -2.08529 84.1681C-6.68394 81.9276 -11.8988 81.2863 -16.9033 82.3456C-22.6564 83.7827 -28.6889 83.6017 -34.4305 85.0264C-37.2361 85.5684 -29.3569 80.0344 -29.0897 79.5207C-23.0642 74.6709 -17.2626 68.0929 -8.8534 68.3956C1.36353 68.064 11.0343 71.1919 20.705 74.3197C21.056 74.3837 21.3815 74.5462 21.6435 74.7883C21.9054 75.0303 22.0931 75.342 22.1845 75.6868C22.9725 78.3509 26.4206 78.9096 26.5856 81.8738C27.3759 87.6285 31.3129 95.7145 38.0651 93.7947C42.2597 92.0239 47.3335 92.1948 50.5702 88.617C52.2855 87.1597 54.0166 84.8872 56.5939 85.5401C57.3008 85.8476 57.6055 85.069 56.9886 84.6142C54.7068 82.3444 52.8798 79.4577 49.45 78.7547C48.8214 78.6118 48.8532 78.2033 49.3567 77.9079C50.66 77.545 57.0346 73.0407 54.1073 72.0183C53.3548 71.9664 52.6279 71.7235 51.9954 71.3125C51.3629 70.9015 50.8457 70.336 50.4927 69.6694C43.9223 60.1181 36.2521 63.0564 29.596 69.8358C26.7568 72.5594 26.0552 71.1736 23.6645 72.2143C20.7433 74.3781 16.9246 70.8035 13.8402 70.0508C5.98661 66.5278 -2.2885 65.9801 -10.4807 66.0162C2.57183 56.8456 16.4358 48.8882 30.938 42.2433C33.5437 41.4935 35.786 44.2799 37.5639 45.9227C46.1508 54.3641 59.264 52.1451 68.9182 48.1821C76.6596 44.6181 84.9317 41.7519 93.7564 43.4757C94.4557 43.5918 94.8367 43.2294 94.3605 42.6972C92.9186 40.7656 95.756 37.9942 97.186 36.8956C101.533 34.4359 96.7833 30.946 99.0761 30.4601C103.323 29.4059 104.037 23.52 102.885 19.8281C102.456 18.8905 102.324 17.8447 102.504 16.8298C102.684 15.8149 103.169 14.8789 103.894 14.1461C107.426 9.84996 99.9759 8.65883 97.1517 9.94431C95.3937 10.6247 96.4202 7.19409 93.4219 6.49793C88.6757 5.52343 84.7173 -3.71178 80.0483 1.51576C79.0499 2.32185 78.4509 4.44186 77.314 4.77426C76.7374 4.12621 77.2885 2.30759 76.4657 2.10051C75.643 1.89342 75.5237 3.11999 75.0298 3.65459C72.815 6.51332 70.3044 9.13007 67.5398 11.4612C56.5948 19.1408 38.2145 19.3276 33.5684 34.2333C33.2565 36.0424 31.7184 37.1333 31.5194 39.0698C31.504 39.286 31.0083 39.4733 30.6905 39.6177C23.9818 42.6378 17.2185 45.7918 10.6588 49.2493C10.2128 49.4825 9.57811 50.0946 9.19946 49.6064C10.4784 46.539 12.6003 43.8967 15.3192 41.9857C21.8354 37.4279 20.9041 28.708 21.6339 21.408C21.5223 17.064 23.962 13.6256 24.9533 9.60939C25.4697 8.42704 23.9228 7.78136 23.7269 9.19063L23.8761 9.32848C23.6923 9.5274 23.8387 9.59351 23.9974 9.67109C22.4295 14.86 20.412 19.887 20.4675 25.5389C20.3172 31.4385 19.0948 38.0991 14.3445 41.569C16.6624 37.2041 17.9739 32.3757 18.1826 27.438C17.6217 27.7955 17.7305 28.4261 17.6317 28.957C16.861 32.4017 15.6905 35.7446 14.1439 38.9175C14.0223 39.1739 14.0086 39.7375 13.5465 39.5641C13.6858 32.7785 14.5622 25.245 18.2355 19.374C19.7171 16.5484 21.9056 14.0302 22.862 10.9498L22.7626 10.8579C18.3037 16.8558 13.6667 23.196 13.192 31.1928C12.6279 45.4221 7.26242 50.6053 -4.0437 57.3288C-14.7783 64.0405 -24.9892 71.5557 -34.5886 79.8098C-37.6329 83.1044 -30.4444 71.6083 -30.3972 70.9835C-23.4406 58.4662 -19.5059 44.3553 -12.7339 31.7136C-11.6807 28.3539 -7.69964 28.7596 -5.98937 25.9609C-5.78939 25.6863 -5.53108 25.4595 -5.23308 25.2965C-4.93507 25.1336 -4.6047 25.0386 -4.26566 25.0183C-0.803822 24.6122 2.53041 23.4673 5.5115 21.6611C8.49261 19.8549 11.051 17.4295 13.0138 14.5491C16.7333 9.50736 19.0416 3.56526 19.7009 -2.66524C19.9834 -10.6783 23.8289 -20.3774 33.36 -17.4477C36.861 -15.5495 43.6688 -13.9377 42.7764 -20.1555C42.5224 -21.1277 42.3944 -21.6378 43.5772 -22.0199C49.3722 -25.1237 40.6124 -32.1807 38.1215 -35.1969C32.9506 -40.2514 38.6693 -47.7126 30.1771 -50.4199C29.0907 -50.8224 28.1304 -51.5059 27.3943 -52.4007C26.6582 -53.2955 26.1726 -54.3694 25.987 -55.5131C25.0169 -59.4518 25.9058 -69.094 19.5138 -66.2422C16.2766 -63.5867 14.6032 -59.8551 9.60925 -61.0354C1.86759 -62.6343 5.64592 -56.7461 3.77615 -58.2894C3.0477 -59.0221 2.08946 -59.4819 1.0622 -59.5918C0.0349337 -59.7017 -0.998862 -59.4551 -1.86582 -58.8932C-4.17713 -57.6639 -10.6978 -55.6454 -7.47617 -52.0232C-6.04205 -50.785 -4.96551 -49.1856 -4.35835 -47.3908C-4.55689 -44.5319 -2.69989 -42.4011 -1.75009 -39.8871C-1.55038 -39.3799 -0.973707 -38.7319 -2.18689 -38.8157C-2.69236 -38.2687 -1.95634 -36.9202 -1.9261 -36.1547C1.03281 -21.8968 -18.5522 -17.6375 -20.9929 -2.69918C-22.8232 4.64433 -20.5815 12.5698 -16.5786 18.9881C-16.1235 19.593 -16.2664 20.2216 -16.3136 20.8463C-17.085 24.9736 -13.7237 26.9731 -14.4423 28.7983C-18.5114 36.1704 -20.4746 45.304 -24.4852 52.3383C-24.3507 45.4331 -23.3451 37.8347 -25.8301 30.7215C-26.9056 26.6793 -29.2028 23.0677 -32.4078 20.3799C-36.0947 17.411 -38.5698 13.2802 -41.4479 9.5606C-42.9501 7.61945 -43.3029 10.8198 -43.2718 11.9086C-43.3248 23.9136 -33.5868 32.3815 -27.3981 41.6723C-23.8049 48.3344 -28.1277 55.9561 -29.2161 62.6713C-37.1069 79.5605 -49.6429 93.8541 -65.3582 103.881C-65.5649 104.105 -65.9211 104.49 -66.1956 104.213C-66.47 103.937 -66.0651 103.573 -65.8851 103.279C-60.1004 94.15 -54.7116 84.4019 -53.7051 73.1858C-53.6461 64.3669 -48.3593 57.7973 -43.5289 51.1978C-42.1384 50.6158 -33.689 30.0975 -38.2573 33.0212C-45.0185 39.5652 -54.4364 45.2677 -54.4648 56.0739C-54.6497 64.131 -53.8137 72.2557 -56.4823 79.9078C-56.5817 79.8159 -56.5942 79.8044 -56.4823 79.9078L-56.5674 79.8753ZM33.1176 38.288C33.6561 42.5192 34.8447 40.1604 33.1176 38.288V38.288ZM-66.48 144.63C-63.1759 140.33 -59.7966 134.902 -59.5449 129.142L-59.4875 129.08L-59.5679 129.167C-57.7188 133.826 -60.2815 140.216 -63.6128 143.522C-67.2364 147.115 -70.4649 151.086 -73.2433 155.366C-73.6217 156.4 -74.3679 156.01 -74.0631 154.932C-73.3079 144.935 -64.4142 135.061 -60.8189 128.127C-59.936 134.405 -64.4173 139.23 -66.4321 144.628L-66.48 144.63ZM-51.0707 59.2101C-50.3702 55.4881 -48.8843 51.9583 -46.712 48.8558C-45.6137 47.2432 -44.4657 45.6765 -43.3302 44.0984C-43.0544 43.8 -42.5949 43.3027 -42.9306 42.9925C-43.2663 42.6824 -43.567 43.2572 -43.8188 43.5547C-48.1404 48.5463 -51.248 54.4705 -52.898 60.8635L-52.7555 60.8339C-54.1877 54.901 -51.9073 48.6417 -48.2414 44.1007C-45.0938 40.6941 -41.5213 37.4265 -38.1423 34.4181C-40.0669 43.7114 -44.5248 52.2912 -51.0228 59.2082L-51.0373 59.4483C-51.1731 59.3459 -51.1033 59.2952 -51.0228 59.2082L-51.0707 59.2101ZM-4.7643 87.9156C-5.5847 86.8579 -19.3664 84.5871 -16.7022 83.7991C-7.22845 81.0292 1.17825 88.2439 10.6036 88.4945C15.66 89.1334 3.46554 90.9566 2.53075 90.9456C-4.9397 91.6292 -12.4219 89.7676 -18.7009 85.6629C-15.1635 85.4513 -11.2117 86.9364 -7.59151 87.608C-6.66064 87.8228 -5.7079 88.2883 -4.7643 87.9156ZM-75.9225 62.6593C-70.1398 65.0064 -64.7008 67.7504 -61.0945 73.2261C-60.9205 73.3869 -60.6469 73.6396 -60.9006 73.8892C-67.4825 70.1123 -75.5601 68.8022 -81.3441 63.3885C-81.6307 62.5014 -91.4945 56.9135 -87.9193 57.6587C-83.9941 58.8566 -80.0084 59.8467 -75.9789 60.6251C-70.5985 61.886 -63.6737 63.1219 -61.945 69.2827C-65.8523 65.7411 -70.6722 63.363 -75.8602 62.4172C-75.8602 62.4172 -75.8546 62.5608 -75.8871 62.6459L-75.9225 62.6593ZM-6.85931 121.312C-6.80187 121.25 -6.84294 121.119 -6.94147 121.052L-6.82293 121.322C-6.50693 120.831 -6.08895 121.102 -5.70148 121.206C-0.180671 122.989 4.59955 119.062 7.92239 115.541C6.4445 114.821 2.38913 119.509 -0.0537585 119.833C-2.15868 120.408 -4.39626 120.252 -6.40134 119.392C-8.40642 118.531 -10.0606 117.016 -11.0939 115.094C-11.3041 114.623 -11.167 114.151 -10.5769 114.535C-4.63615 118.457 2.23038 113.67 -2.79152 114.814C-6.46882 115.427 -10.8256 114.305 -12.8073 110.837C-11.1107 111.095 -9.37896 110.991 -7.72512 110.533C-6.07127 110.076 -4.53247 109.275 -3.20917 108.182C-1.65955 106.987 0.143632 106.163 2.06165 105.774C3.97968 105.384 5.96144 105.44 7.85453 105.937C11.4048 106.834 15.1048 106.969 18.7112 106.334C18.9381 106.253 19.1799 106.221 19.4203 106.24C19.6608 106.259 19.8943 106.33 20.1052 106.447C14.3339 111.97 12.5599 123.468 2.80545 123.074C-0.525333 123.362 -3.86573 123.709 -6.82391 121.298L-6.85931 121.312ZM44.8029 70.8884C42.4027 68.5475 39.3238 67.0255 36.0064 66.54C40.7412 63.5859 47.1832 65.6434 50.1803 70.5562C51.7881 73.6551 53.4556 72.1997 53.7669 73.4093C51.9021 77.1485 39.5387 80.1523 35.3658 78.8318C34.195 78.303 33.9628 79.4023 34.9979 79.8286C38.2289 81.8692 41.8713 80.3717 45.2499 80.0825C47.1143 79.7513 49.0328 79.9137 50.8149 80.5536C52.597 81.1936 54.1806 82.2887 55.4084 83.7302C55.7814 84.0749 56.0348 84.4242 55.3104 84.5846C51.7267 85.4448 49.7337 89.273 45.9311 89.7466C43.9442 90.0068 42.0281 90.6565 40.2926 91.6583C32.4475 95.9332 28.0974 85.5755 26.5649 79.2273C26.4093 78.7928 26.3666 78.3259 26.4408 77.8704C26.515 77.4149 26.7037 76.9858 26.9891 76.6231C27.7495 75.2514 29.4721 78.5255 30.7853 77.5034C30.9691 77.3044 30.6984 77.1235 30.5148 77.0229C25.7962 74.3223 28.2371 70.3088 32.9002 70.9991C34.1592 71.1613 35.401 71.437 36.6103 71.8229C36.9499 71.9293 37.474 72.4596 37.6436 71.9018C37.05 70.8232 34.1071 70.3165 32.85 70.0308C32.5611 69.9943 32.2358 69.9472 32.2341 69.5999C35.0855 67.4868 38.635 67.8857 41.7552 69.5473C42.7214 70.0482 43.5495 70.9978 44.7647 70.83L44.8029 70.8884ZM92.8236 20.465C86.3828 19.6533 79.4578 19.0164 73.5595 21.9326C73.1489 22.1525 72.5947 22.6775 72.2571 22.3195C71.9195 21.9615 72.47 21.3408 72.6788 20.8654C73.7535 18.6547 73.6144 15.4379 76.4507 14.7628C83.7367 13.0136 86.5253 17.8029 94.4764 11.9666C96.5562 10.6386 101.782 9.49789 103.512 11.7415C103.84 15.2024 99.2447 14.7131 101.73 21.8263C102.785 30.661 92.5928 28.5719 87.0675 27.8917C86.4524 27.7843 86.1526 28.3831 86.9821 28.4581C89.9698 29.1906 101.328 29.8441 96.7621 34.9597C95.1858 36.1535 94.0651 37.8505 93.586 39.769C93.4028 40.5908 93.0037 40.7982 92.2826 40.1319C89.2391 37.6153 85.4162 36.2336 81.467 36.2227C74.86 36.6633 69.0672 33.4541 62.8412 31.7115L62.8469 31.855C62.9943 31.6227 63.1962 31.4298 63.435 31.293C63.6738 31.1562 63.9424 31.0798 64.2174 31.0702C69.2432 29.7217 74.6216 29.4135 79.6215 28.3176C78.3053 27.8591 76.8871 27.7781 75.5274 28.0839C72.1968 28.0717 68.8589 29.09 65.6564 29.2884C70.9528 22.6585 79.4482 20.8975 87.6939 21.0031C89.4192 21.1578 91.158 20.971 92.8111 20.4535L92.8236 20.465ZM5.48878 -16.4427C7.04818 -23.6677 9.56929 -31.1104 7.93606 -38.7963C7.92299 -39.4306 7.3739 -39.6845 7.28736 -38.8426C7.20511 -31.0839 5.95459 -23.382 3.57783 -15.9959C2.29504 -18.4489 2.6871 -21.8664 2.93821 -24.6075C4.16227 -30.9208 0.280584 -36.6971 -2.07887 -42.4496C-3.69954 -44.6616 -2.37485 -47.517 -3.98214 -49.6936C-4.56538 -50.5091 -5.10365 -51.3982 -5.75675 -52.1631C-7.08784 -53.7157 -6.66686 -53.6724 -5.70172 -55.0162C1.68709 -61.4413 5.06109 -58.2084 6.71276 -49.1457C6.84827 -48.4443 6.64115 -47.6216 7.36807 -47.1112C8.01763 -50.6826 6.13838 -54.286 5.68475 -57.8857C4.79814 -64.2594 16.0703 -54.8579 19.3885 -62.4399C22.5034 -67.2826 24.5973 -64.3107 24.4687 -59.6817C24.5044 -54.5322 28.6108 -50.346 25.646 -45.3415C23.1322 -41.0496 26.3685 -36.1462 24.5675 -31.7028C22.5029 -26.3505 18.522 -21.2939 13.137 -19.3323C12.4575 -18.9461 11.9007 -19.0918 12.7316 -19.8912C17.5795 -25.1378 21.2402 -32.5417 18.9065 -40.0681C18.0714 -42.54 17.744 -45.155 17.944 -47.7565C17.9891 -48.1296 18.2277 -48.762 17.6852 -48.8484C16.1987 -47.6636 17.7184 -42.5487 18.0696 -40.634C20.0336 -32.4581 15.5222 -24.7571 10.4005 -19.1643C3.31492 -12.6434 11.1102 -22.4267 11.0075 -25.633C11.5918 -26.9138 10.5175 -27.4224 10.2844 -26.0476C8.92746 -22.729 7.28616 -19.5341 5.37878 -16.4983C5.32134 -16.4362 5.29175 -16.5787 5.37878 -16.4983C5.43622 -16.5605 5.30687 -16.196 5.46393 -16.4657L5.48878 -16.4427ZM-6.32186 6.01709C-3.28077 -0.391959 -0.914059 -7.19367 5.06144 -11.4905C10.7727 -17.3223 18.4217 -19.8884 26.2681 -21.0967C26.7571 -21.152 26.9768 -20.4419 26.4792 -20.3024C22.8365 -18.206 20.8223 -14.0057 19.8309 -9.98954C17.7123 1.88143 14.5926 14.1872 3.4505 20.2095C-2.5733 25.4067 -13.1236 24.5776 -16.4423 16.0718C-28.8807 -14.3666 2.62886 -14.5449 -0.877697 -35.693C-1.23038 -36.4338 -0.391103 -36.7185 -0.155187 -35.9012C3.54919 -29.4591 0.00344169 -22.1796 1.60265 -15.3549C1.74338 -13.6115 1.91855 -11.9055 0.60609 -10.5599C-3.54592 -5.89183 -4.92669 0.0923062 -6.36967 6.01898L-6.32186 6.01709ZM36.523 39.8904C30.4476 28.0077 48.2696 21.2664 56.5541 18.4116C64.0865 16.279 70.5968 11.5006 74.8894 4.95385C75.2734 4.36369 76.3228 2.72907 76.3095 4.51446C76.341 6.72907 75.7186 8.90377 74.52 10.7663C72.3274 13.7877 73.705 18.0337 71.4263 20.9987C64.2982 32.205 55.5352 29.6162 45.5794 33.8307C54.2252 31.6325 63.1849 31.3146 71.3476 36.5984C77.6813 41.0679 85.7877 36.7348 92.0801 41.3737C92.7737 41.6458 92.8316 42.506 91.942 42.1219C82.6522 40.4523 73.8345 44.0589 65.4952 47.3471C55.8314 51.3703 42.6797 50.1887 36.523 39.8904ZM43.7817 -27.155C44.3859 -26.1127 45.2687 -23.7757 43.1121 -23.7864C40.1756 -23.5266 40.2566 -22.9908 41.4072 -20.2451C41.6206 -19.8538 41.7177 -19.4096 41.6868 -18.9649C41.6559 -18.5202 41.4985 -18.0936 41.233 -17.7355C40.9675 -17.3775 40.6052 -17.1028 40.1887 -16.9439C39.7722 -16.7851 39.3189 -16.7488 38.8824 -16.8392C35.2537 -17.7261 32.1265 -20.777 28.2172 -19.3649C27.9569 -19.2827 27.6479 -19.2226 27.5036 -19.5403C30.4009 -21.7032 26.9143 -23.542 24.6768 -22.5672C16.27 -20.0789 22.5599 -23.6934 25.7039 -25.3749C28.6925 -27.1138 32.2331 -27.6436 35.5999 -26.8558C36.8712 -26.2112 37.1693 -27.4568 35.784 -27.6537C31.3174 -29.1304 27.1034 -26.64 22.9857 -25.6508C31.2279 -35.6434 24.3655 -37.1213 27.5039 -46.8284C28.0057 -47.7706 27.2788 -50.1017 27.9525 -50.332C37.7509 -47.9159 30.0879 -42.3664 35.338 -36.8239C38.1482 -33.3053 41.3669 -31.2762 43.7013 -27.0679L43.7817 -27.155ZM-3.31733 106.354C-6.07069 107.613 -9.38788 109.457 -12.5354 108.623C-12.7791 108.213 -12.3256 108.171 -12.138 108.068C-8.60255 105.988 -7.52588 101.705 -5.34366 98.42C-2.22496 93.673 4.00077 97.8354 8.21397 98.9627C10.9079 99.8386 13.5653 101.003 16.4522 100.698C16.655 100.678 16.9066 100.68 16.9525 100.929C11.17 109.507 4.45909 99.7339 -3.39775 106.441L-3.31733 106.354ZM-47.0977 138.27C-47.5638 136.779 -49.1102 135.235 -48.8109 133.714C-44.452 140.046 -38.1984 145.825 -30.8979 147.477C-30.7204 146.512 -31.9173 146.535 -32.5276 146.248C-38.4489 143.719 -43.4517 139.434 -46.8601 133.972C-42.7687 137.198 -38.2019 139.769 -33.3223 141.595C-30.2738 142.499 -27.5557 144.273 -25.502 146.701C-23.6319 149.466 -21.0986 152.037 -19.4314 154.822C-29.2752 151.557 -41.7698 148.817 -47.1781 138.357L-47.0977 138.27ZM-30.2366 29.5539C-29.4494 30.0738 -25.015 42.261 -27.3672 39.1196C-32.0635 32.1296 -38.4616 26.333 -41.3461 18.2054C-42.1629 15.7221 -43.2635 12.4234 -41.917 10.1182C-40.9526 10.2718 -39.1785 13.6396 -38.4212 14.6159C-33.9339 22.3808 -25.1999 27.5702 -25.6556 37.5666C-26.265 37.3032 -26.2023 36.4622 -26.4509 35.9329C-27.974 31.9442 -30.1129 27.2251 -33.2719 24.5827C-33.8912 24.9785 -30.6236 28.551 -30.317 29.6409L-30.2366 29.5539ZM79.0704 11.0298L78.9834 10.9494C78.3383 11.2983 75.3184 13.6935 76.44 11.4571C77.7126 7.58554 77.3191 6.1157 80.6588 3.32447C83.3814 0.377924 84.0397 0.363887 87.2302 3.19668C89.9457 4.92221 87.1436 6.15891 85.9306 7.59637C85.3677 8.20557 85.9636 8.43359 86.3533 7.98696C87.4835 7.48712 88.7239 4.92256 89.9978 5.93837C91.1603 7.31996 92.675 8.3612 94.3813 8.95165C94.5705 9.01554 94.7352 9.13655 94.8528 9.29801C94.9703 9.45947 95.0348 9.6534 95.0374 9.85307C95.04 10.0527 94.9806 10.2484 94.8674 10.4129C94.7542 10.5774 94.5927 10.7026 94.4053 10.7715C91.7652 12.0641 88.8523 12.701 85.9136 12.6282C83.9742 12.3251 82.0136 12.1783 80.0506 12.189C79.8592 12.1965 79.575 12.2796 79.5397 11.9935C80.0617 10.9547 82.3141 10.9615 82.4563 9.71011C81.8137 8.90894 79.7585 10.8588 78.9527 11.0823L79.0704 11.0298ZM-8.96339 26.4856C-12.3431 28.8712 -15.1578 24.634 -14.2721 21.5803C-12.4 22.273 -10.8404 24.152 -8.66001 24.4612C-6.45568 24.7695 -7.90583 25.9647 -9.08107 26.5382L-8.96339 26.4856ZM-15.6575 106.913C-14.9608 106.658 -13.3195 105.755 -12.853 106.647C-13.1846 107.654 -15.1928 107.458 -15.3445 108.47C-15.4961 109.482 -13.9901 111.22 -14.05 112.432C-16.3424 112.319 -18.2587 108.082 -15.6575 106.913ZM24.4644 76.0879C24.1586 75.7444 23.9796 75.3065 23.9572 74.8471C23.9347 74.3877 24.0702 73.9344 24.341 73.5626C24.6118 73.1909 25.0017 72.923 25.4458 72.8035C25.89 72.684 26.3616 72.7201 26.7824 72.9058C27.6691 73.5176 25.6714 79.047 24.4299 76.1252L24.4644 76.0879ZM24.0273 9.21474L24.1641 9.34109C24.1641 9.34109 24.1878 9.63961 24.1573 9.47311L23.407 9.88608C23.1968 9.41522 23.5499 9.2575 23.8294 9.0548L24.0273 9.21474ZM23.384 9.91097C23.5331 10.3483 23.2535 10.551 22.9741 10.7537L22.8746 10.6618C22.7964 10.1977 23.1017 10.0419 23.4558 9.90813L23.384 9.91097ZM-8.8005 10.8946C-8.31831 10.9714 -8.80474 11.6973 -8.8776 11.9757C-8.95046 12.2541 -9.13063 12.8482 -9.39942 12.7151C-10.025 12.3445 -9.24758 11.4034 -9.09715 10.9662L-8.8005 10.8946ZM-6.54026 6.55276C-6.50076 6.60593 -6.47379 6.66734 -6.46133 6.73239C-6.44887 6.79744 -6.45123 6.86446 -6.46828 6.92846C-6.48533 6.99247 -6.51659 7.05183 -6.55977 7.10207C-6.60293 7.1523 -6.6569 7.19215 -6.71762 7.21863C-7.05723 7.11225 -6.82827 6.54019 -6.48 6.56237L-6.54026 6.55276ZM-6.54026 6.55276C-6.77648 6.33449 -6.62995 6.10113 -6.39547 5.97207C-6.4644 6.04667 -6.28282 6.39887 -6.60055 6.54318L-6.54026 6.55276ZM92.8236 20.465C93.5477 20.9036 93.3865 19.8558 92.8236 20.465V20.465ZM79.6186 28.2459C79.7446 28.1308 79.9041 28.0591 80.0738 28.0417C80.2435 28.0242 80.4144 28.0617 80.5611 28.1487C80.2969 28.4347 80.0442 28.7082 79.6196 28.2697L79.6186 28.2459ZM80.5611 28.1487C80.9237 28.2302 80.6051 28.3506 80.5611 28.1487V28.1487ZM44.8632 70.898C45.0512 70.939 45.2214 71.0382 45.3496 71.1815C45.4779 71.3248 45.5576 71.505 45.5775 71.6963C45.4046 71.6226 45.2499 71.5119 45.1243 71.372C44.9988 71.2321 44.9054 71.0663 44.8508 70.8865L44.8632 70.898ZM46.2703 71.645L46.3325 71.7024C46.3325 71.7024 46.2014 71.7196 46.2454 71.622L46.2703 71.645ZM45.5775 71.6963C45.8073 71.4477 46.0254 71.5109 46.2492 71.7177L45.5899 71.7078L45.5775 71.6963ZM-75.8622 62.6689C-76.3282 62.6993 -76.327 62.1242 -75.7999 62.4268L-75.8622 62.6689ZM-4.704 87.9252C-4.704 87.9252 -4.50117 87.9052 -4.4601 88.0353C-4.41902 88.1655 -4.69725 87.7931 -4.71645 87.9137L-4.704 87.9252ZM-66.37 144.685C-66.2008 145.026 -66.5119 145.338 -66.7491 145.095C-66.6227 144.959 -66.4963 144.822 -66.37 144.685ZM18.6468 25.2394C20.4224 20.1501 18.1572 21.0302 18.6468 25.2394V25.2394ZM18.37 25.8134C18.5177 26.0492 18.5912 26.324 18.5808 26.6021C18.5704 26.8802 18.4767 27.1488 18.3118 27.3729C18.1649 27.1411 18.0919 26.8702 18.1025 26.5959C18.113 26.3217 18.2067 26.0571 18.371 25.8373L18.37 25.8134ZM18.598 25.2174C18.6563 25.4787 18.6408 25.6949 18.37 25.8134C18.3443 25.7595 18.3298 25.7009 18.3274 25.6413C18.325 25.5817 18.3348 25.5222 18.3561 25.4665C18.3774 25.4107 18.4099 25.3599 18.4515 25.3171C18.4931 25.2742 18.5429 25.2404 18.598 25.2174Z" fill="#A1BDBD"/>
</svg>