<svg xmlns="http://www.w3.org/2000/svg" width="64" height="64" viewBox="0 0 64 64" fill="none">
  <path d="M10.1703 38.0002C10.011 38.0003 9.85408 37.9626 9.71226 37.8902L2.09026 33.9642C1.85526 33.8433 1.6777 33.6342 1.59637 33.3828C1.51505 33.1313 1.53658 32.8579 1.65626 32.6222L10.6103 14.9362C10.6697 14.8188 10.7517 14.7142 10.8517 14.6286C10.9516 14.5429 11.0675 14.4778 11.1926 14.437C11.3178 14.3963 11.4497 14.3806 11.5809 14.3909C11.7121 14.4012 11.84 14.4374 11.9573 14.4972L19.2083 18.1972C19.4411 18.3157 19.6183 18.5205 19.702 18.7679C19.7857 19.0154 19.7693 19.2857 19.6563 19.5212L11.0723 37.4292C11.0142 37.5496 10.9328 37.6573 10.8327 37.7459C10.7326 37.8345 10.6158 37.9023 10.4893 37.9452C10.3865 37.9803 10.2788 37.9988 10.1703 38.0002ZM3.88926 32.6402L9.71326 35.6402L17.4313 19.5402L11.9413 16.7402L3.88926 32.6402Z" fill="#87ADAD"/>
  <path d="M20.5306 24.0844C20.3585 24.0843 20.1894 24.0399 20.0396 23.9554L17.1336 22.3184C17.0191 22.254 16.9185 22.1676 16.8374 22.0643C16.7563 21.961 16.6964 21.8428 16.661 21.7163C16.6256 21.5898 16.6155 21.4576 16.6312 21.3272C16.6469 21.1968 16.6882 21.0708 16.7526 20.9564C16.817 20.8419 16.9033 20.7413 17.0066 20.6602C17.1099 20.5791 17.2282 20.5192 17.3547 20.4838C17.4811 20.4484 17.6133 20.4383 17.7437 20.454C17.8741 20.4697 18.0001 20.511 18.1146 20.5754L20.5146 21.9264C21.4516 21.3584 23.4796 20.1354 24.7776 19.4024C26.8966 18.2024 28.3886 18.3674 30.1016 19.9904C30.2891 20.1739 30.397 20.4237 30.402 20.6861C30.407 20.9484 30.3087 21.2022 30.1283 21.3927C29.9479 21.5832 29.6998 21.6952 29.4376 21.7045C29.1754 21.7138 28.92 21.6196 28.7266 21.4424C27.6626 20.4344 27.1086 20.3824 25.7616 21.1424C24.0936 22.0854 21.0846 23.9194 21.0536 23.9424C20.8956 24.0369 20.7147 24.0861 20.5306 24.0844Z" fill="#87ADAD"/>
  <path d="M46.8374 41.4832C46.1087 41.5019 45.3899 41.3121 44.7654 40.9362C43.8454 40.3222 39.7974 36.3522 38.9954 35.5632C38.8186 35.375 38.7214 35.1257 38.7243 34.8675C38.7271 34.6093 38.8297 34.3622 39.0106 34.1779C39.1915 33.9937 39.4367 33.8865 39.6948 33.8789C39.9529 33.8713 40.204 33.9639 40.3954 34.1372C42.1954 35.9142 45.2834 38.8792 45.8724 39.2722C46.252 39.4476 46.6719 39.5175 47.0879 39.4746C47.5039 39.4316 47.9006 39.2774 48.2364 39.0282C48.3936 38.8918 48.519 38.7226 48.6037 38.5325C48.6884 38.3423 48.7303 38.1359 48.7265 37.9278C48.7227 37.7197 48.6732 37.515 48.5816 37.3281C48.49 37.1412 48.3585 36.9767 48.1964 36.8462C47.1744 35.6962 42.9284 31.6112 41.9964 30.7152C38.7443 29.5231 35.5906 28.078 32.5644 26.3932L31.5124 27.0812C31.2762 28.1776 30.6461 29.1493 29.7414 29.8122C29.4238 30.0623 29.0552 30.2396 28.6616 30.3316C28.2679 30.4235 27.8589 30.4278 27.4634 30.3442C26.9835 30.2844 26.5213 30.1251 26.1065 29.8764C25.6917 29.6278 25.3333 29.2953 25.0544 28.9002C24.5226 27.764 24.4629 26.4633 24.8884 25.2832C25.7414 21.8692 27.1254 20.9902 29.0404 19.7742L29.4614 19.5052C31.5714 18.1502 33.3824 17.4282 35.3704 18.3232C36.6064 18.8802 40.9934 20.5792 42.2394 21.0612L46.4154 19.6922C46.6655 19.6161 46.9355 19.641 47.1675 19.7616C47.3995 19.8822 47.5751 20.0889 47.6566 20.3374C47.738 20.5858 47.7189 20.8563 47.6034 21.0908C47.4878 21.3254 47.285 21.5054 47.0384 21.5922L42.5234 23.0722C42.3048 23.1435 42.0683 23.1379 41.8534 23.0562C41.6164 22.9642 36.0384 20.8182 34.5534 20.1482C33.6624 19.7482 32.7214 19.7892 30.5454 21.1872L30.1154 21.4622C28.3684 22.5712 27.4914 23.1292 26.8314 25.7682C26.4934 27.1202 26.6494 27.6682 26.7724 27.8682C26.9304 28.1322 27.2964 28.2392 27.8794 28.3852C28.0045 28.4063 28.1328 28.3993 28.2549 28.3647C28.377 28.3301 28.4899 28.2688 28.5854 28.1852C28.8674 27.9727 29.103 27.7047 29.2776 27.3977C29.4521 27.0907 29.562 26.7512 29.6004 26.4002C29.6134 26.2494 29.6606 26.1036 29.7382 25.9737C29.8158 25.8438 29.9218 25.7332 30.0484 25.6502L31.9734 24.3912C32.1251 24.2925 32.3008 24.2369 32.4816 24.2302C32.6625 24.2235 32.8418 24.266 33.0004 24.3532C33.0684 24.3902 39.8104 28.0772 42.7634 28.8532C42.9275 28.897 43.0781 28.9813 43.2014 29.0982C43.4174 29.3052 48.5014 34.1732 49.6954 35.5202C50.0262 35.8404 50.2886 36.2246 50.4665 36.6492C50.6445 37.0739 50.7343 37.5303 50.7305 37.9908C50.7268 38.4512 50.6296 38.9061 50.4448 39.3278C50.2599 39.7496 49.9914 40.1294 49.6554 40.4442C48.886 41.1422 47.8758 41.5147 46.8374 41.4832Z" fill="#87ADAD"/>
  <path d="M48.9475 37.1817C48.7184 37.1816 48.4963 37.1027 48.3183 36.9584C48.1403 36.814 48.0173 36.6129 47.9699 36.3887C47.9225 36.1646 47.9535 35.9309 48.0577 35.7268C48.1619 35.5228 48.3331 35.3607 48.5425 35.2677L52.0505 33.7137C52.1711 33.6568 52.3019 33.6245 52.4351 33.6189C52.5683 33.6132 52.7013 33.6343 52.8263 33.6808C52.9513 33.7273 53.0657 33.7983 53.1628 33.8897C53.2599 33.9811 53.3378 34.091 53.3918 34.2129C53.4458 34.3348 53.4749 34.4663 53.4774 34.5996C53.4798 34.7329 53.4556 34.8654 53.4061 34.9892C53.3566 35.113 53.2828 35.2257 53.1891 35.3206C53.0954 35.4155 52.9837 35.4907 52.8605 35.5417L49.3515 37.0997C49.224 37.1548 49.0864 37.1828 48.9475 37.1817Z" fill="#87ADAD"/>
  <path d="M53.5341 38.0002C53.3348 38.0002 53.14 37.9405 52.9749 37.829C52.8097 37.7174 52.6816 37.5591 52.6071 37.3742L45.0591 18.6482C45.0086 18.5234 44.9839 18.3896 44.9864 18.2549C44.989 18.1202 45.0187 17.9875 45.0738 17.8646C45.1289 17.7417 45.2082 17.6312 45.3071 17.5397C45.4059 17.4482 45.5223 17.3777 45.6491 17.3322L53.7151 14.4462C53.9591 14.359 54.2274 14.3698 54.4636 14.4765C54.6998 14.5832 54.8853 14.7774 54.9811 15.0182L62.3811 33.5922C62.4295 33.715 62.4531 33.8462 62.4506 33.9782C62.448 34.1102 62.4194 34.2403 62.3663 34.3612C62.3133 34.482 62.2368 34.5912 62.1413 34.6823C62.0458 34.7735 61.9333 34.8448 61.8101 34.8922L53.8921 37.9302C53.778 37.9753 53.6567 37.9991 53.5341 38.0002ZM47.3001 18.8642L54.0911 35.7112L60.1451 33.3912L53.4801 16.6542L47.3001 18.8642ZM42.3321 44.5162C41.5077 44.541 40.7027 44.264 40.0681 43.7372C38.7291 42.5472 35.2871 39.1072 35.1411 38.9612C34.9589 38.7726 34.8581 38.52 34.8604 38.2578C34.8627 37.9956 34.9678 37.7448 35.1532 37.5594C35.3387 37.374 35.5895 37.2688 35.8517 37.2666C36.1139 37.2643 36.3665 37.3651 36.5551 37.5472C36.5901 37.5822 40.1021 41.0922 41.3961 42.2472C41.6643 42.4107 41.968 42.5069 42.2814 42.5278C42.5947 42.5487 42.9085 42.4936 43.1961 42.3672C43.6656 42.2071 44.0822 41.921 44.4003 41.5403C44.7184 41.1596 44.9259 40.6988 45.0001 40.2082C45.0224 40.0788 45.07 39.9551 45.1401 39.8441C45.2103 39.733 45.3016 39.6369 45.4089 39.5612C45.5162 39.4855 45.6374 39.4316 45.7655 39.4027C45.8936 39.3738 46.0261 39.3704 46.1556 39.3927C46.285 39.4151 46.4087 39.4627 46.5198 39.5328C46.6308 39.603 46.7269 39.6943 46.8026 39.8016C46.8784 39.9089 46.9322 40.0301 46.9611 40.1582C46.99 40.2863 46.9934 40.4188 46.9711 40.5482C46.8351 41.3883 46.4742 42.1759 45.9266 42.8274C45.379 43.4788 44.6653 43.9698 43.8611 44.2482C43.37 44.4225 42.8531 44.5131 42.3321 44.5162Z" fill="#87ADAD"/>
  <path d="M37.6778 46.9403C36.8551 46.9754 36.0512 46.6884 35.4368 46.1403L31.8848 42.5883L33.2998 41.1733L36.8518 44.7253C37.0716 44.8488 37.3148 44.9247 37.5658 44.9481C37.8168 44.9715 38.0699 44.942 38.3088 44.8613C38.7675 44.7487 39.1875 44.5149 39.5249 44.1843C39.8623 43.8538 40.1047 43.4387 40.2268 42.9823C40.2637 42.855 40.3257 42.7364 40.4089 42.6332C40.4922 42.5301 40.5951 42.4445 40.7117 42.3815C40.8284 42.3185 40.9563 42.2793 41.0883 42.2662C41.2202 42.2531 41.3534 42.2664 41.4801 42.3052C41.6068 42.3441 41.7246 42.4077 41.8265 42.4925C41.9284 42.5772 42.0125 42.6814 42.0737 42.7989C42.135 42.9165 42.1723 43.045 42.1835 43.1771C42.1947 43.3092 42.1795 43.4422 42.1388 43.5683C41.8606 44.5374 41.2754 45.3901 40.4711 45.9981C39.6669 46.6062 38.687 46.9368 37.6788 46.9403H37.6778Z" fill="#87ADAD"/>
  <path d="M33.8664 49.6114C33.0489 49.6288 32.2494 49.3699 31.5974 48.8764C30.6966 48.1552 29.7915 47.4392 28.8824 46.7284C28.7767 46.6484 28.6881 46.5481 28.6215 46.4335C28.555 46.3188 28.5119 46.1921 28.4947 46.0607C28.4776 45.9292 28.4868 45.7957 28.5217 45.6678C28.5566 45.5399 28.6166 45.4203 28.6982 45.3158C28.7798 45.2114 28.8814 45.1242 28.997 45.0593C29.1126 44.9944 29.2399 44.9532 29.3716 44.938C29.5033 44.9228 29.6367 44.9339 29.7641 44.9707C29.8914 45.0075 30.0101 45.0693 30.1134 45.1524C30.1134 45.1524 31.3624 46.1274 32.8474 47.3154C33.1638 47.5037 33.5236 47.6067 33.8917 47.6142C34.2598 47.6218 34.6236 47.5336 34.9474 47.3584C35.2369 47.2339 35.4819 47.0246 35.6501 46.7581C35.8183 46.4916 35.9017 46.1803 35.8894 45.8654C35.8813 45.6003 35.9789 45.3429 36.1606 45.1497C36.3423 44.9566 36.5933 44.8435 36.8584 44.8354C37.1227 44.8308 37.3784 44.9296 37.5708 45.1108C37.7632 45.292 37.8772 45.5413 37.8884 45.8054C37.912 46.502 37.7305 47.1901 37.3664 47.7844C37.0023 48.3788 36.4717 48.853 35.8404 49.1484C35.2267 49.4522 34.5512 49.6107 33.8664 49.6114Z" fill="#87ADAD"/>
  <path d="M26.3722 49.1484C26.0472 49.1472 25.7255 49.0827 25.4252 48.9584C24.6098 48.5583 23.9376 47.9164 23.5002 47.1204C22.7905 47.2581 22.0551 47.1476 21.4172 46.8074C20.8821 46.4567 20.4221 46.003 20.064 45.4729C19.7059 44.9428 19.4568 44.3467 19.3312 43.7194C19.2785 43.464 19.3276 43.1981 19.4682 42.9784C20.2812 41.7104 21.5072 39.7394 21.6902 39.3284C21.8548 39.0005 22.0884 38.7121 22.3749 38.4828C22.6615 38.2536 22.9941 38.089 23.3502 38.0004C23.8345 37.8735 24.3411 37.8564 24.8328 37.9506C25.3245 38.0447 25.789 38.2476 26.1922 38.5444C26.639 38.8402 26.9978 39.251 27.2308 39.7335C27.4638 40.2161 27.5624 40.7525 27.5162 41.2864C27.9918 41.3069 28.4576 41.4291 28.8819 41.645C29.3063 41.8608 29.6794 42.1651 29.9762 42.5374C30.2644 42.9878 30.4484 43.4969 30.5146 44.0276C30.5809 44.5582 30.5278 45.0969 30.3592 45.6044C29.8347 47.0683 28.7578 48.2687 27.3592 48.9484C27.0469 49.0804 26.7113 49.1484 26.3722 49.1484ZM25.1842 46.0274C25.4982 46.5584 26.0592 47.3204 26.5842 47.1014C27.4558 46.6474 28.1269 45.8847 28.4662 44.9624C28.533 44.7583 28.5585 44.5429 28.5413 44.3288C28.5242 44.1148 28.4646 43.9063 28.3662 43.7154C28.2141 43.5664 28.0335 43.4496 27.8352 43.3719C27.6369 43.2943 27.425 43.2573 27.2122 43.2634L25.1842 46.0274ZM21.3932 43.6774C21.5523 44.233 21.8971 44.7173 22.3702 45.0494C22.5179 45.1252 22.6795 45.1698 22.8452 45.1807C23.0108 45.1915 23.1769 45.1683 23.3332 45.1124L25.4682 41.4524C25.5531 41.2262 25.5585 40.9779 25.4836 40.7482C25.4088 40.5185 25.258 40.3211 25.0562 40.1884C24.9026 40.0673 24.7254 39.9798 24.5359 39.9314C24.3465 39.883 24.149 39.8748 23.9562 39.9074C23.786 39.9354 23.6306 40.0213 23.5162 40.1504C23.2522 40.7354 21.9822 42.7514 21.3932 43.6774Z" fill="#87ADAD"/>
  <path d="M18.7296 45.2396C18.4926 45.2403 18.2568 45.2066 18.0296 45.1396C16.3166 44.6246 15.6456 42.4066 15.5746 42.1556C15.5387 42.0283 15.5285 41.8951 15.5444 41.7638C15.5604 41.6325 15.6022 41.5056 15.6676 41.3906C16.5175 39.9141 17.4576 38.4914 18.4826 37.1306C18.9971 36.4612 19.7426 36.0077 20.5736 35.8584C21.4046 35.7092 22.2613 35.8751 22.9766 36.3236C23.9206 36.9786 24.6126 38.4036 23.4546 40.2656C23.3853 40.3772 23.2947 40.4741 23.188 40.5507C23.0813 40.6273 22.9605 40.6822 22.8326 40.7121C22.7047 40.7421 22.5721 40.7465 22.4425 40.7252C22.3129 40.704 22.1887 40.6574 22.0771 40.5881C21.9654 40.5188 21.8686 40.4282 21.7919 40.3215C21.7153 40.2148 21.6605 40.094 21.6305 39.9661C21.6006 39.8382 21.5961 39.7057 21.6174 39.576C21.6387 39.4464 21.6853 39.3222 21.7546 39.2106C22.0116 38.7956 22.2346 38.2446 21.8356 37.9676C21.544 37.8083 21.2048 37.7592 20.88 37.8294C20.5552 37.8995 20.2665 38.0842 20.0666 38.3496C19.1881 39.5169 18.3752 40.7321 17.6316 41.9896C17.8506 42.5126 18.2236 43.1116 18.6046 43.2246C18.9416 43.3246 19.4046 42.9786 19.6556 42.7646C19.8563 42.5911 20.1178 42.5045 20.3824 42.5239C20.647 42.5432 20.8931 42.6668 21.0666 42.8676C21.24 43.0684 21.3266 43.3298 21.3073 43.5944C21.288 43.859 21.1643 44.1051 20.9636 44.2786C20.3623 44.8626 19.567 45.2047 18.7296 45.2396Z" fill="#87ADAD"/>
  <path d="M16.5346 42.88C16.4247 42.8799 16.3156 42.8616 16.2116 42.826C16.0426 42.769 12.0566 41.376 12.0566 38.254C12.0565 38.1492 12.0727 38.0449 12.1046 37.945C12.4665 36.9492 12.962 36.0073 13.5776 35.145C14.0358 34.5976 14.6685 34.2247 15.3694 34.0892C16.0703 33.9537 16.7965 34.0638 17.4256 34.401C18.0179 34.6635 18.4903 35.1385 18.7495 35.7322C19.0087 36.3259 19.0358 36.9952 18.8256 37.608C18.1716 39.714 17.5006 42.121 17.4936 42.146C17.4349 42.3563 17.309 42.5415 17.1351 42.6735C16.9612 42.8055 16.7489 42.877 16.5306 42.877L16.5346 42.88ZM14.0646 38.409C14.1646 39.345 15.1226 40.057 15.8906 40.484C16.1516 39.572 16.5386 38.245 16.9186 37.018C16.9535 36.9401 16.9714 36.8556 16.971 36.7702C16.9706 36.6848 16.952 36.6005 16.9164 36.5228C16.8808 36.4452 16.829 36.3761 16.7646 36.3201C16.7001 36.2641 16.6245 36.2224 16.5426 36.198C16.336 36.0815 16.0995 36.0288 15.863 36.0465C15.6264 36.0643 15.4005 36.1519 15.2136 36.298C14.75 36.9547 14.3644 37.6631 14.0646 38.409Z" fill="#87ADAD"/>
  <path d="M13.8772 37.5296C13.6759 37.5294 13.4793 37.4684 13.3132 37.3546L10.6902 35.5546C10.4713 35.4048 10.3208 35.1741 10.272 34.9133C10.2231 34.6525 10.2799 34.383 10.4297 34.1641C10.5796 33.9452 10.8103 33.7947 11.071 33.7459C11.3318 33.697 11.6013 33.7538 11.8202 33.9036L14.4432 35.7036C14.6199 35.8242 14.7533 35.9982 14.8237 36.2002C14.8942 36.4021 14.8981 36.6214 14.8347 36.8257C14.7714 37.03 14.6442 37.2086 14.4719 37.3353C14.2995 37.462 14.0911 37.5301 13.8772 37.5296Z" fill="#87ADAD"/>
</svg>