<svg xmlns="http://www.w3.org/2000/svg" width="113" height="239" viewBox="0 0 113 239" fill="none">
  <path d="M-34.6057 158.72C-38.65 150.908 -43.7146 141.343 -53.8825 142.001C-59.5169 141.757 -65.2046 142.238 -70.8285 141.402C-71.304 141.365 -71.8586 141.198 -72.1812 141.715C-72.7958 145.642 -63.7662 146.488 -61.2257 148.812C-54.5583 153.731 -39.8431 151.062 -36.5504 159.182C-34.6883 166.75 -37.922 174.169 -40.9519 180.719C-43.4825 185.126 -45.2808 189.99 -48.5438 193.939C-59.0753 203.749 -69.5942 213.666 -81.4761 221.834C-85.9311 225.04 -90.8692 227.485 -95.2919 230.672C-95.8245 231.077 -96.2081 231.596 -95.8147 232.341C-94.4661 233.92 -92.1062 231.802 -90.6387 231.4C-79.7075 225.646 -69.4889 218.629 -60.1923 210.494C-55.8077 206.666 -51.4142 202.823 -47.3923 198.649C-45.6548 196.855 -43.3278 195.749 -40.8397 195.535C-38.7193 195.374 -36.6125 195.987 -34.9087 197.259C-33.2049 198.531 -32.0193 200.378 -31.571 202.456C-30.2425 208.832 -33.7898 214.421 -36.1762 219.875C-38.4223 224.459 -39.4578 229.542 -39.1843 234.639C-39.3485 236.053 -37.9495 240.558 -36.5752 237.684C-29.4457 219.865 -18.4924 218.3 -32.0695 197.596C-11.0677 207.171 -24.7499 222.476 10.0011 225.846C12.3458 226.024 14.6682 226.424 16.937 227.042C18.0732 227.651 19.0826 226.386 17.887 225.52C12.0176 219.961 5.85383 214.139 -2.42394 213.303C-19.9415 211.19 -24.8807 193.303 -40.4879 193.021C-40.9939 193.064 -41.3619 192.854 -40.9137 192.296C-38.3856 189.364 -35.4716 186.773 -33.0261 183.75C-24.0144 176.663 -11.2407 179.248 -0.382553 180.297C2.07271 180.647 4.54579 180.858 7.02484 180.929C9.57639 180.965 10.3701 184.553 13.1942 184.28C15.7173 184.778 17.3857 189.65 20.6919 191.194C24.2232 193.977 27.9686 192.323 31.7023 191.84C33.1372 191.82 34.5469 191.459 35.814 190.785C37.0812 190.111 38.1694 189.145 38.9882 187.967C43.2104 182.8 42.3419 174.695 47.6735 170.341C49.9255 167.755 43.6451 170.081 42.7928 170.168C41.9406 170.255 37.4199 171.743 40.2859 169.741C41.3673 168.839 44.6116 163.801 42.0873 164.201C34.2661 167.301 21.7905 156.981 17.737 167.601C13.0875 180.423 15.1472 172.071 8.70613 178.267C8.53142 178.571 8.27239 178.817 7.96038 178.977C7.64837 179.136 7.29679 179.202 6.94829 179.165C-4.36 178.453 -15.2892 175.663 -26.634 176.864C-19.9998 166.937 -9.23473 154.899 4.44077 159.044C15.6973 162.876 27.2203 159.951 37.2401 154.99C37.8463 154.69 39.0538 154.546 38.6961 153.584C38.3384 152.623 37.4345 153.336 36.794 153.435C31.1238 154.497 25.2867 154.265 19.7188 152.755C14.7824 151.414 9.53956 151.758 4.82121 153.734C-0.561887 156.221 -6.522 157.171 -11.8961 159.643C-14.551 160.7 -7.8449 153.791 -7.6784 153.236C-2.66541 147.346 1.80461 139.8 10.1222 138.525C20.0972 136.29 30.1821 137.556 40.267 138.821C40.6237 138.818 40.9739 138.917 41.2765 139.106C41.5791 139.295 41.8217 139.566 41.9759 139.888C43.248 142.358 46.7397 142.262 47.4557 145.143C49.3076 150.649 54.6864 157.856 60.9608 154.709C64.7506 152.185 69.7669 151.405 72.278 147.285C73.6908 145.533 74.9666 142.977 77.6205 143.137C78.3725 143.307 78.5262 142.485 77.8352 142.153C75.1694 140.35 72.8351 137.856 69.3344 137.806C68.6902 137.783 68.6451 137.376 69.0844 136.991C70.297 136.391 75.7175 130.775 72.6507 130.318C71.9017 130.407 71.1422 130.305 70.4441 130.019C69.7459 129.734 69.1322 129.275 68.6608 128.686C60.4212 120.531 53.4352 124.851 48.1634 132.755C45.8831 135.961 44.9349 134.731 42.7809 136.2C40.3155 138.871 35.896 136.073 32.7253 135.91C24.3517 133.917 16.12 134.926 8.07894 136.492C19.1876 125.044 31.3202 114.635 44.325 105.397C46.7447 104.174 49.4683 106.492 51.5218 107.774C61.535 114.462 74.0025 109.831 82.746 104.134C89.6849 99.1856 97.2756 94.8239 106.267 94.8682C106.976 94.8515 107.282 94.4243 106.715 93.9904C104.937 92.3624 107.207 89.1096 108.406 87.7631C112.217 84.5343 106.899 81.9935 109.06 81.0877C113.035 79.2584 112.637 73.3428 110.815 69.9312C110.219 69.0902 109.893 68.0877 109.881 67.057C109.868 66.0262 110.169 65.0161 110.745 64.1608C113.411 59.2802 105.87 59.5024 103.336 61.293C101.736 62.2899 102.103 58.728 99.0277 58.6044C94.183 58.5341 88.5684 50.2014 84.9586 56.2094C84.1285 57.1878 83.9362 59.3824 82.8815 59.9214C82.194 59.3926 82.3955 57.503 81.5485 57.4533C80.7015 57.4037 80.8136 58.6309 80.4283 59.2484C78.7868 62.4707 76.8094 65.5105 74.5292 68.3173C65.2123 77.907 47.1907 81.5256 45.4121 97.0369C45.4439 98.8725 44.1367 100.232 44.3031 102.171C44.3284 102.386 43.8764 102.663 43.5912 102.864C37.5651 107.085 31.5104 111.447 25.7125 116.07C25.3179 116.382 24.8088 117.102 24.3456 116.693C25.0287 113.441 26.6194 110.449 28.9333 108.063C34.4829 102.368 31.9383 93.9758 31.2911 86.668C30.3695 82.4214 32.1237 78.5876 32.347 74.4569C32.6332 73.1989 30.993 72.8537 31.0639 74.2747L31.2362 74.3823C31.0928 74.612 31.249 74.6496 31.4195 74.6962C30.8489 80.0867 29.8064 85.4022 30.9172 90.9441C31.872 96.7678 31.916 103.54 27.8978 107.836C29.3592 103.115 29.7452 98.1265 29.0274 93.2367C28.5433 93.6928 28.768 94.2919 28.7702 94.832C28.6568 98.36 28.1316 101.863 27.2053 105.269C27.1337 105.543 27.2256 106.1 26.7393 106.016C25.608 99.3235 25.061 91.759 27.5724 85.305C28.4998 82.2522 30.1791 79.3694 30.543 76.1645L30.4281 76.0928C27.1687 82.8183 23.7984 89.9135 24.8265 97.8581C26.9316 111.942 22.6293 118.037 12.7789 126.755C3.48778 135.354 -5.13866 144.645 -13.0264 154.548C-15.4013 158.354 -10.4879 145.717 -10.5583 145.094C-6.06366 131.497 -4.83536 116.9 -0.54531 103.215C-0.138539 99.7175 3.84822 99.3721 5.0053 96.3031C5.15046 95.996 5.36181 95.7249 5.62411 95.5091C5.88642 95.2933 6.19322 95.1383 6.52251 95.055C9.84744 94.009 12.909 92.2612 15.5 89.9297C18.091 87.5982 20.1511 84.7374 21.5409 81.5409C24.2527 75.8929 25.4098 69.6241 24.8931 63.3801C23.6731 55.4554 25.6382 45.2086 35.549 46.3055C39.343 47.5159 46.3321 47.827 44.2933 41.8856C43.8621 40.9779 43.6411 40.5008 44.7316 39.9043C49.8445 35.7722 39.9202 30.4766 36.9094 27.9791C30.885 23.98 35.1086 15.5815 26.2601 14.509C25.1175 14.3166 24.0465 13.8246 23.1561 13.0832C22.2657 12.3417 21.588 11.3774 21.1919 10.2886C19.5028 6.60061 18.574 -3.03788 12.8277 0.958325C10.1437 4.17195 9.19719 8.15063 4.07066 7.92438C-3.83342 7.80046 0.97876 12.8788 -1.14649 11.7121C-1.99902 11.1285 -3.02631 10.8559 -4.05602 10.9399C-5.08573 11.0239 -6.05521 11.4594 -6.80189 12.1734C-8.84274 13.813 -14.8713 17.0145 -11.0295 19.9708C-9.38923 20.9192 -8.03273 22.2893 -7.10086 23.939C-6.76162 26.7845 -4.53912 28.5307 -3.13622 30.823C-2.84524 31.2839 -2.15761 31.8128 -3.3651 31.9571C-3.75943 32.589 -2.78435 33.7762 -2.61159 34.5225C2.9598 47.9762 -15.4842 55.8207 -15.0901 70.9519C-15.5157 78.5081 -11.8324 85.875 -6.7005 91.4322C-6.14033 91.9414 -6.16326 92.5855 -6.09287 93.2081C-6.0793 97.4068 -2.40362 98.7429 -2.76837 100.67C-5.38811 108.673 -5.60973 118.013 -8.23509 125.672C-9.39338 118.864 -9.82555 111.211 -13.5962 104.688C-15.4082 100.918 -18.3398 97.7992 -21.9906 95.7577C-26.1675 93.5302 -29.371 89.9347 -32.8935 86.8185C-34.732 85.1923 -34.4805 88.4021 -34.2465 89.466C-32.0549 101.269 -20.906 107.768 -13.09 115.739C-8.31497 121.612 -11.1373 129.907 -10.9515 136.708C-15.5469 154.774 -25.1907 171.158 -38.7553 183.945C-38.9166 184.204 -39.1944 184.649 -39.5158 184.429C-39.8371 184.208 -39.5072 183.776 -39.3854 183.452C-35.4087 173.403 -31.9366 162.82 -33.044 151.613C-34.6342 142.939 -30.6683 135.497 -27.1564 128.111C-25.8991 127.279 -21.4332 105.544 -25.3747 109.269C-30.7938 116.962 -38.9799 124.324 -36.9883 134.945C-35.6642 142.895 -33.3245 150.72 -34.516 158.736C-34.6309 158.664 -34.6452 158.655 -34.516 158.736L-34.6057 158.72ZM45.7271 101.104C47.0468 105.161 47.7736 102.621 45.7271 101.104V101.104ZM-32.2419 224.186C-29.7995 219.345 -27.4942 213.381 -28.3234 207.676L-28.2786 207.604L-28.3413 207.704C-25.6542 211.935 -26.9775 218.692 -29.6323 222.562C-32.5204 226.769 -34.95 231.273 -36.8795 235.998C-37.0582 237.083 -37.864 236.84 -37.7661 235.724C-38.8924 225.762 -32.0008 214.4 -29.7647 206.916C-27.7242 212.918 -31.2248 218.496 -32.1953 224.175L-32.2419 224.186ZM-33.0679 137.392C-33.0753 133.604 -32.2753 129.859 -30.7211 126.405C-29.9435 124.616 -29.1085 122.862 -28.2879 121.1C-28.0728 120.755 -27.7144 120.18 -28.1021 119.939C-28.4898 119.697 -28.6778 120.317 -28.8696 120.657C-32.1822 126.368 -34.1279 132.769 -34.5541 139.357L-34.4195 139.302C-36.9353 133.741 -35.8649 127.166 -33.1122 122.02C-30.6567 118.085 -27.7578 114.207 -25.0006 110.62C-25.1545 120.11 -27.9304 129.371 -33.0212 137.381L-32.9906 137.619C-33.1431 137.544 -33.084 137.481 -33.0212 137.381L-33.0679 137.392ZM17.7873 156.937C16.7837 156.052 2.82048 156.396 5.29042 155.124C14.0796 150.633 23.6865 156.149 32.9927 154.634C38.0793 154.317 26.4405 158.387 25.5201 158.551C18.309 160.618 10.6108 160.188 3.67522 157.329C7.11077 156.46 11.2705 157.18 14.9524 157.163C15.907 157.201 16.93 157.48 17.7873 156.937ZM-56.8373 145.424C-50.7178 146.65 -44.8618 148.329 -40.2957 153.034C-40.0947 153.159 -39.7787 153.357 -39.9813 153.649C-47.1531 151.169 -55.3332 151.391 -62.0271 147.154C-62.4744 146.336 -73.2087 142.69 -69.5572 142.754C-65.4773 143.197 -61.3768 143.425 -57.2729 143.437C-51.7516 143.67 -44.7178 143.59 -41.8682 149.319C-46.3685 146.57 -51.548 145.135 -56.8213 145.175C-56.8213 145.175 -56.7889 145.315 -56.805 145.405L-56.8373 145.424ZM21.9705 190.137C22.0153 190.065 21.9507 189.945 21.8412 189.896L22.0082 190.14C22.2268 189.598 22.688 189.786 23.0882 189.816C28.8449 190.536 32.8071 185.785 35.4133 181.705C33.8269 181.274 30.7191 186.637 28.3798 187.412C26.4194 188.37 24.1922 188.635 22.0616 188.165C19.931 187.694 18.0228 186.515 16.6486 184.82C16.3541 184.397 16.4004 183.907 17.0519 184.174C23.621 186.916 29.4718 180.93 24.7523 182.993C21.2543 184.282 16.7647 183.995 14.1698 180.958C15.8846 180.894 17.5664 180.468 19.1056 179.71C20.6448 178.951 22.0068 177.877 23.1026 176.556C24.4016 175.092 26.019 173.946 27.8304 173.205C29.6419 172.464 31.5992 172.148 33.5517 172.283C37.2071 172.5 40.8672 171.942 44.2914 170.644C44.4991 170.522 44.7306 170.445 44.9705 170.419C45.2103 170.393 45.4529 170.419 45.682 170.494C41.0444 176.998 41.4505 188.625 31.7944 190.062C28.576 190.967 25.3594 191.932 22.0028 190.117L21.9705 190.137ZM63.2991 130.947C60.5037 129.096 57.1945 128.176 53.8449 128.319C57.9442 124.532 64.6572 125.349 68.5197 129.615C70.6783 132.359 72.0444 130.618 72.5763 131.748C71.4431 135.77 59.8589 141.031 55.5128 140.514C54.2637 140.213 54.2411 141.336 55.3376 141.562C58.8931 142.963 62.1914 140.811 65.4565 139.895C67.226 139.221 69.1411 139.022 71.0114 139.318C72.8817 139.614 74.6421 140.394 76.1176 141.58C76.5485 141.849 76.8627 142.145 76.181 142.438C72.8213 143.953 71.5788 148.086 67.9317 149.262C66.0284 149.889 64.2675 150.885 62.7499 152.194C55.8419 157.859 49.6327 148.497 46.9408 142.547C46.7068 142.149 46.5776 141.699 46.5654 141.237C46.5531 140.776 46.6583 140.319 46.8709 139.909C47.3615 138.42 49.6656 141.314 50.7647 140.065C50.9081 139.835 50.6083 139.708 50.4091 139.643C45.269 137.872 46.9168 133.473 51.6268 133.28C52.8939 133.204 54.1653 133.243 55.4255 133.396C55.779 133.437 56.3929 133.86 56.4553 133.28C55.6705 132.332 52.6849 132.384 51.3965 132.338C51.1058 132.356 50.7775 132.371 50.7109 132.03C53.1171 129.421 56.6786 129.15 60.0544 130.199C61.0972 130.51 62.0881 131.288 63.2506 130.896L63.2991 130.947ZM101.05 72.4373C94.5712 72.8435 87.6492 73.512 82.3998 77.4792C82.0376 77.7719 81.5912 78.3912 81.1927 78.1026C80.7941 77.814 81.2189 77.1014 81.3352 76.5953C81.9778 74.2228 81.24 71.0886 83.9002 69.8954C90.7309 66.8153 94.3654 70.9991 101.086 63.7796C102.881 62.0864 107.801 59.9891 109.92 61.87C110.889 65.2085 106.283 65.5866 110.054 72.11C112.742 80.5918 102.339 80.4445 96.7836 80.8088C96.1591 80.8182 95.9765 81.4625 96.8055 81.3812C99.8775 81.5424 111.157 80.0617 107.628 85.9405C106.303 87.4079 105.519 89.2844 105.407 91.2586C105.381 92.1002 105.027 92.3785 104.194 91.8587C100.734 89.9552 96.7203 89.3123 92.8386 90.0397C86.4304 91.7073 80.1399 89.6372 73.6979 89.0889L73.7303 89.2288C73.8317 88.973 73.994 88.7457 74.203 88.5668C74.4121 88.3878 74.6616 88.2625 74.93 88.2017C79.6153 85.9377 84.8413 84.6298 89.5482 82.6188C88.1696 82.4143 86.7613 82.5998 85.4827 83.1544C82.2084 83.7648 79.1197 85.389 76.0107 86.1823C79.9747 78.6794 87.9913 75.3618 96.1114 73.9245C97.8352 73.754 99.5086 73.2456 101.036 72.4283L101.05 72.4373ZM8.35656 52.5014C8.53823 45.1123 9.62398 37.3296 6.58314 30.0844C6.45175 29.4636 5.86489 29.3169 5.93722 30.1601C7.30641 37.7974 7.51731 45.5974 6.56278 53.2975C4.84417 51.1275 4.59064 47.697 4.32504 44.9572C4.34766 38.5264 -0.545144 33.5773 -3.9381 28.3671C-5.94361 26.4969 -5.1759 23.4442 -7.16165 21.6064C-7.88701 20.9143 -8.58196 20.1414 -9.36649 19.5121C-10.9643 18.2356 -10.5426 18.1994 -9.84565 16.6989C-3.78778 9.0062 0.130957 11.5516 3.44723 20.1459C3.71143 20.8097 3.66172 21.6566 4.47121 22.0221C4.44187 18.3922 1.92231 15.2036 0.803944 11.752C-1.25822 5.65632 11.5724 12.7856 13.4151 4.71706C15.5701 -0.622495 18.1825 1.90576 18.9213 6.4772C19.9187 11.5293 24.7351 14.8743 22.7578 20.3448C21.0905 25.0308 25.1861 29.243 24.2472 33.9447C23.2193 39.5886 20.2535 45.3001 15.33 48.2335C14.7347 48.7399 14.1605 48.7008 14.8273 47.7601C18.6093 41.7 20.8218 33.7425 17.1226 26.7847C15.8403 24.5125 15.03 22.0047 14.7402 19.4117C14.7148 19.0367 14.831 18.3709 14.2819 18.3874C13.043 19.8291 15.4919 24.5698 16.1947 26.3852C19.6521 34.0501 16.6594 42.4585 12.6731 48.9099C6.93105 56.6401 12.7606 45.5724 12.0605 42.4418C12.3951 41.0743 11.2448 40.7754 11.2726 42.1696C10.5598 45.6833 9.54454 49.1287 8.23811 52.4674C8.1933 52.5392 8.13758 52.4047 8.23811 52.4674C8.28292 52.3956 8.22398 52.7779 8.32785 52.4835L8.35656 52.5014ZM0.951451 76.7728C2.74119 69.9084 3.79506 62.7842 8.86225 57.4463C13.383 50.6499 20.4177 46.6995 27.9 44.0461C28.3701 43.9004 28.7186 44.5569 28.2558 44.7869C25.0691 47.5272 23.8753 52.0299 23.652 56.1606C23.7893 68.2184 23.0244 80.8904 13.204 88.8889C8.25763 95.1202 -2.26171 96.2774 -7.11156 88.5417C-25.0194 60.9642 5.90171 54.9003 -1.49537 34.7801C-1.98028 34.1183 -1.20899 33.6818 -0.824506 34.4406C4.01855 40.0769 1.89571 47.8908 4.7422 54.2964C5.20626 55.9827 5.69718 57.626 4.65932 59.1932C1.45286 64.5549 1.21477 70.6917 0.904832 76.7836L0.951451 76.7728ZM49.372 102.042C41.1828 91.5042 57.431 81.551 65.036 77.1983C72.0372 73.6956 77.5397 67.7846 80.5332 60.551C80.8001 59.8995 81.5256 58.0975 81.8461 59.854C82.291 62.0237 82.0859 64.2764 81.2566 66.3301C79.6673 69.708 81.8141 73.6218 80.1296 76.9604C75.2214 89.3014 66.129 88.3959 57.1363 94.3968C65.219 90.6215 73.9614 88.6347 82.9678 92.2999C90.0252 95.507 97.1789 89.7353 104.227 93.1165C104.96 93.2542 105.177 94.0884 104.232 93.8773C94.7934 93.9733 86.805 99.1642 79.2272 103.953C70.4855 109.711 57.3447 111.008 49.372 102.042ZM43.9728 34.8215C44.7611 35.7325 46.0652 37.8633 43.9446 38.2559C41.1083 39.0599 41.2881 39.5711 42.9315 42.0534C43.2143 42.3979 43.3927 42.8162 43.4455 43.2588C43.4983 43.7014 43.4233 44.1499 43.2294 44.5513C43.0355 44.9527 42.7309 45.2903 42.3514 45.5241C41.9719 45.758 41.5335 45.8784 41.0878 45.8711C37.3572 45.678 33.7149 43.2653 30.1385 45.3832C29.8981 45.5125 29.6057 45.6293 29.4046 45.3442C31.8467 42.678 28.0778 41.5232 26.0619 42.899C18.2683 46.9145 23.7719 42.1881 26.5462 39.9488C29.1572 37.6819 32.5364 36.4998 35.9911 36.6445C37.3604 37.0402 37.4206 35.7607 36.0228 35.8263C31.359 35.2103 27.6846 38.4444 23.8244 40.1856C30.0538 28.8288 23.0361 28.6594 24.3051 18.5368C24.622 17.5174 23.4722 15.3632 24.091 15.0111C34.1683 15.5535 27.6775 22.4372 33.8709 26.901C37.2892 29.8324 40.8304 31.2242 43.9101 34.9221L43.9728 34.8215ZM22.6547 174.78C20.1851 176.531 17.2709 178.963 14.023 178.732C13.707 178.375 14.1447 178.249 14.3097 178.113C17.3941 175.408 17.6514 170.999 19.1813 167.365C21.3579 162.119 28.2518 165.044 32.6015 165.364C35.4116 165.721 38.2399 166.369 41.0188 165.529C41.2143 165.472 41.4619 165.427 41.5536 165.663C37.476 175.171 29.0569 166.824 22.5919 174.881L22.6547 174.78ZM-14.3896 214.316C-15.1262 212.939 -16.9339 211.711 -16.9242 210.16C-11.4587 215.567 -4.2353 220.074 3.2454 220.333C3.23936 219.352 2.06787 219.598 1.41462 219.43C-4.8749 218.053 -10.5903 214.779 -14.9595 210.05C-10.3373 212.454 -5.37037 214.126 -0.235568 215.008C2.92809 215.326 5.92997 216.561 8.4011 218.562C10.755 220.929 13.7242 222.982 15.8826 225.406C5.60205 224.039 -7.18456 223.681 -14.4524 214.417L-14.3896 214.316ZM-18.1432 104.364C-17.2727 104.728 -10.6389 115.872 -13.5367 113.225C-19.4566 107.236 -26.8252 102.737 -31.1779 95.2919C-32.4444 93.005 -34.142 89.9702 -33.2501 87.4539C-32.274 87.4246 -29.9018 90.4015 -28.9754 91.2191C-23.116 98.0085 -13.566 101.474 -12.1455 111.38C-12.7934 111.235 -12.889 110.397 -13.232 109.923C-15.4738 106.29 -18.457 102.053 -22.0541 100.048C-22.5885 100.553 -18.7109 103.451 -18.206 104.465L-18.1432 104.364ZM85.7761 65.7385L85.6755 65.6758C85.107 66.1391 82.588 69.0565 83.2718 66.6499C83.7984 62.6087 83.1372 61.2383 85.8964 57.8721C88.0204 54.4687 88.6645 54.3318 92.3281 56.5185C95.3183 57.7061 92.7966 59.4447 91.8737 61.0835C91.4345 61.7872 92.0626 61.8998 92.3619 61.3882C93.3788 60.686 94.1181 57.9348 95.5594 58.6946C96.9596 59.8346 98.6422 60.5744 100.429 60.8356C100.627 60.863 100.811 60.9511 100.957 61.0877C101.102 61.2244 101.202 61.4029 101.242 61.5985C101.282 61.7942 101.26 61.9975 101.179 62.1802C101.099 62.363 100.964 62.5162 100.792 62.6189C98.4404 64.3821 95.6979 65.5522 92.7974 66.0298C90.8355 66.0946 88.882 66.3167 86.9556 66.6941C86.769 66.7373 86.5053 66.872 86.4172 66.5975C86.7359 65.4795 88.9498 65.0653 88.8556 63.8093C88.0747 63.1424 86.42 65.442 85.6703 65.8121L85.7761 65.7385ZM2.18176 97.3744C-0.69255 100.35 -4.24952 96.713 -3.95019 93.5476C-1.9816 93.8783 -0.0983102 95.4327 2.10145 95.3289C4.32455 95.2198 3.12333 96.665 2.07597 97.448L2.18176 97.3744ZM10.6364 177.636C11.2731 177.255 12.7168 176.061 13.3417 176.85C13.2043 177.902 11.1948 178.084 11.2349 179.107C11.2751 180.13 13.0793 181.555 13.247 182.757C10.9738 183.074 8.29949 179.27 10.6364 177.636ZM44.2906 139.856C43.926 139.575 43.6684 139.178 43.5604 138.731C43.4525 138.284 43.5009 137.814 43.6974 137.398C43.894 136.982 44.2269 136.646 44.6409 136.446C45.0549 136.245 45.525 136.193 45.9731 136.296C46.9585 136.732 46.0293 142.537 44.2637 139.899L44.2906 139.856ZM31.3635 74.2423L31.5215 74.3408C31.5215 74.3408 31.6006 74.6297 31.5395 74.4718L30.8796 75.0177C30.5851 74.5944 30.9025 74.3735 31.1392 74.1221L31.3635 74.2423ZM30.8617 75.0465C31.0898 75.4482 30.8531 75.6996 30.6164 75.9509L30.5016 75.8792C30.338 75.438 30.6088 75.2279 30.9316 75.0303L30.8617 75.0465ZM-0.571984 82.0276C-0.0839391 82.0129 -0.426128 82.817 -0.445673 83.1041C-0.465218 83.3912 -0.531186 84.0085 -0.820124 83.928C-1.50392 83.6808 -0.916104 82.611 -0.850027 82.1534L-0.571984 82.0276ZM0.837006 77.3399C0.885746 77.3847 0.923721 77.44 0.948119 77.5016C0.972517 77.5632 0.982721 77.6294 0.977933 77.6955C0.973146 77.7616 0.953528 77.8257 0.920503 77.8831C0.887484 77.9406 0.841911 77.9898 0.787217 78.0272C0.43371 77.9861 0.551726 77.3813 0.898001 77.3381L0.837006 77.3399ZM0.837006 77.3399C0.564155 77.1696 0.664494 76.913 0.870723 76.7424C0.816948 76.8285 1.06115 77.1406 0.775988 77.3417L0.837006 77.3399ZM101.05 72.4373C101.844 72.7328 101.489 71.7336 101.05 72.4373V72.4373ZM89.5321 82.5488C89.6342 82.4122 89.7776 82.312 89.9411 82.2631C90.1045 82.2143 90.2794 82.2192 90.4398 82.2772C90.2337 82.6075 90.0365 82.9234 89.5374 82.5721L89.5321 82.5488ZM90.4398 82.2772C90.8112 82.2896 90.5207 82.4674 90.4398 82.2772V82.2772ZM63.3601 130.945C63.5524 130.95 63.7381 131.016 63.8909 131.132C64.0437 131.249 64.1557 131.411 64.211 131.596C64.0274 131.556 63.8547 131.476 63.7052 131.362C63.5557 131.248 63.433 131.102 63.3457 130.936L63.3601 130.945ZM64.882 131.416L64.9538 131.46C64.9538 131.46 64.8282 131.502 64.8533 131.398L64.882 131.416ZM64.211 131.596C64.3903 131.308 64.6164 131.33 64.8749 131.491L64.2254 131.605L64.211 131.596ZM-56.7763 145.423C-57.2284 145.54 -57.3346 144.974 -56.7603 145.173L-56.7763 145.423ZM17.8483 156.935C17.8483 156.935 18.0439 156.878 18.1085 156.998C18.1732 157.118 17.8303 156.804 17.834 156.926L17.8483 156.935ZM-32.1235 224.22C-31.8936 224.523 -32.1409 224.887 -32.4192 224.694C-32.3206 224.536 -32.222 224.378 -32.1235 224.22ZM29.0726 90.9902C29.8657 85.6587 27.8049 86.9466 29.0726 90.9902V90.9902ZM28.9079 91.6058C29.0972 91.8098 29.2207 92.066 29.2624 92.3412C29.3042 92.6163 29.2624 92.8977 29.1422 93.1487C28.9546 92.9484 28.8322 92.6959 28.7914 92.4245C28.7505 92.1531 28.793 91.8757 28.9134 91.6291L28.9079 91.6058ZM29.0206 90.9777C29.1266 91.2234 29.1518 91.4387 28.9079 91.6058C28.8726 91.5576 28.8474 91.5028 28.8339 91.4447C28.8204 91.3865 28.8189 91.3263 28.8295 91.2675C28.84 91.2088 28.8624 91.1528 28.8952 91.1029C28.9281 91.0531 28.9707 91.0105 29.0206 90.9777Z" fill="#A1BDBD"/>
</svg>