<svg xmlns="http://www.w3.org/2000/svg" width="123" height="239" viewBox="0 0 123 239" fill="none">
  <path d="M147.606 158.72C151.65 150.908 156.715 141.343 166.883 142.001C172.517 141.757 178.205 142.238 183.829 141.402C184.304 141.365 184.859 141.198 185.181 141.715C185.796 145.642 176.766 146.488 174.226 148.812C167.558 153.731 152.843 151.062 149.55 159.182C147.688 166.75 150.922 174.169 153.952 180.719C156.483 185.126 158.281 189.99 161.544 193.939C172.075 203.749 182.594 213.666 194.476 221.834C198.931 225.04 203.869 227.485 208.292 230.672C208.825 231.077 209.208 231.596 208.815 232.341C207.466 233.92 205.106 231.802 203.639 231.4C192.708 225.646 182.489 218.629 173.192 210.494C168.808 206.666 164.414 202.823 160.392 198.649C158.655 196.855 156.328 195.749 153.84 195.535C151.719 195.374 149.612 195.987 147.909 197.259C146.205 198.531 145.019 200.378 144.571 202.456C143.243 208.832 146.79 214.421 149.176 219.875C151.422 224.459 152.458 229.542 152.184 234.639C152.348 236.053 150.949 240.558 149.575 237.684C142.446 219.865 131.492 218.3 145.069 197.596C124.068 207.171 137.75 222.476 102.999 225.846C100.654 226.024 98.3318 226.424 96.063 227.042C94.9268 227.651 93.9174 226.386 95.113 225.52C100.982 219.961 107.146 214.139 115.424 213.303C132.942 211.19 137.881 193.303 153.488 193.021C153.994 193.064 154.362 192.854 153.914 192.296C151.386 189.364 148.472 186.773 146.026 183.75C137.014 176.663 124.241 179.248 113.383 180.297C110.927 180.647 108.454 180.858 105.975 180.929C103.424 180.965 102.63 184.553 99.8058 184.28C97.2827 184.778 95.6143 189.65 92.3081 191.194C88.7768 193.977 85.0314 192.323 81.2977 191.84C79.8628 191.82 78.4531 191.459 77.186 190.785C75.9188 190.111 74.8306 189.145 74.0118 187.967C69.7896 182.8 70.6581 174.695 65.3265 170.341C63.0745 167.755 69.3549 170.081 70.2072 170.168C71.0594 170.255 75.5801 171.743 72.7141 169.741C71.6327 168.839 68.3884 163.801 70.9127 164.201C78.7339 167.301 91.2095 156.981 95.263 167.601C99.9125 180.423 97.8528 172.071 104.294 178.267C104.469 178.571 104.728 178.817 105.04 178.977C105.352 179.136 105.703 179.202 106.052 179.165C117.36 178.453 128.289 175.663 139.634 176.864C133 166.937 122.235 154.899 108.559 159.044C97.3027 162.876 85.7797 159.951 75.7599 154.99C75.1537 154.69 73.9462 154.546 74.3039 153.584C74.6616 152.623 75.5655 153.336 76.206 153.435C81.8762 154.497 87.7133 154.265 93.2812 152.755C98.2176 151.414 103.46 151.758 108.179 153.734C113.562 156.221 119.522 157.171 124.896 159.643C127.551 160.7 120.845 153.791 120.678 153.236C115.665 147.346 111.195 139.8 102.878 138.525C92.9028 136.29 82.8179 137.556 72.733 138.821C72.3763 138.818 72.0261 138.917 71.7235 139.106C71.4209 139.295 71.1783 139.566 71.0241 139.888C69.752 142.358 66.2603 142.262 65.5443 145.143C63.6924 150.649 58.3136 157.856 52.0392 154.709C48.2494 152.185 43.2331 151.405 40.722 147.285C39.3092 145.533 38.0334 142.977 35.3795 143.137C34.6275 143.307 34.4738 142.485 35.1648 142.153C37.8306 140.35 40.1649 137.856 43.6656 137.806C44.3098 137.783 44.3549 137.376 43.9156 136.991C42.703 136.391 37.2825 130.775 40.3493 130.318C41.0983 130.407 41.8578 130.305 42.5559 130.019C43.2541 129.734 43.8678 129.275 44.3392 128.686C52.5788 120.531 59.5648 124.851 64.8366 132.755C67.1169 135.961 68.0651 134.731 70.2191 136.2C72.6845 138.871 77.104 136.073 80.2747 135.91C88.6483 133.917 96.88 134.926 104.921 136.492C93.8124 125.044 81.6798 114.635 68.675 105.397C66.2553 104.174 63.5317 106.492 61.4782 107.774C51.465 114.462 38.9975 109.831 30.254 104.134C23.3151 99.1856 15.7244 94.8239 6.73303 94.8682C6.02429 94.8515 5.71778 94.4243 6.28508 93.9904C8.06254 92.3624 5.79307 89.1096 4.59357 87.7631C0.782793 84.5343 6.10107 81.9935 3.93951 81.0877C-0.0354844 79.2584 0.363256 73.3428 2.18498 69.9312C2.78096 69.0902 3.10688 68.0877 3.11943 67.057C3.13198 66.0262 2.83056 65.0161 2.25522 64.1608C-0.41147 59.2802 7.1299 59.5024 9.66408 61.293C11.264 62.2899 10.8967 58.728 13.9723 58.6044C18.817 58.5341 24.4316 50.2014 28.0414 56.2094C28.8715 57.1878 29.0638 59.3824 30.1185 59.9214C30.806 59.3926 30.6045 57.503 31.4515 57.4533C32.2985 57.4037 32.1864 58.6309 32.5717 59.2484C34.2132 62.4707 36.1906 65.5105 38.4708 68.3173C47.7877 77.907 65.8093 81.5256 67.5879 97.0369C67.5561 98.8725 68.8633 100.232 68.6969 102.171C68.6716 102.386 69.1236 102.663 69.4088 102.864C75.4349 107.085 81.4896 111.447 87.2875 116.07C87.6821 116.382 88.1912 117.102 88.6544 116.693C87.9713 113.441 86.3806 110.449 84.0667 108.063C78.5171 102.368 81.0617 93.9758 81.7089 86.668C82.6305 82.4214 80.8763 78.5876 80.653 74.4569C80.3668 73.1989 82.007 72.8537 81.9361 74.2747L81.7638 74.3823C81.9072 74.612 81.751 74.6496 81.5805 74.6962C82.1511 80.0867 83.1936 85.4022 82.0828 90.9441C81.128 96.7678 81.084 103.54 85.1022 107.836C83.6408 103.115 83.2548 98.1265 83.9726 93.2367C84.4567 93.6928 84.232 94.2919 84.2298 94.832C84.3432 98.36 84.8684 101.863 85.7947 105.269C85.8663 105.543 85.7744 106.1 86.2607 106.016C87.392 99.3235 87.939 91.759 85.4276 85.305C84.5002 82.2522 82.8209 79.3694 82.457 76.1645L82.5719 76.0928C85.8313 82.8183 89.2016 89.9135 88.1735 97.8581C86.0684 111.942 90.3707 118.037 100.221 126.755C109.512 135.354 118.139 144.645 126.026 154.548C128.401 158.354 123.488 145.717 123.558 145.094C119.064 131.497 117.835 116.9 113.545 103.215C113.139 99.7175 109.152 99.3721 107.995 96.3031C107.85 95.996 107.638 95.7249 107.376 95.5091C107.114 95.2933 106.807 95.1383 106.477 95.055C103.153 94.009 100.091 92.2612 97.5 89.9297C94.909 87.5982 92.8489 84.7374 91.4591 81.5409C88.7473 75.8929 87.5902 69.6241 88.1069 63.3801C89.3269 55.4554 87.3618 45.2086 77.451 46.3055C73.657 47.5159 66.6679 47.827 68.7067 41.8856C69.1379 40.9779 69.3589 40.5008 68.2684 39.9043C63.1555 35.7722 73.0798 30.4766 76.0906 27.9791C82.115 23.98 77.8914 15.5815 86.7399 14.509C87.8825 14.3166 88.9535 13.8246 89.8439 13.0832C90.7343 12.3417 91.412 11.3774 91.8081 10.2886C93.4972 6.60061 94.426 -3.03788 100.172 0.958325C102.856 4.17195 103.803 8.15063 108.929 7.92438C116.833 7.80046 112.021 12.8788 114.146 11.7121C114.999 11.1285 116.026 10.8559 117.056 10.9399C118.086 11.0239 119.055 11.4594 119.802 12.1734C121.843 13.813 127.871 17.0145 124.029 19.9708C122.389 20.9192 121.033 22.2893 120.101 23.939C119.762 26.7845 117.539 28.5307 116.136 30.823C115.845 31.2839 115.158 31.8128 116.365 31.9571C116.759 32.589 115.784 33.7762 115.612 34.5225C110.04 47.9762 128.484 55.8207 128.09 70.9519C128.516 78.5081 124.832 85.875 119.7 91.4322C119.14 91.9414 119.163 92.5855 119.093 93.2081C119.079 97.4068 115.404 98.7429 115.768 100.67C118.388 108.673 118.61 118.013 121.235 125.672C122.393 118.864 122.826 111.211 126.596 104.688C128.408 100.918 131.34 97.7992 134.991 95.7577C139.168 93.5302 142.371 89.9347 145.894 86.8185C147.732 85.1923 147.48 88.4021 147.246 89.466C145.055 101.269 133.906 107.768 126.09 115.739C121.315 121.612 124.137 129.907 123.952 136.708C128.547 154.774 138.191 171.158 151.755 183.945C151.917 184.204 152.194 184.649 152.516 184.429C152.837 184.208 152.507 183.776 152.385 183.452C148.409 173.403 144.937 162.82 146.044 151.613C147.634 142.939 143.668 135.497 140.156 128.111C138.899 127.279 134.433 105.544 138.375 109.269C143.794 116.962 151.98 124.324 149.988 134.945C148.664 142.895 146.325 150.72 147.516 158.736C147.631 158.664 147.645 158.655 147.516 158.736L147.606 158.72ZM67.2729 101.104C65.9532 105.161 65.2264 102.621 67.2729 101.104V101.104ZM145.242 224.186C142.799 219.345 140.494 213.381 141.323 207.676L141.279 207.604L141.341 207.704C138.654 211.935 139.977 218.692 142.632 222.562C145.52 226.769 147.95 231.273 149.88 235.998C150.058 237.083 150.864 236.84 150.766 235.724C151.892 225.762 145.001 214.4 142.765 206.916C140.724 212.918 144.225 218.496 145.195 224.175L145.242 224.186ZM146.068 137.392C146.075 133.604 145.275 129.859 143.721 126.405C142.944 124.616 142.109 122.862 141.288 121.1C141.073 120.755 140.714 120.18 141.102 119.939C141.49 119.697 141.678 120.317 141.87 120.657C145.182 126.368 147.128 132.769 147.554 139.357L147.42 139.302C149.935 133.741 148.865 127.166 146.112 122.02C143.657 118.085 140.758 114.207 138.001 110.62C138.154 120.11 140.93 129.371 146.021 137.381L145.991 137.619C146.143 137.544 146.084 137.481 146.021 137.381L146.068 137.392ZM95.2127 156.937C96.2163 156.052 110.18 156.396 107.71 155.124C98.9204 150.633 89.3135 156.149 80.0073 154.634C74.9207 154.317 86.5595 158.387 87.4799 158.551C94.691 160.618 102.389 160.188 109.325 157.329C105.889 156.46 101.73 157.18 98.0476 157.163C97.093 157.201 96.07 157.48 95.2127 156.937ZM169.837 145.424C163.718 146.65 157.862 148.329 153.296 153.034C153.095 153.159 152.779 153.357 152.981 153.649C160.153 151.169 168.333 151.391 175.027 147.154C175.474 146.336 186.209 142.69 182.557 142.754C178.477 143.197 174.377 143.425 170.273 143.437C164.752 143.67 157.718 143.59 154.868 149.319C159.369 146.57 164.548 145.135 169.821 145.175C169.821 145.175 169.789 145.315 169.805 145.405L169.837 145.424ZM91.0295 190.137C90.9847 190.065 91.0493 189.945 91.1588 189.896L90.9918 190.14C90.7732 189.598 90.312 189.786 89.9118 189.816C84.1551 190.536 80.1929 185.785 77.5867 181.705C79.1731 181.274 82.2809 186.637 84.6202 187.412C86.5806 188.37 88.8078 188.635 90.9384 188.165C93.069 187.694 94.9772 186.515 96.3514 184.82C96.6459 184.397 96.5996 183.907 95.9481 184.174C89.379 186.916 83.5282 180.93 88.2477 182.993C91.7457 184.282 96.2353 183.995 98.8302 180.958C97.1154 180.894 95.4336 180.468 93.8944 179.71C92.3552 178.951 90.9932 177.877 89.8974 176.556C88.5984 175.092 86.981 173.946 85.1696 173.205C83.3581 172.464 81.4008 172.148 79.4483 172.283C75.7929 172.5 72.1328 171.942 68.7086 170.644C68.5009 170.522 68.2694 170.445 68.0295 170.419C67.7897 170.393 67.5471 170.419 67.318 170.494C71.9556 176.998 71.5495 188.625 81.2056 190.062C84.424 190.967 87.6406 191.932 90.9972 190.117L91.0295 190.137ZM49.7009 130.947C52.4963 129.096 55.8055 128.176 59.1551 128.319C55.0558 124.532 48.3428 125.349 44.4803 129.615C42.3217 132.359 40.9556 130.618 40.4237 131.748C41.5569 135.77 53.1411 141.031 57.4872 140.514C58.7363 140.213 58.7589 141.336 57.6624 141.562C54.1069 142.963 50.8086 140.811 47.5435 139.895C45.774 139.221 43.8589 139.022 41.9886 139.318C40.1183 139.614 38.3579 140.394 36.8824 141.58C36.4515 141.849 36.1373 142.145 36.819 142.438C40.1787 143.953 41.4212 148.086 45.0683 149.262C46.9716 149.889 48.7325 150.885 50.2501 152.194C57.1581 157.859 63.3673 148.497 66.0592 142.547C66.2932 142.149 66.4224 141.699 66.4346 141.237C66.4469 140.776 66.3417 140.319 66.1291 139.909C65.6385 138.42 63.3344 141.314 62.2353 140.065C62.0919 139.835 62.3917 139.708 62.5909 139.643C67.731 137.872 66.0832 133.473 61.3732 133.28C60.1061 133.204 58.8347 133.243 57.5745 133.396C57.221 133.437 56.6071 133.86 56.5447 133.28C57.3295 132.332 60.3151 132.384 61.6035 132.338C61.8942 132.356 62.2225 132.371 62.2891 132.03C59.8829 129.421 56.3214 129.15 52.9456 130.199C51.9028 130.51 50.9119 131.288 49.7494 130.896L49.7009 130.947ZM11.9498 72.4373C18.4288 72.8435 25.3508 73.512 30.6002 77.4792C30.9624 77.7719 31.4088 78.3912 31.8073 78.1026C32.2059 77.814 31.7811 77.1014 31.6648 76.5953C31.0222 74.2228 31.76 71.0886 29.0998 69.8954C22.2691 66.8153 18.6346 70.9991 11.9143 63.7796C10.1193 62.0864 5.19885 59.9891 3.0803 61.87C2.11093 65.2085 6.71671 65.5866 2.94607 72.11C0.257893 80.5918 10.6615 80.4445 16.2164 80.8088C16.8409 80.8182 17.0235 81.4625 16.1945 81.3812C13.1225 81.5424 1.84266 80.0617 5.37175 85.9405C6.6972 87.4079 7.48102 89.2844 7.59315 91.2586C7.6195 92.1002 7.97281 92.3785 8.80572 91.8587C12.2659 89.9552 16.2797 89.3123 20.1614 90.0397C26.5696 91.7073 32.8601 89.6372 39.3021 89.0889L39.2697 89.2288C39.1683 88.973 39.006 88.7457 38.797 88.5668C38.5879 88.3878 38.3384 88.2625 38.07 88.2017C33.3847 85.9377 28.1587 84.6298 23.4518 82.6188C24.8304 82.4143 26.2387 82.5998 27.5173 83.1544C30.7916 83.7648 33.8803 85.389 36.9893 86.1823C33.0253 78.6794 25.0087 75.3618 16.8886 73.9245C15.1648 73.754 13.4914 73.2456 11.9642 72.4283L11.9498 72.4373ZM104.643 52.5014C104.462 45.1123 103.376 37.3296 106.417 30.0844C106.548 29.4636 107.135 29.3169 107.063 30.1601C105.694 37.7974 105.483 45.5974 106.437 53.2975C108.156 51.1275 108.409 47.697 108.675 44.9572C108.652 38.5264 113.545 33.5773 116.938 28.3671C118.944 26.4969 118.176 23.4442 120.162 21.6064C120.887 20.9143 121.582 20.1414 122.366 19.5121C123.964 18.2356 123.543 18.1994 122.846 16.6989C116.788 9.0062 112.869 11.5516 109.553 20.1459C109.289 20.8097 109.338 21.6566 108.529 22.0221C108.558 18.3922 111.078 15.2036 112.196 11.752C114.258 5.65632 101.428 12.7856 99.5849 4.71706C97.4299 -0.622495 94.8175 1.90576 94.0787 6.4772C93.0813 11.5293 88.2649 14.8743 90.2422 20.3448C91.9095 25.0308 87.8139 29.243 88.7528 33.9447C89.7807 39.5886 92.7465 45.3001 97.67 48.2335C98.2653 48.7399 98.8395 48.7008 98.1727 47.7601C94.3907 41.7 92.1782 33.7425 95.8774 26.7847C97.1597 24.5125 97.97 22.0047 98.2598 19.4117C98.2852 19.0367 98.169 18.3709 98.7181 18.3874C99.957 19.8291 97.5081 24.5698 96.8053 26.3852C93.3479 34.0501 96.3406 42.4585 100.327 48.9099C106.069 56.6401 100.239 45.5724 100.94 42.4418C100.605 41.0743 101.755 40.7754 101.727 42.1696C102.44 45.6833 103.455 49.1287 104.762 52.4674C104.807 52.5392 104.862 52.4047 104.762 52.4674C104.717 52.3956 104.776 52.7779 104.672 52.4835L104.643 52.5014ZM112.049 76.7728C110.259 69.9084 109.205 62.7842 104.138 57.4463C99.617 50.6499 92.5823 46.6995 85.1 44.0461C84.6299 43.9004 84.2814 44.5569 84.7442 44.7869C87.9309 47.5272 89.1247 52.0299 89.348 56.1606C89.2107 68.2184 89.9756 80.8904 99.796 88.8889C104.742 95.1202 115.262 96.2774 120.112 88.5417C138.019 60.9642 107.098 54.9003 114.495 34.7801C114.98 34.1183 114.209 33.6818 113.825 34.4406C108.981 40.0769 111.104 47.8908 108.258 54.2964C107.794 55.9827 107.303 57.626 108.341 59.1932C111.547 64.5549 111.785 70.6917 112.095 76.7836L112.049 76.7728ZM63.628 102.042C71.8172 91.5042 55.569 81.551 47.964 77.1983C40.9628 73.6956 35.4603 67.7846 32.4668 60.551C32.1999 59.8995 31.4744 58.0975 31.1539 59.854C30.709 62.0237 30.9141 64.2764 31.7434 66.3301C33.3327 69.708 31.1859 73.6218 32.8704 76.9604C37.7786 89.3014 46.871 88.3959 55.8637 94.3968C47.781 90.6215 39.0386 88.6347 30.0322 92.2999C22.9748 95.507 15.8211 89.7353 8.77257 93.1165C8.0404 93.2542 7.82274 94.0884 8.76849 93.8773C18.2066 93.9733 26.195 99.1642 33.7728 103.953C42.5145 109.711 55.6553 111.008 63.628 102.042ZM69.0272 34.8215C68.2389 35.7325 66.9348 37.8633 69.0554 38.2559C71.8917 39.0599 71.7119 39.5711 70.0685 42.0534C69.7857 42.3979 69.6073 42.8162 69.5545 43.2588C69.5017 43.7014 69.5767 44.1499 69.7706 44.5513C69.9645 44.9527 70.2691 45.2903 70.6486 45.5241C71.0281 45.758 71.4665 45.8784 71.9122 45.8711C75.6428 45.678 79.2851 43.2653 82.8615 45.3832C83.1019 45.5125 83.3943 45.6293 83.5954 45.3442C81.1533 42.678 84.9222 41.5232 86.9381 42.899C94.7317 46.9145 89.2281 42.1881 86.4538 39.9488C83.8428 37.6819 80.4636 36.4998 77.0089 36.6445C75.6396 37.0402 75.5794 35.7607 76.9772 35.8263C81.641 35.2103 85.3154 38.4444 89.1756 40.1856C82.9462 28.8288 89.9639 28.6594 88.6949 18.5368C88.378 17.5174 89.5278 15.3632 88.909 15.0111C78.8317 15.5535 85.3225 22.4372 79.1291 26.901C75.7108 29.8324 72.1696 31.2242 69.0899 34.9221L69.0272 34.8215ZM90.3453 174.78C92.8149 176.531 95.7291 178.963 98.977 178.732C99.293 178.375 98.8553 178.249 98.6903 178.113C95.6059 175.408 95.3486 170.999 93.8187 167.365C91.6421 162.119 84.7482 165.044 80.3985 165.364C77.5884 165.721 74.7601 166.369 71.9812 165.529C71.7857 165.472 71.5381 165.427 71.4464 165.663C75.524 175.171 83.9431 166.824 90.4081 174.881L90.3453 174.78ZM127.39 214.316C128.126 212.939 129.934 211.711 129.924 210.16C124.459 215.567 117.235 220.074 109.755 220.333C109.761 219.352 110.932 219.598 111.585 219.43C117.875 218.053 123.59 214.779 127.959 210.05C123.337 212.454 118.37 214.126 113.236 215.008C110.072 215.326 107.07 216.561 104.599 218.562C102.245 220.929 99.2758 222.982 97.1174 225.406C107.398 224.039 120.185 223.681 127.452 214.417L127.39 214.316ZM131.143 104.364C130.273 104.728 123.639 115.872 126.537 113.225C132.457 107.236 139.825 102.737 144.178 95.2919C145.444 93.005 147.142 89.9702 146.25 87.4539C145.274 87.4246 142.902 90.4015 141.975 91.2191C136.116 98.0085 126.566 101.474 125.146 111.38C125.793 111.235 125.889 110.397 126.232 109.923C128.474 106.29 131.457 102.053 135.054 100.048C135.589 100.553 131.711 103.451 131.206 104.465L131.143 104.364ZM27.2239 65.7385L27.3245 65.6758C27.893 66.1391 30.412 69.0565 29.7282 66.6499C29.2016 62.6087 29.8628 61.2383 27.1036 57.8721C24.9796 54.4687 24.3355 54.3318 20.6719 56.5185C17.6817 57.7061 20.2034 59.4447 21.1263 61.0835C21.5655 61.7872 20.9374 61.8998 20.6381 61.3882C19.6212 60.686 18.8819 57.9348 17.4406 58.6946C16.0404 59.8346 14.3578 60.5744 12.5712 60.8356C12.3734 60.863 12.1889 60.9511 12.0433 61.0877C11.8977 61.2244 11.7981 61.4029 11.7582 61.5985C11.7183 61.7942 11.7401 61.9975 11.8206 62.1802C11.9011 62.363 12.0363 62.5162 12.2076 62.6189C14.5596 64.3821 17.3021 65.5522 20.2026 66.0298C22.1645 66.0946 24.118 66.3167 26.0444 66.6941C26.231 66.7373 26.4947 66.872 26.5828 66.5975C26.2641 65.4795 24.0502 65.0653 24.1444 63.8093C24.9253 63.1424 26.58 65.442 27.3297 65.8121L27.2239 65.7385ZM110.818 97.3744C113.693 100.35 117.25 96.713 116.95 93.5476C114.982 93.8783 113.098 95.4327 110.899 95.3289C108.675 95.2198 109.877 96.665 110.924 97.448L110.818 97.3744ZM102.364 177.636C101.727 177.255 100.283 176.061 99.6583 176.85C99.7957 177.902 101.805 178.084 101.765 179.107C101.725 180.13 99.9207 181.555 99.753 182.757C102.026 183.074 104.701 179.27 102.364 177.636ZM68.7094 139.856C69.074 139.575 69.3316 139.178 69.4396 138.731C69.5475 138.284 69.4991 137.814 69.3026 137.398C69.106 136.982 68.7731 136.646 68.3591 136.446C67.9451 136.245 67.475 136.193 67.0269 136.296C66.0415 136.732 66.9707 142.537 68.7363 139.899L68.7094 139.856ZM81.6365 74.2423L81.4785 74.3408C81.4785 74.3408 81.3994 74.6297 81.4605 74.4718L82.1204 75.0177C82.4149 74.5944 82.0975 74.3735 81.8608 74.1221L81.6365 74.2423ZM82.1383 75.0465C81.9102 75.4482 82.1469 75.6996 82.3836 75.9509L82.4984 75.8792C82.662 75.438 82.3912 75.2279 82.0684 75.0303L82.1383 75.0465ZM113.572 82.0276C113.084 82.0129 113.426 82.817 113.446 83.1041C113.465 83.3912 113.531 84.0085 113.82 83.928C114.504 83.6808 113.916 82.611 113.85 82.1534L113.572 82.0276ZM112.163 77.3399C112.114 77.3847 112.076 77.44 112.052 77.5016C112.027 77.5632 112.017 77.6294 112.022 77.6955C112.027 77.7616 112.046 77.8257 112.079 77.8831C112.113 77.9406 112.158 77.9898 112.213 78.0272C112.566 77.9861 112.448 77.3813 112.102 77.3381L112.163 77.3399ZM112.163 77.3399C112.436 77.1696 112.336 76.913 112.129 76.7424C112.183 76.8285 111.939 77.1406 112.224 77.3417L112.163 77.3399ZM11.9498 72.4373C11.1565 72.7328 11.5106 71.7336 11.9498 72.4373V72.4373ZM23.4679 82.5488C23.3658 82.4122 23.2224 82.312 23.0589 82.2631C22.8955 82.2143 22.7206 82.2192 22.5602 82.2772C22.7663 82.6075 22.9635 82.9234 23.4626 82.5721L23.4679 82.5488ZM22.5602 82.2772C22.1888 82.2896 22.4793 82.4674 22.5602 82.2772V82.2772ZM49.6399 130.945C49.4476 130.95 49.2619 131.016 49.1091 131.132C48.9563 131.249 48.8443 131.411 48.789 131.596C48.9726 131.556 49.1453 131.476 49.2948 131.362C49.4443 131.248 49.567 131.102 49.6543 130.936L49.6399 130.945ZM48.118 131.416L48.0462 131.46C48.0462 131.46 48.1718 131.502 48.1467 131.398L48.118 131.416ZM48.789 131.596C48.6097 131.308 48.3836 131.33 48.1251 131.491L48.7746 131.605L48.789 131.596ZM169.776 145.423C170.228 145.54 170.335 144.974 169.76 145.173L169.776 145.423ZM95.1517 156.935C95.1517 156.935 94.9561 156.878 94.8915 156.998C94.8268 157.118 95.1697 156.804 95.166 156.926L95.1517 156.935ZM145.123 224.22C144.894 224.523 145.141 224.887 145.419 224.694C145.321 224.536 145.222 224.378 145.123 224.22ZM83.9274 90.9902C83.1343 85.6587 85.1951 86.9466 83.9274 90.9902V90.9902ZM84.0921 91.6058C83.9028 91.8098 83.7793 92.066 83.7376 92.3412C83.6958 92.6163 83.7376 92.8977 83.8578 93.1487C84.0454 92.9484 84.1678 92.6959 84.2086 92.4245C84.2495 92.1531 84.207 91.8757 84.0866 91.6291L84.0921 91.6058ZM83.9794 90.9777C83.8734 91.2234 83.8482 91.4387 84.0921 91.6058C84.1274 91.5576 84.1526 91.5028 84.1661 91.4447C84.1796 91.3865 84.1811 91.3263 84.1705 91.2675C84.16 91.2088 84.1376 91.1528 84.1048 91.1029C84.0719 91.0531 84.0293 91.0105 83.9794 90.9777Z" fill="#A1BDBD"/>
</svg>