<svg xmlns="http://www.w3.org/2000/svg" width="64" height="64" viewBox="0 0 64 64" fill="none">
  <path d="M51.0004 45.0527C49.5215 45.0484 48.0946 45.5977 47.0004 46.5927C45.9062 45.5977 44.4793 45.0484 43.0004 45.0527C41.6172 45.0524 40.2764 45.53 39.2049 46.4047C38.1334 47.2794 37.397 48.4974 37.1204 49.8527C37.0941 49.984 37.094 50.1192 37.12 50.2506C37.146 50.382 37.1976 50.5069 37.2719 50.6184C37.3462 50.7298 37.4417 50.8255 37.5529 50.9C37.6642 50.9745 37.7891 51.0264 37.9204 51.0527C38.0517 51.0789 38.1869 51.0791 38.3183 51.0531C38.4497 51.0271 38.5746 50.9755 38.6861 50.9012C38.7975 50.8269 38.8932 50.7314 38.9677 50.6201C39.0423 50.5089 39.0941 50.384 39.1204 50.2527C39.3034 49.3559 39.7884 48.549 40.4946 47.9666C41.2007 47.3842 42.0851 47.0616 43.0004 47.0527C43.6231 47.055 44.2366 47.2027 44.7921 47.4839C45.3477 47.7651 45.8299 48.1722 46.2004 48.6727C46.2935 48.7969 46.4143 48.8977 46.5532 48.9671C46.692 49.0365 46.8451 49.0727 47.0004 49.0727C47.1556 49.0727 47.3087 49.0365 47.4476 48.9671C47.5865 48.8977 47.7072 48.7969 47.8004 48.6727C48.1709 48.1722 48.6531 47.7651 49.2086 47.4839C49.7642 47.2027 50.3777 47.055 51.0004 47.0527C51.9225 47.0525 52.8164 47.3709 53.5307 47.954C54.245 48.5372 54.736 49.3492 54.9204 50.2527C54.9671 50.4819 55.0928 50.6876 55.2755 50.8337C55.4583 50.9799 55.6864 51.0574 55.9204 51.0527H56.1204C56.2491 51.0264 56.3714 50.9751 56.4802 50.9016C56.5891 50.8281 56.6824 50.7338 56.7548 50.6243C56.8273 50.5147 56.8774 50.3919 56.9024 50.2629C56.9274 50.134 56.9267 50.0014 56.9004 49.8727C56.6271 48.5104 55.8896 47.2851 54.8136 46.4061C53.7376 45.527 52.3898 45.0487 51.0004 45.0527Z" fill="#87ADAD"/>
  <path d="M55 39.0526H52V36.2926C52.9355 35.5436 53.6908 34.5941 54.21 33.514C54.7293 32.4339 54.9993 31.251 55 30.0526V25.0526C55.001 24.8023 54.9081 24.5607 54.7396 24.3755C54.5711 24.1904 54.3393 24.0752 54.09 24.0526C53.1861 23.9662 52.3291 23.6101 51.6301 23.0306C50.9311 22.451 50.4224 21.6748 50.17 20.8026C50.1095 20.5863 49.978 20.3967 49.7966 20.2643C49.6152 20.1318 49.3944 20.0643 49.17 20.0726H48.88C48.7055 20.0737 48.5343 20.1204 48.3834 20.2081C48.2325 20.2958 48.1073 20.4215 48.02 20.5726C47.4067 21.6269 46.5286 22.5026 45.4727 23.113C44.4167 23.7234 43.2196 24.0473 42 24.0526C41.4094 24.0488 40.8216 23.9715 40.25 23.8226C40.0996 23.7837 39.9422 23.7804 39.7903 23.8129C39.6384 23.8454 39.4961 23.9128 39.3748 24.0099C39.2535 24.1069 39.1565 24.2309 39.0914 24.372C39.0263 24.5131 38.995 24.6674 39 24.8226V30.0526C39.0007 31.251 39.2707 32.4339 39.79 33.514C40.3092 34.5941 41.0645 35.5436 42 36.2926V39.0526H39C37.1435 39.0526 35.363 39.7901 34.0503 41.1029C32.7375 42.4156 32 44.1961 32 46.0526C32 44.1961 31.2625 42.4156 29.9497 41.1029C28.637 39.7901 26.8565 39.0526 25 39.0526H22V36.2926C22.9355 35.5436 23.6908 34.5941 24.21 33.514C24.7293 32.4339 24.9993 31.251 25 30.0526V29.9526C26.1294 29.7221 27.1444 29.1085 27.8733 28.2155C28.6022 27.3226 29.0002 26.2053 29 25.0526V18.0526C29 17.5222 28.7893 17.0135 28.4142 16.6384C28.0391 16.2634 27.5304 16.0526 27 16.0526H10C8.67392 16.0526 7.40215 16.5794 6.46447 17.5171C5.52678 18.4548 5 19.7266 5 21.0526V25.0526C5 25.3179 5.10536 25.5722 5.29289 25.7598C5.48043 25.9473 5.73478 26.0526 6 26.0526C6.26522 26.0526 6.51957 25.9473 6.70711 25.7598C6.89464 25.5722 7 25.3179 7 25.0526V21.0526C7 20.257 7.31607 19.4939 7.87868 18.9313C8.44129 18.3687 9.20435 18.0526 10 18.0526H27V25.0526C26.9983 25.6716 26.8051 26.2748 26.4471 26.7797C26.089 27.2846 25.5835 27.6663 25 27.8726V23.0526C25.0003 22.9152 24.9723 22.7792 24.9178 22.6531C24.8632 22.5269 24.7832 22.4134 24.6828 22.3196C24.5824 22.2258 24.4637 22.1536 24.3342 22.1077C24.2047 22.0618 24.0671 22.043 23.93 22.0526L19.93 22.3426C19.7987 22.3518 19.6705 22.3868 19.5526 22.4456C19.4348 22.5043 19.3298 22.5857 19.2434 22.685C19.157 22.7844 19.0911 22.8998 19.0493 23.0246C19.0076 23.1495 18.9908 23.2813 19 23.4126C19.0092 23.544 19.0442 23.6722 19.1029 23.79C19.1617 23.9078 19.243 24.0129 19.3424 24.0992C19.4417 24.1856 19.5571 24.2515 19.682 24.2933C19.8068 24.3351 19.9387 24.3518 20.07 24.3426L23 24.1226V30.0526C23 31.6439 22.3679 33.1701 21.2426 34.2953C20.1174 35.4205 18.5913 36.0526 17 36.0526C15.4087 36.0526 13.8826 35.4205 12.7574 34.2953C11.6321 33.1701 11 31.6439 11 30.0526V24.9826L15.07 24.6926C15.2014 24.6838 15.3298 24.649 15.4478 24.5904C15.5657 24.5317 15.671 24.4503 15.7574 24.3509C15.8438 24.2515 15.9097 24.136 15.9514 24.011C15.993 23.886 16.0095 23.754 16 23.6226C15.9795 23.359 15.8555 23.1141 15.655 22.9417C15.4544 22.7693 15.1938 22.6833 14.93 22.7026L9.93 23.0526C9.6771 23.0704 9.44038 23.1835 9.26772 23.3692C9.09507 23.5548 8.99938 23.7991 9 24.0526V30.0526C9.00075 31.251 9.27072 32.4339 9.78998 33.514C10.3092 34.5941 11.0645 35.5436 12 36.2926V39.0526H9C7.14348 39.0526 5.36301 39.7901 4.05025 41.1029C2.7375 42.4156 2 44.1961 2 46.0526V50.0526C2 50.3179 2.10536 50.5722 2.29289 50.7598C2.48043 50.9473 2.73478 51.0526 3 51.0526C3.26522 51.0526 3.51957 50.9473 3.70711 50.7598C3.89464 50.5722 4 50.3179 4 50.0526V46.0526C4.00634 44.8454 4.44926 43.6812 5.24697 42.7751C6.04468 41.8689 7.14331 41.282 8.34 41.1226L11.88 50.4126C11.9525 50.6006 12.0801 50.7622 12.246 50.8764C12.412 50.9906 12.6086 51.052 12.81 51.0526C12.9335 51.0537 13.0559 51.0299 13.17 50.9826C13.4162 50.8866 13.6143 50.697 13.7211 50.4552C13.8279 50.2135 13.8347 49.9393 13.74 49.6926L12.74 47.0126C12.8242 47.0386 12.9118 47.0521 13 47.0526C13.1565 47.0517 13.3107 47.014 13.45 46.9426L17 45.1726L20.55 46.9426C20.6893 47.014 20.8435 47.0517 21 47.0526C21.0928 47.0672 21.1872 47.0672 21.28 47.0526L20.28 49.7326C20.1853 49.9793 20.1921 50.2535 20.2989 50.4952C20.4057 50.737 20.6038 50.9266 20.85 51.0226C20.9641 51.0699 21.0865 51.0937 21.21 51.0926C21.4131 51.0941 21.6119 51.0336 21.7798 50.9193C21.9478 50.8049 22.0769 50.6422 22.15 50.4526L25.68 41.1626C26.8663 41.3254 27.9548 41.9085 28.7476 42.8059C29.5404 43.7032 29.9848 44.8553 30 46.0526V50.0526C30 50.3179 30.1054 50.5722 30.2929 50.7598C30.4804 50.9473 30.7348 51.0526 31 51.0526C31.2652 51.0526 31.5196 50.9473 31.7071 50.7598C31.8946 50.5722 32 50.3179 32 50.0526C32 50.3179 32.1054 50.5722 32.2929 50.7598C32.4804 50.9473 32.7348 51.0526 33 51.0526C33.2652 51.0526 33.5196 50.9473 33.7071 50.7598C33.8946 50.5722 34 50.3179 34 50.0526V46.0526C34 44.7266 34.5268 43.4548 35.4645 42.5171C36.4021 41.5794 37.6739 41.0526 39 41.0526H43C43.2652 41.0526 43.5196 40.9473 43.7071 40.7598C43.8946 40.5722 44 40.3179 44 40.0526V37.4626C45.9226 38.2495 48.0774 38.2495 50 37.4626V40.0526C50 40.3179 50.1054 40.5722 50.2929 40.7598C50.4804 40.9473 50.7348 41.0526 51 41.0526H55C56.3261 41.0526 57.5979 41.5794 58.5355 42.5171C59.4732 43.4548 60 44.7266 60 46.0526V50.0526C60 50.3179 60.1054 50.5722 60.2929 50.7598C60.4804 50.9473 60.7348 51.0526 61 51.0526C61.2652 51.0526 61.5196 50.9473 61.7071 50.7598C61.8946 50.5722 62 50.3179 62 50.0526V46.0526C62 44.1961 61.2625 42.4156 59.9497 41.1029C58.637 39.7901 56.8565 39.0526 55 39.0526ZM14 44.4326V43.6726L14.76 44.0526L14 44.4326ZM20 44.4326L19.24 44.0526L20 43.6726V44.4326ZM22 45.1226V42.0526C21.9995 41.8822 21.9554 41.7147 21.8719 41.566C21.7885 41.4174 21.6684 41.2926 21.5231 41.2034C21.3778 41.1142 21.2122 41.0637 21.0419 41.0565C20.8715 41.0494 20.7022 41.0859 20.55 41.1626L17 42.9326L13.45 41.1626C13.2978 41.0859 13.1285 41.0494 12.9581 41.0565C12.7878 41.0637 12.6222 41.1142 12.4769 41.2034C12.3316 41.2926 12.2115 41.4174 12.1281 41.566C12.0446 41.7147 12.0005 41.8822 12 42.0526V45.1226L10.45 41.0526H13C13.2652 41.0526 13.5196 40.9473 13.7071 40.7598C13.8946 40.5722 14 40.3179 14 40.0526V37.4626C15.9226 38.2495 18.0774 38.2495 20 37.4626V39.0526H19C18.7348 39.0526 18.4804 39.158 18.2929 39.3455C18.1054 39.5331 18 39.7874 18 40.0526C18 40.3179 18.1054 40.5722 18.2929 40.7598C18.4804 40.9473 18.7348 41.0526 19 41.0526H23.55L22 45.1226ZM41 30.0526V25.9926C42.475 26.1618 43.9689 25.9605 45.3465 25.407C46.7241 24.8535 47.942 23.9653 48.89 22.8226C49.3394 23.5723 49.9348 24.2241 50.6408 24.7394C51.3468 25.2548 52.149 25.6231 53 25.8226V30.0526C53 31.6439 52.3679 33.1701 51.2426 34.2953C50.1174 35.4205 48.5913 36.0526 47 36.0526C45.4087 36.0526 43.8826 35.4205 42.7574 34.2953C41.6321 33.1701 41 31.6439 41 30.0526Z" fill="#87ADAD"/>
  <path d="M34 26.0526V34.0526C34 34.3179 34.1054 34.5722 34.2929 34.7598C34.4804 34.9473 34.7348 35.0526 35 35.0526C35.2652 35.0526 35.5196 34.9473 35.7071 34.7598C35.8946 34.5722 36 34.3179 36 34.0526V26.0526C36 23.1353 37.1589 20.3374 39.2218 18.2745C41.2847 16.2116 44.0826 15.0526 47 15.0526C49.9174 15.0526 52.7153 16.2116 54.7782 18.2745C56.8411 20.3374 58 23.1353 58 26.0526V34.0526C58 34.3179 58.1054 34.5722 58.2929 34.7598C58.4804 34.9473 58.7348 35.0526 59 35.0526C59.2652 35.0526 59.5196 34.9473 59.7071 34.7598C59.8946 34.5722 60 34.3179 60 34.0526V26.0526C60 22.6048 58.6304 19.2982 56.1924 16.8603C53.7544 14.4223 50.4478 13.0526 47 13.0526C43.5522 13.0526 40.2456 14.4223 37.8076 16.8603C35.3696 19.2982 34 22.6048 34 26.0526Z" fill="#87ADAD"/>
  <path d="M44 30.0526C44.5523 30.0526 45 29.6049 45 29.0526C45 28.5004 44.5523 28.0526 44 28.0526C43.4477 28.0526 43 28.5004 43 29.0526C43 29.6049 43.4477 30.0526 44 30.0526Z" fill="#87ADAD"/>
  <path d="M50 30.0526C50.5523 30.0526 51 29.6049 51 29.0526C51 28.5004 50.5523 28.0526 50 28.0526C49.4477 28.0526 49 28.5004 49 29.0526C49 29.6049 49.4477 30.0526 50 30.0526Z" fill="#87ADAD"/>
  <path d="M14 29.0526C14.5523 29.0526 15 28.6049 15 28.0526C15 27.5004 14.5523 27.0526 14 27.0526C13.4477 27.0526 13 27.5004 13 28.0526C13 28.6049 13.4477 29.0526 14 29.0526Z" fill="#87ADAD"/>
  <path d="M20 29.0526C20.5523 29.0526 21 28.6049 21 28.0526C21 27.5004 20.5523 27.0526 20 27.0526C19.4477 27.0526 19 27.5004 19 28.0526C19 28.6049 19.4477 29.0526 20 29.0526Z" fill="#87ADAD"/>
</svg>