<svg width="243" height="274" viewBox="0 0 243 274" fill="none" xmlns="http://www.w3.org/2000/svg">
<path d="M230.333 59.311L134.37 3.91513C130.477 1.67133 126.063 0.490234 121.57 0.490234C117.077 0.490234 112.663 1.67133 108.77 3.91513L12.8074 59.311C8.9145 61.5658 5.68233 64.8038 3.4346 68.7008C1.18686 72.5978 0.00245988 77.0169 0 81.5157V192.323C0.00630738 196.817 1.19262 201.23 3.44024 205.121C5.68786 209.013 8.91797 212.246 12.8074 214.497L108.77 269.908C112.484 272.032 116.668 273.199 120.945 273.303V270.448C117.151 270.358 113.438 269.324 110.144 267.439L14.227 211.997C10.7715 209.996 7.90208 207.123 5.90622 203.665C3.91035 200.207 2.85805 196.285 2.85466 192.292V81.5157C2.86116 77.5235 3.91478 73.6028 5.91033 70.1451C7.90589 66.6874 10.7735 63.8137 14.227 61.8108L110.19 6.41488C113.652 4.42328 117.576 3.37514 121.57 3.37514C125.564 3.37514 129.488 4.42328 132.95 6.41488L228.913 61.8108C231.799 63.4853 234.282 65.7721 236.188 68.5101C238.094 71.2481 239.377 74.3707 239.946 77.658H242.832C242.251 73.8603 240.828 70.2409 238.665 67.0658C236.502 63.8908 233.655 61.2409 230.333 59.311Z" fill="#585661"/>
</svg>
