<svg width="162" height="212" viewBox="0 0 162 212" fill="none" xmlns="http://www.w3.org/2000/svg">
<g filter="url(#filter0_d_329_703)">
<path d="M137.506 103.838V103.761C139.343 101.924 141.302 100.397 143.216 98.8075C145.185 97.1869 147.031 95.423 148.74 93.5302C150.429 91.9044 151.438 89.6986 151.564 87.3579C150.839 86.6481 149.882 88.6078 149.079 88.901C147.746 89.8328 146.681 91.0995 145.993 92.5735C144.759 95.135 142.784 96.3385 141.272 98.3908C139.451 100.906 139.08 99.6098 140.562 97.3416C141.994 94.8128 142.921 92.0301 143.293 89.1479C143.351 88.5377 143.529 87.945 143.818 87.4042C144.456 85.9497 144.716 84.3572 144.574 82.775C144.342 82.775 144.203 83.1145 144.064 83.4077C142.393 86.4208 140.979 89.5695 139.836 92.8204C139.024 94.6977 138.075 96.513 136.997 98.252C135.917 99.9648 134.806 101.616 133.757 103.329C133.494 104.532 127.986 110.01 129.699 106.415C130.827 103.467 131.208 100.287 130.81 97.1564C130.64 94.0703 130.285 91.2619 131.365 88.8239C131.643 88.2992 131.257 88.1603 131.056 88.6541C130.232 90.5783 129.711 92.6189 129.513 94.7029C129.174 97.0947 128.834 99.5481 128.696 101.137C128.495 102.256 128.185 103.351 127.77 104.409C127.314 105.426 126.799 106.415 126.227 107.371C125.085 109.269 123.85 111.044 122.6 112.741C121.19 114.362 119.412 115.621 117.416 116.414C117.277 116.306 117.416 116.121 117.416 115.966C118.187 114.67 118.388 113.127 119.19 111.815C120.482 109.357 121.274 106.666 121.52 103.9C121.999 101.168 122.338 98.4834 124.005 96.3231C124.19 96.1225 124.267 95.8756 124.128 95.7059C122.045 97.1101 121.042 99.6562 120.301 102.434C119.655 105.176 118.676 107.829 117.385 110.334C115.404 113.791 113.127 117.069 110.58 120.133C109.571 121.801 108.018 123.07 106.182 123.728C107.813 120.974 108.893 117.929 109.361 114.763C109.735 111.603 110.47 108.496 111.552 105.504C111.706 105.041 112.679 102.634 111.691 103.637C110.487 106.723 108.497 109.347 108.049 112.633C107.553 114.61 106.768 116.503 105.719 118.25C104.713 120.044 103.831 121.905 103.081 123.82C102.124 126.907 99.7477 128.172 97.4332 129.592C97.14 129.777 96.9857 129.592 97.1863 129.221C97.9936 127.548 98.6544 125.808 99.1614 124.021C99.7015 122.247 100.303 120.534 100.951 118.79C101.106 118.373 101.461 117.787 101.059 117.587C100.658 117.386 100.473 118.049 100.272 118.42C98.4979 122.277 96.5228 126.135 94.3933 129.808C93.8632 131.039 93.1275 132.171 92.2176 133.156C91.3117 134.114 90.32 134.987 89.2549 135.764C88.2057 136.551 87.1255 137.307 86.0762 138.032C85.0068 138.726 83.9765 139.478 82.9901 140.285C87.3261 133.094 93.2669 125.857 97.5103 118.188C100.735 113.081 103.852 107.819 106.599 102.341C108.158 98.0692 111.012 94.3904 114.762 91.8174C115.4 91.1847 116.185 90.7185 117.045 90.4595C120.996 89.4102 125.193 88.9165 129.081 87.0802C129.081 86.6019 127.538 86.5864 127.153 86.6944C126.024 87.0118 124.843 87.0958 123.681 86.9413C121.875 86.6173 119.946 87.9289 118.234 87.1728C117.616 86.8487 117.586 86.6482 118.234 86.0309C119.931 84.9354 121.906 81.8184 123.681 82.5899C126.582 85.1205 130.408 83.7317 133.494 85.568C134.281 86 137.599 87.1111 138.124 86.1081C137.105 84.3027 134.698 85.1359 133.294 83.8861C131.149 82.7905 129.39 80.7999 127.338 79.4883C127.137 79.3649 127.014 79.1489 127.338 78.8403C130.578 75.0906 133.51 79.1951 136.858 78.3773C138.833 78.1921 140.824 77.3435 142.768 77.8373C143.092 77.9144 143.725 78.0533 143.802 77.328C143.802 76.109 140.577 76.9114 139.883 75.9548C137.892 73.7327 135.531 75.7233 133.479 74.6123C133.418 74.577 133.368 74.5264 133.333 74.4655C133.297 74.4045 133.279 74.3354 133.279 74.2651C133.279 74.1948 133.297 74.1257 133.333 74.0647C133.368 74.0038 133.418 73.9531 133.479 73.9179C136.21 70.662 138.71 71.7731 141.781 71.9119C142.768 72.2514 143.447 70.3689 144.419 70.7855C145.87 71.1095 147.397 70.4614 148.833 71.0324C148.956 71.0324 149.095 71.0324 149.157 70.7855C149.157 70.014 148.292 70.0139 147.907 69.7979C145.434 69.1109 143.036 68.1805 140.747 67.0204C140.747 66.7272 140.901 66.5729 141.04 66.4032C141.935 65.4311 142.83 64.0269 143.787 62.9313C144.743 61.8357 145.7 61.0642 146.873 61.3882C150.268 62.669 153.045 58.3021 156.316 58.3021C156.559 58.3885 156.822 58.4039 157.073 58.3465C157.325 58.2891 157.555 58.1613 157.736 57.9781C159.032 56.2035 155.159 56.6819 154.65 56.0801C151.764 54.0433 145.098 60.7093 149.928 53.1792C151.07 50.8183 152.536 48.55 153.786 46.1582C155.141 43.586 155.91 40.7457 156.039 37.8411C155.853 33.5668 153.184 43.4887 152.289 44.0134C151.95 44.8158 151.487 44.5226 151.579 43.5042C151.413 40.4149 151.516 37.3171 151.888 34.2458C151.888 33.9372 152.058 33.536 151.749 33.3817C150.498 35.8757 149.858 38.6312 149.882 41.421C149.929 44.334 149.534 47.2372 148.709 50.0313C145.314 58.9502 147.644 48.9974 146.533 45.9422C145.976 43.9287 145.923 41.8088 146.379 39.7699C146.734 38.9213 146.07 38.6281 145.932 39.415C145.186 42.4007 144.849 45.4737 144.929 48.55C144.929 50.093 144.929 51.6361 144.759 53.2563C144.637 54.8246 144.353 56.376 143.91 57.8855C143.568 59.4643 142.979 60.9795 142.167 62.3758C141.448 63.5783 140.46 64.5977 139.281 65.3539C140.315 62.5114 140.883 59.5204 140.963 56.4967C141.225 53.4106 141.086 50.3245 141.395 47.3155C141.395 47.0686 141.395 46.7291 141.148 46.7446C140.901 46.76 140.654 47.3464 140.608 47.7321C140.407 50.6794 139.389 53.3952 139.466 56.4196C139.254 57.8082 138.924 59.1762 138.479 60.5087C138.164 62.583 137.378 64.5574 136.179 66.2797C135.76 66.8709 135.441 67.528 135.238 68.224C135.038 69.0881 132.661 73.9796 132.924 70.8472C132.831 69.7091 132.877 68.5638 133.062 67.437C133.581 64.6496 133.607 61.7929 133.14 58.9965C133.14 58.6879 133.14 58.3175 132.8 58.333C132.355 59.2154 132.158 60.202 132.229 61.1876C132.197 62.2977 132.104 63.4052 131.951 64.5052C131.874 67.4755 131.023 70.3741 129.483 72.9149C128.198 75.1131 126.3 76.8883 124.02 78.0224C123.387 78.3619 123.665 77.3898 123.835 76.9886C125.085 74.566 125.378 71.6496 126.396 69.0727C126.615 68.4331 126.704 67.7565 126.659 67.0821C126.659 66.6964 126.304 66.4649 126.196 67.005C125.594 68.548 124.946 70.2608 124.267 71.881C123.588 73.5013 122.925 75.1215 122.246 76.6491C121.196 77.9607 120.348 79.4884 119.406 80.8771C118.511 81.8801 117.555 82.7596 116.613 83.6546C115.603 84.5482 114.674 85.5293 113.836 86.5864C113.759 86.6944 113.558 86.8333 113.496 86.787C113.435 86.7407 113.496 86.4012 113.496 86.2006C116.413 78.1767 120.255 70.6466 123.141 62.5455C124.39 59.0582 127.461 59.1508 129.575 57.0985C131.002 56.0562 132.321 54.8723 133.51 53.5649C134.735 52.17 135.874 50.7013 136.92 49.1672C137.753 48.1179 137.491 46.8372 136.565 48.3648C135.096 50.3527 133.211 51.9957 131.041 53.1792C128.948 54.117 127.045 55.4296 125.424 57.0522C125.224 57.1757 125.023 57.0522 125.131 56.7745C125.394 55.6068 125.901 54.508 126.619 53.5505C127.337 52.593 128.25 51.7986 129.297 51.2195C131.499 50.0277 133.342 48.2698 134.636 46.1273C136.945 42.7106 139.525 39.4855 142.352 36.4832C142.475 36.3289 142.691 36.0666 142.568 35.8506C142.244 35.3413 141.904 36.2055 141.596 36.3906C138.324 39.8008 135.192 43.1338 131.921 46.4514C131.442 47.1149 127.045 49.5375 127.893 47.2692C128.819 44.3066 129.066 42.1617 129.776 40.3872C130.57 38.4215 131.935 36.7392 133.695 35.5574C134.467 35.3568 138.047 33.0731 137.784 31.9621C137.29 31.1134 134.698 34.3847 133.402 33.86C132.306 34.1841 132.029 33.0731 133.109 32.6102C134.791 31.6843 135.655 29.6938 136.426 27.5489C136.91 25.4282 137.83 23.4313 139.127 21.6853C141.673 18.4603 141.349 16.9789 138.617 20.5588C137.031 22.1194 135.679 23.9023 134.605 25.8516C134.343 26.5614 132.507 28.4748 132.954 26.3762C133.371 23.9073 132.954 20.8212 134.127 18.8615C135.935 16.2066 137.305 13.2787 138.185 10.1895C138.633 9.23279 137.568 8.15265 137.244 9.17107C135.254 11.856 134.791 12.0103 134.59 10.6061C134.335 7.89606 133.749 5.22738 132.846 2.65935C132.43 1.11629 131.921 2.65932 131.843 3.30741C131.243 5.38585 130.997 7.55091 131.118 9.7111C131.118 11.7325 130.856 12.967 129.884 11.3931C129.56 11.0227 129.205 10.4672 128.804 10.8067C128.125 11.5474 128.927 13.0904 129.158 14.1088C129.879 16.1289 130.735 18.0982 131.72 20.0033C131.991 20.4128 132.111 20.9038 132.059 21.3921C131.782 22.0865 131.134 29.2463 130.516 27.5643C129.899 25.8824 129.498 24.2159 128.973 22.534L128.248 20.0033L127.43 17.5036C127.014 16.3617 126.072 15.6673 125.98 14.2786C125.887 13.2293 124.869 13.6151 125.177 14.5409C125.245 16.498 125.456 18.4476 125.81 20.3737C126.075 22.3146 126.503 24.2298 127.091 26.0984C127.353 26.8391 127.677 27.6415 128.001 28.413C128.325 29.1846 128.603 30.0332 128.85 30.8511C129.419 32.4512 129.467 34.1903 128.989 35.8197C128.634 37.2393 124.961 30.6042 125.193 29.4469C125.085 28.8605 124.252 26.6539 123.758 27.0242C123.264 27.3946 123.758 27.9809 123.912 28.4284C124.518 30.1521 124.932 31.9374 125.147 33.752C125.327 35.4814 126.063 37.1057 127.245 38.3812C128.603 39.7237 127.075 42.3931 126.828 44.1059C126.643 44.754 126.628 45.8496 126.119 45.8959C125.609 45.9422 126.026 44.7077 125.81 44.0905C125.338 42.9391 125.022 41.7301 124.869 40.4952C124.815 39.0688 124.366 37.6853 123.573 36.4987C122.767 35.3812 122.147 34.1411 121.736 32.8262C121.286 30.7218 120.42 28.7284 119.19 26.9626C117.993 25.1871 117.285 23.1273 117.138 20.9909C117.138 20.7903 116.891 20.2657 116.814 20.2657C116.475 20.2657 116.706 20.6668 116.691 20.8983C116.401 22.4939 116.475 24.1341 116.907 25.6972C117.308 26.9317 117.817 28.1353 118.342 29.3388L119.885 32.9805C120.363 34.2149 120.811 35.4494 121.181 36.7301C121.518 38.0236 121.729 39.3464 121.814 40.6803C121.87 41.9761 122.024 43.2657 122.276 44.538C122.493 45.8195 122.632 47.1129 122.693 48.4111C122.878 50.0622 122.693 51.9601 124.036 53.0403C124.545 53.4569 123.557 55.7561 123.202 56.1264C122.712 55.1671 122.428 54.1159 122.369 53.0403C122.358 51.6265 121.863 50.2593 120.965 49.1672C119.514 47.0762 118.39 44.7764 117.632 42.3469C117.478 41.9303 117.632 41.0507 117.045 41.2359C116.459 41.421 116.829 42.1308 116.829 42.6246C118.45 47.9327 120.487 53.2254 121.721 58.8731C121.836 60.8732 121.393 62.8661 120.44 64.6287C119.561 66.6964 118.511 68.7487 117.94 70.3689C117.369 71.9891 116.984 70.5077 117.107 69.6436C117.647 67.6531 117.431 65.57 117.802 63.4714C117.802 63.1473 118.249 61.0488 118.357 59.3668C118.465 57.6849 118.434 56.4505 117.755 57.8238C117.339 59.6137 116.829 61.3883 116.212 63.1319C116.12 64.567 115.564 64.2738 115.41 63.1319C114.534 60.3886 114.25 57.4908 114.577 54.6296C114.816 52.7599 114.816 50.8672 114.577 48.9975C114.391 47.1304 114.237 45.2941 114.021 43.427C114.021 41.6988 113.034 41.7451 113.481 43.427C113.612 45.2403 113.612 47.0607 113.481 48.874C113.38 50.6789 113.18 52.4768 112.879 54.2593C112.586 56.4813 110.673 50.8183 110.595 50.0159C109.531 42.4703 108.79 34.9248 110.595 27.5489C110.873 27.086 110.503 24.3085 110.009 25.6509C110.025 26.8326 109.76 28.0012 109.238 29.0611C108.589 30.8819 108.049 32.8262 107.417 34.6316C106.892 37.5942 107.664 40.8038 107.154 43.8899C107.401 45.6182 106.676 45.2478 106.429 43.8899C105.608 40.9398 105.04 37.9251 104.732 34.8785C104.562 33.3354 104.47 31.7923 104.423 30.3264C104.377 28.8605 104.269 27.2403 104.269 25.6972C104.31 25.1126 104.383 24.5306 104.485 23.9536C104.485 23.4752 105.01 22.7809 104.485 22.5648C103.96 22.3488 104.007 23.2438 103.821 23.7067C103.316 25.7698 102.975 27.8698 102.803 29.9869C102.556 32.1232 102.525 34.279 102.71 36.4215C102.71 36.9462 103.096 37.8411 102.71 37.9646C100.751 37.3474 100.596 32.7953 100.504 30.7276C100.504 29.1846 99.7323 27.6415 99.9021 25.9287C98.9299 24.5862 98.7602 31.5454 98.9916 32.2861C98.9916 32.4867 99.1151 32.749 98.9916 32.8416C98.4361 32.749 97.8035 30.5733 97.14 28.2124C96.4765 25.8515 96.0753 23.4752 95.9827 22.7654C95.8901 22.0556 95.5043 21.0218 94.7482 21.2224C93.9921 21.423 94.3933 22.2099 94.4088 22.7654C94.3007 24.1696 95.9518 26.0984 95.4889 27.1477C95.1186 27.3175 94.9951 26.6694 94.8717 26.3145C93.8967 24.1347 92.6914 22.0655 91.2763 20.1422C91.0603 19.5713 90.3814 19.7256 90.474 20.3583C90.4467 22.2368 91.162 24.0501 92.4645 25.4041C93.6081 26.764 94.6402 28.2141 95.5506 29.74C95.6432 29.8481 95.7358 30.0178 95.5506 30.1258C95.3655 30.2338 95.2112 30.1258 95.1031 30.0024C93.5601 28.2124 91.2609 28.6599 89.5173 27.4563C87.5113 27.0551 91.7393 30.5424 92.3411 30.5424C94.8871 31.7769 97.8344 32.7799 99.1768 35.8197C99.4854 36.4061 99.2694 36.5449 98.8065 36.5295C88.0051 34.4155 94.918 39.199 100.535 38.8287C100.781 38.8059 101.029 38.855 101.248 38.97C101.467 39.085 101.648 39.261 101.769 39.4768C101.97 40.0014 103.899 41.7914 102.726 41.8994C101.333 41.992 99.9365 41.992 98.5442 41.8994C98.0195 41.6833 95.0723 41.6679 96.3376 42.7943C99.0842 43.2727 101.831 44.3374 104.593 44.5534C105.982 44.9855 106.738 47.5624 107.787 48.8123V48.7351C103.243 48.9423 98.6942 48.4478 94.3008 47.2692C94.2587 47.2439 94.2112 47.229 94.1622 47.2257C94.1133 47.2224 94.0642 47.2308 94.0191 47.2503C93.9741 47.2698 93.9343 47.2997 93.9031 47.3377C93.872 47.3756 93.8503 47.4204 93.8399 47.4684C93.8295 47.5164 93.8308 47.5662 93.8435 47.6136C93.8562 47.661 93.88 47.7046 93.913 47.741C93.946 47.7773 93.9872 47.8053 94.0332 47.8226C94.0791 47.8398 94.1285 47.8459 94.1773 47.8402C99.0071 49.5067 103.775 52.5774 108.96 51.5435C110.503 51.5435 110.688 54.2284 111.46 55.5092C111.737 56.2344 111.614 56.3887 110.981 56.2498C108.821 55.3703 106.584 56.0184 104.362 55.9566C104.084 55.9566 103.621 55.7406 103.559 56.1727C103.497 56.6048 103.991 56.5276 104.253 56.6356C106.725 56.8852 109.119 57.6361 111.29 58.8422C113.08 59.3206 113.435 61.6043 113.944 63.5485C114.453 65.4928 108.219 63.9651 107.34 63.78C102.448 62.3758 108.559 65.4773 109.809 65.7551C111.614 65.9865 112.571 68.5326 114.438 68.3011C115.271 68.2085 115.472 68.8104 115.549 69.6745C115.549 71.9428 115.919 74.5197 115.039 76.68C113.373 80.7537 112.432 83.2997 111.768 84.673C111.105 86.0464 110.935 86.2161 110.811 85.5989C110.688 84.9817 110.688 83.4077 110.302 81.2783C109.808 78.6087 108.968 76.015 107.803 73.563C107.617 73.0692 107.232 73.3778 107.355 73.8099C107.849 77.9453 108.543 82.0961 108.79 86.355C108.758 89.7397 108.238 93.1021 107.247 96.3386C107.114 94.4853 106.82 92.6472 106.367 90.8453C106.367 90.6447 106.367 90.3824 106.074 90.4287C105.781 90.475 105.797 90.7064 105.812 90.9379C105.779 93.2724 105.594 95.6022 105.256 97.9125C105.118 99.854 104.537 101.738 103.559 103.421C102.602 105.119 101.43 106.723 100.581 108.452C99.4819 110.538 98.2608 112.558 96.924 114.5C95.6895 116.476 94.2853 118.358 93.0046 120.318C92.588 121.074 92.1559 120.719 92.3565 120.009C92.5683 118.474 92.6971 116.929 92.7422 115.38C92.7332 113.792 93.1892 112.237 94.0539 110.905C95.2986 109.285 96.3838 107.549 97.2943 105.72C98.2766 103.904 99.0677 101.991 99.6552 100.011C99.8558 99.5173 100.427 98.792 99.9638 98.468C99.5009 98.144 99.3157 99.1469 99.0225 99.579C98.5442 100.32 98.1275 101.122 97.6801 101.878L96.2913 104.177C95.4359 105.71 94.3998 107.135 93.2052 108.421C92.8351 107.074 92.7663 105.663 93.0037 104.286C93.2411 102.91 93.7787 101.603 94.5785 100.459C95.8284 98.2674 97.6646 96.2151 98.8065 93.2833C99.0379 92.5735 100.257 90.5058 101.291 88.4689C102.325 86.4321 102.973 84.3953 102.356 83.9478C101.985 83.8243 101.769 84.2255 101.615 84.565C101.166 85.5725 100.579 86.5125 99.8712 87.3579C99.1614 88.1912 98.3281 88.901 97.7263 89.7806C96.6454 91.0452 95.7989 92.4927 95.2266 94.0548C94.6394 95.5577 93.8107 96.9546 92.7731 98.1903C92.7731 92.3729 95.5661 85.8457 99.0225 81.0777C99.7632 80.0593 101.136 78.4082 102.294 76.68C103.451 74.9518 104.392 73.1464 103.991 71.8965C102.448 72.5909 101.846 75.6461 100.627 77.0966C99.9865 78.0796 99.2471 78.9947 98.4207 79.8278C97.572 80.661 96.6925 81.3709 95.8901 82.2813C94.1622 83.8799 92.9892 85.9881 92.5417 88.2992C92.4645 89.1325 91.9553 89.0245 92.0016 88.2992C91.9632 87.1695 92.0252 86.0387 92.1868 84.9199C92.3028 83.7715 92.5197 82.6356 92.8348 81.5252C93.1524 80.4128 93.5494 79.3247 94.023 78.2693C94.4467 77.1977 94.963 76.1651 95.566 75.1832C96.0271 74.4396 96.3804 73.6343 96.6153 72.7914C97.0101 70.8153 97.6529 68.897 98.5287 67.0821C98.6895 66.6998 98.7834 66.2927 98.8065 65.8786C99.0225 63.7028 99.578 61.5888 99.9175 59.4285C100.01 58.873 100.566 58.0398 99.9175 57.8855C99.2694 57.7312 99.2694 58.7342 99.0688 59.2897C98.4305 61.4026 97.3818 63.3689 95.9827 65.0761C94.9472 67.1073 94.2192 69.2811 93.8224 71.5262C93.7485 72.5376 93.5195 73.5316 93.1435 74.4734C92.3927 76.2372 91.7687 78.0524 91.2763 79.905C90.8513 77.9129 90.6699 75.8766 90.7363 73.8408C90.7363 72.8223 90.8906 71.8039 91.014 70.7546C91.1375 69.7054 91.2609 68.7024 91.4615 67.6685C91.6621 66.6347 91.8627 65.6162 92.1096 64.5824C92.3565 63.5485 92.5262 62.5147 92.7268 61.4963C92.9274 60.4779 93.1743 59.4286 93.4058 58.4102C93.6372 57.3917 93.7452 56.3733 93.8995 55.324C93.9921 54.6142 94.2236 52.4539 93.4521 52.315C92.9274 52.315 93.0817 53.0094 93.0817 53.4106C93.0817 55.6943 92.0325 57.7003 91.4615 59.8452C90.8554 61.5079 90.3807 63.2157 90.0419 64.9527C90.0419 66.8815 88.9772 66.4186 89.4401 64.6132C89.9334 62.1562 89.9648 59.6288 89.5327 57.1602C89.0455 54.7207 88.7872 52.2411 88.7612 49.7536C87.4959 48.0408 87.3107 56.8979 87.2181 57.8392C87.1431 59.8607 87.2932 61.8842 87.6656 63.8726C87.8353 64.891 87.1564 64.1349 86.1225 63.1165C85.0887 62.098 83.7771 60.8327 82.8821 60.7401C82.4771 60.6155 82.1084 60.3946 81.8074 60.0963C81.5064 59.798 81.2822 59.4312 81.1539 59.0274C80.9378 58.1324 80.12 58.6107 80.3052 59.3668C80.4286 62.0363 83.2524 63.0856 84.456 65.1533C85.6596 67.221 87.7736 68.8258 89.0852 70.9244C89.3265 72.1645 89.4403 73.4261 89.4247 74.6894C89.6561 77.0503 89.8722 79.3186 90.1499 81.7258C90.2734 83.0219 89.4247 81.9726 89.1932 81.4634C87.5373 78.8293 85.3448 76.5737 82.7587 74.8437C81.0922 74.1494 80.9687 72.2051 80.6138 72.5445C80.4132 73.8253 81.5859 76.0165 82.9284 78.115C84.0297 79.9205 85.3979 81.5489 86.9866 82.9448C88.3032 83.9953 89.3559 85.3392 90.0605 86.869C90.7652 88.3989 91.1022 90.0723 91.0449 91.7557C91.1375 92.2032 90.8443 92.4501 90.5511 92.1569C87.8199 90.4132 85.567 87.8517 82.8358 86.0618C82.6506 85.8766 82.3883 85.9692 82.45 86.2932C83.1598 90.5984 85.5362 92.126 87.9125 93.7771C89.168 94.5852 90.2021 95.6937 90.9214 97.0021C91.7505 98.6676 91.9267 100.583 91.4152 102.372C89.5944 100.459 86.246 101.693 84.9961 98.9464C84.9836 98.9033 84.9613 98.8637 84.9311 98.8306C84.9009 98.7974 84.8635 98.7717 84.8218 98.7553C84.78 98.7389 84.7351 98.7323 84.6904 98.736C84.6457 98.7397 84.6025 98.7536 84.564 98.7766C83.021 100.767 89.4555 104.455 90.8289 105.18C91.6621 105.659 91.8164 106.723 91.7238 107.834C91.5463 108.937 91.4534 110.051 91.4461 111.167C91.4461 111.63 91.3226 111.923 90.906 111.553C88.6076 109.72 85.9926 108.324 83.1907 107.433C79.9811 106.6 80.1046 102.958 79.6571 104.671C80.3823 108.992 85.351 109.918 88.0513 112.494C89.7796 113.76 89.9339 115.905 90.6128 117.772C90.6128 118.373 90.4585 120.148 89.5481 119.654C88.6377 119.16 87.1564 119.438 86.0917 118.852C85.5361 118.497 84.9343 119.438 85.4127 119.901C86.0299 121.074 87.7427 120.364 88.252 121.614C89.363 123.666 88.5297 126.243 87.0947 128.558C84.7492 131.798 82.2494 134.853 80.0737 138.202C79.0862 139.467 79.4719 137.492 79.6108 136.937C80.3823 134.19 79.8731 131.582 80.012 128.928C80.1046 128.558 80.3978 127.94 80.012 127.91C79.009 128.805 79.1787 131.706 78.8393 133.063C77.9289 135.717 77.3888 138.541 76.5093 141.273C76.0734 142.639 75.5582 143.978 74.9662 145.284C74.6422 145.948 74.3027 146.596 73.9324 147.229C73.5264 147.865 73.0779 148.474 72.5899 149.05C72.451 149.235 72.3121 149.605 72.0344 149.466C71.7566 149.327 71.8955 149.142 71.9109 148.957C71.9109 148.016 71.6795 145.655 70.6148 145.871C70.5295 145.93 70.4627 146.012 70.4218 146.108C70.3809 146.203 70.3675 146.308 70.3833 146.411C70.6611 148.864 69.3803 151.549 68.3619 154.018C67.4499 156.175 66.2677 158.208 64.8437 160.067C63.3877 161.884 61.7992 163.592 60.0911 165.174C61.0478 163.045 62.0199 160.839 63.0075 158.647C63.9377 156.483 64.6962 154.249 65.2758 151.966C66.099 149.025 67.442 146.255 69.2414 143.788C71.2628 141.473 71.664 138.603 73.0065 136.072C74.491 133.412 75.4399 130.487 75.7994 127.462C75.7994 125.117 74.7347 127.663 73.3768 130.764C72.667 132.307 71.8338 134.005 71.2628 135.393C70.9411 136.286 70.4123 137.09 69.7198 137.739C68.9826 138.404 68.3665 139.193 67.899 140.069C67.6984 140.655 67.2355 140.47 67.2972 139.961C67.0812 134.977 67.6367 132.832 69.01 131.011C69.8415 130.052 70.7668 129.178 71.772 128.403C73.1172 127.232 74.3997 125.991 75.6143 124.685C76.4475 123.697 77.3888 122.833 78.2221 121.907C79.1229 121.014 79.8593 119.969 80.3978 118.821C80.5212 118.605 80.6292 118.296 80.3978 118.142C80.1663 117.988 79.8731 118.142 79.688 118.451C78.0215 120.426 75.568 120.812 73.9324 122.802C72.2967 124.453 70.337 125.549 68.8094 127.292C68.5316 127.57 68.3002 128.234 67.899 128.033C67.6212 127.123 68.3002 125.348 69.0717 123.512C69.8432 121.676 70.9697 119.932 71.4634 118.975C72.1831 117.622 72.807 116.219 73.3306 114.778C73.8331 113.333 74.5011 111.95 75.3211 110.658C75.9229 109.948 77.1419 106.446 75.3211 108.467C74.0866 110.766 72.0344 112.618 71.232 115.071C70.9086 116.268 70.2373 117.342 69.3032 118.157C68.3396 118.956 67.4929 119.886 66.788 120.92C66.788 121.074 66.6028 121.321 66.4176 121.274C66.2325 121.228 66.2325 120.889 66.2633 120.673C66.4981 118.826 67.1526 117.058 68.1767 115.503C69.2329 113.973 70.0546 112.293 70.6148 110.519C71.4943 108.884 70.2753 108.251 69.4575 109.856C68.2393 111.257 67.1351 112.753 66.1553 114.331C66.0782 114.655 65.569 114.871 65.5844 114.331C65.4301 109.918 68.5162 106.615 71.0931 103.282C71.7313 102.381 72.25 101.401 72.6362 100.366C73.1473 99.466 73.3833 98.436 73.3151 97.4033C72.1773 99.4741 70.6407 101.299 68.794 102.773C67.1643 104.515 65.7595 106.453 64.6122 108.544C64.6122 108.668 64.5042 108.807 64.3499 108.791C64.0495 107.464 64.0023 106.093 64.2111 104.748C64.3091 103.975 64.4481 103.208 64.6277 102.449C64.782 101.647 64.9363 100.813 65.1369 99.9956C65.9856 96.7552 66.9423 93.4067 67.6521 91.1539C68.6242 89.9811 67.6521 89.6108 67.0194 90.907C66.3868 92.2032 65.4764 93.561 64.8437 94.9189C64.1294 96.2406 63.5652 97.6381 63.1618 99.0852C62.9766 99.8722 62.8995 100.767 62.7452 101.6C62.6007 102.41 62.3838 103.206 62.0971 103.977C61.5107 102.958 61.2638 101.616 60.7237 100.551C59.8442 98.8692 60.9243 97.3416 61.0632 95.7214C61.341 91.9717 61.1404 88.006 62.6063 84.6113C62.6834 84.4261 62.8686 84.0867 62.6063 83.9632C61.9736 83.9632 61.8039 84.7656 61.5724 85.1977C61.091 86.3579 60.704 87.5551 60.4151 88.7776C59.8905 90.3206 59.3967 91.4471 59.227 90.3206C58.9647 87.6974 58.3166 85.0279 57.8537 82.4973C57.8537 82.2196 57.9771 81.7721 57.5913 81.6486C57.2405 82.0746 56.9824 82.5691 56.8336 83.1005C56.6848 83.6319 56.6486 84.1886 56.7272 84.7348C56.7334 85.4056 56.7798 86.0754 56.8661 86.7407C56.9008 87.258 56.9626 87.773 57.0513 88.2838C57.0795 89.9916 57.2446 91.6944 57.545 93.3759C57.8999 94.8109 54.2583 92.2957 53.9497 91.8328C53.053 90.936 51.8656 90.3888 50.6012 90.2897C49.5674 89.9503 49.1971 90.9224 50.3081 91.1848C51.4285 91.643 52.4232 92.3625 53.209 93.2833C54.2448 94.6182 55.5155 95.753 56.9587 96.6318C57.545 96.8941 57.7765 97.4496 58.1005 97.9588C58.636 99.1141 59.0597 100.318 59.3658 101.554C60.0943 103.112 60.643 104.748 61.0015 106.43C59.8665 105.695 58.8295 104.819 57.9154 103.822C56.8815 103.313 52.1443 100.937 51.4962 101.554C51.4962 101.755 51.666 101.816 51.8048 101.894C53.5659 102.918 55.2336 104.096 56.7889 105.412C58.1777 106.754 58.8875 108.822 60.7237 109.671C61.6187 110.195 62.6063 112.371 63.3469 114.763C63.9448 116.728 64.2973 118.76 64.3962 120.811C64.3962 120.966 64.5042 120.688 64.3962 120.811C64.2882 120.935 64.3962 120.92 64.2882 120.811C64.1802 120.703 64.2882 120.889 64.2882 120.704C61.2059 118.892 58.3997 116.647 55.9557 114.037C54.8837 113.283 54.0144 112.276 53.4251 111.106C53.4251 110.982 53.3016 110.843 53.1627 110.89C52.314 112.896 56.8815 116.121 57.7919 118.188C60.0962 120.39 62.1271 122.861 63.8407 125.549C64.6675 126.934 65.2764 128.438 65.6461 130.008C66.0652 131.706 66.1126 133.475 65.785 135.193V135.285C65.7078 135.285 65.6924 135.285 65.785 135.193C63.9372 132.206 61.3061 129.783 58.1777 128.187C56.4097 127.318 54.7817 126.19 53.3479 124.839C53.1936 124.7 52.9621 124.499 52.777 124.623C52.2986 125.487 54.1349 126.567 54.7058 127.107C58.7332 130.502 64.5505 133.65 64.6122 139.992C64.3345 143.078 65.4455 146.797 63.8716 149.806C62.9457 148.957 62.3285 147.645 61.4027 146.719C59.5664 144.822 59.9368 141.581 58.7023 139.282C58.5634 138.557 55.6162 134.159 55.7705 136.875C56.5575 139.961 57.9771 142.8 58.332 145.994C58.332 149.08 60.3843 151.179 60.8626 154.111C61.0373 156.121 60.8118 158.145 60.1991 160.067C59.647 162.202 58.5945 164.175 57.1284 165.823C56.7246 165.038 56.5533 164.155 56.6346 163.277C57.0513 160.19 55.5391 157.567 55.3693 154.635C55.2922 153.787 54.4743 154.265 54.6286 154.898C54.4743 157.644 55.4002 160.175 55.0761 162.891C54.469 165.094 54.0915 167.353 53.9497 169.634C53.5485 171.902 50.987 173.862 49.2279 175.606C42.7851 180.877 36.0352 185.762 29.0138 190.234C27.2239 191.283 25.4648 192.44 23.6131 193.397C21.7615 194.354 19.8943 195.326 18.0272 196.267C16.1601 197.208 14.185 197.934 12.2407 198.721C10.2965 199.508 8.27509 200.109 6.26911 200.742C3.70763 201.622 3.72306 201.652 4.43286 203.612C4.83406 204.754 4.8495 204.785 6.39256 204.214C9.32437 203.103 12.287 202.069 15.1417 200.742C16.5768 200.109 18.0272 199.492 19.4314 198.813C20.8356 198.134 22.2089 197.363 23.5823 196.607C24.3982 196.157 25.2497 195.775 26.1283 195.465C26.9656 195.132 27.8271 194.864 28.7052 194.662C30.404 194.272 32.1506 194.132 33.8899 194.246C37.0219 194.296 40.0492 195.381 42.5002 197.332C43.5186 198.057 48.3021 201.128 49.7217 199.446C50.1383 198.875 49.7217 198.659 49.3359 198.443C46.9547 196.775 44.7381 194.884 42.7162 192.795C43.0711 192.348 43.7655 192.595 44.2593 192.548C48.1323 193.104 52.993 192.317 56.4958 193.382C59.2887 195.033 64.0413 193.289 67.5749 193.49C70.661 192.595 62.56 192.209 61.9736 192.564C60.8353 192.871 59.6307 192.828 58.5172 192.44C56.5974 191.457 54.5737 190.691 52.4838 190.157C52.4838 189.848 52.8232 189.879 53.0084 189.817C55.539 189.03 58.1622 188.274 60.7237 187.379C63.188 186.458 65.8618 186.25 68.439 186.777C70.9401 187.297 73.518 187.328 76.0309 186.87C79.3794 186.376 82.7432 185.188 86.0454 184.741C87.3326 184.666 88.5825 184.279 89.687 183.614C89.7796 183.352 89.5635 183.398 89.4247 183.429C87.6347 183.923 86.1071 183.599 84.4097 183.923C82.0025 184.17 79.3948 184.849 76.8487 185.034C74.6134 185.408 72.3172 185.028 70.3216 183.954C70.3216 183.537 70.8616 183.522 71.1548 183.398C72.8676 182.596 74.6576 181.855 76.3549 181.037C78.0523 180.219 79.7805 179.309 81.4779 178.352C83.3541 177.194 85.571 176.715 87.7582 176.994C91.3039 177.528 94.9272 176.895 98.0812 175.189C101.507 173.43 104.824 173.646 108.25 171.192C109.315 170.699 109.238 169.51 108.25 170.189C103.621 172.442 99.2077 172.242 94.5785 174.356C92.6651 175.096 91.2918 173.8 89.3321 174.356C89.1932 174.356 88.9618 174.356 88.9463 174.279C88.9309 174.201 89.1778 173.908 89.3784 173.785C92.3565 172.087 95.1494 169.294 98.143 167.937C101.832 167.25 105.449 166.217 108.944 164.85C112.723 163.307 116.38 161.481 119.885 159.388C121.721 157.845 119.777 158.4 117.246 159.388C115.117 160.063 113.051 160.926 111.074 161.965C108.636 163.601 107.556 161.965 105.719 161.718C105.719 161.425 105.982 161.178 106.213 160.962C107.88 159.666 109.5 157.799 111.166 156.24C112.494 154.683 114.292 153.6 116.289 153.154C117.947 153.004 119.497 152.265 120.656 151.071C121.999 149.898 123.233 148.355 124.699 147.09C126.011 146.087 127.322 145.084 128.634 144.004C128.865 143.834 129.236 143.633 129.205 143.294C128.942 142.816 127.261 144.528 126.443 144.837C123.588 146.38 120.625 149.466 117.863 149.466C119.638 146.658 122.492 145.254 123.866 141.982C124.206 141.23 124.664 140.537 125.224 139.93C127.477 137.477 128.85 134.236 130.501 131.335C131.056 130.502 130.393 129.977 129.853 130.61C129.074 131.289 128.449 132.125 128.017 133.063C127.53 133.998 126.967 134.891 126.335 135.733C125.027 137.098 123.834 138.569 122.77 140.131C121.663 141.666 120.44 143.116 119.113 144.467C118.681 145.115 118.311 144.991 118.604 144.251C119.205 142.533 119.609 140.752 119.808 138.942C119.943 137.136 120.301 135.353 120.872 133.634C121.119 132.863 121.567 130.888 120.672 131.104C120.578 131.185 120.505 131.288 120.459 131.403C120.414 131.519 120.396 131.644 120.409 131.767C120.345 133.003 119.957 134.201 119.283 135.239C117.197 141.154 114.775 146.944 112.031 152.583C111.056 154.138 109.818 155.511 108.373 156.641C106.985 157.845 105.534 158.956 104.284 160.221C103.744 160.777 103.451 160.53 103.914 159.882C104.917 157.428 105.905 155.006 106.769 152.599C107.581 150.193 108.245 147.74 108.759 145.254C108.916 144.572 109.204 143.927 109.608 143.356C110.534 142.137 109.608 141.55 108.728 142.553C107.76 143.389 107.075 144.505 106.769 145.747C106.331 147.158 105.816 148.544 105.226 149.898C104.624 151.272 103.899 152.583 103.22 153.941C102.541 155.299 101.877 156.626 101.291 157.984C100.684 159.31 100.168 160.676 99.7477 162.073C99.3226 163.65 98.3899 165.044 97.0937 166.039C95.8284 167.088 94.3162 167.921 93.0817 168.801C92.7731 169.017 92.4491 169.048 92.6188 168.662C92.9123 167.256 93.395 165.896 94.0539 164.619C94.8537 163.336 95.34 161.882 95.4735 160.376C95.7821 158.184 95.8284 156.086 95.9827 153.941C96.0574 151.668 96.4789 149.42 97.2326 147.275C97.3474 146.853 97.3788 146.413 97.3251 145.979C97.464 145.377 96.4456 144.297 96.3376 145.485C96.677 147.692 93.915 150.114 93.8687 152.707C93.0663 155.947 92.9274 159.28 91.5541 162.567C90.011 164.881 89.4401 167.505 87.4804 169.665C84.5332 173.044 80.7835 175.204 77.5585 178.136C76.3875 178.824 75.1824 179.453 73.9478 180.019C72.6979 180.559 71.448 181.068 70.229 181.562C70.0284 181.654 69.7352 181.809 69.6581 181.562C69.5809 181.315 69.8741 181.222 70.0284 181.083C73.2071 178.645 74.5341 175.189 76.5247 172.165C77.1563 170.269 78.0889 168.487 79.2868 166.887C80.5478 165.285 81.5572 163.501 82.2803 161.595C82.8471 159.992 83.7344 158.522 84.8881 157.274C86.0235 156.012 86.9885 154.606 87.7582 153.092C86.9249 153.231 85.459 155.453 84.4097 156.101C82.736 157.485 81.4141 159.246 80.5521 161.24C79.6765 163.229 78.5457 165.097 77.1882 166.795C75.6081 168.95 73.9026 171.011 72.0807 172.967C70.4899 175.549 68.446 177.823 66.0473 179.679C64.5968 180.867 63.5938 181.809 62.7914 182.58C61.9891 183.352 61.4027 184.031 60.7392 184.602C59.443 185.744 57.8382 186.561 53.6719 187.132C54.6441 186.068 55.6625 185.049 56.5575 183.954C57.4533 182.859 58.2584 181.692 58.9646 180.466C59.7124 179.268 60.6446 178.195 61.7267 177.288C62.4057 176.485 64.3345 175.405 63.995 174.464C63.7944 174.248 63.4241 174.464 63.1155 174.603C60.0294 176.146 57.7456 178.846 55.1533 181.222C53.1628 182.765 51.2802 184.756 49.3205 186.469C47.4502 188.203 45.1 189.333 42.5773 189.709C41.9084 189.726 41.2444 189.83 40.6022 190.018L37.0069 190.712C34.5843 191.175 32.6092 191.437 33.9208 190.712C41.2776 186.084 48.1939 180.789 54.5823 174.896C55.5676 174.214 56.5988 173.6 57.6685 173.06C58.7178 172.489 59.7825 171.995 60.878 171.517C61.9736 171.038 63.0538 170.529 64.1339 169.973C65.2083 169.401 66.2397 168.751 67.22 168.029C68.7631 166.964 70.7073 166.363 72.3738 165.375C73.7317 164.897 73.4849 163.832 72.1733 164.619C70.5011 165.365 68.7592 165.944 66.9731 166.347C65.2106 166.787 63.5065 167.435 61.8965 168.276C61.665 168.4 61.2792 168.662 61.1866 168.477C64.2728 164.82 68.3002 161.07 71.0777 156.919C72.1308 155.377 73.4914 154.068 75.0742 153.077C78.1067 151.339 81.4826 150.286 84.9652 149.991C85.5825 149.775 86.9095 149.914 87.2027 149.111C87.4958 148.309 83.021 149.374 82.2032 149.111C80.4688 149.178 78.7714 149.632 77.2345 150.438C75.1977 151.873 74.889 150.994 76.679 149.312C79.1602 146.401 82.0685 143.883 85.3047 141.843C86.7875 140.974 88.381 140.31 90.0419 139.868C91.692 139.407 93.4105 139.24 95.1186 139.375C98.0256 139.87 101.006 139.728 103.852 138.958C106.83 138.279 109.901 137.322 112.895 136.906C113.311 136.767 115.055 136.674 115.086 136.011C115.086 135.671 114.623 136.011 114.345 136.011C110.04 137.091 106.151 136.535 102.093 136.782C99.3157 137.261 97.2634 135.717 94.7174 135.424C94.2853 135.424 93.5138 135.825 93.5138 135.239C93.5138 134.653 94.2853 134.545 94.6865 134.159C96.1061 133.11 97.3714 134.329 98.7756 134.036C100.828 133.526 102.926 134.236 104.948 133.326C103.25 132.662 100.89 133.495 99.254 132.492C97.2634 132.246 97.9887 131.212 99.6706 130.409C103.05 129.267 105.951 130.286 109.13 129.977C109.423 129.869 112.061 129.715 114.361 129.406C116.66 129.098 118.589 128.681 117.447 128.249C114.906 127.398 112.207 127.123 109.546 127.447C107.864 127.678 105.812 128.419 104.578 127.308C104.578 126.984 104.855 126.814 105.071 126.675C106.398 126.012 107.818 124.854 109.207 123.975C109.74 123.498 110.379 123.155 111.072 122.975C111.764 122.795 112.49 122.784 113.188 122.941C117.817 123.743 122.955 122.771 127.214 124.808C127.693 124.808 128.757 125.533 129.143 124.808C129.529 124.083 126.443 123.697 125.964 122.972C123.357 120.812 118.743 122.262 116.706 119.392C118.65 117.725 120.888 116.614 122.878 115.056C123.14 114.842 123.455 114.704 123.789 114.655C124.123 114.606 124.464 114.648 124.776 114.778C126.535 115.457 128.68 114.269 130.594 114.068C133.282 113.482 136.093 113.963 138.432 115.411C139.034 115.565 142.12 118.296 142.383 117.448C142.568 117.046 142.259 116.923 142.105 116.8C139.019 113.112 134.744 112.818 130.393 112.386C129.868 112.248 127.153 112.186 128.757 110.843C129.635 109.977 130.688 109.309 131.846 108.886C133.005 108.463 134.24 108.293 135.47 108.39C137.061 108.632 138.687 108.344 140.099 107.572C142.78 106.009 145.882 105.324 148.971 105.612C149.496 105.612 150.422 105.906 150.792 104.964C150.792 104.409 150.376 104.501 150.113 104.455C148.139 104.3 146.222 103.715 144.497 102.742C141.117 100.983 139.79 103.884 137.568 103.714L137.506 103.838ZM88.5914 66.2643L88.2982 65.8631C88.5143 65.2768 88.8692 65.9711 88.5914 66.2643Z" fill="#A1BDBD"/>
</g>
<defs>
<filter id="filter0_d_329_703" x="0.0234375" y="0.995361" width="161.977" height="210.582" filterUnits="userSpaceOnUse" color-interpolation-filters="sRGB">
<feFlood flood-opacity="0" result="BackgroundImageFix"/>
<feColorMatrix in="SourceAlpha" type="matrix" values="0 0 0 0 0 0 0 0 0 0 0 0 0 0 0 0 0 0 127 0" result="hardAlpha"/>
<feOffset dy="3"/>
<feGaussianBlur stdDeviation="2"/>
<feComposite in2="hardAlpha" operator="out"/>
<feColorMatrix type="matrix" values="0 0 0 0 0 0 0 0 0 0 0 0 0 0 0 0 0 0 0.16 0"/>
<feBlend mode="normal" in2="BackgroundImageFix" result="effect1_dropShadow_329_703"/>
<feBlend mode="normal" in="SourceGraphic" in2="effect1_dropShadow_329_703" result="shape"/>
</filter>
</defs>
</svg>
