<svg xmlns="http://www.w3.org/2000/svg" width="111" height="28" viewBox="0 0 111 28" fill="none">
  <path d="M78.529 0.387695H82.0004C83.3377 0.387695 84.0995 1.31805 84.2855 3.17875V9.23186C84.2855 9.70867 84.2914 10.7902 84.303 12.4765C85.4617 11.6419 86.8934 11.3906 88.1581 11.203C89.4228 11.0155 92.6451 9.66667 92.8629 7.11081C94.1251 9.72964 93.1656 11.0915 91.0888 12.2323C92.4727 13.0231 93.1646 14.0581 93.1646 15.3373V18.6168C93.1646 20.0123 93.4205 20.7799 93.9321 20.9194L94.438 21.0241H95.6591L95.7638 21.1288V21.5125L95.6591 21.6172H92.5541C91.3562 21.4776 90.7573 20.7624 90.7573 19.4716V15.5641C90.7573 12.2323 84.2855 12.8841 84.2855 15.0233V18.6691C84.2855 20.2391 83.6692 21.2218 82.4365 21.6172L81.7736 21.6695H78.4243V21.5649V20.4833V20.3787H79.942C80.7676 20.3787 81.2503 19.8088 81.3898 18.6691V3.44042C81.3898 2.23096 80.7967 1.62623 79.6105 1.62623H78.529L78.4243 1.52156V0.49236L78.529 0.387695Z" fill="white"/>
  <path d="M68.4459 6.26648H72.3359C73.1732 6.26648 73.8768 6.70258 74.4467 7.57479C74.749 8.16789 74.9002 8.88891 74.9002 9.73786V18.1634C74.8421 19.524 75.3014 20.2567 76.2783 20.3613L76.7144 20.4137H77.4471L77.4994 20.4486V21.6696L77.4471 21.722H74.2897C73.1732 21.722 72.4115 21.1289 72.0045 19.9427C71.8068 19.3612 71.7079 18.803 71.7079 18.268V9.85997C71.7079 8.83658 71.3125 8.16789 70.5217 7.85389C70.3008 7.79575 70.1089 7.76667 69.9461 7.76667H68.4459L68.3936 7.73179V6.30137L68.4459 6.26648Z" fill="white"/>
  <path d="M60.5442 5.86499H60.8756C62.4572 5.86499 63.8237 6.44646 64.975 7.6094C66.103 8.86538 66.6671 10.3132 66.6671 11.953V17.6921C66.6671 19.3202 66.9869 20.2855 67.6265 20.5878C67.6265 20.6576 67.8591 20.7332 68.3243 20.8146H70.1384L70.1908 20.8669V21.7043L70.1384 21.7566H65.8297C64.6435 21.7566 63.8702 20.8902 63.5097 19.1574C63.4632 18.9597 63.4399 18.7504 63.4399 18.5294V12.3542C63.4399 10.3191 62.7131 8.99912 61.2594 8.39439C60.6663 8.18506 60.0441 8.08039 59.3929 8.08039C58.195 8.11528 57.0146 8.7142 55.8517 9.87714C55.4214 10.4005 55.2063 10.9238 55.2063 11.4471V21.7566L55.1539 21.8089H52.014L51.9442 21.7566V9.65036C51.9442 8.62698 51.5256 7.93503 50.6882 7.57451L50.0777 7.48729H48.6124L48.5601 7.43496V6.07432L48.6124 6.02199H52.5722C53.5723 6.02199 54.3457 6.57438 54.8923 7.67918L55.0493 8.21995C56.7588 6.68486 58.5904 5.89988 60.5442 5.86499Z" fill="white"/>
  <path d="M38.0583 21.7569H37.7443C36.1743 21.7569 34.8137 21.1812 33.6623 20.0299C32.5459 18.7856 31.9877 17.3435 31.9877 15.7038V9.99956C31.9877 8.38307 31.6679 7.42946 31.0283 7.13873C31.0283 7.05732 30.7957 6.97591 30.3305 6.89451H28.5338L28.4814 6.84218V6.0223L28.5338 5.96997H32.8076C33.9938 5.96997 34.7613 6.83055 35.1102 8.5517C35.1684 8.7494 35.1974 8.95873 35.1974 9.17969V15.3026C35.1974 17.3261 35.9126 18.6402 37.3431 19.2449C37.9478 19.4543 38.5641 19.5589 39.1921 19.5589C40.1225 19.5589 41.1633 18.9833 42.3146 17.832C42.7449 17.3086 42.9601 16.7853 42.9601 16.262V6.0223L43.0124 5.96997H46.1349L46.1872 6.0223V18.0413C46.1872 19.0647 46.6059 19.7566 47.4432 20.1172L48.0538 20.1869H49.5016L49.5539 20.2393V21.5999L49.5016 21.6522H45.5767C44.5882 21.6522 43.8206 21.1057 43.2741 20.0125L43.1171 19.4717C41.4192 20.9952 39.7329 21.7569 38.0583 21.7569Z" fill="white"/>
  <path d="M22.1671 21.6518L16.9339 9.21419C16.2942 7.6791 15.0557 6.83016 13.2183 6.66734V6.02191H16.0965C18.0735 6.02191 19.4226 6.87086 20.1436 8.56875L23.8592 17.3431L27.3904 9.46403H29.0824L23.1789 23.3963C22.5276 25.0825 21.7775 26.2396 20.9286 26.8676C20.2075 27.4258 19.2132 27.6701 17.9456 27.6003L16.2187 27.4956V25.8559C19.0911 26.2745 20.8472 25.4547 21.4868 23.3963L22.1671 21.6518Z" fill="white"/>
  <path fill-rule="evenodd" clip-rule="evenodd" d="M7.61847 5.81305H3.53655L3.5191 5.83049V7.27836L3.53655 7.2958C3.95013 7.30853 4.39714 7.28374 4.85405 7.25841C6.51752 7.16618 8.31205 7.06668 9.10122 8.74366C9.476 9.7828 9.48499 10.781 9.48499 11.8662C5.95299 12.5083 0.0236751 13.7681 0.0302789 18.2158C0.0333755 20.3013 2.09709 21.6872 4.12965 21.6872C5.97873 21.6872 7.7871 20.7975 9.55477 19.0182C9.78035 20.3717 10.497 21.7919 12.0667 21.7919H14.8403V20.8673C13.224 20.8673 12.5552 20.0199 12.5552 18.3903V13.488C11.9991 13.6166 10.1778 14.0923 9.48499 14.2802V17.5704C8.14609 19.2469 3.53278 21.0429 3.5191 17.3959V17.3785C3.5191 14.5628 7.29442 13.7662 9.48499 13.3489V13.3511C10.2004 13.2103 11.9702 12.898 12.5552 12.7994V12.7984C13.9435 12.5823 14.626 11.9337 14.1052 10.5264C13.9064 11.097 13.4099 11.3242 12.5552 11.4288C12.5301 10.4777 12.4475 9.56581 12.0842 8.67389C11.3346 6.97356 9.47887 5.81305 7.61847 5.81305Z" fill="white"/>
  <path fill-rule="evenodd" clip-rule="evenodd" d="M103.631 5.81305H99.5492L99.5318 5.83049V7.27836L99.5492 7.2958C99.9628 7.30853 100.41 7.28374 100.867 7.25841C102.53 7.16618 104.325 7.06668 105.114 8.74366C105.489 9.7828 105.498 10.781 105.498 11.8662C101.966 12.5083 96.0364 13.7681 96.043 18.2158C96.0461 20.3013 98.1098 21.6872 100.142 21.6872C101.991 21.6872 103.8 20.7975 105.567 19.0182C105.793 20.3717 106.51 21.7919 108.079 21.7919H110.853V20.8673C109.237 20.8673 108.568 20.0199 108.568 18.3903V13.488C108.012 13.6166 106.19 14.0923 105.498 14.2802V17.5704C104.159 19.2469 99.5455 21.0429 99.5318 17.3959V17.3785C99.5318 14.5628 103.307 13.7662 105.498 13.3489V13.3511C106.213 13.2103 107.983 12.898 108.568 12.7994V12.7984C109.956 12.5823 110.639 11.9337 110.118 10.5264C109.919 11.097 109.423 11.3242 108.568 11.4288C108.543 10.4777 108.46 9.56581 108.097 8.67389C107.347 6.97356 105.492 5.81305 103.631 5.81305Z" fill="white"/>
</svg>