<svg xmlns="http://www.w3.org/2000/svg" width="32" height="32" viewBox="0 0 32 32" fill="none">
  <rect width="31.0303" height="32" rx="15.5152" fill="#FFECF5"/>
  <path fill-rule="evenodd" clip-rule="evenodd" d="M15.9918 9.21454C15.9918 9.21454 12.9218 9.85691 12.3943 8.29724C11.8802 9.00913 12.1877 10.3846 13.3445 10.591C13.6668 10.6486 14.0237 10.6275 14.3887 10.6059C15.3336 10.5501 16.3322 10.4911 16.9227 11.7852C17.2277 12.6572 17.235 13.4949 17.235 14.4056C14.3607 14.9445 9.53565 16.0017 9.54102 19.7342C9.54354 21.4844 10.9421 22.6474 12.877 22.6474C14.3817 22.6474 15.8533 21.9008 17.2918 20.4076C17.4753 21.5434 18.0585 22.7352 19.3359 22.7352C21.5635 22.7352 21.954 21.714 21.737 20.5507C20.8259 21.7811 19.7334 21.2482 19.7334 19.8806V15.7906C19.6842 15.8101 19.6308 15.831 19.574 15.8532C18.7546 16.1736 17.2168 16.7747 17.2361 17.8243C17.2363 17.8314 17.2359 17.83 17.235 17.821V19.1926C16.1454 20.5995 12.3913 22.1067 12.3801 19.0462V19.0315C12.3801 16.6686 15.4524 16.0001 17.235 15.6499V15.6505C17.8764 15.5204 19.5504 15.2172 19.843 15.1688C20.8987 14.9701 21.4047 14.4234 20.9948 13.2813C20.833 13.7601 20.429 13.9508 19.7334 14.0386C19.713 13.2403 19.6458 12.4751 19.3501 11.7266C18.7401 10.2997 17.5058 9.21454 15.9918 9.21454Z" fill="#292628"/>
</svg>