<svg xmlns="http://www.w3.org/2000/svg" width="32" height="32" viewBox="0 0 32 32" fill="none">
  <path fill-rule="evenodd" clip-rule="evenodd" d="M21.3333 4.32324H10.6667C6.98477 4.32324 4 7.30802 4 10.9899V21.6566C4 25.3384 6.98477 28.3232 10.6667 28.3232H21.3333C25.0152 28.3232 28 25.3384 28 21.6566V10.9899C28 7.30802 25.0152 4.32324 21.3333 4.32324ZM25.6667 21.6566C25.6593 24.0467 23.7235 25.9826 21.3333 25.9899H10.6667C8.27647 25.9826 6.34065 24.0467 6.33333 21.6566V10.9899C6.34065 8.59971 8.27647 6.6639 10.6667 6.65658H21.3333C23.7235 6.6639 25.6593 8.59971 25.6667 10.9899V21.6566ZM22.3333 11.3232C23.0697 11.3232 23.6667 10.7263 23.6667 9.98991C23.6667 9.25354 23.0697 8.65658 22.3333 8.65658C21.5969 8.65658 21 9.25354 21 9.98991C21 10.7263 21.5969 11.3232 22.3333 11.3232ZM16 10.3232C12.6863 10.3232 10 13.0095 10 16.3232C10 19.637 12.6863 22.3232 16 22.3232C19.3137 22.3232 22 19.637 22 16.3232C22.0036 14.7308 21.3725 13.2027 20.2465 12.0767C19.1205 10.9507 17.5924 10.3197 16 10.3232ZM12.3333 16.3232C12.3333 18.3483 13.9749 19.9899 16 19.9899C18.0251 19.9899 19.6667 18.3483 19.6667 16.3232C19.6667 14.2982 18.0251 12.6566 16 12.6566C13.9749 12.6566 12.3333 14.2982 12.3333 16.3232Z" fill="#302323"/>
</svg>