<svg xmlns="http://www.w3.org/2000/svg" width="32" height="32" viewBox="0 0 32 32" fill="none">
  <path d="M24.3151 8.21148C22.9122 7.29844 21.9005 5.83693 21.5844 4.13412C21.5165 3.7663 21.4786 3.38739 21.4786 3H17.0022L16.995 20.9138C16.9199 22.9198 15.2662 24.53 13.2396 24.53C12.6094 24.53 12.0164 24.3729 11.4939 24.0983C10.2961 23.469 9.47641 22.2155 9.47641 20.7729C9.47641 18.701 11.1647 17.0151 13.239 17.0151C13.6263 17.0151 13.9979 17.079 14.3493 17.1886V12.6254C13.9855 12.5758 13.6158 12.5451 13.239 12.5451C8.69595 12.5451 5 16.2358 5 20.7729C5 23.5563 6.39243 26.0196 8.51765 27.5091C9.85587 28.4476 11.4841 29 13.2396 29C17.7827 29 21.4786 25.3094 21.4786 20.7729V11.6888C23.2342 12.9469 25.3855 13.6884 27.7067 13.6884V9.21843C26.4566 9.21843 25.2921 8.84734 24.3151 8.21148Z" fill="#302323"/>
</svg>