<svg xmlns="http://www.w3.org/2000/svg" width="36" height="36" viewBox="0 0 36 36" fill="none">
  <path d="M25.8747 32.6251C25.4985 32.6242 25.1305 32.516 24.8136 32.3132C24.4968 32.1105 24.2444 31.8216 24.0859 31.4804L24.5967 31.2448C24.7099 31.4885 24.8902 31.6949 25.1166 31.8398C25.343 31.9847 25.6059 32.062 25.8747 32.0626C26.2289 32.0616 26.5697 31.9273 26.8295 31.6864C27.0892 31.4456 27.2487 31.1158 27.2764 30.7627L27.8378 30.8043C27.7988 31.2988 27.5753 31.7606 27.2116 32.0979C26.848 32.4352 26.3707 32.6234 25.8747 32.6251Z" fill="white"/>
  <path d="M28.6859 31.5C28.2818 31.5001 27.8852 31.3913 27.5377 31.1851C27.1902 30.9789 26.9046 30.683 26.7109 30.3283L27.2043 30.0589C27.3497 30.3248 27.564 30.5467 27.8247 30.7013C28.0853 30.8558 28.3828 30.9375 28.6859 30.9375C28.9515 30.9371 29.2132 30.874 29.4499 30.7534C29.6866 30.6329 29.8915 30.4583 30.048 30.2437C30.2046 30.0291 30.3083 29.7807 30.3509 29.5185C30.3934 29.2563 30.3736 28.9878 30.2929 28.7348L30.1489 28.2825L30.6147 28.3731C30.7188 28.3939 30.8262 28.4063 30.9359 28.4063C31.8663 28.4063 32.6234 27.6491 32.6234 26.7188C32.6234 26.3357 32.4979 25.9751 32.2617 25.6753L32.7033 25.3271C33.0188 25.7271 33.1859 26.208 33.1859 26.7188C33.1859 27.9596 32.1768 28.9688 30.9359 28.9688H30.9184C30.958 29.2854 30.9298 29.6069 30.8357 29.9118C30.7416 30.2168 30.5837 30.4982 30.3727 30.7376C30.1616 30.9769 29.902 31.1687 29.6112 31.3001C29.3204 31.4315 29.005 31.4997 28.6859 31.5Z" fill="white"/>
  <path d="M31.7821 25.875V25.3125C32.4025 25.3125 32.9071 24.808 32.9071 24.1875C32.9064 23.9739 32.8453 23.7648 32.7307 23.5845C32.6161 23.4043 32.4528 23.2601 32.2597 23.1688L31.9379 23.0181L32.159 22.7396C32.2786 22.5923 32.3443 22.4085 32.3452 22.2188C32.3452 21.9004 32.1691 21.6124 31.8856 21.4673L32.1415 20.9666C32.4673 21.1324 32.7154 21.419 32.8328 21.7652C32.9502 22.1114 32.9276 22.4898 32.7698 22.8195C32.9858 22.9765 33.1617 23.1822 33.2832 23.4199C33.4048 23.6576 33.4687 23.9205 33.4696 24.1875C33.4696 25.1179 32.7125 25.875 31.7821 25.875ZM23.3446 32.0625C22.9824 32.0641 22.6293 31.9484 22.3383 31.7327C22.0472 31.5171 21.8337 31.2131 21.7297 30.8661L22.268 30.7024C22.3372 30.9338 22.4795 31.1365 22.6736 31.2803C22.8677 31.4241 23.1031 31.5012 23.3446 31.5C23.8058 31.5 24.2159 31.2233 24.388 30.7958L24.91 31.0061C24.7849 31.3187 24.5688 31.5865 24.2896 31.7749C24.0105 31.9632 23.6813 32.0634 23.3446 32.0625ZM13.2005 11.461C13.0192 11.118 12.9296 10.734 12.9403 10.3462C12.951 9.95843 13.0618 9.57999 13.2617 9.24756C13.4617 8.91514 13.7441 8.64 14.0817 8.44881C14.4192 8.25761 14.8004 8.15684 15.1883 8.15626C15.4173 8.15626 15.6445 8.19283 15.8667 8.26651C16.0208 7.746 16.3395 7.28945 16.775 6.96534C17.2104 6.64122 17.7392 6.46699 18.2821 6.46876C19.0257 6.46876 19.7288 6.79389 20.2109 7.36089L19.7823 7.72483C19.5975 7.50734 19.3676 7.33266 19.1085 7.21289C18.8495 7.09313 18.5675 7.03115 18.2821 7.03126C17.8131 7.02994 17.3594 7.19745 17.0038 7.50318C16.6481 7.8089 16.4144 8.23241 16.3454 8.69626L16.2863 9.07764L15.9415 8.90439C15.7085 8.78441 15.4505 8.72083 15.1883 8.71876C14.8975 8.71932 14.6116 8.79497 14.3585 8.93838C14.1055 9.08178 13.8937 9.2881 13.7437 9.53735C13.5937 9.78661 13.5107 10.0704 13.5025 10.3611C13.4943 10.6519 13.5614 10.9399 13.6972 11.1971L13.2005 11.461Z" fill="white"/>
  <path d="M19.9687 8.71875H19.4062C19.4062 7.16794 20.6679 5.90625 22.2187 5.90625C23.1351 5.90625 23.9962 6.35456 24.5233 7.10606L24.0632 7.42894C23.8554 7.13274 23.5794 6.89087 23.2585 6.72376C22.9375 6.55664 22.5811 6.46918 22.2193 6.46875C21.6227 6.4692 21.0506 6.70637 20.6286 7.12822C20.2067 7.55006 19.9693 8.1221 19.9687 8.71875Z" fill="white"/>
  <path d="M27.3845 10.1059L27.0065 9.68906C27.1813 9.53076 27.3211 9.33763 27.4168 9.12208C27.5125 8.90653 27.562 8.67334 27.5622 8.4375C27.5622 7.50713 26.8051 6.75 25.8747 6.75C25.5436 6.7509 25.2201 6.84876 24.944 7.0315C24.6679 7.21423 24.4513 7.47384 24.3211 7.77825L23.8025 7.55887C23.9763 7.15296 24.2652 6.80681 24.6334 6.56312C25.0017 6.31943 25.4332 6.18885 25.8747 6.1875C27.1156 6.1875 28.1247 7.19662 28.1247 8.4375C28.1246 8.75185 28.0586 9.06268 27.9311 9.35001C27.8037 9.63735 27.6174 9.89482 27.3845 10.1059Z" fill="white"/>
  <path d="M33.0283 17.2536L32.7538 16.7631C32.8845 16.6904 32.9934 16.5844 33.0696 16.4558C33.1458 16.3272 33.1865 16.1807 33.1875 16.0312C33.1875 15.6932 32.9867 15.3883 32.6745 15.255L32.4315 15.1509L32.5204 14.9018C32.5907 14.7049 32.625 14.5221 32.625 14.3438C32.625 13.4134 31.8679 12.6562 30.9375 12.6562C30.9178 12.6562 30.8987 12.6596 30.879 12.6624L30.3615 12.7057L30.5151 12.2929C30.6084 12.0431 30.6557 11.7872 30.6557 11.5312C30.6553 11.1933 30.5789 10.8598 30.4321 10.5554C30.2853 10.251 30.0718 9.98353 29.8076 9.77283C29.5434 9.56214 29.2351 9.41361 28.9057 9.33825C28.5762 9.26289 28.2341 9.26263 27.9045 9.3375L27.7802 8.7885C28.1921 8.69529 28.6196 8.6959 29.0312 8.7903C29.4428 8.8847 29.8279 9.07046 30.158 9.33384C30.4881 9.59722 30.7547 9.93147 30.9381 10.3118C31.1216 10.6922 31.2171 11.109 31.2176 11.5312C31.2176 11.7231 31.1968 11.9149 31.1552 12.1044C31.7114 12.1591 32.2273 12.4186 32.6029 12.8324C32.9785 13.2463 33.1868 13.7849 33.1875 14.3438C33.1875 14.5136 33.1656 14.6841 33.1211 14.8596C33.3146 14.9877 33.4733 15.1618 33.583 15.3663C33.6928 15.5707 33.7501 15.7992 33.75 16.0312C33.75 16.5358 33.4738 17.0038 33.0283 17.2536ZM24.3669 10.1076C24.1334 9.89649 23.9468 9.63882 23.819 9.35116C23.6912 9.06351 23.6251 8.75226 23.625 8.4375C23.625 7.19662 24.6341 6.1875 25.875 6.1875C27.1159 6.1875 28.125 7.19662 28.125 8.4375H27.5625C27.5625 7.50713 26.8054 6.75 25.875 6.75C24.9446 6.75 24.1875 7.50713 24.1875 8.4375C24.1875 8.91394 24.39 9.37069 24.7438 9.69019L24.3669 10.1076ZM13.4111 11.7872C13.1028 11.3931 12.936 10.9067 12.9375 10.4062C12.9375 9.16537 13.9466 8.15625 15.1875 8.15625V8.71875C14.8719 8.71949 14.5628 8.80861 14.2953 8.97601C14.0277 9.14341 13.8124 9.38239 13.6737 9.66588C13.535 9.94938 13.4784 10.2661 13.5105 10.58C13.5425 10.894 13.6618 11.1927 13.8549 11.4424L13.4111 11.7872Z" fill="white"/>
  <path d="M8.00486 18.8112C7.98181 18.7622 7.94508 18.721 7.89911 18.6925L3.08917 15.7056L2.79273 16.1837L7.53348 19.1273C7.61842 19.3 7.84398 19.7393 8.18036 20.2934L8.7783 20.1854C8.29455 19.4136 8.01161 18.8247 8.00486 18.8112ZM12.0025 12.6169L2.97611 6.07617L2.64648 6.5318L11.7894 13.1569C11.8252 13.1833 11.8668 13.2007 11.9108 13.2076C11.9548 13.2144 11.9998 13.2106 12.0419 13.1963L13.9904 12.5534L14.5765 11.7681L12.0025 12.6169ZM24.4698 13.7813C24.728 13.7813 24.9665 13.8555 25.1746 13.977C25.9902 13.491 26.5015 12.5652 26.4121 11.5735L26.3845 11.2731C26.3775 11.2006 26.3428 11.1335 26.2876 11.0859C26.2324 11.0383 26.1609 11.0139 26.0881 11.0177L18.9438 11.4334C18.898 11.6294 18.8257 11.8183 18.7289 11.9948L18.9269 11.997L25.8496 11.5949L25.8524 11.6235C25.9441 12.6377 25.2303 13.5675 24.2088 13.7447L23.554 13.9022C23.5889 13.9489 23.6317 13.9889 23.6615 14.0395C23.8976 13.8717 24.1801 13.7815 24.4698 13.7813ZM29.7342 24.178C29.9158 23.868 29.9745 23.5012 29.8988 23.1501C29.823 22.7989 29.6184 22.4889 29.3253 22.2812L28.9389 22.0101L28.2684 22.2261L28.7161 22.5405C29.2128 22.4359 29.6268 22.4393 29.8068 22.9427C29.9092 23.2291 29.8937 23.5444 29.7638 23.8194C29.6338 24.0943 29.4001 24.3065 29.1138 24.4092L27.6766 24.8749L28.6902 25.5646C28.7998 25.637 28.8941 25.7303 28.9676 25.8391C29.0411 25.948 29.0925 26.0702 29.1188 26.199C29.145 26.3277 29.1457 26.4603 29.1207 26.5892C29.0957 26.7182 29.0456 26.841 28.9732 26.9506C28.9007 27.0601 28.8074 27.1544 28.6986 27.2279C28.5897 27.3014 28.4675 27.3528 28.3388 27.3791C28.2101 27.4053 28.0775 27.406 27.9485 27.381C27.8195 27.3561 27.6968 27.3059 27.5872 27.2335L25.1757 25.6849L24.4839 25.9094L26.0982 26.946C26.3182 27.0862 26.4746 27.3067 26.5343 27.5606C26.594 27.8144 26.5522 28.0816 26.4177 28.305C26.2805 28.5357 26.0605 28.6988 25.7995 28.764C25.6715 28.7968 25.5382 28.8037 25.4075 28.7842C25.2768 28.7646 25.1513 28.7192 25.0385 28.6504L21.8823 26.7526L21.146 26.991L22.8284 28.0142C23.2109 28.282 23.3127 28.7989 23.0607 29.1916C22.9989 29.2879 22.9185 29.371 22.8243 29.4361C22.7301 29.5012 22.624 29.5469 22.512 29.5707C22.4 29.5945 22.2844 29.5959 22.1719 29.5747C22.0593 29.5536 21.9521 29.5103 21.8564 29.4475L19.7949 28.2156C19.7054 28.3928 19.553 28.534 19.3392 28.5992L21.5594 29.9256C21.7172 30.0274 21.8936 30.0969 22.0784 30.1301C22.2632 30.1633 22.4527 30.1596 22.636 30.1191C22.8194 30.0794 22.9931 30.0039 23.1472 29.8968C23.3013 29.7898 23.4327 29.6533 23.5338 29.4953C23.725 29.1977 23.7925 28.8563 23.7475 28.5306L24.7482 29.1325C24.9245 29.2393 25.1203 29.3099 25.3242 29.3402C25.5281 29.3705 25.7359 29.36 25.9357 29.3091C26.136 29.2596 26.3244 29.1708 26.4901 29.0478C26.6557 28.9247 26.7952 28.77 26.9004 28.5925C27.0798 28.2934 27.1542 27.943 27.1119 27.5969L27.2823 27.7066C27.6417 27.9372 28.0681 28.0103 28.4849 27.913C28.7801 27.8432 29.0487 27.6891 29.2579 27.4694C29.4671 27.2497 29.6079 26.9739 29.6632 26.6756C29.7184 26.3773 29.6857 26.0694 29.5691 25.7893C29.4525 25.5093 29.257 25.2692 29.0064 25.0982L28.6694 24.8693C28.7245 24.8631 28.7791 24.853 28.8337 24.84C29.021 24.797 29.1975 24.716 29.3524 24.6021C29.5073 24.4883 29.6372 24.3439 29.7342 24.178Z" fill="white"/>
  <path d="M18.3105 15.7618L18.9265 15.6189C19.0091 15.4092 19.1528 15.2292 19.3389 15.1021C19.5251 14.975 19.7451 14.9068 19.9705 14.9062C20.1269 14.9062 20.2827 14.9406 20.4323 15.0086L20.7923 15.1712L20.8283 14.778C20.8532 14.483 20.9712 14.2035 21.1654 13.98C21.3595 13.7564 21.6197 13.6004 21.9083 13.5344C22.1969 13.4684 22.4991 13.4959 22.771 13.6129C23.043 13.7298 23.2708 13.9302 23.4214 14.1851L23.5772 14.4439L23.8236 14.2695C24.016 14.1339 24.2399 14.0625 24.4705 14.0625C24.6668 14.0625 24.8479 14.1176 25.0088 14.2059L25.7035 14.0439C25.5468 13.8729 25.3563 13.7362 25.1441 13.6426C24.9318 13.549 24.7025 13.5004 24.4705 13.5C24.2168 13.5 23.9699 13.5574 23.7432 13.6665C23.5604 13.4385 23.3286 13.2545 23.065 13.1283C22.8014 13.0021 22.5127 12.9369 22.2205 12.9375C21.79 12.9363 21.3712 13.0775 21.0292 13.3391C20.6873 13.6006 20.4415 13.9679 20.3299 14.3837C20.2119 14.3572 20.0914 14.3438 19.9705 14.3438C19.5705 14.3447 19.1839 14.4879 18.8798 14.7477C18.5757 15.0074 18.374 15.3669 18.3105 15.7618ZM25.8767 5.34375C25.2563 5.34375 24.7517 4.83919 24.7517 4.21875C24.7517 3.59831 25.2563 3.09375 25.8767 3.09375C26.4972 3.09375 27.0017 3.59831 27.0017 4.21875C27.0017 4.83919 26.4972 5.34375 25.8767 5.34375ZM25.8767 3.65625C25.7319 3.66273 25.5952 3.72482 25.495 3.8296C25.3948 3.93438 25.3388 4.07377 25.3388 4.21875C25.3388 4.36373 25.3948 4.50312 25.495 4.6079C25.5952 4.71268 25.7319 4.77477 25.8767 4.78125C26.0216 4.77477 26.1583 4.71268 26.2585 4.6079C26.3587 4.50312 26.4146 4.36373 26.4146 4.21875C26.4146 4.07377 26.3587 3.93438 26.2585 3.8296C26.1583 3.72482 26.0216 3.66273 25.8767 3.65625ZM28.9705 4.21875C28.35 4.21875 27.8455 3.71419 27.8455 3.09375C27.8455 2.47331 28.35 1.96875 28.9705 1.96875C29.5909 1.96875 30.0955 2.47331 30.0955 3.09375C30.0955 3.71419 29.5909 4.21875 28.9705 4.21875ZM28.9705 2.53125C28.8257 2.53773 28.6889 2.59982 28.5887 2.7046C28.4885 2.80938 28.4326 2.94877 28.4326 3.09375C28.4326 3.23873 28.4885 3.37812 28.5887 3.4829C28.6889 3.58768 28.8257 3.64977 28.9705 3.65625C29.1153 3.64977 29.2521 3.58768 29.3523 3.4829C29.4525 3.37812 29.5084 3.23873 29.5084 3.09375C29.5084 2.94877 29.4525 2.80938 29.3523 2.7046C29.2521 2.59982 29.1153 2.53773 28.9705 2.53125ZM31.2205 7.875C30.4448 7.875 29.8142 7.24388 29.8142 6.46875C29.8142 5.69362 30.4448 5.0625 31.2205 5.0625C31.9962 5.0625 32.6267 5.69362 32.6267 6.46875C32.6267 7.24388 31.9962 7.875 31.2205 7.875ZM31.2205 5.625C30.7553 5.625 30.3767 6.00356 30.3767 6.46875C30.3767 6.93394 30.7553 7.3125 31.2205 7.3125C31.6857 7.3125 32.0642 6.93394 32.0642 6.46875C32.0642 6.00356 31.6857 5.625 31.2205 5.625Z" fill="white"/>
  <path d="M13.425 27.7606C12.7269 27.5862 12.264 27.4062 12.2521 27.4017C12.1947 27.3792 12.1316 27.3759 12.0721 27.3921L2.73633 30.0044L2.8882 30.5461L12.1346 27.9586C12.3056 28.0221 12.6993 28.16 13.2298 28.2961C13.2495 28.0981 13.3164 27.9141 13.425 27.7606ZM32.1956 16.9538C32.0717 16.5751 31.808 16.2578 31.4583 16.0668C31.1085 15.8757 30.6991 15.8252 30.3135 15.9256L30.0946 15.983C30.2505 15.6593 30.2776 15.2886 30.1706 14.9457C30.0636 14.6024 29.8314 14.3119 29.5202 14.1318C29.2089 13.9517 28.8413 13.8953 28.4904 13.9737L16.8022 16.6895L18.9645 12.1506C19.6153 11.0144 19.28 9.54514 18.2006 8.80489L17.9525 8.63445C17.8926 8.59326 17.8191 8.57687 17.7473 8.58872C17.6756 8.60057 17.6112 8.63974 17.5678 8.69801L13.3721 14.3202L11.2166 17.0225C11.1974 17.0462 11.1823 17.073 11.1721 17.1018L9.91664 20.5521L2.76277 21.8403L2.86289 22.3938L10.1754 21.077C10.2238 21.0682 10.269 21.0469 10.3066 21.0152C10.3442 20.9835 10.3728 20.9426 10.3897 20.8964L11.6851 17.3375L13.8176 14.6639L17.8575 9.25095L17.8828 9.26839C18.7226 9.84439 18.9836 10.9874 18.4678 11.8902L16.0445 16.9752C16.0212 17.023 16.0119 17.0764 16.0178 17.1292C16.0238 17.182 16.0446 17.2321 16.078 17.2735C16.1114 17.3148 16.1558 17.3459 16.2062 17.3629C16.2565 17.3799 16.3107 17.3822 16.3623 17.3695L28.617 14.5216C28.7798 14.4853 28.9496 14.4968 29.106 14.5546C29.2625 14.6124 29.399 14.714 29.4991 14.8474C29.5993 14.9808 29.6588 15.1403 29.6707 15.3066C29.6825 15.473 29.6461 15.6393 29.5659 15.7855C29.4511 15.9936 29.2616 16.1416 29.0326 16.2035L21.219 18.3044C21.1506 18.3268 21.0934 18.3745 21.0591 18.4377C21.0248 18.5009 21.0159 18.5748 21.0343 18.6443C21.0527 18.7138 21.097 18.7737 21.1581 18.8116C21.2192 18.8495 21.2925 18.8627 21.363 18.8483L30.4575 16.4701C30.7043 16.4053 30.9665 16.4374 31.1904 16.5598C31.4143 16.6822 31.583 16.8855 31.6618 17.1282C31.7467 17.3881 31.7225 17.6643 31.5954 17.9056C31.4671 18.1475 31.2523 18.3224 30.9896 18.3989L21.9969 21.0066C21.9269 21.0288 21.8683 21.0775 21.8337 21.1422C21.7991 21.207 21.7912 21.2828 21.8117 21.3533C21.8322 21.4238 21.8794 21.4835 21.9434 21.5196C22.0073 21.5558 22.0828 21.5655 22.1538 21.5466L29.7943 19.331C30.0444 19.2574 30.3133 19.2845 30.5437 19.4066C30.774 19.5286 30.9476 19.7358 31.0273 19.984C31.1105 20.2394 31.0891 20.5116 30.9671 20.7513C30.9073 20.8691 30.8247 20.9738 30.7241 21.0594C30.6235 21.1449 30.5068 21.2096 30.381 21.2496L22.502 23.7882C22.4309 23.8109 22.3718 23.8609 22.3375 23.9272C22.3033 23.9935 22.2968 24.0706 22.3195 24.1417C22.3422 24.2128 22.3921 24.272 22.4584 24.3062C22.5247 24.3404 22.6019 24.3469 22.673 24.3243L28.4685 22.5029C28.6819 22.4355 28.9131 22.4535 29.1135 22.5531C29.3139 22.6528 29.4678 22.8264 29.5428 23.0373C29.621 23.255 29.6092 23.4901 29.5102 23.6988C29.4144 23.9045 29.2408 24.0637 29.0276 24.1414L19.8729 27.1075C19.9331 27.247 19.9685 27.4006 19.9685 27.5626C19.9685 27.5997 19.9606 27.6351 19.9573 27.6711L29.2076 24.6741C29.5665 24.5453 29.8539 24.2849 30.017 23.9401C30.1801 23.5953 30.1987 23.2071 30.0705 22.8483C29.9647 22.5503 29.7629 22.296 29.4967 22.1255L30.5514 21.7857C30.9508 21.6569 31.2753 21.3807 31.466 21.0072C31.6567 20.6337 31.6899 20.2085 31.5605 19.8102C31.4535 19.4781 31.2385 19.1914 30.9496 18.9957L31.1448 18.9389C31.3464 18.8811 31.5341 18.7831 31.6968 18.6508C31.8594 18.5184 31.9935 18.3545 32.091 18.1688C32.1897 17.9839 32.25 17.7809 32.268 17.5721C32.2859 17.3632 32.2613 17.1529 32.1956 16.9538Z" fill="white"/>
  <path d="M16.5938 30.376C16.2964 30.3752 16.0032 30.3068 15.7363 30.176C15.4693 30.0451 15.2357 29.8551 15.0531 29.6205C14.838 29.7468 14.5931 29.8134 14.3438 29.8135C13.5681 29.8135 12.9375 29.1824 12.9375 28.4072C12.9375 27.6321 13.5681 27.001 14.3438 27.001C14.5952 27.001 14.8387 27.0685 15.0531 27.1939C15.3574 26.8035 15.7982 26.5428 16.2869 26.4643C16.7756 26.3857 17.2759 26.495 17.6873 26.7704C17.8154 26.5816 17.9877 26.427 18.1893 26.3201C18.3909 26.2132 18.6156 26.1573 18.8438 26.1572C19.6194 26.1572 20.25 26.7884 20.25 27.5635C20.25 28.3386 19.6194 28.9697 18.8438 28.9697C18.7234 28.9697 18.603 28.9534 18.486 28.9219C18.373 29.3379 18.1268 29.7053 17.785 29.968C17.4433 30.2306 17.0248 30.3739 16.5938 30.376ZM15.1914 28.7605L15.3681 29.0811C15.4884 29.3015 15.6655 29.4856 15.881 29.6144C16.0966 29.7432 16.3427 29.8119 16.5938 29.8135C16.9481 29.8114 17.2887 29.6756 17.5472 29.4332C17.8057 29.1908 17.9632 28.8597 17.9882 28.5062L18.0208 28.0495L18.4134 28.2846C18.549 28.3662 18.6941 28.4072 18.8438 28.4072C19.3089 28.4072 19.6875 28.0287 19.6875 27.5635C19.6875 27.0983 19.3089 26.7197 18.8438 26.7197C18.4832 26.7197 18.1637 26.952 18.0484 27.298L17.9049 27.7277L17.5838 27.4088C17.3208 27.1471 16.9647 27.0004 16.5938 27.001C16.3427 27.0025 16.0966 27.0712 15.881 27.2C15.6655 27.3288 15.4884 27.513 15.3681 27.7334L15.192 28.0534L14.9276 27.8003C14.7711 27.6486 14.5617 27.5636 14.3438 27.5635C13.8786 27.5635 13.5 27.942 13.5 28.4072C13.5 28.8724 13.8786 29.251 14.3438 29.251C14.5609 29.251 14.7684 29.1672 14.9276 29.0142L15.1914 28.7605Z" fill="white"/>
  <path d="M19.4062 33.1875C18.6306 33.1875 18 32.5564 18 31.7812C18 31.0061 18.6306 30.375 19.4062 30.375C20.1819 30.375 20.8125 31.0061 20.8125 31.7812C20.8125 32.5564 20.1819 33.1875 19.4062 33.1875ZM19.4062 30.9375C18.9411 30.9375 18.5625 31.3161 18.5625 31.7812C18.5625 32.2464 18.9411 32.625 19.4062 32.625C19.8714 32.625 20.25 32.2464 20.25 31.7812C20.25 31.3161 19.8714 30.9375 19.4062 30.9375Z" fill="white"/>
</svg>