<svg xmlns="http://www.w3.org/2000/svg" width="313" height="574" viewBox="0 0 313 574" fill="none">
  <path opacity="0.04" d="M340.158 273.676L340.142 273.468C344.717 268.132 349.689 263.602 354.524 258.916C359.501 254.134 364.119 248.99 368.338 243.528C372.558 238.79 374.822 232.63 374.673 226.291C372.567 224.528 370.393 230.014 368.287 230.972C364.881 233.764 362.272 237.403 360.721 241.522C357.923 248.688 352.841 252.347 349.187 258.199C344.796 265.363 343.525 261.944 347.051 255.517C350.39 248.398 352.313 240.699 352.715 232.848C352.743 231.19 353.101 229.554 353.767 228.035C355.188 223.979 355.558 219.63 354.842 215.392C354.217 215.441 353.913 216.385 353.599 217.205C349.715 225.681 346.554 234.469 344.149 243.475C342.346 248.708 340.163 253.802 337.617 258.718C335.058 263.563 332.403 268.248 329.927 273.087C329.47 276.388 315.74 292.313 319.614 282.259C322.045 274.074 322.411 265.416 320.68 257.056C319.578 248.769 318.033 241.269 320.44 234.467C321.081 232.994 320.01 232.7 319.572 234.074C317.747 239.436 316.768 245.048 316.668 250.71C316.251 257.232 315.847 263.92 315.804 268.235C315.495 271.293 314.886 274.313 313.987 277.252C312.97 280.09 311.785 282.866 310.439 285.565C307.752 290.922 304.79 295.966 301.769 300.805C298.3 305.47 293.762 309.238 288.537 311.794C288.139 311.531 288.476 311.003 288.443 310.587C290.256 306.93 290.475 302.726 292.368 299.021C295.344 292.12 296.92 284.698 297.006 277.185C297.728 269.719 298.084 262.406 302.132 256.232C302.59 255.652 302.747 254.97 302.337 254.541C297.005 258.764 294.829 265.84 293.409 273.486C292.236 281.018 290.146 288.378 287.184 295.403C282.556 305.139 277.093 314.457 270.856 323.252C268.479 327.962 264.551 331.711 259.732 333.868C263.56 326.1 265.839 317.662 266.443 309.025C266.792 300.425 268.129 291.893 270.426 283.597C270.746 282.316 272.868 275.621 270.411 278.532C267.806 287.107 262.979 294.598 262.457 303.556C261.53 308.991 259.806 314.259 257.339 319.191C254.995 324.24 253.004 329.444 251.377 334.766C249.438 343.29 243.286 347.199 237.333 351.512C236.58 352.072 236.125 351.605 236.589 350.564C238.42 345.883 239.841 341.053 240.836 336.127C241.924 331.228 243.191 326.483 244.577 321.645C244.907 320.489 245.743 318.833 244.617 318.376C243.492 317.919 243.131 319.747 242.666 320.788C238.681 331.563 234.153 342.38 229.17 352.73C227.996 356.162 226.246 359.369 223.995 362.215C221.749 364.988 219.253 367.55 216.54 369.868C213.871 372.21 211.112 374.475 208.43 376.65C205.687 378.744 203.063 380.988 200.568 383.371C210.774 363.072 225.304 342.311 235.16 320.741C242.802 306.292 250.119 291.449 256.391 276.101C259.71 264.254 266.647 253.735 276.234 246.012C277.827 244.172 279.847 242.751 282.117 241.872C292.564 238.217 303.794 236.008 313.91 230.242C313.81 228.952 309.64 229.233 308.621 229.605C305.641 230.697 302.468 231.17 299.298 230.997C294.356 230.5 289.422 234.441 284.639 232.76C282.905 232.015 282.78 231.48 284.401 229.68C288.755 226.371 293.437 217.551 298.39 219.261C306.751 225.48 316.794 220.934 325.51 225.241C327.725 226.242 336.915 228.545 338.122 225.73C334.996 221.074 328.67 223.824 324.617 220.747C318.597 218.241 313.432 213.24 307.617 210.131C307.049 209.84 306.671 209.284 307.481 208.384C315.448 197.593 324.221 208.05 333.092 205.145C338.386 204.232 343.584 201.527 348.936 202.453C349.827 202.593 351.565 202.835 351.622 200.863C351.367 197.575 342.827 200.414 340.752 197.979C334.913 192.402 328.954 198.264 323.181 195.697C323.009 195.615 322.862 195.489 322.755 195.332C322.647 195.175 322.583 194.992 322.568 194.802C322.553 194.613 322.589 194.422 322.671 194.251C322.753 194.079 322.879 193.932 323.036 193.824C329.731 184.472 336.712 186.946 345.033 186.678C347.77 187.388 349.21 182.168 351.922 183.089C355.906 183.66 359.896 181.592 363.89 182.832C364.223 182.806 364.598 182.777 364.713 182.098C364.552 180.018 362.219 180.198 361.132 179.696C354.312 178.36 347.642 176.352 341.22 173.702C341.158 172.911 341.543 172.463 341.882 171.976C344.096 169.167 346.219 165.193 348.574 162.038C350.928 158.884 353.35 156.603 356.584 157.232C366.018 159.976 372.606 147.618 381.439 146.934C382.113 147.116 382.825 147.103 383.492 146.895C384.159 146.688 384.752 146.295 385.204 145.763C388.333 140.706 377.975 142.806 376.475 141.29C368.258 136.4 351.651 155.771 363.12 134.453C365.71 127.847 369.194 121.423 372.07 114.711C375.192 107.49 376.677 99.6693 376.416 91.8087C375.024 80.3197 369.887 107.637 367.58 109.239C366.831 111.474 365.52 110.78 365.558 108.014C364.464 99.7173 364.096 91.3409 364.458 82.9799C364.393 82.1476 364.768 81.0301 363.902 80.6785C361.046 87.6662 359.894 95.2315 360.54 102.751C361.276 110.597 360.815 118.51 359.171 126.218C351.867 150.982 356.08 123.652 352.442 115.644C350.516 110.331 349.93 104.624 350.737 99.0302C351.518 96.6671 349.665 96.015 349.454 98.1665C348.065 106.375 347.796 114.733 348.654 123.013C348.976 127.175 349.298 131.336 349.178 135.742C349.177 139.997 348.733 144.24 347.853 148.404C347.258 152.734 345.986 156.943 344.083 160.879C342.394 164.272 339.94 167.228 336.913 169.514C339.112 161.632 340.021 153.446 339.605 145.275C339.669 136.897 338.65 128.602 338.855 120.423C338.803 119.757 338.732 118.841 338.069 118.934C337.406 119.028 336.861 120.661 336.817 121.711C336.891 129.701 334.708 137.239 335.548 145.379C335.265 149.169 334.658 152.928 333.735 156.614C333.319 162.274 331.608 167.764 328.732 172.659C327.722 174.342 327 176.18 326.597 178.1C326.235 180.472 320.841 194.162 320.895 185.659C320.406 182.608 320.293 179.51 320.558 176.432C321.376 168.806 320.85 161.096 319.003 153.652C318.939 152.82 318.862 151.821 317.948 151.933C316.931 154.406 316.604 157.108 317.003 159.752C317.147 162.753 317.128 165.759 316.946 168.757C317.356 176.784 315.664 184.78 312.035 191.955C309.026 198.152 304.27 203.336 298.353 206.872C296.715 207.919 297.262 205.239 297.637 204.122C300.506 197.327 300.688 189.4 302.9 182.237C303.357 180.467 303.457 178.623 303.193 176.814C303.112 175.773 302.106 175.223 301.927 176.703C300.624 180.99 299.232 185.745 297.737 190.257C296.242 194.768 294.789 199.277 293.274 203.539C290.715 207.295 288.743 211.593 286.491 215.535C284.284 218.427 281.884 220.999 279.53 223.61C276.988 226.231 274.684 229.071 272.642 232.098C272.457 232.405 271.944 232.822 271.768 232.71C271.591 232.598 271.687 231.669 271.645 231.128C277.844 208.878 286.646 187.766 292.746 165.314C295.393 155.648 303.703 155.255 308.983 149.278C312.619 146.169 315.931 142.7 318.869 138.926C321.887 134.907 324.655 130.708 327.159 126.352C329.19 123.348 328.214 119.949 326.033 124.262C322.482 129.931 317.734 134.756 312.122 138.401C306.668 141.368 301.802 145.306 297.765 150.021C297.249 150.396 296.682 150.105 296.916 149.333C297.381 146.129 298.521 143.06 300.26 140.327C301.999 137.595 304.298 135.261 307.005 133.481C312.7 129.806 317.31 124.68 320.358 118.631C325.877 108.933 332.171 99.6958 339.176 91.0078C339.477 90.5659 340.006 89.8132 339.627 89.2564C338.646 87.9508 337.91 90.3523 337.115 90.9162C328.994 100.797 321.232 110.441 313.092 120.073C311.939 121.962 300.571 129.415 302.389 123.12C304.27 114.937 304.489 109.1 306.035 104.166C307.768 98.6986 311.103 93.8758 315.609 90.3205C317.65 89.6182 326.84 82.7107 325.899 79.7691C324.389 77.5835 318.072 86.9481 314.463 85.8041C311.572 86.9071 310.59 83.9688 313.41 82.4945C317.758 79.6459 319.676 74.0968 321.311 68.1508C322.174 62.3301 324.24 56.7522 327.378 51.772C333.579 42.5419 332.395 38.6144 325.768 48.8404C321.81 53.3811 318.533 58.472 316.04 63.9536C315.48 65.9228 310.922 71.4671 311.692 65.7137C312.301 58.968 310.532 50.7318 313.289 45.2014C317.617 37.6632 320.705 29.4802 322.436 20.9646C323.445 18.2908 320.344 15.6003 319.682 18.4147C314.868 26.0721 313.65 26.585 312.815 22.8398C311.56 15.5842 309.421 8.50924 306.448 1.77196C305.001 -2.30258 303.948 1.96543 303.875 3.72945C302.686 9.46064 302.476 15.3511 303.254 21.1518C303.676 26.6036 303.225 29.9878 300.272 25.9462C299.32 25.0152 298.245 23.5911 297.233 24.5906C295.554 26.7301 298.043 30.7239 298.881 33.4222C301.249 38.7196 303.97 43.8518 307.028 48.7842C307.845 49.8318 308.272 51.131 308.235 52.4587C307.63 54.3895 307.375 73.835 305.357 69.4278C303.339 65.0207 301.908 60.6101 300.14 56.1836L297.653 49.51L294.923 42.9392C293.56 39.9467 290.873 38.2707 290.333 34.5446C289.864 31.734 287.195 32.9873 288.221 35.4198C288.813 40.6841 289.791 45.8977 291.148 51.0185C292.267 56.198 293.824 61.2736 295.801 66.1905C296.664 68.1332 297.707 70.2295 298.743 72.2426C299.779 74.2557 300.706 76.4865 301.543 78.6405C303.414 82.8372 303.908 87.5173 302.956 92.012C302.294 95.9149 290.992 78.7876 291.376 75.618C290.962 74.0591 288.251 68.2821 286.995 69.3842C285.739 70.4862 287.195 71.9644 287.705 73.139C289.702 77.6608 291.193 82.3895 292.15 87.2386C292.998 91.8651 295.326 96.0918 298.783 99.2848C302.73 102.622 299.162 110.141 298.853 114.812C298.489 116.598 298.676 119.556 297.31 119.787C295.945 120.019 296.812 116.602 296.1 114.983C294.586 111.976 293.479 108.782 292.808 105.483C292.364 101.647 290.864 98.0098 288.474 94.9754C286.065 92.1301 284.132 88.9151 282.749 85.4546C281.093 79.8733 278.339 74.678 274.65 70.1726C271.046 65.6347 268.704 60.2273 267.861 54.4962C267.819 53.9552 267.043 52.5918 266.835 52.608C265.918 52.6789 266.627 53.7124 266.633 54.3399C266.186 58.7036 266.728 63.1119 268.219 67.2375C269.56 70.483 271.186 73.6225 272.854 76.7589L277.781 86.2578C279.33 89.4872 280.796 92.7229 282.064 96.0996C283.243 99.5177 284.091 103.041 284.597 106.621C285.019 110.104 285.706 113.55 286.652 116.928C287.505 120.339 288.151 123.798 288.586 127.287C289.431 131.701 289.327 136.859 293.178 139.491C294.64 140.509 292.453 146.916 291.572 147.989C290.048 145.504 289.062 142.728 288.678 139.84C288.354 136.029 286.73 132.445 284.078 129.688C279.723 124.351 276.208 118.384 273.654 111.99C273.15 110.899 273.383 108.494 271.839 109.116C270.294 109.738 271.442 111.575 271.545 112.907C277.028 126.884 283.633 140.733 288.146 155.706C288.874 161.077 288.093 166.544 285.89 171.497C283.946 177.257 281.542 183.012 280.339 187.501C279.135 191.99 277.784 188.075 277.937 185.719C278.98 180.238 277.962 174.665 278.523 168.927C278.456 168.053 279.226 162.3 279.166 157.741C279.107 153.182 278.765 149.86 277.219 153.705C276.468 158.62 275.463 163.512 274.161 168.344C274.211 172.234 272.649 171.559 271.994 168.512C269.057 161.296 267.685 153.54 267.969 145.755C268.224 140.663 267.829 135.558 266.793 130.565C265.903 125.568 265.103 120.648 264.13 115.658C263.769 110.997 261.112 111.328 262.672 115.771C263.405 120.634 263.785 125.544 263.809 130.461C263.914 135.35 263.747 140.241 263.309 145.111C262.981 151.165 256.632 136.292 256.256 134.144C251.806 114.017 248.23 93.821 251.565 73.5509C252.218 72.2444 250.638 64.8308 249.585 68.5546C249.874 71.7384 249.404 74.9454 248.214 77.9131C246.844 82.9593 245.792 88.316 244.461 93.3173C243.663 101.417 246.416 109.912 245.686 118.342C246.713 122.951 244.678 122.104 243.728 118.494C240.895 110.709 238.732 102.697 237.263 94.5445C236.482 90.4184 235.91 86.276 235.479 82.3322C235.048 78.3883 234.418 74.0412 234.096 69.8795C234.086 68.2942 234.159 66.7094 234.315 65.1317C234.215 63.8416 235.487 61.8592 234.025 61.3862C232.563 60.9133 232.875 63.3173 232.472 64.6045C231.537 70.2743 231.056 76.0094 231.033 81.7553C230.812 87.5686 231.178 93.3892 232.127 99.1288C232.236 100.544 233.465 102.877 232.449 103.29C227.029 102.035 225.662 89.7908 224.98 84.2336C224.658 80.072 222.252 76.0716 222.353 71.4167C219.448 67.9993 220.443 86.8037 221.222 88.7529C221.264 89.2939 221.652 89.9757 221.338 90.2512C219.819 90.1176 217.656 84.382 215.372 78.1534C213.087 71.9248 211.508 65.5997 211.11 63.7047C210.711 61.8097 209.454 59.1021 207.454 59.8012C205.454 60.5002 206.702 62.5388 206.86 64.0338C206.861 67.8434 211.722 72.7003 210.691 75.627C209.727 76.1622 209.258 74.4401 208.851 73.5087C205.763 67.8338 202.077 62.5052 197.854 57.6138C197.152 56.1191 195.351 56.6773 195.733 58.3642C196.051 63.4363 198.361 68.1773 202.161 71.5566C205.533 74.9854 208.622 78.6804 211.399 82.6056C211.672 82.8776 211.957 83.316 211.48 83.646C211.002 83.976 210.563 83.717 210.246 83.4067C205.706 78.9018 199.591 80.5892 194.632 77.7077C189.131 77.045 201.276 85.5664 202.901 85.4406C210.033 88.2376 218.2 90.3266 222.46 98.2444C223.416 99.7613 222.861 100.181 221.608 100.236C192.002 96.7928 211.666 108.249 226.755 106.076C227.415 105.963 228.094 106.043 228.71 106.308C229.325 106.572 229.851 107.009 230.223 107.565C230.875 108.939 236.456 113.363 233.312 113.899C229.572 114.44 225.8 114.732 222.021 114.774C220.56 114.301 212.598 114.875 216.25 117.649C223.766 118.364 231.405 120.662 238.908 120.667C242.748 121.542 245.328 128.334 248.422 131.485L248.406 131.277C236.179 132.786 223.794 132.403 211.685 130.143C211.566 130.084 211.435 130.053 211.302 130.055C211.169 130.056 211.038 130.089 210.92 130.151C210.803 130.213 210.702 130.302 210.626 130.411C210.549 130.52 210.5 130.645 210.482 130.777C210.464 130.908 210.478 131.042 210.522 131.167C210.566 131.293 210.64 131.405 210.736 131.497C210.833 131.588 210.95 131.654 211.078 131.691C211.206 131.728 211.34 131.734 211.471 131.709C224.86 135.194 238.375 142.478 252.159 138.606C256.325 138.284 257.386 145.486 259.737 148.779C260.638 150.677 260.337 151.119 258.6 150.877C252.583 148.956 246.677 151.172 240.664 151.47C239.914 151.528 238.619 151.042 238.543 152.22C238.466 153.398 239.783 153.087 240.514 153.324C247.239 153.48 253.86 155.005 259.974 157.804C264.907 158.72 266.342 164.805 268.123 169.942C269.904 175.079 252.753 172.262 250.339 171.947C236.838 169.182 253.985 176.27 257.418 176.757C262.341 177.004 265.456 183.671 270.449 182.656C272.68 182.233 273.347 183.814 273.736 186.128C274.209 192.246 275.747 199.118 273.823 205.128C270.174 216.464 268.164 223.527 266.66 227.37C265.155 231.212 264.732 231.705 264.27 230.067C263.808 228.428 263.479 224.183 261.993 218.52C260.102 211.424 257.291 204.604 253.632 198.235C253.029 196.942 252.052 197.855 252.475 198.994C254.672 210.044 257.414 221.094 258.97 232.528C259.589 241.664 258.888 250.841 256.888 259.777C256.143 254.806 254.965 249.91 253.366 245.145C253.324 244.604 253.269 243.897 252.487 244.083C251.705 244.269 251.795 244.89 251.885 245.511C252.284 251.814 252.27 258.136 251.842 264.438C251.873 269.703 250.698 274.906 248.409 279.65C246.18 284.427 243.349 289.001 241.418 293.839C238.886 299.696 236.011 305.399 232.807 310.917C229.886 316.502 226.488 321.873 223.439 327.426C222.472 329.552 221.231 328.685 221.624 326.729C221.876 322.545 221.901 318.35 221.699 314.164C221.343 309.884 222.25 305.593 224.306 301.821C227.329 297.192 229.897 292.282 231.973 287.16C234.246 282.056 235.983 276.73 237.156 271.269C237.594 269.895 238.984 267.82 237.667 267.042C236.349 266.265 236.059 269.009 235.357 270.236C234.22 272.333 233.263 274.584 232.213 276.717L228.943 283.208C226.953 287.521 224.453 291.58 221.496 295.298C220.216 291.743 219.735 287.951 220.089 284.19C220.442 280.429 221.621 276.791 223.542 273.537C226.459 267.366 230.988 261.447 233.459 253.301C233.936 251.338 236.796 245.507 239.162 239.798C241.528 234.088 242.853 228.459 241.093 227.381C240.067 227.126 239.568 228.253 239.222 229.201C238.221 232.012 236.833 234.67 235.097 237.098C233.354 239.494 231.253 241.582 229.811 244.08C227.157 247.717 225.173 251.798 223.954 256.13C222.683 260.306 220.737 264.247 218.193 267.797C216.978 252.107 223.157 233.919 231.494 220.337C233.281 217.436 236.645 212.696 239.409 207.793C242.172 202.89 244.337 197.824 242.993 194.537C238.971 196.732 237.984 205.098 234.996 209.265C233.471 212.05 231.666 214.673 229.608 217.092C227.49 219.517 225.264 221.615 223.287 224.238C218.956 228.911 216.229 234.842 215.503 241.169C215.468 243.432 214.071 243.247 214.045 241.282C213.705 238.243 213.636 235.18 213.839 232.129C213.912 229.008 214.261 225.898 214.88 222.838C215.505 219.771 216.35 216.754 217.408 213.809C218.328 210.83 219.507 207.937 220.93 205.163C222.02 203.061 222.805 200.815 223.264 198.493C223.917 193.081 225.252 187.773 227.238 182.695C227.592 181.63 227.761 180.512 227.737 179.391C227.866 173.477 228.924 167.66 229.39 161.763C229.524 160.245 230.85 157.882 229.068 157.601C227.285 157.32 227.495 160.025 227.069 161.565C225.787 167.397 223.366 172.92 219.945 177.817C217.573 183.511 216.061 189.526 215.459 195.664C215.47 198.407 215.059 201.136 214.241 203.755C212.582 208.669 211.276 213.695 210.333 218.794C208.77 213.51 207.855 208.056 207.609 202.552C207.396 199.805 207.6 197.026 207.714 194.17C207.829 191.315 207.953 188.584 208.278 185.754C208.604 182.923 208.933 180.135 209.384 177.295C209.835 174.455 210.077 171.631 210.406 168.843C210.735 166.054 211.182 163.172 211.595 160.377C212.007 157.582 212.086 154.813 212.284 151.951C212.385 150.017 212.559 144.142 210.447 143.929C209.03 144.039 209.592 145.879 209.676 146.961C210.153 153.12 207.738 158.75 206.645 164.654C205.355 169.265 204.43 173.97 203.878 178.726C204.281 183.928 201.309 182.902 202.182 177.936C203.001 171.206 202.558 164.383 200.876 157.816C199.051 151.339 197.836 144.705 197.246 138.001C193.472 133.647 194.821 157.573 194.768 160.131C194.988 165.599 195.815 171.025 197.236 176.309C197.907 179.021 195.916 177.123 192.912 174.593C189.908 172.062 186.102 168.924 183.666 168.861C182.546 168.61 181.505 168.091 180.63 167.35C179.755 166.608 179.073 165.666 178.642 164.603C177.872 162.235 175.763 163.696 176.421 165.696C177.312 172.87 185.156 175.11 188.837 180.435C192.519 185.76 198.562 189.646 202.542 195.031C203.452 198.326 204.023 201.704 204.245 205.115C205.363 211.434 206.42 217.506 207.672 223.94C208.276 227.41 205.765 224.758 205.034 223.433C200.013 216.675 193.622 211.05 186.278 206.925C181.633 205.4 180.894 200.182 180.006 201.172C179.732 204.668 183.356 210.333 187.419 215.712C190.77 220.351 194.804 224.457 199.385 227.889C203.16 230.447 206.283 233.852 208.505 237.83C210.727 241.809 211.986 246.252 212.183 250.804C212.527 251.991 211.786 252.719 210.934 251.989C203.195 247.857 196.577 241.42 188.829 237.164C188.29 236.703 187.601 237.007 187.835 237.868C190.651 249.331 197.386 252.954 204.147 256.91C207.706 258.828 210.73 261.601 212.945 264.979C215.532 269.298 216.407 274.427 215.4 279.358C210.084 274.579 201.301 278.608 197.352 271.462C197.309 271.348 197.241 271.246 197.153 271.163C197.064 271.08 196.958 271.018 196.842 270.983C196.725 270.947 196.603 270.939 196.483 270.958C196.363 270.977 196.249 271.024 196.15 271.094C192.399 276.785 210.543 285.386 214.403 287.055C216.753 288.171 217.392 291.01 217.374 294.026C217.125 297.036 217.107 300.061 217.32 303.073C217.416 304.322 217.144 305.138 215.942 304.227C209.353 299.763 202.001 296.543 194.25 294.728C185.409 293.152 184.982 283.304 184.132 288.017C186.992 299.518 200.601 300.977 208.431 307.362C213.361 310.413 214.226 316.166 216.449 321.059C216.575 322.682 216.529 327.5 213.967 326.359C211.406 325.218 207.464 326.277 204.467 324.918C202.893 324.077 201.464 326.741 202.853 327.889C204.764 330.923 209.241 328.651 210.877 331.915C214.305 337.218 212.593 344.342 209.202 350.885C203.545 360.114 197.434 368.877 192.258 378.363C189.856 381.982 190.485 376.574 190.744 375.047C192.254 367.478 190.334 360.551 190.155 353.364C190.328 352.346 190.99 350.62 189.942 350.617C187.421 353.241 188.485 361.029 187.852 364.762C185.948 372.111 185.08 379.84 183.275 387.39C182.383 391.165 181.272 394.886 179.946 398.532C179.21 400.39 178.429 402.209 177.561 403.992C176.598 405.794 175.514 407.528 174.316 409.184C173.98 409.712 173.682 410.74 172.903 410.423C172.124 410.107 172.461 409.578 172.464 409.076C172.267 406.537 171.149 400.218 168.319 401.024C168.102 401.201 167.938 401.437 167.848 401.703C167.757 401.969 167.743 402.255 167.807 402.529C169.069 409.087 166.172 416.596 163.938 423.468C161.926 429.476 159.158 435.205 155.701 440.517C152.149 445.723 148.216 450.659 143.935 455.286C146.074 449.343 148.238 443.188 150.447 437.072C152.506 431.041 154.088 424.857 155.176 418.578C156.785 410.474 159.833 402.724 164.176 395.692C169.151 389.027 169.635 381.203 172.731 374.097C176.184 366.613 178.135 358.525 178.475 350.291C177.985 343.966 175.642 351.055 172.623 359.704C171.028 364.014 169.133 368.766 167.881 372.631C167.199 375.106 165.939 377.384 164.205 379.279C162.353 381.228 160.854 383.483 159.775 385.943C159.356 387.567 158.067 387.164 158.127 385.778C156.503 372.381 157.555 366.48 160.883 361.282C162.928 358.522 165.244 355.972 167.797 353.672C171.184 350.232 174.388 346.616 177.395 342.839C179.438 340.001 181.799 337.474 183.856 334.803C186.102 332.206 187.872 329.235 189.086 326.025C189.374 325.416 189.602 324.561 188.944 324.194C188.287 323.826 187.528 324.303 187.092 325.174C183.005 330.85 176.461 332.403 172.46 338.113C168.388 342.908 163.326 346.273 159.565 351.295C158.873 352.102 158.387 353.94 157.262 353.483C156.321 351.085 157.784 346.158 159.484 341.044C161.184 335.93 163.861 330.992 164.995 328.309C166.655 324.507 168.047 320.594 169.16 316.599C170.215 312.595 171.73 308.727 173.674 305.071C175.151 303.031 177.711 293.329 173.216 299.161C170.363 305.62 165.209 311.043 163.554 317.828C162.931 321.124 161.343 324.161 158.991 326.555C156.556 328.909 154.464 331.594 152.776 334.53C152.808 334.946 152.36 335.651 151.85 335.564C151.341 335.478 151.27 334.563 151.308 333.974C151.556 328.944 152.954 324.039 155.395 319.632C157.927 315.283 159.795 310.58 160.937 305.68C162.971 301.085 159.547 299.634 157.674 304.133C154.677 308.167 152.008 312.433 149.692 316.892C149.551 317.782 148.222 318.471 148.151 317.011C146.812 305.141 154.456 295.59 160.718 286.062C162.253 283.498 163.449 280.746 164.275 277.874C165.467 275.34 165.89 272.513 165.49 269.742C162.85 275.565 159.082 280.808 154.403 285.17C150.367 290.207 146.978 295.729 144.317 301.608C144.343 301.941 144.081 302.338 143.661 302.329C142.572 298.813 142.159 295.124 142.441 291.455C142.545 289.349 142.76 287.25 143.086 285.167C143.335 282.97 143.578 280.691 143.949 278.443C145.564 269.526 147.448 260.296 148.894 254.071C151.274 250.705 148.572 249.91 147.134 253.538C145.697 257.166 143.522 261.018 142.097 264.813C140.444 268.527 139.213 272.413 138.426 276.401C138.09 278.562 138.069 280.992 137.826 283.271C137.605 285.486 137.186 287.676 136.572 289.816C134.776 287.192 133.829 283.623 132.149 280.864C129.423 276.512 132.02 272.166 132.057 267.767C132.024 257.596 130.654 246.943 133.903 237.481C134.073 236.965 134.502 236.011 133.768 235.733C132.06 235.865 131.769 238.065 131.234 239.278C130.177 242.508 129.382 245.818 128.857 249.175C127.763 253.447 126.665 256.588 125.971 253.585C124.715 246.565 122.408 239.501 120.629 232.773C120.571 232.024 120.811 230.791 119.744 230.539C118.885 231.761 118.292 233.149 118.001 234.613C117.71 236.077 117.729 237.586 118.055 239.043C118.212 240.851 118.477 242.648 118.849 244.424C119.051 245.812 119.325 247.188 119.671 248.547C120.104 253.147 120.905 257.705 122.068 262.177C123.326 265.973 112.967 259.951 112.038 258.767C109.429 256.536 106.109 255.308 102.674 255.305C99.8117 254.606 99.0147 257.305 102.069 257.78C105.19 258.782 108.026 260.515 110.341 262.834C113.416 266.217 117.084 269.012 121.164 271.081C122.802 271.665 123.543 273.115 124.525 274.421C126.212 277.425 127.607 280.583 128.692 283.853C130.984 287.903 132.807 292.2 134.126 296.662C130.908 294.917 127.925 292.77 125.249 290.274C122.351 289.117 109.064 283.698 107.443 285.498C107.485 286.039 107.956 286.17 108.347 286.349C113.316 288.745 118.065 291.571 122.539 294.796C126.57 298.126 128.918 303.554 134.053 305.459C136.579 306.687 139.7 312.349 142.199 318.644C144.224 323.82 145.6 329.225 146.296 334.738C146.328 335.155 146.562 334.383 146.296 334.738C146.03 335.094 146.318 335.03 146.004 334.761C145.69 334.492 146.02 334.969 145.982 334.47C137.281 330.228 129.235 324.76 122.091 318.234C119.039 316.424 116.481 313.89 114.645 310.855C114.62 310.523 114.257 310.174 113.892 310.328C112.019 315.915 125.026 323.658 127.915 329.044C134.597 334.501 140.597 340.742 145.785 347.631C148.307 351.194 150.265 355.123 151.591 359.281C153.077 363.773 153.574 368.533 153.049 373.235L153.068 373.484C152.86 373.5 152.818 373.504 153.049 373.235C147.436 365.566 139.825 359.581 131.045 355.931C126.09 353.957 121.458 351.254 117.305 347.91C116.859 347.568 116.192 347.075 115.718 347.447C114.607 349.877 119.791 352.407 121.445 353.744C133.028 362.058 149.393 369.331 150.884 386.423C150.779 394.804 154.555 404.601 150.934 413.045C148.256 410.95 146.316 407.542 143.623 405.238C138.268 400.503 138.592 391.686 134.778 385.744C134.252 383.817 125.376 372.572 126.359 379.864C129.129 388.023 133.555 395.384 135.18 403.924C135.825 412.247 141.804 417.478 143.708 425.285C144.599 430.669 144.413 436.176 143.16 441.488C142.115 447.362 139.685 452.903 136.071 457.653C134.817 455.622 134.17 453.275 134.206 450.889C134.686 442.479 130.055 435.72 128.985 427.849C128.599 425.576 126.491 427.037 127.04 428.711C127.197 436.151 130.225 442.783 129.917 450.175C128.738 456.243 128.19 462.416 128.284 468.597C127.674 474.798 121.167 480.619 116.781 485.689C100.486 501.254 83.2801 515.839 65.2553 529.368C60.6413 532.572 56.1332 536.061 51.3332 539.028C46.5333 541.995 41.6948 545.008 36.8499 547.936C32.0051 550.865 26.8235 553.234 21.738 555.763C16.6526 558.292 11.3203 560.338 6.03598 562.463C-0.696683 565.371 -0.648588 565.451 1.6772 570.588C2.99891 573.583 3.04704 573.664 7.09428 571.801C14.7786 568.192 22.5623 564.784 29.9931 560.608C33.7358 558.602 37.5234 556.634 41.1731 554.51C44.8228 552.385 48.3698 550.017 51.9201 547.691C54.0292 546.307 56.2488 545.099 58.5563 544.079C60.7478 543.007 63.0178 542.103 65.3467 541.376C69.8523 539.969 74.539 539.226 79.259 539.169C87.7263 538.65 96.127 540.944 103.152 545.692C106.054 547.435 119.611 554.716 123.093 549.883C124.099 548.257 122.928 547.761 121.842 547.259C115.064 543.259 108.684 538.622 102.788 533.411C103.653 532.13 105.58 532.651 106.903 532.423C117.477 533.111 130.437 529.973 140.117 532.112C148.003 535.981 160.472 530.285 170.055 530.087C178.201 527.028 156.247 527.681 154.737 528.761C151.728 529.828 148.466 529.964 145.379 529.151C139.99 526.9 134.365 525.257 128.611 524.253C128.547 523.421 129.47 523.433 129.957 523.228C136.625 520.576 143.55 517.989 150.28 515.039C156.741 512.04 163.917 510.919 170.986 511.803C177.848 512.682 184.815 512.228 191.505 510.466C200.443 508.434 209.278 504.527 218.1 502.629C221.561 502.159 224.855 500.855 227.698 498.83C227.893 498.103 227.32 498.273 226.951 498.385C222.221 500.091 218.029 499.537 213.513 500.766C207.065 501.935 200.166 504.311 193.33 505.343C187.372 506.819 181.093 506.274 175.48 503.794C175.393 502.67 176.848 502.516 177.614 502.122C182.071 499.6 186.749 497.228 191.162 494.667C195.574 492.107 200.05 489.29 204.434 486.355C209.258 482.839 215.144 481.082 221.108 481.38C230.793 482.079 240.444 479.612 248.604 474.353C257.487 468.892 266.49 468.781 275.227 461.448C277.998 459.894 277.542 456.705 275.017 458.743C262.988 465.787 251.03 466.168 238.972 472.838C233.961 475.235 229.982 472.026 224.807 473.934C224.432 473.963 223.807 474.012 223.749 473.807C223.691 473.602 224.296 472.76 224.812 472.385C232.499 467.184 239.457 459.068 247.257 454.78C257.075 452.157 266.625 448.614 275.777 444.199C285.658 439.246 295.152 433.557 304.177 427.179C308.813 422.634 303.679 424.538 297.052 427.731C291.444 429.997 286.047 432.755 280.925 435.971C274.683 440.892 271.425 436.707 266.415 436.425C266.354 435.634 267.011 434.913 267.591 434.282C271.82 430.438 275.805 425.064 279.979 420.512C283.238 416.034 287.867 412.737 293.167 411.118C297.613 410.367 301.642 408.05 304.523 404.587C307.903 401.143 310.914 396.723 314.608 393.004C317.94 390.025 321.272 387.046 324.588 383.859C325.178 383.352 326.136 382.734 325.982 381.825C325.173 380.59 320.99 385.561 318.846 386.564C311.46 391.322 304.105 400.265 296.647 400.842C300.852 392.897 308.267 388.513 311.292 379.404C312.053 377.303 313.146 375.339 314.53 373.585C320.1 366.497 323.132 357.47 326.984 349.301C328.31 346.938 326.409 345.662 325.083 347.481C323.123 349.475 321.608 351.861 320.637 354.482C319.518 357.103 318.185 359.629 316.653 362.033C313.407 365.987 310.494 370.203 307.947 374.639C305.277 379.012 302.279 383.177 298.978 387.097C297.947 388.936 296.921 388.68 297.558 386.621C298.822 381.862 299.541 376.975 299.699 372.054C299.688 367.153 300.281 362.27 301.466 357.515C301.971 355.383 302.767 349.962 300.396 350.732C300.159 350.971 299.984 351.263 299.884 351.584C299.785 351.905 299.765 352.246 299.826 352.576C299.91 355.923 299.111 359.234 297.509 362.175C293.112 378.563 287.783 394.686 281.549 410.468C279.242 414.864 276.187 418.827 272.522 422.178C269.023 425.714 265.339 429.014 262.228 432.688C260.886 434.299 260.043 433.694 261.157 431.85C263.353 425.023 265.514 418.283 267.344 411.61C269.034 404.952 270.317 398.198 271.185 391.385C271.466 389.513 272.109 387.714 273.08 386.088C275.326 382.607 272.703 381.219 270.538 384.108C268.098 386.565 266.482 389.718 265.914 393.132C265.027 397.029 263.925 400.874 262.614 404.65C261.276 408.479 259.591 412.168 258.042 415.973C256.492 419.777 254.978 423.495 253.678 427.279C252.316 430.983 251.209 434.776 250.365 438.63C249.547 442.974 247.319 446.927 244.027 449.881C240.83 452.975 236.921 455.538 233.771 458.169C232.983 458.816 232.114 458.967 232.492 457.891C232.991 454.037 234.01 450.268 235.523 446.687C237.414 443.059 238.424 439.036 238.47 434.946C238.845 428.972 238.532 423.302 238.501 417.485C238.228 411.34 238.897 405.19 240.484 399.246C240.706 398.084 240.699 396.89 240.463 395.731C240.713 394.079 237.737 391.379 237.694 394.606C239.071 400.486 232.119 407.597 232.535 414.598C231.045 423.505 231.366 432.524 228.345 441.675C224.661 448.24 223.668 455.434 218.827 461.67C211.575 471.4 201.902 478.01 193.806 486.592C190.788 488.692 187.665 490.639 184.449 492.424C181.187 494.142 177.919 495.776 174.731 497.363C174.208 497.655 173.449 498.132 173.189 497.482C172.929 496.832 173.701 496.522 174.089 496.115C182.163 488.875 185.024 479.275 189.767 470.702C191.077 465.457 193.223 460.456 196.123 455.892C199.194 451.308 201.547 446.284 203.101 440.992C204.297 436.552 206.386 432.401 209.24 428.794C212.042 425.152 214.354 421.159 216.117 416.916C213.896 417.465 210.402 423.764 207.704 425.731C203.474 429.814 200.272 434.839 198.361 440.396C196.412 445.945 193.749 451.218 190.438 456.081C186.621 462.225 182.447 468.14 177.935 473.795C174.179 481.092 169.136 487.653 163.046 493.16C159.378 496.668 156.866 499.416 154.861 501.664C152.855 503.913 151.414 505.867 149.742 507.545C146.48 510.896 142.318 513.437 131.188 515.848C133.59 512.773 136.127 509.813 138.315 506.672C140.505 503.531 142.436 500.217 144.087 496.763C145.855 493.375 148.148 490.287 150.881 487.613C152.547 485.307 157.529 481.99 156.416 479.523C155.829 478.982 154.874 479.642 154.07 480.081C146.059 484.888 140.457 492.648 133.953 499.599C128.901 504.177 124.233 509.939 119.3 514.968C114.612 520.036 108.502 523.574 101.769 525.117C99.9661 525.302 98.195 525.721 96.5003 526.362L86.9374 528.987C80.4927 530.742 75.2144 531.862 78.6045 529.632C97.5024 515.611 115.072 499.886 131.091 482.656C133.609 480.61 136.265 478.739 139.04 477.058C141.754 475.299 144.526 473.745 147.384 472.225C150.242 470.706 153.053 469.107 155.853 467.383C158.635 465.614 161.284 463.646 163.78 461.494C167.724 458.3 172.848 456.271 177.142 453.259C180.708 451.685 179.82 448.865 176.442 451.262C172.083 453.623 167.501 455.549 162.762 457.01C158.095 458.565 153.629 460.667 149.457 463.273C148.858 463.654 147.871 464.443 147.583 463.963C155.152 453.454 165.243 442.5 171.876 430.724C174.398 426.344 177.798 422.531 181.865 419.526C189.69 414.205 198.586 410.659 207.928 409.135C209.549 408.423 213.161 408.521 213.785 406.295C214.409 404.07 202.549 407.877 200.286 407.34C195.617 407.884 191.129 409.462 187.147 411.958C181.947 416.254 180.93 413.947 185.412 409.036C191.504 400.666 198.831 393.267 207.143 387.091C210.965 384.437 215.129 382.312 219.522 380.773C223.881 379.184 228.486 378.374 233.126 378.38C241.079 379.11 249.096 378.104 256.621 375.431C264.521 372.977 272.612 369.755 280.608 368.005C281.704 367.544 286.393 366.93 286.338 365.134C286.267 364.218 285.088 365.23 284.338 365.288C272.939 369.102 262.323 368.416 251.417 369.931C244.017 371.801 238.154 368.069 231.218 367.81C230.051 367.901 228.052 369.144 227.929 367.563C227.807 365.981 229.868 365.529 230.87 364.404C234.484 361.278 238.155 364.301 241.886 363.216C247.321 361.414 253.135 362.89 258.403 360.012C253.682 358.577 247.481 361.318 242.855 358.955C237.429 358.705 239.171 355.765 243.545 353.249C252.431 349.463 260.477 351.604 268.995 350.107C269.764 349.754 276.857 348.786 283 347.473C289.144 346.16 294.265 344.634 291.092 343.707C284.053 341.942 276.708 341.767 269.592 343.195C265.099 344.171 259.712 346.597 256.147 343.859C256.079 342.985 256.794 342.469 257.348 342.049C260.793 339.982 264.384 336.564 267.95 333.902C269.29 332.504 270.946 331.446 272.778 330.816C274.61 330.186 276.566 330.003 278.484 330.281C291.151 331.478 304.822 327.782 316.747 332.385C318.038 332.285 321.065 334.018 321.955 331.981C322.845 329.945 314.432 329.55 312.988 327.694C305.496 322.412 293.341 327.289 287.242 319.974C292.144 315.073 297.953 311.609 303.003 306.99C303.664 306.359 304.485 305.919 305.378 305.717C306.27 305.515 307.2 305.559 308.069 305.844C312.961 307.307 318.504 303.654 323.629 302.713C330.764 300.569 338.455 301.279 345.075 304.695C346.732 304.985 355.635 311.706 356.166 309.363C356.582 308.242 355.723 307.973 355.281 307.673C346.178 298.372 334.575 298.474 322.736 298.219C321.29 297.954 313.944 298.355 317.997 294.399C320.185 291.879 322.89 289.858 325.929 288.474C328.968 287.09 332.269 286.376 335.609 286.379C339.955 286.699 344.287 285.584 347.937 283.205C354.85 278.431 363.083 275.934 371.485 276.065C372.902 275.956 375.463 276.553 376.267 273.937C376.151 272.439 375.045 272.775 374.327 272.705C368.963 272.699 363.665 271.523 358.803 269.26C349.312 265.222 346.334 273.324 340.299 273.33L340.158 273.676ZM200.235 182.567L199.36 181.546C199.821 179.919 200.924 181.718 200.235 182.567Z" fill="#111111"/>
</svg>