<svg xmlns="http://www.w3.org/2000/svg" width="184" height="325" viewBox="0 0 184 325" fill="none">
  <path opacity="0.04" d="M102.065 267.728L102.003 267.529C95.7842 264.253 89.4928 261.874 83.2718 259.298C76.8822 256.686 70.695 253.606 64.7606 250.082C59.0919 247.232 54.7176 242.34 52.5204 236.391C53.8294 233.977 57.8712 238.275 60.1816 238.391C64.3765 239.731 68.1431 242.153 71.102 245.411C76.3436 251.043 82.4159 252.572 87.9689 256.665C94.6906 261.708 94.6125 258.062 88.9666 253.386C83.2398 247.997 78.6154 241.548 75.3499 234.397C74.7128 232.867 73.7776 231.478 72.5986 230.311C69.7836 227.063 67.8374 223.156 66.9416 218.953C67.5405 218.768 68.1712 219.534 68.7649 220.181C75.4983 226.63 81.6748 233.635 87.2286 241.122C90.8322 245.322 94.7386 249.254 98.9165 252.886C103.08 256.447 107.275 259.825 111.359 263.411C113 266.312 131.631 276.059 124.326 268.139C119.051 261.425 115.52 253.511 114.05 245.102C112.022 236.991 110.695 229.449 105.951 224.013C104.813 222.88 105.7 222.212 106.614 223.328C110.285 227.64 113.263 232.497 115.442 237.724C118.232 243.633 121.072 249.702 122.702 253.698C124.115 256.427 125.793 259.01 127.712 261.411C129.704 263.675 131.828 265.819 134.073 267.832C138.545 271.823 143.157 275.421 147.748 278.807C152.692 281.866 158.298 283.697 164.098 284.148C164.371 283.758 163.863 283.39 163.74 282.992C160.708 280.259 158.955 276.432 155.83 273.685C150.522 268.365 146.322 262.046 143.474 255.093C140.053 248.418 137.028 241.751 130.989 237.502C130.35 237.132 129.953 236.556 130.177 236.006C136.689 237.968 141.319 243.744 145.456 250.329C149.321 256.9 153.976 262.972 159.317 268.412C167.207 275.758 175.718 282.408 184.756 288.287C188.701 291.79 193.734 293.828 199.009 294.059C192.588 288.246 187.36 281.242 183.617 273.434C180.125 265.568 175.739 258.128 170.547 251.262C169.778 250.189 165.338 244.747 168.695 246.548C174.276 253.56 181.523 258.746 185.308 266.882C188.172 271.593 191.717 275.856 195.827 279.532C199.865 283.362 203.634 287.467 207.107 291.815C212.049 299.025 219.209 300.393 226.332 302.209C227.239 302.453 227.49 301.851 226.675 301.054C223.249 297.377 220.148 293.41 217.408 289.197C214.592 285.043 211.666 281.099 208.595 277.111C207.863 276.158 206.476 274.927 207.353 274.087C208.231 273.248 209.24 274.814 210.055 275.611C217.73 284.16 225.925 292.548 234.37 300.334C236.726 303.092 239.534 305.43 242.676 307.246C245.785 308.996 249.049 310.458 252.426 311.614C255.769 312.808 259.169 313.897 262.463 314.932C265.784 315.868 269.051 316.987 272.249 318.284C255.282 303.172 234.126 289.224 217.016 272.802C204.589 262.184 192.319 251.081 180.833 239.123C173.383 229.332 163.06 222.109 151.301 218.461C149.143 217.337 146.741 216.76 144.307 216.779C133.248 217.229 121.994 219.313 110.466 217.679C110.083 216.443 114.063 215.168 115.148 215.139C118.321 215.056 121.445 214.327 124.328 212.998C128.74 210.716 134.778 212.561 138.605 209.237C139.943 207.905 139.863 207.362 137.693 206.286C132.425 204.813 124.823 198.339 120.849 201.753C115.367 210.614 104.355 210.088 97.8389 217.304C96.1483 219.05 88.4531 224.576 86.2939 222.404C87.4855 216.924 94.3795 217.15 97.0133 212.797C101.687 208.249 104.647 201.697 108.908 196.665C109.328 196.185 109.475 195.528 108.39 194.99C97.0082 187.893 92.7043 200.847 83.3873 201.414C78.1291 202.516 72.3007 201.916 67.6652 204.748C66.8885 205.207 65.3626 206.072 64.5832 204.26C63.6087 201.109 72.594 200.602 73.6258 197.574C76.9994 190.238 84.6989 193.493 89.1204 188.979C89.2497 188.839 89.34 188.668 89.3822 188.482C89.4244 188.297 89.4169 188.103 89.3607 187.922C89.3045 187.74 89.2014 187.576 89.0618 187.447C88.9222 187.317 88.7509 187.227 88.5653 187.185C78.8961 180.957 73.3168 185.829 65.4832 188.645C63.1996 190.313 59.938 185.991 57.756 187.846C54.2623 189.844 49.7919 189.392 46.5355 192.016C46.2161 192.115 45.8567 192.226 45.4997 191.637C44.8829 189.644 47.1186 188.952 47.944 188.085C53.7917 184.331 59.2529 180.007 64.2476 175.177C64.0133 174.419 63.4907 174.144 62.9957 173.816C59.903 172.021 56.4649 169.108 53.1139 167.043C49.7628 164.977 46.6708 163.749 43.8958 165.525C36.1367 171.552 25.4595 162.49 16.9959 165.108C16.4363 165.526 15.7694 165.775 15.0731 165.828C14.3767 165.881 13.6798 165.735 13.0639 165.407C8.29181 161.858 18.6949 159.995 19.5312 158.032C25.3684 150.459 47.944 162.35 29.4284 146.756C24.5867 141.569 18.9807 136.88 13.8349 131.7C8.27197 126.137 4.01086 119.413 1.35719 112.009C-1.58074 100.815 13.2578 124.319 15.9927 124.959C17.5125 126.761 18.4758 125.633 17.4221 123.075C15.382 114.959 12.6383 107.036 9.22217 99.396C8.97545 98.5985 8.21557 97.6976 8.89067 97.0518C14.1199 102.496 17.9784 109.105 20.1482 116.333C22.3537 123.899 25.6977 131.085 30.0658 137.645C45.9789 157.977 31.994 134.122 32.4259 125.337C32.2593 119.687 30.7017 114.166 27.8907 109.263C26.294 107.354 27.7763 106.065 28.7648 107.987C33.0805 115.106 36.4101 122.778 38.6626 130.792C39.8962 134.779 41.1297 138.767 42.8642 142.818C44.4331 146.773 46.4092 150.555 48.7606 154.102C50.9091 157.908 53.6427 161.352 56.8616 164.31C59.6821 166.843 63.0526 168.686 66.708 169.697C61.7605 163.179 57.8999 155.904 55.2757 148.154C52.1298 140.389 50.0219 132.302 46.818 124.773C46.6206 124.135 46.3492 123.258 47.0003 123.1C47.6514 122.942 48.759 124.26 49.1871 125.22C52.0623 132.676 56.8682 138.879 59.0865 146.757C60.7457 150.175 62.6942 153.446 64.9105 156.533C67.3824 161.642 70.9959 166.115 75.4726 169.607C77.0313 170.799 78.3797 172.242 79.4622 173.878C80.672 175.951 90.7305 186.69 87.5477 178.805C86.878 175.789 85.8418 172.867 84.4622 170.103C80.8915 163.315 78.5402 155.953 77.5148 148.352C77.2681 147.555 76.9721 146.598 77.8627 146.366C79.7195 148.29 81.0187 150.682 81.622 153.286C82.5929 156.129 83.7182 158.917 84.9928 161.637C87.5679 169.251 92.0869 176.061 98.1034 181.394C103.184 186.047 109.515 189.115 116.319 190.221C118.227 190.592 116.732 188.302 115.972 187.401C110.801 182.141 107.711 174.839 103.016 168.995C101.939 167.517 101.168 165.84 100.746 164.061C100.438 163.064 101.171 162.181 101.882 163.491C104.673 166.997 107.719 170.904 110.771 174.548C113.823 178.192 116.835 181.848 119.812 185.252C123.576 187.802 126.993 191.07 130.538 193.906C133.656 195.781 136.834 197.289 139.985 198.848C143.313 200.349 146.502 202.14 149.515 204.202C149.8 204.419 150.43 204.617 150.553 204.448C150.676 204.279 150.245 203.451 150.084 202.933C136.124 184.531 120.164 168.147 106.222 149.521C100.2 141.509 92.3297 144.206 85.2196 140.595C80.6937 139.044 76.3364 137.039 72.2144 134.612C67.9288 131.988 63.8083 129.104 59.8759 125.977C56.8812 123.932 56.536 120.413 60.1526 123.619C65.5422 127.581 71.7334 130.318 78.2937 131.639C84.4577 132.388 90.4321 134.257 95.9219 137.153C96.5395 137.311 96.9598 136.832 96.4583 136.2C94.8453 133.393 92.655 130.959 90.0316 129.06C87.4082 127.16 84.4113 125.838 81.2384 125.18C74.5903 123.862 68.4163 120.794 63.3542 116.293C54.65 109.311 45.3964 103.042 35.683 97.5457C35.2403 97.2457 34.4716 96.7407 34.6183 96.0836C35.0496 94.5083 36.6188 96.4697 37.5652 96.7012C48.755 102.896 59.5239 109.002 70.6397 114.957C72.4077 116.289 85.7224 119.03 81.7133 113.847C76.9494 106.932 74.596 101.587 71.341 97.569C67.715 93.125 62.8378 89.8701 57.3395 88.2246C55.183 88.3237 44.0953 85.2873 43.8858 82.2062C44.4848 79.6178 53.807 85.9969 56.7411 83.6037C59.8347 83.5642 59.6651 80.4708 56.5004 80.139C51.4087 79.0926 47.5817 74.6401 43.8709 69.7148C40.9243 64.6215 36.9486 60.197 32.1968 56.723C23.0313 50.4266 22.6855 46.339 32.6137 53.4044C37.9662 56.1676 42.888 59.6933 47.2248 63.8711C48.471 65.4954 54.7514 68.9705 51.9159 63.9054C48.8643 57.8586 47.4751 49.5499 42.8743 45.4242C36.0739 40.0105 30.1882 33.5407 25.4419 26.2617C23.5193 24.1475 25.4104 20.504 27.063 22.8765C34.3595 28.2218 35.6805 28.2501 35.0769 24.4608C33.5713 17.2529 32.9529 9.88772 33.2353 2.52884C33.0796 -1.79226 35.6306 1.78777 36.3483 3.40083C39.5645 8.2911 41.9298 13.6899 43.344 19.3691C44.96 24.5929 46.6256 27.5732 47.8825 22.7277C48.4248 21.5113 48.8989 19.7917 50.2083 20.3479C52.557 21.7185 51.7146 26.3483 51.9299 29.1654C51.6802 34.9625 51.0404 40.7366 50.0151 46.4484C49.6412 47.7234 49.7232 49.0883 50.247 50.309C51.5207 51.8811 58.9213 69.8651 59.1736 65.0245C59.4259 60.184 59.1316 55.5563 59.1444 50.7899L58.9977 43.6696L59.1151 36.5551C59.2802 33.2708 61.1604 30.723 60.2897 27.06C59.6904 24.2743 62.6337 24.456 62.5754 27.0956C63.9653 32.2074 64.9767 37.4147 65.6015 42.6753C66.4689 47.903 66.8914 53.1951 66.8645 58.4946C66.778 60.6186 66.5811 62.9516 66.3595 65.2047C66.1379 67.4579 66.0977 69.8734 66.1128 72.1844C65.92 76.775 67.1845 81.308 69.7256 85.1358C71.7787 88.5204 75.9759 68.4341 74.4519 65.6287C74.2625 64.0269 74.6544 57.6576 76.2279 58.2195C77.8015 58.7813 76.9927 60.6918 76.9513 61.9717C76.7604 66.9113 77.1166 71.8565 78.0134 76.7172C78.9289 81.3308 78.3223 86.1177 76.2846 90.3597C73.8447 94.9158 79.9311 100.592 81.9391 104.82C82.9363 106.347 83.8521 109.166 85.2065 108.878C86.561 108.59 84.4962 105.733 84.5616 103.965C84.862 100.612 84.7144 97.2345 84.1227 93.9209C83.1221 90.1914 83.177 86.257 84.2812 82.5555C85.4722 79.0229 86.085 75.322 86.0961 71.5952C85.5792 65.7965 86.225 59.9523 87.9957 54.4044C89.6743 48.858 89.8591 42.9683 88.5315 37.3297C88.3711 36.8113 88.5904 35.2579 88.7901 35.1961C89.6684 34.9244 89.3902 36.1463 89.6152 36.7321C91.6388 40.6241 92.759 44.9219 92.8927 49.3067C92.8416 52.8179 92.4863 56.3358 92.0912 59.866L91.0102 70.512C90.7594 74.0849 90.5885 77.6332 90.6543 81.2393C90.8171 84.8515 91.3264 88.4395 92.1754 91.954C93.0661 95.3476 93.6967 98.8041 94.0617 102.294C94.5255 105.779 95.1996 109.233 96.0801 112.636C96.921 117.051 98.9173 121.808 96.3076 125.674C95.3232 127.158 99.7163 132.309 100.931 132.982C101.432 130.111 101.326 127.167 100.619 124.34C99.5166 120.678 99.706 116.748 101.156 113.207C103.238 106.642 104.307 99.7992 104.327 92.9139C104.393 91.7137 103.291 89.5642 104.956 89.5735C106.621 89.5827 106.23 91.7134 106.625 92.9894C106.676 108.004 105.638 123.312 106.959 138.894C108.26 144.155 111 148.95 114.874 152.743C118.802 157.383 123.158 161.846 125.93 165.577C128.703 169.307 128.516 165.17 127.506 163.035C124.518 158.324 123.411 152.767 120.775 147.641C120.516 146.803 117.681 141.738 116.057 137.478C114.433 133.218 113.526 130.003 116.38 133.009C118.889 137.301 121.625 141.479 124.616 145.491C126.003 149.126 127.206 147.923 126.692 144.849C126.764 137.059 125.183 129.343 122.051 122.21C119.937 117.57 118.424 112.679 117.548 107.655C116.535 102.682 115.466 97.8132 114.532 92.8152C113.15 88.3491 115.743 87.6783 115.929 92.383C117.04 97.174 118.495 101.878 120.284 106.459C121.987 111.043 123.944 115.529 126.146 119.895C128.681 125.402 129.104 109.236 128.662 107.101C125.385 86.7491 121.269 66.6567 110.701 49.0407C109.613 48.0667 108.35 40.5925 110.701 43.6666C111.605 46.7329 113.224 49.5412 115.424 51.8617C118.556 56.0484 121.507 60.6407 124.588 64.7999C128.313 72.0363 128.883 80.9481 132.668 88.5158C133.411 93.1796 134.991 91.6421 134.544 87.9353C134.31 79.6545 133.369 71.4092 131.732 63.289C130.937 59.1655 129.943 55.1037 128.891 51.2784C127.839 47.4531 126.823 43.1796 125.589 39.1919C125.015 37.7145 124.363 36.2681 123.637 34.8588C123.254 33.6226 121.342 32.2481 122.526 31.2699C123.711 30.2917 124.307 32.6416 125.156 33.6897C128.113 38.6166 130.673 43.7711 132.811 49.1043C135.159 54.4271 136.963 59.9734 138.195 65.6588C138.614 67.0146 138.332 69.6362 139.429 69.6464C144.005 66.4829 140.765 54.5958 139.352 49.1783C138.118 45.1906 138.881 40.5854 137.073 36.295C138.514 32.0477 144.517 49.8961 144.51 51.9954C144.671 52.5138 144.561 53.2906 144.954 53.431C146.318 52.7471 146.215 46.6182 146.044 39.9861C145.874 33.3539 145.012 26.8918 144.684 24.9834C144.356 23.075 144.528 20.0945 146.644 20.0078C148.761 19.921 148.352 22.2758 148.756 23.7237C150.158 27.266 147.428 33.572 149.465 35.9131C150.559 36.0554 150.36 34.2817 150.396 33.2657C151.176 26.8525 152.64 20.5405 154.763 14.4376C154.866 12.7893 156.746 12.6447 157.012 14.3537C158.584 19.1864 158.183 24.4451 155.896 28.9864C154.024 33.4163 152.513 37.9896 151.378 42.6617C151.224 43.015 151.121 43.5277 151.686 43.6586C152.251 43.7896 152.564 43.387 152.745 42.9815C155.306 37.1209 161.613 36.437 165.162 31.9311C170.031 29.2888 161.88 41.6848 160.323 42.1664C154.723 47.3943 147.899 52.3452 146.856 61.2754C146.526 63.0377 147.196 63.2236 148.382 62.8132C174.638 48.7051 160.576 66.5997 145.748 70.1381C145.093 70.2765 144.491 70.6015 144.016 71.0741C143.542 71.5466 143.214 72.1464 143.073 72.8009C142.973 74.3172 139.414 80.4867 142.534 79.8272C146.211 78.9521 149.825 77.834 153.353 76.4803C154.538 75.5022 162.151 73.1033 159.778 77.027C153.054 80.4615 146.799 85.4114 139.825 88.1803C136.578 90.4084 136.682 97.6729 134.966 101.743L134.904 101.543C146.827 98.4416 158.2 93.5232 168.625 86.9611C168.713 86.862 168.824 86.7854 168.948 86.7377C169.073 86.69 169.206 86.6725 169.338 86.6868C169.471 86.701 169.597 86.7466 169.708 86.8197C169.819 86.8927 169.911 86.9912 169.976 87.1069C170.042 87.2226 170.078 87.3522 170.083 87.485C170.088 87.6177 170.061 87.7496 170.005 87.8699C169.949 87.9902 169.865 88.0955 169.76 88.1768C169.654 88.2582 169.531 88.3134 169.401 88.3377C158.237 96.5099 148.356 108.262 134.115 109.739C130.123 110.974 131.791 118.061 130.818 121.988C130.679 124.085 131.122 124.385 132.648 123.52C137.534 119.518 143.841 119.402 149.54 117.464C150.259 117.241 151.284 116.313 151.789 117.38C152.294 118.447 150.955 118.643 150.363 119.132C144.169 121.755 138.575 125.611 133.922 130.466C129.673 133.135 130.581 139.32 130.818 144.752C131.055 150.184 145.962 141.247 148.09 140.065C159.623 132.521 146.293 145.427 143.281 147.145C138.795 149.188 138.355 156.533 133.34 157.43C131.11 157.857 131.072 159.573 131.563 161.868C133.376 167.73 134.478 174.685 138.481 179.564C146.049 188.758 150.52 194.584 153.335 197.602C156.149 200.62 156.724 200.923 156.55 199.229C156.376 197.535 155.118 193.468 154.413 187.656C153.557 180.362 153.658 172.986 154.713 165.717C154.797 164.293 156.042 164.781 156.068 165.997C158.096 177.079 159.618 188.361 162.384 199.565C165.174 208.286 169.206 216.559 174.358 224.13C173.219 219.235 172.511 214.249 172.242 209.23C172.081 208.712 171.872 208.034 172.667 207.919C173.463 207.804 173.608 208.414 173.753 209.025C175.704 215.031 178.047 220.904 180.766 226.604C182.677 231.511 185.686 235.915 189.561 239.482C193.394 243.102 197.711 246.311 201.288 250.098C205.799 254.61 210.573 258.852 215.585 262.802C220.358 266.918 225.496 270.66 230.376 274.699C232.059 276.319 232.893 275.056 231.806 273.383C230.031 269.585 228.463 265.695 227.107 261.728C225.862 257.618 223.438 253.963 220.137 251.214C215.621 248.025 211.425 244.406 207.608 240.409C203.615 236.501 200.038 232.19 196.936 227.544C196.022 226.429 193.965 225.012 194.904 223.804C195.842 222.596 197.123 225.04 198.227 225.921C200.057 227.453 201.776 229.193 203.538 230.789L208.969 235.619C212.408 238.895 216.227 241.747 220.346 244.115C220.227 240.339 219.277 236.636 217.562 233.269C215.848 229.903 213.412 226.956 210.428 224.638C205.443 219.975 199.051 216.141 193.753 209.479C192.587 207.83 187.78 203.462 183.477 199.026C179.173 194.59 175.868 189.845 177.108 188.194C177.967 187.579 178.847 188.443 179.517 189.196C181.483 191.441 183.753 193.4 186.261 195.018C188.764 196.604 191.487 197.771 193.747 199.562C197.555 201.965 200.902 205.028 203.632 208.607C206.352 212.021 209.613 214.968 213.286 217.331C208.635 202.297 196.191 187.665 183.436 178.109C180.706 176.07 175.833 172.903 171.457 169.363C167.081 165.823 163.203 161.911 163.241 158.36C167.789 158.919 171.788 166.333 176.102 169.106C178.546 171.133 181.19 172.906 183.994 174.398C186.856 175.872 189.699 177.002 192.503 178.713C198.252 181.461 202.972 185.97 205.977 191.585C206.843 193.676 208.074 192.99 207.374 191.152C206.571 188.202 205.506 185.329 204.194 182.568C202.975 179.693 201.506 176.931 199.803 174.314C198.092 171.693 196.195 169.199 194.126 166.851C192.173 164.42 190.012 162.165 187.667 160.11C185.88 158.557 184.322 156.759 183.04 154.769C180.439 149.978 177.242 145.536 173.525 141.546C172.804 140.687 172.235 139.71 171.845 138.658C169.546 133.209 166.419 128.19 163.814 122.879C163.13 121.518 161.027 119.809 162.58 118.891C164.133 117.974 164.935 120.566 165.898 121.841C169.239 126.79 173.524 131.033 178.509 134.325C182.812 138.745 186.433 143.78 189.254 149.264C190.254 151.819 191.641 154.204 193.367 156.337C196.72 160.294 199.785 164.486 202.54 168.879C202.047 163.391 200.889 157.983 199.089 152.776C198.275 150.144 197.062 147.635 195.904 145.023C194.745 142.41 193.624 139.917 192.279 137.405C190.933 134.894 189.6 132.423 188.135 129.949C186.669 127.475 185.404 124.939 184.071 122.467C182.738 119.996 181.26 117.482 179.847 115.036C178.434 112.589 177.34 110.044 176.102 107.456C175.295 105.695 172.969 100.298 174.854 99.3214C176.212 98.9015 176.368 100.819 176.688 101.856C178.514 107.758 182.833 112.102 186.024 117.188C188.922 121 191.515 125.033 193.78 129.251C195.322 134.235 197.707 132.187 195.066 127.892C191.826 121.937 189.724 115.431 188.868 108.706C188.179 102.011 186.865 95.3967 184.943 88.9475C186.848 83.5085 194.407 106.249 195.399 108.608C197.209 113.772 198.439 119.121 199.065 124.558C199.44 127.325 200.592 124.828 202.453 121.369C204.313 117.909 206.695 113.59 208.937 112.634C209.885 111.988 210.662 111.122 211.203 110.11C211.743 109.098 212.03 107.971 212.039 106.825C211.882 104.339 214.381 104.921 214.506 107.023C216.321 114.02 209.854 118.992 208.393 125.299C206.932 131.605 202.745 137.444 201.03 143.917C201.397 147.315 202.111 150.667 203.161 153.919C204.45 160.205 205.704 166.24 206.91 172.683C207.627 176.131 208.984 172.741 209.175 171.239C211.354 163.107 215.223 155.523 220.531 148.982C224.288 145.854 223.053 140.731 224.242 141.324C225.785 144.473 224.503 151.074 222.707 157.572C221.301 163.119 219.063 168.423 216.069 173.302C213.502 177.07 211.853 181.385 211.253 185.903C210.653 190.42 211.119 195.015 212.613 199.319C212.731 200.55 213.687 200.953 214.211 199.961C219.883 193.269 223.664 184.846 229.3 178.034C229.631 177.408 230.383 177.437 230.483 178.324C232.088 190.017 227.161 195.867 222.333 202.036C219.731 205.129 217.941 208.821 217.126 212.778C216.313 217.746 217.388 222.837 220.142 227.05C223.323 220.648 232.973 221.159 234.011 213.06C234.009 212.939 234.035 212.819 234.086 212.709C234.138 212.599 234.214 212.503 234.309 212.427C234.404 212.351 234.515 212.298 234.634 212.272C234.752 212.246 234.875 212.247 234.993 212.276C240.577 216.185 226.877 230.865 223.904 233.839C222.13 235.742 222.582 238.617 223.71 241.414C225.051 244.12 226.182 246.925 227.093 249.805C227.463 251.001 228.017 251.66 228.799 250.369C233.28 243.792 238.929 238.091 245.467 233.547C253.104 228.825 249.874 219.513 252.401 223.581C253.978 235.327 241.864 241.696 236.937 250.517C233.477 255.17 234.793 260.836 234.529 266.205C235.01 267.76 236.828 272.222 238.788 270.218C240.749 268.213 244.804 267.745 247.09 265.378C248.243 264.016 250.553 265.967 249.685 267.546C249.026 271.07 244.027 270.607 243.709 274.245C242.475 280.437 246.691 286.43 252.254 291.263C260.913 297.76 269.823 303.654 278.129 310.566C281.695 313.046 279.118 308.25 278.315 306.926C274.123 300.445 273.356 293.299 270.875 286.551C270.339 285.668 269.087 284.308 270.06 283.919C273.371 285.429 275.251 293.062 277.215 296.299C281.692 302.429 285.347 309.295 289.806 315.649C292.025 318.831 294.429 321.88 297.005 324.782C298.374 326.237 299.77 327.64 301.234 328.979C302.793 330.299 304.44 331.512 306.163 332.61C306.671 332.977 307.326 333.823 307.934 333.242C308.541 332.66 308.034 332.293 307.846 331.827C307.093 329.394 305.805 323.108 308.732 322.814C309 322.899 309.239 323.058 309.421 323.272C309.603 323.486 309.721 323.747 309.763 324.025C311.006 330.587 316.466 336.501 321.074 342.066C325.158 346.91 329.842 351.217 335.012 354.882C340.232 358.413 345.707 361.553 351.392 364.277C347.214 359.54 342.935 354.615 338.628 349.743C334.491 344.895 330.743 339.729 327.418 334.292C322.937 327.351 317.248 321.268 310.62 316.332C303.54 311.968 300.207 304.872 294.711 299.407C288.744 293.721 283.95 286.921 280.602 279.391C278.726 273.33 283.517 279.057 289.509 285.986C292.579 289.405 296.092 293.125 298.679 296.257C300.225 298.307 302.236 299.96 304.547 301.083C306.986 302.213 309.21 303.757 311.12 305.647C312.108 307.002 313.158 306.153 312.591 304.886C309.165 291.833 306.013 286.735 301.005 283.129C298.087 281.316 294.994 279.799 291.774 278.6C287.357 276.65 283.047 274.469 278.86 272.065C275.915 270.18 272.789 268.7 269.893 266.975C266.848 265.388 264.108 263.278 261.797 260.741C261.304 260.281 260.778 259.57 261.254 258.986C261.729 258.402 262.611 258.566 263.337 259.216C269.227 262.986 275.884 262.019 281.707 265.854C287.258 268.812 293.204 270.075 298.551 273.358C299.491 273.853 300.621 275.383 301.498 274.543C301.489 271.968 298.314 267.926 294.85 263.798C291.386 259.67 287.077 256.066 285.035 253.989C282.091 251.067 279.356 247.942 276.849 244.637C274.393 241.304 271.56 238.266 268.405 235.583C266.281 234.23 260.327 226.154 266.654 229.92C271.686 234.874 278.476 238.017 282.513 243.715C284.306 246.549 286.902 248.787 289.97 250.146C293.102 251.438 296.036 253.163 298.686 255.271C298.809 255.67 299.486 256.16 299.928 255.892C300.37 255.624 300.098 254.747 299.846 254.213C297.762 249.629 294.655 245.583 290.763 242.386C286.807 239.275 283.338 235.592 280.471 231.457C276.888 227.934 279.536 225.324 282.935 228.816C287.206 231.463 291.26 234.446 295.055 237.738C295.514 238.513 297.004 238.664 296.532 237.281C293.404 225.752 282.779 219.689 273.448 213.138C271.076 211.32 268.95 209.201 267.124 206.836C265.082 204.92 263.648 202.447 262.999 199.724C267.598 204.164 273.033 207.651 278.989 209.982C284.597 213.178 289.782 217.064 294.422 221.549C294.52 221.868 294.911 222.14 295.298 221.977C295.014 218.308 294.04 214.725 292.425 211.418C291.553 209.498 290.58 207.626 289.509 205.81C288.468 203.86 287.403 201.83 286.23 199.877C281.444 192.182 276.292 184.295 272.654 179.041C269.202 176.788 271.421 175.053 274.094 177.897C276.767 180.74 280.208 183.52 282.93 186.523C285.835 189.367 288.412 192.527 290.613 195.944C291.721 197.829 292.636 200.08 293.701 202.11C294.722 204.088 295.919 205.969 297.278 207.732C297.981 204.631 297.546 200.964 298.092 197.781C299.023 192.73 295.007 189.647 293.353 185.571C289.637 176.103 286.985 165.694 280.479 158.095C280.131 157.678 279.381 156.949 279.961 156.42C281.598 155.914 282.678 157.851 283.622 158.783C285.795 161.396 287.754 164.18 289.478 167.108C292.069 170.676 294.247 173.191 293.786 170.145C292.368 163.156 291.91 155.738 291.085 148.828C290.863 148.11 290.186 147.053 291.085 146.425C292.333 147.245 293.396 148.316 294.206 149.57C295.016 150.825 295.555 152.234 295.788 153.709C296.308 155.447 296.724 157.215 297.032 159.004C297.356 160.368 297.608 161.749 297.787 163.139C299.079 167.576 300.013 172.108 300.58 176.694C300.809 180.686 308.22 171.272 308.649 169.829C310.252 166.793 312.886 164.429 316.078 163.161C318.482 161.456 320.217 163.672 317.552 165.239C315.02 167.32 313.021 169.976 311.724 172.984C310.112 177.263 307.731 181.213 304.7 184.639C303.393 185.786 303.238 187.407 302.807 188.982C302.345 192.396 302.211 195.846 302.407 199.286C301.768 203.895 301.656 208.562 302.074 213.196C304.422 210.388 306.405 207.293 307.973 203.987C310.241 201.843 320.598 191.911 322.768 192.987C322.928 193.506 322.538 193.801 322.241 194.111C318.504 198.169 315.13 202.546 312.158 207.192C309.638 211.773 309.455 217.685 305.383 221.348C303.487 223.42 302.671 229.833 302.667 236.606C302.691 242.164 303.403 247.696 304.788 253.078C304.911 253.476 304.409 252.845 304.788 253.078C305.166 253.31 304.874 253.357 305.067 252.991C305.26 252.626 305.129 253.191 304.981 252.712C311.507 245.563 316.973 237.516 321.21 228.816C323.38 226.01 324.824 222.712 325.413 219.215C325.315 218.896 325.523 218.438 325.919 218.446C329.719 222.951 320.48 234.941 319.777 241.013C315.576 248.547 312.297 256.559 310.012 264.875C308.98 269.117 308.607 273.491 308.906 277.844C309.179 282.568 310.47 287.176 312.692 291.354L312.766 291.593C312.965 291.532 313.005 291.519 312.692 291.354C315.084 282.157 319.955 273.79 326.773 267.162C330.653 263.501 333.962 259.282 336.592 254.643C336.88 254.16 337.319 253.457 337.896 253.628C339.825 255.478 335.937 259.739 334.892 261.591C327.186 273.588 314.652 286.378 319.562 302.817C322.748 310.57 322.846 321.069 329.324 327.586C331.041 324.651 331.589 320.768 333.244 317.634C336.478 311.26 332.929 303.182 334.285 296.253C334.065 294.267 338.174 280.544 339.946 287.685C340.377 296.29 338.974 304.764 340.609 313.302C343.076 321.278 339.444 328.344 340.551 336.303C341.705 341.636 343.907 346.687 347.029 351.164C350.164 356.24 354.465 360.496 359.575 363.58C359.993 361.23 359.73 358.811 358.817 356.606C355.272 348.964 357.087 340.975 355.182 333.262C354.704 331.007 357.202 331.589 357.309 333.347C359.904 340.322 359.531 347.602 362.541 354.361C365.872 359.568 368.656 365.106 370.846 370.886C373.697 376.427 381.891 379.441 387.836 382.539C408.719 391.005 430.088 398.226 451.829 404.163C457.299 405.442 462.775 407.025 468.331 408.015C473.886 409.006 479.494 410.023 485.077 410.962C490.661 411.9 496.35 412.193 502.01 412.671C507.669 413.148 513.38 413.085 519.076 413.115C526.406 413.338 526.391 413.43 526.121 419.062C525.996 422.334 525.981 422.426 521.532 422.186C513.059 421.661 504.567 421.361 496.12 420.216C491.902 419.73 487.656 419.296 483.48 418.665C479.304 418.034 475.134 417.14 470.977 416.285C468.506 415.775 465.998 415.47 463.477 415.372C461.044 415.182 458.601 415.179 456.168 415.361C451.461 415.713 446.83 416.748 442.421 418.434C434.358 421.071 427.393 426.298 422.611 433.3C420.556 435.99 410.635 447.754 405.617 444.543C404.083 443.401 404.988 442.51 405.814 441.643C410.641 435.427 414.864 428.766 418.426 421.75C417.15 420.877 415.551 422.071 414.236 422.346C404.659 426.882 391.455 428.738 383.243 434.293C377.337 440.796 363.647 440.093 354.665 443.44C345.965 443.597 366.616 436.116 368.417 436.564C371.608 436.447 374.69 435.372 377.261 433.479C381.442 429.401 386.065 425.801 391.045 422.748C390.798 421.951 389.945 422.302 389.416 422.291C382.24 422.283 374.849 422.428 367.506 422.165C360.394 421.758 353.31 423.359 347.064 426.785C341.008 430.13 334.364 432.274 327.496 433.101C318.438 434.505 308.785 434.127 299.884 435.613C296.493 436.451 292.951 436.452 289.561 435.617C289.112 435.013 289.708 434.96 290.092 434.928C295.118 434.772 298.811 432.712 303.461 432.191C309.887 430.902 317.176 430.569 323.912 429.01C329.994 428.188 335.631 425.368 339.936 420.995C339.602 419.918 338.193 420.31 337.336 420.226C332.263 419.523 327.04 419.042 321.994 418.287C316.949 417.532 311.75 416.562 306.594 415.449C300.813 413.957 294.694 414.492 289.259 416.966C280.513 421.184 270.632 422.446 261.108 420.563C250.839 418.759 242.428 421.972 231.604 418.373C228.455 417.95 227.704 414.817 230.802 415.781C244.58 417.898 255.837 413.848 269.504 415.606C275.047 415.989 277.564 411.54 283.078 411.407C283.437 411.296 284.036 411.11 284.014 410.899C283.993 410.687 283.119 410.127 282.502 409.968C273.44 407.966 263.981 402.983 255.15 401.87C245.056 403.049 234.873 403.273 224.737 402.54C213.727 401.576 202.805 399.784 192.065 397.18C186.081 394.662 191.555 394.541 198.892 395.068C204.941 395.109 210.974 395.684 216.921 396.787C224.537 399.063 226.024 393.972 230.577 391.864C230.343 391.106 229.467 390.678 228.695 390.305C223.347 388.289 217.663 384.761 212.105 382.067C207.426 379.105 201.907 377.745 196.384 378.192C191.975 379.132 187.375 378.462 183.42 376.304C179.009 374.348 174.582 371.348 169.778 369.252C165.583 367.709 161.387 366.167 157.13 364.426C156.396 364.172 155.277 363.95 155.086 363.048C155.382 361.602 161.103 364.682 163.465 364.825C172.085 366.528 182.217 372.132 189.363 369.921C182.527 364.084 174.019 362.74 167.85 355.386C166.37 353.713 164.63 352.29 162.697 351.169C154.907 346.632 148.763 339.357 142.172 333.181C140.069 331.473 141.366 329.586 143.269 330.788C145.826 331.92 148.113 333.58 149.981 335.659C151.988 337.684 154.157 339.541 156.467 341.212C160.942 343.691 165.202 346.539 169.205 349.724C173.298 352.806 177.62 355.573 182.133 358.002C183.769 359.331 184.628 358.715 183.277 357.036C180.348 353.077 177.88 348.799 175.92 344.282C174.126 339.722 171.775 335.401 168.922 331.417C167.666 329.62 164.929 324.874 167.418 324.716C167.726 324.851 167.996 325.059 168.207 325.32C168.417 325.582 168.561 325.891 168.627 326.221C169.781 329.364 171.744 332.147 174.317 334.292C184.442 347.906 195.336 360.933 206.946 373.308C210.71 376.545 215.01 379.103 219.652 380.869C224.207 382.868 228.848 384.578 233.093 386.847C234.935 387.851 235.496 386.978 233.78 385.674C229.224 380.136 224.732 374.666 220.572 369.137C216.548 363.57 212.867 357.763 209.55 351.749C208.6 350.112 207.338 348.676 205.837 347.523C202.467 345.114 204.394 342.858 207.471 344.746C210.645 346.131 213.309 348.467 215.095 351.431C217.355 354.728 219.795 357.896 222.405 360.923C225.06 363.991 227.985 366.8 230.827 369.765C233.669 372.731 236.447 375.629 239.05 378.669C241.68 381.611 244.106 384.729 246.311 388.002C248.672 391.738 252.199 394.593 256.348 396.126C260.46 397.824 265.039 398.767 268.936 400.052C269.907 400.364 270.77 400.184 270.022 399.323C268.139 395.924 265.803 392.796 263.078 390.024C259.982 387.348 257.562 383.98 256.012 380.194C253.462 374.779 251.665 369.392 249.551 363.973C247.541 358.16 244.653 352.688 240.988 347.747C240.354 346.748 239.921 345.636 239.712 344.471C238.872 343.027 240.643 339.421 241.873 342.405C242.758 348.379 251.841 352.429 254.033 359.091C258.7 366.823 261.724 375.325 267.905 382.72C273.747 387.466 277.321 393.788 284.119 397.802C294.445 404.176 305.874 406.758 316.561 411.753C320.141 412.594 323.761 413.253 327.408 413.728C331.074 414.124 334.714 414.439 338.263 414.74C338.856 414.818 339.738 414.983 339.74 414.283C339.742 413.583 338.91 413.578 338.4 413.343C328.226 409.587 322.03 401.716 314.462 395.494C311.312 391.1 307.475 387.242 303.097 384.067C298.554 380.936 294.516 377.132 291.121 372.785C288.373 369.098 284.902 366.009 280.92 363.707C276.973 361.353 273.353 358.492 270.151 355.197C272.418 354.889 277.987 359.458 281.22 360.293C286.657 362.531 291.485 366.023 295.308 370.485C299.165 374.926 303.583 378.846 308.452 382.148C314.264 386.454 320.324 390.415 326.601 394.011C332.781 399.411 339.887 403.651 347.577 406.528C352.28 408.438 355.627 410.067 358.32 411.419C361.013 412.77 363.073 414.056 365.246 415C369.512 416.914 374.318 417.743 385.553 415.883C382.187 413.91 378.738 412.093 375.547 409.978C372.353 407.865 369.338 405.496 366.531 402.893C363.638 400.395 360.369 398.368 356.843 396.889C354.445 395.359 348.591 394.111 348.717 391.407C349.064 390.688 350.194 390.95 351.104 391.062C360.322 392.58 368.389 397.73 376.996 401.796C383.38 404.191 389.842 407.828 396.281 410.686C402.506 413.671 409.49 414.709 416.318 413.663C418.062 413.171 419.863 412.908 421.675 412.88L431.532 411.797C438.17 411.054 443.489 410.151 439.516 409.327C416.782 403.254 394.656 395.107 373.416 384.99C370.321 384.015 367.163 383.255 363.963 382.715C360.792 382.079 357.642 381.655 354.426 381.296C351.209 380.937 348.007 380.485 344.768 379.914C341.531 379.295 338.343 378.441 335.229 377.36C330.386 375.843 324.875 375.844 319.773 374.626C315.878 374.477 315.665 371.528 319.688 372.511C324.611 373.101 329.58 373.203 334.524 372.816C339.435 372.542 344.362 372.851 349.2 373.737C349.898 373.871 351.105 374.24 351.197 373.687C340.289 366.707 326.871 360.24 316.367 351.736C312.409 348.593 307.843 346.301 302.955 345.006C293.72 342.942 284.144 342.922 274.898 344.947C273.128 344.883 269.806 346.304 268.406 344.465C267.006 342.626 279.435 341.796 281.341 340.463C285.882 339.249 290.636 339.062 295.257 339.916C301.674 341.994 301.769 339.474 295.793 336.56C287.047 331.023 277.509 326.843 267.506 324.164C262.975 323.105 258.321 322.663 253.671 322.851C249.033 322.98 244.453 323.923 240.142 325.638C233.017 329.247 225.193 331.264 217.212 331.552C208.964 332.181 200.255 332.166 192.177 333.485C190.988 333.46 186.403 334.616 185.792 332.926C185.521 332.049 186.99 332.556 187.709 332.333C199.711 331.679 209.327 327.131 220.024 324.521C227.593 323.534 231.669 317.904 238.022 315.109C239.139 314.763 241.456 315.182 240.988 313.667C240.519 312.152 238.436 312.49 237.09 311.814C232.578 310.239 230.279 314.402 226.412 314.768C220.695 315.095 215.833 318.609 209.875 317.874C213.736 314.8 220.511 315.064 223.941 311.163C228.893 308.932 226.19 306.841 221.197 306.113C211.541 305.867 204.85 310.821 196.379 312.567C195.534 312.523 188.584 314.236 182.389 315.279C176.194 316.321 170.87 316.788 173.479 314.758C179.373 310.524 186.137 307.655 193.278 306.361C197.815 305.613 203.717 305.885 206.022 302.025C205.763 301.188 204.909 300.972 204.239 300.786C200.275 300.133 195.677 298.279 191.381 297.117C189.62 296.311 187.692 295.937 185.756 296.027C183.821 296.116 181.935 296.667 180.255 297.632C168.919 303.41 154.848 305.011 145.457 313.683C144.22 314.066 142.045 316.792 140.467 315.227C138.889 313.661 146.565 310.195 147.223 307.937C152.243 300.268 165.34 300.323 168.315 291.276C161.952 288.525 155.275 287.445 148.879 285.011C148.032 284.668 147.107 284.562 146.203 284.703C145.299 284.844 144.45 285.227 143.747 285.812C139.739 288.975 133.239 287.621 128.129 288.634C120.705 289.269 113.817 292.763 108.921 298.377C107.488 299.257 101.686 308.785 100.329 306.802C99.5295 305.914 100.229 305.348 100.53 304.905C105.566 292.905 116.39 288.726 127.303 284.127C128.549 283.348 135.526 281.015 130.301 278.83C127.339 277.293 124.079 276.411 120.744 276.244C117.409 276.077 114.077 276.629 110.974 277.862C107.051 279.76 102.613 280.319 98.3429 279.453C90.158 277.561 81.5838 278.273 73.8208 281.49C72.4634 281.91 70.3024 283.409 68.5918 281.273C68.1477 279.837 69.2996 279.743 69.9413 279.414C74.9257 277.432 79.4178 274.387 83.1038 270.492C90.4406 263.241 96.1931 269.676 101.806 267.459L102.065 267.728ZM198.582 131.479L199.019 130.208C197.992 128.866 197.629 130.944 198.582 131.479Z" fill="#111111"/>
</svg>