<svg xmlns="http://www.w3.org/2000/svg" width="147" height="446" viewBox="0 0 147 446" fill="none">
  <path opacity="0.04" d="M45.2254 267.728L45.2871 267.529C51.5058 264.253 57.7972 261.874 64.0182 259.298C70.4078 256.686 76.5951 253.606 82.5294 250.082C88.1982 247.232 92.5724 242.34 94.7696 236.391C93.4607 233.977 89.4188 238.275 87.1085 238.391C82.9135 239.731 79.1469 242.153 76.188 245.411C70.9464 251.043 64.8742 252.572 59.3211 256.665C52.5995 261.708 52.6775 258.062 58.3235 253.386C64.0502 247.997 68.6747 241.548 71.9401 234.397C72.5773 232.867 73.5124 231.478 74.6914 230.311C77.5065 227.063 79.4526 223.156 80.3484 218.953C79.7496 218.768 79.1188 219.534 78.5252 220.181C71.7917 226.63 65.6152 233.635 60.0615 241.122C56.4578 245.322 52.5514 249.254 48.3735 252.886C44.2097 256.447 40.0152 259.825 35.9312 263.411C34.2904 266.312 15.6588 276.059 22.9645 268.139C28.2395 261.425 31.7696 253.511 33.2404 245.102C35.2684 236.991 36.5953 229.449 41.339 224.013C42.477 222.88 41.5899 222.212 40.6762 223.328C37.0048 227.64 34.0267 232.497 31.8482 237.724C29.0579 243.633 26.2182 249.702 24.5883 253.698C23.1749 256.427 21.4966 259.01 19.5778 261.411C17.5864 263.675 15.4624 265.819 13.217 267.832C8.74546 271.823 4.13298 275.421 -0.457705 278.807C-5.40192 281.866 -11.0082 283.697 -16.8077 284.148C-17.0806 283.758 -16.5733 283.39 -16.4499 282.992C-13.4175 280.259 -11.6649 276.432 -8.54041 273.685C-3.23174 268.365 0.968058 262.046 3.81617 255.093C7.23723 248.418 10.262 241.751 16.3006 237.502C16.9401 237.132 17.337 236.556 17.1134 236.006C10.6013 237.968 5.97087 243.744 1.83413 250.329C-2.03056 256.9 -6.68558 262.972 -12.0272 268.412C-19.9165 275.758 -28.428 282.408 -37.4663 288.287C-41.4113 291.79 -46.4442 293.828 -51.7185 294.059C-45.2978 288.246 -40.0704 281.242 -36.3273 273.434C-32.8345 265.568 -28.449 258.128 -23.2568 251.262C-22.4875 250.189 -18.048 244.747 -21.4048 246.548C-26.986 253.56 -34.2331 258.746 -38.0184 266.882C-40.882 271.593 -44.4265 275.856 -48.537 279.532C-52.5753 283.362 -56.3442 287.467 -59.817 291.815C-64.7593 299.025 -71.9189 300.393 -79.0422 302.209C-79.9488 302.453 -80.2 301.851 -79.385 301.054C-75.9587 297.377 -72.858 293.41 -70.1177 289.197C-67.3018 285.043 -64.3755 281.099 -61.3048 277.111C-60.5725 276.158 -59.1855 274.927 -60.0631 274.087C-60.9407 273.248 -61.9503 274.814 -62.7654 275.611C-70.4404 284.16 -78.6345 292.548 -87.0797 300.334C-89.4357 303.092 -92.2444 305.43 -95.3857 307.246C-98.4952 308.996 -101.759 310.458 -105.136 311.614C-108.479 312.808 -111.878 313.897 -115.173 314.932C-118.494 315.868 -121.761 316.987 -124.959 318.284C-107.992 303.172 -86.8361 289.224 -69.7265 272.802C-57.2994 262.184 -45.0285 251.081 -33.5431 239.123C-26.0932 229.332 -15.7695 222.109 -4.01101 218.461C-1.85284 217.337 0.548749 216.76 2.98307 216.779C14.0421 217.229 25.2958 219.313 36.8243 217.679C37.2067 216.443 33.2268 215.168 32.1424 215.139C28.969 215.056 25.8454 214.327 22.9624 212.998C18.5505 210.716 12.5116 212.561 8.68468 209.237C7.34683 207.905 7.42733 207.362 9.59752 206.286C14.8648 204.813 22.4668 198.339 26.4411 201.753C31.9235 210.614 42.9346 210.088 49.4511 217.304C51.1418 219.05 58.8369 224.576 60.9961 222.404C59.8045 216.924 52.9105 217.15 50.2768 212.797C45.6034 208.249 42.6435 201.697 38.3823 196.665C37.962 196.185 37.8153 195.528 38.9004 194.99C50.2818 187.893 54.5858 200.847 63.9028 201.414C69.1609 202.516 74.9894 201.916 79.6249 204.748C80.4016 205.207 81.9274 206.072 82.7068 204.26C83.6813 201.109 74.696 200.602 73.6643 197.574C70.2906 190.238 62.5912 193.493 58.1696 188.979C58.0403 188.839 57.95 188.668 57.9078 188.482C57.8657 188.297 57.8731 188.103 57.9293 187.922C57.9856 187.74 58.0886 187.576 58.2282 187.447C58.3678 187.317 58.5391 187.227 58.7247 187.185C68.3939 180.957 73.9732 185.829 81.8068 188.645C84.0905 190.313 87.352 185.991 89.5341 187.846C93.0278 189.844 97.4982 189.392 100.755 192.016C101.074 192.115 101.433 192.226 101.79 191.637C102.407 189.644 100.171 188.952 99.3461 188.085C93.4984 184.331 88.0371 180.007 83.0424 175.177C83.2768 174.419 83.7994 174.144 84.2944 173.816C87.387 172.021 90.8251 169.108 94.1762 167.043C97.5272 164.977 100.619 163.749 103.394 165.525C111.153 171.552 121.831 162.49 130.294 165.108C130.854 165.526 131.521 165.775 132.217 165.828C132.913 165.881 133.61 165.735 134.226 165.407C138.998 161.858 128.595 159.995 127.759 158.032C121.922 150.459 99.346 162.35 117.862 146.756C122.703 141.569 128.309 136.88 133.455 131.7C139.018 126.137 143.279 119.413 145.933 112.009C148.871 100.815 134.032 124.319 131.297 124.959C129.778 126.761 128.814 125.633 129.868 123.075C131.908 114.959 134.652 107.036 138.068 99.396C138.315 98.5985 139.074 97.6976 138.399 97.0518C133.17 102.496 129.312 109.105 127.142 116.333C124.936 123.899 121.592 131.085 117.224 137.645C101.311 157.977 115.296 134.122 114.864 125.337C115.031 119.687 116.588 114.166 119.399 109.263C120.996 107.354 119.514 106.065 118.525 107.987C114.21 115.106 110.88 122.778 108.627 130.792C107.394 134.779 106.16 138.767 104.426 142.818C102.857 146.773 100.881 150.555 98.5294 154.102C96.3809 157.908 93.6473 161.352 90.4284 164.31C87.6079 166.843 84.2374 168.686 80.582 169.697C85.5296 163.179 89.3901 155.904 92.0144 148.154C95.1602 140.389 97.2681 132.302 100.472 124.773C100.669 124.135 100.941 123.258 100.29 123.1C99.6386 122.942 98.5311 124.26 98.1029 125.22C95.2278 132.676 90.4218 138.879 88.2036 146.757C86.5443 150.175 84.5959 153.446 82.3796 156.533C79.9076 161.642 76.2941 166.115 71.8175 169.607C70.2587 170.799 68.9103 172.242 67.8279 173.878C66.6181 175.951 56.5595 186.69 59.7424 178.805C60.412 175.789 61.4482 172.867 62.8279 170.103C66.3985 163.315 68.7499 155.953 69.7752 148.352C70.0219 147.555 70.318 146.598 69.4273 146.366C67.5705 148.29 66.2713 150.682 65.6681 153.286C64.6971 156.129 63.5718 158.917 62.2973 161.637C59.7221 169.251 55.2031 176.061 49.1866 181.394C44.106 186.047 37.7749 189.115 30.9708 190.221C29.0626 190.592 30.5584 188.302 31.3183 187.401C36.4887 182.141 39.5787 174.839 44.2738 168.995C45.3508 167.517 46.1224 165.84 46.5437 164.061C46.8521 163.064 46.1189 162.181 45.4077 163.491C42.6172 166.997 39.5711 170.904 36.5193 174.548C33.4674 178.192 30.4555 181.848 27.4776 185.252C23.7144 187.802 20.2973 191.07 16.7518 193.906C13.6345 195.781 10.4561 197.289 7.30537 198.848C3.97702 200.349 0.78808 202.14 -2.22448 204.202C-2.51044 204.419 -3.14045 204.617 -3.26315 204.448C-3.38582 204.279 -2.95475 203.451 -2.79438 202.933C11.1656 184.531 27.1262 168.147 41.0681 149.521C47.0897 141.509 54.9603 144.206 62.0704 140.595C66.5964 139.044 70.9536 137.039 75.0756 134.612C79.3612 131.988 83.4818 129.104 87.4142 125.977C90.4088 123.932 90.754 120.413 87.1374 123.619C81.7479 127.581 75.5566 130.318 68.9963 131.639C62.8323 132.388 56.858 134.257 51.3682 137.153C50.7505 137.311 50.3302 136.832 50.8317 136.2C52.4447 133.393 54.635 130.959 57.2584 129.06C59.8818 127.16 62.8787 125.838 66.0517 125.18C72.6997 123.862 78.8737 120.794 83.9358 116.293C92.64 109.311 101.894 103.042 111.607 97.5457C112.05 97.2457 112.818 96.7407 112.672 96.0836C112.24 94.5083 110.671 96.4697 109.725 96.7012C98.535 102.896 87.7662 109.002 76.6504 114.957C74.8823 116.289 61.5676 119.03 65.5768 113.847C70.3406 106.932 72.694 101.587 75.9491 97.569C79.5751 93.125 84.4522 89.8701 89.9506 88.2246C92.1071 88.3237 103.195 85.2873 103.404 82.2062C102.805 79.6178 93.483 85.9969 90.5489 83.6037C87.4554 83.5642 87.625 80.4708 90.7896 80.139C95.8813 79.0926 99.7083 74.6401 103.419 69.7148C106.366 64.6215 110.341 60.197 115.093 56.723C124.259 50.4266 124.605 46.339 114.676 53.4044C109.324 56.1676 104.402 59.6933 100.065 63.8711C98.8191 65.4954 92.5387 68.9705 95.3741 63.9054C98.4257 57.8586 99.815 49.5499 104.416 45.4242C111.216 40.0105 117.102 33.5407 121.848 26.2617C123.771 24.1475 121.88 20.504 120.227 22.8765C112.931 28.2218 111.61 28.2501 112.213 24.4608C113.719 17.2529 114.337 9.88772 114.055 2.52884C114.21 -1.79226 111.659 1.78777 110.942 3.40083C107.725 8.2911 105.36 13.6899 103.946 19.3691C102.33 24.5929 100.664 27.5732 99.4076 22.7277C98.8652 21.5113 98.3911 19.7917 97.0818 20.3479C94.733 21.7185 95.5754 26.3483 95.3601 29.1654C95.6099 34.9625 96.2496 40.7366 97.275 46.4484C97.6488 47.7234 97.5668 49.0883 97.0431 50.309C95.7694 51.8811 88.3688 69.8651 88.1165 65.0245C87.8642 60.184 88.1584 55.5563 88.1457 50.7899L88.2924 43.6696L88.1749 36.5551C88.0098 33.2708 86.1297 30.723 87.0004 27.06C87.5996 24.2743 84.6564 24.456 84.7147 27.0956C83.3248 32.2074 82.3133 37.4147 81.6886 42.6753C80.8212 47.903 80.3987 53.1951 80.4255 58.4946C80.5121 60.6186 80.709 62.9516 80.9306 65.2047C81.1522 67.4579 81.1923 69.8734 81.1773 72.1844C81.37 76.775 80.1055 81.308 77.5644 85.1358C75.5113 88.5204 71.3142 68.4341 72.8382 65.6287C73.0275 64.0269 72.6357 57.6576 71.0621 58.2195C69.4885 58.7813 70.2973 60.6918 70.3388 61.9717C70.5296 66.9113 70.1734 71.8565 69.2767 76.7172C68.3611 81.3308 68.9677 86.1177 71.0054 90.3597C73.4454 94.9158 67.359 100.592 65.3509 104.82C64.3538 106.347 63.438 109.166 62.0835 108.878C60.7291 108.59 62.7939 105.733 62.7284 103.965C62.4281 100.612 62.5757 97.2345 63.1673 93.9209C64.1679 90.1914 64.113 86.257 63.0088 82.5555C61.8179 79.0229 61.205 75.322 61.1939 71.5952C61.7108 65.7965 61.065 59.9523 59.2943 54.4044C57.6158 48.858 57.431 42.9683 58.7586 37.3297C58.9189 36.8113 58.6996 35.2579 58.5 35.1961C57.6217 34.9244 57.8998 36.1463 57.6748 36.7321C55.6512 40.6241 54.531 44.9219 54.3973 49.3067C54.4484 52.8179 54.8037 56.3358 55.1989 59.866L56.2799 70.512C56.5306 74.0849 56.7015 77.6332 56.6358 81.2393C56.473 84.8515 55.9636 88.4395 55.1146 91.954C54.224 95.3476 53.5934 98.8041 53.2284 102.294C52.7645 105.779 52.0904 109.233 51.2099 112.636C50.3691 117.051 48.3727 121.808 50.9825 125.674C51.9669 127.158 47.5738 132.309 46.3595 132.982C45.8582 130.111 45.9643 127.167 46.6708 124.34C47.7734 120.678 47.584 116.748 46.1342 113.207C44.052 106.642 42.9827 99.7992 42.9633 92.9139C42.8971 91.7137 43.9995 89.5642 42.3344 89.5735C40.6693 89.5827 41.06 91.7134 40.6652 92.9894C40.6136 108.004 41.6522 123.312 40.3311 138.894C39.03 144.155 36.2896 148.95 32.4163 152.743C28.4877 157.383 24.1322 161.846 21.3598 165.577C18.5874 169.307 18.7736 165.17 19.7838 163.035C22.7724 158.324 23.8789 152.767 26.5147 147.641C26.7737 146.803 29.6092 141.738 31.2332 137.478C32.8573 133.218 33.7643 130.003 30.9098 133.009C28.401 137.301 25.6649 141.479 22.674 145.491C21.2873 149.126 20.0844 147.923 20.598 144.849C20.5256 137.059 22.1075 129.343 25.2393 122.21C27.3526 117.57 28.8656 112.679 29.7419 107.655C30.7554 102.682 31.8242 97.8132 32.7579 92.8152C34.1395 88.3491 31.5474 87.6783 31.3606 92.383C30.2505 97.174 28.7952 101.878 27.0061 106.459C25.3031 111.043 23.346 115.529 21.1438 119.895C18.6089 125.402 18.1858 109.236 18.6277 107.101C21.9052 86.7491 26.0211 66.6567 36.5886 49.0407C37.6773 48.0667 38.9396 40.5925 36.5889 43.6666C35.6848 46.7329 34.0665 49.5412 31.8665 51.8617C28.7341 56.0484 25.7826 60.6407 22.7024 64.7999C18.9766 72.0363 18.4069 80.9481 14.6223 88.5158C13.8794 93.1796 12.2991 91.6421 12.7459 87.9353C12.9805 79.6545 13.9214 71.4092 15.5585 63.289C16.3529 59.1655 17.347 55.1037 18.3991 51.2784C19.4513 47.4531 20.4671 43.1796 21.7006 39.1919C22.2755 37.7145 22.9273 36.2681 23.6535 34.8588C24.0359 33.6226 25.9484 32.2481 24.7637 31.2699C23.5791 30.2917 22.9834 32.6416 22.1343 33.6897C19.1769 38.6166 16.6169 43.7711 14.4786 49.1043C12.131 54.4271 10.3273 59.9734 9.09505 65.6588C8.67563 67.0146 8.95822 69.6362 7.86146 69.6464C3.28474 66.4829 6.5246 54.5958 7.93807 49.1783C9.17165 45.1906 8.40911 40.5854 10.2175 36.295C8.77563 32.0477 2.773 49.8961 2.77971 51.9954C2.61934 52.5138 2.729 53.2906 2.3356 53.431C0.972402 52.7471 1.07494 46.6182 1.24565 39.9861C1.41636 33.3539 2.27808 26.8918 2.60599 24.9834C2.93391 23.075 2.76234 20.0945 0.645751 20.0078C-1.47082 19.921 -1.06196 22.2758 -1.46614 23.7237C-2.86816 27.266 -0.138353 33.572 -2.17487 35.9131C-3.26871 36.0554 -3.07001 34.2817 -3.10567 33.2657C-3.88551 26.8525 -5.34973 20.5405 -7.47332 14.4376C-7.57582 12.7893 -9.45575 12.6447 -9.72197 14.3537C-11.2943 19.1864 -10.8932 24.4451 -8.60579 28.9864C-6.73413 33.4163 -5.22318 37.9896 -4.08762 42.6617C-3.93443 43.015 -3.83059 43.5277 -4.39601 43.6586C-4.96144 43.7896 -5.27431 43.387 -5.45508 42.9815C-8.01638 37.1209 -14.3226 36.437 -17.8717 31.9311C-22.7409 29.2888 -14.59 41.6848 -13.033 42.1664C-7.43262 47.3943 -0.609209 52.3452 0.433916 61.2754C0.763605 63.0377 0.0936445 63.2236 -1.09168 62.8132C-27.3475 48.7051 -13.2863 66.5997 1.54155 70.1381C2.19718 70.2765 2.7988 70.6015 3.27364 71.0741C3.74849 71.5466 4.07624 72.1464 4.2173 72.8009C4.31686 74.3172 7.8762 80.4867 4.75575 79.8272C1.07935 78.9521 -2.53493 77.834 -6.06325 76.4803C-7.24792 75.5022 -14.8608 73.1033 -12.4877 77.027C-5.76387 80.4615 0.491186 85.4114 7.46464 88.1803C10.7123 90.4084 10.6084 97.6729 12.3239 101.743L12.3856 101.543C0.463444 98.4416 -10.9102 93.5232 -21.3349 86.9611C-21.4234 86.862 -21.5343 86.7854 -21.6584 86.7377C-21.7825 86.69 -21.9162 86.6725 -22.0484 86.6868C-22.1805 86.701 -22.3073 86.7466 -22.4183 86.8197C-22.5292 86.8927 -22.6211 86.9912 -22.6863 87.1069C-22.7515 87.2226 -22.7881 87.3522 -22.7931 87.485C-22.7982 87.6177 -22.7714 87.7496 -22.7151 87.8699C-22.6588 87.9902 -22.5746 88.0955 -22.4695 88.1768C-22.3643 88.2582 -22.2414 88.3134 -22.1107 88.3377C-10.9472 96.5099 -1.06587 108.262 13.1746 109.739C17.1669 110.974 15.4995 118.061 16.4718 121.988C16.6106 124.085 16.1679 124.385 14.6421 123.52C9.75604 119.518 3.44918 119.402 -2.25033 117.464C-2.96895 117.241 -3.99396 116.313 -4.49904 117.38C-5.00415 118.447 -3.66494 118.643 -3.07261 119.132C3.12106 121.755 8.71518 125.611 13.3681 130.466C17.6167 133.135 16.7092 139.32 16.4723 144.752C16.2355 150.184 1.32798 141.247 -0.79958 140.065C-12.3325 132.521 0.997403 145.427 4.00908 147.145C8.49499 149.188 8.9348 156.533 13.9505 157.43C16.1803 157.857 16.2182 159.573 15.727 161.868C13.9136 167.73 12.8117 174.685 8.80907 179.564C1.24076 188.758 -3.22995 194.584 -6.04453 197.602C-8.8591 200.62 -9.43392 200.923 -9.25988 199.229C-9.0858 197.535 -7.82755 193.468 -7.12325 187.656C-6.26681 180.362 -6.36749 172.986 -7.42281 165.717C-7.50713 164.293 -8.75195 164.781 -8.77796 165.997C-10.8064 177.079 -12.3282 188.361 -15.0942 199.565C-17.8835 208.286 -21.9161 216.559 -27.0677 224.13C-25.9291 219.235 -25.2211 214.249 -24.9518 209.23C-24.7914 208.712 -24.5817 208.034 -25.3772 207.919C-26.1727 207.804 -26.3179 208.414 -26.463 209.025C-28.4143 215.031 -30.757 220.904 -33.476 226.604C-35.3872 231.511 -38.3955 235.915 -42.2714 239.482C-46.1035 243.102 -50.4206 246.311 -53.998 250.098C-58.5094 254.61 -63.2834 258.852 -68.2952 262.802C-73.068 266.918 -78.206 270.66 -83.0862 274.699C-84.7686 276.319 -85.6027 275.056 -84.5163 273.383C-82.7411 269.585 -81.1725 265.695 -79.8175 261.728C-78.5715 257.618 -76.1483 253.963 -72.8466 251.214C-68.3312 248.025 -64.1354 244.406 -60.318 240.409C-56.3246 236.501 -52.748 232.19 -49.6456 227.544C-48.7318 226.429 -46.6749 225.012 -47.6136 223.804C-48.5522 222.596 -49.8331 225.04 -50.937 225.921C-52.7667 227.453 -54.4861 229.193 -56.2483 230.789L-61.6794 235.619C-65.1179 238.895 -68.9374 241.747 -73.0563 244.115C-72.9372 240.339 -71.9867 236.636 -70.2724 233.269C-68.5581 229.903 -66.1223 226.956 -63.1379 224.638C-58.1525 219.975 -51.761 216.141 -46.4629 209.479C-45.2966 207.83 -40.4897 203.462 -36.1866 199.026C-31.8834 194.59 -28.5783 189.845 -29.8175 188.194C-30.677 187.579 -31.5567 188.443 -32.2273 189.196C-34.1933 191.441 -36.4632 193.4 -38.9713 195.018C-41.4738 196.604 -44.1971 197.771 -46.4572 199.562C-50.2649 201.965 -53.6123 205.028 -56.3418 208.607C-59.0623 212.021 -62.3232 214.968 -65.9955 217.331C-61.3449 202.297 -48.9008 187.665 -36.1463 178.109C-33.4159 176.07 -28.5429 172.903 -24.1671 169.363C-19.7913 165.823 -15.9126 161.911 -15.9514 158.36C-20.4988 158.919 -24.4983 166.333 -28.8118 169.106C-31.2556 171.133 -33.9 172.906 -36.7041 174.398C-39.566 175.872 -42.409 177.002 -45.2128 178.713C-50.9615 181.461 -55.6816 185.97 -58.687 191.585C-59.5528 193.676 -60.7839 192.99 -60.0843 191.152C-59.2805 188.202 -58.2161 185.329 -56.9037 182.568C-55.6854 179.693 -54.2162 176.931 -52.513 174.314C-50.8023 171.693 -48.9052 169.199 -46.8362 166.851C-44.8833 164.42 -42.722 162.165 -40.3768 160.11C-38.5895 158.557 -37.0317 156.759 -35.7499 154.769C-33.1489 149.978 -29.952 145.536 -26.2353 141.546C-25.5138 140.687 -24.9452 139.71 -24.5545 138.658C-22.2562 133.209 -19.129 128.19 -16.5236 122.879C-15.84 121.518 -13.7367 119.809 -15.2901 118.891C-16.8435 117.974 -17.6453 120.566 -18.6084 121.841C-21.949 126.79 -26.2343 131.033 -31.2188 134.325C-35.5217 138.745 -39.1431 143.78 -41.9644 149.264C-42.9641 151.819 -44.3512 154.204 -46.0771 156.337C-49.4295 160.294 -52.495 164.486 -55.25 168.879C-54.7572 163.391 -53.5985 157.983 -51.7993 152.776C-50.9851 150.144 -49.7718 147.635 -48.6136 145.023C-47.4553 142.41 -46.3341 139.917 -44.9886 137.405C-43.6431 134.894 -42.31 132.423 -40.8447 129.949C-39.3794 127.475 -38.1138 124.939 -36.7806 122.467C-35.4475 119.996 -33.9699 117.482 -32.5569 115.036C-31.1439 112.589 -30.0503 110.044 -28.8122 107.456C-28.0052 105.695 -25.6793 100.298 -27.5644 99.3214C-28.9218 98.9015 -29.0777 100.819 -29.3984 101.856C-31.2241 107.758 -35.5425 112.102 -38.7343 117.188C-41.6319 121 -44.2252 125.033 -46.4904 129.251C-48.0324 134.235 -50.417 132.187 -47.776 127.892C-44.5355 121.937 -42.4337 115.431 -41.5782 108.706C-40.8885 102.011 -39.5745 95.3967 -37.6531 88.9475C-39.5575 83.5085 -47.1173 106.249 -48.1094 108.608C-49.9194 113.772 -51.1489 119.121 -51.775 124.558C-52.15 127.325 -53.3021 124.828 -55.1628 121.369C-57.0234 117.909 -59.4053 113.59 -61.6468 112.634C-62.5949 111.988 -63.3724 111.122 -63.9126 110.11C-64.4528 109.098 -64.7398 107.971 -64.7489 106.825C-64.5923 104.339 -67.0906 104.921 -67.216 107.023C-69.0307 114.02 -62.5637 118.992 -61.1028 125.299C-59.6418 131.605 -55.4553 137.444 -53.7396 143.917C-54.1067 147.315 -54.8209 150.667 -55.8712 153.919C-57.1598 160.205 -58.4142 166.24 -59.62 172.683C-60.3368 176.131 -61.6937 172.741 -61.8854 171.239C-64.0639 163.107 -67.9333 155.523 -73.2411 148.982C-76.9977 145.854 -75.7627 140.731 -76.9523 141.324C-78.4952 144.473 -77.2128 151.074 -75.4172 157.572C-74.0113 163.119 -71.7731 168.423 -68.7787 173.302C-66.2122 177.07 -64.5631 181.385 -63.963 185.903C-63.363 190.42 -63.8286 195.015 -65.3228 199.319C-65.4409 200.55 -66.3969 200.953 -66.921 199.961C-72.5934 193.269 -76.3744 184.846 -82.0097 178.034C-82.3407 177.408 -83.0934 177.437 -83.1928 178.324C-84.7981 190.017 -79.8712 195.867 -75.043 202.036C-72.4409 205.129 -70.6513 208.821 -69.8363 212.778C-69.0228 217.746 -70.0984 222.837 -72.8516 227.05C-76.0329 220.648 -85.683 221.159 -86.7209 213.06C-86.7189 212.939 -86.7447 212.819 -86.7964 212.709C-86.8481 212.599 -86.9244 212.503 -87.0192 212.427C-87.1141 212.351 -87.225 212.298 -87.3436 212.272C-87.4621 212.246 -87.5851 212.247 -87.7031 212.276C-93.2866 216.185 -79.5872 230.865 -76.6139 233.839C-74.8404 235.742 -75.2924 238.617 -76.4201 241.414C-77.7606 244.12 -78.8917 246.925 -79.8032 249.805C-80.1733 251.001 -80.7271 251.66 -81.5089 250.369C-85.9899 243.792 -91.6391 238.091 -98.1766 233.547C-105.814 228.825 -102.584 219.513 -105.111 223.581C-106.688 235.327 -94.5735 241.696 -89.6471 250.517C-86.1873 255.17 -87.5027 260.836 -87.2388 266.205C-87.7199 267.76 -89.5377 272.222 -91.4984 270.218C-93.4591 268.213 -97.5138 267.745 -99.7997 265.378C-100.953 264.016 -103.263 265.967 -102.395 267.546C-101.736 271.07 -96.7368 270.607 -96.4186 274.245C-95.1848 280.437 -99.4007 286.43 -104.964 291.263C-113.623 297.76 -122.533 303.654 -130.839 310.566C-134.405 313.046 -131.828 308.25 -131.025 306.926C-126.833 300.445 -126.066 293.299 -123.585 286.551C-123.049 285.668 -121.797 284.308 -122.77 283.919C-126.081 285.429 -127.961 293.062 -129.925 296.299C-134.402 302.429 -138.057 309.295 -142.516 315.649C-144.735 318.831 -147.139 321.88 -149.715 324.782C-151.084 326.237 -152.48 327.64 -153.944 328.979C-155.503 330.299 -157.15 331.512 -158.873 332.61C-159.381 332.977 -160.036 333.823 -160.643 333.242C-161.251 332.66 -160.744 332.293 -160.556 331.827C-159.803 329.394 -158.515 323.108 -161.442 322.814C-161.71 322.899 -161.949 323.058 -162.131 323.272C-162.313 323.486 -162.431 323.747 -162.473 324.025C-163.716 330.587 -169.175 336.501 -173.784 342.066C-177.868 346.91 -182.552 351.217 -187.722 354.882C-192.942 358.413 -198.417 361.553 -204.101 364.277C-199.924 359.54 -195.645 354.615 -191.338 349.743C-187.201 344.895 -183.453 339.729 -180.128 334.292C-175.647 327.351 -169.958 321.268 -163.33 316.332C-156.25 311.968 -152.917 304.872 -147.421 299.407C-141.453 293.721 -136.66 286.921 -133.311 279.391C-131.436 273.33 -136.226 279.057 -142.219 285.986C-145.289 289.405 -148.802 293.125 -151.389 296.257C-152.935 298.307 -154.946 299.96 -157.257 301.083C-159.696 302.213 -161.92 303.757 -163.83 305.647C-164.818 307.002 -165.868 306.153 -165.301 304.886C-161.875 291.833 -158.723 286.735 -153.715 283.129C-150.797 281.316 -147.704 279.799 -144.484 278.6C-140.067 276.65 -135.757 274.469 -131.57 272.065C-128.625 270.18 -125.499 268.7 -122.603 266.975C-119.558 265.388 -116.818 263.278 -114.506 260.741C-114.014 260.281 -113.488 259.57 -113.964 258.986C-114.439 258.402 -115.321 258.566 -116.047 259.216C-121.937 262.986 -128.594 262.019 -134.417 265.854C-139.968 268.812 -145.914 270.075 -151.261 273.358C-152.201 273.853 -153.331 275.383 -154.208 274.543C-154.199 271.968 -151.024 267.926 -147.56 263.798C-144.096 259.67 -139.787 256.066 -137.745 253.989C-134.801 251.067 -132.065 247.942 -129.559 244.637C-127.103 241.304 -124.27 238.266 -121.115 235.583C-118.991 234.23 -113.037 226.154 -119.364 229.92C-124.395 234.874 -131.185 238.017 -135.223 243.715C-137.016 246.549 -139.612 248.787 -142.68 250.146C-145.812 251.438 -148.745 253.163 -151.396 255.271C-151.519 255.67 -152.196 256.16 -152.638 255.892C-153.08 255.624 -152.808 254.747 -152.556 254.213C-150.472 249.629 -147.365 245.583 -143.473 242.386C-139.517 239.275 -136.048 235.592 -133.181 231.457C-129.598 227.934 -132.246 225.324 -135.645 228.816C-139.916 231.463 -143.97 234.446 -147.765 237.738C-148.224 238.513 -149.714 238.664 -149.242 237.281C-146.114 225.752 -135.489 219.689 -126.158 213.138C-123.786 211.32 -121.66 209.201 -119.834 206.836C-117.792 204.92 -116.358 202.447 -115.709 199.724C-120.308 204.164 -125.743 207.651 -131.699 209.982C-137.307 213.178 -142.492 217.064 -147.132 221.549C-147.23 221.868 -147.621 222.14 -148.008 221.977C-147.724 218.308 -146.75 214.725 -145.135 211.418C-144.263 209.498 -143.29 207.626 -142.219 205.81C-141.178 203.86 -140.113 201.83 -138.94 199.877C-134.154 192.182 -129.002 184.295 -125.364 179.041C-121.912 176.788 -124.131 175.053 -126.804 177.897C-129.477 180.74 -132.918 183.52 -135.64 186.523C-138.545 189.367 -141.122 192.527 -143.323 195.944C-144.431 197.829 -145.346 200.08 -146.411 202.11C-147.432 204.088 -148.629 205.969 -149.988 207.732C-150.691 204.631 -150.256 200.964 -150.802 197.781C-151.733 192.73 -147.717 189.647 -146.063 185.571C-142.347 176.103 -139.695 165.694 -133.189 158.095C-132.841 157.678 -132.091 156.949 -132.671 156.42C-134.307 155.914 -135.388 157.851 -136.332 158.783C-138.505 161.396 -140.464 164.18 -142.188 167.108C-144.779 170.676 -146.957 173.191 -146.496 170.145C-145.078 163.156 -144.62 155.738 -143.795 148.828C-143.573 148.11 -142.896 147.053 -143.795 146.425C-145.043 147.245 -146.106 148.316 -146.916 149.57C-147.726 150.825 -148.265 152.234 -148.498 153.709C-149.018 155.447 -149.434 157.215 -149.742 159.004C-150.066 160.368 -150.318 161.749 -150.497 163.139C-151.789 167.576 -152.723 172.108 -153.29 176.694C-153.519 180.686 -160.93 171.272 -161.358 169.829C-162.962 166.793 -165.596 164.429 -168.788 163.161C-171.192 161.456 -172.927 163.672 -170.262 165.239C-167.73 167.32 -165.731 169.976 -164.434 172.984C-162.822 177.263 -160.441 181.213 -157.41 184.639C-156.103 185.786 -155.948 187.407 -155.517 188.982C-155.055 192.396 -154.921 195.846 -155.117 199.286C-154.478 203.895 -154.366 208.562 -154.784 213.196C-157.132 210.388 -159.115 207.293 -160.683 203.987C-162.951 201.843 -173.308 191.911 -175.478 192.987C-175.638 193.506 -175.248 193.801 -174.951 194.111C-171.214 198.169 -167.84 202.546 -164.868 207.192C-162.348 211.773 -162.165 217.685 -158.093 221.348C-156.197 223.42 -155.381 229.833 -155.377 236.606C-155.401 242.164 -156.113 247.696 -157.498 253.078C-157.621 253.476 -157.119 252.845 -157.498 253.078C-157.876 253.31 -157.584 253.357 -157.777 252.991C-157.97 252.626 -157.839 253.191 -157.691 252.712C-164.217 245.563 -169.683 237.516 -173.92 228.816C-176.09 226.01 -177.534 222.712 -178.123 219.215C-178.025 218.896 -178.233 218.438 -178.629 218.446C-182.429 222.951 -173.19 234.941 -172.487 241.013C-168.286 248.547 -165.007 256.559 -162.722 264.875C-161.69 269.117 -161.317 273.491 -161.616 277.844C-161.889 282.568 -163.18 287.176 -165.401 291.354L-165.475 291.593C-165.675 291.532 -165.715 291.519 -165.401 291.354C-167.794 282.157 -172.665 273.79 -179.483 267.162C-183.363 263.501 -186.672 259.282 -189.302 254.643C-189.59 254.16 -190.028 253.457 -190.606 253.628C-192.535 255.478 -188.647 259.739 -187.602 261.591C-179.896 273.588 -167.362 286.378 -172.272 302.817C-175.458 310.57 -175.556 321.069 -182.034 327.586C-183.751 324.651 -184.299 320.768 -185.954 317.634C-189.188 311.26 -185.639 303.182 -186.995 296.253C-186.775 294.267 -190.884 280.544 -192.656 287.685C-193.087 296.29 -191.684 304.764 -193.319 313.302C-195.786 321.278 -192.154 328.344 -193.261 336.303C-194.415 341.636 -196.617 346.687 -199.739 351.164C-202.874 356.24 -207.175 360.496 -212.285 363.58C-212.703 361.23 -212.44 358.811 -211.527 356.606C-207.982 348.964 -209.797 340.975 -207.892 333.262C-207.414 331.007 -209.912 331.589 -210.018 333.347C-212.613 340.322 -212.241 347.602 -215.251 354.361C-218.582 359.568 -221.366 365.106 -223.556 370.886C-226.407 376.427 -234.601 379.441 -240.546 382.539C-261.429 391.005 -282.798 398.226 -304.539 404.163C-310.009 405.442 -315.485 407.025 -321.041 408.015C-326.596 409.006 -332.204 410.023 -337.787 410.962C-343.371 411.9 -349.06 412.193 -354.72 412.671C-360.379 413.148 -366.09 413.085 -371.786 413.115C-379.116 413.338 -379.101 413.43 -378.831 419.062C-378.706 422.334 -378.691 422.426 -374.242 422.186C-365.768 421.661 -357.277 421.361 -348.83 420.216C-344.612 419.73 -340.366 419.296 -336.19 418.665C-332.014 418.034 -327.844 417.14 -323.687 416.285C-321.216 415.775 -318.708 415.47 -316.186 415.372C-313.754 415.182 -311.311 415.179 -308.878 415.361C-304.171 415.713 -299.54 416.748 -295.131 418.434C-287.068 421.071 -280.103 426.298 -275.321 433.3C-273.266 435.99 -263.345 447.754 -258.327 444.543C-256.793 443.401 -257.698 442.51 -258.524 441.643C-263.351 435.427 -267.574 428.766 -271.136 421.75C-269.86 420.877 -268.26 422.071 -266.946 422.346C-257.369 426.882 -244.165 428.738 -235.953 434.293C-230.047 440.796 -216.357 440.093 -207.375 443.44C-198.675 443.597 -219.326 436.116 -221.127 436.564C-224.318 436.447 -227.4 435.372 -229.971 433.479C-234.152 429.401 -238.775 425.801 -243.755 422.748C-243.508 421.951 -242.655 422.302 -242.126 422.291C-234.95 422.283 -227.559 422.428 -220.216 422.165C-213.104 421.758 -206.02 423.359 -199.774 426.785C-193.718 430.13 -187.074 432.274 -180.206 433.101C-171.148 434.505 -161.495 434.127 -152.593 435.613C-149.203 436.451 -145.661 436.452 -142.271 435.617C-141.822 435.013 -142.418 434.96 -142.802 434.928C-147.828 434.772 -151.521 432.712 -156.171 432.191C-162.597 430.902 -169.886 430.569 -176.622 429.01C-182.704 428.188 -188.341 425.368 -192.646 420.995C-192.312 419.918 -190.903 420.31 -190.046 420.226C-184.973 419.523 -179.75 419.042 -174.704 418.287C-169.659 417.532 -164.46 416.562 -159.303 415.449C-153.523 413.957 -147.404 414.492 -141.969 416.966C-133.223 421.184 -123.342 422.446 -113.818 420.563C-103.549 418.759 -95.1381 421.972 -84.3139 418.373C-81.1645 417.95 -80.4142 414.817 -83.512 415.781C-97.2899 417.898 -108.547 413.848 -122.214 415.606C-127.757 415.989 -130.274 411.54 -135.788 411.407C-136.147 411.296 -136.746 411.11 -136.724 410.899C-136.703 410.687 -135.829 410.127 -135.212 409.968C-126.15 407.966 -116.691 402.983 -107.86 401.87C-97.7657 403.049 -87.5829 403.273 -77.4474 402.54C-66.4368 401.576 -55.5151 399.784 -44.7753 397.18C-38.7909 394.662 -44.2653 394.541 -51.6021 395.068C-57.6511 395.109 -63.6844 395.684 -69.6312 396.787C-77.2466 399.063 -78.7336 393.972 -83.287 391.864C-83.0526 391.106 -82.1766 390.678 -81.405 390.305C-76.0572 388.289 -70.3727 384.761 -64.8151 382.067C-60.1356 379.105 -54.6173 377.745 -49.0936 378.192C-44.6845 379.132 -40.0851 378.462 -36.1301 376.304C-31.7194 374.348 -27.2919 371.348 -22.4878 369.252C-18.2925 367.709 -14.0972 366.167 -9.84031 364.426C-9.10578 364.172 -7.98729 363.95 -7.79575 363.048C-8.09203 361.602 -13.8128 364.682 -16.1754 364.825C-24.7947 366.528 -34.927 372.132 -42.0732 369.921C-35.237 364.084 -26.7287 362.74 -20.5604 355.386C-19.0795 353.713 -17.3395 352.29 -15.4066 351.169C-7.61648 346.632 -1.47284 339.357 5.11801 333.181C7.22136 331.473 5.92411 329.586 4.02106 330.788C1.46418 331.92 -0.823438 333.58 -2.69113 335.659C-4.6975 337.684 -6.86666 339.541 -9.17681 341.212C-13.6517 343.691 -17.9123 346.539 -21.9147 349.724C-26.0078 352.806 -30.3296 355.573 -34.8427 358.002C-36.4786 359.331 -37.3381 358.715 -35.9874 357.036C-33.0585 353.077 -30.5901 348.799 -28.6299 344.282C-26.8356 339.722 -24.4851 335.401 -21.6317 331.417C-20.3762 329.62 -17.6394 324.874 -20.1277 324.716C-20.4356 324.851 -20.7064 325.059 -20.9169 325.32C-21.1274 325.582 -21.2714 325.891 -21.3368 326.221C-22.4912 329.364 -24.4536 332.147 -27.0267 334.292C-37.1521 347.906 -48.0462 360.933 -59.6559 373.308C-63.4202 376.545 -67.7195 379.103 -72.3618 380.869C-76.917 382.868 -81.5579 384.578 -85.8032 386.847C-87.6446 387.851 -88.2058 386.978 -86.49 385.674C-81.9336 380.136 -77.4418 374.666 -73.2818 369.137C-69.258 363.57 -65.5773 357.763 -62.2599 351.749C-61.3098 350.112 -60.0484 348.676 -58.5469 347.523C-55.177 345.114 -57.1036 342.858 -60.181 344.746C-63.3549 346.131 -66.0189 348.467 -67.8046 351.431C-70.0646 354.728 -72.5052 357.896 -75.1152 360.923C-77.7701 363.991 -80.695 366.8 -83.5372 369.765C-86.3793 372.731 -89.1569 375.629 -91.7595 378.669C-94.3901 381.611 -96.8162 384.729 -99.0208 388.002C-101.382 391.738 -104.909 394.593 -109.058 396.126C-113.17 397.824 -117.749 398.767 -121.646 400.052C-122.617 400.364 -123.48 400.184 -122.732 399.323C-120.849 395.924 -118.513 392.796 -115.788 390.024C-112.692 387.348 -110.272 383.98 -108.722 380.194C-106.172 374.779 -104.375 369.392 -102.261 363.973C-100.251 358.16 -97.3631 352.688 -93.6981 347.747C-93.0638 346.748 -92.6305 345.636 -92.4224 344.471C-91.582 343.027 -93.3534 339.421 -94.5827 342.405C-95.4684 348.379 -104.551 352.429 -106.743 359.091C-111.41 366.823 -114.434 375.325 -120.614 382.72C-126.457 387.466 -130.031 393.788 -136.828 397.802C-147.155 404.176 -158.584 406.758 -169.271 411.753C-172.851 412.594 -176.471 413.253 -180.118 413.728C-183.784 414.124 -187.424 414.439 -190.973 414.74C-191.566 414.818 -192.448 414.983 -192.45 414.283C-192.452 413.583 -191.62 413.578 -191.11 413.343C-180.936 409.587 -174.74 401.716 -167.172 395.494C-164.022 391.1 -160.185 387.242 -155.807 384.067C-151.264 380.936 -147.226 377.132 -143.831 372.785C-141.083 369.098 -137.612 366.009 -133.63 363.707C-129.683 361.353 -126.063 358.492 -122.861 355.197C-125.128 354.889 -130.697 359.458 -133.93 360.293C-139.367 362.531 -144.195 366.023 -148.018 370.485C-151.874 374.926 -156.293 378.846 -161.162 382.148C-166.974 386.454 -173.034 390.415 -179.311 394.011C-185.491 399.411 -192.597 403.651 -200.287 406.528C-204.99 408.438 -208.337 410.067 -211.03 411.419C-213.723 412.77 -215.782 414.056 -217.956 415C-222.222 416.914 -227.028 417.743 -238.263 415.883C-234.897 413.91 -231.448 412.093 -228.257 409.978C-225.063 407.865 -222.048 405.496 -219.241 402.893C-216.348 400.395 -213.079 398.368 -209.553 396.889C-207.155 395.359 -201.301 394.111 -201.427 391.407C-201.774 390.688 -202.904 390.95 -203.814 391.062C-213.032 392.58 -221.099 397.73 -229.706 401.796C-236.09 404.191 -242.552 407.828 -248.991 410.686C-255.216 413.671 -262.2 414.709 -269.028 413.663C-270.772 413.171 -272.573 412.908 -274.384 412.88L-284.242 411.797C-290.88 411.054 -296.199 410.151 -292.226 409.327C-269.492 403.254 -247.366 395.107 -226.125 384.99C-223.031 384.015 -219.873 383.255 -216.673 382.715C-213.502 382.079 -210.352 381.655 -207.135 381.296C-203.919 380.937 -200.717 380.485 -197.478 379.914C-194.241 379.295 -191.053 378.441 -187.939 377.36C-183.096 375.843 -177.585 375.844 -172.483 374.626C-168.588 374.477 -168.375 371.528 -172.398 372.511C-177.321 373.101 -182.29 373.203 -187.234 372.816C-192.145 372.542 -197.072 372.851 -201.91 373.737C-202.608 373.871 -203.815 374.24 -203.907 373.687C-192.999 366.707 -179.581 360.24 -169.077 351.736C-165.119 348.593 -160.553 346.301 -155.665 345.006C-146.43 342.942 -136.854 342.922 -127.608 344.947C-125.838 344.883 -122.516 346.304 -121.116 344.465C-119.716 342.626 -132.145 341.796 -134.051 340.463C-138.592 339.249 -143.346 339.062 -147.967 339.916C-154.384 341.994 -154.479 339.474 -148.503 336.56C-139.757 331.023 -130.219 326.843 -120.216 324.164C-115.685 323.105 -111.031 322.663 -106.381 322.851C-101.743 322.98 -97.1632 323.923 -92.8516 325.638C-85.7269 329.247 -77.903 331.264 -69.9223 331.552C-61.6744 332.181 -52.965 332.166 -44.8869 333.485C-43.698 333.46 -39.1127 334.616 -38.5024 332.926C-38.231 332.049 -39.7002 332.556 -40.4187 332.333C-52.4207 331.679 -62.0371 327.131 -72.7341 324.521C-80.3026 323.534 -84.3787 317.904 -90.7315 315.109C-91.8494 314.763 -94.1663 315.182 -93.6975 313.667C-93.2288 312.152 -91.1463 312.49 -89.7999 311.814C-85.2882 310.239 -82.989 314.402 -79.1217 314.768C-73.4049 315.095 -68.5429 318.609 -62.5852 317.874C-66.4463 314.8 -73.2206 315.064 -76.6505 311.163C-81.6032 308.932 -78.9003 306.841 -73.9073 306.113C-64.2513 305.867 -57.56 310.821 -49.0892 312.567C-48.2444 312.523 -41.2943 314.236 -35.099 315.279C-28.9039 316.321 -23.5805 316.788 -26.1893 314.758C-32.083 310.524 -38.8468 307.655 -45.9883 306.361C-50.5249 305.613 -56.4267 305.885 -58.7323 302.025C-58.4733 301.188 -57.619 300.972 -56.9491 300.786C-52.9853 300.133 -48.3872 298.279 -44.091 297.117C-42.3301 296.311 -40.4016 295.937 -38.4662 296.027C-36.5308 296.116 -34.6445 296.667 -32.9645 297.632C-21.6292 303.41 -7.55776 305.011 1.83256 313.683C3.07017 314.066 5.24504 316.792 6.8229 315.227C8.40075 313.661 0.724633 310.195 0.0668109 307.937C-4.95309 300.268 -18.0495 300.323 -21.0249 291.276C-14.6623 288.525 -7.98535 287.445 -1.58942 285.011C-0.741686 284.668 0.183418 284.562 1.08727 284.703C1.99112 284.844 2.83983 285.227 3.54307 285.812C7.55147 288.975 14.0506 287.621 19.1614 288.634C26.5853 289.269 33.4729 292.763 38.3689 298.377C39.8025 299.257 45.6036 308.785 46.9607 306.802C47.7606 305.914 47.0607 305.348 46.7602 304.905C41.7239 292.905 30.8998 288.726 19.987 284.127C18.7406 283.348 11.7636 281.015 16.9888 278.83C19.9514 277.293 23.2109 276.411 26.5458 276.244C29.8807 276.077 33.213 276.629 36.3165 277.862C40.2394 279.76 44.677 280.319 48.9471 279.453C57.1321 277.561 65.7062 278.273 73.4693 281.49C74.8266 281.91 76.9877 283.409 78.6983 281.273C79.1424 279.837 77.9904 279.743 77.3487 279.414C72.3643 277.432 67.8722 274.387 64.1862 270.492C56.8494 263.241 51.0969 269.676 45.4837 267.459L45.2254 267.728ZM-51.2916 131.479L-51.7294 130.208C-50.7018 128.866 -50.3387 130.944 -51.2916 131.479Z" fill="#111111"/>
</svg>