<svg width="78" height="161" viewBox="0 0 78 161" fill="none" xmlns="http://www.w3.org/2000/svg">
<g opacity="0.8">
<path d="M38.4505 74.1985C41.8705 80.6585 45.8105 87.0285 48.6905 93.7385C51.5826 100.758 53.8839 108.006 55.5705 115.408C57.4509 122.836 58.5733 130.435 58.9205 138.088C59.0505 141.758 58.9905 145.428 58.9805 149.088C58.9423 151.021 59.0191 152.955 59.2105 154.878C59.4305 156.668 59.9505 158.388 60.1305 160.188C60.2005 160.948 61.4005 160.958 61.3305 160.188C60.9605 156.428 60.1705 152.898 60.1805 149.088C60.1905 145.278 60.2505 141.438 60.1005 137.608C59.7311 130.008 58.5988 122.463 56.7205 115.088C55.0258 107.66 52.7179 100.385 49.8205 93.3385C46.9205 86.5585 42.9405 80.1185 39.4905 73.5985C39.1305 72.9085 38.0905 73.5185 38.4905 74.1985H38.4505Z" fill="#111111"/>
<path d="M16.4006 36.8792C20.5706 42.0892 24.8106 47.3292 28.0006 53.2292C30.9406 58.6792 33.1606 64.4692 36.2406 69.8492C36.3353 69.9475 36.4607 70.0106 36.5961 70.028C36.7315 70.0455 36.8687 70.0162 36.9853 69.9452C37.1018 69.8741 37.1906 69.7654 37.237 69.637C37.2834 69.5087 37.2847 69.3683 37.2406 69.2392C34.0106 63.6092 31.7306 57.4992 28.5606 51.8392C25.3906 46.1792 21.2906 41.0892 17.2406 36.0292C16.7606 35.4292 15.9206 36.2792 16.4006 36.8792Z" fill="#111111"/>
<path d="M21.5406 41.9587C21.0102 38.6697 21.7232 35.3009 23.5406 32.5087C25.0806 30.0287 26.8006 27.3787 29.4406 25.9487L28.5606 25.5987C29.4806 28.0887 28.2406 31.2587 27.4506 33.6687C26.1906 37.5387 23.8806 39.4387 20.2706 41.0787C19.5606 41.3987 20.1706 42.4287 20.8706 42.0787C24.5306 40.4187 26.9706 38.5787 28.3606 34.6987C29.3606 31.9287 30.7906 28.1587 29.7206 25.2487C29.6946 25.1613 29.6493 25.0808 29.5881 25.0131C29.5269 24.9455 29.4512 24.8925 29.3668 24.8579C29.2824 24.8234 29.1913 24.8082 29.1002 24.8135C29.0091 24.8189 28.9204 24.8446 28.8406 24.8887C26.0206 26.4087 24.1506 29.2187 22.5006 31.8887C20.5409 34.8474 19.7662 38.4351 20.3306 41.9387C20.4206 42.6987 21.6206 42.7087 21.5306 41.9387L21.5406 41.9587Z" fill="#111111"/>
<path d="M27.3606 48.8591C28.2896 44.3407 30.1119 40.0535 32.7206 36.2491L31.6206 36.0891C32.3706 38.3191 31.8806 41.8991 31.2806 44.1491C30.9206 45.5291 29.0006 49.7391 27.0006 49.0891C26.2706 48.8391 26.0006 49.9991 26.6806 50.2491C28.6806 50.9091 30.6806 48.3891 31.5906 46.8691C33.1806 44.0791 33.8406 38.8691 32.8206 35.8691C32.7857 35.7577 32.7195 35.6586 32.63 35.5836C32.5405 35.5087 32.4313 35.461 32.3155 35.4463C32.1997 35.4315 32.082 35.4504 31.9766 35.5005C31.8711 35.5506 31.7823 35.63 31.7206 35.7291C29.0457 39.5888 27.1689 43.944 26.2006 48.5391C26.0706 49.2991 27.2006 49.6191 27.3606 48.8591Z" fill="#111111"/>
<path d="M26.4006 49.0886C22.8791 48.8806 19.3502 49.3421 16.0006 50.4486C13.5006 51.1986 11.0006 52.2186 9.22059 54.2486C9.14701 54.3225 9.09398 54.4144 9.06673 54.5151C9.03948 54.6158 9.03896 54.7218 9.06521 54.8228C9.09145 54.9237 9.14357 55.0161 9.21641 55.0908C9.28926 55.1655 9.38032 55.2199 9.4806 55.2486C13.5549 56.0396 17.7482 55.9851 21.8006 55.0886C24.7106 54.4886 27.1406 53.3986 27.1706 50.1886C27.1706 50.0295 27.1074 49.8768 26.9949 49.7643C26.8823 49.6518 26.7297 49.5886 26.5706 49.5886C26.4115 49.5886 26.2589 49.6518 26.1463 49.7643C26.0338 49.8768 25.9706 50.0295 25.9706 50.1886C25.9706 53.7686 21.1606 54.1286 18.4006 54.2986C15.6406 54.4686 12.6306 54.7586 9.83059 54.1086L10.1006 55.1086C13.5506 51.0586 21.4306 49.8586 26.4006 50.2886C27.1706 50.3586 27.1606 49.1586 26.4006 49.0886Z" fill="#111111"/>
<path d="M20.4405 40.3383C17.6654 39.3522 14.7541 38.8023 11.8105 38.7083C9.58052 38.5883 7.08052 38.2683 5.14052 39.6083C5.00622 39.6913 4.90931 39.823 4.87015 39.976C4.83098 40.1289 4.85263 40.291 4.93052 40.4283C6.33052 42.5183 9.86052 42.7583 12.0905 43.3683C13.6452 43.93 15.304 44.1451 16.9505 43.9983C18.5005 43.7083 19.5705 42.6383 20.8405 41.8083C21.4905 41.3883 20.8405 40.3483 20.2405 40.8083C19.4494 41.4317 18.6139 41.9966 17.7405 42.4983C16.0505 43.2783 14.1105 42.7283 12.4005 42.2583C10.6905 41.7883 7.00052 41.3783 6.00052 39.8183L5.79052 40.6383C7.68052 39.3383 10.5505 39.8083 12.7205 39.9683C15.2612 40.111 17.7675 40.623 20.1605 41.4883C20.8905 41.7583 21.1605 40.6083 20.4805 40.3383H20.4405Z" fill="#111111"/>
<path d="M17.1404 35.9185C14.8937 34.1364 12.7844 32.1875 10.8304 30.0885C8.66399 27.4229 7.46227 24.1032 7.42042 20.6685L6.82042 21.2685C10.3804 21.1085 12.7404 27.5385 13.6504 30.0185C14.4504 32.2085 14.5604 35.0185 16.2904 36.7685C16.3462 36.8244 16.4125 36.8686 16.4854 36.8988C16.5583 36.929 16.6365 36.9446 16.7154 36.9446C16.7943 36.9446 16.8725 36.929 16.9454 36.8988C17.0183 36.8686 17.0846 36.8244 17.1404 36.7685C17.1962 36.7127 17.2405 36.6465 17.2707 36.5735C17.3009 36.5006 17.3165 36.4225 17.3165 36.3435C17.3165 36.2646 17.3009 36.1865 17.2707 36.1135C17.2405 36.0406 17.1962 35.9744 17.1404 35.9185C15.8104 34.6185 15.7304 32.4085 15.1404 30.7285C14.5328 28.715 13.7079 26.7736 12.6804 24.9385C11.4904 22.9385 9.39042 19.9385 6.78042 20.0685C6.62288 20.0735 6.47316 20.1384 6.3617 20.2498C6.25025 20.3613 6.18543 20.511 6.18042 20.6685C6.21831 23.8295 7.15854 26.9139 8.89042 29.5585C10.8904 32.4085 13.6804 34.4985 16.2504 36.7685C16.8304 37.2785 17.6804 36.4285 17.1004 35.9185H17.1404Z" fill="#111111"/>
<path d="M57.5405 22.7588C57.6303 23.3373 57.6037 23.9279 57.4623 24.496C57.3209 25.0641 57.0676 25.5983 56.7172 26.0673C56.3667 26.5362 55.9263 26.9305 55.4215 27.2271C54.9168 27.5237 54.3579 27.7165 53.7777 27.7944C53.1974 27.8722 52.6075 27.8335 52.0425 27.6805C51.4774 27.5275 50.9485 27.2632 50.4869 26.9032C50.0252 26.5432 49.64 26.0947 49.3539 25.584C49.0678 25.0732 48.8864 24.5105 48.8205 23.9288C48.5005 21.5188 50.8805 18.0288 53.3005 18.2088C56.5505 18.4588 57.2205 20.3588 57.5405 22.7588Z" fill="#111111"/>
<path d="M44.8105 104.158C44.9003 104.737 44.8737 105.327 44.7323 105.895C44.591 106.464 44.3376 106.998 43.9872 107.467C43.6368 107.936 43.1963 108.33 42.6915 108.627C42.1868 108.923 41.6279 109.116 41.0477 109.194C40.4675 109.272 39.8775 109.233 39.3125 109.08C38.7474 108.927 38.2185 108.663 37.7569 108.303C37.2952 107.943 36.9101 107.494 36.6239 106.983C36.3378 106.473 36.1565 105.91 36.0905 105.328C35.7705 102.918 38.1506 99.4283 40.5706 99.6083C43.8206 99.8583 44.4905 101.748 44.8105 104.158Z" fill="#111111"/>
<path d="M73.5605 43.0883C73.7157 44.2459 73.4046 45.4178 72.6957 46.3461C71.9868 47.2744 70.9382 47.8831 69.7805 48.0382C68.6229 48.1934 67.451 47.8823 66.5227 47.1734C65.5944 46.4645 64.9857 45.4159 64.8305 44.2582C64.5105 41.8582 66.8905 38.3883 69.3205 38.5683C72.5605 38.7683 73.2405 40.6583 73.5605 43.0883Z" fill="#111111" stroke="#111111" stroke-miterlimit="10"/>
<path d="M44.2705 90.3588C44.3473 90.932 44.3105 91.5147 44.1621 92.0737C44.0137 92.6327 43.7567 93.157 43.4057 93.6166C43.0547 94.0763 42.6166 94.4623 42.1164 94.7526C41.6162 95.043 41.0637 95.2319 40.4905 95.3088C39.9173 95.3856 39.3345 95.3488 38.7756 95.2004C38.2166 95.052 37.6923 94.7949 37.2326 94.4439C36.773 94.0929 36.387 93.6548 36.0966 93.1546C35.8063 92.6545 35.6173 92.102 35.5405 91.5288C35.2205 89.1288 37.6005 85.6588 40.0305 85.8388C43.2705 86.0888 44.0005 87.9688 44.2705 90.3588Z" fill="#111111" stroke="#111111" stroke-miterlimit="10"/>
<path d="M53.6305 47.6188C53.6991 48.4835 53.4338 49.3416 52.889 50.0165C52.3442 50.6914 51.5614 51.1318 50.7018 51.2471C49.8421 51.3625 48.9709 51.1439 48.2675 50.6363C47.5642 50.1288 47.0821 49.371 46.9205 48.5188C46.6805 46.6788 48.5105 44.0088 50.3705 44.1488C52.8705 44.3288 53.3905 45.7788 53.6305 47.6188Z" fill="#111111"/>
<path d="M63.4906 52.9091C63.591 53.7891 63.3421 54.6733 62.7973 55.3715C62.2525 56.0698 61.4554 56.5264 60.5775 56.643C59.6995 56.7596 58.8109 56.527 58.1027 55.9951C57.3945 55.4633 56.9234 54.6748 56.7906 53.7991C56.5406 51.9591 58.3706 49.2891 60.2306 49.4291C62.7306 49.6091 63.2506 51.0891 63.4906 52.9091Z" fill="#111111"/>
<path d="M60.1505 28.4688C60.9498 28.7004 61.6356 29.2187 62.0765 29.9245C62.5174 30.6303 62.6825 31.4739 62.54 32.2938C62.3976 33.1137 61.9577 33.8523 61.3046 34.368C60.6515 34.8838 59.8311 35.1404 59.0005 35.0888C57.1705 34.7688 55.1805 32.2189 55.8705 30.4889C56.7805 28.1989 58.3205 28.1488 60.1505 28.4688Z" fill="#111111"/>
<path d="M32.5804 95.9088C33.4635 96.0652 34.2484 96.5661 34.7622 97.3013C35.2761 98.0364 35.4768 98.9456 35.3204 99.8287C35.1639 100.712 34.663 101.497 33.9278 102.011C33.1927 102.524 32.2835 102.725 31.4004 102.569C29.5704 102.249 27.5804 99.6987 28.2804 97.9587C29.2104 95.6387 30.7504 95.5888 32.5804 95.9088Z" fill="#111111"/>
<path d="M70.3204 54.5992C71.2036 54.7557 71.9884 55.2566 72.5023 55.9917C73.0161 56.7268 73.2169 57.636 73.0604 58.5192C72.9039 59.4023 72.403 60.1872 71.6679 60.701C70.9328 61.2149 70.0236 61.4157 69.1404 61.2592C67.3104 60.9392 65.3304 58.3892 66.0204 56.6492C67.0004 54.3292 68.4904 54.2792 70.3204 54.5992Z" fill="#111111"/>
<path d="M48.8506 66.7292C49.4491 66.8661 49.972 67.2282 50.3107 67.7402C50.6495 68.2523 50.7783 68.8751 50.6702 69.4795C50.5622 70.0839 50.2257 70.6235 49.7306 70.9865C49.2354 71.3495 48.6195 71.508 48.0106 71.4292C46.7206 71.1992 45.3206 69.4292 45.8106 68.1792C46.4706 66.5392 47.5506 66.4992 48.8506 66.7292Z" fill="#111111"/>
<path d="M48.3606 75.7585C48.9555 75.8978 49.4745 76.2597 49.811 76.7698C50.1474 77.2799 50.2756 77.8995 50.1694 78.5012C50.0631 79.1029 49.7304 79.6411 49.2396 80.0052C48.7488 80.3692 48.1373 80.5314 47.5306 80.4585C46.2406 80.2285 44.8306 78.4585 45.3206 77.2085C46.0006 75.5685 47.0706 75.5285 48.3606 75.7585Z" fill="#111111"/>
<path d="M57.4204 71.8483C58.0154 71.9876 58.5344 72.3495 58.8708 72.8596C59.2072 73.3697 59.3355 73.9893 59.2292 74.591C59.123 75.1928 58.7902 75.731 58.2995 76.095C57.8087 76.459 57.1971 76.6213 56.5904 76.5483C55.3004 76.3183 53.9004 74.5483 54.3904 73.2983C55.0504 71.6583 56.1304 71.6183 57.4204 71.8483Z" fill="#111111" stroke="#111111" stroke-miterlimit="10"/>
<path d="M58.9304 37.6989C59.555 37.8103 60.1098 38.1653 60.4727 38.6857C60.8355 39.2061 60.9768 39.8493 60.8654 40.4739C60.754 41.0985 60.3991 41.6533 59.8787 42.0161C59.3583 42.379 58.715 42.5203 58.0904 42.4089C56.8004 42.1789 55.4004 40.4089 55.8904 39.1489C56.5504 37.5089 57.6304 37.4689 58.9304 37.6989Z" fill="#111111"/>
<path d="M63.4905 60.7683C64.115 60.8783 64.6703 61.232 65.0341 61.7515C65.398 62.271 65.5405 62.9137 65.4305 63.5383C65.3204 64.1628 64.9667 64.7181 64.4472 65.0819C63.9278 65.4458 63.285 65.5883 62.6605 65.4783C61.3705 65.2483 59.9605 63.4783 60.4505 62.2183C61.1105 60.5783 62.2005 60.5383 63.4905 60.7683Z" fill="#111111" stroke="#111111" stroke-miterlimit="10"/>
<path d="M52.6106 26.959C52.6806 31.599 53.8906 36.099 54.3106 40.709C54.5106 42.979 54.6506 45.269 54.6906 47.549C54.7306 49.829 54.2506 51.899 54.4506 54.029C54.5106 54.669 55.5106 54.669 55.4506 54.029C55.2506 51.899 55.7206 49.699 55.6906 47.549C55.6606 45.399 55.5106 42.979 55.3106 40.709C54.8906 36.099 53.6806 31.599 53.6106 26.959C53.6106 26.8264 53.5579 26.6992 53.4641 26.6054C53.3704 26.5117 53.2432 26.459 53.1106 26.459C52.978 26.459 52.8508 26.5117 52.757 26.6054C52.6633 26.6992 52.6106 26.8264 52.6106 26.959Z" fill="#111111"/>
<path d="M56.6406 40.5787C55.8059 42.3129 55.1654 44.1339 54.7306 46.0087C54.6006 46.6387 55.5606 46.9087 55.7306 46.2787C56.1413 44.4829 56.7518 42.7387 57.5506 41.0787C57.8006 40.4987 56.9406 39.9887 56.6806 40.5787H56.6406Z" fill="#111111"/>
<path d="M58.7104 33.7092C58.3704 35.4992 57.5804 37.2292 57.8704 39.0792C57.9704 39.7092 58.9304 39.4392 58.8704 38.8092C58.6204 37.1892 59.4104 35.5492 59.7104 33.9792C59.8304 33.3492 58.8704 33.0792 58.7104 33.7092Z" fill="#111111"/>
<path d="M67.4205 47.6885C63.8905 58.5885 53.7905 65.4585 50.4205 76.3985C50.2305 77.0185 51.1905 77.2785 51.4205 76.6585C52.6882 72.6888 54.7272 69.0085 57.4205 65.8285C61.8605 60.5785 66.2805 54.5385 68.4205 47.9485C68.6205 47.3385 67.6505 47.0785 67.4205 47.6885Z" fill="#111111"/>
<path d="M60.7305 54.799C60.7305 57.089 60.6705 59.219 59.4405 61.239C59.1105 61.789 59.9705 62.239 60.3105 61.749C61.6205 59.579 61.7205 57.269 61.7305 54.749C61.7305 54.6164 61.6778 54.4892 61.5841 54.3955C61.4903 54.3017 61.3631 54.249 61.2305 54.249C61.0979 54.249 60.9707 54.3017 60.877 54.3955C60.7832 54.4892 60.7305 54.6164 60.7305 54.749V54.799Z" fill="#111111"/>
<path d="M57.3106 65.6991C58.2566 64.9852 59.3286 64.4559 60.4706 64.1391C61.1006 63.9991 60.8306 63.0391 60.2006 63.1391C58.9748 63.4753 57.8242 64.0421 56.8106 64.8091C56.2706 65.1591 56.8106 66.0291 57.3106 65.6691V65.6991Z" fill="#111111"/>
<path d="M65.1004 61.4283C66.7304 60.4283 68.3804 59.4883 70.0404 58.5683C70.6104 58.2583 70.1004 57.3883 69.5404 57.7083C67.8804 58.6283 66.2204 59.5683 64.6004 60.5583C64.0504 60.8983 64.6004 61.7583 65.1004 61.4283Z" fill="#111111"/>
<path d="M49.0004 71.4585C50.8004 78.7985 53.6404 88.0185 49.8304 95.1585C49.5404 95.6985 50.3604 96.1585 50.6504 95.6385C54.5904 88.2485 51.7704 78.7885 49.9104 71.1985C49.7704 70.6085 48.8504 70.8585 49.0004 71.4585Z" fill="#111111"/>
<path d="M54.4105 75.5787C53.4105 77.4087 52.4105 79.2487 51.4105 81.1387C51.1305 81.7187 52.0005 82.2187 52.2705 81.6387C53.1805 79.7487 54.1805 77.9087 55.2705 76.0887C55.5905 75.5287 54.7205 75.0187 54.4105 75.5787Z" fill="#111111"/>
<path d="M49.0704 79.4489C50.4339 82.2751 51.2773 85.3238 51.5604 88.4489C51.6504 89.0789 52.5604 88.8089 52.5604 88.1789C52.2616 84.9807 51.384 81.8633 49.9704 78.9789C49.6704 78.4089 48.8104 78.9189 49.1104 79.4789L49.0704 79.4489Z" fill="#111111"/>
<path d="M43.5805 49.4888C43.3605 42.8388 44.9005 36.1788 49.9705 31.4388L49.1405 31.2188C49.8626 34.7382 49.3097 38.3997 47.5805 41.5488C46.9105 42.7788 46.2505 44.0488 45.4805 45.2188C44.7105 46.3888 43.5905 46.9188 43.0005 48.0888C42.9356 48.2028 42.918 48.3376 42.9516 48.4643C42.9851 48.5911 43.0671 48.6996 43.1799 48.7665C43.2927 48.8333 43.4272 48.8532 43.5545 48.8219C43.6818 48.7905 43.7917 48.7104 43.8605 48.5988C44.2605 47.8888 45.3705 47.1688 45.8605 46.4888C46.1902 46.0468 46.4941 45.586 46.7705 45.1088C47.7629 43.5489 48.6386 41.9178 49.3905 40.2288C50.5243 37.2882 50.778 34.0812 50.1205 30.9988C50.0951 30.9156 50.0488 30.8402 49.9861 30.7799C49.9233 30.7196 49.8462 30.6764 49.762 30.6543C49.6778 30.6323 49.5893 30.6321 49.505 30.6539C49.4208 30.6757 49.3435 30.7187 49.2805 30.7788C44.0005 35.6688 42.3505 42.5588 42.5805 49.4888C42.5805 50.1288 43.5805 50.1288 43.5805 49.4888Z" fill="#111111"/>
<path d="M42.5305 48.7585C43.0155 54.1209 43.0155 59.5161 42.5305 64.8785C42.2654 67.6688 41.7975 70.4361 41.1305 73.1585C40.7705 74.8085 40.2505 76.6185 40.8605 78.2685C41.0805 78.8685 42.0405 78.6085 41.8605 77.9985C41.0605 75.8185 42.2505 72.9985 42.7205 70.8285C43.1995 68.5723 43.5005 66.2819 43.6205 63.9785C44.0405 58.9138 44.0405 53.8231 43.6205 48.7585C43.5505 48.1285 42.5505 48.1185 42.6205 48.7585H42.5305Z" fill="#111111"/>
<path d="M43.8306 58.9789C41.4706 55.6689 39.0606 51.4489 39.4506 47.2289L38.6006 47.5889C41.4617 50.9209 42.9803 55.1986 42.8606 59.5889C42.8606 60.2289 43.8606 60.2289 43.8606 59.5889C43.9894 54.9301 42.3616 50.3932 39.3006 46.8789C38.9906 46.5189 38.4906 46.8789 38.4506 47.2289C38.0506 51.6089 40.5206 56.0589 42.9606 59.4789C43.3406 59.9989 44.2006 59.4789 43.8306 58.9789Z" fill="#111111"/>
<path d="M43.8506 61.879C44.2906 59.879 47.5006 58.199 49.0606 57.249C51.0606 56.029 53.5306 54.529 55.9306 54.699L55.4506 54.069C55.0906 56.139 52.2006 58.349 50.5106 59.299C48.3497 60.5368 45.8899 61.1561 43.4006 61.089C42.7606 61.009 42.7706 62.009 43.4006 62.089C45.9106 62.409 49.5606 61.199 51.6306 59.799C53.4006 58.609 56.0306 56.599 56.4106 54.349C56.4285 54.2753 56.4297 54.1985 56.4141 54.1242C56.3985 54.0499 56.3666 53.9801 56.3206 53.9197C56.2746 53.8594 56.2157 53.81 56.1483 53.7753C56.0808 53.7406 56.0064 53.7214 55.9306 53.719C53.1206 53.519 50.1106 55.369 47.8506 56.849C46.1806 57.939 43.3506 59.539 42.8506 61.629C42.7106 62.259 43.6706 62.519 43.8506 61.899V61.879Z" fill="#111111"/>
<path d="M25.6905 28.3587C23.3505 24.3587 23.1205 19.7387 22.6905 15.2487C22.4505 12.7787 22.2105 10.3187 22.0805 7.83874C21.9605 5.67874 21.3705 2.90874 22.0105 0.838742C22.2005 0.218742 21.2405 -0.0412587 21.0105 0.568741C20.3605 2.66874 20.9005 5.21874 21.0105 7.37874C21.1605 10.2687 21.4505 13.1387 21.7205 16.0087C22.1405 20.4387 22.4905 24.9587 24.7905 28.8787C24.8633 28.9788 24.9706 29.0484 25.0917 29.0739C25.2129 29.0994 25.3391 29.0791 25.4462 29.0169C25.5532 28.9547 25.6333 28.855 25.671 28.7371C25.7088 28.6192 25.7015 28.4915 25.6505 28.3787L25.6905 28.3587Z" fill="#111111"/>
<path d="M21.2305 0.729092C23.4105 4.29909 24.2305 9.34909 21.8405 13.0091C21.4905 13.5591 22.3605 14.0091 22.7105 13.5191C25.2405 9.51909 24.4505 4.07909 22.1005 0.229092C21.7605 -0.320908 20.9005 0.229092 21.2305 0.729092Z" fill="#111111"/>
<path d="M23.2806 20.3688C25.4674 16.7587 28.493 13.7297 32.1006 11.5388L31.3506 11.0888C31.6806 13.8588 29.5606 16.2488 27.6606 17.9988C27.2506 18.3888 23.8806 21.4488 23.1906 21.0588C22.5006 20.6688 22.1206 21.6088 22.6806 21.9188C24.0906 22.7088 26.7506 20.1088 27.7506 19.2588C30.0706 17.2588 32.7506 14.3688 32.3506 11.0888C32.3472 11.0025 32.322 10.9184 32.2772 10.8445C32.2325 10.7705 32.1696 10.7092 32.0946 10.6662C32.0197 10.6232 31.935 10.6 31.8486 10.5987C31.7622 10.5974 31.6768 10.6181 31.6006 10.6588C27.8474 12.9368 24.6985 16.0857 22.4206 19.8388C22.0706 20.3888 22.9406 20.8388 23.2806 20.3488V20.3688Z" fill="#111111"/>
<path d="M23.1004 19.6786C20.6304 17.9886 17.5604 16.2386 14.4604 16.6086C14.3741 16.6119 14.29 16.6372 14.216 16.682C14.1421 16.7267 14.0808 16.7896 14.0378 16.8645C13.9948 16.9395 13.9716 17.0242 13.9703 17.1106C13.969 17.197 13.9897 17.2824 14.0304 17.3586C14.7204 18.7186 16.4804 19.5586 17.7104 20.3586C19.2134 21.4605 20.9785 22.15 22.8304 22.3586C23.4704 22.3586 23.4704 21.3586 22.8304 21.3586C21.1587 21.1614 19.5685 20.5267 18.2204 19.5186C17.1604 18.8486 15.4804 18.0386 14.8904 16.8986L14.4604 17.6486C17.4004 17.2886 20.2604 18.9786 22.6004 20.5886C23.1304 20.9486 23.6004 20.0786 23.1004 19.7186V19.6786Z" fill="#111111"/>
<path d="M41.2805 85.6286C39.8405 79.2986 35.5005 74.3386 31.6005 69.3486C29.3705 66.4886 27.1205 63.6486 24.7505 60.8986C22.9605 58.8386 21.2305 55.8986 18.7505 54.6386C17.9805 54.2486 17.3005 55.4086 18.0705 55.7986C20.3705 56.9686 22.0705 59.9186 23.7905 61.8486C25.9905 64.3986 28.1005 67.0286 30.1705 69.6886C34.0605 74.6886 38.5305 79.6886 39.9805 85.9886C40.1705 86.8286 41.4605 86.4686 41.2705 85.6286H41.2805Z" fill="#111111"/>
<path d="M17.4304 55.1383C18.1804 63.3883 23.1804 69.6983 31.4304 71.3883C32.2704 71.5683 32.6304 70.2683 31.7804 70.0983C24.1804 68.5383 19.4804 62.8283 18.7804 55.0983C18.7004 54.2483 17.3604 54.2383 17.4404 55.0983L17.4304 55.1383Z" fill="#111111"/>
<path d="M35.2904 74.6788C29.5973 73.1279 23.6131 72.9804 17.8504 74.2489C17.7504 74.2772 17.6581 74.3282 17.5808 74.3978C17.5035 74.4675 17.4432 74.5539 17.4046 74.6505C17.366 74.7471 17.35 74.8513 17.3579 74.955C17.3659 75.0587 17.3975 75.1593 17.4504 75.2489C19.9604 78.7089 24.8504 79.1989 28.8104 79.0889C30.5604 79.0889 36.4404 79.0889 36.9704 76.9489C37.1804 76.1089 35.8804 75.7489 35.6804 76.5889C35.4304 77.5889 29.4304 77.7389 28.5104 77.7489C25.1804 77.8089 20.7404 77.5089 18.6104 74.5689C18.4804 74.8989 18.3404 75.2289 18.2104 75.5689C23.7366 74.3588 29.4738 74.5064 34.9304 75.9989C35.0994 76.0401 35.2778 76.0141 35.4279 75.9262C35.578 75.8384 35.688 75.6956 35.7348 75.5281C35.7815 75.3606 35.7613 75.1814 35.6784 75.0285C35.5955 74.8757 35.4564 74.761 35.2904 74.7089V74.6788Z" fill="#111111"/>
<path d="M35.7606 75.4986C36.5306 71.8686 37.7106 67.4986 40.8306 65.2186L39.8306 64.8186C40.2906 66.5386 39.3706 69.0986 38.9106 70.8186C38.5161 72.9073 37.5857 74.8576 36.2106 76.4786C35.6106 77.0986 36.5606 78.0486 37.2106 77.4286C38.725 75.6337 39.7575 73.4828 40.2106 71.1786C40.7406 69.1786 41.6906 66.5586 41.1206 64.4486C41.0922 64.3485 41.0413 64.2563 40.9716 64.179C40.902 64.1017 40.8156 64.0414 40.719 64.0027C40.6224 63.9641 40.5182 63.9481 40.4145 63.9561C40.3107 63.964 40.2102 63.9957 40.1206 64.0486C36.6806 66.6086 35.2906 71.1086 34.4306 75.1386C34.2506 75.9786 35.5506 76.3386 35.7306 75.4886L35.7606 75.4986Z" fill="#111111"/>
<path d="M52.5506 49.2885C53.8806 50.4385 54.0006 52.3785 54.4006 53.9985C54.4351 54.1311 54.5208 54.2446 54.639 54.314C54.7571 54.3834 54.898 54.403 55.0306 54.3685C55.1632 54.334 55.2767 54.2483 55.3461 54.1301C55.4155 54.012 55.4351 53.8711 55.4006 53.7385C54.9506 51.9085 54.7906 49.8785 53.2906 48.5785C52.8006 48.1585 52.0906 48.8685 52.5806 49.2885H52.5506Z" fill="#111111"/>
<path d="M54.1005 57.2684C54.132 60.1697 53.6792 63.0561 52.7605 65.8084C52.3805 67.0484 51.9205 68.2884 51.6605 69.5584C51.4005 70.8284 51.7605 72.0984 51.5505 73.3284C51.4305 73.9584 52.4005 74.2284 52.5505 73.5984C52.7705 72.3384 52.4905 71.1084 52.6705 69.8184C52.99 68.2845 53.4348 66.7794 54.0005 65.3184C54.8218 62.7334 55.2071 60.0298 55.1405 57.3184C55.1405 57.1858 55.0879 57.0586 54.9941 56.9648C54.9003 56.871 54.7731 56.8184 54.6405 56.8184C54.5079 56.8184 54.3807 56.871 54.287 56.9648C54.1932 57.0586 54.1405 57.1858 54.1405 57.3184L54.1005 57.2684Z" fill="#111111"/>
<path d="M42.7205 94.6883C46.8805 97.0983 51.7205 100.278 52.9705 105.278C53.1205 105.908 54.0905 105.638 53.9705 105.018C52.6905 99.7583 47.6505 96.3683 43.2605 93.8283C43.1466 93.7634 43.0117 93.7458 42.885 93.7793C42.7582 93.8129 42.6497 93.8949 42.5829 94.0076C42.516 94.1204 42.4961 94.2549 42.5274 94.3823C42.5588 94.5096 42.6389 94.6195 42.7505 94.6883H42.7205Z" fill="#111111"/>
<path d="M44.4005 103.488C45.8783 103.284 47.3687 103.184 48.8605 103.188C51.5105 103.338 52.2705 104.788 53.3805 106.928C53.6705 107.498 54.5405 106.998 54.2405 106.428C53.2405 104.568 52.6805 102.968 50.4405 102.428C48.4405 101.928 46.3805 102.348 44.4405 102.518C43.8005 102.578 43.7905 103.578 44.4405 103.518L44.4005 103.488Z" fill="#111111"/>
<path d="M35.1104 101.329C36.9104 101.969 38.6904 102.689 40.4804 103.329C41.0804 103.559 41.3404 102.589 40.7404 102.329C38.9504 101.659 37.1804 100.939 35.3704 100.329C34.7604 100.109 34.5004 101.079 35.1104 101.329Z" fill="#111111"/>
<path d="M70.5505 56.1389C75.0042 61.11 77.4587 67.5545 77.4405 74.2289V130.459C77.4405 137.67 74.5759 144.586 69.4768 149.685C64.3776 154.784 57.4618 157.649 50.2505 157.649H28.4305C24.859 157.65 21.3223 156.948 18.0223 155.582C14.7223 154.216 11.7237 152.214 9.19783 149.689C6.67195 147.164 4.66825 144.166 3.3012 140.866C1.93415 137.567 1.23053 134.03 1.23053 130.459V74.2289C1.22263 70.4361 2.01068 66.6838 3.54374 63.2146C5.07679 59.7454 7.32074 56.6365 10.1305 54.0889" stroke="#111111" stroke-width="1.1" stroke-miterlimit="10"/>
</g>
</svg>
