<svg xmlns="http://www.w3.org/2000/svg" width="36" height="36" viewBox="0 0 36 36" fill="none">
  <path d="M28.6875 11.2499C28.5941 11.2499 28.503 11.2437 28.4136 11.2308L28.4912 10.6739C28.6904 10.7016 28.8933 10.6862 29.0861 10.6289C29.2789 10.5716 29.4572 10.4737 29.609 10.3418C29.7608 10.2098 29.8826 10.0469 29.9662 9.86398C30.0498 9.68104 30.0933 9.48233 30.0938 9.28119V8.72656C30.0938 7.95144 29.4626 7.32031 28.6875 7.32031C27.9124 7.32031 27.2812 7.95144 27.2812 8.72656V9.28119H26.7188V8.72656C26.7188 7.64094 27.6019 6.75781 28.6875 6.75781C29.7731 6.75781 30.6562 7.64094 30.6562 8.72656V9.28119C30.6562 10.3668 29.7731 11.2499 28.6875 11.2499Z" fill="white"/>
  <path d="M28.6875 11.2499C28.5941 11.2499 28.503 11.2437 28.4136 11.2308L28.4912 10.6739C28.6904 10.7016 28.8933 10.6862 29.0861 10.6289C29.2789 10.5716 29.4572 10.4737 29.609 10.3418C29.7608 10.2098 29.8826 10.0469 29.9662 9.86398C30.0498 9.68104 30.0933 9.48233 30.0938 9.28119V8.72656C30.0938 7.95144 29.4626 7.32031 28.6875 7.32031C27.9124 7.32031 27.2812 7.95144 27.2812 8.72656V9.28119H26.7188V8.72656C26.7188 7.64094 27.6019 6.75781 28.6875 6.75781C29.7731 6.75781 30.6562 7.64094 30.6562 8.72656V9.28119C30.6562 10.3668 29.7731 11.2499 28.6875 11.2499Z" fill="white"/>
  <path d="M31.5 33.1874H30.9375V15.1874H31.5V21.6562C31.5 21.9667 31.7526 22.2187 32.0625 22.2187C32.3724 22.2187 32.625 21.9661 32.625 21.6562V14.1192C32.6242 13.8307 32.5351 13.5493 32.3696 13.313C32.204 13.0766 31.97 12.8967 31.6991 12.7974L29.5312 12.0093V10.4051L29.6246 10.3213C29.7721 10.191 29.8903 10.0308 29.9711 9.85141C30.052 9.67199 30.0938 9.47743 30.0938 9.28063V8.726C30.0938 7.95087 29.4626 7.31975 28.6875 7.31975C27.9124 7.31975 27.2812 7.95087 27.2812 8.726V9.28119C27.2812 9.67944 27.4477 10.049 27.7504 10.3218L27.8438 10.4056V12.0099L25.6759 12.7979C25.4049 12.897 25.1708 13.0767 25.0052 13.313C24.8396 13.5493 24.7506 13.8307 24.75 14.1192V21.6562C24.75 21.9661 25.0026 22.2187 25.3125 22.2187C25.6224 22.2187 25.875 21.9661 25.875 21.6562V15.1874H26.4375V33.1874H25.875V22.6299C25.704 22.7282 25.5101 22.7799 25.3128 22.7798C25.1155 22.7796 24.9217 22.7277 24.7508 22.6291C24.5799 22.5304 24.4379 22.3887 24.3391 22.2179C24.2402 22.0472 24.1879 21.8535 24.1875 21.6562V14.1192C24.1883 13.7153 24.313 13.3214 24.5448 12.9906C24.7765 12.6598 25.1042 12.408 25.4835 12.2692L27.2812 11.6156V10.6503C26.9225 10.2847 26.7207 9.79343 26.7188 9.28119V8.72656C26.7188 7.64094 27.6019 6.75781 28.6875 6.75781C29.7731 6.75781 30.6562 7.64094 30.6562 8.72656V9.28119C30.6562 9.79025 30.4526 10.2824 30.0938 10.6503V11.6156L31.8915 12.2692C32.2708 12.408 32.5985 12.6598 32.8302 12.9906C33.062 13.3214 33.1867 13.7153 33.1875 14.1192V21.6562C33.1871 21.8535 33.1348 22.0472 33.0359 22.2179C32.9371 22.3887 32.7951 22.5304 32.6242 22.6291C32.4533 22.7277 32.2595 22.7796 32.0622 22.7798C31.8649 22.7799 31.671 22.7282 31.5 22.6299V33.1874Z" fill="white"/>
  <path d="M28.1267 33.2083L27.5659 33.1666L28.4068 21.6354L28.9682 21.6365L29.7703 33.1677L29.2089 33.2071L28.6807 25.6134L28.1267 33.2083ZM7.3125 11.2499C7.21913 11.2499 7.128 11.2437 7.03856 11.2308L7.11619 10.6739C7.31542 10.7016 7.51826 10.6862 7.71106 10.6289C7.90387 10.5716 8.08217 10.4737 8.23399 10.3418C8.38581 10.2098 8.50762 10.0469 8.59123 9.86398C8.67485 9.68104 8.71833 9.48233 8.71875 9.28119V8.72656C8.71875 7.95144 8.08763 7.32031 7.3125 7.32031C6.53737 7.32031 5.90625 7.95144 5.90625 8.72656V9.28119H5.34375V8.72656C5.34375 7.64094 6.22688 6.75781 7.3125 6.75781C8.39812 6.75781 9.28125 7.64094 9.28125 8.72656V9.28119C9.28125 10.3668 8.39812 11.2499 7.3125 11.2499Z" fill="white"/>
  <path d="M18 11.8125C15.5188 11.8125 13.5 9.79369 13.5 7.3125C13.5 4.83131 15.5188 2.8125 18 2.8125C18.9714 2.8125 19.8962 3.11737 20.6753 3.69337L20.3406 4.14562C19.6639 3.64304 18.8429 3.37272 18 3.375C15.8288 3.375 14.0625 5.14125 14.0625 7.3125C14.0625 9.48375 15.8288 11.25 18 11.25C20.1713 11.25 21.9375 9.48375 21.9375 7.3125C21.9403 6.45309 21.6591 5.61683 21.1376 4.93369L21.5854 4.59338C22.1817 5.37413 22.5032 6.33008 22.5 7.3125C22.5 9.79369 20.4812 11.8125 18 11.8125Z" fill="white"/>
  <path d="M17.9354 8.98701L15.8789 6.59076L16.3058 6.22457L17.9292 8.11513L21.8217 3.43457L22.2543 3.79457L17.9354 8.98701Z" fill="white"/>
  <path d="M7.3125 11.2499C7.21913 11.2499 7.128 11.2437 7.03856 11.2308L7.11619 10.6739C7.31542 10.7016 7.51826 10.6862 7.71106 10.6289C7.90387 10.5716 8.08217 10.4737 8.23399 10.3418C8.38581 10.2098 8.50762 10.0469 8.59123 9.86398C8.67485 9.68104 8.71833 9.48233 8.71875 9.28119V8.72656C8.71875 7.95144 8.08763 7.32031 7.3125 7.32031C6.53737 7.32031 5.90625 7.95144 5.90625 8.72656V9.28119H5.34375V8.72656C5.34375 7.64094 6.22688 6.75781 7.3125 6.75781C8.39812 6.75781 9.28125 7.64094 9.28125 8.72656V9.28119C9.28125 10.3668 8.39812 11.2499 7.3125 11.2499Z" fill="white"/>
  <path d="M26.1562 33.1874H9.5625V15.1874H10.125V21.6562C10.125 21.9661 10.3776 22.2187 10.6875 22.2187C10.9974 22.2187 11.25 21.9661 11.25 21.6562V14.1192C11.2492 13.8307 11.1601 13.5493 10.9946 13.313C10.829 13.0766 10.595 12.8967 10.3241 12.7974L8.15625 12.0093V10.4051L8.24963 10.3213C8.39714 10.191 8.51526 10.0308 8.59614 9.85141C8.67702 9.67199 8.71882 9.47743 8.71875 9.28063V8.726C8.71875 7.95087 8.08763 7.31975 7.3125 7.31975C6.53737 7.31975 5.90625 7.95087 5.90625 8.726V9.28119C5.90625 9.67944 6.07275 10.049 6.37537 10.3218L6.46875 10.4056V12.0099L4.30087 12.7979C4.02987 12.897 3.79578 13.0767 3.63021 13.313C3.46463 13.5493 3.37555 13.8307 3.375 14.1192V21.6562C3.375 21.9661 3.62756 22.2187 3.9375 22.2187C4.24744 22.2187 4.5 21.9661 4.5 21.6562V15.1874H5.0625V33.1874H4.5V22.6299C4.32897 22.7282 4.13509 22.7799 3.9378 22.7798C3.7405 22.7796 3.54671 22.7277 3.37582 22.6291C3.20493 22.5304 3.06294 22.3887 2.96408 22.2179C2.86522 22.0472 2.81294 21.8535 2.8125 21.6562V14.1192C2.81334 13.7153 2.93805 13.3214 3.16979 12.9906C3.40154 12.6598 3.72917 12.408 4.1085 12.2692L5.90625 11.6156V10.6503C5.54749 10.2847 5.34567 9.79343 5.34375 9.28119V8.72656C5.34375 7.64094 6.22688 6.75781 7.3125 6.75781C8.39813 6.75781 9.28125 7.64094 9.28125 8.72656V9.28119C9.28125 9.79025 9.07762 10.2824 8.71875 10.6503V11.6156L10.5165 12.2692C10.8958 12.408 11.2235 12.6598 11.4552 12.9906C11.687 13.3214 11.8117 13.7153 11.8125 14.1192V21.6562C11.8121 21.8535 11.7598 22.0472 11.6609 22.2179C11.5621 22.3887 11.4201 22.5304 11.2492 22.6291C11.0783 22.7277 10.8845 22.7796 10.6872 22.7798C10.4899 22.7799 10.296 22.7282 10.125 22.6299V32.6249H26.1562V33.1874Z" fill="white"/>
  <path d="M6.75222 33.2076L6.19141 33.166L7.03234 21.6348L7.59372 21.6359L8.39584 33.1671L7.83447 33.2065L7.30628 25.6128L6.75222 33.2076Z" fill="white"/>
</svg>