<svg xmlns="http://www.w3.org/2000/svg" width="36" height="36" viewBox="0 0 36 36" fill="none">
  <path d="M12.6578 29.3626L3.28369 32.6443L3.46932 33.1747L12.6578 29.9583V29.3626ZM23.8374 29.3379V29.9336L33.0962 33.1747L33.2818 32.6443L23.8374 29.3379Z" fill="#585661"/>
  <path d="M18.2809 33.2047L14.4463 31.8626C13.8412 31.6503 13.3169 31.2553 12.9458 30.7323C12.5747 30.2093 12.3751 29.584 12.3746 28.9427V24.4691H12.9371V28.9427C12.9375 29.4673 13.1007 29.979 13.4043 30.4069C13.7079 30.8348 14.1368 31.1579 14.6319 31.3316L18.2809 32.6085L21.9298 31.331C22.4249 31.1575 22.8538 30.8345 23.1574 30.4066C23.461 29.9788 23.6242 29.4673 23.6246 28.9427V24.4691H24.1871V28.9427C24.1871 30.2555 23.3546 31.4289 22.1154 31.8626L18.2809 33.2047ZM26.8281 13.5605C26.7561 13.5605 26.6841 13.5673 26.6132 13.5791V14.1579C27.0862 14.0162 27.5739 14.3863 27.5739 14.8706V16.3618C27.5735 16.8524 27.4439 17.3342 27.1981 17.7589C26.9524 18.1835 26.5991 18.5358 26.1739 18.7805V19.4105C26.7588 19.144 27.2548 18.7148 27.6028 18.1743C27.9507 17.6338 28.136 17.0046 28.1364 16.3618V14.8706C28.1363 14.5235 27.9984 14.1906 27.7532 13.945C27.5079 13.6994 27.1752 13.5611 26.8281 13.5605ZM10.4762 18.8149C10.0358 18.5742 9.66827 18.2195 9.41222 17.7879C9.15618 17.3562 9.02104 16.8637 9.021 16.3618V14.8706C9.021 14.4583 9.35568 14.123 9.76687 14.123C9.83381 14.123 9.90075 14.1377 9.96656 14.1557V13.5769C9.78007 13.5484 9.58964 13.5606 9.40828 13.6126C9.22693 13.6645 9.05893 13.755 8.91575 13.8778C8.77257 14.0006 8.6576 14.1529 8.57868 14.3243C8.49977 14.4956 8.45877 14.682 8.4585 14.8706V16.3618C8.45918 17.0147 8.65047 17.6531 9.0089 18.1988C9.36733 18.7445 9.87729 19.1737 10.4762 19.4336V18.8149Z" fill="#585661"/>
  <path d="M20.2032 28.1251L16.3051 28.0986C14.7852 27.3876 12.6072 25.087 11.4608 23.3629C10.5468 21.9888 9.93251 18.2273 9.58151 11.8626C9.51279 10.7066 9.68295 9.54878 10.0814 8.4614C10.4798 7.37401 11.098 6.38036 11.8973 5.54238C12.6892 4.69867 13.6463 4.02711 14.7091 3.56955C15.7719 3.11199 16.9176 2.87824 18.0747 2.88288H18.4983C20.8579 2.88288 23.0511 3.82619 24.6734 5.53957C25.4728 6.3773 26.0912 7.37058 26.4902 8.45762C26.8892 9.54465 27.0602 10.7022 26.9926 11.8581C26.6438 18.2329 26.02 22.0034 25.0857 23.3854C24.1075 24.8333 21.8969 27.3325 20.26 28.0981L20.2032 28.1251ZM16.4879 27.5626H20.0761C21.5481 26.8409 23.6502 24.5043 24.6194 23.071C25.4828 21.7936 26.092 18.0102 26.4306 11.8278C26.4939 10.7481 26.3342 9.66702 25.9616 8.65177C25.5889 7.63652 25.0112 6.70887 24.2644 5.92657C23.5249 5.1394 22.6313 4.51288 21.6392 4.08602C20.6471 3.65915 19.5777 3.44108 18.4977 3.44538H18.0741C15.8691 3.44538 13.8205 4.32738 12.3051 5.92882C11.5586 6.71146 10.9813 7.6395 10.6092 8.65508C10.237 9.67065 10.0781 10.752 10.1423 11.8317C10.4826 18.0063 11.0839 21.7812 11.9288 23.0513C13.0234 24.6972 15.1013 26.8819 16.4879 27.5626Z" fill="#585661"/>
  <path d="M22.1482 18.731L19.5252 18.0509C18.709 17.8397 17.8524 17.8397 17.0362 18.0509L14.4386 18.7242L14.2974 18.1797L16.895 17.5064C17.8038 17.2713 18.7576 17.2713 19.6664 17.5064L22.2894 18.1865L22.1482 18.731Z" fill="#585661"/>
  <path d="M20.2033 28.1249L16.3052 28.0984C14.7853 27.3874 12.6073 25.0868 11.4609 23.3627C11.3922 23.2557 11.3309 23.1441 11.2776 23.0286L11.25 22.9077V17.5628L16.8958 16.0997C17.8047 15.8652 18.7583 15.8652 19.6673 16.0997L25.3125 17.5639L25.2855 23.0241C25.2277 23.1493 25.161 23.2702 25.0858 23.3858C24.1071 24.8342 21.8964 27.3334 20.2596 28.0984L20.2033 28.1249ZM16.488 27.5624H20.0768C21.5483 26.8407 23.6509 24.5041 24.6195 23.0708C24.6645 23.0044 24.7072 22.9251 24.75 22.8385V17.9987L19.5261 16.6442C18.7098 16.4333 17.8533 16.4333 17.037 16.6442L11.8125 17.9982V22.8436C11.8468 22.9154 11.8857 22.9849 11.9289 23.0517C13.0236 24.697 15.1014 26.8817 16.488 27.5624Z" fill="#585661"/>
</svg>