<svg xmlns="http://www.w3.org/2000/svg" width="36" height="36" viewBox="0 0 36 36" fill="none">
  <path d="M25.8754 32.6251C25.4993 32.6242 25.1312 32.516 24.8144 32.3132C24.4975 32.1105 24.2451 31.8216 24.0867 31.4804L24.5974 31.2448C24.7106 31.4885 24.891 31.6949 25.1173 31.8398C25.3437 31.9847 25.6067 32.062 25.8754 32.0626C26.2296 32.0616 26.5705 31.9273 26.8302 31.6864C27.0899 31.4456 27.2495 31.1158 27.2772 30.7627L27.8385 30.8043C27.7996 31.2988 27.5761 31.7606 27.2124 32.0979C26.8487 32.4352 26.3714 32.6234 25.8754 32.6251Z" fill="#585661"/>
  <path d="M28.6866 31.5C28.2825 31.5001 27.8859 31.3913 27.5384 31.1851C27.1909 30.9789 26.9053 30.683 26.7117 30.3283L27.205 30.0589C27.3504 30.3248 27.5647 30.5467 27.8254 30.7013C28.0861 30.8558 28.3835 30.9375 28.6866 30.9375C28.9522 30.9371 29.214 30.874 29.4506 30.7534C29.6873 30.6329 29.8922 30.4583 30.0487 30.2437C30.2053 30.0291 30.309 29.7807 30.3516 29.5185C30.3942 29.2563 30.3743 28.9878 30.2937 28.7348L30.1497 28.2825L30.6154 28.3731C30.7195 28.3939 30.8269 28.4063 30.9366 28.4063C31.867 28.4063 32.6241 27.6491 32.6241 26.7188C32.6241 26.3357 32.4987 25.9751 32.2624 25.6753L32.704 25.3271C33.0195 25.7271 33.1866 26.208 33.1866 26.7188C33.1866 27.9596 32.1775 28.9688 30.9366 28.9688H30.9192C30.9587 29.2854 30.9305 29.6069 30.8364 29.9118C30.7423 30.2168 30.5845 30.4982 30.3734 30.7376C30.1623 30.9769 29.9027 31.1687 29.6119 31.3001C29.3211 31.4315 29.0057 31.4997 28.6866 31.5Z" fill="#585661"/>
  <path d="M31.7831 25.875V25.3125C32.4035 25.3125 32.9081 24.808 32.9081 24.1875C32.9074 23.9739 32.8462 23.7648 32.7317 23.5845C32.6171 23.4043 32.4538 23.2601 32.2606 23.1688L31.9389 23.0181L32.1599 22.7396C32.2796 22.5923 32.3453 22.4085 32.3461 22.2188C32.3461 21.9004 32.1701 21.6124 31.8866 21.4673L32.1425 20.9666C32.4683 21.1324 32.7164 21.419 32.8338 21.7652C32.9512 22.1114 32.9286 22.4898 32.7708 22.8195C32.9868 22.9765 33.1626 23.1822 33.2842 23.4199C33.4058 23.6576 33.4696 23.9205 33.4706 24.1875C33.4706 25.1179 32.7134 25.875 31.7831 25.875ZM23.3456 32.0625C22.9833 32.0641 22.6303 31.9484 22.3392 31.7327C22.0482 31.5171 21.8347 31.2131 21.7306 30.8661L22.2689 30.7024C22.3382 30.9338 22.4805 31.1365 22.6746 31.2803C22.8686 31.4241 23.104 31.5012 23.3456 31.5C23.8068 31.5 24.2169 31.2233 24.389 30.7958L24.911 31.0061C24.7859 31.3187 24.5697 31.5865 24.2906 31.7749C24.0115 31.9632 23.6823 32.0634 23.3456 32.0625ZM13.2014 11.461C13.0202 11.118 12.9306 10.734 12.9413 10.3462C12.952 9.95843 13.0627 9.57999 13.2627 9.24756C13.4627 8.91514 13.7451 8.64 14.0826 8.44881C14.4202 8.25761 14.8014 8.15684 15.1893 8.15626C15.4183 8.15626 15.6455 8.19283 15.8677 8.26651C16.0218 7.746 16.3405 7.28945 16.776 6.96534C17.2114 6.64122 17.7402 6.46699 18.2831 6.46876C19.0267 6.46876 19.7298 6.79389 20.2119 7.36089L19.7833 7.72483C19.5985 7.50734 19.3686 7.33266 19.1095 7.21289C18.8505 7.09313 18.5685 7.03115 18.2831 7.03126C17.8141 7.02994 17.3603 7.19745 17.0047 7.50318C16.6491 7.8089 16.4154 8.23241 16.3464 8.69626L16.2873 9.07764L15.9425 8.90439C15.7094 8.78441 15.4515 8.72083 15.1893 8.71876C14.8984 8.71932 14.6126 8.79497 14.3595 8.93838C14.1064 9.08178 13.8947 9.2881 13.7447 9.53735C13.5947 9.78661 13.5116 10.0704 13.5035 10.3611C13.4953 10.6519 13.5624 10.9399 13.6981 11.1971L13.2014 11.461Z" fill="#585661"/>
  <path d="M19.9687 8.71875H19.4062C19.4062 7.16794 20.6679 5.90625 22.2187 5.90625C23.1351 5.90625 23.9962 6.35456 24.5233 7.10606L24.0632 7.42894C23.8554 7.13274 23.5794 6.89087 23.2585 6.72376C22.9375 6.55664 22.5811 6.46918 22.2193 6.46875C21.6227 6.4692 21.0506 6.70637 20.6286 7.12822C20.2067 7.55006 19.9693 8.1221 19.9687 8.71875Z" fill="#585661"/>
  <path d="M27.3845 10.1059L27.0065 9.68906C27.1813 9.53076 27.3211 9.33763 27.4168 9.12208C27.5125 8.90653 27.562 8.67334 27.5622 8.4375C27.5622 7.50713 26.8051 6.75 25.8747 6.75C25.5436 6.7509 25.2201 6.84876 24.944 7.0315C24.6679 7.21423 24.4513 7.47384 24.3211 7.77825L23.8025 7.55887C23.9763 7.15296 24.2652 6.80681 24.6334 6.56312C25.0017 6.31943 25.4332 6.18885 25.8747 6.1875C27.1156 6.1875 28.1247 7.19662 28.1247 8.4375C28.1246 8.75185 28.0586 9.06268 27.9311 9.35001C27.8037 9.63735 27.6174 9.89482 27.3845 10.1059Z" fill="#585661"/>
  <path d="M33.0283 17.2536L32.7538 16.7631C32.8845 16.6904 32.9934 16.5844 33.0696 16.4558C33.1458 16.3272 33.1865 16.1807 33.1875 16.0312C33.1875 15.6932 32.9867 15.3883 32.6745 15.255L32.4315 15.1509L32.5204 14.9018C32.5907 14.7049 32.625 14.5221 32.625 14.3438C32.625 13.4134 31.8679 12.6562 30.9375 12.6562C30.9178 12.6562 30.8987 12.6596 30.879 12.6624L30.3615 12.7057L30.5151 12.2929C30.6084 12.0431 30.6557 11.7872 30.6557 11.5312C30.6553 11.1933 30.5789 10.8598 30.4321 10.5554C30.2853 10.251 30.0718 9.98353 29.8076 9.77283C29.5434 9.56214 29.2351 9.41361 28.9057 9.33825C28.5762 9.26289 28.2341 9.26263 27.9045 9.3375L27.7802 8.7885C28.1921 8.69529 28.6196 8.6959 29.0312 8.7903C29.4428 8.8847 29.8279 9.07046 30.158 9.33384C30.4881 9.59722 30.7547 9.93147 30.9381 10.3118C31.1216 10.6922 31.2171 11.109 31.2176 11.5312C31.2176 11.7231 31.1968 11.9149 31.1552 12.1044C31.7114 12.1591 32.2273 12.4186 32.6029 12.8324C32.9785 13.2463 33.1868 13.7849 33.1875 14.3438C33.1875 14.5136 33.1656 14.6841 33.1211 14.8596C33.3146 14.9877 33.4733 15.1618 33.583 15.3663C33.6928 15.5707 33.7501 15.7992 33.75 16.0312C33.75 16.5358 33.4738 17.0038 33.0283 17.2536ZM24.3669 10.1076C24.1334 9.89649 23.9468 9.63882 23.819 9.35116C23.6912 9.06351 23.6251 8.75226 23.625 8.4375C23.625 7.19662 24.6341 6.1875 25.875 6.1875C27.1159 6.1875 28.125 7.19662 28.125 8.4375H27.5625C27.5625 7.50713 26.8054 6.75 25.875 6.75C24.9446 6.75 24.1875 7.50713 24.1875 8.4375C24.1875 8.91394 24.39 9.37069 24.7438 9.69019L24.3669 10.1076ZM13.4111 11.7872C13.1028 11.3931 12.936 10.9067 12.9375 10.4062C12.9375 9.16537 13.9466 8.15625 15.1875 8.15625V8.71875C14.8719 8.71949 14.5628 8.80861 14.2953 8.97601C14.0277 9.14341 13.8124 9.38239 13.6737 9.66588C13.535 9.94938 13.4784 10.2661 13.5105 10.58C13.5425 10.894 13.6618 11.1927 13.8549 11.4424L13.4111 11.7872Z" fill="#585661"/>
  <path d="M8.00486 18.8112C7.98181 18.7622 7.94508 18.721 7.89911 18.6925L3.08917 15.7056L2.79273 16.1837L7.53348 19.1273C7.61842 19.3 7.84398 19.7393 8.18036 20.2934L8.7783 20.1854C8.29455 19.4136 8.01161 18.8247 8.00486 18.8112ZM12.0025 12.6169L2.97611 6.07617L2.64648 6.5318L11.7894 13.1569C11.8252 13.1833 11.8668 13.2007 11.9108 13.2076C11.9548 13.2144 11.9998 13.2106 12.0419 13.1963L13.9904 12.5534L14.5765 11.7681L12.0025 12.6169ZM24.4698 13.7813C24.728 13.7813 24.9665 13.8555 25.1746 13.977C25.9902 13.491 26.5015 12.5652 26.4121 11.5735L26.3845 11.2731C26.3775 11.2006 26.3428 11.1335 26.2876 11.0859C26.2324 11.0383 26.1609 11.0139 26.0881 11.0177L18.9438 11.4334C18.898 11.6294 18.8257 11.8183 18.7289 11.9948L18.9269 11.997L25.8496 11.5949L25.8524 11.6235C25.9441 12.6377 25.2303 13.5675 24.2088 13.7447L23.554 13.9022C23.5889 13.9489 23.6317 13.9889 23.6615 14.0395C23.8976 13.8717 24.1801 13.7815 24.4698 13.7813ZM29.7342 24.178C29.9158 23.868 29.9745 23.5012 29.8988 23.1501C29.823 22.7989 29.6184 22.4889 29.3253 22.2812L28.9389 22.0101L28.2684 22.2261L28.7161 22.5405C29.2128 22.4359 29.6268 22.4393 29.8068 22.9427C29.9092 23.2291 29.8937 23.5444 29.7638 23.8194C29.6338 24.0943 29.4001 24.3065 29.1138 24.4092L27.6766 24.8749L28.6902 25.5646C28.7998 25.637 28.8941 25.7303 28.9676 25.8391C29.0411 25.948 29.0925 26.0702 29.1188 26.199C29.145 26.3277 29.1457 26.4603 29.1207 26.5892C29.0957 26.7182 29.0456 26.841 28.9732 26.9506C28.9007 27.0601 28.8074 27.1544 28.6986 27.2279C28.5897 27.3014 28.4675 27.3528 28.3388 27.3791C28.2101 27.4053 28.0775 27.406 27.9485 27.381C27.8195 27.3561 27.6968 27.3059 27.5872 27.2335L25.1757 25.6849L24.4839 25.9094L26.0982 26.946C26.3182 27.0862 26.4746 27.3067 26.5343 27.5606C26.594 27.8144 26.5522 28.0816 26.4177 28.305C26.2805 28.5357 26.0605 28.6988 25.7995 28.764C25.6715 28.7968 25.5382 28.8037 25.4075 28.7842C25.2768 28.7646 25.1513 28.7192 25.0385 28.6504L21.8823 26.7526L21.146 26.991L22.8284 28.0142C23.2109 28.282 23.3127 28.7989 23.0607 29.1916C22.9989 29.2879 22.9185 29.371 22.8243 29.4361C22.7301 29.5012 22.624 29.5469 22.512 29.5707C22.4 29.5945 22.2844 29.5959 22.1719 29.5747C22.0593 29.5536 21.9521 29.5103 21.8564 29.4475L19.7949 28.2156C19.7054 28.3928 19.553 28.534 19.3392 28.5992L21.5594 29.9256C21.7172 30.0274 21.8936 30.0969 22.0784 30.1301C22.2632 30.1633 22.4527 30.1596 22.636 30.1191C22.8194 30.0794 22.9931 30.0039 23.1472 29.8968C23.3013 29.7898 23.4327 29.6533 23.5338 29.4953C23.725 29.1977 23.7925 28.8563 23.7475 28.5306L24.7482 29.1325C24.9245 29.2393 25.1203 29.3099 25.3242 29.3402C25.5281 29.3705 25.7359 29.36 25.9357 29.3091C26.136 29.2596 26.3244 29.1708 26.4901 29.0478C26.6557 28.9247 26.7952 28.77 26.9004 28.5925C27.0798 28.2934 27.1542 27.943 27.1119 27.5969L27.2823 27.7066C27.6417 27.9372 28.0681 28.0103 28.4849 27.913C28.7801 27.8432 29.0487 27.6891 29.2579 27.4694C29.4671 27.2497 29.6079 26.9739 29.6632 26.6756C29.7184 26.3773 29.6857 26.0694 29.5691 25.7893C29.4525 25.5093 29.257 25.2692 29.0064 25.0982L28.6694 24.8693C28.7245 24.8631 28.7791 24.853 28.8337 24.84C29.021 24.797 29.1975 24.716 29.3524 24.6021C29.5073 24.4883 29.6372 24.3439 29.7342 24.178Z" fill="#585661"/>
  <path d="M18.3096 15.7618L18.9255 15.6189C19.0081 15.4092 19.1518 15.2292 19.3379 15.1021C19.5241 14.975 19.7441 14.9068 19.9695 14.9062C20.1259 14.9062 20.2817 14.9406 20.4313 15.0086L20.7913 15.1712L20.8273 14.778C20.8522 14.483 20.9703 14.2035 21.1644 13.98C21.3585 13.7564 21.6187 13.6004 21.9073 13.5344C22.196 13.4684 22.4981 13.4959 22.7701 13.6129C23.0421 13.7298 23.2698 13.9302 23.4204 14.1851L23.5763 14.4439L23.8226 14.2695C24.015 14.1339 24.2389 14.0625 24.4695 14.0625C24.6658 14.0625 24.8469 14.1176 25.0078 14.2059L25.7025 14.0439C25.5458 13.8729 25.3553 13.7362 25.1431 13.6426C24.9308 13.549 24.7015 13.5004 24.4695 13.5C24.2158 13.5 23.9689 13.5574 23.7422 13.6665C23.5594 13.4385 23.3276 13.2545 23.064 13.1283C22.8004 13.0021 22.5118 12.9369 22.2195 12.9375C21.789 12.9363 21.3702 13.0775 21.0283 13.3391C20.6863 13.6006 20.4405 13.9679 20.3289 14.3837C20.211 14.3572 20.0904 14.3438 19.9695 14.3438C19.5696 14.3447 19.183 14.4879 18.8789 14.7477C18.5748 15.0074 18.373 15.3669 18.3096 15.7618ZM25.8758 5.34375C25.2553 5.34375 24.7508 4.83919 24.7508 4.21875C24.7508 3.59831 25.2553 3.09375 25.8758 3.09375C26.4962 3.09375 27.0008 3.59831 27.0008 4.21875C27.0008 4.83919 26.4962 5.34375 25.8758 5.34375ZM25.8758 3.65625C25.7309 3.66273 25.5942 3.72482 25.494 3.8296C25.3938 3.93438 25.3379 4.07377 25.3379 4.21875C25.3379 4.36373 25.3938 4.50312 25.494 4.6079C25.5942 4.71268 25.7309 4.77477 25.8758 4.78125C26.0206 4.77477 26.1573 4.71268 26.2575 4.6079C26.3577 4.50312 26.4137 4.36373 26.4137 4.21875C26.4137 4.07377 26.3577 3.93438 26.2575 3.8296C26.1573 3.72482 26.0206 3.66273 25.8758 3.65625ZM28.9695 4.21875C28.3491 4.21875 27.8445 3.71419 27.8445 3.09375C27.8445 2.47331 28.3491 1.96875 28.9695 1.96875C29.5899 1.96875 30.0945 2.47331 30.0945 3.09375C30.0945 3.71419 29.5899 4.21875 28.9695 4.21875ZM28.9695 2.53125C28.8247 2.53773 28.6879 2.59982 28.5877 2.7046C28.4875 2.80938 28.4316 2.94877 28.4316 3.09375C28.4316 3.23873 28.4875 3.37812 28.5877 3.4829C28.6879 3.58768 28.8247 3.64977 28.9695 3.65625C29.1143 3.64977 29.2511 3.58768 29.3513 3.4829C29.4515 3.37812 29.5074 3.23873 29.5074 3.09375C29.5074 2.94877 29.4515 2.80938 29.3513 2.7046C29.2511 2.59982 29.1143 2.53773 28.9695 2.53125ZM31.2195 7.875C30.4438 7.875 29.8133 7.24388 29.8133 6.46875C29.8133 5.69362 30.4438 5.0625 31.2195 5.0625C31.9952 5.0625 32.6258 5.69362 32.6258 6.46875C32.6258 7.24388 31.9952 7.875 31.2195 7.875ZM31.2195 5.625C30.7543 5.625 30.3758 6.00356 30.3758 6.46875C30.3758 6.93394 30.7543 7.3125 31.2195 7.3125C31.6847 7.3125 32.0633 6.93394 32.0633 6.46875C32.0633 6.00356 31.6847 5.625 31.2195 5.625Z" fill="#585661"/>
  <path d="M13.4245 27.7606C12.7264 27.5862 12.2635 27.4062 12.2517 27.4017C12.1942 27.3792 12.1311 27.3759 12.0717 27.3921L2.73584 30.0044L2.88772 30.5461L12.1341 27.9586C12.3051 28.0221 12.6988 28.16 13.2293 28.2961C13.249 28.0981 13.3159 27.9141 13.4245 27.7606ZM32.1951 16.9538C32.0712 16.5751 31.8075 16.2578 31.4578 16.0668C31.1081 15.8757 30.6986 15.8252 30.313 15.9256L30.0942 15.983C30.25 15.6593 30.2771 15.2886 30.1701 14.9457C30.0631 14.6024 29.8309 14.3119 29.5197 14.1318C29.2084 13.9517 28.8408 13.8953 28.4899 13.9737L16.8017 16.6895L18.964 12.1506C19.6148 11.0144 19.2795 9.54514 18.2001 8.80489L17.952 8.63445C17.8921 8.59326 17.8186 8.57687 17.7468 8.58872C17.6751 8.60057 17.6108 8.63974 17.5673 8.69801L13.3716 14.3202L11.2161 17.0225C11.1969 17.0462 11.1819 17.073 11.1717 17.1018L9.91615 20.5521L2.76228 21.8403L2.8624 22.3938L10.1749 21.077C10.2233 21.0682 10.2685 21.0469 10.3061 21.0152C10.3437 20.9835 10.3723 20.9426 10.3892 20.8964L11.6847 17.3375L13.8171 14.6639L17.857 9.25095L17.8823 9.26839C18.7221 9.84439 18.9831 10.9874 18.4673 11.8902L16.044 16.9752C16.0207 17.023 16.0114 17.0764 16.0173 17.1292C16.0233 17.182 16.0441 17.2321 16.0775 17.2735C16.1109 17.3148 16.1553 17.3459 16.2057 17.3629C16.256 17.3799 16.3102 17.3822 16.3618 17.3695L28.6165 14.5216C28.7793 14.4853 28.9491 14.4968 29.1056 14.5546C29.262 14.6124 29.3985 14.714 29.4987 14.8474C29.5988 14.9808 29.6584 15.1403 29.6702 15.3066C29.682 15.473 29.6457 15.6393 29.5654 15.7855C29.4507 15.9936 29.2611 16.1416 29.0322 16.2035L21.2185 18.3044C21.1501 18.3268 21.093 18.3745 21.0586 18.4377C21.0243 18.5009 21.0154 18.5748 21.0338 18.6443C21.0522 18.7138 21.0965 18.7737 21.1576 18.8116C21.2187 18.8495 21.292 18.8627 21.3625 18.8483L30.457 16.4701C30.7038 16.4053 30.966 16.4374 31.1899 16.5598C31.4138 16.6822 31.5825 16.8855 31.6613 17.1282C31.7462 17.3881 31.722 17.6643 31.5949 17.9056C31.4667 18.1475 31.2518 18.3224 30.9891 18.3989L21.9964 21.0066C21.9264 21.0288 21.8678 21.0775 21.8332 21.1422C21.7986 21.207 21.7907 21.2828 21.8112 21.3533C21.8317 21.4238 21.8789 21.4835 21.9429 21.5196C22.0068 21.5558 22.0823 21.5655 22.1533 21.5466L29.7938 19.331C30.0439 19.2574 30.3128 19.2845 30.5432 19.4066C30.7735 19.5286 30.9471 19.7358 31.0268 19.984C31.11 20.2394 31.0887 20.5116 30.9666 20.7513C30.9068 20.8691 30.8242 20.9738 30.7236 21.0594C30.623 21.1449 30.5063 21.2096 30.3805 21.2496L22.5015 23.7882C22.4304 23.8109 22.3713 23.8609 22.337 23.9272C22.3028 23.9935 22.2963 24.0706 22.319 24.1417C22.3417 24.2128 22.3917 24.272 22.458 24.3062C22.5243 24.3404 22.6014 24.3469 22.6725 24.3243L28.468 22.5029C28.6814 22.4355 28.9126 22.4535 29.113 22.5531C29.3134 22.6528 29.4673 22.8264 29.5423 23.0373C29.6205 23.255 29.6087 23.4901 29.5097 23.6988C29.4139 23.9045 29.2403 24.0637 29.0271 24.1414L19.8724 27.1075C19.9326 27.247 19.968 27.4006 19.968 27.5626C19.968 27.5997 19.9602 27.6351 19.9568 27.6711L29.2071 24.6741C29.566 24.5453 29.8534 24.2849 30.0165 23.9401C30.1797 23.5953 30.1982 23.2071 30.07 22.8483C29.9642 22.5503 29.7624 22.296 29.4962 22.1255L30.5509 21.7857C30.9503 21.6569 31.2748 21.3807 31.4655 21.0072C31.6562 20.6337 31.6894 20.2085 31.56 19.8102C31.453 19.4781 31.238 19.1914 30.9492 18.9957L31.1443 18.9389C31.3459 18.8811 31.5337 18.7831 31.6963 18.6508C31.8589 18.5184 31.993 18.3545 32.0905 18.1688C32.1893 17.9839 32.2495 17.7809 32.2675 17.5721C32.2854 17.3632 32.2608 17.1529 32.1951 16.9538Z" fill="#585661"/>
  <path d="M16.5938 30.376C16.2964 30.3752 16.0032 30.3068 15.7363 30.176C15.4693 30.0451 15.2357 29.8551 15.0531 29.6205C14.838 29.7468 14.5931 29.8134 14.3438 29.8135C13.5681 29.8135 12.9375 29.1824 12.9375 28.4072C12.9375 27.6321 13.5681 27.001 14.3438 27.001C14.5952 27.001 14.8387 27.0685 15.0531 27.1939C15.3574 26.8035 15.7982 26.5428 16.2869 26.4643C16.7756 26.3857 17.2759 26.495 17.6873 26.7704C17.8154 26.5816 17.9877 26.427 18.1893 26.3201C18.3909 26.2132 18.6156 26.1573 18.8438 26.1572C19.6194 26.1572 20.25 26.7884 20.25 27.5635C20.25 28.3386 19.6194 28.9697 18.8438 28.9697C18.7234 28.9697 18.603 28.9534 18.486 28.9219C18.373 29.3379 18.1268 29.7053 17.785 29.968C17.4433 30.2306 17.0248 30.3739 16.5938 30.376ZM15.1914 28.7605L15.3681 29.0811C15.4884 29.3015 15.6655 29.4856 15.881 29.6144C16.0966 29.7432 16.3427 29.8119 16.5938 29.8135C16.9481 29.8114 17.2887 29.6756 17.5472 29.4332C17.8057 29.1908 17.9632 28.8597 17.9882 28.5062L18.0208 28.0495L18.4134 28.2846C18.549 28.3662 18.6941 28.4072 18.8438 28.4072C19.3089 28.4072 19.6875 28.0287 19.6875 27.5635C19.6875 27.0983 19.3089 26.7197 18.8438 26.7197C18.4832 26.7197 18.1637 26.952 18.0484 27.298L17.9049 27.7277L17.5838 27.4088C17.3208 27.1471 16.9647 27.0004 16.5938 27.001C16.3427 27.0025 16.0966 27.0712 15.881 27.2C15.6655 27.3288 15.4884 27.513 15.3681 27.7334L15.192 28.0534L14.9276 27.8003C14.7711 27.6486 14.5617 27.5636 14.3438 27.5635C13.8786 27.5635 13.5 27.942 13.5 28.4072C13.5 28.8724 13.8786 29.251 14.3438 29.251C14.5609 29.251 14.7684 29.1672 14.9276 29.0142L15.1914 28.7605Z" fill="#585661"/>
  <path d="M19.4062 33.1875C18.6306 33.1875 18 32.5564 18 31.7812C18 31.0061 18.6306 30.375 19.4062 30.375C20.1819 30.375 20.8125 31.0061 20.8125 31.7812C20.8125 32.5564 20.1819 33.1875 19.4062 33.1875ZM19.4062 30.9375C18.9411 30.9375 18.5625 31.3161 18.5625 31.7812C18.5625 32.2464 18.9411 32.625 19.4062 32.625C19.8714 32.625 20.25 32.2464 20.25 31.7812C20.25 31.3161 19.8714 30.9375 19.4062 30.9375Z" fill="#585661"/>
</svg>