<svg width="265" height="274" viewBox="0 0 265 274" fill="none" xmlns="http://www.w3.org/2000/svg">
<g opacity="0.1" clip-path="url(#clip0_362_1070)">
<path d="M117.24 92.9838C118.19 92.2385 118.815 91.1557 118.986 89.961C119.157 88.7662 118.86 87.5516 118.158 86.57C117.456 85.5884 116.402 84.9155 115.216 84.6914C114.03 84.4673 112.803 84.7093 111.791 85.367L86.773 103.12C86.1123 103.595 85.5865 104.234 85.2475 104.973C84.9085 105.713 84.7679 106.528 84.8395 107.339V205.185C84.8395 206.429 85.3333 207.621 86.2123 208.5C87.0914 209.379 88.2836 209.873 89.5267 209.873C90.7699 209.873 91.9621 209.379 92.8411 208.5C93.7202 207.621 94.214 206.429 94.214 205.185V109.331L117.182 92.9252L117.24 92.9838ZM176.827 237.879C176.312 238.928 176.208 240.132 176.535 241.254C176.861 242.376 177.596 243.336 178.593 243.945C179.591 244.554 180.78 244.768 181.928 244.545C183.075 244.323 184.098 243.68 184.796 242.742C186.23 240.766 188.233 239.274 190.537 238.465C193.89 237.123 197.472 236.446 201.084 236.473C204.562 236.423 208.018 237.019 211.279 238.231C213.595 239.019 215.645 240.44 217.196 242.332C217.927 243.342 219.028 244.021 220.259 244.218C221.49 244.416 222.748 244.117 223.758 243.387C224.769 242.656 225.447 241.555 225.645 240.324C225.843 239.093 225.543 237.835 224.813 236.824C222.191 233.491 218.676 230.972 214.677 229.559C210.355 227.913 205.767 227.078 201.142 227.098C196.286 227.064 191.469 227.98 186.963 229.794C182.821 231.361 179.276 234.189 176.827 237.879Z" fill="black"/>
<path d="M199.971 217.489C215.966 188.662 265.475 182.803 280.768 181.749V94.2139C204.131 101.362 204.658 136.458 204.658 136.575C204.658 142.786 195.283 142.669 195.283 136.575C195.283 135.052 194.287 101.186 119.232 94.2139V181.631C134.466 182.745 184.093 188.428 199.912 217.431L199.971 217.489ZM204.658 232.371C204.248 236.062 200.088 236.883 200.088 236.59C198.9 236.658 197.731 236.273 196.817 235.511C195.903 234.75 195.313 233.669 195.166 232.488C189.893 194.287 120.404 191.006 114.78 190.83C114.145 190.862 113.51 190.764 112.914 190.543C112.318 190.322 111.773 189.982 111.313 189.543C110.852 189.105 110.486 188.577 110.236 187.993C109.986 187.408 109.857 186.779 109.858 186.143V89.1751C109.856 88.5288 109.988 87.8891 110.245 87.2963C110.502 86.7034 110.879 86.1701 111.353 85.7299C111.826 85.2897 112.385 84.9522 112.995 84.7384C113.605 84.5247 114.252 84.4393 114.897 84.4878C171.144 88.6478 192.178 107.807 199.971 121.693C207.822 107.807 228.739 88.7649 284.81 84.5464C285.473 84.4629 286.146 84.522 286.784 84.7199C287.423 84.9177 288.011 85.2497 288.51 85.6936C289.01 86.1375 289.408 86.683 289.68 87.2935C289.951 87.9041 290.089 88.5656 290.083 89.2337V186.084C290.083 197.92 211.396 186.67 204.658 232.371Z" fill="black"/>
<path d="M320.434 206.357L212.978 247.722L223.817 251.941L304.673 219.716C306.255 219.247 319.496 214.501 320.434 206.357ZM198.33 243.387L322.602 195.459C323.316 195.111 324.108 194.951 324.902 194.993C325.696 195.036 326.466 195.279 327.14 195.701C327.813 196.123 328.369 196.709 328.754 197.405C329.139 198.101 329.34 198.883 329.34 199.678V201.435C333.734 220.302 307.544 228.68 307.485 228.739L225.985 261.14C225.398 261.434 224.756 261.602 224.1 261.632C223.444 261.662 222.789 261.555 222.177 261.315L198.682 252.234C197.751 251.951 196.93 251.385 196.335 250.614C195.74 249.844 195.4 248.908 195.361 247.935C195.323 246.963 195.588 246.002 196.12 245.187C196.652 244.372 197.424 243.743 198.33 243.387ZM176.066 261.96C143.665 274.44 111.44 286.978 79.0393 299.634C79.508 302.563 81.3243 306.489 87.7107 306.079L187.315 266.413L176.124 261.96H176.066ZM174.074 252.703C174.665 252.417 175.309 252.26 175.965 252.239C176.621 252.219 177.274 252.337 177.882 252.585L201.318 261.96C202.233 262.249 203.037 262.811 203.622 263.571C204.207 264.332 204.545 265.253 204.589 266.211C204.634 267.169 204.384 268.118 203.872 268.929C203.361 269.741 202.612 270.376 201.729 270.748L90.9332 314.867C90.4197 315.123 89.8636 315.282 89.2927 315.336C68.6687 317.504 69.3718 298.931 69.6061 296.001C69.7233 293.423 72.1841 291.314 74.7621 291.255C107.866 278.365 140.97 265.475 174.074 252.703Z" fill="black"/>
<path d="M77.3401 195.459L327.347 291.841C328.204 292.174 328.944 292.751 329.476 293.501C330.007 294.251 330.306 295.141 330.336 296.06C330.57 298.931 331.332 317.504 310.708 315.336L311.176 310.649L310.708 315.336C310.137 315.281 309.581 315.123 309.067 314.867L92.5151 228.739C92.4565 228.739 66.2078 220.302 70.6607 201.494V199.736C70.6549 198.944 70.8499 198.164 71.2276 197.467C71.6052 196.771 72.1531 196.182 72.8202 195.755C73.4872 195.327 74.2517 195.076 75.0421 195.025C75.8325 194.973 76.6231 195.122 77.3401 195.459ZM320.961 299.399L79.5665 206.357C80.4454 214.56 93.7455 219.247 95.2689 219.774C95.427 219.805 95.5835 219.844 95.7376 219.891L312.231 306.02C318.852 306.489 320.551 302.329 320.961 299.399Z" fill="black"/>
<path d="M124.271 237.469C124.8 236.46 124.943 235.292 124.673 234.186C124.404 233.079 123.74 232.108 122.807 231.454C121.874 230.801 120.734 230.51 119.602 230.636C118.47 230.761 117.422 231.295 116.654 232.137C113.725 236.356 109.331 241.805 103.589 246.609C97.9336 251.614 91.0648 255.049 83.6678 256.57C83.4702 256.596 83.2745 256.635 83.0819 256.687C80.5625 257.39 67.3795 262.019 69.8403 279.83L70.3091 296.294C70.3402 297.537 70.8638 298.717 71.7648 299.574C72.6658 300.431 73.8704 300.895 75.1135 300.864C76.3567 300.833 77.5365 300.31 78.3936 299.409C79.2507 298.508 79.7147 297.303 79.6836 296.06L79.2149 279.654V278.658H79.0977C77.5743 268.346 84.3123 266.061 85.3669 265.768C94.8587 264.011 102.944 259.323 109.565 253.757C116.01 248.367 120.932 242.215 124.213 237.469H124.271ZM195.283 231.903C195.283 233.146 195.777 234.338 196.656 235.217C197.535 236.096 198.728 236.59 199.971 236.59C201.214 236.59 202.406 236.096 203.285 235.217C204.164 234.338 204.658 233.146 204.658 231.903V136.634C204.658 135.391 204.164 134.199 203.285 133.32C202.406 132.441 201.214 131.947 199.971 131.947C198.728 131.947 197.535 132.441 196.656 133.32C195.777 134.199 195.283 135.391 195.283 136.634V231.903ZM54.7825 306.137C53.5393 306.137 52.3471 306.631 51.4681 307.51C50.589 308.389 50.0952 309.582 50.0952 310.825C50.0952 312.068 50.589 313.26 51.4681 314.139C52.3471 315.018 53.5393 315.512 54.7825 315.512H345.217C346.461 315.512 347.653 315.018 348.532 314.139C349.411 313.26 349.905 312.068 349.905 310.825C349.905 309.582 349.411 308.389 348.532 307.51C347.653 306.631 346.461 306.137 345.217 306.137H54.7825Z" fill="black"/>
</g>
<defs>
<clipPath id="clip0_362_1070">
<rect width="400" height="400" fill="white"/>
</clipPath>
</defs>
</svg>
