<svg xmlns="http://www.w3.org/2000/svg" width="21" height="22" viewBox="0 0 21 22" fill="none">
  <rect width="21" height="21.6562" rx="10.5" fill="white"/>
  <path fill-rule="evenodd" clip-rule="evenodd" d="M10.8227 6.23517C10.8227 6.23517 8.74501 6.6699 8.38803 5.61438C8.0401 6.09616 8.24818 7.02699 9.03107 7.16673C9.2492 7.20566 9.49075 7.19139 9.73773 7.1768C10.3772 7.13902 11.053 7.0991 11.4526 7.97487C11.659 8.56503 11.664 9.13197 11.664 9.74824C9.71882 10.113 6.4534 10.8284 6.45703 13.3544C6.45874 14.5389 7.40523 15.326 8.71466 15.326C9.733 15.326 10.7289 14.8207 11.7024 13.8102C11.8266 14.5788 12.2213 15.3854 13.0858 15.3854C14.5933 15.3854 14.8576 14.6943 14.7108 13.907C14.0941 14.7397 13.3548 14.3791 13.3548 13.4535V10.6867C13.3216 10.6999 13.2857 10.714 13.2473 10.7289C12.6928 10.9457 11.6521 11.3526 11.6652 12.0628C11.6653 12.0687 11.6649 12.066 11.664 12.056V12.9879C10.9266 13.94 8.38595 14.96 8.37842 12.8888V12.8789C8.37842 11.2797 10.4576 10.8273 11.664 10.5904V10.5918C12.0589 10.5117 13.0338 10.3343 13.3548 10.2785V10.2777C14.1194 10.155 14.4953 9.78661 14.2084 8.98736C14.099 9.31139 13.8255 9.44044 13.3548 9.49988C13.341 8.95966 13.2955 8.44179 13.0954 7.93524C12.6826 6.96956 11.8472 6.23517 10.8227 6.23517Z" fill="black"/>
</svg>