<svg xmlns="http://www.w3.org/2000/svg" width="75" height="20" viewBox="0 0 75 20" fill="none">
  <path d="M53.1245 0.656128H55.4738C56.3789 0.656128 56.8944 1.28575 57.0203 2.545V6.64149C57.0203 6.96417 57.0243 7.69611 57.0321 8.8373C57.8163 8.27249 58.7853 8.10241 59.6412 7.9755C60.497 7.8486 62.6778 6.93574 62.8251 5.20605C63.6793 6.97836 63.03 7.90003 61.6245 8.67202C62.561 9.2072 63.0293 9.90766 63.0293 10.7734V12.9928C63.0293 13.9373 63.2025 14.4567 63.5488 14.5511L63.8911 14.622H64.7175L64.7883 14.6928V14.9525L64.7175 15.0234H62.6161C61.8055 14.9289 61.4002 14.4449 61.4002 13.5713V10.9269C61.4002 8.67202 57.0203 9.11316 57.0203 10.5609V13.0282C57.0203 14.0907 56.6032 14.7558 55.769 15.0234L55.3204 15.0588H53.0537V14.9879V14.256V14.1852H54.0808C54.6396 14.1852 54.9662 13.7995 55.0606 13.0282V2.72208C55.0606 1.90357 54.6593 1.49431 53.8565 1.49431H53.1245L53.0537 1.42348V0.726961L53.1245 0.656128Z" fill="white"/>
  <path d="M46.301 4.63464H48.9337C49.5003 4.63464 49.9765 4.92978 50.3621 5.52005C50.5667 5.92144 50.6691 6.4094 50.6691 6.98393V12.686C50.6297 13.6068 50.9406 14.1026 51.6017 14.1734L51.8968 14.2089H52.3927L52.4281 14.2325V15.0589L52.3927 15.0943H50.2559C49.5003 15.0943 48.9848 14.6929 48.7094 13.8901C48.5756 13.4966 48.5087 13.1188 48.5087 12.7568V7.06657C48.5087 6.37398 48.2411 5.92144 47.7059 5.70894C47.5564 5.66959 47.4265 5.64991 47.3163 5.64991H46.301L46.2656 5.6263V4.65825L46.301 4.63464Z" fill="white"/>
  <path d="M40.9531 4.36292H41.1774C42.2478 4.36292 43.1725 4.75643 43.9517 5.54346C44.7151 6.39345 45.0968 7.3733 45.0968 8.48302V12.367C45.0968 13.4688 45.3133 14.1221 45.7461 14.3267C45.7461 14.3739 45.9035 14.4251 46.2183 14.4802H47.4461L47.4815 14.5156V15.0823L47.4461 15.1177H44.5302C43.7274 15.1177 43.204 14.5313 42.96 13.3587C42.9286 13.2249 42.9128 13.0832 42.9128 12.9337V8.75454C42.9128 7.37724 42.4209 6.48396 41.4371 6.0747C41.0358 5.93304 40.6147 5.86221 40.174 5.86221C39.3633 5.88582 38.5645 6.29114 37.7774 7.07817C37.4862 7.43233 37.3406 7.78649 37.3406 8.14066V15.1177L37.3052 15.1531H35.1803L35.133 15.1177V6.9247C35.133 6.23211 34.8497 5.76383 34.283 5.51985L33.8698 5.46082H32.8782L32.8428 5.42541V4.50458L32.8782 4.46916H35.558C36.2349 4.46916 36.7582 4.843 37.1281 5.59068L37.2344 5.95665C38.3913 4.91777 39.6309 4.38653 40.9531 4.36292Z" fill="white"/>
  <path d="M25.7361 15.1179H25.5236C24.4611 15.1179 23.5403 14.7283 22.7611 13.9491C22.0056 13.107 21.6278 12.1311 21.6278 11.0214V7.16102C21.6278 6.06705 21.4113 5.42168 20.9785 5.22492C20.9785 5.16983 20.8211 5.11474 20.5063 5.05965H19.2903L19.2549 5.02423V4.46938L19.2903 4.43396H22.1826C22.9854 4.43396 23.5048 5.01636 23.741 6.18117C23.7803 6.31496 23.8 6.45663 23.8 6.60616V10.7499C23.8 12.1193 24.284 13.0086 25.252 13.4179C25.6613 13.5596 26.0784 13.6304 26.5034 13.6304C27.133 13.6304 27.8374 13.2408 28.6166 12.4617C28.9078 12.1075 29.0534 11.7533 29.0534 11.3992V4.46938L29.0888 4.43396H31.202L31.2374 4.46938V12.6033C31.2374 13.2959 31.5207 13.7642 32.0874 14.0082L32.5006 14.0554H33.4804L33.5159 14.0908V15.0116L33.4804 15.0471H30.8242C30.1552 15.0471 29.6358 14.6772 29.2659 13.9373L29.1596 13.5714C28.0106 14.6024 26.8694 15.1179 25.7361 15.1179Z" fill="white"/>
  <path d="M14.981 15.0468L11.4394 6.62951C11.0065 5.59063 10.1683 5.0161 8.9248 4.90592V4.46912H10.8727C12.2107 4.46912 13.1236 5.04365 13.6116 6.19271L16.1261 12.1309L18.5159 6.7986H19.661L15.6657 16.2273C15.225 17.3685 14.7173 18.1516 14.1428 18.5766C13.6549 18.9544 12.9819 19.1197 12.1241 19.0725L10.9553 19.0016V17.8919C12.8993 18.1752 14.0877 17.6204 14.5206 16.2273L14.981 15.0468Z" fill="white"/>
  <path fill-rule="evenodd" clip-rule="evenodd" d="M5.13537 4.32776H2.3729L2.36109 4.33956V5.31942L2.3729 5.33122C2.65279 5.33983 2.95531 5.32306 3.26453 5.30592C4.3903 5.2435 5.60476 5.17616 6.13883 6.31107C6.39246 7.01432 6.39855 7.68989 6.39855 8.42425C4.00824 8.85885 -0.00446551 9.71143 3.7301e-06 12.7214C0.00209934 14.1328 1.39873 15.0707 2.77428 15.0707C4.02566 15.0707 5.24949 14.4686 6.44578 13.2645C6.59844 14.1804 7.08345 15.1415 8.14576 15.1415H10.0228V14.5159C8.92897 14.5159 8.47631 13.9424 8.47631 12.8395V9.52181C8.10002 9.60885 6.86742 9.93083 6.39855 10.0579V12.2846C5.49244 13.4192 2.37035 14.6347 2.36109 12.1666V12.1548C2.36109 10.2492 4.91607 9.71009 6.39855 9.42771V9.42921C6.88268 9.33393 8.08046 9.12258 8.47631 9.05579V9.05514C9.41588 8.90892 9.87777 8.46997 9.52531 7.51758C9.39078 7.90369 9.05478 8.05746 8.47631 8.12829C8.45934 7.48457 8.40348 6.86747 8.15757 6.26385C7.65026 5.11314 6.39441 4.32776 5.13537 4.32776Z" fill="white"/>
  <path fill-rule="evenodd" clip-rule="evenodd" d="M70.1124 4.32776H67.3499L67.3381 4.33956V5.31942L67.3499 5.33122C67.6298 5.33983 67.9324 5.32306 68.2416 5.30592C69.3673 5.2435 70.5818 5.17616 71.1159 6.31107C71.3695 7.01432 71.3756 7.68989 71.3756 8.42425C68.9853 8.85885 64.9726 9.71143 64.9771 12.7214C64.9792 14.1328 66.3758 15.0707 67.7513 15.0707C69.0027 15.0707 70.2265 14.4686 71.4228 13.2645C71.5755 14.1804 72.0605 15.1415 73.1228 15.1415H74.9999V14.5159C73.906 14.5159 73.4534 13.9424 73.4534 12.8395V9.52181C73.0771 9.60885 71.8445 9.93083 71.3756 10.0579V12.2846C70.4695 13.4192 67.3474 14.6347 67.3381 12.1666V12.1548C67.3381 10.2492 69.8931 9.71009 71.3756 9.42771V9.42921C71.8597 9.33393 73.0575 9.12258 73.4534 9.05579V9.05514C74.3929 8.90892 74.8548 8.46997 74.5024 7.51758C74.3678 7.90369 74.0318 8.05746 73.4534 8.12829C73.4364 7.48457 73.3805 6.86747 73.1346 6.26385C72.6273 5.11314 71.3715 4.32776 70.1124 4.32776Z" fill="white"/>
</svg>