<svg xmlns="http://www.w3.org/2000/svg" width="36" height="36" viewBox="0 0 36 36" fill="none">
  <path d="M12.6573 29.3626L3.2832 32.6443L3.46883 33.1747L12.6573 29.9583V29.3626ZM23.837 29.3379V29.9336L33.0957 33.1747L33.2813 32.6443L23.837 29.3379Z" fill="white"/>
  <path d="M18.2814 33.205L14.4468 31.8629C13.8417 31.6505 13.3174 31.2556 12.9463 30.7326C12.5752 30.2095 12.3756 29.5842 12.3751 28.9429V24.4694H12.9376V28.9429C12.938 29.4676 13.1012 29.9792 13.4048 30.4071C13.7084 30.8351 14.1373 31.1582 14.6324 31.3319L18.2814 32.6087L21.9303 31.3313C22.4253 31.1577 22.8543 30.8347 23.1579 30.4069C23.4615 29.979 23.6247 29.4675 23.6251 28.9429V24.4694H24.1876V28.9429C24.1876 30.2558 23.3551 31.4292 22.1159 31.8629L18.2814 33.205ZM26.8285 13.5608C26.7565 13.5608 26.6845 13.5675 26.6137 13.5794V14.1582C27.0867 14.0164 27.5744 14.3865 27.5744 14.8709V16.362C27.574 16.8526 27.4444 17.3345 27.1986 17.7591C26.9528 18.1837 26.5996 18.5361 26.1744 18.7808V19.4108C26.7593 19.1442 27.2553 18.7151 27.6033 18.1746C27.9512 17.634 28.1365 17.0049 28.1369 16.362V14.8709C28.1368 14.5237 27.9989 14.1909 27.7536 13.9453C27.5084 13.6997 27.1757 13.5614 26.8285 13.5608ZM10.4767 18.8151C10.0363 18.5745 9.66876 18.2197 9.41271 17.7881C9.15667 17.3565 9.02153 16.8639 9.02148 16.362V14.8709C9.02148 14.4585 9.35617 14.1233 9.76736 14.1233C9.8343 14.1233 9.90123 14.1379 9.96705 14.1559V13.5771C9.78056 13.5487 9.59013 13.5609 9.40877 13.6128C9.22742 13.6647 9.05941 13.7552 8.91624 13.878C8.77306 14.0009 8.65809 14.1532 8.57917 14.3245C8.50026 14.4958 8.45926 14.6822 8.45898 14.8709V16.362C8.45967 17.0149 8.65096 17.6534 9.00939 18.1991C9.36782 18.7448 9.87778 19.1739 10.4767 19.4339V18.8151Z" fill="white"/>
  <path d="M20.203 28.1251L16.3048 28.0986C14.785 27.3876 12.607 25.087 11.4606 23.3629C10.5465 21.9888 9.93226 18.2273 9.58126 11.8626C9.51255 10.7066 9.68271 9.54878 10.0811 8.4614C10.4796 7.37401 11.0977 6.38036 11.8971 5.54238C12.6889 4.69867 13.6461 4.02711 14.7089 3.56955C15.7717 3.11199 16.9174 2.87824 18.0745 2.88288H18.498C20.8577 2.88288 23.0509 3.82619 24.6731 5.53957C25.4725 6.3773 26.091 7.37058 26.49 8.45762C26.889 9.54465 27.06 10.7022 26.9923 11.8581C26.6436 18.2329 26.0198 22.0034 25.0855 23.3854C24.1073 24.8333 21.8966 27.3325 20.2598 28.0981L20.203 28.1251ZM16.4876 27.5626H20.0758C21.5479 26.8409 23.65 24.5043 24.6191 23.071C25.4826 21.7936 26.0918 18.0102 26.4304 11.8278C26.4937 10.7481 26.334 9.66702 25.9613 8.65177C25.5886 7.63652 25.0109 6.70887 24.2642 5.92657C23.5247 5.1394 22.6311 4.51288 21.639 4.08602C20.6469 3.65915 19.5775 3.44108 18.4974 3.44538H18.0739C15.8689 3.44538 13.8203 4.32738 12.3049 5.92882C11.5583 6.71146 10.981 7.6395 10.6089 8.65508C10.2368 9.67065 10.0779 10.752 10.1421 11.8317C10.4824 18.0063 11.0837 21.7812 11.9286 23.0513C13.0232 24.6972 15.1011 26.8819 16.4876 27.5626Z" fill="white"/>
  <path d="M22.1477 18.731L19.5248 18.0509C18.7085 17.8397 17.8519 17.8397 17.0357 18.0509L14.4381 18.7242L14.2969 18.1797L16.8945 17.5064C17.8034 17.2713 18.7571 17.2713 19.6659 17.5064L22.2889 18.1865L22.1477 18.731Z" fill="white"/>
  <path d="M20.2033 28.1249L16.3052 28.0984C14.7853 27.3874 12.6073 25.0868 11.4609 23.3627C11.3922 23.2557 11.3309 23.1441 11.2776 23.0286L11.25 22.9077V17.5628L16.8958 16.0997C17.8047 15.8652 18.7583 15.8652 19.6673 16.0997L25.3125 17.5639L25.2855 23.0241C25.2277 23.1493 25.161 23.2702 25.0858 23.3858C24.1071 24.8342 21.8964 27.3334 20.2596 28.0984L20.2033 28.1249ZM16.488 27.5624H20.0768C21.5483 26.8407 23.6509 24.5041 24.6195 23.0708C24.6645 23.0044 24.7072 22.9251 24.75 22.8385V17.9987L19.5261 16.6442C18.7098 16.4333 17.8533 16.4333 17.037 16.6442L11.8125 17.9982V22.8436C11.8468 22.9154 11.8857 22.9849 11.9289 23.0517C13.0236 24.697 15.1014 26.8817 16.488 27.5624Z" fill="white"/>
</svg>