<svg xmlns="http://www.w3.org/2000/svg" width="24" height="25" viewBox="0 0 24 25" fill="none">
  <path d="M16.4854 2.5H7.52097C4.47776 2.5 2 4.97776 2 8.02097V16.979C2 20.0222 4.47776 22.5 7.52097 22.5H16.479C19.5222 22.5 22 20.0222 22 16.979V8.02097C22 4.97776 19.5286 2.5 16.4854 2.5ZM20.2274 16.9854C20.2274 19.0502 18.5502 20.7274 16.4854 20.7274H7.52097C5.45616 20.7274 3.77891 19.0502 3.77891 16.9854V8.02097C3.77891 5.95616 5.45616 4.27891 7.52097 4.27891H16.479C18.5438 4.27891 20.2211 5.95616 20.2211 8.02097L20.2274 16.9854Z" fill="url(#paint0_linear_309_9877)"/>
  <path d="M12.0001 7.34729C9.16024 7.34729 6.84766 9.65987 6.84766 12.4998C6.84766 15.3397 9.16024 17.6522 12.0001 17.6522C14.84 17.6522 17.1526 15.3397 17.1526 12.4998C17.1526 9.65987 14.8464 7.34729 12.0001 7.34729ZM12.0001 15.8797C10.1386 15.8797 8.62021 14.3613 8.62021 12.4998C8.62021 10.6383 10.1386 9.11984 12.0001 9.11984C13.8616 9.11984 15.3801 10.6383 15.3801 12.4998C15.3801 14.3676 13.868 15.8797 12.0001 15.8797Z" fill="url(#paint1_linear_309_9877)"/>
  <path d="M17.3688 5.84207C17.0257 5.84207 16.689 5.98184 16.4476 6.22327C16.2062 6.46469 16.0664 6.80141 16.0664 7.14449C16.0664 7.48756 16.2062 7.82428 16.4476 8.06571C16.689 8.30713 17.0257 8.4469 17.3688 8.4469C17.7119 8.4469 18.0486 8.30713 18.29 8.06571C18.5315 7.82428 18.6712 7.48756 18.6712 7.14449C18.6712 6.80141 18.5315 6.46469 18.29 6.22327C18.0486 5.98184 17.7119 5.84207 17.3688 5.84207Z" fill="url(#paint2_linear_309_9877)"/>
  <defs>
    <linearGradient id="paint0_linear_309_9877" x1="12.002" y1="3.33075" x2="12.002" y2="21.6846" gradientUnits="userSpaceOnUse">
      <stop stop-color="#EA8928"/>
      <stop offset="1" stop-color="#CF2B8F"/>
    </linearGradient>
    <linearGradient id="paint1_linear_309_9877" x1="12.0021" y1="3.33052" x2="12.0021" y2="21.6843" gradientUnits="userSpaceOnUse">
      <stop stop-color="#EA8928"/>
      <stop offset="1" stop-color="#CF2B8F"/>
    </linearGradient>
    <linearGradient id="paint2_linear_309_9877" x1="17.3716" y1="3.33102" x2="17.3716" y2="21.6848" gradientUnits="userSpaceOnUse">
      <stop stop-color="#EA8928"/>
      <stop offset="1" stop-color="#CF2B8F"/>
    </linearGradient>
  </defs>
</svg>