<svg xmlns="http://www.w3.org/2000/svg" width="156" height="235" viewBox="0 0 156 235" fill="none">
  <g opacity="0.1">
    <path d="M154.367 212.415C161.181 213.401 172.488 189.147 167.678 192.715C158.571 198.379 143.219 198.028 143.298 212.618C144.398 218.671 127.757 204.733 129.969 201.135C131.585 197.208 137.144 195.195 137.537 190.392C138.041 183.747 142.488 177.722 142.138 171.266C137.379 161.212 117.771 190.842 126.654 199.405C131.146 208.724 119.916 196.95 117.287 195.35C113.64 193.286 113.516 189.823 113.13 186.498C115.032 181.226 125.123 179.405 127.189 170.067C127.813 165.211 133.146 161.061 133.024 156.685C131.521 154.849 123.986 162.327 120.685 162.42C110.296 165.057 104.729 174.645 110.245 184.806C110.846 186.313 111.785 188.476 111.021 189.817C103.905 184.796 97.2913 178.268 89.9568 173.524C85.5229 169.725 87.6876 166.769 90.5505 162.569C93.4134 158.369 97.1204 153.088 94.1936 144.216C94.6477 143.656 85.1863 120.791 84.1126 131.609C82.9562 144.49 80.9603 158.221 86.2622 170.39C56.8458 162.191 69.5257 141.012 46.1562 131.143C28.3105 124.907 43.0354 135.31 44.5882 141.963C48.7441 152.281 60.2462 155.616 67.7893 161.951C58.3952 161.481 52.8778 151.682 43.2393 155.817C40.7678 157.479 23.8156 161.717 30.6395 163.346C47.6315 171.123 57.6658 156.988 74.4943 167.118C82.8353 170.998 62.561 165.458 60.5075 168.037C53.9819 170.064 46.4844 177.416 43.8854 183.875C60.8977 186.203 69.1623 159.203 89.469 175.997C92.6117 178.58 83.4779 175.517 82.5676 175.895C77.5152 173.659 54.9501 187.518 59.1932 191.928C86.7426 193.933 80.9006 161.399 110.658 193.489C105.812 194.613 99.7838 187.58 90.0238 191.753C82.0301 193.893 72.3786 193.637 65.6088 198.308C74.1601 203.416 90.6926 209.223 99.9219 200.401C102.567 198.685 104.866 195.059 108.476 195.593C116.176 196.551 121.289 202.841 127.374 207.421C130.077 209.018 126.884 209.153 122.383 209.733C112.448 209.545 107.442 218.179 101.033 224.318C93.9969 232.974 119.791 232.022 126.113 212.551C130.642 204.465 157.254 234.088 174.934 231.641C175.257 230.46 175.461 229.249 175.543 228.027C167.426 227.256 127.388 213.963 154.367 212.415ZM121.047 211.803C116.925 215.556 112.612 219.093 108.125 222.401C112.355 222.724 119.164 216.156 122.123 213.429C122.739 222.03 100.559 232.534 101.262 225.484C107.502 220.273 111.822 212.309 120.382 210.887C121.715 210.34 122.37 211.164 121.047 211.803ZM53.1923 144.791C50.7753 143.81 58.7368 152.717 59.2691 153.94C48.1303 150.549 46.9366 138.741 39.3956 131.188C38.9466 130.661 39.4079 130.309 40.0645 130.524C57.5921 130.161 76.326 176.14 53.1923 144.791ZM44.6219 164.313C43.9326 164.85 39.6573 163.952 36.1446 163.425C23.729 162.296 38.6022 159.084 42.7493 156.997C46.932 155.698 51.6631 155.675 55.5397 158.905C56.8275 160.845 43.6213 159.314 41.7955 160.604C45.6944 161.639 51.63 159.795 55.6912 161.598C54.0912 163.37 46.7352 164.132 44.6219 164.313ZM88.0267 163.144C87.1043 162.441 88.7697 156.1 88.5808 154.389C88.5614 150.589 90.3346 144.596 87.4861 141.123C88.1184 147.944 87.4104 154.822 85.4019 161.371C84.5858 151.881 83.3971 140.947 85.9327 131.71C92.6021 141.114 96.4122 154.545 88.0267 163.144ZM51.7259 176.892C54.8612 175.652 55.8496 173.994 61.359 172.188C75.9594 166.873 48.363 184.997 44.8829 183.166C48.8627 176.925 56.1185 169.591 64.1079 169.336C68.0597 169.193 64.6616 170.077 60.5078 171.653C56.3539 173.228 51.7173 175.639 51.7259 176.892ZM83.3819 177.108C83.7661 176.874 67.843 182.219 70.8322 183.327C74.1875 181.448 78.1575 179.587 82.0957 179.829C79.5847 183.085 76.4115 185.772 72.7857 187.711C69.1599 189.651 65.1639 190.799 61.0615 191.081C55.7474 190.943 63.774 186.09 65.2059 184.39C69.9869 179.993 76.5466 175.196 83.3711 177.073L83.3819 177.108ZM110.356 182.222C105.592 164.558 121.637 165.854 131.48 157.963C127.128 166.927 123.252 177.855 113.475 182.585C112.624 177.883 116.147 173.42 118.275 169.486C114.064 170.204 111.466 186.102 110.345 182.187L110.356 182.222ZM100.616 193.753C93.7172 194.944 86.4338 196.369 79.7327 197.708C86.9831 198.444 94.6347 194.773 101.912 195.596C94.3213 206.631 78.8404 203.352 68.7743 198.391C78.6491 193.761 89.53 191.69 100.415 192.369C102.22 192.36 103.023 193.843 100.536 193.74L100.616 193.753ZM130.933 191.739C132.447 187.178 136.044 183.32 136.979 178.672C133.104 184.576 128.785 190.522 127.417 197.513C119.192 189.411 144.777 157.582 140.521 176.411C139.509 180.322 136.545 183.831 136.5 187.974C137.172 194.121 126.353 204.503 130.853 191.726L130.933 191.739ZM147.658 212.197C145.047 209.487 157.852 203.417 159.461 201.185C154.091 203.465 149.185 206.711 144.986 210.762C144.656 200.265 162.104 198.48 166.467 194.575C167.561 193.931 167.007 195.397 164.137 201.902C161.239 208.93 154.852 211.465 147.578 212.183L147.658 212.197ZM86.1059 170.439L86.2622 170.39L86.1059 170.439ZM131.699 157.933L131.577 157.971L131.699 157.933ZM79.5831 197.717C78.7283 197.354 79.0464 198.378 79.5831 197.717V197.717ZM120.711 166.731C121.667 166.625 120.777 165.474 120.636 166.489L120.711 166.731ZM137.135 178.376L137.013 178.414C137.004 178.569 137.024 178.449 137.065 178.398L137.135 178.376ZM160.826 200.247C161.152 199.214 161.835 200.372 160.826 200.247V200.247Z" fill="white"/>
    <path d="M212.999 166.592C223.544 163.108 225.32 153.631 228.244 145.644C229.053 143.166 223.551 147.444 222.62 147.391C212.396 150.928 195.941 153.394 199.667 168.088C200.319 170.188 199.935 170.421 197.517 169.498C190.509 166.784 174.071 161.404 183.772 152.264C184.571 151.433 185.168 150.43 185.516 149.332C185.865 148.233 185.956 147.069 185.782 145.93C184.264 139.019 187.389 132.111 185.254 125.543C177.796 115.928 162.812 148.193 176.001 156.466C186.2 166.942 160.002 151.521 159.022 148.856C155.116 143.447 157.869 140.119 163.196 136.256C169.867 131.635 168.812 121.192 173.105 114.549C173.502 113.684 174.57 112.648 173.559 111.782C171.999 110.192 164.945 118.054 161.585 118.203C149.933 120.757 145.632 132.825 153.197 141.741C154.135 143.353 155.782 145.714 155.229 147.18C102.167 109.293 137.511 129.715 138.676 92.7211C138.644 89.8004 140.516 76.7736 135.426 83.6066C126.839 93.8854 119.747 107.506 124.797 121.561C93.2174 99.5326 115.473 83.9427 110.233 55.4277C109.601 50.0862 107.635 53.1899 105.123 57.3572C92.3681 72.413 98.968 86.8617 106.407 102.173C96.117 93.5512 97.4559 79.9098 88.0513 70.4616C81.6921 64.6917 79.1073 54.838 74.7996 48.2596C72.8928 61.2972 77.7838 77.78 87.2166 87.8094C97.4515 95.4583 103.43 101.841 112.115 112.464C115.031 115.726 116.219 117.469 109.848 112.579C98.3195 101.316 88.7358 98.8885 75.1924 96.701C72.6666 95.9822 70.3754 95.59 69.7163 97.4503C74.597 110.53 89.448 115.09 100.489 114.306C111.493 113.894 120.035 121.175 128.258 129.087C130.103 131.045 128.385 130.475 126.027 129.38C123.67 128.286 120.768 126.599 120.211 126.582C117.117 125.417 113.899 124.616 110.62 124.194C107.538 123.952 83.2462 124.837 90.1388 131.773C110.944 151.458 118.277 123.358 136.068 136.157C142.251 141.544 149.447 146.274 155.731 151.249C151.311 152.089 144.058 147.548 138.562 147.067C126.439 147.921 114.22 146.692 101.872 145.351C91.4819 145.533 137.049 173.322 144.945 158.614C154.277 146.201 168.982 160.397 179.4 164.716C183.01 166.106 179.418 166.613 174.286 167.674C163.097 168.409 159.847 177.43 153.984 184.96C148.216 194.021 177.334 192.741 179.5 170.184C180.871 167.551 184.117 167.037 187.748 168.802C204.013 175.891 221.526 183.506 240.133 184.292C240.468 183.113 240.672 181.901 240.742 180.678C232.632 179.562 180.986 171.416 212.999 166.592ZM173.461 170.1C169.853 174.481 165.966 178.625 161.824 182.506C166.767 182.493 172.591 174.899 175.239 171.66C178.247 181.344 156.172 193.719 154.732 186.326C160.529 180.054 163.161 171.434 172.409 169.228C173.694 168.524 174.811 169.3 173.461 170.1ZM103.512 74.7177C102.232 71.823 101.883 86.0136 102.122 87.5187C98.5973 80.5829 97.7389 71.7534 101.729 66.7083C103.974 65.1164 107.172 53.6 109.053 55.4896C111.899 68.8206 107.215 80.5133 105.511 93.4689C102.984 95.8712 102.752 74.2307 103.512 74.7177ZM82.4027 78.7431C81.5007 81.2307 72.1777 48.5792 76.3707 53.1951C80.6092 66.4743 92.6629 74.2814 95.7316 88.2665C94.4539 91.1372 84.5573 73.4878 83.0331 71.5825C85.1139 78.8335 91.2031 84.5921 94.3437 90.905C91.7337 91.2018 84.3175 82.3349 82.4027 78.7431ZM127.656 114.526C126.743 113.364 129.74 107.39 130.056 105.712C130.979 101.943 134.615 97.0461 133.688 92.8999C131.114 99.0088 128.434 106.616 125.226 111.665C125.744 102.123 129.962 90.7653 136.85 84.5154C136.826 94.6086 137.074 108.518 127.656 114.526ZM82.6414 102.304C86.777 104.958 88.6814 104.595 95.8522 108.077C107.704 112.845 96.8925 111.426 92.0148 111.59C84.3288 111.351 76.0195 104.817 71.4737 98.6362C71.5817 97.0232 73.7204 98.3951 74.6756 98.3458C83.6669 101.072 92.001 100.824 99.9135 107.367C104.384 110.489 100.399 108.929 95.0547 106.612C89.7107 104.294 83.1761 100.901 82.6414 102.304ZM121.191 128.39C121.591 128.76 102.163 126.802 105.755 129.606C110.018 129.424 115.018 129.165 119.642 131.002C112.118 137.963 102.267 137.921 92.6964 132.349C85.1929 126.878 96.6054 128.147 98.4042 126.77C105.551 124.722 114.425 123.945 121.215 128.344L121.191 128.39ZM152.845 139.015C144.328 123.297 163.016 121.032 172.137 113.27C168.297 122.474 166.318 134.297 156.383 139.438C154.54 134.302 157.768 129.684 159.589 125.56C154.67 126.878 154.787 143.245 152.845 139.015ZM143.947 151.293C135.629 152.243 127.246 152.491 118.887 152.036C128.013 155.196 136.853 152.165 145.966 153.445C136.349 168.249 116.138 157.4 104.34 148.086C103.599 146.622 155.755 149.243 143.952 151.311L143.947 151.293ZM178.505 148.172C178.871 143.224 181.761 138.864 181.483 133.926C178.866 140.448 175.675 147.148 176.252 154.58C164.276 147.206 184.523 111.364 184.821 131.196C184.839 135.357 182.526 139.368 183.806 143.671C186.547 150.412 177.171 161.888 178.512 148.132L178.505 148.172ZM204.686 167.214C200.304 165.359 214.91 156.693 216.525 154.784C210.546 157.243 205.258 161.126 201.122 166.095C197.97 153.924 220.436 151.323 224.668 147.611C226.224 146.862 225.607 148.366 223.197 155.128C220.301 162.897 212.496 165.645 204.675 167.179L204.686 167.214ZM172.28 113.302L172.159 113.34L172.28 113.302ZM118.685 152.06C117.517 151.3 118.131 152.727 118.653 151.956L118.685 152.06ZM161.825 122.772C162.793 122.642 161.782 121.472 161.662 122.556L161.825 122.772ZM181.581 133.629L181.46 133.667C181.566 133.824 181.627 133.653 181.616 133.618L181.581 133.629ZM218.04 153.78C218.223 152.715 219.476 153.81 218.04 153.78V153.78Z" fill="white"/>
    <path d="M251.139 171.511C257.61 178.559 267.107 178.502 275.822 179.601C278.426 179.839 272.756 174.692 272.377 173.84C267.441 168.179 263.178 158.314 254.854 158.349C248.97 156.561 241.874 166.187 241.856 161.473C236.548 136.785 241.192 147.94 253.422 139.403C257.211 133.221 263.905 130.267 265.898 122.531C266.497 114.962 257.631 117.296 252.62 120.033C231.358 129.51 244.493 161.263 232.679 132.354C228.228 125.192 232.568 119.068 240.812 118.41C249.057 117.752 252.645 107.123 258.706 102.5C264.998 95.37 249.117 101.463 245.747 100.417C234.122 99.1367 227.195 108.082 229.582 119.443C229.813 121.103 229.887 123.611 228.723 124.581C223.641 117.102 218.74 108.919 212.311 102.372C204.874 91.7224 227.903 90.2024 221.182 68.8076C220.744 65.8038 217.073 50.9211 214.688 59.54C210.433 71.8797 206.103 85.3271 209.226 98.3821C180.224 83.1843 198.511 62.4141 175.485 45.9311C168.229 40.1542 175.782 56.8758 174.194 58.9297C174.628 70.7452 185.833 77.3507 192.107 85.602C182.923 82.7456 178.525 71.0382 168.09 71.4439C161.809 71.9295 154.909 68.9535 149.299 69.5161C153.379 75.423 160.979 79.5516 167.97 82.2708C180.912 85.2161 186.439 82.2433 197.985 92.3967C205.887 99.4572 183.987 82.986 171.392 93.3489C169.394 95.1873 162.582 96.5989 162.091 99.7962C178.292 109.988 195.034 83.0182 211.343 104.708C213.989 107.959 205.408 102.879 204.485 103.032C200.257 99.5883 174.155 108.495 178.132 113.824C203.562 122.177 208.527 87.3717 227.058 127.858C220.952 125.72 217.036 118.259 208.202 120.146C199.887 120.331 190.836 118.271 183.291 121.49C191.101 128.255 203.303 135.559 214.688 130.672C217.704 129.907 221.215 127.18 224.246 129.036C231.113 132.764 233.199 140.889 235.407 147.815C237.406 152.046 226.098 144.312 223.161 145.148C183.012 151.776 210.255 163.086 231.366 151.163C244.555 150.435 237.58 187.654 239.222 196.126C240.436 196.308 241.663 196.386 242.89 196.356C243.255 189.564 243.537 181.712 243.265 174.832C241.878 162.646 242.273 161.591 251.139 171.511ZM227.985 148.122C222.677 149.104 216.842 150.232 211.794 151.133C215.391 152.604 224.311 150.443 227.989 149.909C225.985 154.794 200.436 156.412 204.695 151.435C212.362 149.53 220.123 144.436 228.087 147.101C229.204 147.267 229.354 148.363 227.985 148.122ZM181.64 64.6473C179.473 62.9989 185.016 74.046 185.294 75.368C175.101 69.019 177.097 57.2478 173.886 47.0938C173.686 46.4516 174.282 46.2857 174.771 46.8189C185.569 49.1739 195.595 93.4625 185.771 73.412C184.192 70.5897 182.812 67.6611 181.64 64.6473ZM167.212 80.3181C167.717 81.4551 148.598 70.6283 152.729 70.449C159.698 72.547 167.699 71.1657 174.439 74.3626C175.607 74.5706 183.189 80.1702 179.336 79.654C175.484 79.1378 168.842 75.9486 165.145 75.4413C169.529 78.3425 175.935 78.7504 179.913 81.8156C177.893 83.0329 169.623 81.2817 167.212 80.3181ZM212.563 91.5417C211.73 90.6394 214.491 84.7011 214.636 82.9624C215.342 79.1085 218.297 73.4903 216.177 69.5436C215.434 76.4037 213.425 83.0665 210.254 89.1949C211.1 79.6648 212.099 68.5456 216.643 60.0746C220.685 70.0274 222.515 84.9871 212.528 91.5525L212.563 91.5417ZM172.557 95.9365C176.135 95.8148 177.764 94.3194 183.739 94.1954C187.347 93.9881 190.35 94.1592 187.851 95.1826C180.48 98.8991 171.402 102.328 163.55 99.5906C169.364 94.9683 179.033 90.1954 187.047 92.1023C193.71 93.7054 173.02 93.0145 172.523 95.9473L172.557 95.9365ZM205.185 104.49C205.515 104.387 188.706 106.145 191.55 107.887C195.308 106.435 199.397 106.061 203.356 106.809C200.205 109.488 196.516 111.46 192.539 112.594C188.561 113.728 184.387 113.996 180.297 113.38C174.903 111.821 183.95 109.03 185.664 107.622C191.276 104.433 198.814 101.007 205.185 104.49ZM230.548 116.917C230.561 97.3503 245.722 103.888 258.136 100.356C256.723 103.896 252.334 105.45 250.471 109.13C246.705 115.019 240.048 117.296 233.53 118.369C234.006 113.407 238.591 110.156 241.757 106.87C237.321 106.25 230.607 121.332 230.543 116.899L230.548 116.917ZM217.641 124.865C210.766 124.019 203.842 123.627 196.915 123.69C203.622 125.679 211.639 124.103 218.333 126.971C207.923 134.258 195.664 129.159 186.43 122.284C196.822 119.501 207.817 119.964 217.937 123.612C219.693 124.056 219.936 125.636 217.636 124.847L217.641 124.865ZM246.703 136.028C250.132 132.547 255.209 131.065 257.964 126.822C251.883 130.404 245.341 133.787 240.817 139.379C241.146 128.982 252.871 119.308 262.378 119.59C271.015 122.217 254.94 132.404 253.713 136.173C251.198 142.473 236.398 145.185 246.698 136.011L246.703 136.028ZM247.271 165.367C247.282 160.929 261.102 168.968 263.479 170.19C258.989 165.655 253.05 162.84 246.698 162.234C256.564 152.89 269.04 172.288 272.973 176.128C274.154 177.664 272.513 177.28 265.31 176.758C257.473 176.28 252.312 170.69 247.266 165.349L247.271 165.367ZM258.3 100.457L258.153 100.35L258.3 100.457ZM196.761 123.624C196.072 124.161 196.058 123.138 196.761 123.624V123.624ZM244.842 105.037C245.859 105.311 245.191 103.71 244.75 104.742L244.842 105.037ZM258.204 126.614L258.082 126.652C258.069 126.732 258.141 126.596 258.198 126.597L258.204 126.614ZM264.98 171.284C265.427 172.725 266.059 171.082 264.98 171.284V171.284Z" fill="white"/>
  </g>
</svg>