<svg width="124" height="25" viewBox="0 0 124 25" fill="none" xmlns="http://www.w3.org/2000/svg">
<path id="Vector" d="M123.42 17.7642C120.288 16.5081 117.065 15.4581 113.775 14.6218C112.012 13.79 110.375 12.7456 108.907 11.5156C108.606 9.1023 107.47 6.84469 105.67 5.08166C103.87 3.31863 101.503 2.1453 98.9233 1.73777C98.8323 1.72091 98.7378 1.73107 98.6533 1.7668C98.5688 1.80254 98.4986 1.86203 98.4525 1.93688C98.4065 2.01172 98.3869 2.09812 98.3967 2.18385C98.4064 2.26959 98.4449 2.35033 98.5068 2.4146C98.66 4.75963 99.4919 7.02279 100.915 8.96538C102.49 10.7904 105.835 11.3827 108.061 12.2046C108.112 12.2263 108.167 12.2375 108.223 12.2375C108.279 12.2375 108.335 12.2263 108.386 12.2046H108.464C109.203 12.8119 109.981 13.377 110.794 13.8966C109.492 13.5824 108.022 13.2802 106.499 13.0022C106.43 12.9868 106.359 12.9868 106.29 13.0022C104.039 12.5792 101.605 12.2166 99.0404 11.9387C99.0404 11.9387 99.0404 11.9387 98.9623 11.9387L93.7559 9.88396C93.7726 9.81635 93.7726 9.74608 93.7559 9.67847C90.3067 4.5176 81.9504 2.28165 75.8849 1.42352C75.8245 1.38807 75.7546 1.36926 75.6831 1.36926C75.6117 1.36926 75.5418 1.38807 75.4814 1.42352L75.4163 1.49603V1.56855C75.3784 1.62692 75.3584 1.69378 75.3584 1.76193C75.3584 1.83008 75.3784 1.89695 75.4163 1.95532C78.0846 7.52712 87.1307 10.4158 93.2223 10.5004C93.291 10.5128 93.3617 10.5128 93.4305 10.5004L96.4112 11.709C91.9785 11.3424 87.5211 11.3101 83.0828 11.6123C80.844 11.7573 78.5662 11.987 76.2363 12.2408C73.0083 8.61491 68.1403 7.51504 63.3504 6.68108C63.2612 6.63574 63.1581 6.61944 63.0577 6.63479C62.9574 6.65014 62.8654 6.69624 62.7965 6.76577C62.7276 6.8353 62.6858 6.92426 62.6776 7.01843C62.6695 7.1126 62.6956 7.20658 62.7517 7.2854C63.2072 10.7542 67.1641 12.3496 70.9778 12.8451L69.3508 13.0506L66.7476 13.3648C64.6078 13.3167 62.472 13.561 60.4088 14.09C55.1992 14.6685 49.958 14.9672 44.7114 14.9844C41.4444 9.48511 37.7218 1.76193 30.0293 1.26639C29.9649 1.22876 29.8912 1.20719 29.8152 1.20372C29.7393 1.20025 29.6636 1.21503 29.5956 1.24662C29.5276 1.2782 29.4695 1.3255 29.4269 1.38401C29.3843 1.44252 29.3587 1.51026 29.3525 1.58064C28.7928 8.04684 36.251 12.4583 41.965 14.936C39.0002 14.8427 36.0443 14.5803 33.1141 14.1504C23.8597 6.99532 13.4078 -0.353189 0.769176 0.202783C0.693574 0.16362 0.608438 0.143066 0.521867 0.143066C0.435297 0.143066 0.350161 0.16362 0.274559 0.202783C-0.115923 0.335732 -0.0898939 0.940044 0.352652 0.95213C5.72829 12.5188 20.8139 14.4405 32.8928 14.8877C35.0275 15.2141 37.1621 15.4316 39.3097 15.5646C36.5523 15.8673 33.8406 16.4592 31.2268 17.3292C27.5959 18.8235 24.1844 20.7405 21.0742 23.0339C21.0043 23.072 20.9484 23.1288 20.9137 23.1969C20.8791 23.2649 20.8673 23.3411 20.88 23.4154C20.8926 23.4898 20.9291 23.5589 20.9847 23.6137C21.0402 23.6685 21.1122 23.7066 21.1914 23.7228H21.2825C25.0969 24.4951 29.0731 24.1878 32.6976 22.8405C36.7976 21.2935 39.3748 18.1268 42.9542 15.9513L43.4488 15.77L43.9955 15.6975C48.4334 15.7291 52.8698 15.5354 57.2849 15.1173C54.9271 16.1086 52.7767 17.4794 50.9331 19.1663C50.8681 19.2289 50.827 19.3095 50.8159 19.3959C50.7427 19.4434 50.6873 19.5109 50.6573 19.589C50.6273 19.6671 50.6243 19.7519 50.6486 19.8316C50.673 19.9114 50.7235 19.9821 50.7931 20.034C50.8627 20.0859 50.9481 20.1163 51.0372 20.1211C57.4434 20.1341 63.6367 17.9867 68.4657 14.0779C68.517 14.0392 68.5572 13.9894 68.5829 13.9329L69.6502 13.7999C72.2534 13.4857 74.8566 13.1715 77.2906 12.9176C76.822 13.0748 76.3534 13.2561 75.8979 13.4373C75.3864 13.5831 74.9032 13.8034 74.4661 14.09C73.2532 14.6252 72.1739 15.3898 71.2976 16.3347C70.4212 17.2796 69.767 18.384 69.3769 19.5772C69.3577 19.6363 69.3577 19.6994 69.3769 19.7585C69.3532 19.8162 69.3453 19.8784 69.3538 19.9397C69.3623 20.0009 69.387 20.0592 69.4257 20.1094C69.4643 20.1597 69.5157 20.2002 69.5753 20.2276C69.6349 20.2549 69.7009 20.2682 69.7673 20.2661C72.263 20.2139 74.6797 19.4443 76.6845 18.0632C78.6894 16.6821 80.1835 14.7577 80.9611 12.555L83.3431 12.3616C90.1138 11.9262 96.9162 12.2345 103.609 13.2802C100.98 13.6467 98.4263 14.3802 96.0337 15.4557C95.9839 15.4169 95.9251 15.3891 95.862 15.3745C95.7989 15.3598 95.733 15.3587 95.6693 15.3712C90.7883 16.3985 83.1348 18.3686 81.7291 23.5899C81.6781 23.6571 81.6508 23.7373 81.6508 23.8195C81.6508 23.9017 81.6781 23.9819 81.7291 24.0492C81.7541 24.0988 81.7896 24.1434 81.8335 24.1801C81.8774 24.2169 81.9287 24.2451 81.9845 24.2631C82.0403 24.2811 82.0994 24.2886 82.1584 24.2851C82.2174 24.2815 82.275 24.2671 82.3278 24.2425C87.6514 24.3151 94.7452 21.2451 96.3461 16.2051C99.5566 14.7474 103.058 13.9242 106.629 13.7879C109.297 14.2834 111.731 14.8394 113.853 15.3953H113.957C114.037 15.4232 114.124 15.4232 114.204 15.3953C117.37 16.2053 120.471 17.219 123.485 18.429L123.42 17.7642ZM99.3268 2.63215C101.425 3.0686 103.345 4.05597 104.856 5.47665C106.368 6.89733 107.408 8.69146 107.852 10.6454C107.223 10.062 106.636 9.44018 106.095 8.7841C105.757 8.38525 105.158 8.95329 105.496 9.34006C105.999 9.9367 106.533 10.5095 107.097 11.0563C105.132 10.4399 102.724 9.78726 101.566 8.44568C100.281 6.72489 99.5083 4.71933 99.3268 2.63215ZM76.2623 2.19706C81.7551 3.05519 88.8749 5.01315 92.3112 9.26754L84.6577 6.25805C84.1631 6.06467 83.9418 6.81402 84.4364 7.0074L90.9444 9.5697C85.5948 9.0379 78.8395 6.53603 76.2623 2.20912V2.19706ZM29.8731 1.99158C36.4853 2.53546 40.0517 9.07417 42.9803 14.0779C40.4277 12.4054 38.2412 10.2971 36.5373 7.86552C36.251 7.4425 35.509 7.86554 35.8084 8.26439C37.2165 10.2868 38.9505 12.0966 40.9498 13.6307C35.8084 11.3706 29.7039 7.4667 29.8731 2.00367V1.99158ZM0.9514 0.903811C12.6659 0.649998 22.4279 7.15243 31.1096 13.7999C22.534 12.3638 14.4806 8.96126 7.68068 3.9012L7.16005 4.50552C12.943 8.83338 19.6517 11.9688 26.8403 13.7032C16.5316 12.8451 5.41591 10.1498 0.9514 0.915873V0.903811ZM34.2335 21.0759C30.518 23.0501 26.179 23.7636 21.9593 23.0943C26.9227 19.1435 33.0958 16.7382 39.6091 16.2172C36.2857 17.5145 33.0316 18.9447 29.847 20.5079C29.3654 20.7496 29.847 21.4264 30.2636 21.1847C33.3354 19.6779 36.4636 18.3001 39.6482 17.0512C37.9838 18.5517 36.1709 19.9032 34.2335 21.088V21.0759ZM82.2237 23.4086C83.5253 19.4805 88.8619 17.6313 93.1962 16.5919C91.8946 17.2687 90.6581 18.0422 89.2914 18.9004C88.8489 19.1904 89.2914 19.8673 89.7209 19.5772C91.3357 18.5172 93.0179 17.5485 94.7582 16.6765C92.8969 20.8342 86.8184 23.3482 82.2237 23.4207V23.4086Z" fill="#050810"/>
</svg>
