<svg xmlns="http://www.w3.org/2000/svg" width="46" height="43" viewBox="0 0 46 43" fill="none">
  <g opacity="0.8">
    <path d="M22.4398 19.2893H22.3404C22.3197 19.297 22.3018 19.3109 22.2891 19.329C22.2765 19.3472 22.2697 19.3688 22.2697 19.391C22.2697 19.4131 22.2765 19.4347 22.2891 19.4529C22.3018 19.471 22.3197 19.4849 22.3404 19.4926C22.7279 19.5609 23.098 19.7052 23.4294 19.9174C23.597 20.0499 23.7486 20.2015 23.8812 20.3692C23.8812 20.3692 23.9942 20.5138 24.08 20.6358C24.0686 20.6409 24.0584 20.6484 24.0501 20.6579C24.0419 20.6674 24.0359 20.6785 24.0324 20.6906C24.029 20.7027 24.0282 20.7153 24.0302 20.7277C24.0322 20.7401 24.0368 20.7519 24.0439 20.7623C24.0742 20.8071 24.0985 20.8557 24.1162 20.9069C24.0222 20.9619 23.9356 21.0287 23.8586 21.1057C23.7146 21.2326 23.5428 21.324 23.3571 21.3723C23.2279 21.3931 23.0955 21.3818 22.9718 21.3392C22.848 21.2966 22.7367 21.2242 22.6477 21.1283C22.5442 21.0461 22.4616 20.9406 22.4065 20.8204C22.3515 20.7003 22.3256 20.5688 22.3308 20.4368C22.3361 20.3047 22.3725 20.1757 22.4369 20.0604C22.5014 19.945 22.5922 19.8465 22.7019 19.7728C22.7191 19.7592 22.7313 19.7402 22.7367 19.7189C22.742 19.6976 22.7401 19.6752 22.7314 19.6551C22.7226 19.6349 22.7074 19.6183 22.6882 19.6077C22.669 19.5971 22.6468 19.5932 22.6251 19.5965C22.429 19.6203 22.2502 19.7205 22.1276 19.8753C22.0049 20.0301 21.9482 20.2271 21.9699 20.4234C21.5949 21.047 21.4458 21.8196 22.119 22.294C22.4289 22.4824 22.799 22.5455 23.1537 22.4703C23.1348 22.5563 23.1272 22.6444 23.1311 22.7323C23.1477 22.9382 23.22 23.1356 23.3402 23.3036C23.4603 23.4715 23.6239 23.6036 23.8134 23.6857C23.9973 23.7786 24.1991 23.8307 24.4049 23.8385C24.6108 23.8463 24.8159 23.8096 25.0063 23.7309C25.0626 23.7057 25.1157 23.6738 25.1644 23.636C25.1806 23.6466 25.1957 23.6588 25.2096 23.6722C25.3823 23.7705 25.5864 23.7976 25.7788 23.7479C25.9711 23.6981 26.1365 23.5753 26.2398 23.4056C26.3389 23.2605 26.4073 23.0966 26.4407 22.9241C26.4741 22.7516 26.4719 22.5741 26.4341 22.4025L26.6691 22.5109C26.7146 22.5372 26.7687 22.5443 26.8195 22.5307C26.8704 22.5172 26.9137 22.4841 26.9402 22.4386C27.2836 21.7835 27.3468 21.0334 26.6148 20.6313C26.5009 20.5702 26.3794 20.5246 26.2534 20.4957C26.2871 20.3199 26.2762 20.1385 26.2218 19.968C26.1673 19.7975 26.071 19.6434 25.9416 19.5197C25.8082 19.3789 25.6339 19.2836 25.4434 19.2471C25.2529 19.2106 25.0558 19.2348 24.8798 19.3164C24.7758 19.3718 24.6837 19.447 24.6087 19.5378C24.5361 19.386 24.4434 19.2447 24.333 19.1176C24.2153 18.9772 24.0673 18.8653 23.9001 18.7904C23.7328 18.7155 23.5508 18.6795 23.3677 18.6851C23.1845 18.6908 23.005 18.738 22.8428 18.823C22.6805 18.9081 22.5396 19.0289 22.4308 19.1763C22.4173 19.1926 22.4107 19.2136 22.4124 19.2346C22.4141 19.2557 22.4239 19.2753 22.4398 19.2893ZM23.3435 22.0003C23.0728 22.1058 22.776 22.1247 22.4941 22.0546C21.8389 21.8919 21.8298 21.2638 22.0422 20.7487C22.0873 20.9701 22.1815 21.1786 22.3178 21.3587C22.438 21.5158 22.5935 21.6422 22.7717 21.7278C22.9499 21.8133 23.1458 21.8557 23.3435 21.8512L23.5152 21.8241C23.475 21.8724 23.4388 21.9237 23.4068 21.9778L23.3435 22.0003ZM25.9687 22.2127C26.0522 22.3477 26.0986 22.5023 26.1034 22.6609C26.1082 22.8195 26.0711 22.9766 25.9958 23.1164C25.8693 23.3468 25.6524 23.514 25.3994 23.3875C25.5094 23.1633 25.5397 22.9083 25.4852 22.6645C25.431 22.3934 25.2141 21.7609 24.8798 21.7609C24.8495 21.7605 24.8199 21.77 24.7954 21.788C24.771 21.8059 24.753 21.8313 24.7442 21.8603C24.6855 22.0139 24.8301 22.2172 24.8978 22.3528C24.9587 22.4715 25.0086 22.5955 25.047 22.7233C25.0733 22.8157 25.084 22.912 25.0786 23.0079V23.0712C25.0363 23.0131 24.9971 22.9527 24.9611 22.8905C24.7682 22.5239 24.6297 22.1312 24.5499 21.7247C24.5228 21.5937 24.3285 21.6524 24.3556 21.7789C24.4263 22.3236 24.6077 22.8479 24.8888 23.3197C24.8443 23.3454 24.7974 23.3665 24.7487 23.383C24.5924 23.4168 24.4306 23.4168 24.2743 23.383C24.1122 23.3631 23.9586 23.2996 23.8297 23.1994C23.7008 23.0991 23.6015 22.9658 23.5423 22.8136C23.4984 22.6662 23.4984 22.5092 23.5423 22.3618C23.7015 22.327 23.8502 22.2547 23.9759 22.151C24.1016 22.0473 24.2008 21.9151 24.2653 21.7654C24.2701 21.7479 24.2709 21.7296 24.2675 21.7118C24.2642 21.694 24.2567 21.6772 24.2458 21.6628C24.2348 21.6484 24.2207 21.6367 24.2045 21.6286C24.1883 21.6205 24.1704 21.6163 24.1523 21.6163C24.0791 21.6231 24.0074 21.6414 23.9399 21.6705L23.9806 21.6343C24.1516 21.5474 24.292 21.4103 24.3827 21.2412C24.4192 21.2431 24.4556 21.2353 24.4881 21.2187C24.5206 21.202 24.5482 21.1771 24.568 21.1464C24.6136 21.0687 24.6311 20.9778 24.6177 20.8888L24.6539 20.8481C24.8692 20.9114 25.0982 20.9114 25.3135 20.8481C25.452 20.8391 25.5908 20.8391 25.7292 20.8481C25.494 21.068 25.2061 21.2236 24.8933 21.3C24.8461 21.3023 24.7999 21.3146 24.7578 21.3361C24.6132 21.309 24.5002 21.5078 24.6539 21.5892C25.0695 21.806 25.4988 21.9868 25.9235 22.172C25.9326 22.1811 25.9506 22.1901 25.9597 22.2082L25.9687 22.2127ZM26.6917 22.0862C26.5425 22.0184 26.3889 21.9552 26.2398 21.8919C26.0359 21.6396 25.7602 21.4552 25.4491 21.3632C25.6982 21.2677 25.92 21.1126 26.0952 20.9114H26.2082C26.8317 21.0741 26.895 21.5711 26.6917 22.0862ZM25.0605 19.6869C25.1645 19.6272 25.2858 19.6049 25.4042 19.6239C25.5226 19.6428 25.631 19.7017 25.7112 19.7908C25.7999 19.871 25.8671 19.9722 25.9066 20.0851C25.9461 20.198 25.9566 20.319 25.9371 20.437L25.5892 20.4144C25.314 20.3858 25.036 20.4262 24.7804 20.5319C24.8003 20.4064 24.8078 20.2793 24.803 20.1523C24.8051 20.1222 24.8051 20.092 24.803 20.0619C24.8487 19.9159 24.9348 19.7859 25.0515 19.6869H25.0605ZM24.211 19.4384C24.3086 19.5743 24.3792 19.7277 24.4189 19.8902C24.3684 20.0063 24.3305 20.1275 24.3059 20.2517C24.187 20.1122 24.0603 19.9794 23.9264 19.8541C23.5795 19.5144 23.123 19.3093 22.6386 19.2757C22.7416 19.1626 22.8697 19.0753 23.0126 19.0207C23.1556 18.9662 23.3093 18.9461 23.4614 18.9619C23.6136 18.9777 23.7599 19.0291 23.8885 19.1119C24.0172 19.1946 24.1245 19.3065 24.202 19.4384H24.211Z" fill="white"/>
    <path d="M22.3902 18.3678C22.3333 17.8168 22.1804 17.2801 21.9383 16.7818C21.7509 16.2684 21.5069 15.7774 21.2109 15.3179C21.1857 15.2797 21.1491 15.2505 21.1064 15.2344C21.0636 15.2183 21.0169 15.2161 20.9728 15.2281C20.9287 15.2401 20.8895 15.2658 20.8609 15.3014C20.8322 15.3369 20.8156 15.3807 20.8132 15.4263C20.8606 15.9648 21.0061 16.49 21.2425 16.9761C21.4173 17.3117 21.6151 17.6347 21.8344 17.9431C21.8822 18.0997 21.9458 18.2511 22.0242 18.3949L21.7485 18.3181C21.1033 17.8078 20.4049 17.3685 19.6656 17.0078C19.4848 16.9219 19.2137 17.1117 19.3583 17.315C19.8689 18.0425 20.9307 18.8513 21.9067 18.8739C22.0242 18.9552 22.1462 19.0365 22.2682 19.1088C22.3902 19.1811 22.6025 18.9507 22.4353 18.8242L22.3585 18.7654C22.3823 18.7232 22.389 18.6734 22.3773 18.6263C22.3655 18.5793 22.3362 18.5385 22.2953 18.5124C22.3242 18.5011 22.3488 18.4812 22.3658 18.4553C22.3828 18.4294 22.3913 18.3988 22.3902 18.3678Z" fill="white"/>
    <path d="M17.3652 21.2594C18.3896 21.4073 19.4348 21.2665 20.3835 20.8528C20.4108 20.8357 20.4319 20.8103 20.4436 20.7803C20.4553 20.7502 20.4569 20.7172 20.4483 20.6862C20.4396 20.6552 20.4211 20.6278 20.3956 20.6081C20.3701 20.5885 20.3389 20.5776 20.3067 20.5771C19.4934 20.4958 18.6846 20.7669 17.8577 20.794C18.3326 20.3168 18.9324 19.9833 19.5883 19.8316C20.064 19.944 20.5638 19.8931 21.0071 19.687L21.111 19.7774C21.2194 19.8768 21.3776 19.7186 21.2736 19.6147L21.2239 19.5695C21.2543 19.5335 21.274 19.4897 21.2808 19.4431C21.2876 19.3965 21.2812 19.3489 21.2624 19.3057C21.2437 19.2625 21.2132 19.2253 21.1744 19.1985C21.1357 19.1717 21.0903 19.1562 21.0432 19.1538H20.7585C20.2446 18.7582 19.6287 18.5169 18.9828 18.458C18.9325 18.458 18.8842 18.478 18.8486 18.5136C18.813 18.5492 18.793 18.5975 18.793 18.6478C18.7786 18.9459 18.8716 19.2393 19.0551 19.4747C18.287 19.725 17.6209 20.2182 17.1574 20.8799C17.1326 20.917 17.1184 20.9601 17.1164 21.0047C17.1145 21.0493 17.1248 21.0935 17.1462 21.1327C17.1676 21.1718 17.1994 21.2043 17.238 21.2267C17.2766 21.249 17.3206 21.2603 17.3652 21.2594ZM19.2313 18.8647C19.6189 18.8972 19.9949 19.0128 20.3338 19.2035C20.0813 19.2315 19.8308 19.2752 19.5838 19.3346C19.4093 19.2301 19.2828 19.0614 19.2313 18.8647Z" fill="white"/>
    <path d="M18.9605 24.7661C19.1322 24.6938 19.2813 24.5899 19.4575 24.5221C19.4858 24.5142 19.5103 24.4963 19.5265 24.4718C19.5427 24.4473 19.5495 24.4177 19.5456 24.3886C19.5418 24.3595 19.5275 24.3327 19.5055 24.3133C19.4836 24.2938 19.4553 24.2829 19.4259 24.2826H19.3446C19.7874 23.6637 20.1403 22.9852 20.3928 22.2674C20.4787 22.0324 20.1534 21.8652 19.9907 22.0324C19.4485 22.5792 18.843 23.3879 18.0252 23.4422C18.102 22.3306 19.3807 21.9149 20.2121 21.4089C20.2329 21.3959 20.2484 21.3761 20.2559 21.3528C20.2635 21.3296 20.2626 21.3044 20.2534 21.2817C20.2442 21.2591 20.2274 21.2404 20.2058 21.2289C20.1842 21.2175 20.1592 21.214 20.1353 21.2191C18.9515 21.5489 17.5146 22.2538 17.5824 23.6726C17.5835 23.7314 17.607 23.7876 17.6482 23.8296C17.6894 23.8716 17.745 23.8962 17.8038 23.8985C18.0957 23.9132 18.3874 23.867 18.6605 23.7627C18.9335 23.6585 19.1819 23.4985 19.3898 23.2931C19.1594 23.6893 18.9028 24.0697 18.6216 24.4317C18.4499 24.6531 18.7662 24.8519 18.9605 24.7661Z" fill="white"/>
    <path d="M23.2339 15.1823C23.008 15.7019 22.782 16.6011 23.1842 17.0891C23.1346 17.2684 23.0984 17.4511 23.0757 17.6358C23.0531 17.8256 23.3152 17.8527 23.4056 17.7216C23.8574 17.0529 23.7264 15.9775 23.5818 15.2275C23.5721 15.1912 23.5518 15.1586 23.5235 15.1339C23.4952 15.1091 23.4602 15.0933 23.423 15.0885C23.3857 15.0837 23.3478 15.09 23.3142 15.1067C23.2805 15.1234 23.2526 15.1497 23.2339 15.1823Z" fill="white"/>
    <path d="M25.6925 15.2004C25.1386 15.424 24.6564 15.7948 24.298 16.2726C23.9397 16.7504 23.7187 17.3172 23.6592 17.9115C23.6591 17.9512 23.6725 17.9898 23.6971 18.0209C23.7217 18.0521 23.7561 18.074 23.7947 18.0832C24.1698 18.1826 24.224 17.9567 24.4138 17.6946C24.5177 17.55 24.2872 17.3738 24.1743 17.5093L24.1246 17.5771C24.1832 17.3948 24.2541 17.2167 24.3369 17.0439C24.4454 17.2879 24.8656 17.2382 25.0915 17.1162C25.3726 16.9294 25.6025 16.6753 25.7603 16.3771C25.9181 16.0788 25.9989 15.7457 25.9952 15.4083C25.9935 15.3728 25.9836 15.3381 25.9663 15.307C25.949 15.276 25.9248 15.2493 25.8954 15.2292C25.8661 15.209 25.8325 15.196 25.7973 15.191C25.7621 15.186 25.7262 15.1892 25.6925 15.2004ZM24.4861 16.7638C24.7061 16.3548 25.0405 16.0188 25.4485 15.7969C25.4074 16.0376 25.2929 16.2598 25.1206 16.4329C24.9483 16.606 24.7266 16.7216 24.4861 16.7638Z" fill="white"/>
    <path d="M27.459 15.7922C26.7632 16.0587 25.7872 16.6507 25.6155 17.4504C25.6065 17.4828 25.6094 17.5173 25.6237 17.5477C25.6379 17.5781 25.6627 17.6023 25.6933 17.616C25.724 17.6297 25.7585 17.6319 25.7907 17.6223C25.8229 17.6126 25.8505 17.5917 25.8685 17.5634C25.8594 17.6162 25.869 17.6705 25.8957 17.717C25.9045 17.7325 25.9164 17.7461 25.9306 17.7568C25.9449 17.7676 25.9612 17.7753 25.9785 17.7796C25.9959 17.7838 26.0139 17.7844 26.0315 17.7814C26.0491 17.7785 26.0659 17.7719 26.0809 17.7622C26.0993 17.7489 26.1147 17.732 26.1261 17.7125C26.1143 17.7359 26.0953 17.7549 26.0719 17.7667H26.1125C26.1907 17.7625 26.266 17.7358 26.3294 17.6899L26.8219 17.238C27.2054 16.919 27.5139 16.5195 27.7256 16.0678C27.8069 15.9187 27.5946 15.7605 27.459 15.7922ZM26.3068 17.0573L26.1171 17.2155C26.3045 16.9889 26.5254 16.7924 26.7722 16.6326C26.6186 16.7817 26.4605 16.9218 26.3068 17.0573Z" fill="white"/>
    <path d="M28.2646 16.0726C28.2483 16.0464 28.2257 16.0249 28.1988 16.0099C28.172 15.9949 28.1417 15.9871 28.1109 15.9871C28.0802 15.9871 28.0499 15.9949 28.023 16.0099C27.9961 16.0249 27.9735 16.0464 27.9573 16.0726C27.4065 16.8358 27.0653 17.73 26.9678 18.6662C26.9678 18.7746 27.1033 18.8017 27.1621 18.7294C27.1709 18.7384 27.1814 18.7455 27.1931 18.7501C27.2048 18.7548 27.2173 18.757 27.2298 18.7565C27.285 18.7601 27.3404 18.7524 27.3925 18.7339C27.3696 18.7666 27.3499 18.8014 27.3338 18.8379C27.3269 18.8619 27.3248 18.887 27.3277 18.9119C27.3305 18.9367 27.3383 18.9607 27.3505 18.9826C27.3626 19.0044 27.379 19.0236 27.3986 19.0391C27.4182 19.0546 27.4407 19.066 27.4648 19.0728H27.5145C27.7088 19.0728 28.0477 18.621 28.2149 18.4357L28.3685 18.2821C28.2678 18.4544 28.1464 18.6138 28.007 18.7565C27.8806 18.8797 27.7376 18.9846 27.5823 19.0683C27.5254 19.1005 27.4665 19.1292 27.4061 19.1542C27.3744 19.1542 27.2434 19.3213 27.3021 19.2761C27.2816 19.2892 27.2647 19.3072 27.253 19.3286C27.2413 19.3499 27.2352 19.3738 27.2352 19.3981C27.2352 19.4225 27.2413 19.4464 27.253 19.4677C27.2647 19.4891 27.2816 19.5071 27.3021 19.5201C27.6907 19.7461 28.0748 19.3756 28.3504 19.1044C28.7901 18.6758 29.0502 18.0958 29.0779 17.4823C29.0758 17.4378 29.0611 17.3947 29.0354 17.3582C29.0098 17.3216 28.9742 17.2932 28.933 17.2761C28.8918 17.259 28.8465 17.2541 28.8026 17.2618C28.7586 17.2695 28.7177 17.2896 28.6848 17.3197L28.1154 17.9071C28.2939 17.6391 28.4012 17.33 28.4273 17.0091C28.4534 16.6882 28.3974 16.3659 28.2646 16.0726ZM27.5732 17.9251C27.4964 18.0381 27.3925 18.142 27.3067 18.255C27.4534 17.658 27.696 17.0889 28.0251 16.5696C28.0486 17.0582 27.8963 17.5391 27.5958 17.9251H27.5732Z" fill="white"/>
    <path d="M27.4688 22.0863L28.4132 22.3438C29.2355 23.1029 30.2205 23.6994 30.8576 24.6573C30.8839 24.6986 30.9226 24.7305 30.9683 24.7484C31.0139 24.7662 31.064 24.769 31.1114 24.7564C31.1587 24.7439 31.2008 24.7165 31.2316 24.6784C31.2623 24.6402 31.2801 24.5933 31.2824 24.5443C31.3501 23.0713 29.7145 21.9914 28.2776 21.7474C28.0271 21.51 27.8084 21.2412 27.627 20.9477C27.6085 20.9252 27.5827 20.9101 27.5541 20.905C27.5255 20.8999 27.496 20.9052 27.4709 20.9199C27.4459 20.9346 27.4269 20.9577 27.4174 20.9852C27.4079 21.0127 27.4085 21.0426 27.4191 21.0697C27.526 21.2918 27.6579 21.501 27.8122 21.6932C27.7159 21.6864 27.6193 21.6864 27.523 21.6932C27.4726 21.6895 27.4227 21.7051 27.3834 21.7369C27.3441 21.7686 27.3183 21.8142 27.3114 21.8643C27.3045 21.9144 27.317 21.9652 27.3462 22.0064C27.3754 22.0477 27.4193 22.0762 27.4688 22.0863ZM30.6724 23.731C30.2746 23.3491 29.8503 22.9957 29.4027 22.6737C29.9414 22.863 30.3928 23.2421 30.6724 23.74V23.731Z" fill="white"/>
    <path d="M27.2337 23.3335C27.184 23.1301 26.8858 23.216 26.9265 23.4193C27.0019 23.8036 27.1123 24.1802 27.2563 24.5444C27.2259 24.5088 27.1856 24.4829 27.1406 24.4699C27.0956 24.4569 27.0477 24.4575 27.003 24.4714C26.9583 24.4854 26.9186 24.5121 26.889 24.5484C26.8593 24.5847 26.8409 24.6288 26.8361 24.6754L26.7819 24.5128C26.7677 24.4792 26.7418 24.452 26.7089 24.4362C26.676 24.4205 26.6385 24.4173 26.6035 24.4273C26.5685 24.4373 26.5383 24.4598 26.5187 24.4905C26.4991 24.5213 26.4915 24.5581 26.4972 24.5941C26.7683 25.5927 27.0891 26.5822 27.2789 27.5943C27.0363 26.6759 26.7452 25.7709 26.4068 24.8833C26.382 24.8418 26.3455 24.8085 26.302 24.7874C26.2584 24.7663 26.2097 24.7584 26.1617 24.7646C26.1137 24.7709 26.0686 24.791 26.0319 24.8225C25.9952 24.854 25.9684 24.8955 25.955 24.942L25.9279 24.7071C25.9279 24.6603 25.9093 24.6155 25.8763 24.5825C25.8432 24.5494 25.7984 24.5308 25.7517 24.5308C25.7049 24.5308 25.6601 24.5494 25.6271 24.5825C25.594 24.6155 25.5755 24.6603 25.5755 24.7071C25.5023 25.9249 25.6321 27.1465 25.9595 28.3218C25.978 28.3754 26.0146 28.421 26.063 28.4506C26.1114 28.4802 26.1686 28.492 26.2247 28.4839C26.2809 28.4759 26.3325 28.4486 26.3707 28.4066C26.4089 28.3646 26.4313 28.3107 26.434 28.254C26.434 27.522 26.3074 26.79 26.321 26.0626C26.6373 27.1063 26.8135 28.1862 27.4596 29.1125C27.4848 29.1611 27.5258 29.1995 27.5758 29.2216C27.6259 29.2436 27.6819 29.2479 27.7347 29.2336C27.7875 29.2193 27.8338 29.1875 27.866 29.1432C27.8981 29.099 27.9142 29.0451 27.9115 28.9905C27.8246 27.7782 27.5518 26.5865 27.1027 25.4571C27.4535 26.4405 27.9905 27.3471 28.6841 28.1275C28.721 28.1617 28.768 28.1832 28.818 28.1888C28.868 28.1944 28.9185 28.1837 28.9621 28.1584C29.0056 28.1331 29.0398 28.0945 29.0598 28.0482C29.0797 28.002 29.0842 27.9506 29.0727 27.9016C28.7745 26.546 27.9657 25.4029 27.4777 24.1242L27.5093 24.0745C27.925 25.1137 28.4627 26.0987 29.4839 26.6545C29.5094 26.6694 29.5379 26.6783 29.5673 26.6806C29.5968 26.6828 29.6263 26.6783 29.6538 26.6674C29.6812 26.6566 29.7058 26.6396 29.7257 26.6177C29.7456 26.5959 29.7602 26.5699 29.7685 26.5415C30.0396 25.1499 28.788 23.9073 27.6223 23.3786C27.5753 23.3631 27.5247 23.3631 27.4777 23.3786C27.4145 23.2612 27.2156 23.3154 27.2608 23.4509L27.3105 23.5729V23.5955C27.2789 23.478 27.2518 23.4058 27.2337 23.3335ZM29.4026 26.1529C28.6157 25.5657 28.0149 24.7641 27.672 23.844C28.5305 24.2959 29.4297 25.1544 29.4026 26.1529ZM27.5952 25.3216C27.7669 25.6966 27.9431 26.0716 28.1058 26.4466C27.9024 26.0852 27.7398 25.7011 27.5952 25.3216Z" fill="white"/>
    <path d="M24.0029 24.9603C23.6143 26.3158 23.7815 28.1729 22.6473 29.176C22.6189 28.8305 22.6683 28.4831 22.7919 28.1593C22.9863 27.8985 23.1388 27.6088 23.2438 27.3008C23.3296 27.1472 23.42 26.9936 23.5104 26.8264C23.5202 26.8067 23.525 26.7849 23.5242 26.7629C23.5234 26.7409 23.5171 26.7195 23.5059 26.7006C23.4946 26.6817 23.4788 26.6659 23.4598 26.6547C23.4409 26.6435 23.4194 26.6373 23.3974 26.6366C23.4678 26.1303 23.4541 25.6158 23.3567 25.1139C23.3341 24.9919 23.1444 25.0236 23.1444 25.141C23.1595 25.7586 23.0927 26.3755 22.9456 26.9755C22.652 27.2899 22.4436 27.6741 22.3401 28.0916C22.2437 28.1916 22.1394 28.2837 22.0283 28.3672C21.6533 27.2376 22.6383 26.1803 23.1082 25.2314C23.1895 25.0642 22.9681 24.8564 22.8326 25.019C22.7558 25.1004 22.6835 25.1862 22.6067 25.2721C22.5299 25.3579 22.5208 25.376 22.4711 25.4257C22.5077 25.3689 22.5408 25.3101 22.5705 25.2495C22.688 25.019 22.5705 24.6937 22.3175 24.9422C22.3076 24.9543 22.3022 24.9695 22.3022 24.9851C22.3022 25.0008 22.3076 25.016 22.3175 25.0281C22.2497 25.1094 22.1865 25.1953 22.1232 25.2766C21.9967 25.4392 21.8702 25.5974 21.7482 25.7601C21.4354 26.1344 21.16 26.5385 20.9258 26.9665C20.9107 27.0019 20.909 27.0417 20.9211 27.0783C20.9332 27.1149 20.9582 27.1458 20.9915 27.1652C21.0249 27.1847 21.0641 27.1913 21.1019 27.1838C21.1397 27.1763 21.1735 27.1553 21.1969 27.1246C21.4387 26.7762 21.7158 26.4537 22.0238 26.1622C21.572 26.9936 21.3731 27.9696 21.7662 28.7693C21.7798 28.7931 21.798 28.814 21.8197 28.8307C21.8414 28.8475 21.8661 28.8598 21.8926 28.8669C21.9191 28.8741 21.9467 28.8759 21.9738 28.8723C22.001 28.8688 22.0272 28.8599 22.0509 28.8461C22.1246 28.799 22.1955 28.7477 22.2633 28.6925C22.2447 28.9956 22.2691 29.2999 22.3356 29.5962C22.3436 29.6269 22.3587 29.6553 22.3797 29.6791C22.4006 29.7029 22.4269 29.7214 22.4563 29.7333C22.4857 29.7451 22.5175 29.7499 22.5491 29.7473C22.5807 29.7447 22.6112 29.7347 22.6383 29.7182C24.2017 28.6518 23.8718 26.6321 24.283 25.0145C24.2902 24.9774 24.2823 24.9389 24.2611 24.9075C24.24 24.8762 24.2072 24.8545 24.17 24.8473C24.1329 24.8401 24.0944 24.848 24.0631 24.8692C24.0317 24.8904 24.0101 24.9231 24.0029 24.9603Z" fill="white"/>
    <path d="M25.0103 25.9586C25.0275 25.9346 25.0379 25.9065 25.0404 25.8771C25.0428 25.8478 25.0372 25.8183 25.0243 25.7919C25.0113 25.7654 24.9913 25.743 24.9666 25.727C24.9419 25.711 24.9132 25.702 24.8838 25.701C23.8265 25.7869 24.206 28.2449 24.3732 28.8639C24.3836 28.9024 24.4039 28.9374 24.4322 28.9655C24.4604 28.9936 24.4956 29.0137 24.5341 29.0238C24.5727 29.0339 24.6132 29.0336 24.6516 29.023C24.69 29.0123 24.7249 28.9918 24.7528 28.9633C25.7061 27.8473 25.4938 26.1167 25.1368 24.8019C25.1007 24.6618 24.8973 24.7205 24.9245 24.8606C25.1413 25.9134 25.295 27.2779 24.7166 28.2584C24.5856 27.5084 24.5765 26.5369 25.0103 25.9586Z" fill="white"/>
    <path d="M21.604 25.3714C21.6156 25.3782 21.6289 25.3817 21.6424 25.3817C21.6558 25.3817 21.6691 25.3782 21.6808 25.3714C22.0151 25.15 22.2456 24.9828 21.9654 24.5988C22.0009 24.5011 22.0311 24.4015 22.0558 24.3006C22.0583 24.2701 22.05 24.2397 22.0325 24.2147C22.0149 24.1897 21.9892 24.1716 21.9597 24.1635C21.9302 24.1555 21.8988 24.158 21.871 24.1707C21.8432 24.1833 21.8206 24.2053 21.8073 24.2328C21.7757 24.3322 21.735 24.4271 21.6943 24.5265L21.6356 24.5581C21.1035 25.0401 20.6466 25.5991 20.2801 26.2164C20.124 26.3144 19.9591 26.3976 19.7876 26.4649C19.8508 25.5612 20.5647 24.9286 21.2967 24.4406C21.4729 24.3232 21.3645 23.9888 21.1431 24.0746C20.9137 24.173 20.6981 24.3005 20.5015 24.4542C20.5738 24.296 20.628 24.156 20.6415 24.1198C20.7393 23.91 20.8194 23.6924 20.881 23.4692C20.9217 23.3336 20.7997 23.1574 20.6641 23.2975C20.6539 23.3074 20.6457 23.3194 20.6403 23.3326C20.6349 23.3458 20.6322 23.36 20.6325 23.3743C20.6325 23.3743 20.6325 23.415 20.6099 23.433L20.506 23.6138L20.2349 24.1108L19.9638 24.5898C19.9238 24.6478 19.8933 24.7119 19.8734 24.7795C19.8508 24.9151 19.8734 24.897 19.8734 24.8563C19.8734 24.8157 19.8734 24.8563 19.8734 24.8834C19.8682 24.9066 19.8688 24.9306 19.8751 24.9535C19.8814 24.9763 19.8933 24.9973 19.9096 25.0145C19.5075 25.5033 19.3071 26.1271 19.3493 26.7586C19.3502 26.7905 19.3584 26.8219 19.3732 26.8502C19.388 26.8786 19.4089 26.9032 19.4346 26.9223C19.4602 26.9414 19.4898 26.9545 19.5212 26.9606C19.5526 26.9667 19.5849 26.9656 19.6159 26.9574C19.7344 26.9174 19.8506 26.8706 19.9638 26.8173C19.8248 27.0941 19.7593 27.4019 19.7736 27.7113C19.7878 28.0207 19.8813 28.3212 20.0451 28.584C20.1355 28.7105 20.3433 28.584 20.253 28.462C19.8915 27.9379 20.131 27.1833 20.5512 26.483C20.9755 26.1896 21.334 25.811 21.604 25.3714Z" fill="white"/>
    <path d="M40.9515 30.1472C41.1729 27.9196 40.3506 26.1529 38.6923 24.6754C37.5581 23.7363 36.2774 22.9899 34.9014 22.4659C34.3043 22.2327 33.6893 22.0483 33.0624 21.9146C35.0686 21.6887 37.0657 21.3453 38.7827 20.2699C40.4997 19.1945 41.4305 17.0754 42.1805 15.2726C42.8402 13.6821 43.5677 11.4771 42.4562 9.93178C41.4711 8.57626 38.7782 12.6925 38.6878 8.97388C38.6878 8.45878 38.6878 7.91657 38.62 7.40599C38.6481 7.4163 38.6786 7.41793 38.7076 7.41068C38.7366 7.40343 38.7628 7.38763 38.7827 7.36533C39.6864 6.46164 39.831 5.53537 39.5147 4.65428C40.6669 4.79435 40.694 5.55796 41.2226 6.46164C41.8688 7.56414 43.1113 8.24641 43.8749 9.26758C46.8164 13.2122 42.4652 17.6899 39.5011 19.8361C39.4844 19.8516 39.4734 19.8723 39.4701 19.8949C39.4669 19.9174 39.4714 19.9404 39.4831 19.96C39.4947 19.9796 39.5127 19.9946 39.5341 20.0025C39.5555 20.0104 39.579 20.0107 39.6005 20.0033C43.1339 18.3225 45.7591 14.1836 44.8464 10.2571C44.3675 8.17864 42.1354 7.32014 41.2317 5.4947C41.0368 4.95583 40.69 4.485 40.2331 4.13917C39.8264 3.86807 39.2888 4.61812 39.3294 3.46141C39.3294 3.30778 39.1035 3.3123 39.0945 3.46141C39.0854 3.61052 39.0945 3.728 39.0628 3.80029C38.3632 2.88034 37.476 2.11952 36.4602 1.56819C35.1499 0.827174 33.338 -0.374725 31.7249 0.113264C31.0561 0.247032 30.4397 0.570105 29.9492 1.04406C29.8182 1.18413 28.9325 2.80172 28.6479 2.31825C28.5259 2.11041 27.9024 0.673549 27.6041 0.623847C26.7005 0.470221 26.0046 1.10731 25.485 1.76248C24.9929 2.40589 24.6112 3.12661 24.3554 3.89517C22.6791 0.97176 19.3309 -0.00420791 15.8698 0.162973C14.1393 0.248823 13.2311 0.00482339 12.1376 1.42812C10.7143 3.27616 10.4929 2.5261 9.15093 3.38911C8.69909 3.69185 8.72168 4.43288 8.69909 4.89375C8.13952 5.11849 7.64983 5.48809 7.28031 5.96462C6.02871 7.64998 5.59042 9.72846 7.14475 11.4183C8.35569 12.7422 7.04535 13.7137 6.96854 14.8975C6.90813 15.7306 7.0885 16.5634 7.48815 17.2968C8.14784 18.5845 9.39944 19.4069 10.8453 19.913C9.44463 20.0847 8.25177 20.6359 7.74119 21.8694C7.2306 23.103 7.16283 24.4088 6.31789 25.5293C6.30749 25.5268 6.29665 25.5268 6.28626 25.5293C3.52099 25.4616 0.805419 25.0775 0.864158 21.4628C0.864158 21.3091 0.864158 21.1826 0.864158 21.0651C0.879761 21.0677 0.895766 21.0656 0.910211 21.0592C0.924655 21.0528 0.936912 21.0423 0.94549 21.029C2.10672 19.1403 5.76212 20.6133 7.51526 20.288C7.53082 20.284 7.5446 20.275 7.55444 20.2623C7.56429 20.2496 7.56963 20.234 7.56963 20.2179C7.56963 20.2019 7.56429 20.1863 7.55444 20.1736C7.5446 20.1609 7.53082 20.1519 7.51526 20.1479C6.17411 19.9064 4.80927 19.823 3.44869 19.8994C2.62182 19.8994 1.24822 19.9807 0.837049 20.8483C0.7755 20.4961 0.666042 20.1541 0.511723 19.8316C0.299357 19.3211 1.03134 18.9279 0.963564 18.449C0.905088 17.8505 0.752602 17.2649 0.511723 16.7139C-0.0485608 15.381 1.12623 14.1068 1.6097 12.9907C2.45464 11.0614 3.17759 10.3068 5.32835 9.87756C5.36282 9.86566 5.39212 9.84221 5.41128 9.81118C5.43045 9.78016 5.43831 9.74347 5.43352 9.70732C5.42874 9.67117 5.41161 9.63778 5.38503 9.61281C5.35845 9.58784 5.32406 9.57283 5.28769 9.5703C3.48032 9.60193 2.37331 10.2842 1.60518 11.8883C0.701499 13.8041 -0.590771 15.2319 0.299357 17.351C0.814456 18.5755 -0.211222 19.2307 0.263212 20.4145C0.769274 21.6661 0.308396 22.8364 1.00423 24.088C2.04799 25.9767 4.24393 26.0083 6.11456 25.7643C6.08745 25.7959 6.06486 25.8276 6.03774 25.8547C5.37099 26.497 4.79623 27.2283 4.32978 28.028C4.04628 28.6328 3.99602 29.321 4.18864 29.9605C4.38126 30.6001 4.8032 31.146 5.37354 31.4937C6.5664 32.2844 7.97614 31.8732 8.53643 33.6941C8.72024 34.3734 9.02648 35.0135 9.44011 35.5828C9.79706 36.0347 10.7188 36.238 11.2068 36.5136C12.0292 36.9655 12.8877 37.7246 13.8682 37.833C15.4812 38.0047 17.1033 37.0242 18.3866 35.6009C18.378 35.6123 18.3705 35.6244 18.364 35.637C18.0595 36.5754 17.947 37.5654 18.0331 38.5482C18.1193 39.5309 18.4024 40.4863 18.8655 41.3573C19.3761 42.261 20.8898 42.9885 21.3326 41.7279C22.0013 39.8256 22.7739 41.1631 23.8448 41.4071C24.8302 41.6056 25.8386 41.665 26.8405 41.5833C28.1238 41.511 30.2519 41.0998 30.1119 39.428C30.1119 39.2879 29.8859 39.2382 29.8498 39.3918C29.3979 41.5426 26.3571 41.1992 24.7214 40.9914C23.961 40.9432 23.2465 40.611 22.7197 40.0606C22.6203 39.9612 22.4441 39.8256 22.2679 39.8844C21.8033 40.0681 21.3929 40.3665 21.075 40.7519C20.6232 41.2489 20.9982 42.6541 19.5162 41.3393C18.2239 40.2006 18.1606 37.232 18.6125 35.7093C18.6206 35.6816 18.6194 35.6519 18.6089 35.6249C18.5984 35.598 18.5793 35.5752 18.5545 35.5603C18.5298 35.5453 18.5007 35.539 18.472 35.5422C18.4433 35.5455 18.4164 35.5582 18.3956 35.5783C20.0222 33.7709 21.1564 31.2949 21.1518 29.492C21.1518 29.3474 20.9214 29.3067 20.8988 29.4558C20.5825 31.3174 19.6969 32.8944 18.6396 34.4261C16.9497 36.9203 14.7041 38.1538 11.9117 36.4232C10.5562 35.5648 9.37233 35.3117 8.96116 33.5586C8.7262 32.56 8.08459 32.0585 7.18542 31.6654C6.65225 31.4349 6.09648 31.2948 5.56783 31.0373C3.30862 29.9574 5.05273 27.653 6.01967 26.6635C6.98661 25.6739 7.4746 25.082 7.75474 23.7762C8.31502 21.1646 9.91454 20.5184 12.3545 20.4642C13.845 20.4535 15.3305 20.6373 16.7735 21.0109C16.7919 21.0163 16.8112 21.0179 16.8302 21.0158C16.8492 21.0137 16.8677 21.0079 16.8845 20.9987C16.9012 20.9894 16.916 20.977 16.928 20.962C16.94 20.9471 16.9489 20.9299 16.9542 20.9115C16.9596 20.8931 16.9612 20.8739 16.9591 20.8548C16.957 20.8358 16.9512 20.8174 16.942 20.8006C16.9327 20.7838 16.9203 20.769 16.9053 20.757C16.8904 20.745 16.8732 20.7361 16.8548 20.7308C16.6741 20.6675 16.4753 20.6043 16.2629 20.541C16.5702 20.541 16.8684 20.5004 17.1666 20.4642C17.3564 20.4416 17.3564 20.1479 17.1666 20.1705C16.5066 20.2442 15.8422 20.2698 15.1785 20.2473C14.2145 20.0186 13.2312 19.8809 12.2415 19.8361C10.9148 19.5165 9.67851 18.8984 8.62679 18.0288C7.90587 17.3626 7.45685 16.4533 7.36616 15.4759C7.26224 14.6716 8.04392 13.9667 8.3331 13.2844C8.62228 12.6022 8.24725 11.9289 7.79089 11.4274C6.09196 9.55675 6.54381 7.63191 7.95355 5.87424C8.69005 4.97056 9.76092 5.22811 10.6646 4.92537C11.365 4.69945 11.1978 4.83953 11.6361 4.34251C12.9916 2.77914 14.2522 2.75654 16.0641 3.28068C20.0493 4.43739 23.6325 8.49944 24.4909 12.5389C24.3673 13.2749 24.4152 14.0295 24.631 14.7439C24.6454 14.7765 24.671 14.803 24.7031 14.8184C24.7353 14.8338 24.7719 14.8371 24.8064 14.8279C24.8408 14.8186 24.8708 14.7972 24.8908 14.7677C24.9109 14.7382 24.9197 14.7025 24.9157 14.6671C24.83 14.3198 24.7905 13.9628 24.7982 13.6053C24.8262 13.6029 24.8521 13.5899 24.8707 13.5688C24.8892 13.5477 24.8989 13.5203 24.8976 13.4923C24.8976 13.2573 24.8976 13.0404 24.875 12.8055C25.1371 11.346 25.9956 9.9363 26.7682 8.76152C27.3562 7.89668 28.0381 7.09959 28.8015 6.38483C30.0079 5.22811 31.2189 5.05641 32.5879 5.87877C33.6679 6.52942 34.9014 5.8381 35.9406 5.46759C39.1261 4.31991 37.5853 9.69231 38.6517 10.7632C38.8308 10.9453 39.0701 11.0562 39.3249 11.0749C39.7767 15.3087 36.4828 18.3044 32.9088 19.8361C32.8365 19.8678 32.9088 19.9807 32.963 19.9581C36.8533 18.8195 39.9213 15.2183 39.5915 11.0659C39.8967 11.009 40.1882 10.894 40.45 10.727C41.2317 10.2752 42.1128 9.5929 42.5104 10.9891C42.8267 12.1187 42.2935 13.5465 41.932 14.6038C41.1639 16.8404 39.9801 18.9641 37.9468 20.2428C36.1801 21.3543 34.0022 21.264 31.9734 21.5983C31.6533 21.4976 31.3419 21.3707 31.0427 21.2188L31.1601 21.1872C31.1965 21.1762 31.2294 21.156 31.2557 21.1286C31.282 21.1012 31.3008 21.0676 31.3103 21.0308C31.3199 20.994 31.3198 20.9555 31.3101 20.9187C31.3004 20.882 31.2814 20.8484 31.255 20.8212C30.8323 20.379 30.2858 20.075 29.6871 19.9491C30.3378 19.8271 30.9975 19.4973 31.1692 18.824C31.1773 18.7913 31.178 18.7572 31.1712 18.7242C31.1644 18.6912 31.1503 18.6601 31.1299 18.6332C31.1095 18.6064 31.0834 18.5844 31.0535 18.5689C31.0235 18.5535 30.9905 18.5449 30.9568 18.5439C29.8182 18.6252 28.8196 19.0996 27.7939 19.5063C27.7606 19.5031 27.7271 19.509 27.6968 19.5233C27.6666 19.5376 27.6408 19.5598 27.6222 19.5876L27.4189 19.6645C27.3994 19.6707 27.3815 19.6811 27.3664 19.695C27.3514 19.7089 27.3396 19.7259 27.3318 19.7449C27.324 19.7638 27.3205 19.7842 27.3215 19.8047C27.3225 19.8252 27.328 19.8451 27.3375 19.8632C27.2776 19.8441 27.2126 19.8495 27.1566 19.8783C27.1007 19.9071 27.0585 19.957 27.0393 20.0169C27.0202 20.0768 27.0256 20.1419 27.0544 20.1978C27.0832 20.2537 27.133 20.2959 27.193 20.3151C28.2006 20.9251 29.3844 21.4673 30.5727 21.3408C30.7822 21.5024 31.0061 21.6446 31.2415 21.7655C31.0336 21.8107 30.8303 21.8604 30.6315 21.9237C30.5185 21.9553 30.5366 22.1496 30.6586 22.136C31.0472 22.0908 31.4357 22.0547 31.8289 22.014C32.1371 22.1172 32.4509 22.2032 32.7687 22.2716C34.3424 22.6222 35.8467 23.2331 37.2193 24.0789C39.0267 25.1814 40.3235 26.79 40.5855 28.9317C40.6713 29.5145 40.6396 30.1085 40.4925 30.6789C40.3453 31.2492 40.0856 31.7844 39.7286 32.253C39.3716 32.7215 38.9246 33.114 38.4137 33.4072C37.9029 33.7005 37.3386 33.8887 36.7539 33.9607C35.9219 34.1081 35.1184 34.3856 34.3727 34.7831C33.9209 34.9864 32.8365 34.6204 32.3349 35.0542C31.1466 36.0798 31.2641 39.4867 29.2488 37.6387C29.218 37.607 29.1802 37.583 29.1384 37.5684C29.0966 37.5539 29.0521 37.5493 29.0082 37.555C28.9644 37.5607 28.9225 37.5766 28.8858 37.6013C28.8491 37.626 28.8187 37.6589 28.797 37.6974C27.9611 39.1207 26.2577 39.4596 25.3178 37.7833C24.9029 36.9076 24.6182 35.976 24.4729 35.018C24.1794 33.2884 24.0478 31.5352 24.0798 29.7812C24.0744 29.7534 24.0594 29.7284 24.0376 29.7104C24.0158 29.6924 23.9883 29.6825 23.96 29.6825C23.9317 29.6825 23.9043 29.6924 23.8825 29.7104C23.8606 29.7284 23.8457 29.7534 23.8403 29.7812C23.7906 32.4109 23.6008 35.619 24.8976 38.0318C25.3494 38.9039 26.4339 40.4627 27.6764 39.7488C27.9475 39.5952 29.154 38.3345 29.2669 38.4385C29.4425 38.6267 29.6563 38.7753 29.894 38.8743C30.1316 38.9733 30.3877 39.0203 30.645 39.0123C31.621 38.9219 31.8243 37.0242 32.0277 36.36C32.4027 35.1355 33.2522 35.6777 33.9887 35.3479C35.3903 34.7825 36.8449 34.3586 38.3308 34.0827C39.9078 33.7077 40.8115 31.575 40.9515 30.1472ZM16.8729 3.24452C15.7297 2.7249 13.2039 2.14203 12.1602 3.24452C11.2927 4.1708 10.0908 4.39672 8.9973 4.81693C9.29552 3.1406 11.0306 3.48852 12.0518 2.55773C12.0518 2.55773 12.7702 1.30161 12.7521 1.27902C13.4163 0.452153 14.9255 0.659996 15.8653 0.583183C19.5749 0.289486 22.2679 1.57723 24.1792 4.43287C23.7403 5.95339 23.5871 7.54209 23.7273 9.11846C22.173 6.52489 19.4303 4.39672 16.8729 3.24452ZM36.4647 4.91634C35.0098 4.78982 34.2688 6.27187 32.6467 5.31849C32.0819 4.98412 31.4403 4.55938 30.7399 4.7853C28.3271 5.57151 25.6251 8.68922 24.7892 11.6849C24.6046 10.937 24.3252 10.2157 23.9578 9.53868C23.9667 9.53006 23.9735 9.51938 23.9774 9.50758C23.9814 9.49577 23.9824 9.48318 23.9804 9.4709C23.8507 7.93392 24.0242 6.38646 24.4909 4.91634C24.631 5.1513 24.7711 5.39077 24.9021 5.6438C24.9121 5.66455 24.9295 5.68074 24.951 5.68905C24.9724 5.69737 24.9963 5.69718 25.0176 5.68853C25.0389 5.67989 25.0561 5.66344 25.0657 5.64253C25.0754 5.62162 25.0766 5.59784 25.0693 5.57603C24.9498 5.18632 24.7987 4.80702 24.6175 4.44191C24.6536 4.32443 24.6852 4.20695 24.7214 4.09399C24.9265 3.49506 25.1914 2.91831 25.5121 2.37247C25.5573 2.29566 27.2743 0.113264 27.5183 1.46879C27.6132 1.98389 28.0289 2.37247 28.2864 2.82431C28.544 3.27615 29.3121 2.85142 29.5199 2.57128C31.3273 0.185559 33.2431 0.379851 35.5837 1.6676C37.391 2.63906 40.6669 4.41932 38.5748 7.13941C38.4393 5.97366 37.9513 5.03834 36.4647 4.91634ZM27.568 19.9853C27.6538 19.9853 27.7397 19.9491 27.8255 19.9265C27.9166 19.9871 28.0175 20.0314 28.1238 20.0576C28.1051 20.091 28.0973 20.1293 28.1014 20.1673C28.1054 20.2053 28.1211 20.2412 28.1463 20.2699C27.946 20.1877 27.7526 20.0895 27.568 19.9762V19.9853ZM30.6676 19.0816C30.279 19.5334 29.4567 19.6554 28.7383 19.6509C29.3539 19.3732 30.0022 19.1743 30.6676 19.059V19.0816ZM29.2262 20.7895C28.9197 20.6044 28.5939 20.4529 28.2548 20.3377C29.1295 20.2126 30.019 20.4276 30.7399 20.9386L30.5637 20.9612C30.5423 20.9471 30.5171 20.9395 30.4914 20.9395C30.4657 20.9395 30.4406 20.9471 30.4191 20.9612C30.0134 20.9645 29.61 20.8988 29.2262 20.7669V20.7895Z" fill="white"/>
    <path d="M21.6167 11.5901C21.6484 11.6488 21.7523 11.5901 21.7297 11.5449C20.4691 8.38202 16.0501 3.62864 12.363 5.98273C12.3475 5.99172 12.3361 6.00653 12.3314 6.0239C12.3268 6.04128 12.3292 6.05979 12.3382 6.07537C12.3472 6.09094 12.362 6.10231 12.3793 6.10697C12.3967 6.11163 12.4152 6.1092 12.4308 6.10021C16.1404 3.80938 20.0489 8.71637 21.6167 11.5901Z" fill="white"/>
    <path d="M17.4373 34.5434C19.2447 33.0206 20.8487 30.8925 21.0295 28.4525C21.0295 28.2808 20.7764 28.2853 20.7629 28.4525C20.6092 30.531 19.3531 32.3248 17.9117 33.7481C17.1755 34.5248 16.2579 35.1064 15.2413 35.4408C14.2248 35.7752 13.141 35.8519 12.0875 35.6639C12.0682 35.6577 12.0473 35.659 12.0288 35.6675C12.0104 35.6759 11.9958 35.691 11.9879 35.7096C11.98 35.7283 11.9793 35.7492 11.986 35.7684C11.9928 35.7875 12.0064 35.8034 12.0243 35.813C13.7412 36.8387 16.0728 35.6865 17.4373 34.5434Z" fill="white"/>
    <path d="M10.7149 33.8341C13.5118 34.8914 17.1672 32.7496 18.9701 30.7028C19.0423 30.6215 18.9249 30.504 18.8526 30.5853C17.8342 31.7 16.5663 32.5576 15.1525 33.0877C13.7388 33.6179 12.2196 33.8055 10.7194 33.6352C10.62 33.6398 10.6155 33.8341 10.7149 33.8341Z" fill="white"/>
    <path d="M6.15541 29.5417C6.15334 29.5494 6.1528 29.5574 6.15383 29.5654C6.15486 29.5733 6.15745 29.5809 6.16143 29.5878C6.16542 29.5948 6.17073 29.6008 6.17706 29.6057C6.18339 29.6106 6.19062 29.6142 6.19834 29.6162C6.20605 29.6183 6.2141 29.6188 6.22202 29.6178C6.22994 29.6168 6.23758 29.6142 6.2445 29.6102C6.25143 29.6062 6.2575 29.6009 6.26237 29.5946C6.26724 29.5883 6.27081 29.581 6.27289 29.5733C6.9371 27.2102 10.1135 27.1153 11.8757 25.9586C11.939 25.9179 11.8983 25.8095 11.826 25.8366C9.8831 26.6047 6.70214 27.165 6.15541 29.5417Z" fill="white"/>
    <path d="M9.57022 25.8816C10.5281 25.3439 11.5854 25.24 12.6337 24.9779C12.6517 24.9779 12.6689 24.9708 12.6816 24.9581C12.6943 24.9453 12.7015 24.9281 12.7015 24.9101C12.7015 24.8921 12.6943 24.8749 12.6816 24.8622C12.6689 24.8495 12.6517 24.8423 12.6337 24.8423C11.5255 24.8238 10.4359 25.1284 9.49792 25.7189C9.48029 25.7308 9.46741 25.7485 9.46153 25.7689C9.45566 25.7893 9.45716 25.8112 9.4658 25.8306C9.47443 25.85 9.48963 25.8658 9.50873 25.8751C9.52783 25.8844 9.5496 25.8867 9.57022 25.8816Z" fill="white"/>
    <path d="M15.296 26.4061C16.046 25.9542 16.7599 25.4482 17.5281 25.0099C17.5466 24.994 17.5589 24.9721 17.5628 24.948C17.5668 24.924 17.5622 24.8993 17.5498 24.8783C17.5374 24.8573 17.5181 24.8413 17.4951 24.8331C17.4721 24.825 17.447 24.8252 17.4242 24.8336C16.6225 25.218 15.8812 25.7172 15.2237 26.3157C15.2145 26.326 15.2093 26.3393 15.209 26.3531C15.2087 26.367 15.2132 26.3805 15.2219 26.3913C15.2305 26.4021 15.2427 26.4095 15.2562 26.4122C15.2698 26.4149 15.2839 26.4127 15.296 26.4061Z" fill="white"/>
    <path d="M11.0037 11.2962C10.9494 11.2375 10.8681 11.3234 10.9178 11.3866C12.4637 13.2443 14.3855 14.7534 16.5568 15.8147C16.5724 15.8236 16.5909 15.8261 16.6082 15.8214C16.6256 15.8167 16.6404 15.8054 16.6494 15.7898C16.6584 15.7742 16.6608 15.7557 16.6562 15.7383C16.6515 15.721 16.6401 15.7062 16.6246 15.6972C14.6816 14.3191 12.5761 13.1262 11.0037 11.2962Z" fill="white"/>
    <path d="M16.8461 15.0333C15.9509 14.4875 15.1084 13.8597 14.3293 13.1581C14.3137 13.1425 14.2926 13.1338 14.2706 13.1338C14.2485 13.1338 14.2274 13.1425 14.2118 13.1581C14.1963 13.1737 14.1875 13.1948 14.1875 13.2169C14.1875 13.2389 14.1963 13.26 14.2118 13.2756C14.9332 14.0754 15.8114 14.7183 16.7918 15.1643C16.8732 15.1914 16.9138 15.0739 16.8461 15.0333Z" fill="white"/>
    <path d="M29.361 17.7619C30.224 15.3265 31.6564 13.6502 33.4276 11.8383C33.4863 11.775 33.4276 11.6666 33.3327 11.7163C31.2542 13.0131 29.9755 15.4756 29.2164 17.7258C29.1848 17.8161 29.3294 17.8523 29.361 17.7619Z" fill="white"/>
    <path d="M30.4869 13.1578C29.6103 13.5057 29.163 14.4546 28.8422 15.286C28.788 15.4261 29.0184 15.4848 29.0681 15.3447C29.3708 14.5336 29.8801 13.8155 30.5456 13.2617C30.5953 13.2211 30.5456 13.1307 30.4869 13.1578Z" fill="white"/>
    <path d="M27.685 31.6426C27.4379 31.113 27.2588 30.5543 27.1519 29.9798C27.1519 29.8804 26.9892 29.9256 27.0073 30.0205C27.188 31.1636 27.4591 32.5598 28.5842 33.1608C28.601 33.168 28.6197 33.1694 28.6373 33.1647C28.655 33.16 28.6705 33.1495 28.6815 33.1349C28.6924 33.1203 28.6981 33.1024 28.6977 33.0841C28.6973 33.0659 28.6907 33.0483 28.6791 33.0342C28.2972 32.6086 27.9639 32.1418 27.685 31.6426Z" fill="white"/>
    <path d="M31.8831 26.6723C33.808 27.7432 34.7433 29.4512 35.046 31.5658C35.05 31.5813 35.0591 31.5951 35.0717 31.605C35.0844 31.6148 35.1 31.6201 35.1161 31.6201C35.1321 31.6201 35.1477 31.6148 35.1604 31.605C35.1731 31.5951 35.1821 31.5813 35.1861 31.5658C35.5928 29.406 33.7493 27.3908 31.9735 26.4781C31.8651 26.4148 31.7566 26.6046 31.8831 26.6723Z" fill="white"/>
    <path d="M34.4448 28.1595C35.0105 29.0182 35.3722 29.995 35.5021 31.0151C35.5021 31.11 35.6602 31.0829 35.6648 30.9925C35.7687 28.7333 34.1104 27.2151 32.5561 25.846C32.4657 25.7692 32.3347 25.8957 32.4205 25.9816C33.1527 26.6519 33.8297 27.3803 34.4448 28.1595Z" fill="white"/>
    <path d="M21.4499 31.5479C21.4047 33.5812 20.7721 36.229 22.4846 37.7969C22.5019 37.811 22.5235 37.8189 22.5458 37.8192C22.5682 37.8196 22.59 37.8124 22.6078 37.7988C22.6255 37.7852 22.6382 37.766 22.6437 37.7444C22.6493 37.7227 22.6473 37.6998 22.6382 37.6794C22.0565 36.7413 21.7108 35.6762 21.6306 34.5752C21.5628 33.5721 21.6622 32.551 21.6668 31.5479C21.6668 31.5191 21.6553 31.4915 21.635 31.4712C21.6147 31.4509 21.5871 31.4395 21.5583 31.4395C21.5295 31.4395 21.502 31.4509 21.4816 31.4712C21.4613 31.4915 21.4499 31.5191 21.4499 31.5479Z" fill="white"/>
    <path d="M22.711 35.3165C22.8417 35.7839 23.0363 36.2309 23.2893 36.6449C23.3119 36.6856 23.3842 36.6449 23.3661 36.6133C23.1601 36.1814 22.9835 35.7361 22.8375 35.2804C22.83 35.2673 22.8182 35.257 22.8042 35.2513C22.7902 35.2456 22.7746 35.2448 22.7601 35.2489C22.7455 35.2531 22.7328 35.262 22.7239 35.2743C22.715 35.2865 22.7104 35.3014 22.711 35.3165Z" fill="white"/>
    <path d="M45.6683 29.4195C45.2932 28.7192 45.84 27.6709 45.483 26.8079C45.0252 25.8994 44.3442 25.1221 43.504 24.5487C41.6153 23.1163 39.0172 21.6072 36.5592 21.6072C36.5358 21.6121 36.515 21.6249 36.5 21.6434C36.485 21.6619 36.4768 21.685 36.4768 21.7088C36.4768 21.7327 36.485 21.7558 36.5 21.7743C36.515 21.7928 36.5358 21.8056 36.5592 21.8105C39.0398 21.8602 47.0509 25.5743 44.9634 28.8773C44.1139 30.2328 47.6157 31.5884 44.1636 32.6773C43.5961 32.7871 43.0585 33.0166 42.5867 33.3505C42.0718 33.8787 41.6379 34.4802 41.299 35.1353C39.9434 37.2635 37.377 36.1881 35.6374 35.3883C35.5018 35.3296 35.3482 35.4923 35.4702 35.6097C37.2776 37.3448 40.2959 37.5346 41.7508 35.4019C42.3472 34.5298 42.7539 33.6713 43.8157 33.2782C44.5116 33.0162 44.7827 33.0614 45.3565 32.605C46.1924 31.9679 46.1201 30.2193 45.6683 29.4195Z" fill="white"/>
    <path d="M41.9052 28.2314C41.9095 28.2491 41.9196 28.2649 41.9339 28.2762C41.9483 28.2875 41.966 28.2937 41.9843 28.2937C42.0025 28.2937 42.0202 28.2875 42.0346 28.2762C42.0489 28.2649 42.0591 28.2491 42.0633 28.2314C42.3932 25.4571 39.1399 24.3184 37.188 23.2611C37.0524 23.1843 36.9259 23.3967 37.066 23.4735C39.167 24.6437 41.6025 25.5158 41.9052 28.2314Z" fill="white"/>
    <path d="M33.1076 2.54435C32.7551 2.73864 32.5925 3.30795 32.4343 3.65587C32.2719 3.95141 32.1604 4.27218 32.1045 4.60474C32.1044 4.61523 32.1074 4.62551 32.1131 4.63433C32.1188 4.64315 32.1269 4.65013 32.1365 4.65444C32.146 4.65874 32.1566 4.66018 32.167 4.65857C32.1774 4.65697 32.187 4.6524 32.1949 4.6454C32.4151 4.40314 32.5896 4.12301 32.71 3.81854C32.9707 3.46068 33.1511 3.05069 33.2386 2.61664C33.2385 2.60141 33.2343 2.58649 33.2265 2.5734C33.2187 2.56031 33.2076 2.54953 33.1942 2.54217C33.1809 2.53481 33.1658 2.53114 33.1506 2.53152C33.1354 2.5319 33.1205 2.53633 33.1076 2.54435Z" fill="white"/>
    <path d="M20.7493 2.3863C20.6002 2.27786 20.4601 2.52185 20.6047 2.6303C20.982 2.91273 21.3274 3.23545 21.6349 3.59272C21.9557 3.96323 22.1726 4.41055 22.4843 4.78557C22.5476 4.86691 22.6741 4.78558 22.6515 4.69069C22.3985 3.7599 21.4993 2.93303 20.7493 2.3863Z" fill="white"/>
    <path d="M1.9082 15.9682C1.88042 15.9736 1.8554 15.9885 1.8374 16.0104C1.81941 16.0322 1.80957 16.0596 1.80957 16.0879C1.80957 16.1162 1.81941 16.1436 1.8374 16.1655C1.8554 16.1873 1.88042 16.2022 1.9082 16.2077C3.33047 16.2953 4.73311 16.5844 6.07418 17.0662C6.19166 17.1068 6.23684 16.9487 6.15099 16.8854C5.00331 16.0405 3.28632 15.9456 1.9082 15.9682Z" fill="white"/>
    <path d="M5.21931 19.6193C6.25138 19.7293 7.2759 19.9013 8.28731 20.1343C8.30529 20.1421 8.32562 20.1425 8.34384 20.1353C8.36206 20.1281 8.37667 20.1139 8.38446 20.0959C8.39225 20.078 8.39258 20.0576 8.38538 20.0394C8.37817 20.0212 8.36403 20.0066 8.34605 19.9988C7.44237 19.443 6.23144 19.5018 5.21931 19.4024C5.07924 19.3753 5.07924 19.6057 5.21931 19.6193Z" fill="white"/>
  </g>
</svg>