<svg xmlns="http://www.w3.org/2000/svg" width="78" height="165" viewBox="0 0 78 165" fill="none">
  <g opacity="0.8">
    <path d="M38.4505 76.1985C41.8705 82.6585 45.8105 89.0285 48.6905 95.7385C51.5826 102.758 53.8839 110.006 55.5705 117.408C57.4509 124.836 58.5733 132.435 58.9205 140.088C59.0505 143.758 58.9905 147.428 58.9805 151.088C58.9423 153.021 59.0191 154.955 59.2105 156.878C59.4305 158.668 59.9505 160.388 60.1305 162.188C60.2005 162.948 61.4005 162.958 61.3305 162.188C60.9605 158.428 60.1705 154.898 60.1805 151.088C60.1905 147.278 60.2505 143.438 60.1005 139.608C59.7311 132.008 58.5988 124.463 56.7205 117.088C55.0258 109.66 52.7179 102.385 49.8205 95.3385C46.9205 88.5585 42.9405 82.1185 39.4905 75.5985C39.1305 74.9085 38.0905 75.5185 38.4905 76.1985H38.4505Z" fill="white"/>
    <path d="M16.4005 38.8792C20.5705 44.0892 24.8105 49.3292 28.0005 55.2292C30.9405 60.6792 33.1605 66.4692 36.2405 71.8492C36.3352 71.9475 36.4606 72.0106 36.596 72.028C36.7313 72.0455 36.8686 72.0162 36.9851 71.9452C37.1017 71.8741 37.1905 71.7654 37.2369 71.637C37.2833 71.5087 37.2846 71.3683 37.2405 71.2392C34.0105 65.6092 31.7305 59.4992 28.5605 53.8392C25.3905 48.1792 21.2905 43.0892 17.2405 38.0292C16.7605 37.4292 15.9205 38.2792 16.4005 38.8792Z" fill="white"/>
    <path d="M21.5405 43.9587C21.0102 40.6697 21.7231 37.3009 23.5405 34.5087C25.0805 32.0287 26.8005 29.3787 29.4405 27.9487L28.5605 27.5987C29.4805 30.0887 28.2405 33.2587 27.4505 35.6687C26.1905 39.5387 23.8805 41.4387 20.2705 43.0787C19.5605 43.3987 20.1705 44.4287 20.8705 44.0787C24.5305 42.4187 26.9705 40.5787 28.3605 36.6987C29.3605 33.9287 30.7905 30.1587 29.7205 27.2487C29.6945 27.1613 29.6492 27.0808 29.588 27.0131C29.5268 26.9455 29.4512 26.8925 29.3667 26.8579C29.2823 26.8234 29.1912 26.8082 29.1001 26.8135C29.009 26.8189 28.9203 26.8446 28.8405 26.8887C26.0205 28.4087 24.1505 31.2187 22.5005 33.8887C20.5408 36.8474 19.7661 40.4351 20.3305 43.9387C20.4205 44.6987 21.6205 44.7087 21.5305 43.9387L21.5405 43.9587Z" fill="white"/>
    <path d="M27.3605 50.8591C28.2895 46.3407 30.1118 42.0535 32.7205 38.2491L31.6205 38.0891C32.3705 40.3191 31.8805 43.8991 31.2805 46.1491C30.9205 47.5291 29.0005 51.7391 27.0005 51.0891C26.2705 50.8391 26.0005 51.9991 26.6805 52.2491C28.6805 52.9091 30.6805 50.3891 31.5905 48.8691C33.1805 46.0791 33.8405 40.8691 32.8205 37.8691C32.7856 37.7577 32.7195 37.6586 32.6299 37.5836C32.5404 37.5087 32.4312 37.461 32.3154 37.4463C32.1996 37.4315 32.082 37.4504 31.9765 37.5005C31.8711 37.5506 31.7822 37.63 31.7205 37.7291C29.0456 41.5888 27.1689 45.944 26.2005 50.5391C26.0705 51.2991 27.2005 51.6191 27.3605 50.8591Z" fill="white"/>
    <path d="M26.4005 51.0886C22.8791 50.8806 19.3501 51.3421 16.0005 52.4486C13.5005 53.1986 11.0005 54.2186 9.22053 56.2486C9.14695 56.3225 9.09392 56.4144 9.06667 56.5151C9.03942 56.6158 9.03889 56.7218 9.06514 56.8228C9.09139 56.9237 9.14351 57.0161 9.21635 57.0908C9.2892 57.1655 9.38025 57.2199 9.48053 57.2486C13.5548 58.0396 17.7482 57.9851 21.8005 57.0886C24.7105 56.4886 27.1405 55.3986 27.1705 52.1886C27.1705 52.0295 27.1073 51.8768 26.9948 51.7643C26.8823 51.6518 26.7297 51.5886 26.5705 51.5886C26.4114 51.5886 26.2588 51.6518 26.1463 51.7643C26.0337 51.8768 25.9705 52.0295 25.9705 52.1886C25.9705 55.7686 21.1605 56.1286 18.4005 56.2986C15.6405 56.4686 12.6305 56.7586 9.83053 56.1086L10.1005 57.1086C13.5505 53.0586 21.4305 51.8586 26.4005 52.2886C27.1705 52.3586 27.1605 51.1586 26.4005 51.0886Z" fill="white"/>
    <path d="M20.4405 42.3383C17.6654 41.3522 14.7541 40.8023 11.8105 40.7083C9.58052 40.5883 7.08052 40.2683 5.14052 41.6083C5.00622 41.6913 4.90931 41.823 4.87015 41.976C4.83098 42.1289 4.85263 42.291 4.93052 42.4283C6.33052 44.5183 9.86052 44.7583 12.0905 45.3683C13.6452 45.93 15.304 46.1451 16.9505 45.9983C18.5005 45.7083 19.5705 44.6383 20.8405 43.8083C21.4905 43.3883 20.8405 42.3483 20.2405 42.8083C19.4494 43.4317 18.6139 43.9966 17.7405 44.4983C16.0505 45.2783 14.1105 44.7283 12.4005 44.2583C10.6905 43.7883 7.00052 43.3783 6.00052 41.8183L5.79052 42.6383C7.68052 41.3383 10.5505 41.8083 12.7205 41.9683C15.2612 42.111 17.7675 42.623 20.1605 43.4883C20.8905 43.7583 21.1605 42.6083 20.4805 42.3383H20.4405Z" fill="white"/>
    <path d="M17.1405 37.9185C14.8938 36.1364 12.7845 34.1875 10.8305 32.0885C8.66405 29.4229 7.46233 26.1032 7.42048 22.6685L6.82048 23.2685C10.3805 23.1085 12.7405 29.5385 13.6505 32.0185C14.4505 34.2085 14.5605 37.0185 16.2905 38.7685C16.3463 38.8244 16.4126 38.8686 16.4855 38.8988C16.5584 38.929 16.6365 38.9446 16.7155 38.9446C16.7944 38.9446 16.8726 38.929 16.9455 38.8988C17.0184 38.8686 17.0847 38.8244 17.1405 38.7685C17.1963 38.7127 17.2406 38.6465 17.2708 38.5735C17.301 38.5006 17.3165 38.4225 17.3165 38.3435C17.3165 38.2646 17.301 38.1865 17.2708 38.1135C17.2406 38.0406 17.1963 37.9744 17.1405 37.9185C15.8105 36.6185 15.7305 34.4085 15.1405 32.7285C14.5329 30.715 13.708 28.7736 12.6805 26.9385C11.4905 24.9385 9.39048 21.9385 6.78048 22.0685C6.62294 22.0735 6.47322 22.1384 6.36176 22.2498C6.25031 22.3613 6.18549 22.511 6.18048 22.6685C6.21837 25.8295 7.1586 28.9139 8.89048 31.5585C10.8905 34.4085 13.6805 36.4985 16.2505 38.7685C16.8305 39.2785 17.6805 38.4285 17.1005 37.9185H17.1405Z" fill="white"/>
    <path d="M57.5405 24.7588C57.6303 25.3373 57.6037 25.9279 57.4623 26.496C57.3209 27.0641 57.0676 27.5983 56.7172 28.0673C56.3667 28.5362 55.9263 28.9305 55.4215 29.2271C54.9168 29.5237 54.3579 29.7165 53.7777 29.7944C53.1974 29.8722 52.6075 29.8335 52.0425 29.6805C51.4774 29.5275 50.9485 29.2632 50.4869 28.9032C50.0252 28.5432 49.64 28.0947 49.3539 27.584C49.0678 27.0732 48.8864 26.5105 48.8205 25.9288C48.5005 23.5188 50.8805 20.0288 53.3005 20.2088C56.5505 20.4588 57.2205 22.3588 57.5405 24.7588Z" fill="white"/>
    <path d="M44.8105 106.158C44.9002 106.737 44.8737 107.327 44.7323 107.895C44.5909 108.464 44.3376 108.998 43.9871 109.467C43.6367 109.936 43.1962 110.33 42.6915 110.627C42.1867 110.923 41.6279 111.116 41.0476 111.194C40.4674 111.272 39.8775 111.233 39.3124 111.08C38.7473 110.927 38.2185 110.663 37.7568 110.303C37.2952 109.943 36.91 109.494 36.6239 108.983C36.3377 108.473 36.1564 107.91 36.0905 107.328C35.7705 104.918 38.1505 101.428 40.5705 101.608C43.8205 101.858 44.4905 103.748 44.8105 106.158Z" fill="white"/>
    <path d="M73.5605 45.0883C73.7157 46.2459 73.4046 47.4178 72.6957 48.3461C71.9868 49.2744 70.9382 49.8831 69.7805 50.0382C68.6229 50.1934 67.451 49.8823 66.5227 49.1734C65.5944 48.4645 64.9857 47.4159 64.8305 46.2582C64.5105 43.8582 66.8905 40.3883 69.3205 40.5683C72.5605 40.7683 73.2405 42.6583 73.5605 45.0883Z" stroke="white" stroke-miterlimit="10"/>
    <path d="M44.2705 92.3588C44.3473 92.932 44.3105 93.5147 44.1621 94.0737C44.0137 94.6327 43.7567 95.157 43.4057 95.6166C43.0547 96.0763 42.6166 96.4623 42.1164 96.7526C41.6162 97.043 41.0637 97.2319 40.4905 97.3088C39.9173 97.3856 39.3345 97.3488 38.7756 97.2004C38.2166 97.052 37.6923 96.7949 37.2326 96.4439C36.773 96.0929 36.387 95.6548 36.0966 95.1546C35.8063 94.6545 35.6173 94.102 35.5405 93.5288C35.2205 91.1288 37.6005 87.6588 40.0305 87.8388C43.2705 88.0888 44.0005 89.9688 44.2705 92.3588Z" stroke="white" stroke-miterlimit="10"/>
    <path d="M53.6305 49.6188C53.6991 50.4835 53.4338 51.3416 52.889 52.0165C52.3442 52.6914 51.5614 53.1318 50.7018 53.2471C49.8421 53.3625 48.9709 53.1439 48.2675 52.6363C47.5642 52.1288 47.0821 51.371 46.9205 50.5188C46.6805 48.6788 48.5105 46.0088 50.3705 46.1488C52.8705 46.3288 53.3905 47.7788 53.6305 49.6188Z" fill="white"/>
    <path d="M63.4906 54.9091C63.591 55.7891 63.3421 56.6733 62.7973 57.3715C62.2525 58.0698 61.4554 58.5264 60.5775 58.643C59.6995 58.7596 58.8109 58.527 58.1027 57.9951C57.3945 57.4633 56.9234 56.6748 56.7906 55.7991C56.5406 53.9591 58.3706 51.2891 60.2306 51.4291C62.7306 51.6091 63.2506 53.0891 63.4906 54.9091Z" fill="white"/>
    <path d="M60.1505 30.4688C60.9498 30.7004 61.6356 31.2187 62.0765 31.9245C62.5174 32.6303 62.6825 33.4739 62.54 34.2938C62.3976 35.1137 61.9577 35.8523 61.3046 36.368C60.6515 36.8838 59.8311 37.1404 59.0005 37.0888C57.1705 36.7688 55.1805 34.2189 55.8705 32.4889C56.7805 30.1989 58.3205 30.1488 60.1505 30.4688Z" fill="white"/>
    <path d="M32.5805 97.9088C33.4637 98.0652 34.2485 98.5661 34.7623 99.3013C35.2762 100.036 35.477 100.946 35.3205 101.829C35.164 102.712 34.6631 103.497 33.928 104.011C33.1928 104.524 32.2837 104.725 31.4005 104.569C29.5705 104.249 27.5805 101.699 28.2805 99.9587C29.2105 97.6387 30.7505 97.5888 32.5805 97.9088Z" fill="white"/>
    <path d="M70.3204 56.5992C71.2036 56.7557 71.9884 57.2566 72.5023 57.9917C73.0161 58.7268 73.2169 59.636 73.0604 60.5192C72.9039 61.4023 72.403 62.1872 71.6679 62.701C70.9328 63.2149 70.0236 63.4157 69.1404 63.2592C67.3104 62.9392 65.3304 60.3892 66.0204 58.6492C67.0004 56.3292 68.4904 56.2792 70.3204 56.5992Z" fill="white"/>
    <path d="M48.8505 68.7292C49.449 68.8661 49.9718 69.2282 50.3106 69.7402C50.6494 70.2523 50.7781 70.8751 50.6701 71.4795C50.5621 72.0839 50.2256 72.6235 49.7304 72.9865C49.2353 73.3495 48.6194 73.508 48.0105 73.4292C46.7205 73.1992 45.3205 71.4292 45.8105 70.1792C46.4705 68.5392 47.5505 68.4992 48.8505 68.7292Z" fill="white"/>
    <path d="M48.3606 77.7585C48.9555 77.8978 49.4745 78.2597 49.811 78.7698C50.1474 79.2799 50.2756 79.8995 50.1694 80.5012C50.0631 81.1029 49.7304 81.6411 49.2396 82.0052C48.7488 82.3692 48.1373 82.5314 47.5306 82.4585C46.2406 82.2285 44.8306 80.4585 45.3206 79.2085C46.0006 77.5685 47.0706 77.5285 48.3606 77.7585Z" fill="white"/>
    <path d="M57.4204 73.8483C58.0154 73.9876 58.5344 74.3495 58.8708 74.8596C59.2072 75.3697 59.3355 75.9893 59.2292 76.591C59.123 77.1928 58.7902 77.731 58.2995 78.095C57.8087 78.459 57.1971 78.6213 56.5904 78.5483C55.3004 78.3183 53.9004 76.5483 54.3904 75.2983C55.0504 73.6583 56.1304 73.6183 57.4204 73.8483Z" stroke="white" stroke-miterlimit="10"/>
    <path d="M58.9304 39.6989C59.555 39.8103 60.1098 40.1653 60.4727 40.6857C60.8355 41.2061 60.9768 41.8493 60.8654 42.4739C60.754 43.0985 60.3991 43.6533 59.8787 44.0161C59.3583 44.379 58.715 44.5203 58.0904 44.4089C56.8004 44.1789 55.4004 42.4089 55.8904 41.1489C56.5504 39.5089 57.6304 39.4689 58.9304 39.6989Z" fill="white"/>
    <path d="M63.4905 62.7683C64.115 62.8783 64.6703 63.232 65.0341 63.7515C65.398 64.271 65.5405 64.9137 65.4305 65.5383C65.3204 66.1628 64.9667 66.7181 64.4472 67.0819C63.9278 67.4458 63.285 67.5883 62.6605 67.4783C61.3705 67.2483 59.9605 65.4783 60.4505 64.2183C61.1105 62.5783 62.2005 62.5383 63.4905 62.7683Z" stroke="white" stroke-miterlimit="10"/>
    <path d="M52.6106 28.959C52.6806 33.599 53.8906 38.099 54.3106 42.709C54.5106 44.979 54.6506 47.269 54.6906 49.549C54.7306 51.829 54.2506 53.899 54.4506 56.029C54.5106 56.669 55.5106 56.669 55.4506 56.029C55.2506 53.899 55.7206 51.699 55.6906 49.549C55.6606 47.399 55.5106 44.979 55.3106 42.709C54.8906 38.099 53.6806 33.599 53.6106 28.959C53.6106 28.8264 53.5579 28.6992 53.4641 28.6054C53.3704 28.5117 53.2432 28.459 53.1106 28.459C52.978 28.459 52.8508 28.5117 52.757 28.6054C52.6633 28.6992 52.6106 28.8264 52.6106 28.959Z" fill="white"/>
    <path d="M56.6406 42.5787C55.8059 44.3129 55.1654 46.1339 54.7306 48.0087C54.6006 48.6387 55.5606 48.9087 55.7306 48.2787C56.1413 46.4829 56.7518 44.7387 57.5506 43.0787C57.8006 42.4987 56.9406 41.9887 56.6806 42.5787H56.6406Z" fill="white"/>
    <path d="M58.7105 35.7092C58.3705 37.4992 57.5805 39.2292 57.8705 41.0792C57.9705 41.7092 58.9305 41.4392 58.8705 40.8092C58.6205 39.1892 59.4105 37.5492 59.7105 35.9792C59.8305 35.3492 58.8705 35.0792 58.7105 35.7092Z" fill="white"/>
    <path d="M67.4205 49.6885C63.8905 60.5885 53.7905 67.4585 50.4205 78.3985C50.2305 79.0185 51.1905 79.2785 51.4205 78.6585C52.6882 74.6888 54.7272 71.0085 57.4205 67.8285C61.8605 62.5785 66.2805 56.5385 68.4205 49.9485C68.6205 49.3385 67.6505 49.0785 67.4205 49.6885Z" fill="white"/>
    <path d="M60.7305 56.799C60.7305 59.089 60.6705 61.219 59.4405 63.239C59.1105 63.789 59.9705 64.239 60.3105 63.749C61.6205 61.579 61.7205 59.269 61.7305 56.749C61.7305 56.6164 61.6778 56.4892 61.5841 56.3955C61.4903 56.3017 61.3631 56.249 61.2305 56.249C61.0979 56.249 60.9707 56.3017 60.877 56.3955C60.7832 56.4892 60.7305 56.6164 60.7305 56.749V56.799Z" fill="white"/>
    <path d="M57.3105 67.6991C58.2565 66.9852 59.3285 66.4559 60.4705 66.1391C61.1005 65.9991 60.8305 65.0391 60.2005 65.1391C58.9746 65.4753 57.8241 66.0421 56.8105 66.8091C56.2705 67.1591 56.8105 68.0291 57.3105 67.6691V67.6991Z" fill="white"/>
    <path d="M65.1004 63.4283C66.7304 62.4283 68.3804 61.4883 70.0404 60.5683C70.6104 60.2583 70.1004 59.3883 69.5404 59.7083C67.8804 60.6283 66.2204 61.5683 64.6004 62.5583C64.0504 62.8983 64.6004 63.7583 65.1004 63.4283Z" fill="white"/>
    <path d="M49.0005 73.4585C50.8005 80.7985 53.6405 90.0185 49.8305 97.1585C49.5405 97.6985 50.3605 98.1585 50.6505 97.6385C54.5905 90.2485 51.7705 80.7885 49.9105 73.1985C49.7705 72.6085 48.8505 72.8585 49.0005 73.4585Z" fill="white"/>
    <path d="M54.4105 77.5787C53.4105 79.4087 52.4105 81.2487 51.4105 83.1387C51.1305 83.7187 52.0005 84.2187 52.2705 83.6387C53.1805 81.7487 54.1805 79.9087 55.2705 78.0887C55.5905 77.5287 54.7205 77.0187 54.4105 77.5787Z" fill="white"/>
    <path d="M49.0704 81.4489C50.4339 84.2751 51.2773 87.3238 51.5604 90.4489C51.6504 91.0789 52.5604 90.8089 52.5604 90.1789C52.2616 86.9807 51.384 83.8633 49.9704 80.9789C49.6704 80.4089 48.8104 80.9189 49.1104 81.4789L49.0704 81.4489Z" fill="white"/>
    <path d="M43.5805 51.4888C43.3605 44.8388 44.9005 38.1788 49.9705 33.4388L49.1405 33.2188C49.8626 36.7382 49.3097 40.3997 47.5805 43.5488C46.9105 44.7788 46.2505 46.0488 45.4805 47.2188C44.7105 48.3888 43.5905 48.9188 43.0005 50.0888C42.9356 50.2028 42.918 50.3376 42.9516 50.4643C42.9851 50.5911 43.0671 50.6996 43.1799 50.7665C43.2927 50.8333 43.4272 50.8532 43.5545 50.8219C43.6818 50.7905 43.7917 50.7104 43.8605 50.5988C44.2605 49.8888 45.3705 49.1688 45.8605 48.4888C46.1902 48.0468 46.4941 47.586 46.7705 47.1088C47.7629 45.5489 48.6386 43.9178 49.3905 42.2288C50.5243 39.2882 50.778 36.0812 50.1205 32.9988C50.0951 32.9156 50.0488 32.8402 49.9861 32.7799C49.9233 32.7196 49.8462 32.6764 49.762 32.6543C49.6778 32.6323 49.5893 32.6321 49.505 32.6539C49.4208 32.6757 49.3435 32.7187 49.2805 32.7788C44.0005 37.6688 42.3505 44.5588 42.5805 51.4888C42.5805 52.1288 43.5805 52.1288 43.5805 51.4888Z" fill="white"/>
    <path d="M42.5305 50.7585C43.0155 56.1209 43.0155 61.5161 42.5305 66.8785C42.2655 69.6688 41.7976 72.4361 41.1305 75.1585C40.7705 76.8085 40.2505 78.6185 40.8605 80.2685C41.0805 80.8685 42.0405 80.6085 41.8605 79.9985C41.0605 77.8185 42.2505 74.9985 42.7205 72.8285C43.1996 70.5723 43.5005 68.2819 43.6205 65.9785C44.0405 60.9138 44.0405 55.8231 43.6205 50.7585C43.5505 50.1285 42.5505 50.1185 42.6205 50.7585H42.5305Z" fill="white"/>
    <path d="M43.8305 60.9789C41.4705 57.6689 39.0605 53.4489 39.4505 49.2289L38.6005 49.5889C41.4617 52.9209 42.9803 57.1986 42.8605 61.5889C42.8605 62.2289 43.8605 62.2289 43.8605 61.5889C43.9893 56.9301 42.3616 52.3932 39.3005 48.8789C38.9905 48.5189 38.4905 48.8789 38.4505 49.2289C38.0505 53.6089 40.5205 58.0589 42.9605 61.4789C43.3405 61.9989 44.2005 61.4789 43.8305 60.9789Z" fill="white"/>
    <path d="M43.8505 63.879C44.2905 61.879 47.5005 60.199 49.0605 59.249C51.0605 58.029 53.5305 56.529 55.9305 56.699L55.4505 56.069C55.0905 58.139 52.2005 60.349 50.5105 61.299C48.3496 62.5368 45.8899 63.1561 43.4005 63.089C42.7605 63.009 42.7705 64.009 43.4005 64.089C45.9105 64.409 49.5605 63.199 51.6305 61.799C53.4005 60.609 56.0305 58.599 56.4105 56.349C56.4284 56.2753 56.4296 56.1985 56.414 56.1242C56.3985 56.0499 56.3665 55.9801 56.3205 55.9197C56.2746 55.8594 56.2157 55.81 56.1482 55.7753C56.0807 55.7406 56.0064 55.7214 55.9305 55.719C53.1205 55.519 50.1105 57.369 47.8505 58.849C46.1805 59.939 43.3505 61.539 42.8505 63.629C42.7105 64.259 43.6705 64.519 43.8505 63.899V63.879Z" fill="white"/>
    <path d="M25.6905 30.3587C23.3505 26.3587 23.1205 21.7387 22.6905 17.2487C22.4505 14.7787 22.2105 12.3187 22.0805 9.83874C21.9605 7.67874 21.3705 4.90874 22.0105 2.83874C22.2005 2.21874 21.2405 1.95874 21.0105 2.56874C20.3605 4.66874 20.9005 7.21874 21.0105 9.37874C21.1605 12.2687 21.4505 15.1387 21.7205 18.0087C22.1405 22.4387 22.4905 26.9587 24.7905 30.8787C24.8633 30.9788 24.9707 31.0484 25.0918 31.0739C25.2129 31.0994 25.3392 31.0791 25.4462 31.0169C25.5532 30.9547 25.6334 30.855 25.6711 30.7371C25.7088 30.6192 25.7015 30.4915 25.6505 30.3787L25.6905 30.3587Z" fill="white"/>
    <path d="M21.2305 2.72909C23.4105 6.29909 24.2305 11.3491 21.8405 15.0091C21.4905 15.5591 22.3605 16.0091 22.7105 15.5191C25.2405 11.5191 24.4505 6.07909 22.1005 2.22909C21.7605 1.67909 20.9005 2.22909 21.2305 2.72909Z" fill="white"/>
    <path d="M23.2805 22.3688C25.4673 18.7587 28.4929 15.7297 32.1005 13.5388L31.3505 13.0888C31.6805 15.8588 29.5605 18.2488 27.6605 19.9988C27.2505 20.3888 23.8805 23.4488 23.1905 23.0588C22.5005 22.6688 22.1205 23.6088 22.6805 23.9188C24.0905 24.7088 26.7505 22.1088 27.7505 21.2588C30.0705 19.2588 32.7505 16.3688 32.3505 13.0888C32.3472 13.0025 32.3219 12.9184 32.2772 12.8445C32.2324 12.7705 32.1696 12.7092 32.0946 12.6662C32.0196 12.6232 31.9349 12.6 31.8485 12.5987C31.7621 12.5974 31.6768 12.6181 31.6005 12.6588C27.8474 14.9368 24.6985 18.0857 22.4205 21.8388C22.0705 22.3888 22.9405 22.8388 23.2805 22.3488V22.3688Z" fill="white"/>
    <path d="M23.1005 21.6786C20.6305 19.9886 17.5605 18.2386 14.4605 18.6086C14.3741 18.6119 14.29 18.6372 14.2161 18.682C14.1422 18.7267 14.0808 18.7896 14.0378 18.8645C13.9948 18.9395 13.9716 19.0242 13.9703 19.1106C13.969 19.197 13.9897 19.2824 14.0305 19.3586C14.7205 20.7186 16.4805 21.5586 17.7105 22.3586C19.2134 23.4605 20.9786 24.15 22.8305 24.3586C23.4705 24.3586 23.4705 23.3586 22.8305 23.3586C21.1587 23.1614 19.5686 22.5267 18.2205 21.5186C17.1605 20.8486 15.4805 20.0386 14.8905 18.8986L14.4605 19.6486C17.4005 19.2886 20.2605 20.9786 22.6005 22.5886C23.1305 22.9486 23.6005 22.0786 23.1005 21.7186V21.6786Z" fill="white"/>
    <path d="M41.2805 87.6286C39.8405 81.2986 35.5005 76.3386 31.6005 71.3486C29.3705 68.4886 27.1205 65.6486 24.7505 62.8986C22.9605 60.8386 21.2305 57.8986 18.7505 56.6386C17.9805 56.2486 17.3005 57.4086 18.0705 57.7986C20.3705 58.9686 22.0705 61.9186 23.7905 63.8486C25.9905 66.3986 28.1005 69.0286 30.1705 71.6886C34.0605 76.6886 38.5305 81.6886 39.9805 87.9886C40.1705 88.8286 41.4605 88.4686 41.2705 87.6286H41.2805Z" fill="white"/>
    <path d="M17.4305 57.1383C18.1805 65.3883 23.1805 71.6983 31.4305 73.3883C32.2705 73.5683 32.6305 72.2683 31.7805 72.0983C24.1805 70.5383 19.4805 64.8283 18.7805 57.0983C18.7005 56.2483 17.3605 56.2383 17.4405 57.0983L17.4305 57.1383Z" fill="white"/>
    <path d="M35.2905 76.6788C29.5974 75.1279 23.6131 74.9804 17.8505 76.2489C17.7504 76.2772 17.6582 76.3282 17.5809 76.3978C17.5036 76.4675 17.4433 76.5539 17.4047 76.6505C17.366 76.7471 17.3501 76.8513 17.358 76.955C17.366 77.0587 17.3976 77.1593 17.4505 77.2489C19.9605 80.7089 24.8505 81.1989 28.8105 81.0889C30.5605 81.0889 36.4405 81.0889 36.9705 78.9489C37.1805 78.1089 35.8805 77.7489 35.6805 78.5889C35.4305 79.5889 29.4305 79.7389 28.5105 79.7489C25.1805 79.8089 20.7405 79.5089 18.6105 76.5689C18.4805 76.8989 18.3405 77.2289 18.2105 77.5689C23.7367 76.3588 29.4738 76.5064 34.9305 77.9989C35.0995 78.0401 35.2778 78.0141 35.4279 77.9262C35.578 77.8384 35.6881 77.6956 35.7349 77.5281C35.7816 77.3606 35.7614 77.1814 35.6785 77.0285C35.5955 76.8757 35.4564 76.761 35.2905 76.7089V76.6788Z" fill="white"/>
    <path d="M35.7605 77.4986C36.5305 73.8686 37.7105 69.4986 40.8305 67.2186L39.8305 66.8186C40.2905 68.5386 39.3705 71.0986 38.9105 72.8186C38.516 74.9073 37.5856 76.8576 36.2105 78.4786C35.6105 79.0986 36.5605 80.0486 37.2105 79.4286C38.7249 77.6337 39.7574 75.4828 40.2105 73.1786C40.7405 71.1786 41.6905 68.5586 41.1205 66.4486C41.0921 66.3485 41.0412 66.2563 40.9715 66.179C40.9019 66.1017 40.8154 66.0414 40.7188 66.0027C40.6223 65.9641 40.5181 65.9481 40.4143 65.9561C40.3106 65.964 40.2101 65.9957 40.1205 66.0486C36.6805 68.6086 35.2905 73.1086 34.4305 77.1386C34.2505 77.9786 35.5505 78.3386 35.7305 77.4886L35.7605 77.4986Z" fill="white"/>
    <path d="M52.5505 51.2885C53.8805 52.4385 54.0005 54.3785 54.4005 55.9985C54.435 56.1311 54.5207 56.2446 54.6389 56.314C54.757 56.3834 54.8979 56.403 55.0305 56.3685C55.1631 56.334 55.2766 56.2483 55.346 56.1301C55.4154 56.012 55.435 55.8711 55.4005 55.7385C54.9505 53.9085 54.7905 51.8785 53.2905 50.5785C52.8005 50.1585 52.0905 50.8685 52.5805 51.2885H52.5505Z" fill="white"/>
    <path d="M54.1005 59.2684C54.132 62.1697 53.6792 65.0561 52.7605 67.8084C52.3805 69.0484 51.9205 70.2884 51.6605 71.5584C51.4005 72.8284 51.7605 74.0984 51.5505 75.3284C51.4305 75.9584 52.4005 76.2284 52.5505 75.5984C52.7705 74.3384 52.4905 73.1084 52.6705 71.8184C52.99 70.2845 53.4348 68.7794 54.0005 67.3184C54.8218 64.7334 55.2071 62.0298 55.1405 59.3184C55.1405 59.1858 55.0879 59.0586 54.9941 58.9648C54.9003 58.871 54.7731 58.8184 54.6405 58.8184C54.5079 58.8184 54.3807 58.871 54.287 58.9648C54.1932 59.0586 54.1405 59.1858 54.1405 59.3184L54.1005 59.2684Z" fill="white"/>
    <path d="M42.7205 96.6883C46.8805 99.0983 51.7205 102.278 52.9705 107.278C53.1205 107.908 54.0905 107.638 53.9705 107.018C52.6905 101.758 47.6505 98.3683 43.2605 95.8283C43.1466 95.7634 43.0117 95.7458 42.885 95.7793C42.7582 95.8129 42.6497 95.8949 42.5829 96.0076C42.516 96.1204 42.4961 96.2549 42.5274 96.3823C42.5588 96.5096 42.6389 96.6195 42.7505 96.6883H42.7205Z" fill="white"/>
    <path d="M44.4005 105.488C45.8782 105.284 47.3686 105.184 48.8605 105.188C51.5105 105.338 52.2705 106.788 53.3805 108.928C53.6705 109.498 54.5405 108.998 54.2405 108.428C53.2405 106.568 52.6805 104.968 50.4405 104.428C48.4405 103.928 46.3805 104.348 44.4405 104.518C43.8005 104.578 43.7905 105.578 44.4405 105.518L44.4005 105.488Z" fill="white"/>
    <path d="M35.1105 103.329C36.9105 103.969 38.6905 104.689 40.4805 105.329C41.0805 105.559 41.3405 104.589 40.7405 104.329C38.9505 103.659 37.1805 102.939 35.3705 102.329C34.7605 102.109 34.5005 103.079 35.1105 103.329Z" fill="white"/>
    <path d="M70.5505 58.1389C75.0042 63.11 77.4587 69.5545 77.4405 76.2289V132.459C77.4405 139.67 74.5759 146.586 69.4768 151.685C64.3776 156.784 57.4618 159.649 50.2505 159.649H28.4305C24.859 159.65 21.3223 158.948 18.0223 157.582C14.7223 156.216 11.7237 154.214 9.19783 151.689C6.67195 149.164 4.66825 146.166 3.3012 142.866C1.93415 139.567 1.23053 136.03 1.23053 132.459V76.2289C1.22263 72.4361 2.01068 68.6838 3.54374 65.2146C5.07679 61.7454 7.32074 58.6365 10.1305 56.0889" stroke="white" stroke-width="1.1" stroke-miterlimit="10"/>
  </g>
</svg>