<svg xmlns="http://www.w3.org/2000/svg" width="36" height="36" viewBox="0 0 36 36" fill="none">
  <path d="M25.8752 32.6249C25.499 32.6239 25.131 32.5157 24.8141 32.313C24.4973 32.1102 24.2449 31.8214 24.0864 31.4802L24.5972 31.2445C24.7104 31.4883 24.8907 31.6947 25.1171 31.8395C25.3434 31.9844 25.6064 32.0617 25.8752 32.0624C26.2294 32.0614 26.5702 31.9271 26.83 31.6862C27.0897 31.4453 27.2492 31.1156 27.2769 30.7625L27.8383 30.8041C27.7993 31.2986 27.5758 31.7603 27.2121 32.0977C26.8484 32.435 26.3712 32.6232 25.8752 32.6249Z" fill="white"/>
  <path d="M28.6864 31.5003C28.2823 31.5003 27.8857 31.3915 27.5382 31.1853C27.1907 30.9792 26.9051 30.6832 26.7114 30.3286L27.2047 30.0591C27.3502 30.325 27.5645 30.5469 27.8251 30.7015C28.0858 30.8561 28.3833 30.9377 28.6864 30.9378C28.952 30.9373 29.2137 30.8742 29.4504 30.7537C29.687 30.6331 29.892 30.4585 30.0485 30.2439C30.205 30.0294 30.3088 29.7809 30.3514 29.5188C30.3939 29.2566 30.3741 28.9881 30.2934 28.735L30.1494 28.2828L30.6152 28.3733C30.7192 28.3941 30.8267 28.4065 30.9364 28.4065C31.8667 28.4065 32.6239 27.6494 32.6239 26.719C32.6239 26.336 32.4984 25.9754 32.2622 25.6756L32.7037 25.3274C33.0193 25.7273 33.1864 26.2083 33.1864 26.719C33.1864 27.9599 32.1772 28.969 30.9364 28.969H30.9189C30.9585 29.2857 30.9302 29.6071 30.8362 29.9121C30.7421 30.217 30.5842 30.4985 30.3731 30.7378C30.162 30.9772 29.9025 31.1689 29.6117 31.3003C29.3209 31.4318 29.0055 31.4999 28.6864 31.5003Z" fill="white"/>
  <path d="M31.7831 25.875V25.3125C32.4035 25.3125 32.9081 24.808 32.9081 24.1875C32.9074 23.9739 32.8462 23.7648 32.7317 23.5845C32.6171 23.4043 32.4538 23.2601 32.2606 23.1688L31.9389 23.0181L32.1599 22.7396C32.2796 22.5923 32.3453 22.4085 32.3461 22.2188C32.3461 21.9004 32.1701 21.6124 31.8866 21.4673L32.1425 20.9666C32.4683 21.1324 32.7164 21.419 32.8338 21.7652C32.9512 22.1114 32.9286 22.4898 32.7708 22.8195C32.9868 22.9765 33.1626 23.1822 33.2842 23.4199C33.4058 23.6576 33.4696 23.9205 33.4706 24.1875C33.4706 25.1179 32.7134 25.875 31.7831 25.875ZM23.3456 32.0625C22.9833 32.0641 22.6303 31.9484 22.3392 31.7327C22.0482 31.5171 21.8347 31.2131 21.7306 30.8661L22.2689 30.7024C22.3382 30.9338 22.4805 31.1365 22.6746 31.2803C22.8686 31.4241 23.104 31.5012 23.3456 31.5C23.8068 31.5 24.2169 31.2233 24.389 30.7958L24.911 31.0061C24.7859 31.3187 24.5697 31.5865 24.2906 31.7749C24.0115 31.9632 23.6823 32.0634 23.3456 32.0625ZM13.2014 11.461C13.0202 11.118 12.9306 10.734 12.9413 10.3462C12.952 9.95843 13.0627 9.57999 13.2627 9.24756C13.4627 8.91514 13.7451 8.64 14.0826 8.44881C14.4202 8.25761 14.8014 8.15684 15.1893 8.15626C15.4183 8.15626 15.6455 8.19283 15.8677 8.26651C16.0218 7.746 16.3405 7.28945 16.776 6.96534C17.2114 6.64122 17.7402 6.46699 18.2831 6.46876C19.0267 6.46876 19.7298 6.79389 20.2119 7.36089L19.7833 7.72483C19.5985 7.50734 19.3686 7.33266 19.1095 7.21289C18.8505 7.09313 18.5685 7.03115 18.2831 7.03126C17.8141 7.02994 17.3603 7.19745 17.0047 7.50318C16.6491 7.8089 16.4154 8.23241 16.3464 8.69626L16.2873 9.07764L15.9425 8.90439C15.7094 8.78441 15.4515 8.72083 15.1893 8.71876C14.8984 8.71932 14.6126 8.79497 14.3595 8.93838C14.1064 9.08178 13.8947 9.2881 13.7447 9.53735C13.5947 9.78661 13.5116 10.0704 13.5035 10.3611C13.4953 10.6519 13.5624 10.9399 13.6981 11.1971L13.2014 11.461Z" fill="white"/>
  <path d="M19.9687 8.71875H19.4062C19.4062 7.16794 20.6679 5.90625 22.2187 5.90625C23.1351 5.90625 23.9962 6.35456 24.5233 7.10606L24.0632 7.42894C23.8554 7.13274 23.5794 6.89087 23.2585 6.72376C22.9375 6.55664 22.5811 6.46918 22.2193 6.46875C21.6227 6.4692 21.0506 6.70637 20.6286 7.12822C20.2067 7.55006 19.9693 8.1221 19.9687 8.71875Z" fill="white"/>
  <path d="M27.3847 10.1059L27.0067 9.68906C27.1816 9.53076 27.3213 9.33763 27.417 9.12208C27.5127 8.90653 27.5623 8.67334 27.5625 8.4375C27.5625 7.50713 26.8054 6.75 25.875 6.75C25.5439 6.7509 25.2203 6.84876 24.9442 7.0315C24.6681 7.21423 24.4516 7.47384 24.3214 7.77825L23.8027 7.55887C23.9766 7.15296 24.2654 6.80681 24.6337 6.56312C25.0019 6.31943 25.4334 6.18885 25.875 6.1875C27.1159 6.1875 28.125 7.19662 28.125 8.4375C28.1248 8.75185 28.0589 9.06268 27.9314 9.35001C27.8039 9.63735 27.6177 9.89482 27.3847 10.1059Z" fill="white"/>
  <path d="M33.0283 17.2536L32.7538 16.7631C32.8845 16.6904 32.9934 16.5844 33.0696 16.4558C33.1458 16.3272 33.1865 16.1807 33.1875 16.0312C33.1875 15.6932 32.9867 15.3883 32.6745 15.255L32.4315 15.1509L32.5204 14.9018C32.5907 14.7049 32.625 14.5221 32.625 14.3438C32.625 13.4134 31.8679 12.6562 30.9375 12.6562C30.9178 12.6562 30.8987 12.6596 30.879 12.6624L30.3615 12.7057L30.5151 12.2929C30.6084 12.0431 30.6557 11.7872 30.6557 11.5312C30.6553 11.1933 30.5789 10.8598 30.4321 10.5554C30.2853 10.251 30.0718 9.98353 29.8076 9.77283C29.5434 9.56214 29.2351 9.41361 28.9057 9.33825C28.5762 9.26289 28.2341 9.26263 27.9045 9.3375L27.7802 8.7885C28.1921 8.69529 28.6196 8.6959 29.0312 8.7903C29.4428 8.8847 29.8279 9.07046 30.158 9.33384C30.4881 9.59722 30.7547 9.93147 30.9381 10.3118C31.1216 10.6922 31.2171 11.109 31.2176 11.5312C31.2176 11.7231 31.1968 11.9149 31.1552 12.1044C31.7114 12.1591 32.2273 12.4186 32.6029 12.8324C32.9785 13.2463 33.1868 13.7849 33.1875 14.3438C33.1875 14.5136 33.1656 14.6841 33.1211 14.8596C33.3146 14.9877 33.4733 15.1618 33.583 15.3663C33.6928 15.5707 33.7501 15.7992 33.75 16.0312C33.75 16.5358 33.4738 17.0038 33.0283 17.2536ZM24.3669 10.1076C24.1334 9.89649 23.9468 9.63882 23.819 9.35116C23.6912 9.06351 23.6251 8.75226 23.625 8.4375C23.625 7.19662 24.6341 6.1875 25.875 6.1875C27.1159 6.1875 28.125 7.19662 28.125 8.4375H27.5625C27.5625 7.50713 26.8054 6.75 25.875 6.75C24.9446 6.75 24.1875 7.50713 24.1875 8.4375C24.1875 8.91394 24.39 9.37069 24.7438 9.69019L24.3669 10.1076ZM13.4111 11.7872C13.1028 11.3931 12.936 10.9067 12.9375 10.4062C12.9375 9.16537 13.9466 8.15625 15.1875 8.15625V8.71875C14.8719 8.71949 14.5628 8.80861 14.2953 8.97601C14.0277 9.14341 13.8124 9.38239 13.6737 9.66588C13.535 9.94938 13.4784 10.2661 13.5105 10.58C13.5425 10.894 13.6618 11.1927 13.8549 11.4424L13.4111 11.7872Z" fill="white"/>
  <path d="M8.00486 18.8109C7.98181 18.762 7.94508 18.7208 7.89911 18.6922L3.08917 15.7054L2.79273 16.1835L7.53348 19.1271C7.61842 19.2997 7.84398 19.7391 8.18036 20.2931L8.7783 20.1851C8.29455 19.4134 8.01161 18.8244 8.00486 18.8109ZM12.0025 12.6167L2.97611 6.07593L2.64648 6.53155L11.7894 13.1567C11.8252 13.1831 11.8668 13.2005 11.9108 13.2073C11.9548 13.2142 11.9998 13.2103 12.0419 13.1961L13.9904 12.5531L14.5765 11.7679L12.0025 12.6167ZM24.4698 13.7811C24.728 13.7811 24.9665 13.8553 25.1746 13.9768C25.9902 13.4908 26.5015 12.5649 26.4121 11.5732L26.3845 11.2729C26.3775 11.2003 26.3428 11.1333 26.2876 11.0857C26.2324 11.0381 26.1609 11.0137 26.0881 11.0175L18.9438 11.4332C18.898 11.6292 18.8257 11.8181 18.7289 11.9946L18.9269 11.9968L25.8496 11.5946L25.8524 11.6233C25.9441 12.6375 25.2303 13.5673 24.2088 13.7445L23.554 13.902C23.5889 13.9487 23.6317 13.9886 23.6615 14.0392C23.8976 13.8715 24.1801 13.7812 24.4698 13.7811ZM29.7342 24.1777C29.9158 23.8678 29.9745 23.501 29.8988 23.1498C29.823 22.7987 29.6184 22.4886 29.3253 22.281L28.9389 22.0099L28.2684 22.2259L28.7161 22.5403C29.2128 22.4357 29.6268 22.4391 29.8068 22.9425C29.9092 23.2289 29.8937 23.5442 29.7638 23.8191C29.6338 24.0941 29.4001 24.3062 29.1138 24.4089L27.6766 24.8747L28.6902 25.5643C28.7998 25.6367 28.8941 25.73 28.9676 25.8389C29.0411 25.9477 29.0925 26.07 29.1188 26.1987C29.145 26.3274 29.1457 26.46 29.1207 26.589C29.0957 26.7179 29.0456 26.8407 28.9732 26.9503C28.9007 27.0599 28.8074 27.1541 28.6986 27.2277C28.5897 27.3012 28.4675 27.3526 28.3388 27.3788C28.2101 27.4051 28.0775 27.4058 27.9485 27.3808C27.8195 27.3558 27.6968 27.3057 27.5872 27.2332L25.1757 25.6847L24.4839 25.9091L26.0982 26.9458C26.3182 27.086 26.4746 27.3065 26.5343 27.5603C26.594 27.8142 26.5522 28.0813 26.4177 28.3048C26.2805 28.5354 26.0605 28.6986 25.7995 28.7638C25.6715 28.7966 25.5382 28.8034 25.4075 28.7839C25.2768 28.7644 25.1513 28.7189 25.0385 28.6502L21.8823 26.7523L21.146 26.9908L22.8284 28.014C23.2109 28.2817 23.3127 28.7987 23.0607 29.1913C22.9989 29.2876 22.9185 29.3707 22.8243 29.4358C22.7301 29.5009 22.624 29.5467 22.512 29.5705C22.4 29.5943 22.2844 29.5956 22.1719 29.5745C22.0593 29.5533 21.9521 29.5101 21.8564 29.4472L19.7949 28.2154C19.7054 28.3926 19.553 28.5337 19.3392 28.599L21.5594 29.9254C21.7172 30.0272 21.8936 30.0967 22.0784 30.1299C22.2632 30.1631 22.4527 30.1593 22.636 30.1189C22.8194 30.0792 22.9931 30.0037 23.1472 29.8966C23.3013 29.7895 23.4327 29.6531 23.5338 29.4951C23.725 29.1975 23.7925 28.8561 23.7475 28.5304L24.7482 29.1322C24.9245 29.239 25.1203 29.3096 25.3242 29.34C25.5281 29.3703 25.7359 29.3597 25.9357 29.3089C26.136 29.2594 26.3244 29.1706 26.4901 29.0475C26.6557 28.9245 26.7952 28.7697 26.9004 28.5922C27.0798 28.2932 27.1542 27.9428 27.1119 27.5966L27.2823 27.7063C27.6417 27.9369 28.0681 28.0101 28.4849 27.9127C28.7801 27.8429 29.0487 27.6888 29.2579 27.4691C29.4671 27.2494 29.6079 26.9736 29.6632 26.6753C29.7184 26.377 29.6857 26.0691 29.5691 25.7891C29.4525 25.509 29.257 25.2689 29.0064 25.098L28.6694 24.8691C28.7245 24.8629 28.7791 24.8527 28.8337 24.8398C29.021 24.7967 29.1975 24.7157 29.3524 24.6019C29.5073 24.488 29.6372 24.3437 29.7342 24.1777Z" fill="white"/>
  <path d="M18.3096 15.7618L18.9255 15.6189C19.0081 15.4092 19.1518 15.2292 19.3379 15.1021C19.5241 14.975 19.7441 14.9068 19.9695 14.9062C20.1259 14.9062 20.2817 14.9406 20.4313 15.0086L20.7913 15.1712L20.8273 14.778C20.8522 14.483 20.9703 14.2035 21.1644 13.98C21.3585 13.7564 21.6187 13.6004 21.9073 13.5344C22.196 13.4684 22.4981 13.4959 22.7701 13.6129C23.0421 13.7298 23.2698 13.9302 23.4204 14.1851L23.5763 14.4439L23.8226 14.2695C24.015 14.1339 24.2389 14.0625 24.4695 14.0625C24.6658 14.0625 24.8469 14.1176 25.0078 14.2059L25.7025 14.0439C25.5458 13.8729 25.3553 13.7362 25.1431 13.6426C24.9308 13.549 24.7015 13.5004 24.4695 13.5C24.2158 13.5 23.9689 13.5574 23.7422 13.6665C23.5594 13.4385 23.3276 13.2545 23.064 13.1283C22.8004 13.0021 22.5118 12.9369 22.2195 12.9375C21.789 12.9363 21.3702 13.0775 21.0283 13.3391C20.6863 13.6006 20.4405 13.9679 20.3289 14.3837C20.211 14.3572 20.0904 14.3438 19.9695 14.3438C19.5696 14.3447 19.183 14.4879 18.8789 14.7477C18.5748 15.0074 18.373 15.3669 18.3096 15.7618ZM25.8758 5.34375C25.2553 5.34375 24.7508 4.83919 24.7508 4.21875C24.7508 3.59831 25.2553 3.09375 25.8758 3.09375C26.4962 3.09375 27.0008 3.59831 27.0008 4.21875C27.0008 4.83919 26.4962 5.34375 25.8758 5.34375ZM25.8758 3.65625C25.7309 3.66273 25.5942 3.72482 25.494 3.8296C25.3938 3.93438 25.3379 4.07377 25.3379 4.21875C25.3379 4.36373 25.3938 4.50312 25.494 4.6079C25.5942 4.71268 25.7309 4.77477 25.8758 4.78125C26.0206 4.77477 26.1573 4.71268 26.2575 4.6079C26.3577 4.50312 26.4137 4.36373 26.4137 4.21875C26.4137 4.07377 26.3577 3.93438 26.2575 3.8296C26.1573 3.72482 26.0206 3.66273 25.8758 3.65625ZM28.9695 4.21875C28.3491 4.21875 27.8445 3.71419 27.8445 3.09375C27.8445 2.47331 28.3491 1.96875 28.9695 1.96875C29.5899 1.96875 30.0945 2.47331 30.0945 3.09375C30.0945 3.71419 29.5899 4.21875 28.9695 4.21875ZM28.9695 2.53125C28.8247 2.53773 28.6879 2.59982 28.5877 2.7046C28.4875 2.80938 28.4316 2.94877 28.4316 3.09375C28.4316 3.23873 28.4875 3.37812 28.5877 3.4829C28.6879 3.58768 28.8247 3.64977 28.9695 3.65625C29.1143 3.64977 29.2511 3.58768 29.3513 3.4829C29.4515 3.37812 29.5074 3.23873 29.5074 3.09375C29.5074 2.94877 29.4515 2.80938 29.3513 2.7046C29.2511 2.59982 29.1143 2.53773 28.9695 2.53125ZM31.2195 7.875C30.4438 7.875 29.8133 7.24388 29.8133 6.46875C29.8133 5.69362 30.4438 5.0625 31.2195 5.0625C31.9952 5.0625 32.6258 5.69362 32.6258 6.46875C32.6258 7.24388 31.9952 7.875 31.2195 7.875ZM31.2195 5.625C30.7543 5.625 30.3758 6.00356 30.3758 6.46875C30.3758 6.93394 30.7543 7.3125 31.2195 7.3125C31.6847 7.3125 32.0633 6.93394 32.0633 6.46875C32.0633 6.00356 31.6847 5.625 31.2195 5.625Z" fill="white"/>
  <path d="M13.4245 27.7602C12.7264 27.5858 12.2635 27.4058 12.2517 27.4013C12.1942 27.3789 12.1311 27.3755 12.0717 27.3918L2.73584 30.004L2.88772 30.5457L12.1341 27.9582C12.3051 28.0218 12.6988 28.1596 13.2293 28.2957C13.249 28.0977 13.3159 27.9138 13.4245 27.7602ZM32.1951 16.9535C32.0712 16.5747 31.8075 16.2575 31.4578 16.0664C31.1081 15.8753 30.6986 15.8248 30.313 15.9252L30.0942 15.9826C30.25 15.6589 30.2771 15.2882 30.1701 14.9453C30.0631 14.602 29.8309 14.3115 29.5197 14.1314C29.2084 13.9514 28.8408 13.8949 28.4899 13.9733L16.8017 16.6891L18.964 12.1503C19.6148 11.014 19.2795 9.54477 18.2001 8.80452L17.952 8.63408C17.8921 8.59289 17.8186 8.57651 17.7468 8.58836C17.6751 8.60021 17.6108 8.63938 17.5673 8.69765L13.3716 14.3198L11.2161 17.0221C11.1969 17.0458 11.1819 17.0726 11.1717 17.1014L9.91615 20.5518L2.76228 21.8399L2.8624 22.3934L10.1749 21.0766C10.2233 21.0678 10.2685 21.0465 10.3061 21.0148C10.3437 20.9832 10.3723 20.9422 10.3892 20.896L11.6847 17.3371L13.8171 14.6635L17.857 9.25058L17.8823 9.26802C18.7221 9.84402 18.9831 10.987 18.4673 11.8898L16.044 16.9748C16.0207 17.0226 16.0114 17.076 16.0173 17.1288C16.0233 17.1817 16.0441 17.2317 16.0775 17.2731C16.1109 17.3145 16.1553 17.3455 16.2057 17.3625C16.256 17.3795 16.3102 17.3818 16.3618 17.3691L28.6165 14.5212C28.7793 14.485 28.9491 14.4964 29.1056 14.5542C29.262 14.612 29.3985 14.7137 29.4987 14.8471C29.5988 14.9805 29.6584 15.1399 29.6702 15.3063C29.682 15.4727 29.6457 15.6389 29.5654 15.7851C29.4507 15.9933 29.2611 16.1412 29.0322 16.2031L21.2185 18.304C21.1501 18.3264 21.093 18.3741 21.0586 18.4373C21.0243 18.5005 21.0154 18.5744 21.0338 18.6439C21.0522 18.7134 21.0965 18.7733 21.1576 18.8112C21.2187 18.8492 21.292 18.8623 21.3625 18.848L30.457 16.4697C30.7038 16.405 30.966 16.4371 31.1899 16.5594C31.4138 16.6818 31.5825 16.8851 31.6613 17.1278C31.7462 17.3877 31.722 17.6639 31.5949 17.9052C31.4667 18.1471 31.2518 18.322 30.9891 18.3985L21.9964 21.0063C21.9264 21.0284 21.8678 21.0771 21.8332 21.1419C21.7986 21.2066 21.7907 21.2824 21.8112 21.3529C21.8317 21.4234 21.8789 21.4831 21.9429 21.5193C22.0068 21.5554 22.0823 21.5651 22.1533 21.5463L29.7938 19.3306C30.0439 19.257 30.3128 19.2842 30.5432 19.4062C30.7735 19.5282 30.9471 19.7354 31.0268 19.9836C31.11 20.239 31.0887 20.5113 30.9666 20.7509C30.9068 20.8687 30.8242 20.9734 30.7236 21.059C30.623 21.1446 30.5063 21.2092 30.3805 21.2493L22.5015 23.7878C22.4304 23.8105 22.3713 23.8605 22.337 23.9268C22.3028 23.9931 22.2963 24.0703 22.319 24.1414C22.3417 24.2125 22.3917 24.2716 22.458 24.3059C22.5243 24.3401 22.6014 24.3466 22.6725 24.3239L28.468 22.5025C28.6814 22.4351 28.9126 22.4531 29.113 22.5528C29.3134 22.6525 29.4673 22.826 29.5423 23.0369C29.6205 23.2546 29.6087 23.4897 29.5097 23.6984C29.4139 23.9041 29.2403 24.0633 29.0271 24.1411L19.8724 27.1071C19.9326 27.2466 19.968 27.4002 19.968 27.5622C19.968 27.5993 19.9602 27.6348 19.9568 27.6708L29.2071 24.6738C29.566 24.545 29.8534 24.2845 30.0165 23.9397C30.1797 23.5949 30.1982 23.2068 30.07 22.8479C29.9642 22.55 29.7624 22.2957 29.4962 22.1251L30.5509 21.7853C30.9503 21.6565 31.2748 21.3803 31.4655 21.0068C31.6562 20.6333 31.6894 20.2081 31.56 19.8098C31.453 19.4778 31.238 19.191 30.9492 18.9953L31.1443 18.9385C31.3459 18.8808 31.5337 18.7827 31.6963 18.6504C31.8589 18.518 31.993 18.3541 32.0905 18.1685C32.1893 17.9836 32.2495 17.7806 32.2675 17.5717C32.2854 17.3628 32.2608 17.1525 32.1951 16.9535Z" fill="white"/>
  <path d="M16.5938 30.3755C16.2964 30.3748 16.0032 30.3064 15.7363 30.1755C15.4693 30.0446 15.2357 29.8546 15.0531 29.6201C14.838 29.7463 14.5931 29.8129 14.3438 29.813C13.5681 29.813 12.9375 29.1819 12.9375 28.4067C12.9375 27.6316 13.5681 27.0005 14.3438 27.0005C14.5952 27.0005 14.8387 27.068 15.0531 27.1934C15.3574 26.803 15.7982 26.5423 16.2869 26.4638C16.7756 26.3852 17.2759 26.4945 17.6873 26.7699C17.8154 26.5811 17.9877 26.4265 18.1893 26.3196C18.3909 26.2128 18.6156 26.1568 18.8438 26.1567C19.6194 26.1567 20.25 26.7879 20.25 27.563C20.25 28.3381 19.6194 28.9692 18.8438 28.9692C18.7234 28.9692 18.603 28.9529 18.486 28.9214C18.373 29.3374 18.1268 29.7049 17.785 29.9675C17.4433 30.2301 17.0248 30.3734 16.5938 30.3755ZM15.1914 28.76L15.3681 29.0806C15.4884 29.301 15.6655 29.4851 15.881 29.6139C16.0966 29.7427 16.3427 29.8115 16.5938 29.813C16.9481 29.8109 17.2887 29.6751 17.5472 29.4327C17.8057 29.1903 17.9632 28.8592 17.9882 28.5057L18.0208 28.049L18.4134 28.2841C18.549 28.3657 18.6941 28.4067 18.8438 28.4067C19.3089 28.4067 19.6875 28.0282 19.6875 27.563C19.6875 27.0978 19.3089 26.7192 18.8438 26.7192C18.4832 26.7192 18.1637 26.9516 18.0484 27.2975L17.9049 27.7272L17.5838 27.4083C17.3208 27.1466 16.9647 26.9999 16.5938 27.0005C16.3427 27.002 16.0966 27.0708 15.881 27.1995C15.6655 27.3283 15.4884 27.5125 15.3681 27.7329L15.192 28.0529L14.9276 27.7998C14.7711 27.6481 14.5617 27.5632 14.3438 27.563C13.8786 27.563 13.5 27.9416 13.5 28.4067C13.5 28.8719 13.8786 29.2505 14.3438 29.2505C14.5609 29.2505 14.7684 29.1667 14.9276 29.0137L15.1914 28.76Z" fill="white"/>
  <path d="M19.4062 33.1875C18.6306 33.1875 18 32.5564 18 31.7812C18 31.0061 18.6306 30.375 19.4062 30.375C20.1819 30.375 20.8125 31.0061 20.8125 31.7812C20.8125 32.5564 20.1819 33.1875 19.4062 33.1875ZM19.4062 30.9375C18.9411 30.9375 18.5625 31.3161 18.5625 31.7812C18.5625 32.2464 18.9411 32.625 19.4062 32.625C19.8714 32.625 20.25 32.2464 20.25 31.7812C20.25 31.3161 19.8714 30.9375 19.4062 30.9375Z" fill="white"/>
</svg>