<svg xmlns="http://www.w3.org/2000/svg" width="36" height="36" viewBox="0 0 36 36" fill="none">
  <path d="M28.6875 11.2502C28.5941 11.2502 28.503 11.244 28.4136 11.2311L28.4912 10.6742C28.6904 10.7018 28.8933 10.6865 29.0861 10.6292C29.2789 10.5719 29.4572 10.474 29.609 10.342C29.7608 10.2101 29.8826 10.0472 29.9662 9.86422C30.0498 9.68129 30.0933 9.48257 30.0938 9.28143V8.72681C30.0938 7.95168 29.4626 7.32056 28.6875 7.32056C27.9124 7.32056 27.2812 7.95168 27.2812 8.72681V9.28143H26.7188V8.72681C26.7188 7.64118 27.6019 6.75806 28.6875 6.75806C29.7731 6.75806 30.6562 7.64118 30.6562 8.72681V9.28143C30.6562 10.3671 29.7731 11.2502 28.6875 11.2502Z" fill="white"/>
  <path d="M28.6875 11.2502C28.5941 11.2502 28.503 11.244 28.4136 11.2311L28.4912 10.6742C28.6904 10.7018 28.8933 10.6865 29.0861 10.6292C29.2789 10.5719 29.4572 10.474 29.609 10.342C29.7608 10.2101 29.8826 10.0472 29.9662 9.86422C30.0498 9.68129 30.0933 9.48257 30.0938 9.28143V8.72681C30.0938 7.95168 29.4626 7.32056 28.6875 7.32056C27.9124 7.32056 27.2812 7.95168 27.2812 8.72681V9.28143H26.7188V8.72681C26.7188 7.64118 27.6019 6.75806 28.6875 6.75806C29.7731 6.75806 30.6562 7.64118 30.6562 8.72681V9.28143C30.6562 10.3671 29.7731 11.2502 28.6875 11.2502Z" fill="white"/>
  <path d="M31.5 33.1877H30.9375V15.1877H31.5V21.6564C31.5 21.9669 31.7526 22.2189 32.0625 22.2189C32.3724 22.2189 32.625 21.9664 32.625 21.6564V14.1195C32.6242 13.8309 32.5351 13.5496 32.3696 13.3132C32.204 13.0769 31.97 12.8969 31.6991 12.7976L29.5312 12.0096V10.4053L29.6246 10.3215C29.7721 10.1912 29.8903 10.0311 29.9711 9.85165C30.052 9.67224 30.0938 9.47767 30.0938 9.28087V8.72624C30.0938 7.95112 29.4626 7.31999 28.6875 7.31999C27.9124 7.31999 27.2812 7.95112 27.2812 8.72624V9.28143C27.2812 9.67968 27.4477 10.0492 27.7504 10.3221L27.8438 10.4059V12.0101L25.6759 12.7982C25.4049 12.8972 25.1708 13.077 25.0052 13.3133C24.8396 13.5496 24.7506 13.831 24.75 14.1195V21.6564C24.75 21.9664 25.0026 22.2189 25.3125 22.2189C25.6224 22.2189 25.875 21.9664 25.875 21.6564V15.1877H26.4375V33.1877H25.875V22.6301C25.704 22.7285 25.5101 22.7802 25.3128 22.78C25.1155 22.7799 24.9217 22.7279 24.7508 22.6293C24.5799 22.5307 24.4379 22.3889 24.3391 22.2182C24.2402 22.0474 24.1879 21.8537 24.1875 21.6564V14.1195C24.1883 13.7156 24.313 13.3216 24.5448 12.9908C24.7765 12.66 25.1042 12.4082 25.4835 12.2694L27.2812 11.6158V10.6506C26.9225 10.2849 26.7207 9.79367 26.7188 9.28143V8.72681C26.7188 7.64118 27.6019 6.75806 28.6875 6.75806C29.7731 6.75806 30.6562 7.64118 30.6562 8.72681V9.28143C30.6562 9.79049 30.4526 10.2827 30.0938 10.6506V11.6158L31.8915 12.2694C32.2708 12.4082 32.5985 12.66 32.8302 12.9908C33.062 13.3216 33.1867 13.7156 33.1875 14.1195V21.6564C33.1871 21.8537 33.1348 22.0474 33.0359 22.2182C32.9371 22.3889 32.7951 22.5307 32.6242 22.6293C32.4533 22.7279 32.2595 22.7799 32.0622 22.78C31.8649 22.7802 31.671 22.7285 31.5 22.6301V33.1877Z" fill="white"/>
  <path d="M28.1267 33.2085L27.5659 33.1669L28.4068 21.6356L28.9682 21.6367L29.7703 33.168L29.2089 33.2074L28.6807 25.6136L28.1267 33.2085ZM7.3125 11.2502C7.21913 11.2502 7.128 11.244 7.03856 11.2311L7.11619 10.6742C7.31542 10.7018 7.51826 10.6865 7.71106 10.6292C7.90387 10.5719 8.08217 10.474 8.23399 10.342C8.38581 10.2101 8.50762 10.0472 8.59123 9.86422C8.67485 9.68129 8.71833 9.48257 8.71875 9.28143V8.72681C8.71875 7.95168 8.08763 7.32056 7.3125 7.32056C6.53737 7.32056 5.90625 7.95168 5.90625 8.72681V9.28143H5.34375V8.72681C5.34375 7.64118 6.22688 6.75806 7.3125 6.75806C8.39812 6.75806 9.28125 7.64118 9.28125 8.72681V9.28143C9.28125 10.3671 8.39812 11.2502 7.3125 11.2502Z" fill="white"/>
  <path d="M18 11.8125C15.5188 11.8125 13.5 9.79369 13.5 7.3125C13.5 4.83131 15.5188 2.8125 18 2.8125C18.9714 2.8125 19.8962 3.11737 20.6753 3.69337L20.3406 4.14562C19.6639 3.64304 18.8429 3.37272 18 3.375C15.8288 3.375 14.0625 5.14125 14.0625 7.3125C14.0625 9.48375 15.8288 11.25 18 11.25C20.1713 11.25 21.9375 9.48375 21.9375 7.3125C21.9403 6.45309 21.6591 5.61683 21.1376 4.93369L21.5854 4.59338C22.1817 5.37413 22.5032 6.33008 22.5 7.3125C22.5 9.79369 20.4812 11.8125 18 11.8125Z" fill="white"/>
  <path d="M17.9359 8.98737L15.8794 6.59112L16.3063 6.22494L17.9297 8.1155L21.8222 3.43494L22.2548 3.79494L17.9359 8.98737Z" fill="white"/>
  <path d="M7.3125 11.2497C7.21913 11.2497 7.128 11.2435 7.03856 11.2306L7.11619 10.6737C7.31542 10.7013 7.51826 10.686 7.71106 10.6287C7.90387 10.5714 8.08217 10.4735 8.23399 10.3415C8.38581 10.2096 8.50762 10.0467 8.59123 9.86373C8.67485 9.6808 8.71833 9.48208 8.71875 9.28094V8.72632C8.71875 7.95119 8.08763 7.32007 7.3125 7.32007C6.53737 7.32007 5.90625 7.95119 5.90625 8.72632V9.28094H5.34375V8.72632C5.34375 7.64069 6.22688 6.75757 7.3125 6.75757C8.39812 6.75757 9.28125 7.64069 9.28125 8.72632V9.28094C9.28125 10.3666 8.39812 11.2497 7.3125 11.2497Z" fill="white"/>
  <path d="M26.1562 33.1873H9.5625V15.1873H10.125V21.6561C10.125 21.966 10.3776 22.2186 10.6875 22.2186C10.9974 22.2186 11.25 21.966 11.25 21.6561V14.1191C11.2492 13.8306 11.1601 13.5492 10.9946 13.3129C10.829 13.0765 10.595 12.8966 10.3241 12.7973L8.15625 12.0092V10.4049L8.24963 10.3211C8.39714 10.1909 8.51526 10.0307 8.59614 9.85128C8.67702 9.67187 8.71882 9.47731 8.71875 9.2805V8.72588C8.71875 7.95075 8.08763 7.31963 7.3125 7.31963C6.53737 7.31963 5.90625 7.95075 5.90625 8.72588V9.28107C5.90625 9.67932 6.07275 10.0489 6.37537 10.3217L6.46875 10.4055V12.0098L4.30087 12.7978C4.02987 12.8968 3.79578 13.0766 3.63021 13.3129C3.46463 13.5492 3.37555 13.8306 3.375 14.1191V21.6561C3.375 21.966 3.62756 22.2186 3.9375 22.2186C4.24744 22.2186 4.5 21.966 4.5 21.6561V15.1873H5.0625V33.1873H4.5V22.6298C4.32897 22.7281 4.13509 22.7798 3.9378 22.7797C3.7405 22.7795 3.54671 22.7275 3.37582 22.6289C3.20493 22.5303 3.06294 22.3886 2.96408 22.2178C2.86522 22.0471 2.81294 21.8534 2.8125 21.6561V14.1191C2.81334 13.7152 2.93805 13.3213 3.16979 12.9905C3.40154 12.6596 3.72917 12.4078 4.1085 12.2691L5.90625 11.6154V10.6502C5.54749 10.2846 5.34567 9.79331 5.34375 9.28107V8.72644C5.34375 7.64082 6.22688 6.75769 7.3125 6.75769C8.39813 6.75769 9.28125 7.64082 9.28125 8.72644V9.28107C9.28125 9.79013 9.07762 10.2823 8.71875 10.6502V11.6154L10.5165 12.2691C10.8958 12.4078 11.2235 12.6596 11.4552 12.9905C11.687 13.3213 11.8117 13.7152 11.8125 14.1191V21.6561C11.8121 21.8534 11.7598 22.0471 11.6609 22.2178C11.5621 22.3886 11.4201 22.5303 11.2492 22.6289C11.0783 22.7275 10.8845 22.7795 10.6872 22.7797C10.4899 22.7798 10.296 22.7281 10.125 22.6298V32.6248H26.1562V33.1873Z" fill="white"/>
  <path d="M6.75271 33.208L6.19189 33.1664L7.03283 21.6351L7.59421 21.6363L8.39633 33.1675L7.83496 33.2069L7.30677 25.6131L6.75271 33.208Z" fill="white"/>
</svg>