<svg width="64" height="64" viewBox="0 0 64 64" fill="none" xmlns="http://www.w3.org/2000/svg">
<g id="handshake">
<g id="Handshake">
<path id="Vector" d="M10.1698 38.0003C10.0106 38.0004 9.85359 37.9627 9.71177 37.8903L2.08977 33.9643C1.85477 33.8434 1.67721 33.6343 1.59588 33.3829C1.51456 33.1314 1.53609 32.858 1.65577 32.6223L10.6098 14.9363C10.6692 14.8189 10.7513 14.7144 10.8512 14.6287C10.9511 14.543 11.067 14.4779 11.1921 14.4372C11.3173 14.3964 11.4492 14.3807 11.5804 14.391C11.7117 14.4013 11.8395 14.4375 11.9568 14.4973L19.2078 18.1973C19.4406 18.3158 19.6178 18.5206 19.7015 18.7681C19.7852 19.0155 19.7688 19.2859 19.6558 19.5213L11.0718 37.4293C11.0138 37.5498 10.9323 37.6574 10.8322 37.746C10.7321 37.8346 10.6154 37.9024 10.4888 37.9453C10.386 37.9804 10.2783 37.999 10.1698 38.0003ZM3.88877 32.6403L9.71277 35.6403L17.4308 19.5403L11.9408 16.7403L3.88877 32.6403Z" fill="#2343C1"/>
<path id="Vector_2" d="M20.5296 24.0845C20.3576 24.0845 20.1884 24.04 20.0386 23.9555L17.1326 22.3185C17.0182 22.2541 16.9175 22.1678 16.8364 22.0645C16.7553 21.9611 16.6954 21.8429 16.66 21.7164C16.6246 21.5899 16.6145 21.4577 16.6302 21.3273C16.6459 21.197 16.6872 21.0709 16.7516 20.9565C16.816 20.8421 16.9023 20.7414 17.0056 20.6603C17.1089 20.5792 17.2272 20.5193 17.3537 20.4839C17.4802 20.4485 17.6124 20.4384 17.7428 20.4541C17.8731 20.4698 17.9992 20.5111 18.1136 20.5755L20.5136 21.9265C21.4506 21.3585 23.4786 20.1355 24.7766 19.4025C26.8956 18.2025 28.3876 18.3675 30.1006 19.9905C30.2881 20.174 30.396 20.4239 30.401 20.6862C30.406 20.9485 30.3077 21.2023 30.1273 21.3928C29.9469 21.5834 29.6988 21.6953 29.4366 21.7046C29.1744 21.7139 28.919 21.6198 28.7256 21.4425C27.6616 20.4345 27.1076 20.3825 25.7606 21.1425C24.0926 22.0855 21.0836 23.9195 21.0526 23.9425C20.8947 24.0371 20.7137 24.0862 20.5296 24.0845Z" fill="#2343C1"/>
<path id="Vector_3" d="M46.8369 41.4833C46.1082 41.502 45.3894 41.3122 44.7649 40.9363C43.8449 40.3223 39.7969 36.3523 38.9949 35.5633C38.8181 35.3751 38.7209 35.1258 38.7238 34.8676C38.7266 34.6094 38.8292 34.3623 39.0101 34.178C39.191 33.9938 39.4362 33.8866 39.6943 33.879C39.9524 33.8715 40.2035 33.964 40.3949 34.1373C42.1949 35.9143 45.2829 38.8793 45.8719 39.2723C46.2515 39.4477 46.6714 39.5176 47.0874 39.4747C47.5034 39.4318 47.9001 39.2776 48.2359 39.0283C48.3931 38.8919 48.5185 38.7227 48.6032 38.5326C48.6879 38.3425 48.7298 38.1361 48.726 37.928C48.7222 37.7199 48.6727 37.5151 48.5811 37.3282C48.4895 37.1413 48.358 36.9768 48.1959 36.8463C47.1739 35.6963 42.9279 31.6113 41.9959 30.7153C38.7438 29.5233 35.5902 28.0782 32.5639 26.3933L31.5119 27.0813C31.2757 28.1777 30.6456 29.1494 29.7409 29.8123C29.4233 30.0625 29.0547 30.2398 28.6611 30.3317C28.2674 30.4236 27.8584 30.4279 27.4629 30.3443C26.983 30.2845 26.5208 30.1252 26.106 29.8765C25.6912 29.6279 25.3328 29.2954 25.0539 28.9003C24.5221 27.7641 24.4624 26.4634 24.8879 25.2833C25.7409 21.8693 27.1249 20.9903 29.0399 19.7743L29.4609 19.5053C31.5709 18.1503 33.3819 17.4283 35.3699 18.3233C36.6059 18.8803 40.9929 20.5793 42.2389 21.0613L46.4149 19.6923C46.6651 19.6162 46.9351 19.6412 47.1671 19.7618C47.3991 19.8824 47.5746 20.089 47.6561 20.3375C47.7375 20.5859 47.7185 20.8564 47.6029 21.091C47.4874 21.3255 47.2845 21.5055 47.0379 21.5923L42.5229 23.0723C42.3043 23.1436 42.0679 23.138 41.8529 23.0563C41.6159 22.9643 36.0379 20.8183 34.5529 20.1483C33.6619 19.7483 32.7209 19.7893 30.5449 21.1873L30.1149 21.4623C28.3679 22.5713 27.4909 23.1293 26.8309 25.7683C26.4929 27.1203 26.6489 27.6683 26.7719 27.8683C26.9299 28.1323 27.2959 28.2393 27.8789 28.3853C28.004 28.4064 28.1323 28.3994 28.2544 28.3648C28.3765 28.3302 28.4894 28.2689 28.5849 28.1853C28.867 27.9728 29.1025 27.7048 29.2771 27.3978C29.4516 27.0908 29.5615 26.7514 29.5999 26.4003C29.613 26.2496 29.6601 26.1037 29.7377 25.9738C29.8153 25.8439 29.9213 25.7333 30.0479 25.6503L31.9729 24.3913C32.1246 24.2926 32.3003 24.237 32.4811 24.2303C32.662 24.2236 32.8413 24.2661 32.9999 24.3533C33.0679 24.3903 39.8099 28.0773 42.7629 28.8533C42.9271 28.8971 43.0776 28.9814 43.2009 29.0983C43.4169 29.3053 48.5009 34.1733 49.6949 35.5203C50.0257 35.8406 50.2881 36.2247 50.466 36.6494C50.644 37.074 50.7338 37.5304 50.73 37.9909C50.7263 38.4513 50.6291 38.9062 50.4443 39.3279C50.2595 39.7497 49.9909 40.1295 49.6549 40.4443C48.8855 41.1424 47.8753 41.5148 46.8369 41.4833Z" fill="#2343C1"/>
<path id="Vector_4" d="M48.9466 37.1818C48.7174 37.1816 48.4953 37.1028 48.3173 36.9584C48.1394 36.8141 48.0164 36.613 47.9689 36.3888C47.9215 36.1646 47.9525 35.931 48.0567 35.7269C48.161 35.5228 48.3321 35.3608 48.5416 35.2678L52.0496 33.7138C52.1701 33.6569 52.3009 33.6246 52.4341 33.6189C52.5673 33.6133 52.7004 33.6343 52.8253 33.6808C52.9503 33.7273 53.0647 33.7984 53.1618 33.8898C53.2589 33.9811 53.3368 34.091 53.3908 34.2129C53.4448 34.3348 53.4739 34.4663 53.4764 34.5997C53.4788 34.733 53.4546 34.8654 53.4051 34.9893C53.3556 35.1131 53.2818 35.2257 53.1881 35.3206C53.0945 35.4155 52.9827 35.4907 52.8596 35.5418L49.3506 37.0998C49.223 37.1549 49.0855 37.1828 48.9466 37.1818Z" fill="#2343C1"/>
<path id="Vector_5" d="M53.5336 38.0004C53.3343 38.0003 53.1395 37.9406 52.9744 37.8291C52.8092 37.7176 52.6811 37.5592 52.6066 37.3744L45.0586 18.6484C45.0081 18.5235 44.9834 18.3897 44.986 18.255C44.9885 18.1204 45.0182 17.9876 45.0733 17.8647C45.1284 17.7418 45.2077 17.6313 45.3066 17.5398C45.4055 17.4483 45.5218 17.3778 45.6486 17.3324L53.7146 14.4464C53.9586 14.3591 54.227 14.3699 54.4631 14.4766C54.6993 14.5833 54.8848 14.7776 54.9806 15.0184L62.3806 33.5924C62.429 33.7152 62.4526 33.8463 62.4501 33.9783C62.4476 34.1103 62.4189 34.2404 62.3658 34.3613C62.3128 34.4821 62.2363 34.5913 62.1408 34.6824C62.0453 34.7736 61.9328 34.8449 61.8096 34.8924L53.8916 37.9304C53.7775 37.9755 53.6562 37.9992 53.5336 38.0004ZM47.2996 18.8644L54.0906 35.7114L60.1446 33.3914L53.4796 16.6544L47.2996 18.8644ZM42.3316 44.5164C41.5072 44.5411 40.7022 44.2641 40.0676 43.7374C38.7286 42.5474 35.2866 39.1074 35.1406 38.9614C34.9584 38.7728 34.8576 38.5202 34.8599 38.258C34.8622 37.9958 34.9674 37.745 35.1528 37.5595C35.3382 37.3741 35.589 37.269 35.8512 37.2667C36.1134 37.2644 36.366 37.3652 36.5546 37.5474C36.5896 37.5824 40.1016 41.0924 41.3956 42.2474C41.6638 42.4108 41.9675 42.507 42.2809 42.5279C42.5943 42.5488 42.908 42.4937 43.1956 42.3674C43.6651 42.2072 44.0817 41.9211 44.3998 41.5404C44.718 41.1597 44.9254 40.6989 44.9996 40.2084C45.0219 40.0789 45.0695 39.9552 45.1396 39.8442C45.2098 39.7332 45.3011 39.637 45.4084 39.5613C45.5157 39.4856 45.6369 39.4317 45.765 39.4028C45.8931 39.3739 46.0257 39.3705 46.1551 39.3929C46.2845 39.4152 46.4082 39.4628 46.5193 39.5329C46.6303 39.6031 46.7264 39.6944 46.8021 39.8017C46.8779 39.909 46.9317 40.0302 46.9606 40.1583C46.9895 40.2864 46.9929 40.4189 46.9706 40.5484C46.8346 41.3885 46.4737 42.1761 45.9261 42.8275C45.3786 43.479 44.6648 43.97 43.8606 44.2484C43.3695 44.4227 42.8527 44.5133 42.3316 44.5164Z" fill="#2343C1"/>
<path id="Vector_6" d="M37.6778 46.9405C36.8551 46.9755 36.0512 46.6886 35.4368 46.1405L31.8848 42.5885L33.2998 41.1735L36.8518 44.7255C37.0716 44.8489 37.3148 44.9248 37.5658 44.9482C37.8168 44.9716 38.0699 44.9421 38.3088 44.8615C38.7675 44.7488 39.1875 44.515 39.5249 44.1845C39.8623 43.8539 40.1047 43.4388 40.2268 42.9825C40.2637 42.8552 40.3257 42.7365 40.4089 42.6334C40.4922 42.5302 40.5951 42.4446 40.7117 42.3816C40.8284 42.3186 40.9563 42.2794 41.0883 42.2663C41.2202 42.2532 41.3534 42.2665 41.4801 42.3053C41.6068 42.3442 41.7246 42.4078 41.8265 42.4926C41.9284 42.5774 42.0125 42.6815 42.0737 42.7991C42.135 42.9166 42.1723 43.0452 42.1835 43.1772C42.1947 43.3093 42.1795 43.4423 42.1388 43.5685C41.8606 44.5376 41.2754 45.3902 40.4711 45.9983C39.6669 46.6063 38.687 46.9369 37.6788 46.9405H37.6778Z" fill="#2343C1"/>
<path id="Vector_7" d="M33.8659 49.6115C33.0484 49.6289 32.2489 49.3699 31.5969 48.8765C30.6961 48.1553 29.7911 47.4392 28.8819 46.7285C28.7763 46.6484 28.6876 46.5482 28.621 46.4335C28.5545 46.3189 28.5114 46.1922 28.4942 46.0607C28.4771 45.9293 28.4863 45.7957 28.5212 45.6679C28.5561 45.54 28.6162 45.4203 28.6978 45.3159C28.7794 45.2114 28.8809 45.1242 28.9965 45.0593C29.1121 44.9945 29.2395 44.9532 29.3711 44.938C29.5028 44.9228 29.6362 44.934 29.7636 44.9708C29.8909 45.0076 30.0097 45.0694 30.1129 45.1525C30.1129 45.1525 31.3619 46.1275 32.8469 47.3155C33.1633 47.5038 33.5231 47.6068 33.8912 47.6143C34.2593 47.6218 34.6231 47.5337 34.9469 47.3585C35.2364 47.234 35.4814 47.0247 35.6496 46.7582C35.8178 46.4916 35.9012 46.1804 35.8889 45.8655C35.8808 45.6004 35.9784 45.343 36.1601 45.1498C36.3418 44.9566 36.5928 44.8436 36.8579 44.8355C37.1222 44.8308 37.3779 44.9296 37.5703 45.1109C37.7628 45.2921 37.8767 45.5414 37.8879 45.8055C37.9115 46.5021 37.73 47.1902 37.3659 47.7845C37.0018 48.3788 36.4712 48.8531 35.8399 49.1485C35.2262 49.4523 34.5507 49.6107 33.8659 49.6115Z" fill="#2343C1"/>
<path id="Vector_8" d="M26.3717 49.1484C26.0467 49.1473 25.725 49.0827 25.4247 48.9584C24.6093 48.5583 23.9371 47.9165 23.4997 47.1204C22.79 47.2581 22.0546 47.1476 21.4167 46.8074C20.8816 46.4567 20.4217 46.0031 20.0635 45.473C19.7054 44.9428 19.4563 44.3468 19.3307 43.7194C19.278 43.464 19.3272 43.1981 19.4677 42.9784C20.2807 41.7104 21.5067 39.7394 21.6897 39.3284C21.8544 39.0005 22.0879 38.7121 22.3745 38.4829C22.661 38.2537 22.9937 38.0891 23.3497 38.0004C23.834 37.8735 24.3406 37.8565 24.8323 37.9506C25.324 38.0447 25.7885 38.2476 26.1917 38.5444C26.6385 38.8402 26.9973 39.251 27.2303 39.7336C27.4634 40.2161 27.5619 40.7526 27.5157 41.2864C27.9913 41.3069 28.4571 41.4292 28.8814 41.645C29.3058 41.8608 29.679 42.1651 29.9757 42.5374C30.2639 42.9879 30.4479 43.497 30.5142 44.0276C30.5804 44.5582 30.5273 45.097 30.3587 45.6044C29.8342 47.0684 28.7573 48.2687 27.3587 48.9484C27.0464 49.0805 26.7108 49.1485 26.3717 49.1484ZM25.1837 46.0274C25.4977 46.5584 26.0587 47.3204 26.5837 47.1014C27.4553 46.6475 28.1264 45.8848 28.4657 44.9624C28.5325 44.7583 28.558 44.543 28.5408 44.3289C28.5237 44.1148 28.4641 43.9063 28.3657 43.7154C28.2136 43.5664 28.033 43.4496 27.8347 43.372C27.6364 43.2943 27.4245 43.2574 27.2117 43.2634L25.1837 46.0274ZM21.3927 43.6774C21.5518 44.2331 21.8967 44.7174 22.3697 45.0494C22.5174 45.1252 22.679 45.1699 22.8447 45.1807C23.0103 45.1916 23.1764 45.1683 23.3327 45.1124L25.4677 41.4524C25.5526 41.2263 25.558 40.9779 25.4831 40.7483C25.4083 40.5186 25.2575 40.3212 25.0557 40.1884C24.9021 40.0674 24.7249 39.9798 24.5355 39.9314C24.346 39.883 24.1485 39.8749 23.9557 39.9074C23.7855 39.9355 23.6301 40.0213 23.5157 40.1504C23.2517 40.7354 21.9817 42.7514 21.3927 43.6774Z" fill="#2343C1"/>
<path id="Vector_9" d="M18.7286 45.2396C18.4917 45.2403 18.2559 45.2066 18.0286 45.1396C16.3156 44.6246 15.6446 42.4066 15.5736 42.1556C15.5377 42.0283 15.5275 41.8951 15.5434 41.7638C15.5594 41.6325 15.6013 41.5057 15.6666 41.3906C16.5166 39.9142 17.4567 38.4915 18.4816 37.1306C18.9961 36.4613 19.7416 36.0077 20.5726 35.8585C21.4036 35.7093 22.2603 35.8751 22.9756 36.3236C23.9196 36.9786 24.6116 38.4036 23.4536 40.2656C23.3843 40.3773 23.2937 40.4742 23.187 40.5508C23.0803 40.6274 22.9595 40.6822 22.8316 40.7122C22.7037 40.7421 22.5712 40.7466 22.4415 40.7253C22.3119 40.704 22.1877 40.6574 22.0761 40.5881C21.9645 40.5189 21.8676 40.4283 21.791 40.3216C21.7143 40.2149 21.6595 40.0941 21.6296 39.9662C21.5996 39.8383 21.5951 39.7057 21.6164 39.5761C21.6377 39.4464 21.6843 39.3223 21.7536 39.2106C22.0106 38.7956 22.2336 38.2446 21.8346 37.9676C21.543 37.8084 21.2038 37.7593 20.879 37.8294C20.5542 37.8996 20.2655 38.0842 20.0656 38.3496C19.1871 39.5169 18.3742 40.7321 17.6306 41.9896C17.8496 42.5126 18.2226 43.1116 18.6036 43.2246C18.9406 43.3246 19.4036 42.9786 19.6546 42.7646C19.8554 42.5912 20.1168 42.5046 20.3814 42.5239C20.646 42.5432 20.8921 42.6669 21.0656 42.8676C21.239 43.0684 21.3256 43.3299 21.3063 43.5945C21.287 43.8591 21.1634 44.1052 20.9626 44.2786C20.3613 44.8627 19.5661 45.2048 18.7286 45.2396Z" fill="#2343C1"/>
<path id="Vector_10" d="M16.5337 42.8801C16.4238 42.88 16.3146 42.8618 16.2107 42.8261C16.0417 42.7691 12.0557 41.3761 12.0557 38.2541C12.0556 38.1493 12.0718 38.045 12.1037 37.9451C12.4655 36.9494 12.961 36.0074 13.5767 35.1451C14.0348 34.5977 14.6676 34.2248 15.3684 34.0893C16.0693 33.9538 16.7955 34.0639 17.4247 34.4011C18.0169 34.6636 18.4893 35.1386 18.7485 35.7323C19.0077 36.326 19.0349 36.9954 18.8247 37.6081C18.1707 39.7141 17.4997 42.1211 17.4927 42.1461C17.4339 42.3564 17.308 42.5417 17.1341 42.6736C16.9603 42.8056 16.748 42.8771 16.5297 42.8771L16.5337 42.8801ZM14.0637 38.4091C14.1637 39.3451 15.1217 40.0571 15.8897 40.4841C16.1507 39.5721 16.5377 38.2451 16.9177 37.0181C16.9525 36.9402 16.9704 36.8557 16.97 36.7703C16.9696 36.6849 16.951 36.6006 16.9154 36.523C16.8798 36.4453 16.8281 36.3762 16.7636 36.3202C16.6992 36.2642 16.6235 36.2226 16.5417 36.1981C16.3351 36.0816 16.0985 36.0289 15.862 36.0467C15.6255 36.0645 15.3995 36.152 15.2127 36.2981C14.749 36.9548 14.3634 37.6633 14.0637 38.4091Z" fill="#2343C1"/>
<path id="Vector_11" d="M13.8767 37.5296C13.6754 37.5294 13.4788 37.4684 13.3127 37.3546L10.6897 35.5546C10.4708 35.4048 10.3204 35.1741 10.2715 34.9133C10.2227 34.6525 10.2794 34.383 10.4292 34.1641C10.5791 33.9452 10.8098 33.7947 11.0705 33.7459C11.3313 33.697 11.6008 33.7538 11.8197 33.9036L14.4427 35.7036C14.6194 35.8242 14.7528 35.9982 14.8232 36.2002C14.8937 36.4021 14.8976 36.6214 14.8342 36.8257C14.7709 37.03 14.6437 37.2086 14.4714 37.3353C14.2991 37.462 14.0906 37.5301 13.8767 37.5296Z" fill="#2343C1"/>
</g>
</g>
</svg>
