<svg xmlns="http://www.w3.org/2000/svg" width="75" height="20" viewBox="0 0 75 20" fill="none">
  <path d="M53.1245 0.615967H55.4738C56.3789 0.615967 56.8944 1.24559 57.0203 2.50484V6.60133C57.0203 6.92401 57.0243 7.65595 57.0321 8.79714C57.8163 8.23233 58.7853 8.06225 59.6412 7.93534C60.497 7.80843 62.6778 6.89558 62.8251 5.16589C63.6793 6.9382 63.03 7.85987 61.6245 8.63186C62.561 9.16704 63.0293 9.8675 63.0293 10.7332V12.9527C63.0293 13.8971 63.2025 14.4165 63.5488 14.511L63.8911 14.5818H64.7175L64.7883 14.6526V14.9124L64.7175 14.9832H62.6161C61.8055 14.8888 61.4002 14.4047 61.4002 13.5311V10.8867C61.4002 8.63186 57.0203 9.073 57.0203 10.5207V12.9881C57.0203 14.0506 56.6032 14.7156 55.769 14.9832L55.3204 15.0186H53.0537V14.9478V14.2158V14.145H54.0808C54.6396 14.145 54.9662 13.7594 55.0606 12.9881V2.68192C55.0606 1.86341 54.6593 1.45415 53.8565 1.45415H53.1245L53.0537 1.38332V0.686799L53.1245 0.615967Z" fill="white"/>
  <path d="M46.301 4.59448H48.9337C49.5003 4.59448 49.9765 4.88962 50.3621 5.47989C50.5667 5.88128 50.6691 6.36923 50.6691 6.94377V12.6458C50.6297 13.5666 50.9406 14.0624 51.6017 14.1333L51.8968 14.1687H52.3927L52.4281 14.1923V15.0187L52.3927 15.0541H50.2559C49.5003 15.0541 48.9848 14.6527 48.7094 13.85C48.5756 13.4564 48.5087 13.0787 48.5087 12.7166V7.0264C48.5087 6.33382 48.2411 5.88128 47.7059 5.66878C47.5564 5.62943 47.4265 5.60975 47.3163 5.60975H46.301L46.2656 5.58614V4.61809L46.301 4.59448Z" fill="white"/>
  <path d="M40.9531 4.32275H41.1774C42.2478 4.32275 43.1725 4.71627 43.9517 5.5033C44.7151 6.35329 45.0968 7.33314 45.0968 8.44285V12.3268C45.0968 13.4287 45.3133 14.0819 45.7461 14.2866C45.7461 14.3338 45.9035 14.3849 46.2183 14.44H47.4461L47.4815 14.4754V15.0421L47.4461 15.0775H44.5302C43.7274 15.0775 43.204 14.4912 42.96 13.3185C42.9286 13.1847 42.9128 13.043 42.9128 12.8935V8.71438C42.9128 7.33708 42.4209 6.4438 41.4371 6.03454C41.0358 5.89288 40.6147 5.82205 40.174 5.82205C39.3633 5.84566 38.5645 6.25098 37.7774 7.03801C37.4862 7.39217 37.3406 7.74633 37.3406 8.1005V15.0775L37.3052 15.1129H35.1803L35.133 15.0775V6.88454C35.133 6.19195 34.8497 5.72367 34.283 5.47969L33.8698 5.42066H32.8782L32.8428 5.38524V4.46442L32.8782 4.429H35.558C36.2349 4.429 36.7582 4.80284 37.1281 5.55052L37.2344 5.91649C38.3913 4.87761 39.6309 4.34636 40.9531 4.32275Z" fill="white"/>
  <path d="M25.7361 15.0777H25.5236C24.4611 15.0777 23.5403 14.6881 22.7611 13.909C22.0056 13.0669 21.6278 12.0909 21.6278 10.9812V7.12086C21.6278 6.02689 21.4113 5.38152 20.9785 5.18476C20.9785 5.12967 20.8211 5.07458 20.5063 5.01949H19.2903L19.2549 4.98407V4.42922L19.2903 4.3938H22.1826C22.9854 4.3938 23.5048 4.9762 23.741 6.141C23.7803 6.2748 23.8 6.41647 23.8 6.566V10.7097C23.8 12.0791 24.284 12.9685 25.252 13.3777C25.6613 13.5194 26.0784 13.5902 26.5034 13.5902C27.133 13.5902 27.8374 13.2007 28.6166 12.4215C28.9078 12.0673 29.0534 11.7132 29.0534 11.359V4.42922L29.0888 4.3938H31.202L31.2374 4.42922V12.5632C31.2374 13.2558 31.5207 13.724 32.0874 13.968L32.5006 14.0152H33.4804L33.5159 14.0507V14.9715L33.4804 15.0069H30.8242C30.1552 15.0069 29.6358 14.637 29.2659 13.8972L29.1596 13.5312C28.0106 14.5622 26.8694 15.0777 25.7361 15.0777Z" fill="white"/>
  <path d="M14.981 15.0066L11.4394 6.58935C11.0065 5.55047 10.1683 4.97594 8.9248 4.86576V4.42896H10.8727C12.2107 4.42896 13.1236 5.00349 13.6116 6.15255L16.1261 12.0907L18.5159 6.75844H19.661L15.6657 16.1872C15.225 17.3284 14.7173 18.1115 14.1428 18.5365C13.6549 18.9142 12.9819 19.0795 12.1241 19.0323L10.9553 18.9615V17.8517C12.8993 18.1351 14.0877 17.5802 14.5206 16.1872L14.981 15.0066Z" fill="white"/>
  <path fill-rule="evenodd" clip-rule="evenodd" d="M5.13537 4.2876H2.3729L2.36109 4.2994V5.27926L2.3729 5.29106C2.65279 5.29967 2.95531 5.2829 3.26453 5.26575C4.3903 5.20334 5.60476 5.136 6.13883 6.27091C6.39246 6.97416 6.39855 7.64973 6.39855 8.38409C4.00824 8.81869 -0.00446551 9.67126 3.7301e-06 12.6813C0.00209934 14.0927 1.39873 15.0306 2.77428 15.0306C4.02566 15.0306 5.24949 14.4285 6.44578 13.2243C6.59844 14.1403 7.08345 15.1014 8.14576 15.1014H10.0228V14.4757C8.92897 14.4757 8.47631 13.9022 8.47631 12.7993V9.48165C8.10002 9.56869 6.86742 9.89067 6.39855 10.0178V12.2445C5.49244 13.379 2.37035 14.5945 2.36109 12.1264V12.1146C2.36109 10.209 4.91607 9.66993 6.39855 9.38755V9.38904C6.88268 9.29377 8.08046 9.08242 8.47631 9.01563V9.01498C9.41588 8.86876 9.87777 8.42981 9.52531 7.47741C9.39078 7.86352 9.05478 8.0173 8.47631 8.08813C8.45934 7.4444 8.40348 6.82731 8.15757 6.22369C7.65026 5.07298 6.39441 4.2876 5.13537 4.2876Z" fill="white"/>
  <path fill-rule="evenodd" clip-rule="evenodd" d="M70.1124 4.2876H67.3499L67.3381 4.2994V5.27926L67.3499 5.29106C67.6298 5.29967 67.9324 5.2829 68.2416 5.26575C69.3673 5.20334 70.5818 5.136 71.1159 6.27091C71.3695 6.97416 71.3756 7.64973 71.3756 8.38409C68.9853 8.81869 64.9726 9.67126 64.9771 12.6813C64.9792 14.0927 66.3758 15.0306 67.7513 15.0306C69.0027 15.0306 70.2265 14.4285 71.4228 13.2243C71.5755 14.1403 72.0605 15.1014 73.1228 15.1014H74.9999V14.4757C73.906 14.4757 73.4534 13.9022 73.4534 12.7993V9.48165C73.0771 9.56869 71.8445 9.89067 71.3756 10.0178V12.2445C70.4695 13.379 67.3474 14.5945 67.3381 12.1264V12.1146C67.3381 10.209 69.8931 9.66993 71.3756 9.38755V9.38904C71.8597 9.29377 73.0575 9.08242 73.4534 9.01563V9.01498C74.3929 8.86876 74.8548 8.42981 74.5024 7.47741C74.3678 7.86352 74.0318 8.0173 73.4534 8.08813C73.4364 7.4444 73.3805 6.82731 73.1346 6.22369C72.6273 5.07298 71.3715 4.2876 70.1124 4.2876Z" fill="white"/>
</svg>