<svg xmlns="http://www.w3.org/2000/svg" width="54" height="84" viewBox="0 0 54 84" fill="none">
<path d="M45.237 44.655C42.1885 43.4 38.8475 43.0316 35.5988 43.5922C42.0042 41.0208 47.6241 36.816 51.8988 31.3968C51.9879 31.278 52.0451 31.1384 52.0649 30.9912C52.0847 30.8441 52.0665 30.6944 52.012 30.5563C51.9575 30.4182 51.8686 30.2964 51.7537 30.2024C51.6387 30.1084 51.5017 30.0455 51.3555 30.0195C49.4343 29.6499 47.4576 29.6784 45.5478 30.1033C45.8525 29.8479 46.1596 29.6367 46.4564 29.3995C47.2532 28.7549 46.846 27.1137 45.6671 27.3986C41.3912 28.4455 37.3138 30.1806 33.5948 32.5361C35.4168 30.7574 37.0087 28.7574 38.3334 26.5828C44.3566 18.8617 50.1726 11.0721 53.8945 1.85629C53.9477 1.70603 53.9474 1.54195 53.8936 1.3919C53.8397 1.24186 53.7357 1.11502 53.5991 1.03288C53.4624 0.950751 53.3016 0.918381 53.1438 0.941213C52.9861 0.964045 52.841 1.04068 52.7333 1.15818C52.2561 1.54263 51.8608 2.01894 51.5708 2.55884C51.2809 3.09875 51.1022 3.6913 51.0453 4.30148C50.9194 4.59137 51.4165 4.78568 51.607 4.54538C53.9691 1.43645 50.9182 5.38764 50.5303 6.23133C48.6627 10.0309 46.467 13.6601 43.9683 17.0779C42.9262 18.5851 41.8376 20.0505 40.749 21.5159C42.0367 18.0763 42.533 14.3908 42.2012 10.7331C42.1678 10.5117 42.0522 10.3111 41.8773 10.1713C41.7025 10.0315 41.4814 9.96281 41.2581 9.97896C36.6303 10.1228 33.5624 13.2699 31.144 17.3019C31.6938 14.067 31.4507 10.7469 30.4355 7.6266C30.3803 7.50137 30.2942 7.39221 30.1854 7.30923C30.0766 7.22625 29.9485 7.17218 29.8131 7.1521C29.6778 7.13203 29.5395 7.14658 29.4113 7.19441C29.2831 7.24225 29.1691 7.32181 29.0799 7.42564C24.9577 12.0781 22.3735 17.8905 21.6809 24.0678C20.8856 19.5158 19.0805 15.1999 16.3983 11.4371C16.312 11.3206 16.1967 11.2287 16.0638 11.1706C15.9309 11.1126 15.7851 11.0903 15.641 11.1062C15.4969 11.122 15.3594 11.1754 15.2423 11.2609C15.1252 11.3465 15.0325 11.4612 14.9736 11.5937C11.9662 19.4616 13.8136 27.4564 15.2121 35.4932C13.1102 30.3733 10.0013 25.7279 6.06978 21.8325C5.94261 21.7349 5.7923 21.6718 5.63352 21.6495C5.47474 21.6272 5.31288 21.6465 5.16373 21.7053C5.01457 21.7642 4.88322 21.8606 4.78242 21.9853C4.68162 22.11 4.61483 22.2587 4.58856 22.4168C4.0872 27.3492 5.12825 32.3157 7.5682 36.6316C9.48255 40.8544 11.9323 44.8132 14.8572 48.4107C15.0842 48.6815 15.6788 48.5521 15.5848 48.1237C14.7436 44.5066 11.9382 41.0488 10.2237 37.8063C7.7739 33.8081 6.40253 29.2431 6.24348 24.5568C11.7728 30.6187 13.5711 38.0323 16.5075 45.5525C16.5149 46.1802 16.5144 46.8261 16.4777 47.4562C16.4612 47.5861 16.4971 47.7173 16.5773 47.8208C16.6576 47.9243 16.7757 47.9916 16.9056 48.0081C17.0355 48.0245 17.1667 47.9887 17.2702 47.9084C17.3737 47.8282 17.4411 47.7101 17.4575 47.5802L17.5455 47.08C17.6796 47.1921 17.8431 47.2631 18.0166 47.2846C11.8813 53.8349 5.32808 59.9809 -1.60193 65.6838C3.20682 58.0814 -1.74189 47.2109 -6.04056 40.3481C-6.13275 40.2203 -6.26101 40.123 -6.40892 40.0687C-6.55683 40.0144 -6.71763 40.0055 -6.87061 40.0433C-7.02359 40.081 -7.16176 40.1636 -7.26743 40.2805C-7.37309 40.3974 -7.4414 40.5432 -7.46357 40.6992C-9.27615 50.378 -7.08479 59.6636 -5.5352 69.1873C-10.2545 73.377 -14.589 77.9812 -18.4864 82.9446C-18.5941 83.0807 -18.6432 83.2538 -18.6231 83.4261C-18.6031 83.5984 -18.5153 83.7557 -18.3793 83.8633C-18.2433 83.9709 -18.0701 84.0201 -17.8978 84C-17.7255 83.9799 -17.5682 83.8922 -17.4606 83.7561C-12.4214 78.9456 -6.8718 74.249 -1.30882 69.4721C9.08738 69.335 19.233 68.9815 28.5873 63.8051C29.2322 63.4606 28.8348 62.4913 28.2362 62.3821C22.3622 61.5008 16.3887 61.5133 10.5185 62.4193C8.97409 62.6531 7.28953 62.9122 5.63024 63.3115C10.0167 59.3694 14.1298 55.1334 17.9409 50.6327C27.4998 53.6637 38.3551 53.5107 45.7291 45.9023C45.8217 45.7986 45.8836 45.6712 45.908 45.5343C45.9324 45.3974 45.9183 45.2565 45.8673 45.1271C45.8163 44.9978 45.7303 44.8851 45.619 44.8018C45.5078 44.7184 45.3755 44.6676 45.237 44.655ZM28.8007 44.6672C26.5531 45.0676 24.3593 45.7264 22.263 46.6305L20.5076 47.0527C20.8288 46.6107 21.1318 46.1608 21.4529 45.7188C25.4855 43.8145 29.345 41.5636 32.9881 38.9915C37.6635 35.961 43.6511 31.3469 49.5897 31.5569C44.4787 37.8221 36.7219 41.9479 28.8007 44.6672ZM31.7521 36.5812C33.9599 34.9258 36.3085 33.4669 38.7707 32.221C36.4654 33.761 34.1087 35.1711 31.7521 36.5812ZM23.7265 20.9936C24.4257 17.5931 25.714 14.3409 27.5333 11.384C30.435 6.63583 29.6419 15.2068 29.5634 15.8834C29.0917 21.2345 26.3044 26.4631 24.1596 31.303C23.7427 32.2633 25.2009 33.2196 25.8692 32.3253C25.9114 32.2506 25.9457 32.1717 25.9715 32.0898C29.4799 26.2915 31.3845 19.6244 35.832 14.3416C39.9669 9.33214 40.893 14.192 40.3527 17.6183C39.4665 21.3002 37.7936 24.7466 35.449 27.7206C33.0091 30.858 30.2571 33.7395 27.2351 36.321C28.019 34.7388 28.7228 33.1182 29.3437 31.4653C29.3602 31.3773 29.3463 31.2863 29.3044 31.2072C29.2624 31.1281 29.1949 31.0657 29.1127 31.03C29.0306 30.9944 28.9389 30.9876 28.8524 31.011C28.766 31.0343 28.6901 31.0863 28.637 31.1584C26.8171 35.1415 24.5775 38.9192 21.9563 42.4273C21.6642 42.7527 21.3438 43.0442 21.0517 43.3696L20.0865 44.0056C20.2832 43.5527 20.3711 43.0525 20.4694 42.5784C21.6573 38.9473 22.2936 35.1585 22.3569 31.3385C22.6592 27.7658 23.1137 24.3884 23.7265 20.9936ZM18.23 17.8315C19.5137 21.0488 20.2682 24.4526 20.4643 27.911C20.5891 29.5661 20.5872 31.2283 20.4586 32.8831C20.3716 33.7282 20.3027 34.5812 20.2157 35.4263C19.7752 38.6503 18.9197 41.8039 17.6705 44.8085L17.6357 44.4919C18.4861 35.3428 14.1155 26.1662 15.0753 16.9138C15.618 11.895 16.8211 14.6786 18.23 17.8315ZM-3.92443 65.9243C-3.6715 62.2013 -3.67534 58.4653 -3.93586 54.7429C-3.96207 54.2577 -4.79457 54.2408 -4.82033 54.7464C-4.95201 57.8764 -5.24197 61.0237 -5.39964 64.1639C-6.66392 57.2279 -7.01033 50.1557 -6.42993 43.1293C-2.10815 50.5835 -0.0814348 57.9671 -3.92443 65.9243ZM25.1367 63.4695C17.0813 67.1426 8.71936 67.1079 0.0577481 67.912L1.40952 66.7331C9.00637 63.9701 17.1111 62.8834 25.1675 63.5475L25.1367 63.4695ZM42.627 46.4503C41.4103 47.4905 40.0506 48.3505 38.5893 49.004C36.3774 50.0098 34.0142 50.6427 31.5956 50.8769C27.1684 51.3722 22.6865 50.9302 18.4413 49.5794C18.7074 49.2643 18.9372 48.9334 19.2033 48.6182C19.1802 48.7037 19.1787 48.7937 19.199 48.8799C19.2193 48.9661 19.2608 49.0459 19.3197 49.112C19.3786 49.1782 19.453 49.2287 19.5363 49.2589C19.6195 49.2891 19.709 49.2981 19.7966 49.285C27.4293 47.7757 34.4105 44.196 42.4563 45.2564C44.3852 45.4265 44.4429 45.8391 42.6577 46.5283L42.627 46.4503Z" fill="white"/>
</svg>