<svg width="264" height="44" viewBox="0 0 264 44" fill="none" xmlns="http://www.w3.org/2000/svg">
<path d="M42.6747 29.3947C42.6545 29.3704 42.6377 29.3435 42.6247 29.3147C42.6109 29.1817 42.5593 29.0555 42.476 28.951C42.3927 28.8464 42.2812 28.7679 42.1547 28.7247C41.8339 28.5957 41.4756 28.5957 41.1547 28.7247C40.9758 28.8125 40.8161 28.9349 40.6847 29.0847C40.6223 29.1583 40.5686 29.2388 40.5247 29.3247C40.481 29.4201 40.4508 29.521 40.4347 29.6247C40.4015 29.7989 40.4057 29.9781 40.4471 30.1505C40.4885 30.3229 40.5661 30.4846 40.6747 30.6247C40.7993 30.7859 40.963 30.9128 41.1502 30.9932C41.3374 31.0737 41.542 31.1052 41.7447 31.0847C41.8412 31.0767 41.9358 31.0531 42.0247 31.0147C42.1205 30.9802 42.2113 30.9331 42.2947 30.8747C42.4111 30.7918 42.5097 30.6864 42.5847 30.5647C42.6411 30.4836 42.6881 30.3964 42.7247 30.3047C42.7575 30.2071 42.7809 30.1067 42.7947 30.0047C42.8095 29.7943 42.7681 29.5838 42.6747 29.3947Z" fill="white"/>
<path d="M116.895 14.1843C112.529 13.6146 108.126 13.3939 103.725 13.5243C103.115 10.9601 101.799 8.61823 99.9249 6.76436C98.1101 4.86453 95.8374 3.46303 93.3249 2.69436C92.2049 2.35436 90.8349 2.01436 89.7649 2.69436C88.6949 3.37436 88.6449 4.85434 89.0849 5.99434C90.2354 8.48168 92.1337 10.5478 94.5149 11.9043C95.8076 12.6922 97.2093 13.2852 98.6749 13.6644L99.1549 13.7644C97.0283 13.911 94.9083 14.1277 92.7949 14.4144C91.7683 14.5544 90.7383 14.7143 89.7049 14.8943C88.949 14.3281 88.1383 13.839 87.2849 13.4343C86.0424 12.8013 84.7434 12.2857 83.4049 11.8943C80.8529 11.1379 78.1951 10.8002 75.5349 10.8943C74.4839 10.8232 73.4419 11.128 72.5949 11.7544C72.2338 12.1112 72.0016 12.5779 71.9346 13.0811C71.8676 13.5843 71.9697 14.0955 72.2249 14.5344C73.3449 16.7344 76.2249 16.9544 78.3549 16.9144C79.1749 16.9144 79.9949 16.8644 80.8149 16.8244C78.7549 17.3577 76.7049 17.9377 74.6649 18.5644C73.038 17.625 71.3016 16.8894 69.4949 16.3743C67.6039 15.7667 65.5965 15.6126 63.6349 15.9243C63.259 15.9574 62.8957 16.0765 62.5732 16.2725C62.2506 16.4684 61.9775 16.7359 61.7749 17.0543C61.6075 17.3557 61.5538 17.7072 61.6235 18.0449C61.6932 18.3825 61.8818 18.6839 62.1549 18.8943C62.8913 19.3421 63.7114 19.6347 64.5649 19.7544C65.5155 19.973 66.4818 20.1168 67.4549 20.1843C68.2508 20.2343 69.049 20.2343 69.8449 20.1843L69.6749 20.2443C67.9749 20.8443 66.2949 21.4643 64.6049 22.0843C64.0849 21.8843 63.6049 21.7243 63.0249 21.5543C62.9601 21.5177 62.8888 21.494 62.8149 21.4844C61.8816 21.1977 60.9516 20.9277 60.0249 20.6743C58.5249 20.2543 57.0249 19.8844 55.4949 19.6044C52.3377 18.945 49.0847 18.8839 45.9049 19.4243C45.3745 19.4643 44.8601 19.6247 44.4009 19.8933C43.9417 20.1619 43.5498 20.5316 43.2549 20.9744C43.062 21.5028 43.0694 22.0836 43.2758 22.607C43.4822 23.1303 43.8732 23.5599 44.3749 23.8144C45.6849 24.4128 47.1049 24.7329 48.5449 24.7544C51.6025 25.0825 54.6888 25.0354 57.7349 24.6143C54.3049 25.8843 50.8649 27.1243 47.3749 28.2143L45.7049 28.7044C43.8724 27.5785 41.8318 26.8337 39.7049 26.5144C37.4504 26.1046 35.1453 26.0539 32.8749 26.3643C32.0049 26.4743 30.7749 26.5343 30.2749 27.3643C30.1035 27.7503 30.0717 28.1838 30.1848 28.5906C30.2979 28.9974 30.5489 29.3523 30.8949 29.5944C32.3649 30.9244 34.5149 30.9344 36.3649 30.8544H36.7049C33.8925 31.3478 31.0488 31.6419 28.1949 31.7344C27.9327 30.5026 27.5056 29.3119 26.9249 28.1944C26.369 26.9655 25.724 25.779 24.9949 24.6443C24.2481 23.4846 23.4122 22.3846 22.4949 21.3544C21.6674 20.2513 20.6139 19.3376 19.4049 18.6743C18.8983 18.4451 18.3304 18.3885 17.7885 18.5131C17.2466 18.6378 16.7605 18.9368 16.4049 19.3643C16.0379 19.8717 15.7951 20.4582 15.6961 21.0765C15.5971 21.6948 15.6447 22.3277 15.8349 22.9243C16.4863 25.3279 17.7791 27.5091 19.5749 29.2344C20.5179 30.1616 21.5807 30.9587 22.7349 31.6044C17.1409 31.245 11.6871 29.7009 6.73493 27.0744C5.97493 26.6844 5.23493 26.2743 4.51493 25.8343C4.40952 25.7735 4.28554 25.7533 4.16626 25.7774C4.04697 25.8014 3.94056 25.8682 3.86696 25.9651C3.79336 26.062 3.75762 26.1824 3.76646 26.3038C3.77529 26.4251 3.82808 26.5391 3.91493 26.6243C8.50506 30.117 13.9538 32.3042 19.6849 32.9544C19.0649 33.1544 18.4649 33.3943 17.8849 33.6443C16.1215 34.4004 14.5167 35.4827 13.1549 36.8343C12.8385 37.0797 12.6188 37.429 12.5347 37.8205C12.4505 38.2119 12.5073 38.6206 12.6949 38.9744C12.9597 39.2947 13.3177 39.5246 13.7191 39.6321C14.1205 39.7397 14.5455 39.7195 14.9349 39.5744C16.828 39.0233 18.6329 38.205 20.2949 37.1443C21.2572 36.5711 22.1794 35.9329 23.0549 35.2344C23.8128 34.6904 24.5161 34.0742 25.1549 33.3943C28.4739 33.4715 31.7933 33.2573 35.0749 32.7544C34.0762 33.1403 33.1098 33.605 32.1849 34.1443C30.0849 35.3943 27.9149 37.2943 27.1349 39.6843C26.8596 40.1941 26.7691 40.7834 26.8787 41.3523C26.9883 41.9212 27.2914 42.4346 27.7365 42.8055C28.1815 43.1764 28.7412 43.3819 29.3205 43.3872C29.8999 43.3924 30.4632 43.1971 30.9149 42.8343C32.0912 42.2079 33.2031 41.4677 34.2349 40.6243C35.3293 39.7892 36.3713 38.8875 37.3549 37.9243C38.4249 36.8936 39.427 35.7946 40.3549 34.6344C41.2451 33.5716 42.032 32.4264 42.7049 31.2143L43.8349 30.9243C46.6349 30.1543 49.3949 29.2744 52.1249 28.3244C51.4783 28.761 50.8604 29.2386 50.2749 29.7544C48.4844 31.2998 47.2076 33.3545 46.6149 35.6443C46.4049 36.5643 46.3549 37.7544 47.2349 38.3544C48.1149 38.9544 49.3349 38.2844 50.1349 37.7244C54.3102 34.7401 57.522 30.6003 59.3749 25.8144C59.3838 25.7513 59.3838 25.6874 59.3749 25.6243L66.1549 23.0444L67.8849 22.4144C64.9034 24.2291 62.4109 26.7455 60.6249 29.7443C59.9349 30.9043 59.1949 32.3543 59.9949 33.6543C60.7949 34.9543 62.3249 34.6543 63.4349 33.9643C66.0292 32.3424 68.3624 30.3362 70.3549 28.0144C71.5046 26.7099 72.5479 25.3154 73.4749 23.8444C73.9249 23.1344 74.3549 22.4043 74.7449 21.6543C75.0965 21.0531 75.3911 20.4204 75.6249 19.7644C78.0449 19.0044 80.4849 18.2943 82.9549 17.6843C82.2487 18.1442 81.58 18.6592 80.9549 19.2244C79.2358 20.7712 77.8976 22.6947 77.0449 24.8444C76.4649 26.3144 75.2249 30.2244 78.0449 30.1644C79.3249 30.1644 80.1949 28.9944 80.9649 28.1644C81.8657 27.1435 82.707 26.0717 83.4849 24.9544C85.2595 22.4241 86.7265 19.6915 87.8549 16.8144C87.863 16.7546 87.863 16.6941 87.8549 16.6344L89.2149 16.3643C91.4349 15.971 93.6649 15.6377 95.9049 15.3643C94.672 15.9523 93.511 16.6804 92.4449 17.5344C90.3689 19.1434 88.7743 21.2914 87.8349 23.7443C87.3438 24.8483 87.1773 26.0693 87.3549 27.2644C87.4048 27.5389 87.5096 27.8005 87.6631 28.0335C87.8166 28.2665 88.0156 28.466 88.2482 28.6201C88.4808 28.7743 88.7421 28.8798 89.0165 28.9303C89.2909 28.9809 89.5727 28.9755 89.8449 28.9144C91.1877 28.4499 92.3962 27.6637 93.3649 26.6243C94.4029 25.6972 95.3382 24.6613 96.1549 23.5344C97.9949 21.0089 99.2176 18.0875 99.7249 15.0044C104.339 14.6344 108.97 14.5443 113.595 14.7344C114.595 14.7844 115.655 14.7843 116.695 14.8343C116.781 14.8609 116.874 14.8521 116.954 14.8099C117.034 14.7677 117.093 14.6956 117.12 14.6094C117.146 14.5232 117.138 14.4299 117.095 14.3502C117.053 14.2705 116.981 14.2109 116.895 14.1843ZM26.2449 31.7244C25.8049 31.7244 25.3749 31.7244 24.9349 31.7244C21.4817 30.4017 18.6921 27.7666 17.1749 24.3943C16.5526 23.2785 16.3437 21.979 16.5849 20.7244C16.6963 20.3629 16.9078 20.0405 17.1949 19.7944C17.1949 19.7944 17.1949 19.7944 17.1949 19.8544C17.6379 21.0987 18.2253 22.2868 18.9449 23.3943C19.6444 24.562 20.4264 25.6782 21.2849 26.7344C22.8247 28.6087 24.5878 30.2878 26.5349 31.7344L26.2449 31.7244ZM21.8149 26.2644C21.0094 25.2936 20.2678 24.2714 19.5949 23.2044C18.8649 22.0444 18.3149 20.8043 17.6449 19.6143C17.6187 19.5735 17.5802 19.542 17.5349 19.5243C17.8435 19.3767 18.1857 19.3137 18.5266 19.3418C18.8675 19.37 19.1948 19.4882 19.4749 19.6843C20.4528 20.3789 21.3223 21.2147 22.0549 22.1644C22.8214 23.0509 23.5296 23.9861 24.1749 24.9643C24.921 26.0873 25.5892 27.2601 26.1749 28.4744C26.4649 29.0944 26.7349 29.7344 26.9849 30.3743C27.0849 30.6444 27.1849 30.9144 27.2749 31.1944C25.2437 29.8013 23.4075 28.1433 21.8149 26.2644ZM27.9349 39.8144C28.8635 37.7137 30.4546 35.975 32.4649 34.8643C34.3632 33.8026 36.3761 32.9606 38.4649 32.3544L37.6149 33.0344C36.4449 33.9444 35.3249 34.8943 34.2249 35.8743C32.0012 37.7159 29.9889 39.7986 28.2249 42.0843C27.9789 41.766 27.8223 41.3878 27.7714 40.9888C27.7204 40.5897 27.7769 40.1843 27.9349 39.8144ZM40.2149 33.2743C39.5219 34.212 38.7809 35.1132 37.9949 35.9744C36.3967 37.725 34.6167 39.3005 32.6849 40.6743C31.7673 41.467 30.6945 42.0597 29.5349 42.4144C29.2241 42.4839 28.8993 42.4559 28.6049 42.3343C29.6049 41.3943 30.4749 40.3343 31.4349 39.4043C32.3949 38.4743 33.5249 37.3543 34.6249 36.4043C35.7249 35.4543 36.7849 34.6244 37.9049 33.7844L39.7049 32.4943L41.0349 31.6143L41.3949 31.5344C41.0149 32.0744 40.6349 32.6644 40.2149 33.2344V33.2743ZM46.8449 20.1644C49.6453 19.7805 52.4897 19.8582 55.2649 20.3943C56.4749 20.6043 57.6749 20.8743 58.8649 21.1843C56.9249 21.0743 54.9849 20.9944 53.0549 20.9744C51.4849 20.9744 49.9249 20.9743 48.3549 21.0243C46.9326 21.0231 45.5121 21.1267 44.1049 21.3343C44.5049 20.4143 46.0549 20.2444 46.8449 20.1243V20.1644ZM59.3749 23.3144C58.0022 23.566 56.6168 23.7429 55.2249 23.8444C52.4449 24.0429 49.6515 23.9356 46.8949 23.5243C45.9549 23.3843 44.1249 23.0944 44.0049 21.8844C45.3549 21.9744 46.7249 21.8844 48.0749 21.8144C49.7349 21.8144 51.3849 21.7644 53.0749 21.8144C56.2849 21.8144 59.5049 22.0444 62.7049 22.3544C62.78 22.3763 62.8598 22.3763 62.9349 22.3544L63.4349 22.5044C62.0849 22.5744 60.7449 23.0644 59.3749 23.3144ZM73.1749 22.5444C72.4865 23.693 71.7284 24.7984 70.9049 25.8544C69.2266 28.021 67.2774 29.9635 65.1049 31.6344C64.5949 32.0144 64.1049 32.3943 63.5549 32.7443C63.0049 33.0943 62.1849 33.7444 61.4349 33.5644C61.1311 33.457 60.8794 33.2382 60.7309 32.9523C60.5823 32.6663 60.548 32.3346 60.6349 32.0243C60.8207 31.2448 61.1607 30.5103 61.6349 29.8643C63.0117 27.6557 64.7768 25.7144 66.8449 24.1344C68.8293 22.6384 71.0407 21.4702 73.3949 20.6743C71.1064 22.2437 68.9733 24.0285 67.0249 26.0044C65.912 27.1123 64.8572 28.2772 63.8649 29.4943C63.3849 30.0943 62.9249 30.7043 62.4749 31.3343C61.9693 31.8874 61.5875 32.542 61.3549 33.2544C61.3549 33.4644 61.5649 33.5643 61.7249 33.4643C62.267 32.9876 62.7207 32.4189 63.0649 31.7844C63.5249 31.1644 63.9949 30.5643 64.4849 29.9643C65.4951 28.7127 66.5734 27.5175 67.7149 26.3844C69.5669 24.5657 71.5746 22.9127 73.7149 21.4444C73.6049 21.8144 73.3749 22.1944 73.2049 22.5444H73.1749ZM86.6349 15.3244L84.6949 15.5543C83.3549 15.6943 82.0149 15.7943 80.6949 15.8743C78.5249 15.9943 75.6949 16.3944 73.8149 15.0144C73.0249 14.4444 72.3049 13.1643 73.2049 12.3643C73.9249 11.7143 75.2049 11.7743 76.0749 11.7743C78.444 11.7716 80.8013 12.1084 83.0749 12.7743C84.2007 13.1155 85.3031 13.5297 86.3749 14.0144C85.9349 13.8844 85.4849 13.7643 85.0449 13.6543C83.7049 13.3343 82.3549 13.0744 80.9949 12.8844C79.6349 12.6944 78.3549 12.5744 76.9949 12.5144C76.3349 12.5144 75.6749 12.4644 74.9949 12.5144C74.3524 12.4497 73.7035 12.5282 73.0949 12.7443C73.0628 12.7583 73.0355 12.7814 73.0163 12.8107C72.9971 12.84 72.9869 12.8743 72.9869 12.9094C72.9869 12.9444 72.9971 12.9786 73.0163 13.008C73.0355 13.0373 73.0628 13.0604 73.0949 13.0744C73.6774 13.2332 74.2835 13.2874 74.8849 13.2344C75.5049 13.2344 76.1349 13.2344 76.7549 13.2844C78.0949 13.3444 79.4149 13.4643 80.7549 13.6543C82.0949 13.8443 83.3149 14.0743 84.5749 14.3743C85.2249 14.5243 85.8749 14.6944 86.5149 14.8844C86.8349 14.9744 87.1949 15.1444 87.5649 15.2344C87.2949 15.2344 86.9849 15.2844 86.6649 15.3244H86.6349ZM88.3749 26.9943C88.235 25.8988 88.4193 24.7863 88.9049 23.7944C89.7597 21.6764 91.1356 19.8086 92.9049 18.3643C93.9004 17.539 94.9875 16.831 96.1449 16.2544C96.6905 15.9878 97.2515 15.7541 97.8249 15.5543L97.5949 15.7743C97.0883 16.2343 96.5983 16.7143 96.1249 17.2143C95.0829 18.2615 94.1044 19.3702 93.1949 20.5344C92.308 21.6723 91.4931 22.8647 90.7549 24.1044C90.3883 24.7244 90.0549 25.3543 89.7549 25.9943C89.4159 26.564 89.1536 27.176 88.9749 27.8144C88.8197 27.7316 88.6852 27.6149 88.5813 27.4729C88.4774 27.3309 88.4069 27.1673 88.3749 26.9943ZM91.3749 27.0444C90.8001 27.5132 90.1089 27.8173 89.3749 27.9243C89.6779 27.4498 89.9485 26.9553 90.1849 26.4444C90.5449 25.7644 90.9149 25.1044 91.3149 24.4444C92.0468 23.2388 92.8482 22.0769 93.7149 20.9643C94.5811 19.8502 95.5162 18.7915 96.5149 17.7944C97.0249 17.2844 97.5649 16.7943 98.1049 16.3343C98.2449 16.2143 98.3949 16.1044 98.5549 15.9844C97.5586 20.4099 95.0118 24.333 91.3749 27.0444ZM99.6649 12.8743C98.4888 12.6512 97.3461 12.2782 96.2649 11.7644C94.0831 10.7384 92.2077 9.1594 90.8249 7.18435C90.2 6.43654 89.8073 5.5224 89.6949 4.55434C90.0125 4.78549 90.3467 4.99272 90.6949 5.17434C91.2549 5.50434 91.8149 5.83434 92.3649 6.17434C93.5049 6.88434 94.6149 7.63435 95.6949 8.43435C96.7749 9.23435 97.7649 10.0243 98.6949 10.8743C99.5049 11.5743 100.255 12.3343 101.035 13.0543C100.588 13.0209 100.144 12.9608 99.7049 12.8743H99.6649ZM102.355 13.1344C102.335 13.0923 102.312 13.0521 102.285 13.0144C101.406 12.048 100.453 11.1519 99.4349 10.3343C98.4349 9.44434 97.3149 8.58434 96.1949 7.77434C95.0749 6.96434 93.9949 6.24436 92.8549 5.54436C92.3249 5.22436 91.8049 4.90434 91.2649 4.61434C90.8269 4.31685 90.3392 4.10012 89.8249 3.97435C89.8275 3.94775 89.8275 3.92094 89.8249 3.89434C90.4449 2.79434 92.2249 3.37436 93.1449 3.66436C95.3192 4.37994 97.3024 5.58013 98.9449 7.17434C100.633 8.86869 101.921 10.9186 102.715 13.1743C102.603 13.1535 102.489 13.1402 102.375 13.1344H102.355Z" fill="white"/>
<path d="M3.37488 23.0145C3.22748 22.8062 3.03678 22.6322 2.81584 22.5044C2.59491 22.3767 2.34897 22.2983 2.09488 22.2745C1.84294 22.2586 1.59102 22.3061 1.36217 22.4126C1.13332 22.5192 0.934841 22.6814 0.784881 22.8845C0.411783 23.107 0.139391 23.4655 0.0248786 23.8845C-0.0544797 24.3688 0.057672 24.865 0.337615 25.2681C0.617558 25.6713 1.04334 25.9497 1.52488 26.0445C1.76976 26.0853 2.02042 26.0753 2.26127 26.0151C2.50211 25.9549 2.728 25.8457 2.92488 25.6945C3.3324 25.3843 3.61319 24.9365 3.71487 24.4345C3.75692 24.1871 3.74847 23.9338 3.69004 23.6897C3.63161 23.4457 3.52441 23.216 3.37488 23.0145Z" fill="white"/>
<path d="M6.10461 23.2447C6.08347 23.0801 6.01776 22.9246 5.9146 22.7947L5.74461 22.6247C5.6078 22.527 5.45045 22.462 5.28461 22.4347C5.16311 22.4046 5.03611 22.4046 4.91461 22.4347C4.79346 22.461 4.68033 22.5159 4.58461 22.5947C4.4847 22.6662 4.40538 22.7628 4.35461 22.8747C4.27691 22.9755 4.23158 23.0976 4.22461 23.2247V23.4847C4.25133 23.6464 4.32033 23.7982 4.42461 23.9247L4.59461 24.0947C4.72809 24.1982 4.88699 24.2638 5.05461 24.2847C5.1755 24.3194 5.30373 24.3194 5.42461 24.2847C5.54787 24.2647 5.66258 24.209 5.75462 24.1247C5.85414 24.057 5.93359 23.9637 5.98461 23.8547C6.05402 23.7466 6.09527 23.6228 6.10461 23.4947V23.2447Z" fill="white"/>
<path d="M3.47501 19.8145C2.70501 19.8145 2.54501 21.0045 3.32501 21.0045C4.10501 21.0045 4.24501 19.8145 3.47501 19.8145Z" fill="white"/>
<path d="M10.8246 32.9143L10.7646 32.8443C10.6063 32.7042 10.4204 32.5989 10.2189 32.5351C10.0173 32.4714 9.80464 32.4507 9.59458 32.4743C9.35387 32.5069 9.12429 32.596 8.92459 32.7343C8.77364 32.8335 8.64157 32.9588 8.53459 33.1043C8.42292 33.2495 8.33514 33.4115 8.27458 33.5843C8.19632 33.8194 8.16242 34.0669 8.17459 34.3143C8.16967 34.3742 8.16967 34.4344 8.17459 34.4943C8.20045 34.6141 8.23727 34.7313 8.28459 34.8443C8.39454 35.0628 8.54762 35.2567 8.73458 35.4143C8.82592 35.4904 8.92677 35.5543 9.03459 35.6043C9.09058 35.6392 9.15115 35.6661 9.21458 35.6843C9.39163 35.7491 9.57666 35.7894 9.76458 35.8043C10.0188 35.8071 10.2719 35.77 10.5146 35.6943C10.6874 35.6338 10.8494 35.546 10.9946 35.4343C11.208 35.2612 11.376 35.0387 11.4841 34.7861C11.5921 34.5334 11.6369 34.2582 11.6146 33.9843C11.5894 33.752 11.503 33.5305 11.3642 33.3426C11.2254 33.1546 11.0392 33.0068 10.8246 32.9143Z" fill="white"/>
<path d="M14.1849 33.4443C14.1643 33.2983 14.1057 33.1604 14.0149 33.0443L13.8649 32.8942C13.7444 32.8063 13.6031 32.7511 13.4549 32.7343C13.3469 32.7045 13.2329 32.7045 13.1249 32.7343C13.0188 32.7581 12.9196 32.806 12.8349 32.8743C12.7496 32.9408 12.681 33.0264 12.6349 33.1243C12.5719 33.2162 12.5339 33.3231 12.5249 33.4343V33.6543C12.5455 33.8002 12.6041 33.9381 12.6949 34.0542L12.8449 34.2043C12.9654 34.2923 13.1067 34.3474 13.2549 34.3642C13.3629 34.3941 13.4769 34.3941 13.5849 34.3642C13.691 34.3404 13.7902 34.2925 13.8749 34.2243C13.9603 34.1578 14.0288 34.0721 14.0749 33.9743C14.138 33.8823 14.1759 33.7754 14.1849 33.6643V33.4443Z" fill="white"/>
<path d="M40.9251 21.8149C40.8317 21.3637 40.597 20.9539 40.2551 20.6449C39.902 20.3381 39.4418 20.1835 38.9751 20.2149C38.575 20.3129 38.1911 20.4678 37.8351 20.6749C37.4777 20.951 37.2441 21.3572 37.1851 21.8049C37.1332 22.2257 37.2244 22.6517 37.4438 23.0144C37.6633 23.3772 37.9983 23.6556 38.3951 23.8049C38.824 23.9447 39.2862 23.9447 39.7151 23.8049C40.0798 23.6747 40.3968 23.4378 40.6251 23.1249C40.8914 22.7438 40.999 22.274 40.9251 21.8149Z" fill="white"/>
<path d="M36.3748 22.894C36.3542 22.7481 36.2956 22.6101 36.2048 22.494L36.0548 22.344C35.9349 22.2533 35.7938 22.1947 35.6448 22.174C35.5329 22.149 35.4168 22.149 35.3048 22.174C35.1979 22.1956 35.0982 22.2438 35.0148 22.314C34.9244 22.3778 34.852 22.464 34.8048 22.564C34.7433 22.6568 34.7056 22.7633 34.6948 22.874V23.104C34.7215 23.2482 34.7795 23.3848 34.8648 23.504L35.0248 23.654C35.1447 23.7448 35.2859 23.8033 35.4348 23.824C35.5427 23.8544 35.6569 23.8544 35.7648 23.824C35.8731 23.8009 35.9733 23.749 36.0548 23.674C36.1524 23.6185 36.2269 23.5298 36.2648 23.424C36.3322 23.3343 36.3706 23.2262 36.3748 23.114V22.894Z" fill="white"/>
<path d="M73.3746 29.1241C73.3479 28.9642 73.2827 28.8132 73.1846 28.6841L73.0146 28.5141C72.8788 28.4166 72.7206 28.3547 72.5546 28.3341C72.4331 28.304 72.3061 28.304 72.1846 28.3341C72.0665 28.3604 71.9566 28.4154 71.8647 28.4941C71.7622 28.5629 71.6822 28.6602 71.6346 28.7741C71.5656 28.875 71.5243 28.9922 71.5146 29.1141V29.3741C71.5375 29.5351 71.6031 29.687 71.7047 29.8141L71.8746 29.9841C72.0054 30.0841 72.161 30.1464 72.3246 30.1641C72.4455 30.1988 72.5738 30.1988 72.6947 30.1641C72.8134 30.1457 72.9245 30.0936 73.0146 30.0141C73.2018 29.8504 73.3286 29.6285 73.3746 29.3841V29.1241Z" fill="white"/>
<path d="M105.375 17.2046C105.11 16.8279 104.708 16.5697 104.255 16.4846C104.032 16.4326 103.8 16.4297 103.575 16.4764C103.351 16.523 103.139 16.6179 102.955 16.7546C102.773 16.8923 102.622 17.0668 102.512 17.2666C102.401 17.4664 102.334 17.6872 102.315 17.9146C102.289 18.1681 102.32 18.4242 102.405 18.6646C102.458 18.8233 102.543 18.9696 102.655 19.0946C102.754 19.2454 102.88 19.3774 103.025 19.4846C103.243 19.64 103.496 19.738 103.762 19.7695C104.028 19.8009 104.297 19.7649 104.545 19.6646C104.77 19.574 104.975 19.4388 105.147 19.2669C105.319 19.095 105.454 18.8901 105.545 18.6646C105.639 18.426 105.672 18.1679 105.643 17.9133C105.613 17.6586 105.521 17.4152 105.375 17.2046Z" fill="white"/>
<path d="M107.485 16.0841C107.46 15.9455 107.401 15.8152 107.315 15.7041L107.165 15.5541C107.052 15.4664 106.917 15.4111 106.775 15.3941C106.669 15.3738 106.56 15.3738 106.455 15.3941C106.35 15.4137 106.253 15.4622 106.175 15.5341C106.085 15.5917 106.015 15.6755 105.975 15.7741C105.913 15.8632 105.875 15.9664 105.865 16.0741V16.2941C105.885 16.434 105.944 16.5654 106.035 16.6741L106.185 16.8241C106.297 16.9132 106.432 16.9686 106.575 16.9841C106.679 17.0141 106.79 17.0141 106.895 16.9841C106.998 16.966 107.094 16.9211 107.175 16.8541C107.26 16.7919 107.329 16.7094 107.375 16.6141C107.436 16.5213 107.474 16.4149 107.485 16.3041V16.0841Z" fill="white"/>
<path d="M146.375 14.8142C147.375 14.7642 148.445 14.7642 149.475 14.7142C154.099 14.5241 158.731 14.6143 163.345 14.9842C163.849 18.0665 165.068 20.9879 166.905 23.5142C167.727 24.6364 168.662 25.6718 169.695 26.6042C170.669 27.6415 171.88 28.4272 173.225 28.8942C173.496 28.9552 173.778 28.9606 174.051 28.9099C174.325 28.8593 174.586 28.7536 174.817 28.5994C175.049 28.4452 175.247 28.2456 175.4 28.0127C175.552 27.7798 175.656 27.5183 175.705 27.2442C175.892 26.0492 175.725 24.8254 175.225 23.7242C174.29 21.2718 172.698 19.1235 170.625 17.5142C169.557 16.6625 168.396 15.9345 167.165 15.3442C169.395 15.6042 171.635 15.9242 173.845 16.3442C174.305 16.4242 174.755 16.5242 175.215 16.6142C175.207 16.6739 175.207 16.7345 175.215 16.7942C176.344 19.6692 177.807 22.4013 179.575 24.9342C180.353 26.0515 181.194 27.1233 182.095 28.1442C182.875 29.0142 183.745 30.1442 185.025 30.1442C187.875 30.2042 186.635 26.2942 186.025 24.8242C184.826 21.8964 182.769 19.4001 180.125 17.6642C182.585 18.2742 185.025 18.9842 187.455 19.7442C187.689 20.3982 187.981 21.0306 188.325 21.6342C188.725 22.3842 189.155 23.1142 189.605 23.8242C190.529 25.2975 191.572 26.6922 192.725 27.9942C194.713 30.3206 197.047 32.3274 199.645 33.9442C200.755 34.6042 202.295 34.9442 203.085 33.6342C203.875 32.3242 203.145 30.8842 202.455 29.7242C200.669 26.7254 198.176 24.2089 195.195 22.3942L196.925 23.0242L203.705 25.6042C203.691 25.6668 203.691 25.7316 203.705 25.7942C205.57 30.5958 208.812 34.7392 213.025 37.7042C213.825 38.2642 214.965 38.9842 215.925 38.3342C216.885 37.6842 216.755 36.5442 216.545 35.6242C215.952 33.3319 214.671 31.2762 212.875 29.7342C212.295 29.2162 211.68 28.7384 211.035 28.3042C213.765 29.2542 216.525 30.1342 219.325 30.9042L220.455 31.1942C221.124 32.4085 221.911 33.5539 222.805 34.6142C223.733 35.7745 224.735 36.8734 225.805 37.9042C226.787 38.8648 227.826 39.7664 228.915 40.6042C229.961 41.4471 231.086 42.1872 232.275 42.8142C232.726 43.177 233.29 43.3723 233.869 43.367C234.448 43.3617 235.008 43.1563 235.453 42.7854C235.898 42.4145 236.201 41.901 236.311 41.3321C236.421 40.7632 236.33 40.174 236.055 39.6642C235.275 37.2742 233.105 35.3742 231.005 34.1242C230.077 33.5829 229.108 33.1181 228.105 32.7342C231.39 33.2369 234.712 33.4511 238.035 33.3742C238.671 34.0564 239.375 34.6728 240.135 35.2142C241.01 35.9128 241.932 36.5509 242.895 37.1242C244.554 38.1829 246.356 39.0011 248.245 39.5542C248.635 39.7016 249.063 39.723 249.466 39.6154C249.87 39.5078 250.229 39.2766 250.495 38.9542C250.682 38.6005 250.739 38.1918 250.655 37.8003C250.571 37.4088 250.351 37.0596 250.035 36.8142C248.673 35.4626 247.068 34.3803 245.305 33.6242C244.725 33.3742 244.125 33.1342 243.505 32.9342C249.236 32.284 254.685 30.0969 259.275 26.6042C259.362 26.519 259.414 26.405 259.423 26.2836C259.432 26.1623 259.396 26.0418 259.323 25.9449C259.249 25.848 259.143 25.7813 259.023 25.7572C258.904 25.7331 258.78 25.7534 258.675 25.8142C257.945 26.2542 257.205 26.6642 256.455 27.0542C251.503 29.6813 246.049 31.2254 240.455 31.5842C241.612 30.9387 242.678 30.1417 243.625 29.2142C245.417 27.4865 246.71 25.3062 247.365 22.9042C247.554 22.3068 247.6 21.6735 247.499 21.0551C247.398 20.4368 247.153 19.8507 246.785 19.3442C246.431 18.9139 245.945 18.6127 245.402 18.4879C244.86 18.363 244.291 18.4215 243.785 18.6542C242.576 19.3175 241.522 20.2312 240.695 21.3342C238.88 23.3764 237.386 25.6827 236.265 28.1742C235.679 29.2896 235.252 30.481 234.995 31.7142C232.138 31.6212 229.291 31.3271 226.475 30.8342H226.815C228.675 30.9142 230.815 30.9042 232.285 29.5742C232.631 29.3323 232.883 28.9781 232.998 28.5716C233.112 28.1652 233.083 27.7315 232.915 27.3442C232.405 26.5042 231.185 26.4442 230.315 26.3442C228.041 26.0339 225.733 26.0845 223.475 26.4942C221.348 26.8135 219.307 27.5584 217.475 28.6842L215.805 28.1942C212.315 27.1042 208.865 25.8642 205.435 24.5942C208.484 25.0154 211.574 25.0625 214.635 24.7342C216.075 24.7127 217.495 24.3926 218.805 23.7942C219.315 23.5353 219.71 23.0965 219.916 22.5627C220.121 22.0288 220.12 21.4379 219.915 20.9042C219.622 20.4617 219.232 20.0919 218.774 19.8233C218.317 19.5547 217.804 19.3942 217.275 19.3542C214.092 18.8137 210.835 18.8747 207.675 19.5342C206.155 19.8142 204.675 20.1842 203.155 20.6042C202.225 20.8542 201.285 21.1242 200.355 21.4142C200.281 21.4238 200.21 21.4476 200.145 21.4842C199.615 21.6542 199.075 21.8142 198.565 22.0142C196.875 21.3942 195.195 20.7742 193.495 20.1742L193.315 20.1142C194.114 20.1642 194.916 20.1642 195.715 20.1142C196.688 20.0459 197.654 19.9021 198.605 19.6842C199.458 19.5646 200.278 19.272 201.015 18.8242C201.288 18.6138 201.476 18.3124 201.546 17.9747C201.616 17.6371 201.562 17.2856 201.395 16.9842C201.19 16.6679 200.916 16.4019 200.594 16.2062C200.272 16.0105 199.91 15.8902 199.535 15.8542C197.573 15.5425 195.566 15.6966 193.675 16.3042C191.866 16.8211 190.126 17.5565 188.495 18.4942C186.495 17.8675 184.445 17.2875 182.345 16.7542C183.165 16.7542 183.985 16.8342 184.805 16.8442C186.985 16.8442 189.805 16.6642 190.945 14.4642C191.197 14.0238 191.297 13.5124 191.228 13.0096C191.159 12.5067 190.926 12.0407 190.565 11.6842C189.719 11.0563 188.676 10.7513 187.625 10.8242C184.965 10.7315 182.307 11.0692 179.755 11.8242C178.417 12.2189 177.119 12.7343 175.875 13.3642C175.026 13.7712 174.219 14.2603 173.465 14.8242C172.465 14.6442 171.405 14.4842 170.365 14.3442C168.265 14.0642 166.135 13.8442 164.015 13.6942L164.485 13.5942C165.953 13.2152 167.359 12.6221 168.655 11.8342C171.035 10.4797 172.931 8.4127 174.075 5.92419C174.525 4.78419 174.565 3.34421 173.395 2.62421C172.225 1.90421 170.955 2.30421 169.845 2.62421C167.33 3.39502 165.055 4.79608 163.235 6.69421C161.367 8.55126 160.055 10.8923 159.445 13.4542C155.044 13.3232 150.64 13.5439 146.275 14.1142C146.229 14.1208 146.185 14.1363 146.145 14.16C146.105 14.1836 146.07 14.2149 146.042 14.2521C146.014 14.2892 145.994 14.3315 145.982 14.3765C145.971 14.4214 145.968 14.4683 145.975 14.5142C145.981 14.5602 145.997 14.6044 146.021 14.6443C146.044 14.6843 146.075 14.7192 146.113 14.747C146.15 14.7749 146.192 14.7952 146.237 14.8067C146.282 14.8182 146.329 14.8208 146.375 14.8142ZM236.675 31.7542C238.62 30.305 240.382 28.6262 241.925 26.7542C242.783 25.698 243.565 24.5818 244.265 23.4142C244.981 22.3064 245.565 21.1182 246.005 19.8742C246.005 19.8742 246.005 19.8742 246.005 19.8142C246.292 20.0603 246.503 20.3828 246.615 20.7442C246.857 22 246.645 23.3011 246.015 24.4142C245.269 26.0861 244.201 27.5943 242.871 28.8522C241.541 30.1101 239.976 31.0929 238.265 31.7442C237.825 31.7442 237.385 31.7442 236.955 31.7442L236.675 31.7542ZM235.935 31.2242L236.235 30.4042C236.485 29.7642 236.755 29.1242 237.045 28.5042C237.627 27.2879 238.295 26.1149 239.045 24.9942C239.69 24.016 240.398 23.0807 241.165 22.1942C241.897 21.2445 242.767 20.4088 243.745 19.7142C244.025 19.518 244.352 19.3998 244.693 19.3717C245.034 19.3436 245.376 19.4066 245.685 19.5542C245.639 19.5718 245.601 19.6033 245.575 19.6442C244.895 20.8342 244.345 22.0742 243.575 23.2342C242.905 24.3036 242.164 25.3259 241.355 26.2942C239.765 28.1672 237.928 29.8156 235.895 31.1942L235.935 31.2242ZM234.935 42.0742C233.171 39.7885 231.158 37.7057 228.935 35.8642C227.835 34.8842 226.705 33.9375 225.545 33.0242L224.695 32.3442C226.784 32.9504 228.797 33.7925 230.695 34.8542C232.705 35.9649 234.296 37.7036 235.225 39.8042C235.374 40.1719 235.424 40.5725 235.37 40.9658C235.316 41.359 235.159 41.731 234.915 42.0442L234.935 42.0742ZM221.775 31.5242L222.135 31.6042C222.575 31.9042 223.035 32.1842 223.465 32.4842C224.078 32.9042 224.678 33.3342 225.265 33.7742C226.395 34.6142 227.485 35.4842 228.545 36.3942C229.605 37.3042 230.715 38.3942 231.745 39.3942C232.775 40.3942 233.595 41.3942 234.575 42.3242C234.28 42.4458 233.956 42.4737 233.645 42.4042C232.485 42.0495 231.412 41.4569 230.495 40.6642C228.563 39.2904 226.783 37.7149 225.185 35.9642C224.396 35.1055 223.655 34.2042 222.965 33.2642C222.525 32.6642 222.145 32.0742 221.755 31.4942L221.775 31.5242ZM219.065 21.3242C217.658 21.1159 216.237 21.0122 214.815 21.0142C213.255 20.9642 211.695 20.9542 210.125 20.9642C208.185 20.9642 206.255 21.0642 204.315 21.1742C205.505 20.8642 206.705 20.5942 207.915 20.3842C210.69 19.8481 213.534 19.7704 216.335 20.1542C217.095 20.2442 218.655 20.4142 219.045 21.2942L219.065 21.3242ZM199.735 22.4642L200.235 22.3142C200.313 22.335 200.396 22.335 200.475 22.3142C203.675 22.0042 206.885 21.8142 210.105 21.7742C211.765 21.7742 213.415 21.7742 215.105 21.7742C216.465 21.7742 217.835 21.9342 219.185 21.8442C219.065 23.0542 217.185 23.3442 216.295 23.4842C213.535 23.8955 210.738 24.0028 207.955 23.8042C206.563 23.7021 205.178 23.5252 203.805 23.2742C202.375 23.0642 201.065 22.5742 199.715 22.4342L199.735 22.4642ZM189.385 21.4642C191.521 22.9376 193.529 24.5902 195.385 26.4042C196.526 27.5374 197.605 28.7325 198.615 29.9842C199.095 30.5842 199.615 31.1842 200.035 31.8042C200.379 32.4387 200.833 33.0075 201.375 33.4842C201.535 33.5842 201.785 33.4842 201.745 33.2742C201.508 32.5637 201.127 31.91 200.625 31.3542C200.175 30.7242 199.715 30.1142 199.225 29.5142C198.239 28.2947 197.187 27.1297 196.075 26.0242C194.121 24.0506 191.985 22.266 189.695 20.6942C192.05 21.488 194.262 22.6563 196.245 24.1542C198.316 25.734 200.084 27.6752 201.465 29.8842C201.939 30.5302 202.279 31.2647 202.465 32.0442C202.554 32.3545 202.521 32.6873 202.372 32.9739C202.223 33.2604 201.97 33.4789 201.665 33.5842C200.915 33.7442 200.135 33.1642 199.555 32.7642C198.975 32.3642 198.505 32.0342 198.005 31.6542C195.832 29.9834 193.883 28.0409 192.205 25.8742C191.378 24.8207 190.62 23.715 189.935 22.5642C189.745 22.1942 189.545 21.8142 189.375 21.4442L189.385 21.4642ZM175.565 15.2242C175.925 15.1342 176.295 14.9642 176.565 14.8742C177.231 14.6809 177.898 14.5109 178.565 14.3642C179.825 14.0642 181.095 13.8242 182.375 13.6442C183.695 13.4542 185.025 13.3342 186.375 13.2742C187.005 13.2742 187.635 13.2742 188.255 13.2242C188.856 13.2773 189.462 13.2231 190.045 13.0642C190.077 13.0502 190.104 13.0271 190.123 12.9978C190.143 12.9685 190.153 12.9342 190.153 12.8992C190.153 12.8642 190.143 12.8299 190.123 12.8006C190.104 12.7713 190.077 12.7482 190.045 12.7342C189.437 12.5168 188.787 12.4382 188.145 12.5042C187.485 12.5042 186.825 12.5042 186.145 12.5042C184.815 12.5642 183.485 12.6842 182.145 12.8742C180.805 13.0642 179.445 13.3242 178.145 13.6442C177.695 13.7542 177.255 13.8742 176.815 14.0042C177.902 13.5091 179.021 13.0881 180.165 12.7442C182.438 12.0782 184.796 11.7415 187.165 11.7442C188.065 11.7442 189.305 11.6842 190.035 12.3342C190.935 13.1342 190.215 14.4142 189.425 14.9842C187.545 16.3642 184.715 15.9842 182.545 15.8442C181.205 15.7642 179.865 15.6642 178.545 15.5242L176.605 15.2942C176.175 15.2842 175.865 15.2342 175.545 15.2042L175.565 15.2242ZM174.225 27.8142C174.042 27.1773 173.78 26.5659 173.445 25.9942C173.118 25.3275 172.768 24.6975 172.395 24.1042C171.657 22.8645 170.842 21.6722 169.955 20.5342C169.042 19.3724 168.064 18.2639 167.025 17.2142C166.545 16.7142 166.055 16.2342 165.555 15.7742L165.325 15.5542C165.894 15.7558 166.452 15.9895 166.995 16.2542C168.154 16.8285 169.241 17.5366 170.235 18.3642C172.003 19.809 173.379 21.6767 174.235 23.7942C174.72 24.7862 174.905 25.8987 174.765 26.9942C174.736 27.1606 174.673 27.3193 174.58 27.4604C174.487 27.6015 174.366 27.7219 174.225 27.8142ZM164.525 16.0042C164.685 16.1242 164.835 16.2342 164.965 16.3542C165.515 16.8242 166.045 17.3042 166.565 17.8142C167.563 18.8088 168.495 19.8678 169.355 20.9842C170.225 22.0966 171.029 23.2585 171.765 24.4642C172.165 25.1042 172.535 25.7642 172.885 26.4642C173.125 26.9732 173.396 27.4674 173.695 27.9442C172.961 27.8348 172.271 27.5309 171.695 27.0642C168.062 24.3512 165.518 20.4283 164.525 16.0042ZM162.035 13.0542C162.815 12.3342 163.565 11.5742 164.365 10.8742C165.365 10.0242 166.365 9.2142 167.425 8.4342C168.485 7.6542 169.605 6.88419 170.745 6.17419L172.425 5.17419C172.773 4.99257 173.107 4.78534 173.425 4.5542C173.312 5.52226 172.92 6.43639 172.295 7.1842C170.906 9.15364 169.032 10.7312 166.855 11.7642C165.773 12.277 164.631 12.65 163.455 12.8742C162.986 12.9643 162.511 13.0244 162.035 13.0542ZM160.375 13.1842C161.164 10.9285 162.449 8.87829 164.135 7.1842C165.781 5.58954 167.767 4.38937 169.945 3.67419C170.865 3.38419 172.645 2.8042 173.255 3.9042C173.255 3.9042 173.255 3.95422 173.255 3.98422C172.744 4.11009 172.259 4.32685 171.825 4.62421C171.285 4.91421 170.755 5.2342 170.235 5.5542C169.095 6.2542 167.975 6.99421 166.885 7.78421C165.795 8.57421 164.695 9.45421 163.655 10.3442C162.636 11.1617 161.683 12.0578 160.805 13.0242C160.771 13.0568 160.746 13.0984 160.735 13.1442C160.614 13.1491 160.494 13.1625 160.375 13.1842Z" fill="white"/>
<path d="M259.425 24.4742C259.526 24.9762 259.807 25.424 260.215 25.7342C260.411 25.886 260.637 25.9954 260.878 26.0556C261.119 26.1159 261.37 26.1256 261.615 26.0842C262.096 25.9894 262.522 25.711 262.802 25.3078C263.082 24.9047 263.194 24.4085 263.115 23.9242C263 23.5051 262.728 23.1467 262.355 22.9242C262.204 22.7196 262.004 22.5565 261.773 22.4498C261.542 22.3432 261.288 22.2965 261.035 22.3142C260.781 22.3393 260.535 22.4182 260.315 22.5458C260.094 22.6735 259.903 22.8468 259.755 23.0542C259.607 23.2564 259.501 23.4865 259.445 23.7305C259.388 23.9745 259.381 24.2275 259.425 24.4742Z" fill="white"/>
<path d="M257.055 23.2447C257.071 23.079 257.138 22.9222 257.245 22.7947L257.415 22.6247C257.552 22.527 257.709 22.462 257.875 22.4347C257.996 22.4046 258.123 22.4046 258.245 22.4347C258.365 22.463 258.478 22.5177 258.575 22.5947C258.675 22.6662 258.754 22.7628 258.805 22.8747C258.874 22.9798 258.919 23.0996 258.935 23.2247V23.4847C258.912 23.6457 258.846 23.7976 258.745 23.9247L258.575 24.0947C258.44 24.1958 258.282 24.2611 258.115 24.2847C257.994 24.3194 257.866 24.3194 257.745 24.2847C257.621 24.2647 257.507 24.209 257.415 24.1247C257.315 24.057 257.236 23.9637 257.185 23.8547C257.112 23.7473 257.067 23.6236 257.055 23.4947V23.2447Z" fill="white"/>
<path d="M259.685 19.8145C260.455 19.8145 260.605 21.0045 259.835 21.0045C259.065 21.0045 258.905 19.8145 259.685 19.8145Z" fill="white"/>
<path d="M252.375 32.9149V32.8149C252.531 32.675 252.715 32.5698 252.915 32.506C253.115 32.4422 253.326 32.4214 253.535 32.4449C253.776 32.474 254.007 32.5634 254.205 32.7049C254.361 32.8011 254.497 32.9267 254.605 33.0749C254.716 33.2201 254.804 33.3821 254.865 33.5549C254.943 33.7899 254.977 34.0375 254.965 34.2849C254.974 34.3445 254.974 34.4053 254.965 34.4649C254.948 34.5869 254.911 34.7052 254.855 34.8149C254.752 35.035 254.602 35.2296 254.415 35.3849C254.321 35.4632 254.217 35.5273 254.105 35.5749C254.053 35.6115 253.996 35.6386 253.935 35.6549C253.757 35.7186 253.573 35.7589 253.385 35.7749C253.13 35.7791 252.877 35.7419 252.635 35.6649C252.462 35.6043 252.3 35.5166 252.155 35.4049C251.94 35.233 251.771 35.0106 251.663 34.7577C251.555 34.5047 251.511 34.229 251.535 33.9549C251.568 33.7221 251.664 33.5027 251.812 33.3197C251.96 33.1367 252.154 32.9969 252.375 32.9149Z" fill="white"/>
<path d="M248.975 33.4444C248.995 33.2985 249.054 33.1605 249.145 33.0444L249.295 32.8944C249.412 32.8068 249.55 32.7516 249.695 32.7344C249.915 32.7138 250.136 32.7742 250.315 32.9044C250.403 32.9706 250.475 33.0561 250.525 33.1544C250.588 33.2464 250.626 33.3533 250.635 33.4644V33.6844C250.608 33.8286 250.55 33.9652 250.465 34.0844L250.305 34.2344C250.188 34.322 250.05 34.3772 249.905 34.3944C249.797 34.4242 249.683 34.4242 249.575 34.3944C249.468 34.3728 249.368 34.3247 249.285 34.2544C249.197 34.1907 249.127 34.1043 249.085 34.0044C249.017 33.9147 248.979 33.8066 248.975 33.6944V33.4444Z" fill="white"/>
<path d="M222.235 21.8149C222.32 21.3606 222.556 20.9482 222.905 20.6449C223.258 20.3381 223.718 20.1835 224.185 20.2149C224.446 20.2308 224.699 20.3172 224.915 20.4649C225.06 20.5168 225.198 20.5874 225.325 20.6749C225.682 20.951 225.916 21.3572 225.975 21.8049C226.026 22.2269 225.934 22.6539 225.712 23.0168C225.491 23.3797 225.154 23.6573 224.755 23.8049C224.33 23.9446 223.871 23.9446 223.445 23.8049C223.079 23.6727 222.759 23.4364 222.525 23.1249C222.392 22.9367 222.298 22.7239 222.249 22.499C222.199 22.2742 222.194 22.0416 222.235 21.8149Z" fill="white"/>
<path d="M226.755 22.8944C226.771 22.7472 226.83 22.6081 226.925 22.4944L227.075 22.3444C227.195 22.2537 227.336 22.1951 227.485 22.1744C227.593 22.1489 227.706 22.1489 227.815 22.1744C227.925 22.1961 228.028 22.2441 228.115 22.3144C228.205 22.3761 228.274 22.4631 228.315 22.5644C228.384 22.6541 228.425 22.7617 228.435 22.8744V23.1045C228.414 23.2504 228.356 23.3883 228.265 23.5045L228.115 23.6544C227.995 23.7452 227.854 23.8038 227.705 23.8245C227.594 23.8546 227.476 23.8546 227.365 23.8245C227.258 23.797 227.159 23.7457 227.075 23.6744C226.983 23.6153 226.912 23.5274 226.875 23.4244C226.804 23.3356 226.763 23.2275 226.755 23.1144V22.8944Z" fill="white"/>
<path d="M189.765 29.1241C189.791 28.9642 189.857 28.8132 189.955 28.6841L190.125 28.5141C190.261 28.4166 190.419 28.3547 190.585 28.3341C190.703 28.304 190.827 28.304 190.945 28.3341C191.065 28.3624 191.178 28.4171 191.275 28.4941C191.377 28.5629 191.457 28.6602 191.505 28.7741C191.574 28.875 191.615 28.9922 191.625 29.1141V29.3741C191.598 29.534 191.533 29.685 191.435 29.8141L191.265 29.9841C191.129 30.0816 190.971 30.1435 190.805 30.1641C190.687 30.1991 190.562 30.1991 190.445 30.1641C190.324 30.1435 190.21 30.0918 190.115 30.0141C190.017 29.9398 189.939 29.844 189.885 29.7341C189.814 29.6303 189.773 29.5094 189.765 29.3841V29.1241Z" fill="white"/>
<path d="M157.785 17.2048C158.056 16.8298 158.46 16.5723 158.915 16.4848C159.138 16.4334 159.37 16.431 159.595 16.4776C159.819 16.5242 160.031 16.6187 160.215 16.7547C160.394 16.8954 160.543 17.0706 160.653 17.2698C160.763 17.4691 160.831 17.6884 160.855 17.9147C160.876 18.1683 160.845 18.4234 160.765 18.6647C160.712 18.8235 160.627 18.9698 160.515 19.0947C160.413 19.2433 160.288 19.375 160.145 19.4848C159.925 19.6402 159.67 19.7382 159.403 19.7696C159.136 19.8011 158.865 19.765 158.615 19.6647C158.39 19.5737 158.185 19.4383 158.013 19.2665C157.841 19.0947 157.706 18.89 157.615 18.6647C157.523 18.4258 157.49 18.1681 157.52 17.9138C157.549 17.6594 157.64 17.4161 157.785 17.2048Z" fill="white"/>
<path d="M155.675 16.0841C155.697 15.9463 155.751 15.8159 155.835 15.7041L155.985 15.5541C156.102 15.4665 156.24 15.4113 156.385 15.3941C156.491 15.3738 156.599 15.3738 156.705 15.3941C156.809 15.416 156.905 15.4643 156.985 15.5341C157.072 15.5947 157.141 15.6776 157.185 15.7741C157.246 15.8632 157.284 15.9664 157.295 16.0741V16.2941C157.278 16.4331 157.222 16.5646 157.135 16.6741L156.985 16.8241C156.871 16.9101 156.736 16.9652 156.595 16.9841C156.49 17.0141 156.379 17.0141 156.275 16.9841C156.171 16.9679 156.074 16.9228 155.995 16.8541C155.909 16.7919 155.841 16.7094 155.795 16.6141C155.729 16.5235 155.691 16.4159 155.685 16.3041L155.675 16.0841Z" fill="white"/>
<path d="M140.725 8.97484C141.905 7.80484 142.885 6.36484 142.305 4.63484C142.199 4.29402 142.018 3.98126 141.775 3.71953C141.533 3.4578 141.235 3.25373 140.903 3.12233C140.571 2.99093 140.214 2.93553 139.858 2.96019C139.502 2.98485 139.156 3.08896 138.845 3.26485C138.829 3.23264 138.808 3.20241 138.785 3.17482C137.834 2.13609 136.669 1.31511 135.371 0.767989C134.074 0.220872 132.673 -0.0394494 131.265 0.00483563C129.867 0.0710317 128.501 0.446737 127.265 1.10484C126.663 1.42398 126.096 1.8061 125.575 2.24483C125.098 2.61014 124.697 3.06537 124.395 3.58482C124.228 3.46875 124.054 3.36194 123.875 3.26485C123.56 3.06132 123.203 2.93397 122.83 2.8929C122.458 2.85183 122.081 2.89816 121.729 3.02824C121.378 3.15832 121.062 3.36854 120.806 3.64223C120.55 3.91591 120.361 4.24552 120.255 4.60484C119.695 6.33484 120.685 7.76484 121.875 8.91484C121.505 8.9338 121.152 9.07843 120.875 9.32484C120.59 9.62336 120.404 10.0027 120.344 10.4109C120.283 10.8191 120.35 11.2362 120.535 11.6048C121.009 12.5193 121.646 13.3395 122.415 14.0248C123.18 14.8105 124.024 15.5143 124.935 16.1248C126.645 17.3315 128.574 18.191 130.615 18.6548C130.615 18.6548 130.615 18.7148 130.615 18.7448C130.609 18.8775 130.629 19.0101 130.675 19.1348C130.705 19.2408 130.756 19.3395 130.825 19.4248C130.921 19.5299 131.036 19.6149 131.165 19.6748H131.265C131.343 19.7013 131.423 19.7181 131.505 19.7248C131.646 19.7393 131.789 19.7235 131.923 19.6787C132.057 19.6339 132.181 19.561 132.285 19.4648C132.416 19.3494 132.518 19.2058 132.585 19.0448C132.622 18.9618 132.649 18.8744 132.665 18.7848C132.665 18.7848 132.665 18.6948 132.665 18.6548C135.585 17.819 138.234 16.2291 140.345 14.0448C141.111 13.356 141.739 12.528 142.195 11.6048C142.376 11.2354 142.438 10.8192 142.374 10.4129C142.309 10.0067 142.121 9.63027 141.835 9.33482C141.527 9.0729 141.128 8.94349 140.725 8.97484ZM141.455 4.72484C141.672 5.27027 141.697 5.87347 141.525 6.43483C141.043 7.54703 140.26 8.50282 139.265 9.19484C139.219 9.23719 139.182 9.28814 139.155 9.34483C137.262 10.1903 135.581 11.4475 134.235 13.0248L133.985 13.3248C134.576 12.2189 135.244 11.1562 135.985 10.1448C136.776 9.1069 137.646 8.13077 138.585 7.22484C139.485 6.35484 140.485 5.60485 141.425 4.76485L141.455 4.72484ZM140.815 3.95485C141.006 4.07694 141.169 4.23689 141.295 4.42482C141.295 4.42482 141.245 4.42482 141.215 4.42482C139.055 5.80507 137.159 7.55919 135.615 9.60484C134.499 10.9388 133.527 12.3868 132.715 13.9248C133.405 11.4027 134.554 9.02961 136.105 6.92482C136.74 6.05498 137.479 5.26585 138.305 4.57484C138.965 4.03484 139.965 3.44485 140.815 3.95485ZM131.085 0.754836C132.31 0.678738 133.536 0.876871 134.675 1.33482C133.147 4.41588 132.134 7.72635 131.675 11.1348C131.675 10.6948 131.675 10.2548 131.595 9.81483L131.355 5.24483C131.329 3.74684 131.222 2.25136 131.035 0.764845L131.085 0.754836ZM127.375 1.81483C128.407 1.2711 129.534 0.931565 130.695 0.814833C130.625 2.18483 130.745 3.58485 130.805 4.95485C130.885 6.52485 130.955 8.09483 131.035 9.65483C131.035 10.0148 131.035 10.3748 131.035 10.7248C130.885 10.2148 130.745 9.72483 130.565 9.18483C130.085 7.83425 129.486 6.5291 128.775 5.28483C128.445 4.70483 128.105 4.15482 127.725 3.61482C127.443 3.13214 127.107 2.68266 126.725 2.27482C126.925 2.11482 127.135 1.97483 127.375 1.81483ZM121.745 3.87483C122.595 3.34483 123.595 3.93484 124.265 4.47484C125.095 5.15989 125.843 5.93837 126.495 6.79484C128.069 8.89588 129.241 11.2688 129.955 13.7948C129.124 12.2656 128.136 10.8277 127.005 9.50484C125.439 7.47808 123.526 5.74466 121.355 4.38484C121.355 4.38484 121.305 4.38484 121.275 4.38484C121.391 4.19265 121.548 4.02867 121.735 3.90483L121.745 3.87483ZM121.055 6.35484C120.885 5.79389 120.907 5.1925 121.115 4.64482C121.115 4.64482 121.115 4.64484 121.115 4.69484C122.065 5.51484 123.115 6.25483 123.985 7.12483C124.936 8.01416 125.816 8.97715 126.615 10.0048C127.353 11.0114 128.021 12.0672 128.615 13.1648L128.365 12.8648C126.988 11.3012 125.28 10.0645 123.365 9.24483C123.339 9.18813 123.301 9.13718 123.255 9.09483C122.287 8.40773 121.523 7.47123 121.045 6.38484L121.055 6.35484ZM126.565 16.2848C125.007 15.3871 123.6 14.2498 122.395 12.9148C121.815 12.2848 120.995 11.4648 121.045 10.5448C121.049 10.4983 121.049 10.4514 121.045 10.4048C124.166 12.6132 127.109 15.0641 129.845 17.7348C128.704 17.3709 127.602 16.8953 126.555 16.3148L126.565 16.2848ZM121.225 9.97484C121.675 9.30484 122.895 9.75483 123.575 10.0648C125.202 10.8326 126.655 11.925 127.845 13.2748C128.485 13.9956 129.045 14.7835 129.515 15.6248C129.777 16.0998 130.001 16.5947 130.185 17.1048C127.496 14.3809 124.484 11.9965 121.215 10.0048L121.225 9.97484ZM127.785 7.22484C126.971 5.94586 125.958 4.80487 124.785 3.84483C125.135 3.57483 125.425 3.22484 125.785 2.94484C125.945 2.80484 126.115 2.68482 126.275 2.55482C126.525 2.99482 126.865 3.38484 127.145 3.79484C127.545 4.37484 127.915 4.97482 128.265 5.58482C128.943 6.77378 129.518 8.01827 129.985 9.30482C130.457 10.6045 130.816 11.9429 131.055 13.3048C131.135 13.7848 131.185 14.3048 131.245 14.7448C131.245 15.4948 131.245 16.2448 131.325 16.9948C130.849 13.5324 129.638 10.2117 127.775 7.25484L127.785 7.22484ZM131.935 14.3648C132.048 12.5629 132.292 10.7715 132.665 9.00484C133.255 6.43832 134.148 3.95092 135.325 1.59483C136.372 2.10632 137.309 2.81611 138.085 3.68483C136.78 4.69113 135.674 5.93243 134.825 7.34483C133.456 9.50817 132.474 11.894 131.925 14.3948L131.935 14.3648ZM132.525 17.2448C133.046 15.8298 133.826 14.5242 134.825 13.3948C136.005 12.0339 137.447 10.9251 139.065 10.1348C139.735 9.81484 140.955 9.35483 141.415 10.0248C138.163 12.0681 135.174 14.503 132.515 17.2748L132.525 17.2448ZM140.275 12.9748C139.083 14.3215 137.69 15.4752 136.145 16.3948C135.098 16.9914 133.996 17.487 132.855 17.8748C135.569 15.1809 138.484 12.6971 141.575 10.4448C141.58 10.4914 141.58 10.5383 141.575 10.5848C141.655 11.5348 140.835 12.3648 140.265 13.0048L140.275 12.9748Z" fill="white"/>
<path d="M119.675 14.3044C119.666 14.2272 119.635 14.1542 119.585 14.0944C119.553 14.0243 119.505 13.9626 119.445 13.9144C119.369 13.8282 119.273 13.7628 119.165 13.7244C119.013 13.6634 118.846 13.646 118.685 13.6744C118.53 13.6923 118.384 13.7549 118.265 13.8544C118.141 13.9477 118.045 14.0719 117.985 14.2144C117.936 14.3278 117.915 14.4513 117.925 14.5744C117.913 14.6923 117.937 14.8109 117.995 14.9144C118.05 15.06 118.147 15.1854 118.275 15.2744C118.399 15.3729 118.548 15.4352 118.705 15.4544C118.864 15.4749 119.026 15.4542 119.175 15.3944L119.375 15.2844L119.535 15.1244L119.645 14.9244C119.694 14.8146 119.714 14.6943 119.705 14.5744C119.723 14.4835 119.712 14.3892 119.675 14.3044Z" fill="white"/>
<path d="M144.685 14.3741C144.666 14.319 144.642 14.2655 144.615 14.2141V14.0941V14.0341C144.615 14.0341 144.615 13.9841 144.615 13.9641V14.0141C144.588 13.9685 144.558 13.925 144.525 13.8841C144.486 13.8338 144.434 13.7956 144.375 13.7741C144.302 13.728 144.22 13.6973 144.135 13.6841H144.285C144.239 13.6741 144.191 13.6741 144.145 13.6841C144.043 13.6639 143.937 13.6639 143.835 13.6841C143.614 13.7275 143.415 13.848 143.275 14.0241L143.155 14.2141C143.105 14.3237 143.084 14.4442 143.095 14.5641C143.088 14.6784 143.112 14.7923 143.165 14.8941C143.203 15.0021 143.269 15.0986 143.355 15.1741C143.433 15.2574 143.529 15.3223 143.635 15.3641L143.855 15.4241C143.969 15.4589 144.091 15.4589 144.205 15.4241C144.315 15.4025 144.418 15.3544 144.505 15.2841L144.665 15.1241C144.754 14.996 144.813 14.8488 144.835 14.6941L144.685 14.3741Z" fill="white"/>
</svg>
