<svg xmlns="http://www.w3.org/2000/svg" width="60" height="36" viewBox="0 0 60 36" fill="none">
  <path d="M53 23.0526H50V20.2926C50.9355 19.5436 51.6908 18.594 52.21 17.514C52.7293 16.4339 52.9993 15.251 53 14.0526V9.05261C53.001 8.80228 52.9081 8.56067 52.7396 8.37551C52.5711 8.19036 52.3393 8.07514 52.09 8.05261C51.1861 7.96614 50.3291 7.61005 49.6301 7.03053C48.9311 6.451 48.4224 5.6748 48.17 4.80261C48.1095 4.58631 47.978 4.39667 47.7966 4.26424C47.6152 4.13181 47.3944 4.06431 47.17 4.07261H46.88C46.7055 4.07367 46.5343 4.12037 46.3834 4.20809C46.2325 4.2958 46.1073 4.42147 46.02 4.57261C45.4067 5.62686 44.5286 6.50256 43.4727 7.11296C42.4167 7.72336 41.2196 8.04728 40 8.05261C39.4094 8.04872 38.8216 7.97147 38.25 7.82261C38.0996 7.7837 37.9422 7.78035 37.7903 7.81285C37.6384 7.84536 37.4961 7.91281 37.3748 8.00986C37.2535 8.10691 37.1565 8.23089 37.0914 8.37196C37.0263 8.51304 36.995 8.66734 37 8.82261V14.0526C37.0007 15.251 37.2707 16.4339 37.79 17.514C38.3092 18.594 39.0645 19.5436 40 20.2926V23.0526H37C35.1435 23.0526 33.363 23.7901 32.0503 25.1029C30.7375 26.4156 30 28.1961 30 30.0526C30 28.1961 29.2625 26.4156 27.9497 25.1029C26.637 23.7901 24.8565 23.0526 23 23.0526H20V20.2926C20.9355 19.5436 21.6908 18.594 22.21 17.514C22.7293 16.4339 22.9993 15.251 23 14.0526V13.9526C24.1294 13.7221 25.1444 13.1084 25.8733 12.2155C26.6022 11.3226 27.0002 10.2053 27 9.05261V2.05261C27 1.52218 26.7893 1.01347 26.4142 0.638399C26.0391 0.263326 25.5304 0.0526123 25 0.0526123H8C6.67392 0.0526123 5.40215 0.579396 4.46447 1.51708C3.52678 2.45476 3 3.72653 3 5.05261V9.05261C3 9.31783 3.10536 9.57218 3.29289 9.75972C3.48043 9.94726 3.73478 10.0526 4 10.0526C4.26522 10.0526 4.51957 9.94726 4.70711 9.75972C4.89464 9.57218 5 9.31783 5 9.05261V5.05261C5 4.25696 5.31607 3.4939 5.87868 2.93129C6.44129 2.36868 7.20435 2.05261 8 2.05261H25V9.05261C24.9983 9.67156 24.8051 10.2748 24.4471 10.7797C24.089 11.2845 23.5835 11.6663 23 11.8726V7.05261C23.0003 6.91519 22.9723 6.77917 22.9178 6.65304C22.8632 6.52692 22.7832 6.41339 22.6828 6.31956C22.5824 6.22572 22.4637 6.15359 22.3342 6.10766C22.2047 6.06173 22.0671 6.04299 21.93 6.05261L17.93 6.34261C17.7987 6.35181 17.6705 6.38678 17.5526 6.44552C17.4348 6.50427 17.3298 6.58564 17.2434 6.685C17.157 6.78436 17.0911 6.89976 17.0493 7.0246C17.0076 7.14944 16.9908 7.28129 17 7.41261C17.0092 7.54393 17.0442 7.67216 17.1029 7.78997C17.1617 7.90777 17.243 8.01286 17.3424 8.09922C17.4417 8.18557 17.5571 8.25152 17.682 8.29328C17.8068 8.33504 17.9387 8.35181 18.07 8.34261L21 8.12261V14.0526C21 15.6439 20.3679 17.17 19.2426 18.2953C18.1174 19.4205 16.5913 20.0526 15 20.0526C13.4087 20.0526 11.8826 19.4205 10.7574 18.2953C9.63214 17.17 9 15.6439 9 14.0526V8.98261L13.07 8.69261C13.2014 8.68373 13.3298 8.64898 13.4478 8.59033C13.5657 8.53169 13.671 8.45032 13.7574 8.35089C13.8438 8.25146 13.9097 8.13594 13.9514 8.01096C13.993 7.88598 14.0095 7.754 14 7.62261C13.9795 7.35894 13.8555 7.11411 13.655 6.94169C13.4544 6.76927 13.1938 6.68331 12.93 6.70261L7.93 7.05261C7.6771 7.07036 7.44038 7.1835 7.26772 7.36915C7.09507 7.5548 6.99938 7.79909 7 8.05261V14.0526C7.00075 15.251 7.27072 16.4339 7.78998 17.514C8.30924 18.594 9.06451 19.5436 10 20.2926V23.0526H7C5.14348 23.0526 3.36301 23.7901 2.05025 25.1029C0.737498 26.4156 0 28.1961 0 30.0526V34.0526C0 34.3178 0.105357 34.5722 0.292893 34.7597C0.48043 34.9473 0.734784 35.0526 1 35.0526C1.26522 35.0526 1.51957 34.9473 1.70711 34.7597C1.89464 34.5722 2 34.3178 2 34.0526V30.0526C2.00634 28.8454 2.44926 27.6812 3.24697 26.775C4.04468 25.8689 5.14331 25.282 6.34 25.1226L9.88 34.4126C9.95252 34.6005 10.0801 34.7622 10.246 34.8764C10.412 34.9906 10.6086 35.052 10.81 35.0526C10.9335 35.0537 11.0559 35.0299 11.17 34.9826C11.4162 34.8865 11.6143 34.6969 11.7211 34.4552C11.8279 34.2135 11.8347 33.9393 11.74 33.6926L10.74 31.0126C10.8242 31.0386 10.9118 31.0521 11 31.0526C11.1565 31.0517 11.3107 31.014 11.45 30.9426L15 29.1726L18.55 30.9426C18.6893 31.014 18.8435 31.0517 19 31.0526C19.0928 31.0672 19.1872 31.0672 19.28 31.0526L18.28 33.7326C18.1853 33.9793 18.1921 34.2535 18.2989 34.4952C18.4057 34.7369 18.6038 34.9265 18.85 35.0226C18.9641 35.0699 19.0865 35.0937 19.21 35.0926C19.4131 35.094 19.6119 35.0336 19.7798 34.9192C19.9478 34.8049 20.0769 34.6421 20.15 34.4526L23.68 25.1626C24.8663 25.3254 25.9548 25.9084 26.7476 26.8058C27.5404 27.7032 27.9848 28.8553 28 30.0526V34.0526C28 34.3178 28.1054 34.5722 28.2929 34.7597C28.4804 34.9473 28.7348 35.0526 29 35.0526C29.2652 35.0526 29.5196 34.9473 29.7071 34.7597C29.8946 34.5722 30 34.3178 30 34.0526C30 34.3178 30.1054 34.5722 30.2929 34.7597C30.4804 34.9473 30.7348 35.0526 31 35.0526C31.2652 35.0526 31.5196 34.9473 31.7071 34.7597C31.8946 34.5722 32 34.3178 32 34.0526V30.0526C32 28.7265 32.5268 27.4548 33.4645 26.5171C34.4021 25.5794 35.6739 25.0526 37 25.0526H41C41.2652 25.0526 41.5196 24.9473 41.7071 24.7597C41.8946 24.5722 42 24.3178 42 24.0526V21.4626C43.9226 22.2495 46.0774 22.2495 48 21.4626V24.0526C48 24.3178 48.1054 24.5722 48.2929 24.7597C48.4804 24.9473 48.7348 25.0526 49 25.0526H53C54.3261 25.0526 55.5979 25.5794 56.5355 26.5171C57.4732 27.4548 58 28.7265 58 30.0526V34.0526C58 34.3178 58.1054 34.5722 58.2929 34.7597C58.4804 34.9473 58.7348 35.0526 59 35.0526C59.2652 35.0526 59.5196 34.9473 59.7071 34.7597C59.8946 34.5722 60 34.3178 60 34.0526V30.0526C60 28.1961 59.2625 26.4156 57.9497 25.1029C56.637 23.7901 54.8565 23.0526 53 23.0526ZM12 28.4326V27.6726L12.76 28.0526L12 28.4326ZM18 28.4326L17.24 28.0526L18 27.6726V28.4326ZM20 29.1226V26.0526C19.9995 25.8821 19.9554 25.7146 19.8719 25.566C19.7885 25.4174 19.6684 25.2925 19.5231 25.2034C19.3778 25.1142 19.2122 25.0636 19.0419 25.0565C18.8715 25.0494 18.7022 25.0859 18.55 25.1626L15 26.9326L11.45 25.1626C11.2978 25.0859 11.1285 25.0494 10.9581 25.0565C10.7878 25.0636 10.6222 25.1142 10.4769 25.2034C10.3316 25.2925 10.2115 25.4174 10.1281 25.566C10.0446 25.7146 10.0005 25.8821 10 26.0526V29.1226L8.45 25.0526H11C11.2652 25.0526 11.5196 24.9473 11.7071 24.7597C11.8946 24.5722 12 24.3178 12 24.0526V21.4626C13.9226 22.2495 16.0774 22.2495 18 21.4626V23.0526H17C16.7348 23.0526 16.4804 23.158 16.2929 23.3455C16.1054 23.533 16 23.7874 16 24.0526C16 24.3178 16.1054 24.5722 16.2929 24.7597C16.4804 24.9473 16.7348 25.0526 17 25.0526H21.55L20 29.1226ZM39 14.0526V9.99261C40.475 10.1617 41.9689 9.96046 43.3465 9.40697C44.7241 8.85347 45.942 7.96523 46.89 6.82261C47.3394 7.57228 47.9348 8.22409 48.6408 8.73941C49.3468 9.25474 50.149 9.62308 51 9.82261V14.0526C51 15.6439 50.3679 17.17 49.2426 18.2953C48.1174 19.4205 46.5913 20.0526 45 20.0526C43.4087 20.0526 41.8826 19.4205 40.7574 18.2953C39.6321 17.17 39 15.6439 39 14.0526Z" fill="#2343C1"/>
</svg>