<svg width="181" height="180" viewBox="0 0 181 180" fill="none" xmlns="http://www.w3.org/2000/svg">
<g id="Frame 27296">
<g clip-path="url(#clip0_691_6905)">
<rect x="0.5" width="180" height="180" rx="90" fill="white"/>
<g id="Group 5866">
<g id="Vector">
<path d="M179.425 40.071C174.107 48.3821 169.293 56.2443 167.133 65.8353C164.767 76.299 165.334 87.0618 163.183 97.5171C162.049 103.002 158.954 107.715 155.751 112.361C154.137 114.856 152.259 117.197 150.145 119.35C148.894 120.564 146.644 121.894 144.908 120.181C144.215 119.475 144.008 117.58 143.918 116.558C143.342 110.865 147.112 107.158 149.686 102.429C151.899 98.3482 153.708 93.7522 153.708 89.1312C153.708 88.35 152.52 88.6658 152.52 89.2975C152.52 96.3536 148.426 101.955 144.917 107.881C143.834 109.572 143.123 111.444 142.823 113.389C142.524 115.334 142.642 117.314 143.171 119.217C146.168 128.908 155.607 114.438 157.568 111.488C160.439 107.2 163.084 103.002 164.209 98.0158C165.613 91.849 165.64 85.4079 166.242 79.1497C166.899 72.2348 167.952 65.2037 170.328 58.5964C172.703 51.9891 176.626 46.3542 180.387 40.5032C180.837 39.805 179.812 39.4809 179.416 40.0959L179.425 40.071Z" fill="white"/>
<path d="M179.425 40.071C174.107 48.3821 169.293 56.2443 167.133 65.8353C164.767 76.299 165.334 87.0618 163.183 97.5171C162.049 103.002 158.954 107.715 155.751 112.361C154.137 114.856 152.259 117.197 150.145 119.35C148.894 120.564 146.644 121.894 144.908 120.181C144.215 119.475 144.008 117.58 143.918 116.558C143.342 110.865 147.112 107.158 149.686 102.429C151.899 98.3482 153.708 93.7522 153.708 89.1312C153.708 88.35 152.52 88.6658 152.52 89.2975C152.52 96.3536 148.426 101.955 144.917 107.881C143.834 109.572 143.123 111.444 142.823 113.389C142.524 115.334 142.642 117.314 143.171 119.217C146.168 128.908 155.607 114.438 157.568 111.488C160.439 107.2 163.084 103.002 164.209 98.0158C165.613 91.849 165.64 85.4079 166.242 79.1497C166.899 72.2348 167.952 65.2037 170.328 58.5964C172.703 51.9891 176.626 46.3542 180.387 40.5032C180.837 39.805 179.812 39.4809 179.416 40.0959L179.425 40.071Z" fill="#2343C1"/>
</g>
<g id="Vector_2">
<path d="M152.304 92.2476C147.499 95.2479 142.739 96.7522 138.519 100.559C134.618 103.941 131.417 107.952 129.071 112.394C126.554 117.005 124.939 121.99 124.302 127.121C123.969 130.179 123.708 133.346 122.611 136.263C121.423 139.446 117.95 144.067 116.132 138.939C115.916 138.316 114.827 139.047 115.034 139.629C116.114 142.679 117.734 144.408 120.505 141.765C124.275 138.175 125.004 132.299 125.436 127.636C126.19 120.169 129.027 113.011 133.669 106.858C136.358 103.423 139.61 100.395 143.306 97.8825C146.249 95.9543 149.785 94.9653 152.772 93.0953C153.42 92.6881 153.033 91.7572 152.304 92.2144V92.2476Z" fill="white"/>
<path d="M152.304 92.2476C147.499 95.2479 142.739 96.7522 138.519 100.559C134.618 103.941 131.417 107.952 129.071 112.394C126.554 117.005 124.939 121.99 124.302 127.121C123.969 130.179 123.708 133.346 122.611 136.263C121.423 139.446 117.95 144.067 116.132 138.939C115.916 138.316 114.827 139.047 115.034 139.629C116.114 142.679 117.734 144.408 120.505 141.765C124.275 138.175 125.004 132.299 125.436 127.636C126.19 120.169 129.027 113.011 133.669 106.858C136.358 103.423 139.61 100.395 143.306 97.8825C146.249 95.9543 149.785 94.9653 152.772 93.0953C153.42 92.6881 153.033 91.7572 152.304 92.2144V92.2476Z" fill="#2343C1"/>
</g>
<g id="Vector_3">
<path d="M120.964 102.595C120.064 105.346 117.896 107.848 117.518 110.707C116.861 115.693 118.139 121.029 117.869 126.065C117.689 129.39 118.013 134.377 116.069 137.385C113.46 141.391 111.984 137.443 111.516 135.374C111.064 133.429 110.79 131.452 110.697 129.465C110.697 128.758 109.482 129.307 109.509 129.905C109.59 131.991 109.653 139.205 112.434 140.477C114.827 141.566 116.672 138.815 117.374 137.152C119.461 132.374 119.299 126.248 119.173 121.195C119.101 118.054 118.472 114.771 118.759 111.646C119.047 108.521 121.063 105.728 122.089 102.703C122.359 101.93 121.189 101.947 120.973 102.578L120.964 102.595Z" fill="white"/>
<path d="M120.964 102.595C120.064 105.346 117.896 107.848 117.518 110.707C116.861 115.693 118.139 121.029 117.869 126.065C117.689 129.39 118.013 134.377 116.069 137.385C113.46 141.391 111.984 137.443 111.516 135.374C111.064 133.429 110.79 131.452 110.697 129.465C110.697 128.758 109.482 129.307 109.509 129.905C109.59 131.991 109.653 139.205 112.434 140.477C114.827 141.566 116.672 138.815 117.374 137.152C119.461 132.374 119.299 126.248 119.173 121.195C119.101 118.054 118.472 114.771 118.759 111.646C119.047 108.521 121.063 105.728 122.089 102.703C122.359 101.93 121.189 101.947 120.973 102.578L120.964 102.595Z" fill="#2343C1"/>
</g>
<g id="Vector_4">
<path d="M123.349 103.659C120.946 106.858 119.812 110.806 117.851 114.222C117.437 114.937 118.454 115.269 118.814 114.629C120.775 111.213 121.927 107.249 124.32 104.066C124.824 103.393 123.79 103.077 123.349 103.659Z" fill="white"/>
<path d="M123.349 103.659C120.946 106.858 119.812 110.806 117.851 114.222C117.437 114.937 118.454 115.269 118.814 114.629C120.775 111.213 121.927 107.249 124.32 104.066C124.824 103.393 123.79 103.077 123.349 103.659Z" fill="#2343C1"/>
</g>
<g id="Vector_5">
<path d="M114.359 96.9935C112.182 102.288 107.611 104.282 109.41 110.374C110.427 113.799 111.66 117.156 112.407 120.639C112.767 122.301 113.693 125.16 113.046 126.739C111.741 129.955 109.221 127.42 108.34 125.742C107.458 124.063 106.684 122.184 105.748 120.447C103.703 116.764 102.427 112.757 101.987 108.637C101.583 103.893 102.026 99.1196 103.301 94.5085C104.11 91.6079 104.83 88.0425 106.243 85.3663C106.621 84.635 105.424 84.6599 105.127 85.2417C103.283 88.7656 102.212 93.4198 101.474 97.2844C100.461 102.146 100.382 107.133 101.24 112.02C102.14 116.549 104.299 120.206 106.261 124.379C107.098 126.149 108.394 130.57 111.309 130.396C115.502 130.146 114.242 123.622 113.819 121.254C113.01 116.907 111.12 112.826 110.157 108.529C109.149 103.95 113.864 101.049 115.484 97.1099C115.799 96.3453 114.584 96.3702 114.359 96.9852V96.9935Z" fill="white"/>
<path d="M114.359 96.9935C112.182 102.288 107.611 104.282 109.41 110.374C110.427 113.799 111.66 117.156 112.407 120.639C112.767 122.301 113.693 125.16 113.046 126.739C111.741 129.955 109.221 127.42 108.34 125.742C107.458 124.063 106.684 122.184 105.748 120.447C103.703 116.764 102.427 112.757 101.987 108.637C101.583 103.893 102.026 99.1196 103.301 94.5085C104.11 91.6079 104.83 88.0425 106.243 85.3663C106.621 84.635 105.424 84.6599 105.127 85.2417C103.283 88.7656 102.212 93.4198 101.474 97.2844C100.461 102.146 100.382 107.133 101.24 112.02C102.14 116.549 104.299 120.206 106.261 124.379C107.098 126.149 108.394 130.57 111.309 130.396C115.502 130.146 114.242 123.622 113.819 121.254C113.01 116.907 111.12 112.826 110.157 108.529C109.149 103.95 113.864 101.049 115.484 97.1099C115.799 96.3453 114.584 96.3702 114.359 96.9852V96.9935Z" fill="#2343C1"/>
</g>
<g id="Vector_6">
<path d="M105.307 84.9344C103.957 86.3141 102.104 86.9125 100.412 87.8267C98.9736 88.719 97.4703 89.5188 95.9129 90.2203C95.2561 90.4696 95.274 91.5667 96.0929 91.2509C97.7451 90.5023 99.3413 89.6527 100.871 88.7077C102.67 87.7353 104.605 87.0454 106.045 85.5993C106.612 85.0259 105.874 84.3527 105.298 84.9344H105.307Z" fill="white"/>
<path d="M105.307 84.9344C103.957 86.3141 102.104 86.9125 100.412 87.8267C98.9736 88.719 97.4703 89.5188 95.9129 90.2203C95.2561 90.4696 95.274 91.5667 96.0929 91.2509C97.7451 90.5023 99.3413 89.6527 100.871 88.7077C102.67 87.7353 104.605 87.0454 106.045 85.5993C106.612 85.0259 105.874 84.3527 105.298 84.9344H105.307Z" fill="#2343C1"/>
</g>
<g id="Vector_7">
<path d="M86.6452 89.5797C85.6014 93.195 84.9445 97.7662 86.8971 101.257C87.7969 102.919 90.2534 105.595 92.5029 104.407C93.1778 104.041 92.7909 103.118 92.026 103.517C89.8305 104.689 87.482 99.578 87.2211 98.4643C86.6618 95.5425 86.8466 92.5405 87.7609 89.6961C87.9859 88.9149 86.8611 88.9315 86.6452 89.5797Z" fill="white"/>
<path d="M86.6452 89.5797C85.6014 93.195 84.9445 97.7662 86.8971 101.257C87.7969 102.919 90.2534 105.595 92.5029 104.407C93.1778 104.041 92.7909 103.118 92.026 103.517C89.8305 104.689 87.482 99.578 87.2211 98.4643C86.6618 95.5425 86.8466 92.5405 87.7609 89.6961C87.9859 88.9149 86.8611 88.9315 86.6452 89.5797Z" fill="#2343C1"/>
</g>
<g id="Vector_8">
<path d="M92.7822 82.4242C98.9729 78.5512 104.894 74.0632 111.039 70.0739C116.87 66.284 122.566 62.2698 128.244 58.2888C139.551 50.5126 149.085 40.7518 156.3 29.5657C156.75 28.8676 155.733 28.5435 155.328 29.1585C147.446 41.3591 137.62 50.6509 125.328 59.0783C120.002 62.7352 114.738 66.5583 109.267 69.9991C103.499 73.6726 98.0821 77.9112 92.3143 81.5183C91.6754 81.9255 92.0533 82.8563 92.7822 82.3992V82.4242Z" fill="white"/>
<path d="M92.7822 82.4242C98.9729 78.5512 104.894 74.0632 111.039 70.0739C116.87 66.284 122.566 62.2698 128.244 58.2888C139.551 50.5126 149.085 40.7518 156.3 29.5657C156.75 28.8676 155.733 28.5435 155.328 29.1585C147.446 41.3591 137.62 50.6509 125.328 59.0783C120.002 62.7352 114.738 66.5583 109.267 69.9991C103.499 73.6726 98.0821 77.9112 92.3143 81.5183C91.6754 81.9255 92.0533 82.8563 92.7822 82.3992V82.4242Z" fill="#2343C1"/>
</g>
<g id="Vector_9">
<path d="M123.574 75.5756C128.973 73.2485 134.749 71.5281 139.707 68.4363C144.108 65.702 147.14 61.7875 150.289 57.9228C150.82 57.2746 149.776 56.9588 149.317 57.5239C145.979 61.613 142.785 65.594 137.971 68.3283C133.391 70.9047 128.235 72.4838 123.403 74.5782C122.764 74.8525 122.773 75.9579 123.574 75.6088V75.5756Z" fill="white"/>
<path d="M123.574 75.5756C128.973 73.2485 134.749 71.5281 139.707 68.4363C144.108 65.702 147.14 61.7875 150.289 57.9228C150.82 57.2746 149.776 56.9588 149.317 57.5239C145.979 61.613 142.785 65.594 137.971 68.3283C133.391 70.9047 128.235 72.4838 123.403 74.5782C122.764 74.8525 122.773 75.9579 123.574 75.6088V75.5756Z" fill="#2343C1"/>
</g>
<g id="Vector_10">
<path d="M158.234 63.5332C154.385 66.5839 150.873 69.9805 147.751 73.6727C144.359 77.8282 143.162 82.0752 141.21 86.8624C140.904 87.627 142.109 87.6021 142.334 86.987C144.206 82.3744 145.439 78.0776 148.723 74.0799C151.785 70.4847 155.221 67.1749 158.981 64.1981C159.62 63.6828 158.855 63.0179 158.234 63.5332Z" fill="white"/>
<path d="M158.234 63.5332C154.385 66.5839 150.873 69.9805 147.751 73.6727C144.359 77.8282 143.162 82.0752 141.21 86.8624C140.904 87.627 142.109 87.6021 142.334 86.987C144.206 82.3744 145.439 78.0776 148.723 74.0799C151.785 70.4847 155.221 67.1749 158.981 64.1981C159.62 63.6828 158.855 63.0179 158.234 63.5332Z" fill="#2343C1"/>
</g>
<g id="Vector_11">
<path d="M30.2168 28.0944C33.816 32.4577 36.3805 37.2366 40.2947 41.3921C44.8747 46.2126 49.4368 51.0745 54.3228 55.6456C58.5339 59.5851 62.5741 63.3583 67.649 66.3337C70.5844 68.0201 73.349 69.9478 75.9093 72.0932C77.7089 73.5975 79.2296 75.3678 81.3081 76.548C83.6386 77.8694 86.3831 78.3349 88.7226 79.6231C92.2499 81.5596 93.3296 84.859 94.1755 88.3248C94.9043 91.3084 95.8131 94.2589 96.506 97.2509C96.8929 98.9131 97.6577 101.406 97.2258 103.069C96.7309 105.022 95.0393 105.994 93.6266 103.767C90.8191 99.3536 91.7459 93.702 88.1647 89.5216C86.9557 88.2633 85.5445 87.1842 83.9806 86.3218C82.4689 85.366 78.7437 83.8285 77.7809 82.4655C77.376 81.892 76.3232 82.6483 76.6831 83.1553C77.5829 84.4186 79.3825 84.9255 80.6963 85.7234C84.2955 87.876 87.5078 89.8789 89.1185 93.7436C90.4682 96.935 90.4052 104.756 94.5174 106.576C98.0087 108.113 98.4495 103.625 98.3956 101.589C98.2786 97.6997 96.8479 93.968 95.9031 90.2197C95.2462 87.6266 94.8683 84.9089 93.5366 82.5153C92.386 80.5187 90.5413 78.9378 88.2997 78.0274C84.7004 76.3651 81.695 75.534 78.7167 72.8329C73.4078 68.0457 66.6592 65.1369 61.4223 60.3663C55.5375 55.014 49.8957 49.5037 44.4248 43.7857C41.5814 40.8187 38.72 37.968 36.5695 34.5687C34.9411 31.9921 33.1379 29.5132 31.1706 27.147C30.7657 26.6483 29.8209 27.5376 30.2708 28.0446L30.2168 28.0944Z" fill="white"/>
<path d="M30.2168 28.0944C33.816 32.4577 36.3805 37.2366 40.2947 41.3921C44.8747 46.2126 49.4368 51.0745 54.3228 55.6456C58.5339 59.5851 62.5741 63.3583 67.649 66.3337C70.5844 68.0201 73.349 69.9478 75.9093 72.0932C77.7089 73.5975 79.2296 75.3678 81.3081 76.548C83.6386 77.8694 86.3831 78.3349 88.7226 79.6231C92.2499 81.5596 93.3296 84.859 94.1755 88.3248C94.9043 91.3084 95.8131 94.2589 96.506 97.2509C96.8929 98.9131 97.6577 101.406 97.2258 103.069C96.7309 105.022 95.0393 105.994 93.6266 103.767C90.8191 99.3536 91.7459 93.702 88.1647 89.5216C86.9557 88.2633 85.5445 87.1842 83.9806 86.3218C82.4689 85.366 78.7437 83.8285 77.7809 82.4655C77.376 81.892 76.3232 82.6483 76.6831 83.1553C77.5829 84.4186 79.3825 84.9255 80.6963 85.7234C84.2955 87.876 87.5078 89.8789 89.1185 93.7436C90.4682 96.935 90.4052 104.756 94.5174 106.576C98.0087 108.113 98.4495 103.625 98.3956 101.589C98.2786 97.6997 96.8479 93.968 95.9031 90.2197C95.2462 87.6266 94.8683 84.9089 93.5366 82.5153C92.386 80.5187 90.5413 78.9378 88.2997 78.0274C84.7004 76.3651 81.695 75.534 78.7167 72.8329C73.4078 68.0457 66.6592 65.1369 61.4223 60.3663C55.5375 55.014 49.8957 49.5037 44.4248 43.7857C41.5814 40.8187 38.72 37.968 36.5695 34.5687C34.9411 31.9921 33.1379 29.5132 31.1706 27.147C30.7657 26.6483 29.8209 27.5376 30.2708 28.0446L30.2168 28.0944Z" fill="#2343C1"/>
</g>
<g id="Vector_12">
<path d="M0.523937 34.9758C1.42375 40.5442 6.59767 45.7137 9.28811 50.7003C13.2482 58.3849 15.3718 66.7665 15.5148 75.2762C15.5148 78.7585 15.5148 82.2741 15.2719 85.7564C15.1009 88.7235 14.2821 91.8318 15.0829 94.7739C15.9197 97.8657 18.2322 100.592 19.582 103.517C21.0306 106.626 22.2814 109.8 23.928 112.817C25.5027 115.676 27.8422 122.832 32.3683 123.065C34.1679 123.156 34.7708 121.943 35.2477 120.463C36.3095 117.139 35.9765 112.909 35.5356 109.501C35.1819 106.857 34.4183 104.273 33.2681 101.83C31.7114 98.4059 30.6407 94.7573 28.6161 91.5326C28.2472 90.9425 27.1764 91.6905 27.5093 92.2224C29.057 94.7157 29.8578 97.2756 30.9466 99.9019C32.1523 102.811 33.601 105.512 34.1589 108.62C34.7734 111.974 34.8583 115.392 34.4109 118.768C34.0149 121.403 32.8272 122.533 30.3617 120.613C28.3011 119.017 27.4913 116.507 26.3216 114.347C23.6221 109.36 21.5795 104.057 18.7361 99.1456C16.5946 95.4471 15.8837 93.0452 16.1897 88.7401C16.3876 85.8894 16.5406 83.0802 16.5946 80.2212C16.6936 74.8689 16.7296 69.8241 15.3169 64.5798C13.9041 59.3355 12.5274 53.6923 9.66603 48.7888C7.12856 44.4504 2.46753 39.472 1.6937 34.5186C1.57672 33.8039 0.406958 34.3607 0.505937 34.9591L0.523937 34.9758Z" fill="white"/>
<path d="M0.523937 34.9758C1.42375 40.5442 6.59767 45.7137 9.28811 50.7003C13.2482 58.3849 15.3718 66.7665 15.5148 75.2762C15.5148 78.7585 15.5148 82.2741 15.2719 85.7564C15.1009 88.7235 14.2821 91.8318 15.0829 94.7739C15.9197 97.8657 18.2322 100.592 19.582 103.517C21.0306 106.626 22.2814 109.8 23.928 112.817C25.5027 115.676 27.8422 122.832 32.3683 123.065C34.1679 123.156 34.7708 121.943 35.2477 120.463C36.3095 117.139 35.9765 112.909 35.5356 109.501C35.1819 106.857 34.4183 104.273 33.2681 101.83C31.7114 98.4059 30.6407 94.7573 28.6161 91.5326C28.2472 90.9425 27.1764 91.6905 27.5093 92.2224C29.057 94.7157 29.8578 97.2756 30.9466 99.9019C32.1523 102.811 33.601 105.512 34.1589 108.62C34.7734 111.974 34.8583 115.392 34.4109 118.768C34.0149 121.403 32.8272 122.533 30.3617 120.613C28.3011 119.017 27.4913 116.507 26.3216 114.347C23.6221 109.36 21.5795 104.057 18.7361 99.1456C16.5946 95.4471 15.8837 93.0452 16.1897 88.7401C16.3876 85.8894 16.5406 83.0802 16.5946 80.2212C16.6936 74.8689 16.7296 69.8241 15.3169 64.5798C13.9041 59.3355 12.5274 53.6923 9.66603 48.7888C7.12856 44.4504 2.46753 39.472 1.6937 34.5186C1.57672 33.8039 0.406958 34.3607 0.505937 34.9591L0.523937 34.9758Z" fill="#2343C1"/>
</g>
<g id="Vector_13">
<path d="M25.0617 90.5692C32.1342 95.5558 40.2955 99.4371 46.7562 105.064C50.1125 107.989 50.5174 111.787 51.8671 115.644C53.4148 120.073 55.2324 124.312 56.2222 128.892C56.9331 132.216 57.7159 135.15 59.6055 138.075C60.2894 139.131 61.0992 141.225 62.4399 141.757C66.1021 143.212 67.7398 138.881 66.894 136.496C66.669 135.865 65.5803 136.604 65.7872 137.178C65.1453 140.735 64.0236 141.679 62.4219 140.012C62.2959 139.804 62.17 139.596 62.053 139.38C61.1253 138.223 60.3236 136.984 59.6595 135.682C58.2198 133.014 57.7789 130.055 57.131 127.179C55.8443 121.486 53.3878 116.026 51.6422 110.449C50.2115 105.87 47.0531 103.443 43.031 100.559C37.5871 96.6612 31.5044 93.5279 25.9975 89.6716C25.4486 89.2893 24.5218 90.1952 25.0977 90.5692H25.0617Z" fill="white"/>
<path d="M25.0617 90.5692C32.1342 95.5558 40.2955 99.4371 46.7562 105.064C50.1125 107.989 50.5174 111.787 51.8671 115.644C53.4148 120.073 55.2324 124.312 56.2222 128.892C56.9331 132.216 57.7159 135.15 59.6055 138.075C60.2894 139.131 61.0992 141.225 62.4399 141.757C66.1021 143.212 67.7398 138.881 66.894 136.496C66.669 135.865 65.5803 136.604 65.7872 137.178C65.1453 140.735 64.0236 141.679 62.4219 140.012C62.2959 139.804 62.17 139.596 62.053 139.38C61.1253 138.223 60.3236 136.984 59.6595 135.682C58.2198 133.014 57.7789 130.055 57.131 127.179C55.8443 121.486 53.3878 116.026 51.6422 110.449C50.2115 105.87 47.0531 103.443 43.031 100.559C37.5871 96.6612 31.5044 93.5279 25.9975 89.6716C25.4486 89.2893 24.5218 90.1952 25.0977 90.5692H25.0617Z" fill="#2343C1"/>
</g>
<g id="Vector_14">
<path d="M57.4545 106.002C58.7772 111.961 60.0999 117.92 61.7646 123.804C62.4484 126.223 63.2313 128.617 63.9961 131.019C64.608 132.955 64.7969 135.905 66.0297 137.667C67.1454 139.246 68.5221 139.13 70.0428 137.9C72.4543 135.955 73.0752 131.933 72.5173 129.232C72.3643 128.517 71.2036 129.074 71.3296 129.664C71.5725 130.836 71.7345 133.686 70.8617 134.817C67.0825 139.745 66.3626 134.501 65.9217 133.063C65.0759 130.071 64.0231 127.129 63.1593 124.129C61.3596 118.012 60.0189 111.803 58.6602 105.595C58.4982 104.88 57.3375 105.445 57.4725 106.035L57.4545 106.002Z" fill="white"/>
<path d="M57.4545 106.002C58.7772 111.961 60.0999 117.92 61.7646 123.804C62.4484 126.223 63.2313 128.617 63.9961 131.019C64.608 132.955 64.7969 135.905 66.0297 137.667C67.1454 139.246 68.5221 139.13 70.0428 137.9C72.4543 135.955 73.0752 131.933 72.5173 129.232C72.3643 128.517 71.2036 129.074 71.3296 129.664C71.5725 130.836 71.7345 133.686 70.8617 134.817C67.0825 139.745 66.3626 134.501 65.9217 133.063C65.0759 130.071 64.0231 127.129 63.1593 124.129C61.3596 118.012 60.0189 111.803 58.6602 105.595C58.4982 104.88 57.3375 105.445 57.4725 106.035L57.4545 106.002Z" fill="#2343C1"/>
</g>
<g id="Vector_15">
<path d="M66.5519 99.7615C67.6496 101.964 68.6844 104.208 69.6202 106.477C70.817 109.361 70.673 111.588 70.3311 114.588C70.0644 117.049 69.5615 119.482 68.8284 121.861C68.3875 123.282 67.4697 124.728 67.1997 126.174C66.6599 129.133 68.7834 132.565 71.7888 129.897C76.7557 125.501 78.4474 118.52 79.8241 112.536C80.7239 108.496 80.9669 104.432 79.5812 100.468C78.0245 96.0132 75.514 91.8493 74.0923 87.378C73.8673 86.6798 72.7246 87.2367 72.9045 87.8185C75.0821 94.6751 79.8511 100.742 79.3472 108.197C78.9423 114.231 76.8007 122.567 72.6886 127.404C71.4199 128.9 69.1883 130.305 68.3965 127.562C67.9916 126.166 69.1073 124.504 69.5842 123.215C70.5079 120.601 71.1322 117.905 71.4469 115.17C71.8068 112.419 72.2207 109.943 71.3479 107.258C70.3208 104.455 69.0882 101.72 67.6586 99.0717C67.3527 98.4566 66.2729 99.2046 66.5519 99.7615Z" fill="white"/>
<path d="M66.5519 99.7615C67.6496 101.964 68.6844 104.208 69.6202 106.477C70.817 109.361 70.673 111.588 70.3311 114.588C70.0644 117.049 69.5615 119.482 68.8284 121.861C68.3875 123.282 67.4697 124.728 67.1997 126.174C66.6599 129.133 68.7834 132.565 71.7888 129.897C76.7557 125.501 78.4474 118.52 79.8241 112.536C80.7239 108.496 80.9669 104.432 79.5812 100.468C78.0245 96.0132 75.514 91.8493 74.0923 87.378C73.8673 86.6798 72.7246 87.2367 72.9045 87.8185C75.0821 94.6751 79.8511 100.742 79.3472 108.197C78.9423 114.231 76.8007 122.567 72.6886 127.404C71.4199 128.9 69.1883 130.305 68.3965 127.562C67.9916 126.166 69.1073 124.504 69.5842 123.215C70.5079 120.601 71.1322 117.905 71.4469 115.17C71.8068 112.419 72.2207 109.943 71.3479 107.258C70.3208 104.455 69.0882 101.72 67.6586 99.0717C67.3527 98.4566 66.2729 99.2046 66.5519 99.7615Z" fill="#2343C1"/>
</g>
<g id="Vector_16">
<path d="M64.6896 102.113C66.7052 107.1 69.2517 112.153 69.8006 117.488C69.8726 118.203 71.0513 117.646 70.9883 117.048C70.4304 111.612 67.848 106.476 65.7964 101.423C65.5445 100.8 64.4557 101.539 64.6896 102.113Z" fill="white"/>
<path d="M64.6896 102.113C66.7052 107.1 69.2517 112.153 69.8006 117.488C69.8726 118.203 71.0513 117.646 70.9883 117.048C70.4304 111.612 67.848 106.476 65.7964 101.423C65.5445 100.8 64.4557 101.539 64.6896 102.113Z" fill="#2343C1"/>
</g>
<g id="Vector_17">
<path d="M67.0385 98.4402C65.6299 100.541 63.6909 102.295 61.3877 103.551C60.7309 103.942 61.1088 104.873 61.8556 104.432C64.3654 103.057 66.4772 101.141 68.0103 98.8474C68.4512 98.141 67.4255 97.8168 67.0385 98.4402Z" fill="white"/>
<path d="M67.0385 98.4402C65.6299 100.541 63.6909 102.295 61.3877 103.551C60.7309 103.942 61.1088 104.873 61.8556 104.432C64.3654 103.057 66.4772 101.141 68.0103 98.8474C68.4512 98.141 67.4255 97.8168 67.0385 98.4402Z" fill="#2343C1"/>
</g>
<g id="Vector_18">
<path d="M76.5409 82.8395C76.001 83.4877 75.5151 84.1692 74.9752 84.8258C74.2035 85.6578 73.5392 86.5698 72.9956 87.5436C72.6537 88.2916 73.8414 88.2666 74.1204 87.6682C74.6685 86.7253 75.3328 85.844 76.1 85.0419C76.5859 84.4518 76.9998 83.8285 77.5127 83.2467C78.0256 82.6649 77.0088 82.2826 76.5409 82.8395Z" fill="white"/>
<path d="M76.5409 82.8395C76.001 83.4877 75.5151 84.1692 74.9752 84.8258C74.2035 85.6578 73.5392 86.5698 72.9956 87.5436C72.6537 88.2916 73.8414 88.2666 74.1204 87.6682C74.6685 86.7253 75.3328 85.844 76.1 85.0419C76.5859 84.4518 76.9998 83.8285 77.5127 83.2467C78.0256 82.6649 77.0088 82.2826 76.5409 82.8395Z" fill="#2343C1"/>
</g>
<g id="Vector_19">
<path d="M103.237 91.2002C104.758 93.1283 106.053 95.2227 107.556 97.1758C109.059 99.1289 110.337 99.7356 112.523 100.733C113.117 101.007 113.891 99.9933 113.234 99.6941C112.249 99.3557 111.306 98.924 110.418 98.4059C109.44 97.5443 108.595 96.5627 107.907 95.4887C106.656 93.8265 105.604 92.1144 104.308 90.502C103.876 89.9535 102.823 90.7015 103.21 91.1918L103.237 91.2002Z" fill="white"/>
<path d="M103.237 91.2002C104.758 93.1283 106.053 95.2227 107.556 97.1758C109.059 99.1289 110.337 99.7356 112.523 100.733C113.117 101.007 113.891 99.9933 113.234 99.6941C112.249 99.3557 111.306 98.924 110.418 98.4059C109.44 97.5443 108.595 96.5627 107.907 95.4887C106.656 93.8265 105.604 92.1144 104.308 90.502C103.876 89.9535 102.823 90.7015 103.21 91.1918L103.237 91.2002Z" fill="#2343C1"/>
</g>
<g id="Vector_20">
<path d="M102.203 94.6076C103.295 97.063 104.858 99.3156 106.819 101.256C107.935 102.47 109.518 103.55 111.318 103.027C112.002 102.827 111.984 101.755 111.147 101.996C109.239 102.553 107.548 100.226 106.648 99.1371C105.227 97.5884 104.093 95.8333 103.292 93.9427C103.058 93.3194 101.969 94.0591 102.194 94.6325L102.203 94.6076Z" fill="white"/>
<path d="M102.203 94.6076C103.295 97.063 104.858 99.3156 106.819 101.256C107.935 102.47 109.518 103.55 111.318 103.027C112.002 102.827 111.984 101.755 111.147 101.996C109.239 102.553 107.548 100.226 106.648 99.1371C105.227 97.5884 104.093 95.8333 103.292 93.9427C103.058 93.3194 101.969 94.0591 102.194 94.6325L102.203 94.6076Z" fill="#2343C1"/>
</g>
</g>
</g>
</g>
<defs>
<clipPath id="clip0_691_6905">
<rect x="0.5" width="180" height="180" rx="90" fill="white"/>
</clipPath>
</defs>
</svg>
