<svg xmlns="http://www.w3.org/2000/svg" width="30" height="28" viewBox="0 0 30 28" fill="none">
  <path d="M19.9727 16.1421L20.0394 16.1674C21.4241 16.6927 22.9548 16.6836 24.3333 16.1421V16.1421" stroke="#2343C1"/>
  <path d="M4.06012 24.1748V21.1385C4.06012 20.4011 4.40729 19.7068 4.99718 19.2644V19.2644C5.7312 18.7138 6.71905 18.6425 7.52455 19.0819L7.57959 19.1119C8.29029 19.4996 9.15314 19.4818 9.84732 19.0653V19.0653C10.5703 18.6316 11.4767 18.6335 12.1996 19.0673V19.0673C12.8909 19.482 13.3169 20.2309 13.3169 21.0371V24.1748" stroke="#2343C1" stroke-linecap="round"/>
  <path d="M10.2568 4.51367V4.51367C12.904 5.76507 14.803 8.19525 15.3772 11.0665L16.1302 14.8313C16.2693 15.5267 15.8472 16.2113 15.1634 16.3993L13.3169 16.9071M7.34973 4.51367V4.51367C4.60845 5.76408 2.62661 8.24534 2.01304 11.1952L1.25819 14.8243C1.11327 15.521 1.53724 16.2097 2.22455 16.3941L4.13661 16.9071" stroke="#2343C1"/>
  <path d="M1.57104 24.1749C1.57104 24.451 1.7949 24.6749 2.07104 24.6749C2.34719 24.6749 2.57104 24.451 2.57104 24.1749H1.57104ZM6.23065 15.5911L4.51595 16.155L4.82833 17.1049L6.54303 16.5411L6.23065 15.5911ZM1.57104 20.2234V24.1749H2.57104V20.2234H1.57104ZM4.51595 16.155C2.7587 16.7328 1.57104 18.3736 1.57104 20.2234H2.57104C2.57104 18.8055 3.48139 17.5479 4.82833 17.1049L4.51595 16.155ZM6.77323 14.8416C6.77323 15.1824 6.55441 15.4847 6.23065 15.5911L6.54303 16.5411C7.2771 16.2997 7.77323 15.6143 7.77323 14.8416H6.77323Z" fill="#2343C1"/>
  <path d="M9.68032 14.9181C9.68032 14.6419 9.90418 14.4181 10.1803 14.4181C10.4565 14.4181 10.6803 14.6419 10.6803 14.9181H9.68032ZM12.7814 16.6777L12.9353 16.2019L12.7814 16.6777ZM11.2077 15.643L12.9353 16.2019L12.6275 17.1534L10.8999 16.5944L11.2077 15.643ZM15.8825 20.253V24.1749H14.8825V20.253H15.8825ZM12.9353 16.2019C14.6922 16.7703 15.8825 18.4064 15.8825 20.253H14.8825C14.8825 18.8401 13.9718 17.5883 12.6275 17.1534L12.9353 16.2019ZM10.6803 14.9181C10.6803 15.2485 10.8933 15.5413 11.2077 15.643L10.8999 16.5944C10.1729 16.3592 9.68032 15.6822 9.68032 14.9181H10.6803Z" fill="#2343C1"/>
  <path d="M14.8822 24.1749C14.8822 24.451 15.1061 24.6749 15.3822 24.6749C15.6583 24.6749 15.8822 24.451 15.8822 24.1749H14.8822ZM19.6235 15.4526L17.9077 16.0007L18.2119 16.9533L19.9278 16.4051L19.6235 15.4526ZM14.8822 20.1432V24.1749H15.8822V20.1432H14.8822ZM17.9077 16.0007C16.1054 16.5764 14.8822 18.2512 14.8822 20.1432H15.8822C15.8822 18.6863 16.8241 17.3966 18.2119 16.9533L17.9077 16.0007ZM20.2374 14.6121C20.2374 14.9959 19.9892 15.3358 19.6235 15.4526L19.9278 16.4051C20.7079 16.156 21.2374 15.431 21.2374 14.6121H20.2374Z" fill="#2343C1"/>
  <path d="M29.4997 24.1749C29.4997 24.451 29.2758 24.6749 28.9997 24.6749C28.7236 24.6749 28.4997 24.451 28.4997 24.1749H29.4997ZM24.8312 15.4758L26.4742 16.0006L26.17 16.9532L24.5269 16.4284L24.8312 15.4758ZM29.4997 20.1432V24.1749H28.4997V20.1432H29.4997ZM26.4742 16.0006C28.2765 16.5763 29.4997 18.2512 29.4997 20.1432H28.4997C28.4997 18.6863 27.5578 17.3965 26.17 16.9532L26.4742 16.0006ZM24.1445 14.5355C24.1445 14.965 24.4222 15.3451 24.8312 15.4758L24.5269 16.4284C23.7034 16.1653 23.1445 15.4 23.1445 14.5355H24.1445Z" fill="#2343C1"/>
  <path d="M4.67212 10.2513L4.87038 11.7713C5.03415 13.0269 5.80199 14.1338 6.91537 14.7369V14.7369C8.08403 15.3699 9.50691 15.3703 10.6699 14.7269V14.7269C11.7567 14.1257 12.4918 13.0424 12.6491 11.8104L12.8579 10.1748" stroke="#2343C1"/>
  <path d="M17.9071 9.79236L18.0686 11.2499C18.2138 12.5615 19.0075 13.7297 20.1648 14.3637V14.3637C21.3871 15.0334 22.8903 15.0239 24.0941 14.3214V14.3214C25.1527 13.7037 25.8668 12.6317 26.029 11.4169L26.2459 9.79236" stroke="#2343C1"/>
  <path d="M5.78827 8.83704L4.63536 10.2782C4.62328 10.2933 4.59895 10.2837 4.6004 10.2644L4.66669 9.38046C4.76625 8.05311 5.49759 6.85203 6.6298 6.15212C8.07804 5.25684 9.95006 5.3504 11.3151 6.368C12.4937 7.2466 13.124 8.70555 12.9359 10.1635C12.9351 10.1701 12.9296 10.175 12.923 10.1753C10.7438 10.2744 8.55849 9.76681 6.65156 8.70741L6.59787 8.67758C6.32524 8.52612 5.9831 8.59351 5.78827 8.83704Z" stroke="#2343C1"/>
  <path d="M19.055 8.41423L17.8714 9.89434C17.859 9.90986 17.834 9.90002 17.8355 9.88022L17.9037 8.97083C18.0058 7.60856 18.7561 6.37589 19.918 5.65732C21.4051 4.73756 23.3269 4.83318 24.7286 5.87858C25.9389 6.78123 26.5854 8.27918 26.3923 9.77663C26.3914 9.78334 26.3858 9.78846 26.379 9.78877C24.142 9.8905 21.8988 9.36924 19.9414 8.28133L19.886 8.25052C19.6062 8.09498 19.2549 8.16417 19.055 8.41423Z" stroke="#2343C1"/>
  <path d="M7.12024 5.8142V5.31604C7.12024 4.40813 7.85625 3.67212 8.76416 3.67212V3.67212V3.67212C9.7153 3.67212 10.4864 4.44318 10.4864 5.39432V5.8142" stroke="#2343C1"/>
  <path d="M20.1257 15.7595L19.3843 17.6129C19.3694 17.6503 19.3724 17.6924 19.3926 17.7273L22.0777 22.3719C22.1282 22.4592 22.2543 22.4592 22.3048 22.3719L24.9886 17.7297C25.0095 17.6935 25.0119 17.6495 24.9951 17.6112L24.1803 15.7595" stroke="#2343C1"/>
  <path d="M21.6557 16.1421L20.5082 19.6612" stroke="#2343C1"/>
  <path d="M22.7268 16.1421L23.8743 19.6612" stroke="#2343C1"/>
  <path d="M26.8574 20.0438V24.175" stroke="#2343C1" stroke-linecap="round"/>
  <path d="M17.3711 20.0438V24.175" stroke="#2343C1" stroke-linecap="round"/>
  <rect x="20.2787" y="9.94531" width="0.765027" height="1.07104" rx="0.382514" fill="#2343C1"/>
  <rect x="23.1858" y="9.94531" width="0.765027" height="1.07104" rx="0.382514" fill="#2343C1"/>
  <rect x="6.96667" y="10.7106" width="0.765027" height="1.07104" rx="0.382514" fill="#2343C1"/>
  <rect x="9.87378" y="10.7106" width="0.765027" height="1.07104" rx="0.382514" fill="#2343C1"/>
  <path d="M21.1967 12.3169V12.3169C21.7037 12.8239 22.5258 12.8239 23.0328 12.3169V12.3169" stroke="#2343C1" stroke-width="0.5" stroke-linecap="round"/>
  <path d="M7.88525 13.0819V13.0819C8.39227 13.5889 9.2143 13.5889 9.72132 13.0819V13.0819" stroke="#2343C1" stroke-width="0.5" stroke-linecap="round"/>
</svg>