<svg xmlns="http://www.w3.org/2000/svg" width="28" height="28" viewBox="0 0 28 28" fill="none">
  <path d="M10.6826 7.59786C7.53309 8.86171 5.26217 11.8682 5.16775 15.3993C5.04255 20.0819 8.79167 23.8397 13.546 23.8397C18.3003 23.8397 22.2504 20.0819 22.3756 15.3993C22.4701 11.8682 20.3599 8.86169 17.278 7.59781L18.0582 6.85283C21.3101 8.3579 23.5025 11.6288 23.4017 15.3992C23.263 20.584 18.8356 24.8252 13.5197 24.8252C8.20369 24.8252 4.0031 20.5839 4.14173 15.3992C4.24254 11.6288 6.60981 8.35794 9.94218 6.85286L10.6826 7.59786ZM14.9856 3.23701L13.2081 3.23701L13.7293 2.49982H14.5038L14.9856 3.23701ZM11.4036 2.49982L10.8824 3.23701H10.5068L11.0281 2.49982H11.4036ZM17.3115 3.23701L16.8296 2.49982H17.2052L17.687 3.23701H17.3115ZM15.1793 5.14674L13.9864 7.36798L12.9124 5.14677L15.1793 5.14674Z" fill="#213FB5" stroke="#213FB5"/>
</svg>