<svg xmlns="http://www.w3.org/2000/svg" width="28" height="28" viewBox="0 0 28 28" fill="none">
  <path d="M10.2477 25.6667C8.28166 24.7892 6.65772 23.4218 5.59033 21.5914" stroke="#213FB5" stroke-width="1.5" stroke-linecap="round"/>
  <path d="M17.2961 2.55029C19.2524 1.99363 21.2722 2.52357 22.6821 3.96346" stroke="#213FB5" stroke-width="1.5" stroke-linecap="round"/>
  <path d="M4.67904 9.76097L4.30689 9.10981L4.67904 9.76097ZM7.58588 10.3453L8.23376 9.96753V9.96753L7.58588 10.3453ZM3.7366 12.5452L3.08871 12.9231H3.08871L3.7366 12.5452ZM8.97966 3.93462L9.62755 3.55681V3.55681L8.97966 3.93462ZM9.96186 5.61894L9.31397 5.99675L9.96186 5.61894ZM12.2606 11.0497C12.4692 11.4075 12.9284 11.5285 13.2863 11.3198C13.6441 11.1111 13.765 10.6519 13.5563 10.2941L12.2606 11.0497ZM8.90239 14.0918C9.11105 14.4496 9.57027 14.5705 9.92809 14.3619C10.2859 14.1532 10.4068 13.694 10.1982 13.3362L8.90239 14.0918ZM5.13038 6.13453L4.48249 6.51234L5.13038 6.13453ZM13.8111 3.41903L14.459 3.04122V3.04122L13.8111 3.41903ZM16.7577 8.47201L17.4056 8.0942L16.7577 8.47201ZM18.7221 11.8407L19.0943 12.4918C19.268 12.3926 19.3948 12.228 19.4466 12.0348C19.4984 11.8416 19.4708 11.6357 19.37 11.4628L18.7221 11.8407ZM20.607 6.2721L19.9591 6.64991V6.64991L20.607 6.2721ZM23.5536 11.3251L24.2015 10.9473L23.5536 11.3251ZM8.15649 20.1247L8.80438 19.7469V19.7469L8.15649 20.1247ZM19.7839 22.4622L19.4117 21.811L19.7839 22.4622ZM16.1894 17.787C16.398 18.1448 16.8572 18.2658 17.2151 18.0571C17.5729 17.8484 17.6938 17.3892 17.4851 17.0314L16.1894 17.787ZM5.05118 10.4121C5.83671 9.96319 6.64644 10.2232 6.93799 10.7231L8.23376 9.96753C7.44041 8.60704 5.64726 8.34377 4.30689 9.10981L5.05118 10.4121ZM4.30689 9.10981C2.9642 9.87718 2.29163 11.5562 3.08871 12.9231L4.38448 12.1674C4.09666 11.6739 4.26798 10.8597 5.05118 10.4121L4.30689 9.10981ZM8.33177 4.31243L9.31397 5.99675L10.6097 5.24113L9.62755 3.55681L8.33177 4.31243ZM9.31397 5.99675L12.2606 11.0497L13.5563 10.2941L10.6097 5.24113L9.31397 5.99675ZM10.1982 13.3362L8.23376 9.96753L6.93799 10.7231L8.90239 14.0918L10.1982 13.3362ZM8.23376 9.96753L5.77827 5.75672L4.48249 6.51234L6.93799 10.7231L8.23376 9.96753ZM6.44496 4.00141C7.23049 3.55247 8.04022 3.81246 8.33177 4.31243L9.62755 3.55681C8.83419 2.19632 7.04105 1.93305 5.70067 2.69909L6.44496 4.00141ZM5.70067 2.69909C4.35798 3.46646 3.68541 5.14547 4.48249 6.51234L5.77827 5.75672C5.49044 5.26314 5.66176 4.44902 6.44496 4.00141L5.70067 2.69909ZM13.1633 3.79684L16.1098 8.84982L17.4056 8.0942L14.459 3.04122L13.1633 3.79684ZM16.1098 8.84982L18.0742 12.2185L19.37 11.4628L17.4056 8.0942L16.1098 8.84982ZM11.2764 3.48582C12.062 3.03689 12.8717 3.29688 13.1633 3.79685L14.459 3.04122C13.6657 1.68074 11.8725 1.41747 10.5322 2.18351L11.2764 3.48582ZM10.5322 2.18351C9.18946 2.95087 8.51689 4.62988 9.31397 5.99675L10.6097 5.24113C10.3219 4.74756 10.4932 3.93343 11.2764 3.48582L10.5322 2.18351ZM19.9591 6.64991L22.9057 11.7029L24.2015 10.9473L21.2549 5.89429L19.9591 6.64991ZM18.0723 6.33889C18.8578 5.88995 19.6676 6.14994 19.9591 6.64991L21.2549 5.89429C20.4615 4.5338 18.6684 4.27053 17.328 5.03657L18.0723 6.33889ZM17.328 5.03657C15.9853 5.80394 15.3128 7.48294 16.1098 8.84982L17.4056 8.0942C17.1178 7.60062 17.2891 6.7865 18.0723 6.33889L17.328 5.03657ZM3.08871 12.9231L7.50861 20.5025L8.80438 19.7469L4.38448 12.1674L3.08871 12.9231ZM19.4117 21.811C15.4373 24.0824 10.7233 23.0375 8.80438 19.7469L7.50861 20.5025C9.92932 24.6537 15.6268 25.7018 20.156 23.1133L19.4117 21.811ZM22.9057 11.7029C24.8209 14.9871 23.3838 19.5409 19.4117 21.811L20.156 23.1133C24.6875 20.5235 26.6259 15.1048 24.2015 10.9473L22.9057 11.7029ZM17.4851 17.0314C16.6549 15.6076 17.2481 13.5469 19.0943 12.4918L18.35 11.1895C15.9443 12.5643 14.8498 15.4899 16.1894 17.787L17.4851 17.0314Z" fill="#213FB5"/>
</svg>