<svg xmlns="http://www.w3.org/2000/svg" width="40" height="40" viewBox="0 0 40 40" fill="none">
  <path d="M9.44921 16.5239L14.5528 9.61879C17.8517 5.15538 19.5012 2.92367 21.0401 3.39527C22.5791 3.86688 22.5791 6.60407 22.5791 12.0784V12.5946C22.5791 14.5691 22.5791 15.5564 23.2099 16.1756L23.2433 16.2077C23.8878 16.8139 24.9154 16.8139 26.9704 16.8139C30.6685 16.8139 32.5176 16.8139 33.1425 17.9354C33.1529 17.954 33.1629 17.9727 33.1727 17.9916C33.7626 19.1305 32.692 20.579 30.5507 23.4761L25.4472 30.381C22.1482 34.8445 20.4987 37.0762 18.9597 36.6046C17.4208 36.1329 17.4208 33.3957 17.4209 27.9213L17.4209 27.4053C17.421 25.4308 17.421 24.4436 16.7901 23.8243L16.7567 23.7922C16.1122 23.186 15.0846 23.186 13.0296 23.186C9.33147 23.186 7.48241 23.186 6.8575 22.0645C6.84715 22.0459 6.83709 22.0272 6.82732 22.0083C6.2374 20.8694 7.30801 19.4209 9.44921 16.5239Z" stroke="#FC6A6A" stroke-width="2"/>
</svg>