<svg width="140" height="32" viewBox="0 0 140 32" fill="none" xmlns="http://www.w3.org/2000/svg">
<path d="M97.6677 6H100.218C101.2 6 101.76 6.68347 101.897 8.05041V12.4972C101.897 12.8475 101.901 13.642 101.909 14.8808C102.761 14.2677 103.813 14.0831 104.742 13.9453C105.671 13.8076 108.038 12.8166 108.198 10.939C109.125 12.8629 108.42 13.8634 106.895 14.7014C107.911 15.2824 108.42 16.0427 108.42 16.9825V19.3917C108.42 20.4169 108.607 20.9808 108.983 21.0833L109.355 21.1602H110.252L110.329 21.2371V21.519L110.252 21.5959H107.971C107.091 21.4934 106.651 20.968 106.651 20.0196V17.1491C106.651 14.7014 101.897 15.1803 101.897 16.7518V19.4302C101.897 20.5835 101.444 21.3054 100.538 21.5959L100.051 21.6343H97.5908V21.5575V20.7629V20.686H98.7057C99.3123 20.686 99.6669 20.2674 99.7694 19.4302V8.24263C99.7694 7.35412 99.3337 6.90987 98.4622 6.90987H97.6677L97.5908 6.83298V6.07689L97.6677 6Z" fill="#292628"/>
<path d="M90.2606 10.3187H93.1184C93.7335 10.3187 94.2504 10.639 94.669 11.2798C94.8911 11.7155 95.0022 12.2452 95.0022 12.8689V19.0585C94.9595 20.0581 95.2969 20.5963 96.0146 20.6732L96.3349 20.7117H96.8732L96.9116 20.7373V21.6343L96.8732 21.6728H94.5537C93.7335 21.6728 93.1739 21.2371 92.8749 20.3657C92.7296 19.9385 92.657 19.5284 92.657 19.1354V12.9586C92.657 12.2067 92.3666 11.7155 91.7856 11.4848C91.6233 11.4421 91.4823 11.4208 91.3627 11.4208H90.2606L90.2222 11.3951V10.3443L90.2606 10.3187Z" fill="#292628"/>
<path d="M84.4554 10.0239H84.6989C85.8608 10.0239 86.8647 10.4511 87.7104 11.3054C88.5392 12.2281 88.9535 13.2918 88.9535 14.4964V18.7125C88.9535 19.9086 89.1884 20.6177 89.6583 20.8398C89.6583 20.8911 89.8292 20.9466 90.1709 21.0064H91.5037L91.5421 21.0449V21.66L91.5037 21.6984H88.3384C87.467 21.6984 86.8988 21.0619 86.634 19.789C86.5998 19.6437 86.5827 19.49 86.5827 19.3276V14.7911C86.5827 13.296 86.0488 12.3264 84.9808 11.8821C84.5451 11.7283 84.0881 11.6514 83.6096 11.6514C82.7297 11.6771 81.8625 12.117 81.0082 12.9714C80.6921 13.3558 80.534 13.7403 80.534 14.1247V21.6984L80.4956 21.7369H78.1889L78.1376 21.6984V12.8048C78.1376 12.053 77.83 11.5446 77.2149 11.2798L76.7664 11.2157H75.6899L75.6515 11.1773V10.1777L75.6899 10.1393H78.5989C79.3337 10.1393 79.9018 10.5451 80.3033 11.3567L80.4187 11.754C81.6746 10.6262 83.0201 10.0496 84.4554 10.0239Z" fill="#292628"/>
<path d="M67.9367 21.6984H67.706C66.5527 21.6984 65.5531 21.2755 64.7073 20.4297C63.8871 19.5156 63.4771 18.4562 63.4771 17.2516V13.0611C63.4771 11.8736 63.2421 11.173 62.7722 10.9594C62.7722 10.8996 62.6014 10.8398 62.2596 10.78H60.9397L60.9012 10.7416V10.1393L60.9397 10.1008H64.0794C64.9508 10.1008 65.5147 10.733 65.771 11.9975C65.8137 12.1427 65.835 12.2965 65.835 12.4588V16.9569C65.835 18.4434 66.3605 19.4088 67.4113 19.8531C67.8555 20.0069 68.3083 20.0837 68.7697 20.0837C69.4531 20.0837 70.2178 19.6608 71.0636 18.8151C71.3797 18.4306 71.5377 18.0462 71.5377 17.6617V10.1393L71.5762 10.1008H73.8701L73.9085 10.1393V18.9688C73.9085 19.7207 74.2161 20.229 74.8312 20.4938L75.2797 20.5451H76.3434L76.3818 20.5835V21.5831L76.3434 21.6215H73.46C72.7338 21.6215 72.1699 21.22 71.7684 20.4169L71.6531 20.0197C70.4057 21.1388 69.1669 21.6984 67.9367 21.6984Z" fill="#292628"/>
<path d="M56.2623 21.6216L52.4178 12.4844C51.9479 11.3567 51.0381 10.733 49.6882 10.6134V10.1393H51.8027C53.2551 10.1393 54.2461 10.7629 54.7758 12.0103L57.5054 18.4562L60.0995 12.668H61.3426L57.0056 22.9031C56.5272 24.1418 55.9761 24.9919 55.3525 25.4533C54.8228 25.8633 54.0923 26.0427 53.1611 25.9915L51.8924 25.9146V24.71C54.0026 25.0175 55.2927 24.4152 55.7626 22.9031L56.2623 21.6216Z" fill="#292628"/>
<path fill-rule="evenodd" clip-rule="evenodd" d="M45.5745 9.98547H42.5758L42.563 9.99829V11.0619L42.5758 11.0748C42.8797 11.0841 43.2081 11.0659 43.5437 11.0473C44.7658 10.9795 46.0841 10.9064 46.6638 12.1384C46.9391 12.9018 46.9458 13.6351 46.9458 14.4323C44.351 14.9041 39.9952 15.8295 40 19.097C40.0023 20.629 41.5184 21.6472 43.0115 21.6472C44.3699 21.6472 45.6984 20.9936 46.997 19.6865C47.1627 20.6807 47.6892 21.724 48.8424 21.724H50.88V21.0449C49.6926 21.0449 49.2012 20.4223 49.2012 19.2251V15.6238C48.7927 15.7183 47.4547 16.0678 46.9458 16.2058V18.6228C45.9621 19.8544 42.5731 21.1738 42.563 18.4947V18.4818C42.563 16.4133 45.3365 15.8281 46.9458 15.5216V15.5233C47.4713 15.4199 48.7715 15.1904 49.2012 15.1179V15.1171C50.2211 14.9584 50.7225 14.4819 50.3399 13.4481C50.1939 13.8672 49.8291 14.0341 49.2012 14.111C49.1828 13.4122 49.1221 12.7424 48.8552 12.0871C48.3045 10.838 46.9413 9.98547 45.5745 9.98547Z" fill="#292628"/>
<path fill-rule="evenodd" clip-rule="evenodd" d="M116.108 9.98547H113.11L113.097 9.99829V11.0619L113.11 11.0748C113.414 11.0841 113.742 11.0659 114.078 11.0473C115.3 10.9795 116.618 10.9064 117.198 12.1384C117.473 12.9018 117.48 13.6351 117.48 14.4323C114.885 14.9041 110.529 15.8295 110.534 19.097C110.536 20.629 112.052 21.6472 113.545 21.6472C114.904 21.6472 116.232 20.9936 117.531 19.6865C117.697 20.6807 118.223 21.724 119.376 21.724H121.414V21.0449C120.227 21.0449 119.735 20.4223 119.735 19.2251V15.6238C119.327 15.7183 117.989 16.0678 117.48 16.2058V18.6228C116.496 19.8544 113.107 21.1738 113.097 18.4947V18.4818C113.097 16.4133 115.87 15.8281 117.48 15.5216V15.5233C118.005 15.4199 119.305 15.1904 119.735 15.1179V15.1171C120.755 14.9584 121.256 14.4819 120.874 13.4481C120.728 13.8672 120.363 14.0341 119.735 14.111C119.717 13.4122 119.656 12.7424 119.389 12.0871C118.838 10.838 117.475 9.98547 116.108 9.98547Z" fill="#292628"/>
<rect y="2" width="28" height="28" rx="14" fill="#FFECF5"/>
<path fill-rule="evenodd" clip-rule="evenodd" d="M13.9875 9.82772C13.9875 9.82772 11.2173 10.4074 10.7413 9C10.2774 9.64237 10.5548 10.8835 11.5987 11.0698C11.8895 11.1217 12.2116 11.1027 12.5409 11.0832C13.3935 11.0329 14.2946 10.9796 14.8274 12.1473C15.1026 12.9342 15.1092 13.6901 15.1092 14.5118C12.5157 14.9981 8.16178 15.9521 8.16663 19.3201C8.1689 20.8993 9.4309 21.9488 11.1768 21.9488C12.5346 21.9488 13.8625 21.2751 15.1605 19.9277C15.3261 20.9526 15.8524 22.028 17.005 22.028C19.015 22.028 19.3674 21.1065 19.1716 20.0568C18.3494 21.1671 17.3637 20.6863 17.3637 19.4522V15.7623C17.3193 15.7799 17.2711 15.7988 17.2198 15.8188C16.4805 16.1078 15.0928 16.6503 15.1103 17.5973C15.1104 17.6038 15.11 17.6025 15.1092 17.5943V18.8313C14.1261 20.1008 10.7385 21.4609 10.7285 18.6992V18.686C10.7285 16.5538 13.5007 15.9506 15.1092 15.6346V15.6359C15.6364 15.529 16.9364 15.2924 17.3637 15.2181V15.2177C18.3831 15.0541 18.8843 14.563 18.5018 13.4973C18.3559 13.9293 17.9913 14.1014 17.3637 14.1807C17.3452 13.4604 17.2846 12.7699 17.0178 12.0945C16.4674 10.8069 15.3536 9.82772 13.9875 9.82772Z" fill="#292728"/>
</svg>
