<svg width="140" height="40" viewBox="0 0 140 40" fill="none" xmlns="http://www.w3.org/2000/svg">
<path d="M109.201 8H112.261C113.44 8 114.112 8.82016 114.276 10.4605V15.7967C114.276 16.217 114.281 17.1704 114.291 18.657C115.313 17.9212 116.575 17.6997 117.69 17.5344C118.805 17.3691 121.645 16.18 121.837 13.9268C122.95 16.2355 122.104 17.4361 120.273 18.4417C121.493 19.1388 122.103 20.0513 122.103 21.179V24.0701C122.103 25.3003 122.329 25.9769 122.78 26.1L123.226 26.1922H124.302L124.395 26.2845V26.6228L124.302 26.7151H121.565C120.509 26.5921 119.981 25.9616 119.981 24.8236V21.3789C119.981 18.4417 114.276 19.0163 114.276 20.9022V24.1162C114.276 25.5002 113.733 26.3665 112.646 26.7151L112.062 26.7612H109.109V26.6689V25.7155V25.6232H110.447C111.175 25.6232 111.6 25.1209 111.723 24.1162V10.6912C111.723 9.62495 111.2 9.09184 110.155 9.09184H109.201L109.109 8.99957V8.09227L109.201 8Z" fill="#292628"/>
<path d="M100.313 13.1824H103.742C104.48 13.1824 105.1 13.5668 105.603 14.3357C105.869 14.8586 106.003 15.4942 106.003 16.2426V23.6702C105.951 24.8697 106.356 25.5156 107.217 25.6078L107.602 25.654H108.248L108.294 25.6847V26.7612L108.248 26.8073H105.464C104.48 26.8073 103.809 26.2845 103.45 25.2388C103.276 24.7262 103.188 24.2341 103.188 23.7625V16.3503C103.188 15.4481 102.84 14.8586 102.143 14.5818C101.948 14.5305 101.779 14.5049 101.635 14.5049H100.313L100.267 14.4741V13.2131L100.313 13.1824Z" fill="#292628"/>
<path d="M93.3465 12.8287H93.6386C95.0329 12.8287 96.2375 13.3413 97.2525 14.3665C98.2469 15.4738 98.7442 16.7501 98.7442 18.1957V23.255C98.7442 24.6903 99.0261 25.5413 99.5899 25.8078C99.5899 25.8693 99.795 25.936 100.205 26.0077H101.804L101.851 26.0539V26.792L101.804 26.8381H98.006C96.9603 26.8381 96.2785 26.0744 95.9607 24.5468C95.9197 24.3725 95.8992 24.188 95.8992 23.9932V18.5494C95.8992 16.7553 95.2585 15.5917 93.977 15.0586C93.4541 14.874 92.9056 14.7817 92.3315 14.7817C91.2755 14.8125 90.235 15.3405 89.2098 16.3657C88.8304 16.827 88.6408 17.2884 88.6408 17.7497V26.8381L88.5946 26.8843H85.8266L85.7651 26.8381V16.1658C85.7651 15.2636 85.396 14.6536 84.6579 14.3358L84.1196 14.2589H82.8279L82.7817 14.2128V13.0133L82.8279 12.9671H86.3187C87.2004 12.9671 87.8821 13.4541 88.364 14.4281L88.5024 14.9048C90.0094 13.5515 91.6241 12.8595 93.3465 12.8287Z" fill="#292628"/>
<path d="M73.5242 26.8381H73.2473C71.8633 26.8381 70.6638 26.3306 69.6489 25.3157C68.6647 24.2187 68.1726 22.9474 68.1726 21.5019V16.4733C68.1726 15.0483 67.8907 14.2076 67.3268 13.9513C67.3268 13.8795 67.1218 13.8078 66.7117 13.736H65.1277L65.0816 13.6899V12.9671L65.1277 12.921H68.8954C69.9411 12.921 70.6177 13.6796 70.9253 15.1969C70.9765 15.3712 71.0022 15.5557 71.0022 15.7505V21.1482C71.0022 22.9321 71.6327 24.0905 72.8937 24.6237C73.4268 24.8082 73.9701 24.9005 74.5237 24.9005C75.3439 24.9005 76.2614 24.393 77.2764 23.378C77.6557 22.9167 77.8454 22.4553 77.8454 21.994V12.9671L77.8915 12.921H80.6442L80.6903 12.9671V23.5626C80.6903 24.4647 81.0594 25.0747 81.7975 25.3926L82.3358 25.4541H83.6122L83.6583 25.5002V26.6997L83.6122 26.7458H80.1521C79.2807 26.7458 78.604 26.264 78.1222 25.3003L77.9838 24.8236C76.487 26.1666 75.0004 26.8381 73.5242 26.8381Z" fill="#292628"/>
<path d="M59.5147 26.7458L54.9013 15.7813C54.3375 14.428 53.2456 13.6796 51.6258 13.5361V12.9671H54.1632C55.906 12.9671 57.0953 13.7155 57.7309 15.2123L61.0064 22.9475L64.1194 16.0015H65.611L60.4067 28.2836C59.8326 29.7702 59.1713 30.7903 58.4229 31.3439C57.7873 31.836 56.9107 32.0513 55.7933 31.9897L54.2708 31.8975V30.4519C56.8031 30.821 58.3511 30.0982 58.915 28.2836L59.5147 26.7458Z" fill="#292628"/>
<path fill-rule="evenodd" clip-rule="evenodd" d="M46.6895 12.7826H43.091L43.0756 12.798V14.0743L43.091 14.0897C43.4556 14.1009 43.8497 14.0791 44.2524 14.0568C45.7189 13.9755 47.3009 13.8877 47.9966 15.3661C48.327 16.2822 48.3349 17.1622 48.3349 18.1188C45.2212 18.6849 39.9942 19.7955 40 23.7164C40.0027 25.5549 41.822 26.7766 43.6138 26.7766C45.2439 26.7766 46.8381 25.9923 48.3964 24.4238C48.5953 25.6169 49.2271 26.8689 50.6109 26.8689H53.056V26.0538C51.6311 26.0538 51.0414 25.3068 51.0414 23.8702V19.5485C50.5513 19.6619 48.9457 20.0813 48.3349 20.2469V23.1474C47.1546 24.6253 43.0877 26.2086 43.0756 22.9936V22.9782C43.0756 20.496 46.4038 19.7937 48.3349 19.4259V19.4279C48.9655 19.3038 50.5258 19.0285 51.0414 18.9415V18.9406C52.2653 18.7501 52.867 18.1783 52.4079 16.9377C52.2327 17.4407 51.795 17.641 51.0414 17.7333C51.0193 16.8947 50.9466 16.0909 50.6262 15.3046C49.9654 13.8057 48.3295 12.7826 46.6895 12.7826Z" fill="#292628"/>
<path fill-rule="evenodd" clip-rule="evenodd" d="M131.33 12.7826H127.732L127.716 12.798V14.0743L127.732 14.0897C128.096 14.1009 128.49 14.0791 128.893 14.0568C130.36 13.9755 131.942 13.8877 132.637 15.3661C132.968 16.2822 132.976 17.1622 132.976 18.1188C129.862 18.6849 124.635 19.7955 124.641 23.7164C124.644 25.5549 126.463 26.7766 128.255 26.7766C129.885 26.7766 131.479 25.9923 133.037 24.4238C133.236 25.6169 133.868 26.8689 135.252 26.8689H137.697V26.0538C136.272 26.0538 135.682 25.3068 135.682 23.8702V19.5485C135.192 19.6619 133.586 20.0813 132.976 20.2469V23.1474C131.795 24.6253 127.728 26.2086 127.716 22.9936V22.9782C127.716 20.496 131.045 19.7937 132.976 19.4259V19.4279C133.606 19.3038 135.167 19.0285 135.682 18.9415V18.9406C136.906 18.7501 137.508 18.1783 137.049 16.9377C136.873 17.4407 136.436 17.641 135.682 17.7333C135.66 16.8947 135.587 16.0909 135.267 15.3046C134.606 13.8057 132.97 12.7826 131.33 12.7826Z" fill="#292628"/>
<rect y="4" width="32" height="32" rx="16" fill="#FFECF5"/>
<path fill-rule="evenodd" clip-rule="evenodd" d="M15.9857 12.946C15.9857 12.946 12.8198 13.6084 12.2758 12C11.7456 12.7341 12.0627 14.1526 13.2557 14.3655C13.5881 14.4248 13.9562 14.4031 14.3325 14.3808C15.3069 14.3233 16.3367 14.2624 16.9457 15.5969C17.2602 16.4962 17.2677 17.3601 17.2677 18.2992C14.3037 18.855 9.3278 19.9452 9.33334 23.7944C9.33594 25.5992 10.7782 26.7986 12.7735 26.7986C14.3253 26.7986 15.8429 26.0287 17.3263 24.4888C17.5156 25.6601 18.117 26.8892 19.4343 26.8892C21.7315 26.8892 22.1342 25.836 21.9105 24.6364C20.9708 25.9053 19.8442 25.3557 19.8442 23.9454V19.7283C19.7935 19.7485 19.7385 19.77 19.6798 19.7929C18.8349 20.1232 17.249 20.7432 17.269 21.8255C17.2691 21.833 17.2687 21.8314 17.2677 21.822V23.2358C16.1441 24.6867 12.2726 26.241 12.2612 23.0848V23.0697C12.2612 20.6329 15.4294 19.9435 17.2677 19.5824V19.5839C17.8702 19.4617 19.356 19.1913 19.8442 19.1064V19.106C21.0093 18.919 21.5821 18.3577 21.145 17.1398C20.9782 17.6335 20.5615 17.8302 19.8442 17.9208C19.8232 17.0976 19.7539 16.3084 19.449 15.5365C18.8199 14.065 17.547 12.946 15.9857 12.946Z" fill="#292728"/>
</svg>
