<svg xmlns="http://www.w3.org/2000/svg" width="40" height="40" viewBox="0 0 40 40" fill="none">
  <path d="M3.33331 10.8334C3.33331 7.29784 3.33331 5.53007 4.43166 4.43172C5.53001 3.33337 7.29778 3.33337 10.8333 3.33337C14.3688 3.33337 16.1366 3.33337 17.235 4.43172C18.3333 5.53007 18.3333 7.29784 18.3333 10.8334C18.3333 14.3689 18.3333 16.1367 17.235 17.235C16.1366 18.3334 14.3688 18.3334 10.8333 18.3334C7.29778 18.3334 5.53001 18.3334 4.43166 17.235C3.33331 16.1367 3.33331 14.3689 3.33331 10.8334Z" stroke="#FC6A6A" stroke-width="2"/>
  <path d="M25.2835 24.4726C27.5069 22.3642 28.6186 21.31 29.9643 21.3457C31.31 21.3814 32.3642 22.4931 34.4726 24.7165C36.5811 26.9399 37.6353 28.0516 37.5996 29.3973C37.5638 30.743 36.4521 31.7972 34.2288 33.9057C32.0054 36.0141 30.8937 37.0683 29.548 37.0326C28.2022 36.9969 27.148 35.8852 25.0396 33.6618C22.9312 31.4384 21.877 30.3267 21.9127 28.981C21.9484 27.6353 23.0601 26.5811 25.2835 24.4726Z" stroke="#FC6A6A" stroke-width="2"/>
  <path d="M3.33331 29.1666C3.33331 25.6311 3.33331 23.8633 4.43166 22.765C5.53001 21.6666 7.29778 21.6666 10.8333 21.6666C14.3688 21.6666 16.1366 21.6666 17.235 22.765C18.3333 23.8633 18.3333 25.6311 18.3333 29.1666C18.3333 32.7022 18.3333 34.4699 17.235 35.5683C16.1366 36.6666 14.3688 36.6666 10.8333 36.6666C7.29778 36.6666 5.53001 36.6666 4.43166 35.5683C3.33331 34.4699 3.33331 32.7022 3.33331 29.1666Z" stroke="#FC6A6A" stroke-width="2"/>
  <path d="M21.6667 10.8334C21.6667 7.29784 21.6667 5.53007 22.765 4.43172C23.8634 3.33337 25.6312 3.33337 29.1667 3.33337C32.7022 3.33337 34.47 3.33337 35.5683 4.43172C36.6667 5.53007 36.6667 7.29784 36.6667 10.8334C36.6667 14.3689 36.6667 16.1367 35.5683 17.235C34.47 18.3334 32.7022 18.3334 29.1667 18.3334C25.6312 18.3334 23.8634 18.3334 22.765 17.235C21.6667 16.1367 21.6667 14.3689 21.6667 10.8334Z" stroke="#FC6A6A" stroke-width="2"/>
</svg>