<svg xmlns="http://www.w3.org/2000/svg" width="40" height="40" viewBox="0 0 40 40" fill="none">
  <path d="M20 36.6667C29.205 36.6667 36.6666 29.205 36.6666 20C36.6666 10.795 29.205 3.33337 20 3.33337C10.795 3.33337 3.33331 10.795 3.33331 20C3.33331 29.2862 10.6933 36.6791 20 36.6667Z" stroke="#FC6A6A" stroke-width="2"/>
  <path d="M20 25.555C21.8416 25.555 23.3333 24.3117 23.3333 22.7784C23.3333 21.245 21.8416 20 20 20C18.1583 20 16.6666 18.7567 16.6666 17.2217C16.6666 15.6884 18.1583 14.445 20 14.445M20 25.555C18.1583 25.555 16.6666 24.3117 16.6666 22.7784M20 25.555V26.6667M20 14.445V13.3334M20 14.445C21.8416 14.445 23.3333 15.6884 23.3333 17.2217" stroke="#FC6A6A" stroke-width="2" stroke-linecap="round"/>
</svg>