<svg xmlns="http://www.w3.org/2000/svg" width="40" height="40" viewBox="0 0 40 40" fill="none">
  <path d="M3.33334 19.9999C3.33334 12.1432 3.33334 8.21481 5.77412 5.77403C8.2149 3.33325 12.1433 3.33325 20 3.33325C27.8568 3.33325 31.7851 3.33325 34.2259 5.77403C36.6667 8.21481 36.6667 12.1432 36.6667 19.9999C36.6667 27.8567 36.6667 31.785 34.2259 34.2258C31.7851 36.6666 27.8568 36.6666 20 36.6666C12.1433 36.6666 8.2149 36.6666 5.77412 34.2258C3.33334 31.785 3.33334 27.8567 3.33334 19.9999Z" stroke="#FC6A6A" stroke-width="2"/>
  <circle cx="26.6667" cy="13.3333" r="3.33333" stroke="#FC6A6A" stroke-width="2"/>
  <path d="M3.33334 20.8336L6.25265 18.2793C7.77144 16.9503 10.0605 17.0266 11.4875 18.4536L18.637 25.6031C19.7824 26.7485 21.5854 26.9047 22.9107 25.9733L23.4077 25.624C25.3147 24.2838 27.8949 24.439 29.6275 25.9983L35 30.8336" stroke="#FC6A6A" stroke-width="2" stroke-linecap="round"/>
</svg>