<svg xmlns="http://www.w3.org/2000/svg" width="75" height="20" viewBox="0 0 75 20" fill="none">
  <path d="M53.1245 0.616211H55.4738C56.3789 0.616211 56.8944 1.24583 57.0203 2.50508V6.60157C57.0203 6.92425 57.0243 7.65619 57.0321 8.79738C57.8163 8.23257 58.7853 8.0625 59.6412 7.93559C60.497 7.80868 62.6778 6.89583 62.8251 5.16613C63.6793 6.93845 63.03 7.86012 61.6245 8.63211C62.561 9.16729 63.0293 9.86774 63.0293 10.7335V12.9529C63.0293 13.8973 63.2025 14.4168 63.5488 14.5112L63.8911 14.5821H64.7175L64.7883 14.6529V14.9126L64.7175 14.9834H62.6161C61.8055 14.889 61.4002 14.405 61.4002 13.5314V10.8869C61.4002 8.63211 57.0203 9.07324 57.0203 10.521V12.9883C57.0203 14.0508 56.6032 14.7158 55.769 14.9834L55.3204 15.0189H53.0537V14.948V14.2161V14.1453H54.0808C54.6396 14.1453 54.9662 13.7596 55.0606 12.9883V2.68216C55.0606 1.86365 54.6593 1.4544 53.8565 1.4544H53.1245L53.0537 1.38356V0.687044L53.1245 0.616211Z" fill="white"/>
  <path d="M46.301 4.59473H48.9337C49.5003 4.59473 49.9765 4.88986 50.3621 5.48013C50.5667 5.88152 50.6691 6.36948 50.6691 6.94401V12.646C50.6297 13.5669 50.9406 14.0627 51.6017 14.1335L51.8968 14.1689H52.3927L52.4281 14.1926V15.0189L52.3927 15.0544H50.2559C49.5003 15.0544 48.9848 14.653 48.7094 13.8502C48.5756 13.4567 48.5087 13.0789 48.5087 12.7169V7.02665C48.5087 6.33406 48.2411 5.88152 47.7059 5.66902C47.5564 5.62967 47.4265 5.60999 47.3163 5.60999H46.301L46.2656 5.58638V4.61834L46.301 4.59473Z" fill="white"/>
  <path d="M40.9531 4.32324H41.1774C42.2478 4.32324 43.1725 4.71676 43.9517 5.50379C44.7151 6.35378 45.0968 7.33363 45.0968 8.44334V12.3273C45.0968 13.4292 45.3133 14.0824 45.7461 14.287C45.7461 14.3343 45.9035 14.3854 46.2183 14.4405H47.4461L47.4815 14.4759V15.0426L47.4461 15.078H44.5302C43.7274 15.078 43.204 14.4917 42.96 13.319C42.9286 13.1852 42.9128 13.0435 42.9128 12.894V8.71487C42.9128 7.33757 42.4209 6.44429 41.4371 6.03503C41.0358 5.89337 40.6147 5.82253 40.174 5.82253C39.3633 5.84614 38.5645 6.25147 37.7774 7.03849C37.4862 7.39266 37.3406 7.74682 37.3406 8.10098V15.078L37.3052 15.1134H35.1803L35.133 15.078V6.88502C35.133 6.19244 34.8497 5.72416 34.283 5.48018L33.8698 5.42115H32.8782L32.8428 5.38573V4.46491L32.8782 4.42949H35.558C36.2349 4.42949 36.7582 4.80333 37.1281 5.55101L37.2344 5.91698C38.3913 4.8781 39.6309 4.34685 40.9531 4.32324Z" fill="white"/>
  <path d="M25.7358 15.0775H25.5233C24.4608 15.0775 23.54 14.6879 22.7609 13.9087C22.0053 13.0666 21.6275 12.0907 21.6275 10.981V7.12061C21.6275 6.02664 21.4111 5.38128 20.9782 5.18452C20.9782 5.12943 20.8208 5.07434 20.506 5.01924H19.2901L19.2546 4.98383V4.42897L19.2901 4.39355H22.1824C22.9852 4.39355 23.5046 4.97596 23.7407 6.14076C23.7801 6.27456 23.7997 6.41622 23.7997 6.56576V10.7095C23.7997 12.0789 24.2838 12.9682 25.2518 13.3775C25.6611 13.5192 26.0782 13.59 26.5032 13.59C27.1328 13.59 27.8372 13.2004 28.6164 12.4213C28.9076 12.0671 29.0532 11.7129 29.0532 11.3588V4.42897L29.0886 4.39355H31.2017L31.2372 4.42897V12.5629C31.2372 13.2555 31.5205 13.7238 32.0872 13.9678L32.5003 14.015H33.4802L33.5156 14.0504V14.9712L33.4802 15.0066H30.824C30.155 15.0066 29.6356 14.6367 29.2657 13.8969L29.1594 13.531C28.0103 14.562 26.8691 15.0775 25.7358 15.0775Z" fill="white"/>
  <path d="M14.981 15.0064L11.4394 6.58911C11.0065 5.55023 10.1683 4.9757 8.9248 4.86551V4.42871H10.8727C12.2107 4.42871 13.1236 5.00324 13.6116 6.15231L16.1261 12.0904L18.5159 6.75819H19.661L15.6657 16.1869C15.225 17.3281 14.7173 18.1112 14.1428 18.5362C13.6549 18.914 12.9819 19.0793 12.1241 19.032L10.9553 18.9612V17.8515C12.8993 18.1348 14.0877 17.58 14.5206 16.1869L14.981 15.0064Z" fill="white"/>
  <path fill-rule="evenodd" clip-rule="evenodd" d="M5.13537 4.28809H2.3729L2.36109 4.29989V5.27974L2.3729 5.29155C2.65279 5.30016 2.95531 5.28339 3.26453 5.26624C4.3903 5.20382 5.60476 5.13649 6.13883 6.2714C6.39246 6.97465 6.39855 7.65021 6.39855 8.38458C4.00824 8.81918 -0.00446551 9.67175 3.7301e-06 12.6818C0.00209934 14.0931 1.39873 15.031 2.77428 15.031C4.02566 15.031 5.24949 14.429 6.44578 13.2248C6.59844 14.1408 7.08345 15.1019 8.14576 15.1019H10.0228V14.4762C8.92897 14.4762 8.47631 13.9027 8.47631 12.7998V9.48214C8.10002 9.56918 6.86742 9.89116 6.39855 10.0183V12.245C5.49244 13.3795 2.37035 14.595 2.36109 12.1269V12.1151C2.36109 10.2095 4.91607 9.67042 6.39855 9.38804V9.38953C6.88268 9.29426 8.08046 9.0829 8.47631 9.01612V9.01546C9.41588 8.86925 9.87777 8.4303 9.52531 7.4779C9.39078 7.86401 9.05478 8.01779 8.47631 8.08862C8.45934 7.44489 8.40348 6.8278 8.15757 6.22418C7.65026 5.07347 6.39441 4.28809 5.13537 4.28809Z" fill="white"/>
  <path fill-rule="evenodd" clip-rule="evenodd" d="M70.1124 4.28809H67.3499L67.3381 4.29989V5.27974L67.3499 5.29155C67.6298 5.30016 67.9324 5.28339 68.2416 5.26624C69.3673 5.20382 70.5818 5.13649 71.1159 6.2714C71.3695 6.97465 71.3756 7.65021 71.3756 8.38458C68.9853 8.81918 64.9726 9.67175 64.9771 12.6818C64.9792 14.0931 66.3758 15.031 67.7513 15.031C69.0027 15.031 70.2265 14.429 71.4228 13.2248C71.5755 14.1408 72.0605 15.1019 73.1228 15.1019H74.9999V14.4762C73.906 14.4762 73.4534 13.9027 73.4534 12.7998V9.48214C73.0771 9.56918 71.8445 9.89116 71.3756 10.0183V12.245C70.4695 13.3795 67.3474 14.595 67.3381 12.1269V12.1151C67.3381 10.2095 69.8931 9.67042 71.3756 9.38804V9.38953C71.8597 9.29426 73.0575 9.0829 73.4534 9.01612V9.01546C74.3929 8.86925 74.8548 8.4303 74.5024 7.4779C74.3678 7.86401 74.0318 8.01779 73.4534 8.08862C73.4364 7.44489 73.3805 6.8278 73.1346 6.22418C72.6273 5.07347 71.3715 4.28809 70.1124 4.28809Z" fill="white"/>
</svg>