<svg xmlns="http://www.w3.org/2000/svg" width="40" height="40" viewBox="0 0 40 40" fill="none">
  <path d="M4.30238 33.0446L5.26839 33.3031L4.30238 33.0446ZM5.29505 29.3345L4.32904 29.076L5.29505 29.3345ZM10.6655 34.705L10.924 35.671L10.924 35.671L10.6655 34.705ZM6.95544 35.6976L6.69697 34.7316H6.69696L6.95544 35.6976ZM5.07229 27.4209L5.96741 26.9751L5.07229 27.4209ZM12.5791 34.9277L12.1332 35.8228L12.5791 34.9277ZM35.6665 20.0002C35.6665 28.6526 28.6523 35.6668 19.9999 35.6668V37.6668C29.7569 37.6668 37.6665 29.7572 37.6665 20.0002H35.6665ZM4.33319 20.0002C4.33319 11.3477 11.3474 4.3335 19.9999 4.3335V2.3335C10.2428 2.3335 2.33319 10.2431 2.33319 20.0002H4.33319ZM19.9999 4.3335C28.6523 4.3335 35.6665 11.3477 35.6665 20.0002H37.6665C37.6665 10.2431 29.7569 2.3335 19.9999 2.3335V4.3335ZM5.26839 33.3031L6.26107 29.593L4.32904 29.076L3.33636 32.7861L5.26839 33.3031ZM10.407 33.7389L6.69697 34.7316L7.21391 36.6637L10.924 35.671L10.407 33.7389ZM5.96741 26.9751C4.92176 24.8758 4.33319 22.5081 4.33319 20.0002H2.33319C2.33319 22.8245 2.99667 25.4967 4.17718 27.8668L5.96741 26.9751ZM19.9999 35.6668C17.4919 35.6668 15.1243 35.0783 13.0249 34.0326L12.1332 35.8228C14.5033 37.0033 17.1756 37.6668 19.9999 37.6668V35.6668ZM10.924 35.671C11.2987 35.5707 11.7275 35.6207 12.1332 35.8228L13.0249 34.0326C12.2429 33.6431 11.3141 33.4962 10.407 33.7389L10.924 35.671ZM6.26107 29.593C6.50378 28.6859 6.35689 27.7571 5.96741 26.9751L4.17718 27.8668C4.37928 28.2725 4.4293 28.7013 4.32904 29.076L6.26107 29.593ZM3.33636 32.7861C2.70654 35.14 4.86002 37.2935 7.21391 36.6637L6.69696 34.7316C5.82974 34.9637 5.03636 34.1703 5.26839 33.3031L3.33636 32.7861Z" fill="#FC6A6A"/>
  <path d="M12 19.6154V25.7692C12 26.0957 12.1297 26.4087 12.3605 26.6395C12.5913 26.8703 12.9043 27 13.2308 27H15.6923C16.0187 27 16.3318 26.8703 16.5626 26.6395C16.7934 26.4087 16.9231 26.0957 16.9231 25.7692V20.8462C16.9231 20.5197 16.7934 20.2067 16.5626 19.9759C16.3318 19.7451 16.0187 19.6154 15.6923 19.6154H14.4615H12ZM12 19.6154V19C12 16.8783 12.8429 14.8434 14.3431 13.3431C15.8434 11.8429 17.8783 11 20 11C22.1217 11 24.1566 11.8429 25.6569 13.3431C27.1571 14.8434 28 16.8783 28 19V19.6154M28 19.6154V25.7692C28 26.0957 27.8703 26.4087 27.6395 26.6395C27.4087 26.8703 27.0957 27 26.7692 27H24.3077C23.9813 27 23.6682 26.8703 23.4374 26.6395C23.2066 26.4087 23.0769 26.0957 23.0769 25.7692V20.8462C23.0769 20.5197 23.2066 20.2067 23.4374 19.9759C23.6682 19.7451 23.9813 19.6154 24.3077 19.6154H25.5385H28Z" stroke="#FC6A6A" stroke-width="2" stroke-linecap="round" stroke-linejoin="round"/>
</svg>