<svg xmlns="http://www.w3.org/2000/svg" width="40" height="40" viewBox="0 0 40 40" fill="none">
  <path fill-rule="evenodd" clip-rule="evenodd" d="M3.33331 26.9059V8.32959C3.33331 6.4993 4.81048 5.01246 6.63732 5.12473C8.2646 5.22475 10.1891 5.42244 11.6666 5.81232C13.4153 6.27377 15.4935 7.2566 17.1371 8.12568C17.6489 8.39633 18.1932 8.58406 18.7503 8.68987V33.9876C18.2453 33.8763 17.7526 33.6967 17.2873 33.4487C15.6215 32.5607 13.4691 31.5311 11.6666 31.0555C10.2055 30.6699 8.30711 30.4723 6.69141 30.3713C4.84339 30.2557 3.33331 28.7575 3.33331 26.9059ZM8.63678 13.7872C7.96703 13.6198 7.28837 14.027 7.12093 14.6967C6.95349 15.3665 7.3607 16.0452 8.03044 16.2126L14.6971 17.8793C15.3669 18.0467 16.0455 17.6395 16.213 16.9698C16.3804 16.3 15.9732 15.6213 15.3034 15.4539L8.63678 13.7872ZM8.63678 20.4539C7.96703 20.2865 7.28837 20.6937 7.12093 21.3634C6.95349 22.0332 7.3607 22.7118 8.03044 22.8793L14.6971 24.5459C15.3669 24.7134 16.0455 24.3062 16.213 23.6364C16.3804 22.9667 15.9732 22.288 15.3034 22.1206L8.63678 20.4539Z" stroke="#FC6A6A" stroke-width="2"/>
  <path fill-rule="evenodd" clip-rule="evenodd" d="M21.2503 33.9875C21.7551 33.8762 22.2476 33.6966 22.7126 33.4487C24.3784 32.5607 26.5309 31.5311 28.3333 31.0555C29.7945 30.6699 31.6928 30.4723 33.3086 30.3713C35.1566 30.2557 36.6666 28.7575 36.6666 26.9059V8.22191C36.6666 6.43449 35.2563 4.96727 33.4699 5.0295C31.589 5.09502 29.2448 5.28996 27.5 5.81232C25.9873 6.26519 24.2255 7.17356 22.7897 8.00451C22.304 8.28561 21.7849 8.49209 21.2503 8.62303V33.9875ZM31.9701 16.2126C32.6399 16.0452 33.0471 15.3665 32.8796 14.6967C32.7122 14.027 32.0335 13.6198 31.3638 13.7872L24.6971 15.4539C24.0274 15.6213 23.6202 16.3 23.7876 16.9698C23.955 17.6395 24.6337 18.0467 25.3034 17.8793L31.9701 16.2126ZM31.9701 22.8793C32.6399 22.7118 33.0471 22.0332 32.8796 21.3634C32.7122 20.6937 32.0335 20.2865 31.3638 20.4539L24.6971 22.1206C24.0274 22.288 23.6202 22.9667 23.7876 23.6364C23.955 24.3062 24.6337 24.7134 25.3034 24.5459L31.9701 22.8793Z" stroke="#FC6A6A" stroke-width="2"/>
</svg>