<svg width="307" height="64" viewBox="0 0 307 64" fill="none" xmlns="http://www.w3.org/2000/svg">
<path d="M234.135 63.9524C229.149 63.1992 225.957 60.5116 224.859 56.1417C224.038 52.8796 225.818 49.4505 229.123 47.9261C230.446 47.3156 230.976 47.2102 232.653 47.2282C234.997 47.2513 236.399 47.7937 237.753 49.2075C238.854 50.3605 239.192 51.183 239.192 52.7125C239.192 54.5389 238.199 55.855 236.726 55.9797C235.392 56.0902 234.909 55.9412 234.227 55.2047C233.33 54.2343 233.245 52.6881 234.035 51.6766C234.324 51.3064 234.49 50.944 234.41 50.8617C234.108 50.5507 231.568 50.4941 230.707 50.7782C226.211 52.2614 226.76 58.121 231.594 60.2957C234.113 61.4255 237.971 61.4024 240.257 60.2443C241.367 59.6814 242.894 58.1891 243.421 57.1545C244.145 55.7304 244.254 54.3165 243.769 52.6392C242.926 49.7255 241.564 48.151 238.579 46.6305C236.06 45.3491 234.556 45.056 229.744 44.9211C224.975 44.781 221.576 45.0226 214.766 45.984C205.684 47.2616 201.175 47.2822 195.567 46.0676C192.187 45.3375 186.081 43.0703 183.846 41.7194C180.056 39.4252 175.69 35.1144 172.302 30.3318C169.805 26.8024 169.701 26.5839 170.076 25.6906C170.255 25.2716 170.701 24.7999 171.066 24.6457C172.056 24.2267 172.874 24.7048 173.953 26.3332C178.028 32.4782 182.816 37.1464 187.253 39.3095C191.029 41.1526 196.391 42.1603 199.814 41.6732C203.194 41.1963 206.419 39.0808 208.116 36.2274C211.083 31.2444 210.695 27.1918 206.888 23.3732C205.422 21.9003 205.042 21.6586 203.44 21.1715C199.417 19.9492 195.479 21.4183 193.819 24.7549C192.74 26.927 192.891 28.8383 194.295 30.7752C196.775 34.1979 202.183 33.5398 202.183 29.8125C202.183 28.8023 202.068 28.5349 201.405 27.9746C200.912 27.5594 200.392 27.3486 199.986 27.3949C199.403 27.4643 199.345 27.5684 199.345 28.5786C199.345 29.5413 199.255 29.7316 198.678 30.004C197.682 30.477 196.605 29.8627 196.227 28.6018C195.977 27.7715 196.011 27.4913 196.463 26.5543C197.764 23.8642 201.683 23.593 203.941 26.0376C206.172 28.4476 205.833 32.288 203.192 34.5527C198.367 38.6823 190.616 34.9935 189.71 28.1352C189.372 25.5685 190.771 22.2126 193.049 20.124C195.74 17.6601 199.491 16.5985 202.995 17.3118C206.622 18.0483 208.978 19.651 211.324 22.9799C213.027 25.3911 213.651 27.3692 213.64 30.3074C213.633 31.9114 213.488 33.081 213.181 34.009C212.402 36.3521 210.8 39.1887 209.403 40.6964L208.054 42.1526L210.621 42.0022C218.492 41.5446 222.709 40.0974 227.178 36.3174C231.104 32.9987 232.841 29.3922 232.866 24.5081C232.878 22.6085 232.781 22.0738 232.203 20.8091C230.586 17.2553 229.486 16.4545 225.994 16.2964C224.067 16.2077 223.603 16.2656 222.737 16.7051C220.902 17.6331 219.701 19.9184 219.701 22.4838C219.701 24.0146 220.303 25.1431 221.502 25.8705C222.515 26.4836 223.778 26.5427 223.554 25.9631C223.06 24.7061 223.105 24.3886 223.872 23.6316C224.538 22.9761 224.783 22.8784 225.451 23.0082C226.567 23.2216 227.35 24.1881 227.35 25.3462C227.35 28.0928 223.673 29.9166 220.786 28.5992C217.352 27.0363 216.07 23.3231 217.454 18.93C218.34 16.1165 219.929 14.4366 222.587 13.4894C224.466 12.8236 227.967 12.9482 230.138 13.7644C233.643 15.0818 236.502 20.0919 236.47 24.8539C236.443 29.0233 235.118 32.6247 232.239 36.3521L231.668 37.0937L232.654 36.5025C239.96 32.1466 244.575 27.5646 245.708 23.5442C246.578 20.4621 246.39 17.61 245.232 16.2926C244.908 15.9211 244.641 15.7669 244.636 15.9443C244.628 16.1229 244.327 16.5381 243.957 16.8787C243.044 17.7167 241.471 17.709 240.676 16.8594C239.866 15.9983 239.732 14.168 240.399 13.1063C241.85 10.8018 244.845 10.9085 247.362 13.357C248.778 14.7335 249.35 16.2412 249.527 19.0534L249.682 21.4954L251.25 18.7591C253.877 14.168 254.648 10.8584 253.883 7.45752C253.53 5.8779 253.289 5.37405 252.453 4.46921C251.382 3.30988 250.824 3.15565 250.151 3.82786C249.729 4.25072 249.732 4.27769 250.175 4.35738C251.557 4.60544 251.978 6.19407 250.94 7.23387C249.786 8.38677 247.972 7.8264 247.119 6.05013C246.447 4.65173 246.476 4.00009 247.277 2.42047C247.765 1.46036 248.206 0.960354 248.864 0.627464C251.161 -0.531868 253.184 -0.0910034 255.162 2.00273C256.778 3.70702 257.47 5.53213 257.64 8.51657C257.816 11.6411 257.32 13.8685 255.546 17.9185C255.468 18.0958 256.171 17.7462 257.108 17.1421C261.682 14.204 268.46 11.7517 275.345 10.5422C283.413 9.12839 293.322 10.3404 298.812 13.4058C301.723 15.0356 304.191 17.5997 305.27 20.115C306.086 22.016 306.633 25.1971 306.507 27.3191C306.295 30.9462 304.03 34.1195 300.463 35.793C297.647 37.1091 293.925 37.0423 290.915 35.6182C289.063 34.7403 287.459 33.2365 286.69 31.6633C286.114 30.4796 286.04 30.0709 286.114 28.49C286.185 27.0119 286.338 26.4541 286.952 25.467C288.019 23.7485 289.433 22.836 291.234 22.7088C292.222 22.6368 292.888 22.7216 293.383 22.9786C295.898 24.2871 296.043 27.0414 293.654 28.1738C292.519 28.711 291.827 28.6969 290.691 28.1121C289.754 27.6288 289.618 27.6828 289.516 28.5761C289.32 30.3254 290.396 31.8253 292.542 32.7944C294.516 33.6838 297.533 33.644 299.449 32.698C302.696 31.0991 303.959 27.8602 302.976 23.6676C301.907 19.1125 298.538 16.2206 292.493 14.6706C288.542 13.659 286.446 13.4585 281.314 13.605C275.706 13.7618 271.567 14.5138 265.94 16.3941C260.067 18.3581 256.044 20.6947 252.244 24.3449C251.036 25.5055 249.905 26.5479 249.729 26.661C249.148 27.0299 249.828 26.8615 251.926 26.1173C256.417 24.5261 262.763 23.6958 267.224 24.1187C271.42 24.5184 274.759 26.1122 277.747 29.1429C281.005 32.4486 282.468 37.978 281.133 41.9251C280.154 44.8118 278.721 46.4724 276.134 47.7205C273.974 48.759 272.012 48.9877 269.593 48.4775C264.339 47.3708 261.959 43.7104 264.519 40.6681C265.87 39.064 268.359 38.4857 270.186 39.3494C271.84 40.1334 272.292 42.2786 271.076 43.578C270.708 43.9751 270.244 44.3543 270.038 44.4211C269.294 44.6769 270.038 44.9069 271.691 44.9262C274.603 44.9648 276.642 43.5574 277.675 40.7915C278.269 39.1951 278.313 37.8533 277.825 36.0282C277.097 33.2892 275.702 31.3484 273.27 29.6879C270.398 27.7278 269.348 27.4656 264.362 27.4772C260.811 27.4862 259.541 27.5916 257.207 28.0658C251.115 29.2984 246.128 31.6029 238.083 36.8996C236.307 38.0705 233.907 39.5306 232.704 40.1732L230.533 41.3313L232.089 41.5035C236.307 41.9688 239.028 42.8929 241.859 44.8208C244.368 46.5303 245.986 48.9826 246.743 52.2151C248.173 58.3048 243.686 63.5796 236.752 63.9588C235.713 64.0166 234.545 64.0128 234.135 63.9524Z" fill="#D29D66"/>
<path d="M164.227 45.0081C166.026 46.7278 167.449 47.7226 168.792 48.2046C170 48.6391 170.706 48.639 171.531 48.2149C173.818 47.0311 174.98 43.4825 174.292 39.7808C173.606 36.0728 171.511 31.4393 167.331 24.3831C163.694 18.2381 161.803 14.8141 160.216 11.4775C159.498 9.97242 158.699 8.65244 158.379 8.43779C157.595 7.92368 156.605 8.24755 156.092 9.18325C155.454 10.3477 155.477 23.0515 156.119 26.9742C157.519 35.4636 159.991 40.9646 164.227 45.0081Z" fill="#D29D66"/>
<path d="M171.038 22.4054C168.184 21.2435 165.668 18.903 163.066 15.006C161.372 12.465 159.01 7.78781 159.004 6.96137C158.995 5.89972 160.775 5.15555 161.42 5.94986C161.554 6.11309 162.285 7.45622 163.048 8.93558C166.292 15.2271 170.601 19.4968 173.703 19.4968C174.756 19.4968 175.167 19.1742 175.534 18.0663C175.974 16.7321 175.652 15.2373 174.684 14.1178C174.214 13.5742 173.76 13.2516 173.642 13.3788C173.522 13.5035 173.58 13.6526 173.778 13.7233C174.369 13.9315 175.035 14.7541 175.035 15.2785C175.035 15.9815 173.949 16.9828 173.185 16.9828C171.417 16.9828 169.882 14.9559 170.228 13.0819C170.455 11.848 171.228 10.6399 172.075 10.2003C172.963 9.73504 174.861 9.7273 175.726 10.1784C176.791 10.7388 178.179 12.3159 178.778 13.6487C179.559 15.3749 179.553 18.1125 178.762 19.7436C178.167 20.9774 176.854 22.3 175.848 22.6805C174.834 23.066 172.296 22.9208 171.038 22.4054Z" fill="#D29D66"/>
<path d="M72.3985 63.9524C77.3829 63.1992 80.5755 60.5116 81.6732 56.1417C82.4945 52.8796 80.7118 49.4505 77.4086 47.9261C76.086 47.3156 75.5552 47.2102 73.8792 47.2282C71.5335 47.2513 70.1339 47.7937 68.7805 49.2075C67.6777 50.3605 67.3397 51.183 67.3397 52.7125C67.3397 54.5389 68.3345 55.855 69.8061 55.9797C71.139 56.0902 71.6235 55.9412 72.3047 55.2047C73.2006 54.2343 73.2867 52.6881 72.4975 51.6766C72.207 51.3064 72.0425 50.944 72.1209 50.8617C72.4242 50.5507 74.9627 50.4941 75.8251 50.7782C80.321 52.2614 79.7735 58.121 74.937 60.2957C72.4204 61.4255 68.562 61.4024 66.2767 60.2443C65.1637 59.6814 63.6368 58.1891 63.1111 57.1545C62.3875 55.7304 62.2782 54.3165 62.764 52.6392C63.6072 49.7255 64.967 48.151 67.954 46.6305C70.4732 45.3491 71.9757 45.056 76.7878 44.9211C81.5575 44.781 84.9558 45.0226 91.7665 45.984C100.847 47.2616 105.357 47.2822 110.965 46.0676C114.345 45.3375 120.451 43.0703 122.685 41.7194C126.476 39.4252 130.84 35.1144 134.23 30.3318C136.727 26.8024 136.83 26.5839 136.456 25.6906C136.278 25.2716 135.832 24.7999 135.466 24.6457C134.476 24.2267 133.659 24.7048 132.579 26.3332C128.504 32.4782 123.717 37.1464 119.279 39.3095C115.504 41.1526 110.141 42.1603 106.718 41.6732C103.339 41.1963 100.113 39.0808 98.4165 36.2274C95.4501 31.2444 95.837 27.1918 99.644 23.3732C101.11 21.9003 101.488 21.6586 103.091 21.1715C107.117 19.9492 111.053 21.4183 112.713 24.7549C113.791 26.927 113.642 28.8383 112.238 30.7752C109.757 34.1979 104.351 33.5398 104.351 29.8125C104.351 28.8023 104.464 28.5349 105.127 27.9746C105.621 27.5594 106.14 27.3486 106.546 27.3949C107.129 27.4643 107.186 27.5684 107.186 28.5786C107.186 29.5413 107.275 29.7316 107.853 30.004C108.849 30.477 109.928 29.8627 110.303 28.6018C110.552 27.7715 110.521 27.4913 110.066 26.5543C108.766 23.8642 104.847 23.593 102.587 26.0376C100.359 28.4476 100.697 32.288 103.338 34.5527C108.162 38.6823 115.913 34.9935 116.819 28.1352C117.159 25.5685 115.759 22.2126 113.48 20.124C110.79 17.6601 107.038 16.5985 103.535 17.3118C99.9062 18.0483 97.5503 19.651 95.2046 22.9799C93.5042 25.3911 92.8783 27.3692 92.8898 30.3074C92.8962 31.9114 93.0428 33.081 93.3487 34.009C94.1288 36.3521 95.729 39.1887 97.1261 40.6964L98.477 42.1526L95.909 42.0022C88.0392 41.5446 83.8209 40.0974 79.3519 36.3174C75.4267 32.9987 73.6902 29.3922 73.6633 24.5081C73.6543 22.6085 73.7494 22.0738 74.3265 20.8091C75.9434 17.2553 77.0448 16.4545 80.537 16.2964C82.4623 16.2077 82.9263 16.2656 83.7939 16.7051C85.6292 17.6331 86.8297 19.9184 86.8297 22.4838C86.8297 24.0146 86.2269 25.1431 85.029 25.8705C84.0162 26.4836 82.7528 26.5427 82.9764 25.9631C83.47 24.7061 83.4276 24.3886 82.659 23.6316C81.9919 22.9761 81.7464 22.8784 81.0793 23.0082C79.9637 23.2216 79.1797 24.1881 79.1797 25.3462C79.1797 28.0928 82.8569 29.9166 85.7436 28.5992C89.1779 27.0363 90.4581 23.3231 89.0738 18.93C88.1882 16.1165 86.6009 14.4366 83.9417 13.4894C82.0626 12.8236 78.5615 12.9482 76.3906 13.7644C72.8857 15.0818 70.0259 20.0919 70.0568 24.8539C70.0837 29.0233 71.4089 32.6247 74.2879 36.3521L74.8599 37.0937L73.874 36.5025C66.5685 32.1466 61.953 27.5646 60.8207 23.5442C59.9506 20.4621 60.1395 17.61 61.2962 16.2926C61.6214 15.9211 61.8875 15.7669 61.8913 15.9443C61.9003 16.1229 62.1998 16.5381 62.5713 16.8787C63.4838 17.7167 65.057 17.709 65.8539 16.8594C66.6623 15.9983 66.796 14.168 66.1289 13.1063C64.6778 10.8018 61.6818 10.9085 59.1653 13.357C57.7502 14.7335 57.1782 16.2412 56.9995 19.0534L56.8453 21.4954L55.2773 18.7591C52.6514 14.168 51.8803 10.8584 52.6437 7.45752C52.9972 5.8779 53.2375 5.37405 54.073 4.46921C55.1449 3.30988 55.7014 3.15565 56.3762 3.82786C56.7965 4.25072 56.7952 4.27769 56.3505 4.35738C54.9675 4.60544 54.5459 6.19407 55.5844 7.23387C56.7386 8.38677 58.5522 7.8264 59.4069 6.05013C60.0778 4.65173 60.0495 4.00009 59.2475 2.42047C58.7591 1.46036 58.3182 0.960354 57.6589 0.627464C55.3634 -0.531868 53.3403 -0.0910034 51.3623 2.00273C49.7467 3.70702 49.0539 5.53213 48.883 8.51657C48.7082 11.6411 49.203 13.8685 50.978 17.9185C51.0551 18.0958 50.3533 17.7462 49.4151 17.1421C44.842 14.204 38.066 11.7517 31.1795 10.5422C23.1105 9.12839 13.2022 10.3404 7.71274 13.4058C4.80157 15.0356 2.33126 17.5997 1.25419 20.115C0.438032 22.016 -0.106928 25.1971 0.0177443 27.3191C0.231101 30.9462 2.49449 34.1195 6.06115 35.793C8.87593 37.1091 12.5994 37.0423 15.6108 35.6182C17.4616 34.7403 19.0682 33.2365 19.8355 31.6633C20.4114 30.4796 20.4846 30.0709 20.4101 28.49C20.3394 27.0119 20.1851 26.4541 19.5721 25.467C18.5053 23.7485 17.0915 22.836 15.2895 22.7088C14.3011 22.6368 13.6366 22.7216 13.1418 22.9786C10.6252 24.2871 10.4812 27.0414 12.8706 28.1738C14.0068 28.711 14.697 28.6969 15.8332 28.1121C16.7701 27.6288 16.9077 27.6828 17.0079 28.5761C17.2046 30.3254 16.1288 31.8253 13.9824 32.7944C12.0082 33.6838 8.9916 33.644 7.07396 32.698C3.82861 31.0991 2.56389 27.8602 3.54842 23.6676C4.61906 19.1125 7.98651 16.2206 14.0325 14.6706C17.9834 13.659 20.0785 13.4585 25.2119 13.605C30.8196 13.7618 34.9582 14.5138 40.5852 16.3941C46.4576 18.3581 50.4819 20.6947 54.2812 24.3449C55.4893 25.5055 56.6204 26.5479 56.7978 26.661C57.38 27.0299 56.6988 26.8615 54.6012 26.1173C50.1104 24.5261 43.7637 23.6958 39.3025 24.1187C35.106 24.5184 31.7694 26.1122 28.7798 29.1429C25.5229 32.4486 24.0603 37.978 25.3957 41.9251C26.3738 44.8118 27.8056 46.4724 30.3942 47.7205C32.5547 48.759 34.5148 48.9877 36.935 48.4775C42.1892 47.3708 44.5696 43.7104 42.0093 40.6681C40.6572 39.064 38.1688 38.4857 36.3412 39.3494C34.6857 40.1334 34.2346 42.2786 35.4505 43.578C35.8193 43.9751 36.2846 44.3543 36.489 44.4211C37.2344 44.6769 36.489 44.9069 34.8361 44.9262C31.9249 44.9648 29.8865 43.5574 28.8531 40.7915C28.2593 39.1951 28.2143 37.8533 28.7014 36.0282C29.4302 33.2892 30.826 31.3484 33.2565 29.6879C36.1291 27.7278 37.1792 27.4656 42.1648 27.4772C45.7173 27.4862 46.9846 27.5916 49.32 28.0658C55.4135 29.2984 60.4004 31.6029 68.445 36.8996C70.2213 38.0705 72.6209 39.5306 73.8252 40.1732L75.9961 41.3313L74.4408 41.5035C70.2225 41.9688 67.5016 42.8929 64.6688 44.8208C62.1612 46.5303 60.5418 48.9826 59.7848 52.2151C58.3568 58.3048 62.8437 63.5796 69.7766 63.9588C70.8189 64.0166 71.9885 64.0128 72.3985 63.9524Z" fill="#D29D66"/>
<path d="M135.001 48.2154C135.826 48.6408 136.532 48.6395 137.74 48.2051C139.084 47.7231 140.504 46.727 142.305 45.0086C146.541 40.9664 149.013 35.464 150.411 26.9747C151.057 23.052 151.077 10.3482 150.44 9.18373C149.926 8.24805 148.936 7.92417 148.152 8.43829C147.833 8.65293 147.034 9.97291 146.318 11.478C144.729 14.8146 142.84 18.2386 139.201 24.3835C135.021 31.4398 132.928 36.072 132.24 39.7813C131.552 43.4829 132.714 47.0316 135.001 48.2154Z" fill="#D29D66"/>
<path d="M135.494 22.4054C138.348 21.2435 140.866 18.903 143.464 15.006C145.16 12.465 147.522 7.78781 147.529 6.96137C147.538 5.89972 145.757 5.15555 145.112 5.94986C144.979 6.11309 144.249 7.45622 143.484 8.93558C140.238 15.2271 135.93 19.4968 132.83 19.4968C131.776 19.4968 131.366 19.1742 130.999 18.0663C130.558 16.7321 130.88 15.2373 131.848 14.1178C132.318 13.5742 132.773 13.2516 132.893 13.3788C133.011 13.5035 132.955 13.6526 132.758 13.7233C132.166 13.9315 131.5 14.7541 131.5 15.2785C131.5 15.9815 132.585 16.9828 133.348 16.9828C135.117 16.9828 136.652 14.9559 136.307 13.0819C136.079 11.848 135.306 10.6399 134.46 10.2003C133.572 9.73504 131.673 9.7273 130.808 10.1784C129.743 10.7388 128.357 12.3159 127.757 13.6487C126.977 15.3749 126.983 18.1125 127.772 19.7436C128.369 20.9774 129.681 22.3 130.686 22.6805C131.698 23.066 134.237 22.9208 135.494 22.4054Z" fill="#D29D66"/>
<path d="M150.482 55.5989C150.983 57.3251 152.293 59.4188 153.296 60.0897C155.366 61.4817 157.947 60.4123 159.365 57.5744C160.078 56.149 160.105 55.9678 160.09 52.8844C160.058 47.0106 158.326 38.3709 156.032 32.6269C155.352 30.9214 154.801 29.2659 154.801 28.924C154.801 28.3058 153.82 27.0964 153.321 27.0964C152.752 27.0964 152.141 27.5912 151.882 28.257C151.563 29.077 150.526 36.3504 150 41.4594C149.382 47.4566 149.549 52.3857 150.482 55.5989Z" fill="#D29D66"/>
</svg>
