<svg width="307" height="64" viewBox="0 0 307 64" fill="none" xmlns="http://www.w3.org/2000/svg">
<path d="M234.135 0.0476428C229.149 0.800822 225.957 3.48835 224.859 7.85834C224.038 11.1204 225.818 14.5495 229.123 16.0739C230.446 16.6844 230.976 16.7898 232.653 16.7718C234.997 16.7487 236.399 16.2063 237.753 14.7925C238.854 13.6395 239.192 12.817 239.192 11.2875C239.192 9.46109 238.199 8.14496 236.726 8.02029C235.392 7.90976 234.909 8.05885 234.227 8.79532C233.33 9.76571 233.245 11.3119 234.035 12.3234C234.324 12.6936 234.49 13.056 234.41 13.1383C234.108 13.4493 231.568 13.5059 230.707 13.2218C226.211 11.7386 226.76 5.879 231.594 3.70429C234.113 2.57452 237.971 2.59765 240.257 3.75569C241.367 4.31865 242.894 5.81088 243.421 6.84554C244.145 8.26964 244.254 9.68345 243.769 11.3608C242.926 14.2745 241.564 15.849 238.579 17.3695C236.06 18.6509 234.556 18.944 229.744 19.0789C224.975 19.219 221.576 18.9774 214.766 18.016C205.684 16.7384 201.175 16.7178 195.567 17.9324C192.187 18.6625 186.081 20.9297 183.846 22.2806C180.056 24.5748 175.69 28.8856 172.302 33.6682C169.805 37.1976 169.701 37.4161 170.076 38.3094C170.255 38.7284 170.701 39.2001 171.066 39.3543C172.056 39.7733 172.874 39.2952 173.953 37.6668C178.028 31.5218 182.816 26.8536 187.253 24.6905C191.029 22.8474 196.391 21.8397 199.814 22.3268C203.194 22.8037 206.419 24.9192 208.116 27.7726C211.083 32.7556 210.695 36.8082 206.888 40.6268C205.422 42.0997 205.042 42.3414 203.44 42.8285C199.417 44.0508 195.479 42.5817 193.819 39.2451C192.74 37.073 192.891 35.1617 194.295 33.2248C196.775 29.8021 202.183 30.4602 202.183 34.1875C202.183 35.1977 202.068 35.4651 201.405 36.0254C200.912 36.4406 200.392 36.6514 199.986 36.6051C199.403 36.5357 199.345 36.4316 199.345 35.4214C199.345 34.4587 199.255 34.2684 198.678 33.996C197.682 33.523 196.605 34.1373 196.227 35.3982C195.977 36.2285 196.011 36.5087 196.463 37.4457C197.764 40.1358 201.683 40.407 203.941 37.9624C206.172 35.5524 205.833 31.712 203.192 29.4473C198.367 25.3177 190.616 29.0065 189.71 35.8648C189.372 38.4315 190.771 41.7874 193.049 43.876C195.74 46.3399 199.491 47.4015 202.995 46.6882C206.622 45.9517 208.978 44.349 211.324 41.0201C213.027 38.6089 213.651 36.6308 213.64 33.6926C213.633 32.0886 213.488 30.919 213.181 29.991C212.402 27.6479 210.8 24.8113 209.403 23.3036L208.054 21.8474L210.621 21.9978C218.492 22.4554 222.709 23.9026 227.178 27.6826C231.104 31.0013 232.841 34.6078 232.866 39.4919C232.878 41.3915 232.781 41.9262 232.203 43.1909C230.586 46.7447 229.486 47.5455 225.994 47.7036C224.067 47.7923 223.603 47.7344 222.737 47.2949C220.902 46.3669 219.701 44.0816 219.701 41.5162C219.701 39.9854 220.303 38.8569 221.502 38.1295C222.515 37.5164 223.778 37.4573 223.554 38.0369C223.06 39.2939 223.105 39.6114 223.872 40.3684C224.538 41.0239 224.783 41.1216 225.451 40.9918C226.567 40.7784 227.35 39.8119 227.35 38.6538C227.35 35.9072 223.673 34.0834 220.786 35.4008C217.352 36.9637 216.07 40.6769 217.454 45.07C218.34 47.8835 219.929 49.5634 222.587 50.5106C224.466 51.1764 227.967 51.0518 230.138 50.2356C233.643 48.9182 236.502 43.9081 236.47 39.1461C236.443 34.9767 235.118 31.3753 232.239 27.6479L231.668 26.9063L232.654 27.4975C239.96 31.8534 244.575 36.4354 245.708 40.4558C246.578 43.5379 246.39 46.39 245.232 47.7074C244.908 48.0789 244.641 48.2331 244.636 48.0557C244.628 47.8771 244.327 47.4619 243.957 47.1213C243.044 46.2833 241.471 46.291 240.676 47.1406C239.866 48.0017 239.732 49.832 240.399 50.8937C241.85 53.1982 244.845 53.0915 247.362 50.643C248.778 49.2665 249.35 47.7588 249.527 44.9466L249.682 42.5046L251.25 45.2409C253.877 49.832 254.648 53.1416 253.883 56.5425C253.53 58.1221 253.289 58.6259 252.453 59.5308C251.382 60.6901 250.824 60.8443 250.151 60.1721C249.729 59.7493 249.732 59.7223 250.175 59.6426C251.557 59.3946 251.978 57.8059 250.94 56.7661C249.786 55.6132 247.972 56.1736 247.119 57.9499C246.447 59.3483 246.476 59.9999 247.277 61.5795C247.765 62.5396 248.206 63.0396 248.864 63.3725C251.161 64.5319 253.184 64.091 255.162 61.9973C256.778 60.293 257.47 58.4679 257.64 55.4834C257.816 52.3589 257.32 50.1315 255.546 46.0815C255.468 45.9042 256.171 46.2538 257.108 46.8579C261.682 49.796 268.46 52.2483 275.345 53.4578C283.413 54.8716 293.322 53.6596 298.812 50.5942C301.723 48.9644 304.191 46.4003 305.27 43.885C306.086 41.984 306.633 38.8029 306.507 36.6809C306.295 33.0538 304.03 29.8805 300.463 28.207C297.647 26.8909 293.925 26.9577 290.915 28.3818C289.063 29.2597 287.459 30.7635 286.69 32.3367C286.114 33.5204 286.04 33.9291 286.114 35.51C286.185 36.9881 286.338 37.5459 286.952 38.533C288.019 40.2515 289.433 41.164 291.234 41.2912C292.222 41.3632 292.888 41.2784 293.383 41.0214C295.898 39.7129 296.043 36.9586 293.654 35.8262C292.519 35.289 291.827 35.3031 290.691 35.8879C289.754 36.3712 289.618 36.3172 289.516 35.4239C289.32 33.6746 290.396 32.1747 292.542 31.2056C294.516 30.3162 297.533 30.356 299.449 31.302C302.696 32.9009 303.959 36.1398 302.976 40.3324C301.907 44.8875 298.538 47.7794 292.493 49.3294C288.542 50.341 286.446 50.5415 281.314 50.395C275.706 50.2382 271.567 49.4862 265.94 47.6059C260.067 45.6419 256.044 43.3053 252.244 39.6551C251.036 38.4945 249.905 37.4521 249.729 37.339C249.148 36.9701 249.828 37.1385 251.926 37.8827C256.417 39.4739 262.763 40.3042 267.224 39.8813C271.42 39.4816 274.759 37.8878 277.747 34.8571C281.005 31.5514 282.468 26.022 281.133 22.0749C280.154 19.1882 278.721 17.5276 276.134 16.2795C273.974 15.241 272.012 15.0123 269.593 15.5225C264.339 16.6292 261.959 20.2896 264.519 23.3319C265.87 24.936 268.359 25.5143 270.186 24.6506C271.84 23.8666 272.292 21.7214 271.076 20.422C270.708 20.0249 270.244 19.6457 270.038 19.5789C269.294 19.3231 270.038 19.0931 271.691 19.0738C274.603 19.0352 276.642 20.4426 277.675 23.2085C278.269 24.8049 278.313 26.1467 277.825 27.9718C277.097 30.7108 275.702 32.6516 273.27 34.3121C270.398 36.2722 269.348 36.5344 264.362 36.5228C260.811 36.5138 259.541 36.4084 257.207 35.9342C251.115 34.7016 246.128 32.3971 238.083 27.1004C236.307 25.9295 233.907 24.4694 232.704 23.8268L230.533 22.6687L232.089 22.4965C236.307 22.0312 239.028 21.1071 241.859 19.1792C244.368 17.4697 245.986 15.0174 246.743 11.7849C248.173 5.69519 243.686 0.42037 236.752 0.0412101C235.713 -0.0166279 234.545 -0.0127658 234.135 0.0476428Z" fill="#D29D66"/>
<path d="M164.227 18.9919C166.026 17.2722 167.449 16.2774 168.792 15.7954C170 15.3609 170.706 15.361 171.531 15.7851C173.818 16.9689 174.98 20.5175 174.292 24.2192C173.606 27.9272 171.511 32.5607 167.331 39.6169C163.694 45.7619 161.803 49.1859 160.216 52.5225C159.498 54.0276 158.699 55.3476 158.379 55.5622C157.595 56.0763 156.605 55.7524 156.092 54.8168C155.454 53.6523 155.477 40.9485 156.119 37.0258C157.519 28.5364 159.991 23.0354 164.227 18.9919Z" fill="#D29D66"/>
<path d="M171.038 41.5946C168.184 42.7565 165.668 45.097 163.066 48.994C161.372 51.535 159.01 56.2122 159.004 57.0386C158.995 58.1003 160.775 58.8444 161.42 58.0501C161.554 57.8869 162.285 56.5438 163.048 55.0644C166.292 48.7729 170.601 44.5032 173.703 44.5032C174.756 44.5032 175.167 44.8258 175.534 45.9337C175.974 47.2679 175.652 48.7627 174.684 49.8822C174.214 50.4258 173.76 50.7484 173.642 50.6212C173.522 50.4965 173.58 50.3474 173.778 50.2767C174.369 50.0685 175.035 49.2459 175.035 48.7215C175.035 48.0185 173.949 47.0172 173.185 47.0172C171.417 47.0172 169.882 49.0441 170.228 50.9181C170.455 52.152 171.228 53.3601 172.075 53.7997C172.963 54.265 174.861 54.2727 175.726 53.8216C176.791 53.2612 178.179 51.6841 178.778 50.3513C179.559 48.6251 179.553 45.8875 178.762 44.2564C178.167 43.0226 176.854 41.7 175.848 41.3195C174.834 40.934 172.296 41.0792 171.038 41.5946Z" fill="#D29D66"/>
<path d="M72.3985 0.0476428C77.3829 0.800822 80.5755 3.48835 81.6732 7.85834C82.4945 11.1204 80.7118 14.5495 77.4086 16.0739C76.086 16.6844 75.5552 16.7898 73.8792 16.7718C71.5335 16.7487 70.1339 16.2063 68.7805 14.7925C67.6777 13.6395 67.3397 12.817 67.3397 11.2875C67.3397 9.46109 68.3345 8.14496 69.8061 8.02029C71.139 7.90976 71.6235 8.05885 72.3047 8.79532C73.2006 9.76571 73.2867 11.3119 72.4975 12.3234C72.207 12.6936 72.0425 13.056 72.1209 13.1383C72.4242 13.4493 74.9627 13.5059 75.8251 13.2218C80.321 11.7386 79.7735 5.879 74.937 3.70429C72.4204 2.57452 68.562 2.59765 66.2767 3.75569C65.1637 4.31865 63.6368 5.81088 63.1111 6.84554C62.3875 8.26964 62.2782 9.68345 62.764 11.3608C63.6072 14.2745 64.967 15.849 67.954 17.3695C70.4732 18.6509 71.9757 18.944 76.7878 19.0789C81.5575 19.219 84.9558 18.9774 91.7665 18.016C100.847 16.7384 105.357 16.7178 110.965 17.9324C114.345 18.6625 120.451 20.9297 122.685 22.2806C126.476 24.5748 130.84 28.8856 134.23 33.6682C136.727 37.1976 136.83 37.4161 136.456 38.3094C136.278 38.7284 135.832 39.2001 135.466 39.3543C134.476 39.7733 133.659 39.2952 132.579 37.6668C128.504 31.5218 123.717 26.8536 119.279 24.6905C115.504 22.8474 110.141 21.8397 106.718 22.3268C103.339 22.8037 100.113 24.9192 98.4165 27.7726C95.4501 32.7556 95.837 36.8082 99.644 40.6268C101.11 42.0997 101.488 42.3414 103.091 42.8285C107.117 44.0508 111.053 42.5817 112.713 39.2451C113.791 37.073 113.642 35.1617 112.238 33.2248C109.757 29.8021 104.351 30.4602 104.351 34.1875C104.351 35.1977 104.464 35.4651 105.127 36.0254C105.621 36.4406 106.14 36.6514 106.546 36.6051C107.129 36.5357 107.186 36.4316 107.186 35.4214C107.186 34.4587 107.275 34.2684 107.853 33.996C108.849 33.523 109.928 34.1373 110.303 35.3982C110.552 36.2285 110.521 36.5087 110.066 37.4457C108.766 40.1358 104.847 40.407 102.587 37.9624C100.359 35.5524 100.697 31.712 103.338 29.4473C108.162 25.3177 115.913 29.0065 116.819 35.8648C117.159 38.4315 115.759 41.7874 113.48 43.876C110.79 46.3399 107.038 47.4015 103.535 46.6882C99.9062 45.9517 97.5503 44.349 95.2046 41.0201C93.5042 38.6089 92.8783 36.6308 92.8898 33.6926C92.8962 32.0886 93.0428 30.919 93.3487 29.991C94.1288 27.6479 95.729 24.8113 97.1261 23.3036L98.477 21.8474L95.909 21.9978C88.0392 22.4554 83.8209 23.9026 79.3519 27.6826C75.4267 31.0013 73.6902 34.6078 73.6633 39.4919C73.6543 41.3915 73.7494 41.9262 74.3265 43.1909C75.9434 46.7447 77.0448 47.5455 80.537 47.7036C82.4623 47.7923 82.9263 47.7344 83.7939 47.2949C85.6292 46.3669 86.8297 44.0816 86.8297 41.5162C86.8297 39.9854 86.2269 38.8569 85.029 38.1295C84.0162 37.5164 82.7528 37.4573 82.9764 38.0369C83.47 39.2939 83.4276 39.6114 82.659 40.3684C81.9919 41.0239 81.7464 41.1216 81.0793 40.9918C79.9637 40.7784 79.1797 39.8119 79.1797 38.6538C79.1797 35.9072 82.8569 34.0834 85.7436 35.4008C89.1779 36.9637 90.4581 40.6769 89.0738 45.07C88.1882 47.8835 86.6009 49.5634 83.9417 50.5106C82.0626 51.1764 78.5615 51.0518 76.3906 50.2356C72.8857 48.9182 70.0259 43.9081 70.0568 39.1461C70.0837 34.9767 71.4089 31.3753 74.2879 27.6479L74.8599 26.9063L73.874 27.4975C66.5685 31.8534 61.953 36.4354 60.8207 40.4558C59.9506 43.5379 60.1395 46.39 61.2962 47.7074C61.6214 48.0789 61.8875 48.2331 61.8913 48.0557C61.9003 47.8771 62.1998 47.4619 62.5713 47.1213C63.4838 46.2833 65.057 46.291 65.8539 47.1406C66.6623 48.0017 66.796 49.832 66.1289 50.8937C64.6778 53.1982 61.6818 53.0915 59.1653 50.643C57.7502 49.2665 57.1782 47.7588 56.9995 44.9466L56.8453 42.5046L55.2773 45.2409C52.6514 49.832 51.8803 53.1416 52.6437 56.5425C52.9972 58.1221 53.2375 58.6259 54.073 59.5308C55.1449 60.6901 55.7014 60.8443 56.3762 60.1721C56.7965 59.7493 56.7952 59.7223 56.3505 59.6426C54.9675 59.3946 54.5459 57.8059 55.5844 56.7661C56.7386 55.6132 58.5522 56.1736 59.4069 57.9499C60.0778 59.3483 60.0495 59.9999 59.2475 61.5795C58.7591 62.5396 58.3182 63.0396 57.6589 63.3725C55.3634 64.5319 53.3403 64.091 51.3623 61.9973C49.7467 60.293 49.0539 58.4679 48.883 55.4834C48.7082 52.3589 49.203 50.1315 50.978 46.0815C51.0551 45.9042 50.3533 46.2538 49.4151 46.8579C44.842 49.796 38.066 52.2483 31.1795 53.4578C23.1105 54.8716 13.2022 53.6596 7.71274 50.5942C4.80157 48.9644 2.33126 46.4003 1.25419 43.885C0.438032 41.984 -0.106928 38.8029 0.0177443 36.6809C0.231101 33.0538 2.49449 29.8805 6.06115 28.207C8.87593 26.8909 12.5994 26.9577 15.6108 28.3818C17.4616 29.2597 19.0682 30.7635 19.8355 32.3367C20.4114 33.5204 20.4846 33.9291 20.4101 35.51C20.3394 36.9881 20.1851 37.5459 19.5721 38.533C18.5053 40.2515 17.0915 41.164 15.2895 41.2912C14.3011 41.3632 13.6366 41.2784 13.1418 41.0214C10.6252 39.7129 10.4812 36.9586 12.8706 35.8262C14.0068 35.289 14.697 35.3031 15.8332 35.8879C16.7701 36.3712 16.9077 36.3172 17.0079 35.4239C17.2046 33.6746 16.1288 32.1747 13.9824 31.2056C12.0082 30.3162 8.9916 30.356 7.07396 31.302C3.82861 32.9009 2.56389 36.1398 3.54842 40.3324C4.61906 44.8875 7.98651 47.7794 14.0325 49.3294C17.9834 50.341 20.0785 50.5415 25.2119 50.395C30.8196 50.2382 34.9582 49.4862 40.5852 47.6059C46.4576 45.6419 50.4819 43.3053 54.2812 39.6551C55.4893 38.4945 56.6204 37.4521 56.7978 37.339C57.38 36.9701 56.6988 37.1385 54.6012 37.8827C50.1104 39.4739 43.7637 40.3042 39.3025 39.8813C35.106 39.4816 31.7694 37.8878 28.7798 34.8571C25.5229 31.5514 24.0603 26.022 25.3957 22.0749C26.3738 19.1882 27.8056 17.5276 30.3942 16.2795C32.5547 15.241 34.5148 15.0123 36.935 15.5225C42.1892 16.6292 44.5696 20.2896 42.0093 23.3319C40.6572 24.936 38.1688 25.5143 36.3412 24.6506C34.6857 23.8666 34.2346 21.7214 35.4505 20.422C35.8193 20.0249 36.2846 19.6457 36.489 19.5789C37.2344 19.3231 36.489 19.0931 34.8361 19.0738C31.9249 19.0352 29.8865 20.4426 28.8531 23.2085C28.2593 24.8049 28.2143 26.1467 28.7014 27.9718C29.4302 30.7108 30.826 32.6516 33.2565 34.3121C36.1291 36.2722 37.1792 36.5344 42.1648 36.5228C45.7173 36.5138 46.9846 36.4084 49.32 35.9342C55.4135 34.7016 60.4004 32.3971 68.445 27.1004C70.2213 25.9295 72.6209 24.4694 73.8252 23.8268L75.9961 22.6687L74.4408 22.4965C70.2225 22.0312 67.5016 21.1071 64.6688 19.1792C62.1612 17.4697 60.5418 15.0174 59.7848 11.7849C58.3568 5.69519 62.8437 0.42037 69.7766 0.0412101C70.8189 -0.0166279 71.9885 -0.0127658 72.3985 0.0476428Z" fill="#D29D66"/>
<path d="M135.001 15.7846C135.826 15.3592 136.532 15.3605 137.74 15.7949C139.084 16.2769 140.504 17.273 142.305 18.9914C146.541 23.0336 149.013 28.536 150.411 37.0253C151.057 40.948 151.077 53.6518 150.44 54.8163C149.926 55.752 148.936 56.0758 148.152 55.5617C147.833 55.3471 147.034 54.0271 146.318 52.522C144.729 49.1854 142.84 45.7614 139.201 39.6165C135.021 32.5602 132.928 27.928 132.24 24.2187C131.552 20.5171 132.714 16.9684 135.001 15.7846Z" fill="#D29D66"/>
<path d="M135.494 41.5946C138.348 42.7565 140.866 45.097 143.464 48.994C145.16 51.535 147.522 56.2122 147.529 57.0386C147.538 58.1003 145.757 58.8444 145.112 58.0501C144.979 57.8869 144.249 56.5438 143.484 55.0644C140.238 48.7729 135.93 44.5032 132.83 44.5032C131.776 44.5032 131.366 44.8258 130.999 45.9337C130.558 47.2679 130.88 48.7627 131.848 49.8822C132.318 50.4258 132.773 50.7484 132.893 50.6212C133.011 50.4965 132.955 50.3474 132.758 50.2767C132.166 50.0685 131.5 49.2459 131.5 48.7215C131.5 48.0185 132.585 47.0172 133.348 47.0172C135.117 47.0172 136.652 49.0441 136.307 50.9181C136.079 52.152 135.306 53.3601 134.46 53.7997C133.572 54.265 131.673 54.2727 130.808 53.8216C129.743 53.2612 128.357 51.6841 127.757 50.3513C126.977 48.6251 126.983 45.8875 127.772 44.2564C128.369 43.0226 129.681 41.7 130.686 41.3195C131.698 40.934 134.237 41.0792 135.494 41.5946Z" fill="#D29D66"/>
<path d="M150.482 8.40109C150.983 6.67495 152.293 4.58123 153.296 3.91031C155.366 2.51834 157.947 3.5877 159.365 6.42562C160.078 7.851 160.105 8.03221 160.09 11.1156C160.058 16.9894 158.326 25.6291 156.032 31.3731C155.352 33.0786 154.801 34.7341 154.801 35.076C154.801 35.6942 153.82 36.9036 153.321 36.9036C152.752 36.9036 152.141 36.4088 151.882 35.743C151.563 34.923 150.526 27.6496 150 22.5406C149.382 16.5434 149.549 11.6143 150.482 8.40109Z" fill="#D29D66"/>
</svg>
