<svg xmlns="http://www.w3.org/2000/svg" width="165" height="165" viewBox="0 0 165 165" fill="none">
  <path d="M83.1734 13.3122C84.3084 12.4022 85.6236 11.6827 86.8222 10.8468C87.8935 10.1062 88.9331 9.27026 90.068 8.63541C91.2984 7.94765 91.4893 6.19123 90.5135 5.2072C89.6119 4.30782 87.639 4.32897 87.0768 5.65158C86.5252 6.96362 85.7509 8.20161 85.0827 9.45016C84.4038 10.6987 83.8523 12.053 83.0992 13.2593C83.0568 13.3016 83.131 13.3439 83.1734 13.3122Z" fill="#EAAE55" fill-opacity="0.5"/>
  <path d="M81.3703 12.6874C81.3809 12.7403 81.4657 12.7403 81.4763 12.6874C82.0809 9.98924 82.8765 7.13236 83.7887 4.51887C84.9554 1.16472 78.517 0.836708 79.5671 4.51887C80.3202 7.13236 80.9354 9.98924 81.3703 12.6874Z" fill="#EAAE55" fill-opacity="0.5"/>
  <path d="M73.1922 8.32777C74.3272 9.06843 75.3667 9.99955 76.4274 10.8354C77.4987 11.6819 78.6761 12.4226 79.6837 13.3325C79.7262 13.3748 79.8004 13.3219 79.7686 13.269C79.1215 12.0734 78.6761 10.7719 78.0927 9.54453C77.5199 8.32773 76.8516 7.12152 76.3955 5.86239C75.8758 4.43397 74.2423 3.7462 72.9589 4.73023C71.7179 5.69309 71.9088 7.50245 73.1922 8.32777Z" fill="#EAAE55" fill-opacity="0.5"/>
  <path d="M70.2541 15.2902C73.0437 15.0046 76.0349 14.8883 78.8351 14.9306C78.8988 14.9306 78.8988 14.846 78.8458 14.8248C76.3425 13.7881 73.7226 12.5398 71.3572 11.2175C67.9311 9.3133 66.8598 15.6393 70.2541 15.2902Z" fill="#EAAE55" fill-opacity="0.5"/>
  <path d="M75.0167 17.6501C73.6484 18.0204 72.2801 18.4543 70.8799 18.7082C67.4221 19.3219 70.3708 25.1414 73.012 22.3586C73.9666 21.3534 75.0803 20.4646 76.1198 19.5441C77.1593 18.6235 78.1246 17.576 79.2171 16.7084C79.2595 16.6766 79.2171 16.6026 79.1641 16.6237C77.8064 17.047 76.385 17.2798 75.0167 17.6501Z" fill="#EAAE55" fill-opacity="0.5"/>
  <path d="M79.514 25.924C79.6943 23.2894 80.0974 20.4113 80.6171 17.819C80.6278 17.7661 80.5535 17.7238 80.5217 17.7767C79.1109 19.9987 77.4669 22.3476 75.7803 24.3792C73.1604 27.5535 79.2594 29.8813 79.514 25.924Z" fill="#EAAE55" fill-opacity="0.5"/>
  <path d="M82.3356 17.8087C82.7068 20.4751 82.9295 23.3954 82.9507 26.0936C82.9826 29.9873 89.071 27.776 87.0238 24.9932C85.3798 22.75 83.7675 20.2 82.431 17.777C82.3992 17.7029 82.3249 17.7452 82.3356 17.8087Z" fill="#EAAE55" fill-opacity="0.5"/>
  <path d="M91.797 19.0985C90.4393 18.7705 89.1134 18.2626 87.7875 17.8182C86.4616 17.3738 85.0721 17.0669 83.7781 16.559C83.725 16.5379 83.6932 16.612 83.725 16.6437C84.7751 17.5854 85.6873 18.6964 86.695 19.7016C87.6921 20.6962 88.7634 21.6591 89.6756 22.7489C91.9561 25.4576 95.4882 19.9767 91.797 19.0985Z" fill="#EAAE55" fill-opacity="0.5"/>
  <path d="M84.0538 14.8772C86.695 14.9935 89.5271 15.2474 92.1364 15.66C96.2095 16.3159 95.1912 9.93691 91.6166 11.6718C89.2195 12.8249 86.5465 13.8933 84.0432 14.7714C83.9902 14.7925 84.0008 14.8772 84.0538 14.8772Z" fill="#EAAE55" fill-opacity="0.5"/>
  <path d="M114.231 9.08969C118.59 6.60317 126.906 2.96335 131.828 6.12704C137.439 9.73514 132.496 13.4067 131.17 17.3428C130.81 18.422 131.595 19.6918 132.666 19.9669C132.995 20.0515 133.324 20.1362 133.663 20.2208C134.724 20.4854 135.912 20.2314 136.686 19.4273C139.635 16.3694 140.282 12.3804 139.189 8.96272C145.755 15.4277 152.894 22.7708 161.22 15.597C164.752 12.5497 166.407 6.95239 163.532 2.92106C160.849 -0.835169 155.906 -0.824589 152.65 2.12749C151.398 3.25965 151.727 5.01604 152.65 6.19053C153.827 7.7036 154.803 6.48678 156.139 6.6455C157.465 5.3123 158.59 6.20111 159.512 9.30132C159.13 10.571 158.42 11.555 157.37 12.2534C155.132 14.1368 152.437 14.2744 149.701 13.4173C144.981 11.9254 141.396 8.45487 137.386 5.62977C135.763 3.60881 133.345 2.15922 130.301 1.85237C124.785 1.29159 119.184 3.29137 114.528 6.07415C108.524 9.6505 103.401 17.4275 96.0398 17.8401C95.9762 17.8401 95.9656 17.9247 96.0293 17.9459C102.998 19.988 108.768 12.2111 114.231 9.08969Z" fill="#EAAE55" fill-opacity="0.5"/>
  <path d="M59.4986 16.6445C59.3925 19.0358 63.402 18.9829 63.1792 16.6445C62.9353 14.0945 63.5929 11.5657 65.5976 9.86219C65.7143 9.75638 65.587 9.58703 65.4491 9.60819C62.0124 10.3806 59.6577 13.1634 59.4986 16.6445Z" fill="#EAAE55" fill-opacity="0.5"/>
  <path d="M59.7638 10.1791C59.8168 10.1368 59.7532 10.0733 59.7002 10.0945C57.2712 11.3324 55.4998 12.7926 54.4178 15.3426C53.5375 17.4059 52.6465 21.141 54.7785 22.6752C55.3088 23.0561 56.1574 23.0032 56.6878 22.6752C56.7514 22.6329 56.815 22.6011 56.8681 22.5588C58.0985 21.8076 57.95 20.4214 57.1332 19.6702C55.6589 16.7181 57.409 12.0731 59.7638 10.1791Z" fill="#EAAE55" fill-opacity="0.5"/>
  <path d="M60.538 4.98418C60.835 4.92071 60.8138 4.48701 60.538 4.41296C59.594 4.14849 58.7561 3.71474 58.0136 3.06944C57.3135 2.45588 56.9211 1.62016 56.2528 1.01718C54.9906 -0.125318 52.901 1.32397 53.8344 2.87904C55.0861 4.98419 58.3212 5.46022 60.538 4.98418Z" fill="#EAAE55" fill-opacity="0.5"/>
  <path d="M43.9381 6.00021C46.8763 8.12698 50.1963 8.55022 53.5799 7.25934C53.6329 7.23818 53.6224 7.16409 53.5693 7.16409C50.7903 6.79376 48.0219 5.21719 46.1656 3.12217C44.5003 1.22819 41.6682 4.34959 43.9381 6.00021Z" fill="#EAAE55" fill-opacity="0.5"/>
  <path d="M44.182 12.9304C45.8367 12.5496 48.2127 11.9995 49.4431 10.7512C49.5174 10.6772 49.4856 10.5291 49.3795 10.5079C48.5946 10.3598 47.7778 10.4656 46.9717 10.4021C46.0064 10.3175 45.0943 10.0848 44.1715 9.77801C41.7425 8.9423 41.3393 13.5863 44.182 12.9304Z" fill="#EAAE55" fill-opacity="0.5"/>
  <path d="M96.8352 16.4328C98.8612 14.8457 100.463 12.4756 101.014 9.9573C101.619 7.22742 97.1323 7.238 97.7581 9.9573C98.2884 12.2745 97.9384 14.2849 96.6761 16.3164C96.6125 16.4117 96.7504 16.4963 96.8352 16.4328Z" fill="#EAAE55" fill-opacity="0.5"/>
  <path d="M102.553 13.4278C104.716 11.5126 106.223 9.14252 107.156 6.42322C107.326 5.9365 107.124 5.38628 106.785 5.02653C106.71 4.95247 106.647 4.87837 106.573 4.79372C106.276 4.46571 105.682 4.39168 105.31 4.63504C103.963 5.51326 104.419 6.97341 104.207 8.39126C103.953 10.1477 103.337 11.8089 102.478 13.3643C102.446 13.4172 102.51 13.4595 102.553 13.4278Z" fill="#EAAE55" fill-opacity="0.5"/>
  <path d="M109.161 7.51281C109.808 6.85679 110.571 6.39124 111.272 5.7987C111.972 5.21675 112.725 4.70887 113.573 4.34912C115.228 3.65078 114.029 1.24892 112.65 2.16946C111.696 2.81489 110.837 3.56612 110.126 4.4655C109.468 5.30139 109.182 6.38068 108.991 7.40702C108.97 7.50225 109.086 7.58687 109.161 7.51281Z" fill="#EAAE55" fill-opacity="0.5"/>
  <path d="M96.8459 19.5872C96.602 19.5343 96.4323 19.8199 96.602 19.9997C97.8006 21.2374 98.978 22.1366 100.537 22.8983C102.001 23.6176 103.465 24.3899 105.119 24.1466C106.403 23.9668 106.445 22.0943 105.459 21.5231C104.197 20.7931 102.627 20.8989 101.216 20.5816C99.7523 20.2642 98.2991 19.9363 96.8459 19.5872Z" fill="#EAAE55" fill-opacity="0.5"/>
  <path d="M104.197 17.8723C104.059 17.8723 103.985 18.0839 104.122 18.1474C105.756 18.8667 107.432 19.3851 109.203 19.6496C110.879 19.9035 112.428 20.2102 113.499 18.7292C113.881 18.2002 113.573 17.4174 113.075 17.1001C111.759 16.275 110.582 17.026 109.203 17.3646C107.548 17.7877 105.883 17.9146 104.197 17.8723Z" fill="#EAAE55" fill-opacity="0.5"/>
  <path d="M114.74 14.6027C116.416 14.4228 118.187 14.3593 119.492 13.2063C120.394 12.4129 119.683 10.7626 118.506 10.8261C116.978 10.9001 115.843 11.7993 114.475 12.4235C112.852 13.1534 111.155 13.7035 109.5 14.3488C109.458 14.3699 109.447 14.4334 109.5 14.444C111.25 14.8036 112.979 14.7931 114.74 14.6027Z" fill="#EAAE55" fill-opacity="0.5"/>
  <path d="M127.564 7.78912C124.891 6.22348 122.027 6.8476 119.577 8.42382C119.513 8.46613 119.566 8.54021 119.63 8.51905C121.836 7.56697 124.148 8.6354 125.676 10.2222C127.235 11.8302 129.547 8.95278 127.564 7.78912Z" fill="#EAAE55" fill-opacity="0.5"/>
  <path d="M80.7232 13.841C80.6384 13.8516 80.5535 13.8728 80.4687 13.8939C79.0473 14.169 79.0473 16.4963 80.4687 16.7607C80.5535 16.7819 80.6384 16.7925 80.7232 16.8136C81.6991 16.9934 82.675 16.3799 82.675 15.3326C82.675 14.2748 81.6991 13.6506 80.7232 13.841Z" fill="#EAAE55" fill-opacity="0.5"/>
  <path d="M144.535 17.385C143.761 15.9672 142.764 14.6974 141.618 13.5759C141.353 13.3219 140.823 13.4913 140.855 13.8933C140.95 15.2477 140.918 16.5703 140.611 17.9035C140.303 19.2261 140.293 20.5593 140.017 21.8819C139.211 25.818 145.32 26.6222 145.448 22.612C145.501 20.7815 145.416 19.0145 144.535 17.385Z" fill="#EAAE55" fill-opacity="0.5"/>
  <path d="M49.04 16.8246C48.1914 19.2158 47.5656 22.0621 47.5126 24.8343C45.3169 33.5847 42.6121 43.88 51.7978 49.1916C53.6434 50.2603 55.5527 50.7576 57.4302 50.8316C56.9741 51.7522 56.1467 52.6939 55.4997 53.4875C55.2239 53.826 54.9163 54.1329 54.6087 54.4397C54.3011 54.7465 53.9935 55.0534 53.6541 55.3285C52.8691 55.9845 51.9145 56.8099 50.9917 57.2543C50.9174 55.3814 50.4083 53.4769 49.3476 51.6358C44.0229 42.4727 33.7129 45.1709 24.9302 47.3611C22.1512 47.414 19.2979 48.0488 16.9007 48.8847C10.2501 51.2231 5.49815 56.4501 6.15578 63.7086C6.1664 63.7721 6.26183 63.7827 6.26183 63.7086C6.00726 56.2385 12.3503 51.5512 19.107 50.1968C21.8012 49.6572 25.45 49.2445 28.1336 50.165C31.3263 51.2655 33.0234 53.4346 33.2143 56.6723C33.3628 60.2698 31.6126 61.6665 27.9426 60.8306C28.8654 59.963 27.9108 58.0902 26.638 58.5875C22.3315 60.3016 24.1135 65.8037 28.5048 65.8777C34.7417 65.9835 37.9981 57.8045 35.5691 52.842C33.7871 49.1916 30.4353 47.6997 26.7652 47.4034C33.2673 46.3348 40.6393 45.7634 44.829 50.4401C50.3235 56.5665 46.7171 65.4968 39.0694 67.2321C36.7571 67.7505 37.7435 71.3057 40.0453 70.7661C41.0529 70.5333 42.0181 70.1842 42.9303 69.7609C47.6823 72.713 53.2086 73.5383 58.8621 71.7501C61.429 70.9354 64.6641 69.2636 67.3053 67.0733C69.5116 64.4493 71.1875 61.2115 71.9936 58.651C73.7862 53.0113 72.9589 47.4986 69.9995 42.7584C70.4238 41.8484 70.7738 40.8856 71.0072 39.8804C71.5481 37.5844 67.9841 36.6003 67.4644 38.9069C65.7248 46.5358 56.7725 50.1333 50.631 44.6524C45.9427 40.4729 46.5155 33.1192 47.5868 26.6331C47.8838 30.2941 49.39 33.6376 53.0389 35.4152C58.0136 37.8383 66.2128 34.59 66.1067 28.3684C66.0324 23.9879 60.5168 22.1997 58.7985 26.5061C58.2893 27.7758 60.1668 28.7281 61.0472 27.8076C61.8745 31.4686 60.485 33.225 56.8786 33.0663C53.6329 32.8758 51.469 31.1934 50.3553 27.998C49.4325 25.321 49.8461 21.6812 50.3871 18.9936C51.7448 12.2536 56.4437 5.92622 63.9323 6.18015C64.0065 6.18015 63.9959 6.08495 63.9323 6.07437C56.6346 5.4501 51.3841 10.1903 49.04 16.8246ZM69.2782 44.1022C71.039 49.1705 70.9647 54.7889 68.3978 59.6879C67.4538 61.4866 66.2658 63.2007 64.8975 64.7244C63.3701 66.0893 61.6518 67.2744 59.8486 68.2161C54.9375 70.7767 49.3158 70.8507 44.2244 69.0943C44.9775 68.6393 45.667 68.1208 46.3246 67.5495C49.5279 68.3642 52.413 68.8086 55.7967 67.6024C58.5439 66.6289 61.0259 64.9677 63.2958 63.1161C65.1521 60.8412 66.8174 58.3652 67.7932 55.6354C69.0024 52.26 68.5463 49.382 67.7402 46.1866C68.3024 45.5412 68.8221 44.8534 69.2782 44.1022ZM67.3689 46.6205C67.5599 49.3292 67.4856 52.1754 66.6158 54.6831C65.6612 57.4236 63.8898 59.6879 62.0654 61.9099C59.8486 63.7192 57.5681 65.4968 54.8208 66.4491C52.307 67.3167 49.4537 67.3908 46.7383 67.2004C47.555 66.4279 48.2657 65.5814 48.8703 64.6503C52.6782 65.2958 57.271 62.8727 60.5698 60.4285C63.0201 57.1273 65.4491 52.5457 64.8021 48.7578C65.7355 48.1441 66.5946 47.4246 67.3689 46.6205ZM64.3884 49.0012C64.1656 51.2655 62.7124 53.9742 61.8639 55.5402C61.1532 56.8522 60.3047 58.069 59.3713 59.2117C58.2257 60.1534 57.0165 60.9999 55.6906 61.6983C54.1208 62.5342 51.4054 63.9837 49.1355 64.2165C49.7294 63.2219 50.2068 62.1744 50.525 61.074C53.0919 60.4285 55.8921 59.5398 57.9605 57.8045C59.7001 55.7412 60.591 52.9478 61.2381 50.3873C62.3306 50.0698 63.3913 49.5937 64.3884 49.0012ZM61.0684 50.4296C60.591 51.9638 59.7531 53.424 58.7879 54.6725C58.2045 55.4343 57.5256 56.0586 56.8362 56.6723C56.221 57.3601 55.5952 58.0372 54.8315 58.6192C53.5692 59.582 52.116 60.4285 50.578 60.8941C50.8856 59.7619 51.0341 58.5875 51.0023 57.3918C52.1266 57.0638 53.1555 56.9051 54.2162 56.3337C54.7148 56.0692 55.1815 55.7729 55.6376 55.4555C55.9558 55.0005 56.2528 54.535 56.518 54.0377C57.0907 52.9796 57.2499 51.9638 57.5787 50.8316C58.756 50.8845 59.9334 50.7364 61.0684 50.4296Z" fill="#EAAE55" fill-opacity="0.5"/>
  <path d="M72.0997 43.0013C75.3773 41.7422 78.7715 40.6841 81.9218 39.1288C84.3932 37.9014 82.0279 33.8806 79.7686 35.4466C76.8835 37.4464 74.3166 39.9117 71.6224 42.1761C71.2511 42.4829 71.6436 43.1812 72.0997 43.0013Z" fill="#EAAE55" fill-opacity="0.5"/>
  <path d="M73.8287 45.7521C75.3243 45.4453 76.8305 45.2972 78.3473 45.202C79.7368 45.1068 81.1794 45.3078 82.5583 45.1279C84.7964 44.8423 84.9236 41.711 82.5583 41.5523C79.3974 41.3513 75.9819 43.0863 73.4044 44.7471C72.8741 45.0962 73.2135 45.8685 73.8287 45.7521Z" fill="#EAAE55" fill-opacity="0.5"/>
  <path d="M83.6824 48.6417C80.8185 47.7319 76.9682 47.552 74.2422 48.8955C73.9664 49.0331 74.0512 49.4457 74.327 49.5303C75.7165 49.9534 77.1379 50.1015 78.5486 50.4823C80.0018 50.8738 81.3383 51.5191 82.7384 52.0797C84.8386 52.926 85.9099 49.3504 83.6824 48.6417Z" fill="#EAAE55" fill-opacity="0.5"/>
  <path d="M74.6136 55.3702C77.0108 56.3754 79.3125 57.0949 81.5188 58.5339C83.4705 59.8036 85.3797 56.4177 83.3114 55.4654C80.702 54.2698 77.4457 53.3916 74.6136 54.2275C73.9984 54.3968 74.1045 55.148 74.6136 55.3702Z" fill="#EAAE55" fill-opacity="0.5"/>
  <path d="M72.7574 60.7359C74.7939 62.577 77.329 63.8361 79.4186 65.656C81.4445 67.423 83.9372 64.2699 81.6885 62.7145C79.2064 61.011 75.9819 59.5085 72.9165 60.1539C72.6513 60.2069 72.5665 60.5666 72.7574 60.7359Z" fill="#EAAE55" fill-opacity="0.5"/>
  <path d="M70.201 67.6971C72.3755 69.0621 74.2211 70.7973 75.653 72.9241C77.488 75.6751 81.296 72.1517 79.0155 70.3423C76.5653 68.406 73.8817 66.9882 70.8375 66.2158C69.9253 65.9936 69.4161 67.2104 70.201 67.6971Z" fill="#EAAE55" fill-opacity="0.5"/>
  <path d="M62.1186 38.145C59.9971 38.6317 58.6713 40.4093 56.3165 40.5257C53.2299 40.6738 50.3235 38.7481 48.584 36.3356C48.5415 36.2827 48.4567 36.3251 48.4885 36.3885C50.1432 39.4993 52.3495 42.2398 55.9665 43.0757C58.7667 43.7211 63.1262 43.245 64.0066 40.039C64.3354 38.8645 63.2535 37.8805 62.1186 38.145Z" fill="#EAAE55" fill-opacity="0.5"/>
  <path d="M47.5656 14.3583C46.6322 15.0567 45.8049 15.6068 45.1578 16.612C44.4578 17.7018 44.0547 18.9187 43.938 20.2095C43.7365 22.4844 47.7671 22.3046 47.2262 19.7651C46.8655 18.0616 46.7489 16.0195 47.6399 14.4323C47.6611 14.39 47.608 14.3266 47.5656 14.3583Z" fill="#EAAE55" fill-opacity="0.5"/>
  <path d="M34.0311 19.7443C35.3994 23.6487 36.5768 28.3784 35.3039 32.4097C35.2827 32.4732 35.3782 32.4943 35.41 32.4414C37.8709 26.5479 37.4359 17.3107 33.1825 12.2742C32.8113 11.8298 32.1113 11.7134 31.5809 11.8509C31.3794 11.9039 31.1884 11.9568 30.9869 12.0097C30.6368 12.1049 30.4141 12.433 30.4035 12.7715C30.3717 13.5863 30.4777 13.9143 30.8596 14.5914C31.8991 16.4748 33.2568 17.5329 34.0311 19.7443Z" fill="#EAAE55" fill-opacity="0.5"/>
  <path d="M13.2944 82.8709C12.0852 83.6327 10.7381 84.1723 9.47589 84.8495C8.22426 85.5267 6.98321 86.2885 5.66794 86.8387C4.34206 87.3995 4.32087 89.3676 5.22246 90.2669C6.20892 91.251 7.95907 91.0499 8.65913 89.8225C9.29555 88.6903 10.1229 87.6534 10.876 86.5847C11.714 85.3891 12.4353 84.0771 13.3475 82.9449C13.3899 82.9132 13.3474 82.8391 13.2944 82.8709Z" fill="#EAAE55" fill-opacity="0.5"/>
  <path d="M4.54358 83.5688C7.16352 82.659 10.0274 81.8656 12.7322 81.2627C12.7853 81.2521 12.7853 81.1674 12.7322 81.1568C10.0381 80.7231 7.17413 80.1096 4.54358 79.3585C0.852336 78.3112 1.18115 84.743 4.54358 83.5688Z" fill="#EAAE55" fill-opacity="0.5"/>
  <path d="M4.75561 72.7758C3.76915 74.0455 4.45862 75.6855 5.89057 76.204C7.1528 76.659 8.37259 77.3256 9.58179 77.897C10.8122 78.4684 12.1169 78.9233 13.3155 79.5687C13.3685 79.6005 13.4216 79.5264 13.3791 79.4841C12.4669 78.4684 11.7244 77.2939 10.8759 76.2358C10.0273 75.1777 9.10452 74.1408 8.36202 73.0086C7.53468 71.7177 5.72085 71.5272 4.75561 72.7758Z" fill="#EAAE55" fill-opacity="0.5"/>
  <path d="M11.2684 71.1677C12.5943 73.5272 13.8459 76.1407 14.8854 78.6378C14.9066 78.6907 14.9915 78.6907 14.9915 78.6272C14.949 75.8339 15.0657 72.85 15.3521 70.0672C15.6915 66.6813 9.34851 67.7501 11.2684 71.1677Z" fill="#EAAE55" fill-opacity="0.5"/>
  <path d="M18.7571 70.6814C18.5025 72.078 18.0676 73.4429 17.6964 74.8079C17.3251 76.1728 17.0918 77.5907 16.6569 78.9345C16.6463 78.9874 16.7099 79.0297 16.7417 78.9874C17.6115 77.8975 18.651 76.9453 19.5844 75.8978C20.5072 74.8608 21.3982 73.7498 22.4059 72.7975C25.2062 70.1735 19.3723 67.232 18.7571 70.6814Z" fill="#EAAE55" fill-opacity="0.5"/>
  <path d="M24.4635 75.5803C22.427 77.2521 20.0722 78.9027 17.8447 80.31C17.7917 80.3417 17.8235 80.4158 17.8871 80.4052C20.4859 79.8973 23.371 79.4846 26.0122 79.3048C29.9686 79.0508 27.635 72.9668 24.4635 75.5803Z" fill="#EAAE55" fill-opacity="0.5"/>
  <path d="M26.1607 82.7332C23.4665 82.712 20.5284 82.4898 17.8555 82.1195C17.8024 82.1089 17.76 82.1829 17.813 82.2146C20.242 83.5478 22.8089 85.1667 25.047 86.7962C27.8472 88.8277 30.0747 82.7543 26.1607 82.7332Z" fill="#EAAE55" fill-opacity="0.5"/>
  <path d="M19.16 91.5576C20.0404 95.2503 25.5349 91.7269 22.8195 89.4308C21.7376 88.5208 20.7723 87.4628 19.7647 86.4576C18.757 85.463 17.6538 84.553 16.6992 83.4949C16.6674 83.4526 16.5931 83.4949 16.6143 83.5478C17.1235 84.8493 17.4417 86.2248 17.8766 87.5474C18.3221 88.8806 18.8312 90.2032 19.16 91.5576Z" fill="#EAAE55" fill-opacity="0.5"/>
  <path d="M15.7234 91.9068C15.2991 89.3039 15.0552 86.4682 14.9385 83.8442C14.9385 83.7807 14.8536 83.7701 14.8324 83.8336C13.9626 86.3413 12.8913 89.0077 11.7245 91.3884C9.98497 94.9541 16.381 95.9593 15.7234 91.9068Z" fill="#EAAE55" fill-opacity="0.5"/>
  <path d="M2.93134 163.095C6.98323 165.962 12.5943 164.312 15.6385 160.788C22.8301 152.493 15.4688 145.361 8.98792 138.812C12.414 139.902 16.4129 139.256 19.4783 136.315C20.2844 135.542 20.5496 134.368 20.2738 133.299C20.189 132.971 20.1041 132.643 20.0193 132.304C19.7541 131.236 18.4706 130.453 17.3887 130.813C13.4323 132.135 9.76224 137.066 6.14524 131.469C2.97374 126.57 6.62254 118.264 9.1152 113.915C12.2337 108.466 20.0299 102.71 17.9721 95.7367C17.9509 95.6732 17.8766 95.6944 17.866 95.7473C17.4417 103.09 9.65616 108.19 6.07098 114.19C3.28133 118.845 1.27662 124.432 1.83879 129.924C2.14639 132.96 3.61017 135.362 5.62551 136.992C8.45758 140.991 11.9473 144.568 13.4323 149.276C14.302 152.006 14.1642 154.694 12.2655 156.926C11.5655 157.974 10.579 158.683 9.30618 159.064C6.19832 158.143 5.30732 157.021 6.6438 155.699C6.4847 154.366 7.70451 153.392 6.18771 152.218C5.01033 151.297 3.24953 150.969 2.11458 152.218C-0.823565 155.487 -0.83415 160.418 2.93134 163.095Z" fill="#EAAE55" fill-opacity="0.5"/>
  <path d="M7.84235 21.0779C2.27366 25.4266 1.12807 33.0872 6.7498 38.092C14.8005 45.2553 28.4942 42.0493 38.6558 38.5576C42.1561 28.4211 45.37 14.7611 38.189 6.73016C33.1719 1.12228 25.4924 2.26498 21.1329 7.81996C20.3162 7.23801 19.4782 6.68783 18.6084 6.19053C14.1111 3.66169 6.86645 0.29694 1.55233 1.54549C0.300697 6.84653 3.67375 14.0733 6.20883 18.5596C6.70736 19.4273 7.25896 20.2632 7.84235 21.0779ZM26.2243 11.3752C28.8018 7.6613 33.1825 8.74051 35.5797 11.9994C40.618 18.8453 39.6528 29.1723 37.9239 37.8169C29.2579 39.5416 18.916 40.5044 12.0427 35.4785C8.78633 33.0978 7.69384 28.7173 11.4169 26.1461C11.6397 25.998 11.82 25.8287 11.9897 25.6488C13.3155 26.8127 14.7475 27.8497 16.2749 28.7385C20.995 31.4789 26.7865 32.8544 32.2703 32.1773C32.9492 26.7069 31.5702 20.9297 28.823 16.2212C27.9426 14.6976 26.8926 13.2692 25.7258 11.9465C25.8955 11.7773 26.0652 11.5974 26.2243 11.3752ZM8.14993 7.3544C10.9608 7.96809 13.7504 8.82516 16.3385 10.0843C20.2101 11.9571 23.7423 14.4437 26.3834 17.8507C29.3428 21.6704 31.2202 26.5482 31.5278 31.4472C26.6167 31.1403 21.7269 29.2675 17.8978 26.3154C14.4717 23.6702 11.9896 20.1467 10.1122 16.2953C8.84997 13.7135 7.99085 10.9308 7.37564 8.12685C7.30139 7.80943 7.24831 7.49197 7.19527 7.17454C7.51348 7.22745 7.83172 7.28033 8.14993 7.3544Z" fill="#EAAE55" fill-opacity="0.5"/>
  <path d="M9.88957 65.4119C11.5973 63.4121 14.1324 62.7561 16.6886 62.9994C19.0328 63.2216 19.0858 59.2221 16.6886 59.3279C13.1989 59.4866 10.4093 61.8461 9.63501 65.2638C9.6138 65.4013 9.79411 65.5389 9.88957 65.4119Z" fill="#EAAE55" fill-opacity="0.5"/>
  <path d="M15.4053 54.2704C12.849 55.3496 11.3746 57.1166 10.1441 59.5397C10.1229 59.5926 10.1866 59.656 10.229 59.6031C12.1277 57.2542 16.7841 55.5083 19.7541 56.9791C20.5072 57.8044 21.8967 57.9525 22.6498 56.7146C22.6922 56.6511 22.724 56.5876 22.7665 56.5347C23.0953 56.0057 23.1483 55.1592 22.7665 54.6302C21.2178 52.514 17.4736 53.4027 15.4053 54.2704Z" fill="#EAAE55" fill-opacity="0.5"/>
  <path d="M3.07987 57.8465C3.7269 58.5872 4.16181 59.4231 4.42699 60.3648C4.50124 60.6399 4.9361 60.661 4.99974 60.3648C5.47706 58.1639 4.99974 54.9262 2.87834 53.667C1.3191 52.7465 -0.134005 54.8204 1.01155 56.0795C1.63737 56.7673 2.47527 57.1482 3.07987 57.8465Z" fill="#EAAE55" fill-opacity="0.5"/>
  <path d="M7.28011 53.4342C8.58478 50.0589 8.16049 46.7365 6.01787 43.8162C4.36318 41.5518 1.23413 44.377 3.13279 46.0382C5.23298 47.8793 6.81344 50.6409 7.18469 53.4237C7.19529 53.4766 7.2589 53.4977 7.28011 53.4342Z" fill="#EAAE55" fill-opacity="0.5"/>
  <path d="M10.5472 49.2434C10.5684 49.3598 10.7169 49.381 10.7911 49.3069C12.0427 48.0689 12.5837 45.7094 12.9762 44.0587C13.6338 41.223 8.97733 41.6145 9.81529 44.0587C10.1229 44.9793 10.3562 45.8787 10.4411 46.8521C10.5047 47.6457 10.3987 48.471 10.5472 49.2434Z" fill="#EAAE55" fill-opacity="0.5"/>
  <path d="M16.487 96.5843C16.5507 96.4997 16.4658 96.3622 16.3703 96.4257C14.3338 97.6845 12.3185 98.0336 9.99551 97.5046C7.2695 96.8805 7.2589 101.355 9.99551 100.752C12.52 100.192 14.896 98.6048 16.487 96.5843Z" fill="#EAAE55" fill-opacity="0.5"/>
  <path d="M13.4747 102.287C13.5171 102.245 13.4641 102.181 13.4111 102.213C11.8518 103.07 10.1865 103.673 8.42575 103.937C7.00441 104.149 5.54065 103.694 4.66027 105.038C4.41631 105.408 4.50113 106 4.81934 106.296C4.89359 106.37 4.96787 106.434 5.05272 106.508C5.41336 106.847 5.95433 107.048 6.45286 106.878C9.17887 105.947 11.5548 104.445 13.4747 102.287Z" fill="#EAAE55" fill-opacity="0.5"/>
  <path d="M4.37385 113.269C4.73449 112.434 5.24362 111.672 5.82701 110.973C6.41039 110.275 6.8771 109.513 7.54534 108.868C7.61959 108.794 7.54538 108.688 7.44991 108.698C6.42103 108.889 5.33908 109.175 4.50113 109.831C3.59953 110.54 2.84645 111.397 2.19942 112.349C1.266 113.724 3.67379 114.931 4.37385 113.269Z" fill="#EAAE55" fill-opacity="0.5"/>
  <path d="M21.589 105.186C22.1618 106.159 24.0393 106.117 24.2196 104.847C24.4529 103.207 23.6892 101.736 22.9679 100.276C22.2042 98.7206 21.3026 97.5462 20.0616 96.3505C19.8813 96.1706 19.5843 96.3505 19.6479 96.5939C19.9874 98.0434 20.3267 99.5036 20.6449 100.953C20.9632 102.36 20.8571 103.926 21.589 105.186Z" fill="#EAAE55" fill-opacity="0.5"/>
  <path d="M17.9296 103.927C17.972 105.609 17.8342 107.281 17.4311 108.921C17.0811 110.296 16.3386 111.471 17.1659 112.783C17.4841 113.28 18.269 113.598 18.7994 113.206C20.2844 112.137 19.9768 110.593 19.7222 108.921C19.457 107.164 18.9267 105.482 18.216 103.853C18.1524 103.704 17.9296 103.789 17.9296 103.927Z" fill="#EAAE55" fill-opacity="0.5"/>
  <path d="M14.4081 109.227C13.7505 110.878 13.2095 112.571 12.4776 114.19C11.8518 115.555 10.9502 116.687 10.876 118.21C10.8229 119.396 12.4776 120.094 13.2625 119.194C14.4081 117.893 14.4824 116.126 14.6627 114.454C14.843 112.698 14.8536 110.973 14.5035 109.227C14.4929 109.174 14.4187 109.185 14.4081 109.227Z" fill="#EAAE55" fill-opacity="0.5"/>
  <path d="M8.46811 119.269C6.87705 121.713 6.26187 124.57 7.83171 127.236C8.98788 129.215 11.8836 126.908 10.2713 125.353C8.68026 123.819 7.60897 121.523 8.5636 119.322C8.58481 119.258 8.49993 119.216 8.46811 119.269Z" fill="#EAAE55" fill-opacity="0.5"/>
  <path d="M16.8584 80.5115C16.8371 80.4269 16.8265 80.3423 16.8053 80.2576C16.5295 78.8401 14.196 78.8401 13.9308 80.2576C13.9096 80.3423 13.899 80.4269 13.8778 80.5115C13.6975 81.4847 14.3126 82.458 15.3627 82.458C16.4234 82.458 17.0493 81.4847 16.8584 80.5115Z" fill="#EAAE55" fill-opacity="0.5"/>
  <path d="M13.9415 140.483C13.5384 140.452 13.3687 140.991 13.6232 141.245C14.7582 142.388 16.0205 143.393 17.4418 144.155C19.0753 145.033 20.8467 145.118 22.6817 145.065C26.7017 144.949 25.8956 138.843 21.9498 139.648C20.6133 139.923 19.2874 139.933 17.9615 140.24C16.625 140.547 15.2886 140.589 13.9415 140.483Z" fill="#EAAE55" fill-opacity="0.5"/>
  <path d="M39.2392 81.7069C40.809 78.5749 41.8591 75.189 43.1213 71.9089C43.3016 71.454 42.6016 71.0519 42.294 71.4223C40.0241 74.1098 37.5527 76.6598 35.5479 79.5484C33.9675 81.8127 38.0088 84.1722 39.2392 81.7069Z" fill="#EAAE55" fill-opacity="0.5"/>
  <path d="M44.8715 73.21C43.2062 75.7812 41.4666 79.1882 41.6681 82.3413C41.8166 84.7009 44.9563 84.5739 45.2533 82.3413C45.4336 80.9658 45.2321 79.5374 45.3276 78.1407C45.4336 76.617 45.5822 75.1251 45.8792 73.6332C45.9958 73.0195 45.2215 72.681 44.8715 73.21Z" fill="#EAAE55" fill-opacity="0.5"/>
  <path d="M52.2222 82.5211C51.66 81.135 51.0236 79.7912 50.6206 78.3416C50.2387 76.9449 50.0902 75.5165 49.6659 74.1304C49.581 73.8659 49.1674 73.7707 49.0295 74.0458C47.6824 76.7651 47.8627 80.606 48.7749 83.4628C49.4856 85.6848 53.0708 84.6161 52.2222 82.5211Z" fill="#EAAE55" fill-opacity="0.5"/>
  <path d="M58.6818 81.3047C57.2498 79.1039 56.518 76.8078 55.5103 74.4165C55.2981 73.8981 54.5451 73.8028 54.3647 74.4165C53.5268 77.2522 54.4072 80.5006 55.6057 83.0929C56.5604 85.1562 59.9546 83.2516 58.6818 81.3047Z" fill="#EAAE55" fill-opacity="0.5"/>
  <path d="M65.831 79.1986C64.0172 77.1142 62.7443 74.596 60.8987 72.5539C60.729 72.3634 60.3683 72.4586 60.3153 72.7019C59.6683 75.7704 61.1745 78.987 62.8822 81.4524C64.4308 83.7167 67.5917 81.2302 65.831 79.1986Z" fill="#EAAE55" fill-opacity="0.5"/>
  <path d="M66.3932 70.6391C67.1675 73.6758 68.5888 76.3527 70.5299 78.7969C72.3437 81.0824 75.8759 77.2839 73.118 75.4428C70.986 74.0249 69.2465 72.1733 67.8782 70.0042C67.3902 69.2318 66.1704 69.7397 66.3932 70.6391Z" fill="#EAAE55" fill-opacity="0.5"/>
  <path d="M40.1513 63.8461C43.3652 62.9678 43.8425 58.6191 43.1955 55.8258C42.3575 52.2177 39.6103 50.0168 36.4918 48.3662C36.4282 48.3344 36.3858 48.4191 36.4388 48.4614C38.8572 50.1967 40.7983 53.0959 40.6392 56.1749C40.5226 58.5239 38.7406 59.8359 38.2526 61.9627C37.9875 63.0843 38.9739 64.1635 40.1513 63.8461Z" fill="#EAAE55" fill-opacity="0.5"/>
  <path d="M19.8284 47.0966C22.3741 47.6361 22.5544 43.6267 20.2739 43.8172C18.9798 43.9335 17.7706 44.3355 16.6674 45.0337C15.6598 45.679 15.1083 46.5041 14.4082 47.435C14.3764 47.4774 14.44 47.5303 14.4824 47.5091C16.0841 46.6311 18.1206 46.7369 19.8284 47.0966Z" fill="#EAAE55" fill-opacity="0.5"/>
  <path d="M19.807 33.9338C17.5902 33.1614 16.5295 31.7965 14.6414 30.7595C13.9626 30.3892 13.6338 30.2728 12.8171 30.3045C12.467 30.3151 12.1382 30.5373 12.0533 30.8865C12.0003 31.0875 11.9472 31.278 11.8942 31.479C11.7563 32.0081 11.873 32.7064 12.3185 33.0768C17.3674 37.3303 26.6168 37.7641 32.5355 35.2987C32.5991 35.2776 32.5779 35.1718 32.5037 35.1929C28.4624 36.4732 23.721 35.2987 19.807 33.9338Z" fill="#EAAE55" fill-opacity="0.5"/>
</svg>