<svg xmlns="http://www.w3.org/2000/svg" width="165" height="165" viewBox="0 0 165 165" fill="none">
  <path d="M81.8266 151.653C80.6916 152.565 79.3764 153.286 78.1778 154.125C77.1065 154.867 76.0669 155.705 74.932 156.342C73.7016 157.032 73.5107 158.793 74.4865 159.779C75.3881 160.681 77.361 160.66 77.9232 159.334C78.4748 158.018 79.2491 156.777 79.9173 155.525C80.5962 154.273 81.1477 152.915 81.9008 151.706C81.9432 151.663 81.869 151.621 81.8266 151.653Z" fill="#EAAE55" fill-opacity="0.5"/>
  <path d="M83.6297 152.279C83.6191 152.226 83.5343 152.226 83.5236 152.279C82.919 154.984 82.1235 157.849 81.2113 160.469C80.0446 163.833 86.483 164.161 85.4329 160.469C84.6798 157.849 84.0646 154.984 83.6297 152.279Z" fill="#EAAE55" fill-opacity="0.5"/>
  <path d="M91.8078 156.65C90.6729 155.907 89.6334 154.974 88.5727 154.135C87.5014 153.287 86.324 152.544 85.3163 151.632C85.2739 151.589 85.1996 151.642 85.2315 151.695C85.8785 152.894 86.324 154.199 86.9074 155.43C87.4801 156.65 88.1484 157.859 88.6045 159.122C89.1242 160.554 90.7577 161.244 92.0412 160.257C93.2822 159.292 93.0913 157.477 91.8078 156.65Z" fill="#EAAE55" fill-opacity="0.5"/>
  <path d="M94.746 149.669C91.9563 149.955 88.9651 150.072 86.1649 150.029C86.1012 150.029 86.1012 150.114 86.1543 150.135C88.6575 151.175 91.2775 152.427 93.6428 153.752C97.0689 155.662 98.1402 149.319 94.746 149.669Z" fill="#EAAE55" fill-opacity="0.5"/>
  <path d="M89.9833 147.303C91.3516 146.932 92.72 146.497 94.1201 146.242C97.578 145.627 94.6292 139.792 91.9881 142.582C91.0334 143.59 89.9197 144.481 88.8802 145.404C87.8407 146.327 86.8755 147.377 85.7829 148.247C85.7405 148.279 85.7829 148.353 85.836 148.332C87.1937 147.908 88.615 147.674 89.9833 147.303Z" fill="#EAAE55" fill-opacity="0.5"/>
  <path d="M85.486 139.006C85.3057 141.648 84.9026 144.534 84.3829 147.133C84.3723 147.186 84.4465 147.229 84.4783 147.176C85.8891 144.948 87.5331 142.592 89.2197 140.555C91.8396 137.373 85.7406 135.039 85.486 139.006Z" fill="#EAAE55" fill-opacity="0.5"/>
  <path d="M82.6645 147.144C82.2932 144.47 82.0705 141.542 82.0493 138.837C82.0175 134.933 75.929 137.15 77.9762 139.94C79.6203 142.189 81.2325 144.746 82.569 147.176C82.6008 147.25 82.6751 147.208 82.6645 147.144Z" fill="#EAAE55" fill-opacity="0.5"/>
  <path d="M73.2031 145.85C74.5608 146.179 75.8866 146.688 77.2125 147.134C78.5384 147.579 79.9279 147.887 81.222 148.396C81.275 148.417 81.3068 148.343 81.275 148.311C80.2249 147.367 79.3127 146.253 78.305 145.245C77.308 144.248 76.2367 143.282 75.3245 142.19C73.0439 139.474 69.5118 144.969 73.2031 145.85Z" fill="#EAAE55" fill-opacity="0.5"/>
  <path d="M80.9462 150.083C78.305 149.966 75.4729 149.712 72.8636 149.298C68.7905 148.641 69.8088 155.037 73.3834 153.297C75.7805 152.141 78.4535 151.07 80.9568 150.189C81.0098 150.168 80.9992 150.083 80.9462 150.083Z" fill="#EAAE55" fill-opacity="0.5"/>
  <path d="M50.7691 155.886C46.4096 158.379 38.0937 162.029 33.172 158.857C27.5609 155.239 32.5038 151.557 33.8296 147.611C34.1903 146.529 33.4054 145.255 32.3341 144.98C32.0053 144.895 31.6764 144.81 31.337 144.725C30.2763 144.46 29.0883 144.714 28.314 145.521C25.3653 148.587 24.7182 152.586 25.8107 156.013C19.245 149.531 12.1065 142.168 3.77994 149.361C0.247803 152.417 -1.40689 158.029 1.46762 162.071C4.1512 165.837 9.09405 165.827 12.3504 162.867C13.602 161.732 13.2732 159.971 12.3504 158.793C11.173 157.276 10.1972 158.496 8.86072 158.337C7.53484 159.673 6.41047 158.782 5.48766 155.674C5.86951 154.401 6.5802 153.414 7.6303 152.714C9.86838 150.825 12.5625 150.687 15.2992 151.547C20.0193 153.043 23.6045 156.522 27.6139 159.355C29.2368 161.382 31.6552 162.835 34.6994 163.143C40.2151 163.705 45.8156 161.7 50.4721 158.91C56.4757 155.324 61.5989 147.526 68.9602 147.112C69.0238 147.112 69.0344 147.027 68.9707 147.006C62.0019 144.958 56.2317 152.756 50.7691 155.886Z" fill="#EAAE55" fill-opacity="0.5"/>
  <path d="M105.501 148.311C105.607 145.913 101.598 145.966 101.821 148.311C102.065 150.868 101.407 153.404 99.4023 155.112C99.2857 155.218 99.413 155.388 99.5508 155.366C102.988 154.592 105.342 151.802 105.501 148.311Z" fill="#EAAE55" fill-opacity="0.5"/>
  <path d="M105.236 154.793C105.183 154.836 105.247 154.899 105.3 154.878C107.729 153.637 109.5 152.173 110.582 149.616C111.463 147.547 112.354 143.802 110.222 142.264C109.691 141.882 108.843 141.935 108.312 142.264C108.249 142.306 108.185 142.338 108.132 142.38C106.902 143.133 107.05 144.523 107.867 145.277C109.341 148.237 107.591 152.894 105.236 154.793Z" fill="#EAAE55" fill-opacity="0.5"/>
  <path d="M104.462 160.002C104.165 160.066 104.186 160.501 104.462 160.575C105.406 160.84 106.244 161.275 106.986 161.922C107.686 162.537 108.079 163.375 108.747 163.98C110.009 165.125 112.099 163.672 111.166 162.113C109.914 160.002 106.679 159.525 104.462 160.002Z" fill="#EAAE55" fill-opacity="0.5"/>
  <path d="M121.062 158.984C118.124 156.851 114.804 156.427 111.42 157.721C111.367 157.743 111.378 157.817 111.431 157.817C114.21 158.188 116.978 159.769 118.834 161.87C120.5 163.769 123.332 160.639 121.062 158.984Z" fill="#EAAE55" fill-opacity="0.5"/>
  <path d="M120.818 152.035C119.163 152.416 116.787 152.968 115.557 154.22C115.483 154.294 115.514 154.442 115.62 154.464C116.405 154.612 117.222 154.506 118.028 154.57C118.994 154.655 119.906 154.888 120.828 155.195C123.257 156.033 123.661 151.377 120.818 152.035Z" fill="#EAAE55" fill-opacity="0.5"/>
  <path d="M68.1648 148.523C66.1389 150.114 64.5372 152.491 63.9856 155.016C63.381 157.753 67.8678 157.743 67.242 155.016C66.7116 152.692 67.0617 150.677 68.3239 148.64C68.3876 148.544 68.2497 148.459 68.1648 148.523Z" fill="#EAAE55" fill-opacity="0.5"/>
  <path d="M62.4475 151.536C60.2837 153.457 58.7775 155.833 57.844 158.56C57.6743 159.048 57.8759 159.599 58.2153 159.96C58.2895 160.034 58.3532 160.109 58.4274 160.194C58.7244 160.522 59.3184 160.597 59.6897 160.353C61.0367 159.472 60.5807 158.008 60.7928 156.586C61.0474 154.825 61.6626 153.16 62.5217 151.6C62.5536 151.547 62.4899 151.505 62.4475 151.536Z" fill="#EAAE55" fill-opacity="0.5"/>
  <path d="M55.8392 157.467C55.1922 158.125 54.4285 158.592 53.7284 159.186C53.0284 159.769 52.2753 160.279 51.4267 160.639C49.772 161.34 50.9706 163.748 52.3495 162.825C53.3041 162.178 54.1633 161.425 54.874 160.523C55.5316 159.685 55.818 158.602 56.0089 157.573C56.0301 157.478 55.9135 157.393 55.8392 157.467Z" fill="#EAAE55" fill-opacity="0.5"/>
  <path d="M68.1541 145.361C68.398 145.414 68.5678 145.127 68.3981 144.947C67.1995 143.706 66.0221 142.804 64.4628 142.041C62.999 141.319 61.5353 140.545 59.8806 140.789C58.5972 140.969 58.5547 142.847 59.5412 143.42C60.8034 144.152 62.3733 144.045 63.784 144.364C65.2478 144.682 66.7009 145.011 68.1541 145.361Z" fill="#EAAE55" fill-opacity="0.5"/>
  <path d="M60.8034 147.08C60.9413 147.08 61.0155 146.868 60.8777 146.804C59.2442 146.083 57.5683 145.563 55.7969 145.298C54.121 145.043 52.5724 144.736 51.501 146.221C51.1192 146.751 51.4268 147.536 51.9253 147.854C53.2406 148.681 54.418 147.928 55.7969 147.589C57.4516 147.165 59.1169 147.037 60.8034 147.08Z" fill="#EAAE55" fill-opacity="0.5"/>
  <path d="M50.2599 150.359C48.584 150.539 46.8126 150.603 45.508 151.759C44.6064 152.554 45.317 154.209 46.4944 154.145C48.0218 154.071 49.1568 153.169 50.5251 152.544C52.148 151.812 53.8451 151.26 55.4998 150.613C55.5422 150.592 55.5529 150.528 55.4998 150.518C53.7497 150.157 52.0207 150.168 50.2599 150.359Z" fill="#EAAE55" fill-opacity="0.5"/>
  <path d="M37.4361 157.19C40.1091 158.76 42.973 158.134 45.4232 156.554C45.4868 156.512 45.4338 156.437 45.3701 156.458C43.1639 157.413 40.8516 156.342 39.3241 154.751C37.7649 153.138 35.4526 156.024 37.4361 157.19Z" fill="#EAAE55" fill-opacity="0.5"/>
  <path d="M84.2768 151.122C84.3617 151.111 84.4465 151.09 84.5314 151.069C85.9527 150.793 85.9527 148.459 84.5314 148.194C84.4465 148.173 84.3617 148.162 84.2768 148.141C83.3009 147.961 82.3251 148.576 82.3251 149.626C82.3251 150.687 83.3009 151.313 84.2768 151.122Z" fill="#EAAE55" fill-opacity="0.5"/>
  <path d="M20.4649 147.568C21.2392 148.99 22.2362 150.263 23.3818 151.388C23.647 151.642 24.1773 151.472 24.1455 151.069C24.0501 149.711 24.0819 148.385 24.3895 147.048C24.6971 145.722 24.7077 144.385 24.9834 143.059C25.7896 139.113 19.6799 138.306 19.5527 142.327C19.4996 144.163 19.5845 145.934 20.4649 147.568Z" fill="#EAAE55" fill-opacity="0.5"/>
  <path d="M115.96 148.131C116.809 145.733 117.434 142.879 117.487 140.099C119.683 131.326 122.388 121.003 113.202 115.677C111.356 114.605 109.447 114.107 107.57 114.032C108.026 113.109 108.853 112.165 109.5 111.369C109.776 111.03 110.084 110.722 110.391 110.415C110.699 110.107 111.006 109.799 111.346 109.523C112.131 108.866 113.085 108.038 114.008 107.593C114.083 109.47 114.592 111.38 115.652 113.226C120.977 122.414 131.287 119.708 140.07 117.512C142.849 117.459 145.702 116.823 148.099 115.985C154.75 113.64 159.502 108.399 158.844 101.121C158.834 101.057 158.738 101.047 158.738 101.121C158.993 108.611 152.65 113.311 145.893 114.669C143.199 115.21 139.55 115.624 136.866 114.701C133.674 113.597 131.977 111.422 131.786 108.176C131.637 104.569 133.387 103.168 137.057 104.007C136.135 104.877 137.089 106.754 138.362 106.256C142.668 104.537 140.886 99.0202 136.495 98.9459C130.258 98.8398 127.002 107.041 129.431 112.017C131.213 115.677 134.565 117.173 138.235 117.47C131.733 118.541 124.361 119.114 120.171 114.425C114.676 108.282 118.283 99.3279 125.931 97.588C128.243 97.0681 127.256 93.5034 124.955 94.0445C123.947 94.2779 122.982 94.628 122.07 95.0524C117.318 92.0924 111.791 91.2648 106.138 93.0578C103.571 93.8747 100.336 95.551 97.6947 97.7472C95.4884 100.378 93.8125 103.625 93.0063 106.192C91.2137 111.847 92.0411 117.374 95.0005 122.127C94.5762 123.04 94.2261 124.005 93.9928 125.013C93.4518 127.315 97.0158 128.302 97.5356 125.989C99.2751 118.34 108.227 114.733 114.369 120.228C119.057 124.419 118.484 131.792 117.413 138.296C117.116 134.625 115.61 131.272 111.961 129.49C106.986 127.061 98.7872 130.318 98.8933 136.556C98.9675 140.948 104.483 142.741 106.201 138.423C106.711 137.15 104.833 136.195 103.953 137.118C103.125 133.447 104.515 131.686 108.121 131.845C111.367 132.036 113.531 133.723 114.645 136.927C115.567 139.611 115.154 143.261 114.613 145.956C113.255 152.714 108.556 159.058 101.068 158.804C100.993 158.804 101.004 158.899 101.068 158.91C108.365 159.536 113.616 154.783 115.96 148.131ZM95.7217 120.78C93.961 115.698 94.0352 110.065 96.6021 105.152C97.5462 103.349 98.7341 101.63 100.102 100.102C101.63 98.7338 103.348 97.5456 105.151 96.6013C110.062 94.0339 115.684 93.9596 120.776 95.7207C120.022 96.1769 119.333 96.6968 118.675 97.2697C115.472 96.4528 112.587 96.0072 109.203 97.2167C106.456 98.1927 103.974 99.8584 101.704 101.715C99.8479 103.996 98.1826 106.479 97.2067 109.216C95.9975 112.6 96.4536 115.486 97.2598 118.69C96.6976 119.337 96.1778 120.027 95.7217 120.78ZM97.631 118.255C97.4401 115.539 97.5143 112.685 98.3841 110.171C99.3387 107.423 101.11 105.152 102.935 102.924C105.151 101.11 107.432 99.3279 110.179 98.3731C112.693 97.5031 115.546 97.4288 118.262 97.6198C117.445 98.3943 116.734 99.243 116.13 100.177C112.322 99.5295 107.729 101.959 104.43 104.41C101.98 107.72 99.5509 112.314 100.198 116.112C99.2645 116.727 98.4053 117.449 97.631 118.255ZM100.612 115.868C100.834 113.597 102.287 110.881 103.136 109.311C103.847 107.996 104.695 106.776 105.629 105.63C106.774 104.686 107.983 103.837 109.309 103.137C110.879 102.298 113.595 100.845 115.864 100.612C115.271 101.609 114.793 102.659 114.475 103.763C111.908 104.41 109.108 105.301 107.039 107.041C105.3 109.11 104.409 111.911 103.762 114.478C102.669 114.796 101.609 115.274 100.612 115.868ZM103.932 114.436C104.409 112.897 105.247 111.433 106.212 110.181C106.795 109.417 107.474 108.791 108.164 108.176C108.779 107.486 109.405 106.807 110.168 106.224C111.431 105.259 112.884 104.41 114.422 103.943C114.114 105.078 113.966 106.256 113.998 107.455C112.873 107.783 111.844 107.943 110.784 108.516C110.285 108.781 109.818 109.078 109.362 109.396C109.044 109.852 108.747 110.319 108.482 110.818C107.909 111.879 107.75 112.897 107.421 114.032C106.244 113.979 105.067 114.128 103.932 114.436Z" fill="#EAAE55" fill-opacity="0.5"/>
  <path d="M92.9003 121.883C89.6227 123.146 86.2285 124.207 83.0782 125.766C80.6068 126.997 82.9722 131.028 85.2315 129.458C88.1166 127.453 90.6835 124.981 93.3776 122.711C93.7489 122.403 93.3564 121.703 92.9003 121.883Z" fill="#EAAE55" fill-opacity="0.5"/>
  <path d="M91.1713 119.125C89.6757 119.433 88.1695 119.581 86.6527 119.677C85.2632 119.772 83.8206 119.571 82.4417 119.751C80.2036 120.037 80.0763 123.177 82.4417 123.336C85.6026 123.538 89.0181 121.798 91.5956 120.133C92.1259 119.783 91.7865 119.008 91.1713 119.125Z" fill="#EAAE55" fill-opacity="0.5"/>
  <path d="M81.3174 116.228C84.1813 117.14 88.0316 117.32 90.7576 115.973C91.0334 115.835 90.9485 115.422 90.6728 115.337C89.2832 114.912 87.8619 114.764 86.4512 114.382C84.998 113.99 83.6615 113.343 82.2614 112.78C80.1612 111.932 79.0899 115.517 81.3174 116.228Z" fill="#EAAE55" fill-opacity="0.5"/>
  <path d="M90.3863 109.481C87.9892 108.473 85.6875 107.752 83.4812 106.309C81.5295 105.036 79.6202 108.431 81.6886 109.386C84.2979 110.584 87.5543 111.465 90.3863 110.627C91.0016 110.457 90.8955 109.704 90.3863 109.481Z" fill="#EAAE55" fill-opacity="0.5"/>
  <path d="M92.2426 104.102C90.2061 102.256 87.671 100.993 85.5814 99.1686C83.5555 97.3969 81.0628 100.558 83.3115 102.118C85.7936 103.826 89.0181 105.333 92.0835 104.685C92.3487 104.632 92.4336 104.272 92.2426 104.102Z" fill="#EAAE55" fill-opacity="0.5"/>
  <path d="M94.799 97.1214C92.6245 95.7528 90.7789 94.0128 89.347 91.8804C87.512 89.122 83.704 92.6549 85.9845 94.4691C88.4348 96.4106 91.1183 97.8322 94.1625 98.6067C95.0747 98.8295 95.5839 97.6094 94.799 97.1214Z" fill="#EAAE55" fill-opacity="0.5"/>
  <path d="M102.881 126.753C105.003 126.265 106.329 124.483 108.684 124.366C111.77 124.217 114.677 126.148 116.416 128.567C116.458 128.62 116.543 128.578 116.512 128.514C114.857 125.395 112.651 122.647 109.034 121.809C106.233 121.162 101.874 121.639 100.993 124.854C100.665 126.032 101.747 127.018 102.881 126.753Z" fill="#EAAE55" fill-opacity="0.5"/>
  <path d="M117.434 150.603C118.368 149.902 119.195 149.351 119.842 148.343C120.542 147.25 120.945 146.03 121.062 144.736C121.264 142.455 117.233 142.635 117.774 145.181C118.135 146.889 118.251 148.937 117.36 150.528C117.339 150.571 117.392 150.634 117.434 150.603Z" fill="#EAAE55" fill-opacity="0.5"/>
  <path d="M130.969 145.203C129.601 141.288 128.423 136.545 129.696 132.503C129.717 132.44 129.622 132.418 129.59 132.471C127.129 138.381 127.564 147.643 131.817 152.693C132.189 153.138 132.889 153.255 133.419 153.117C133.621 153.064 133.812 153.011 134.013 152.958C134.363 152.863 134.586 152.534 134.596 152.194C134.628 151.377 134.522 151.048 134.14 150.369C133.101 148.481 131.743 147.42 130.969 145.203Z" fill="#EAAE55" fill-opacity="0.5"/>
  <path d="M151.706 81.9075C152.915 81.1436 154.262 80.6025 155.524 79.9235C156.776 79.2445 158.017 78.4807 159.332 77.929C160.658 77.3667 160.679 75.3934 159.778 74.4916C158.791 73.5049 157.041 73.7065 156.341 74.9372C155.704 76.0724 154.877 77.1121 154.124 78.1836C153.286 79.3825 152.565 80.6981 151.653 81.8332C151.61 81.8651 151.653 81.9393 151.706 81.9075Z" fill="#EAAE55" fill-opacity="0.5"/>
  <path d="M160.456 81.2072C157.837 82.1194 154.973 82.9149 152.268 83.5195C152.215 83.5302 152.215 83.615 152.268 83.6257C154.962 84.0605 157.826 84.6757 160.456 85.4288C164.148 86.4789 163.819 80.0298 160.456 81.2072Z" fill="#EAAE55" fill-opacity="0.5"/>
  <path d="M160.244 92.0288C161.231 90.7557 160.541 89.1113 159.109 88.5914C157.847 88.1352 156.627 87.4668 155.418 86.8939C154.188 86.321 152.883 85.8648 151.685 85.2177C151.631 85.1858 151.578 85.2601 151.621 85.3025C152.533 86.321 153.276 87.4986 154.124 88.5596C154.973 89.6205 155.895 90.6602 156.638 91.7954C157.465 93.0897 159.279 93.2807 160.244 92.0288Z" fill="#EAAE55" fill-opacity="0.5"/>
  <path d="M153.732 93.6415C152.406 91.2756 151.154 88.6551 150.115 86.1513C150.093 86.0983 150.009 86.0983 150.009 86.162C150.051 88.9628 149.934 91.9547 149.648 94.7449C149.309 98.1399 155.652 97.0683 153.732 93.6415Z" fill="#EAAE55" fill-opacity="0.5"/>
  <path d="M146.243 94.1293C146.498 92.7289 146.932 91.3603 147.304 89.9917C147.675 88.6231 147.908 87.2014 148.343 85.854C148.354 85.801 148.29 85.7586 148.258 85.801C147.389 86.8938 146.349 87.8486 145.416 88.8989C144.493 89.9386 143.602 91.0526 142.594 92.0074C139.794 94.6385 145.628 97.5879 146.243 94.1293Z" fill="#EAAE55" fill-opacity="0.5"/>
  <path d="M140.537 89.2173C142.573 87.541 144.928 85.886 147.155 84.475C147.208 84.4431 147.177 84.3688 147.113 84.3794C144.514 84.8887 141.629 85.3025 138.988 85.4829C135.031 85.7375 137.365 91.8378 140.537 89.2173Z" fill="#EAAE55" fill-opacity="0.5"/>
  <path d="M138.839 82.0454C141.534 82.0667 144.472 82.2895 147.145 82.6608C147.198 82.6714 147.24 82.5972 147.187 82.5654C144.758 81.2286 142.191 79.6053 139.953 77.9715C137.153 75.9345 134.925 82.0242 138.839 82.0454Z" fill="#EAAE55" fill-opacity="0.5"/>
  <path d="M145.84 73.1972C144.96 69.4946 139.465 73.0275 142.181 75.3297C143.262 76.2421 144.228 77.303 145.235 78.3109C146.243 79.3082 147.346 80.2206 148.301 81.2815C148.333 81.3239 148.407 81.2815 148.386 81.2285C147.877 79.9235 147.558 78.5443 147.123 77.2181C146.678 75.8813 146.169 74.5552 145.84 73.1972Z" fill="#EAAE55" fill-opacity="0.5"/>
  <path d="M149.277 72.8473C149.701 75.4572 149.945 78.3004 150.062 80.9316C150.062 80.9952 150.146 81.0058 150.168 80.9422C151.037 78.4278 152.109 75.7542 153.276 73.3671C155.015 69.7918 148.619 68.7839 149.277 72.8473Z" fill="#EAAE55" fill-opacity="0.5"/>
  <path d="M162.069 1.46793C158.017 -1.40719 152.406 0.247856 149.361 3.78075C142.17 12.0984 149.531 19.249 156.012 25.8162C152.586 24.7234 148.587 25.3707 145.522 28.32C144.716 29.0945 144.45 30.2721 144.726 31.3437C144.811 31.6725 144.896 32.0014 144.981 32.3409C145.246 33.4125 146.529 34.1975 147.611 33.8368C151.568 32.5107 155.238 27.5667 158.855 33.179C162.026 38.0911 158.377 46.4195 155.885 50.7799C152.766 56.2437 144.97 62.0151 147.028 69.0066C147.049 69.0703 147.123 69.049 147.134 68.996C147.558 61.6332 155.344 56.5195 158.929 50.504C161.719 45.8359 163.723 40.2342 163.161 34.728C162.854 31.6832 161.39 29.2749 159.374 27.641C156.542 23.6307 153.053 20.0448 151.568 15.3237C150.698 12.5865 150.836 9.89166 152.734 7.6531C153.435 6.60278 154.421 5.892 155.694 5.51007C158.802 6.43308 159.693 7.55765 158.356 8.88381C158.515 10.2206 157.295 11.1966 158.812 12.3742C159.99 13.2973 161.75 13.6261 162.885 12.3742C165.824 9.09597 165.834 4.15208 162.069 1.46793Z" fill="#EAAE55" fill-opacity="0.5"/>
  <path d="M157.158 143.866C162.726 139.505 163.872 131.824 158.25 126.806C150.199 119.623 136.506 122.838 126.344 126.339C122.844 136.503 119.63 150.199 126.811 158.252C131.828 163.875 139.508 162.729 143.867 157.159C144.684 157.743 145.522 158.294 146.392 158.793C150.889 161.329 158.134 164.702 163.448 163.45C164.699 158.135 161.326 150.889 158.791 146.391C158.293 145.521 157.741 144.683 157.158 143.866ZM138.776 153.594C136.198 157.318 131.817 156.236 129.42 152.969C124.382 146.104 125.347 135.75 127.076 127.082C135.742 125.353 146.084 124.387 152.957 129.426C156.214 131.814 157.306 136.206 153.583 138.784C153.36 138.932 153.18 139.102 153.01 139.282C151.684 138.115 150.252 137.076 148.725 136.185C144.005 133.437 138.213 132.058 132.73 132.737C132.051 138.222 133.43 144.014 136.177 148.735C137.057 150.263 138.107 151.695 139.274 153.022C139.104 153.191 138.935 153.372 138.776 153.594ZM156.85 157.626C154.039 157.011 151.25 156.151 148.661 154.889C144.79 153.011 141.258 150.518 138.617 147.102C135.657 143.272 133.78 138.381 133.472 133.469C138.383 133.776 143.273 135.654 147.102 138.614C150.528 141.266 153.01 144.799 154.888 148.661C156.15 151.25 157.009 154.04 157.624 156.851C157.699 157.17 157.752 157.488 157.805 157.806C157.486 157.753 157.168 157.7 156.85 157.626Z" fill="#EAAE55" fill-opacity="0.5"/>
  <path d="M155.11 99.4127C153.403 101.418 150.868 102.076 148.311 101.832C145.967 101.609 145.914 105.619 148.311 105.513C151.801 105.354 154.591 102.988 155.365 99.5612C155.386 99.4233 155.206 99.2854 155.11 99.4127Z" fill="#EAAE55" fill-opacity="0.5"/>
  <path d="M149.595 110.584C152.151 109.502 153.625 107.73 154.856 105.301C154.877 105.248 154.813 105.184 154.771 105.237C152.872 107.593 148.216 109.343 145.246 107.868C144.493 107.041 143.103 106.892 142.35 108.134C142.308 108.197 142.276 108.261 142.234 108.314C141.905 108.844 141.852 109.693 142.234 110.224C143.782 112.345 147.526 111.454 149.595 110.584Z" fill="#EAAE55" fill-opacity="0.5"/>
  <path d="M161.92 106.998C161.273 106.256 160.838 105.417 160.573 104.473C160.499 104.197 160.064 104.176 160 104.473C159.523 106.68 160 109.926 162.122 111.189C163.681 112.112 165.134 110.032 163.988 108.77C163.363 108.08 162.525 107.698 161.92 106.998Z" fill="#EAAE55" fill-opacity="0.5"/>
  <path d="M157.72 111.423C156.415 114.807 156.84 118.138 158.982 121.066C160.637 123.337 163.766 120.504 161.867 118.838C159.767 116.992 158.187 114.223 157.815 111.433C157.805 111.38 157.741 111.359 157.72 111.423Z" fill="#EAAE55" fill-opacity="0.5"/>
  <path d="M154.453 115.624C154.432 115.507 154.283 115.486 154.209 115.56C152.957 116.802 152.416 119.168 152.024 120.823C151.366 123.666 156.023 123.273 155.185 120.823C154.877 119.9 154.644 118.998 154.559 118.022C154.495 117.226 154.601 116.399 154.453 115.624Z" fill="#EAAE55" fill-opacity="0.5"/>
  <path d="M148.513 68.1568C148.449 68.2416 148.534 68.3795 148.63 68.3158C150.666 67.0536 152.682 66.7036 155.005 67.234C157.731 67.8598 157.741 63.373 155.005 63.9776C152.48 64.5398 150.104 66.1308 148.513 68.1568Z" fill="#EAAE55" fill-opacity="0.5"/>
  <path d="M151.525 62.4382C151.483 62.4807 151.536 62.5443 151.589 62.5125C153.148 61.6533 154.813 61.0487 156.574 60.7835C157.996 60.5714 159.459 61.0275 160.34 59.6804C160.584 59.3092 160.499 58.7152 160.181 58.4182C160.106 58.3439 160.032 58.2803 159.947 58.206C159.587 57.8666 159.046 57.665 158.547 57.8348C155.821 58.7682 153.445 60.2744 151.525 62.4382Z" fill="#EAAE55" fill-opacity="0.5"/>
  <path d="M160.626 51.4271C160.266 52.2652 159.756 53.0291 159.173 53.7293C158.59 54.4295 158.123 55.1934 157.455 55.8406C157.38 55.9148 157.455 56.0209 157.55 56.0103C158.579 55.8193 159.661 55.5329 160.499 54.8751C161.4 54.1643 162.154 53.3049 162.801 52.3501C163.734 50.9709 161.326 49.7614 160.626 51.4271Z" fill="#EAAE55" fill-opacity="0.5"/>
  <path d="M143.411 59.5323C142.838 58.5563 140.961 58.5987 140.78 59.8718C140.547 61.5163 141.311 62.991 142.032 64.455C142.796 66.0146 143.697 67.1922 144.938 68.3911C145.119 68.5714 145.416 68.3911 145.352 68.1471C145.013 66.6936 144.673 65.2295 144.355 63.776C144.037 62.365 144.143 60.7948 143.411 59.5323Z" fill="#EAAE55" fill-opacity="0.5"/>
  <path d="M147.07 60.7948C147.028 59.1079 147.166 57.4316 147.569 55.7871C147.919 54.4079 148.661 53.2303 147.834 51.9148C147.516 51.4162 146.731 51.0979 146.201 51.4904C144.716 52.5619 145.023 54.1109 145.278 55.7871C145.543 57.5483 146.073 59.2352 146.784 60.869C146.848 61.0176 147.07 60.9327 147.07 60.7948Z" fill="#EAAE55" fill-opacity="0.5"/>
  <path d="M150.592 55.4798C151.249 53.8247 151.79 52.1272 152.522 50.504C153.148 49.1354 154.05 48.0002 154.124 46.4725C154.177 45.2842 152.522 44.584 151.737 45.4858C150.592 46.7908 150.518 48.5625 150.337 50.2388C150.157 51.9999 150.146 53.7292 150.496 55.4798C150.507 55.5328 150.581 55.5222 150.592 55.4798Z" fill="#EAAE55" fill-opacity="0.5"/>
  <path d="M156.532 45.4115C158.123 42.9608 158.738 40.0962 157.168 37.4227C156.012 35.4388 153.116 37.7516 154.729 39.3112C156.32 40.8495 157.391 43.1518 156.436 45.3585C156.415 45.4221 156.5 45.4646 156.532 45.4115Z" fill="#EAAE55" fill-opacity="0.5"/>
  <path d="M148.142 84.2725C148.163 84.3574 148.174 84.4422 148.195 84.5271C148.471 85.9484 150.804 85.9484 151.069 84.5271C151.09 84.4422 151.101 84.3574 151.122 84.2725C151.303 83.2967 150.687 82.3208 149.637 82.3208C148.577 82.3208 147.951 83.2967 148.142 84.2725Z" fill="#EAAE55" fill-opacity="0.5"/>
  <path d="M151.059 24.1399C151.462 24.1717 151.631 23.6306 151.377 23.376C150.242 22.2302 148.98 21.2223 147.558 20.4584C145.925 19.5779 144.153 19.493 142.318 19.5461C138.298 19.6628 139.104 25.7843 143.05 24.978C144.387 24.7022 145.713 24.6916 147.038 24.3839C148.375 24.0762 149.711 24.0338 151.059 24.1399Z" fill="#EAAE55" fill-opacity="0.5"/>
  <path d="M125.761 83.0743C124.191 86.2146 123.141 89.6096 121.879 92.8985C121.698 93.3547 122.398 93.7578 122.706 93.3865C124.976 90.6917 127.447 88.1349 129.452 85.2385C131.033 82.9681 126.991 80.6023 125.761 83.0743Z" fill="#EAAE55" fill-opacity="0.5"/>
  <path d="M120.129 91.5937C121.794 89.0157 123.533 85.5995 123.332 82.4379C123.183 80.0721 120.044 80.1994 119.747 82.4379C119.566 83.8171 119.768 85.2494 119.672 86.6498C119.566 88.1776 119.418 89.6735 119.121 91.1694C119.004 91.7848 119.779 92.1242 120.129 91.5937Z" fill="#EAAE55" fill-opacity="0.5"/>
  <path d="M112.778 82.2577C113.34 83.6475 113.976 84.9949 114.379 86.4484C114.761 87.8488 114.91 89.281 115.334 90.6709C115.419 90.9361 115.833 91.0316 115.97 90.7557C117.318 88.0292 117.137 84.178 116.225 81.3135C115.514 79.0855 111.929 80.1571 112.778 82.2577Z" fill="#EAAE55" fill-opacity="0.5"/>
  <path d="M106.318 83.4774C107.75 85.6841 108.482 87.9863 109.49 90.384C109.702 90.9039 110.455 90.9994 110.635 90.384C111.473 87.5407 110.593 84.2837 109.394 81.6844C108.44 79.6156 105.045 81.5253 106.318 83.4774Z" fill="#EAAE55" fill-opacity="0.5"/>
  <path d="M99.169 85.5889C100.983 87.6789 102.256 90.2039 104.101 92.2515C104.271 92.4424 104.632 92.347 104.685 92.103C105.332 89.0263 103.825 85.801 102.118 83.3291C100.569 81.0587 97.4082 83.5519 99.169 85.5889Z" fill="#EAAE55" fill-opacity="0.5"/>
  <path d="M98.6069 94.1716C97.8325 91.1267 96.4112 88.4426 94.4701 85.9918C92.6563 83.7002 89.1242 87.509 91.882 89.355C94.014 90.7766 95.7536 92.6333 97.1219 94.8082C97.6098 95.5826 98.8296 95.0734 98.6069 94.1716Z" fill="#EAAE55" fill-opacity="0.5"/>
  <path d="M124.849 100.983C121.635 101.864 121.158 106.224 121.805 109.025C122.643 112.643 125.39 114.85 128.508 116.505C128.572 116.536 128.614 116.452 128.561 116.409C126.143 114.669 124.202 111.762 124.361 108.675C124.478 106.32 126.259 105.004 126.747 102.872C127.013 101.747 126.026 100.665 124.849 100.983Z" fill="#EAAE55" fill-opacity="0.5"/>
  <path d="M145.172 117.777C142.626 117.236 142.446 121.256 144.726 121.066C146.02 120.949 147.229 120.546 148.333 119.846C149.34 119.199 149.892 118.371 150.592 117.438C150.624 117.396 150.56 117.343 150.518 117.364C148.916 118.244 146.879 118.138 145.172 117.777Z" fill="#EAAE55" fill-opacity="0.5"/>
  <path d="M145.193 130.975C147.41 131.75 148.47 133.118 150.359 134.158C151.037 134.529 151.366 134.646 152.183 134.614C152.533 134.604 152.862 134.381 152.947 134.031C153 133.829 153.053 133.638 153.106 133.437C153.244 132.906 153.127 132.206 152.681 131.835C147.633 127.57 138.383 127.135 132.464 129.607C132.401 129.628 132.422 129.734 132.496 129.713C136.538 128.429 141.279 129.607 145.193 130.975Z" fill="#EAAE55" fill-opacity="0.5"/>
</svg>