<svg xmlns="http://www.w3.org/2000/svg" width="40" height="40" viewBox="0 0 40 40" fill="none">
  <path fill-rule="evenodd" clip-rule="evenodd" d="M18.078 36.557C9.77853 35.604 3.33331 28.5546 3.33331 19.9999C3.33331 10.7952 10.7952 3.33325 20 3.33325C29.2047 3.33325 36.6666 10.7952 36.6666 19.9999C36.6666 28.5942 31.1955 27.8874 26.5225 27.2837C23.8273 26.9356 21.3977 26.6217 20.4364 28.1465C19.7791 29.1893 20.4897 30.4896 21.3613 31.3613C22.4504 32.4504 22.4504 34.2161 21.3613 35.3052C20.4897 36.1769 19.3026 36.6976 18.078 36.557ZM18.475 11.6662C18.475 13.0469 17.3557 14.1662 15.975 14.1662C14.5943 14.1662 13.475 13.0469 13.475 11.6662C13.475 10.2855 14.5943 9.16618 15.975 9.16618C17.3557 9.16618 18.475 10.2855 18.475 11.6662ZM10.8333 21.6666C12.214 21.6666 13.3333 20.5473 13.3333 19.1666C13.3333 17.7858 12.214 16.6666 10.8333 16.6666C9.4526 16.6666 8.33331 17.7858 8.33331 19.1666C8.33331 20.5473 9.4526 21.6666 10.8333 21.6666ZM29.1666 21.6666C30.5474 21.6666 31.6666 20.5473 31.6666 19.1666C31.6666 17.7858 30.5474 16.6666 29.1666 16.6666C27.7859 16.6666 26.6666 17.7858 26.6666 19.1666C26.6666 20.5473 27.7859 21.6666 29.1666 21.6666ZM24.1666 14.1666C25.5474 14.1666 26.6666 13.0473 26.6666 11.6666C26.6666 10.2858 25.5474 9.16656 24.1666 9.16656C22.7859 9.16656 21.6666 10.2858 21.6666 11.6666C21.6666 13.0473 22.7859 14.1666 24.1666 14.1666Z" stroke="#FC6A6A" stroke-width="2"/>
</svg>