<svg xmlns="http://www.w3.org/2000/svg" width="40" height="40" viewBox="0 0 40 40" fill="none">
  <path d="M18.1713 26.2868C19.3322 26.7932 20.6678 26.7932 21.8287 26.2868M35 18.6037V28.0482C35 30.1997 35 31.2755 34.4338 31.9665C34.2415 32.2012 34.0081 32.399 33.745 32.5501C32.9702 32.995 31.9091 32.8181 29.7869 32.4644C27.6928 32.1154 26.6458 31.9409 25.6081 32.0277C25.2439 32.0582 24.8821 32.1126 24.525 32.1906C23.5076 32.4128 22.5499 32.8916 20.6344 33.8494C18.1348 35.0992 16.8851 35.7241 15.5547 35.9167C15.154 35.9747 14.7497 36.0034 14.3448 36.0027C13.0006 36.0001 11.6864 35.5621 9.05813 34.686L8.41886 34.4729C6.76881 33.9229 5.94379 33.6479 5.47189 32.9931C5 32.3384 5 31.4688 5 29.7295V21.5133C5 18.7484 5 17.366 5.81402 16.6226C5.95646 16.4925 6.11348 16.3793 6.28194 16.2853C6.70416 16.0497 7.19346 16.0015 7.83103 16.0955C8.23633 18.1292 9.00143 20.1403 10.0575 21.9552C11.6786 24.7412 14.0861 27.2321 17.1717 28.5782C18.97 29.3627 21.03 29.3627 22.8283 28.5782C25.9139 27.2321 28.3214 24.7412 29.9425 21.9552C31.3348 19.5625 32.2214 16.8286 32.4445 14.1516C33.5353 14.5301 34.1469 14.8112 34.5281 15.34C35 15.9948 35 16.8644 35 18.6037Z" stroke="#FC6A6A" stroke-width="2"/>
  <path d="M21.8287 26.2868L21.4288 25.3702L21.8287 26.2868ZM18.1713 26.2868L18.5712 25.3702L18.1713 26.2868ZM21.4288 25.3702C20.5229 25.7654 19.4771 25.7654 18.5712 25.3702L17.7715 27.2034C19.1873 27.821 20.8127 27.821 22.2285 27.2034L21.4288 25.3702ZM9 12.8338C9 15.6291 9.85299 18.6213 11.354 21.2008C12.8547 23.7798 15.0433 26.0132 17.7715 27.2034L18.5712 25.3702C16.3197 24.388 14.4227 22.4978 13.0826 20.1949C11.7428 17.8924 11 15.2443 11 12.8338H9ZM29 12.8338C29 15.2443 28.2572 17.8924 26.9174 20.1949C25.5773 22.4978 23.6803 24.388 21.4288 25.3702L22.2285 27.2034C24.9567 26.0132 27.1453 23.7798 28.646 21.2008C30.147 18.6213 31 15.6291 31 12.8338H29ZM20 4.33325C25.0195 4.33325 29 8.18672 29 12.8338H31C31 6.98683 26.0262 2.33325 20 2.33325V4.33325ZM20 2.33325C13.9738 2.33325 9 6.98683 9 12.8338H11C11 8.18672 14.9805 4.33325 20 4.33325V2.33325ZM22.3333 13.3333C22.3333 14.6219 21.2887 15.6666 20 15.6666V17.6666C22.3932 17.6666 24.3333 15.7265 24.3333 13.3333H22.3333ZM20 15.6666C18.7113 15.6666 17.6667 14.6219 17.6667 13.3333H15.6667C15.6667 15.7265 17.6068 17.6666 20 17.6666V15.6666ZM17.6667 13.3333C17.6667 12.0446 18.7113 10.9999 20 10.9999V8.99992C17.6068 8.99992 15.6667 10.94 15.6667 13.3333H17.6667ZM20 10.9999C21.2887 10.9999 22.3333 12.0446 22.3333 13.3333H24.3333C24.3333 10.94 22.3932 8.99992 20 8.99992V10.9999Z" fill="#FC6A6A"/>
</svg>