<svg xmlns="http://www.w3.org/2000/svg" width="40" height="40" viewBox="0 0 40 40" fill="none">
  <path d="M5.77069 31.8202L6.40508 31.0471H6.40508L5.77069 31.8202ZM4.84658 30.896L5.61959 30.2616H5.61959L4.84658 30.896ZM25.8959 31.8202L25.2615 31.0471L25.2615 31.0471L25.8959 31.8202ZM26.8201 30.896L26.047 30.2616L26.047 30.2616L26.8201 30.896ZM25.8959 8.18001L25.2615 8.95302L25.2615 8.95302L25.8959 8.18001ZM26.8201 9.10413L26.047 9.73852L26.047 9.73852L26.8201 9.10413ZM5.77069 8.18001L6.40508 8.95302L5.77069 8.18001ZM4.84658 9.10413L5.61959 9.73852L4.84658 9.10413ZM28.3155 15.8335L27.3157 15.8515L27.3441 17.426L28.7571 16.7307L28.3155 15.8335ZM29.4306 15.2848L29.8721 16.1821L29.8778 16.1792L29.4306 15.2848ZM29.4306 24.7154L29.8778 23.8209L29.8721 23.8181L29.4306 24.7154ZM28.3155 24.1667L28.757 23.2695L27.3441 22.5743L27.3157 24.1487L28.3155 24.1667ZM4.33331 20.8334V19.1667H2.33331V20.8334H4.33331ZM15.8333 32.3334C13.0693 32.3334 11.0841 32.3318 9.55618 32.1512C8.05032 31.9732 7.11935 31.6333 6.40508 31.0471L5.1363 32.5932C6.26595 33.5202 7.62673 33.937 9.32141 34.1373C10.994 34.3351 13.1182 34.3334 15.8333 34.3334V32.3334ZM2.33331 20.8334C2.33331 23.5485 2.33168 25.6727 2.52938 27.3453C2.7297 29.04 3.14648 30.4008 4.07357 31.5304L5.61959 30.2616C5.03341 29.5474 4.69356 28.6164 4.51556 27.1105C4.33495 25.5826 4.33331 23.5975 4.33331 20.8334H2.33331ZM6.40508 31.0471C6.11816 30.8117 5.85506 30.5486 5.61959 30.2616L4.07357 31.5304C4.39215 31.9186 4.7481 32.2746 5.1363 32.5932L6.40508 31.0471ZM15.8333 34.3334C18.5484 34.3334 20.6726 34.3351 22.3452 34.1373C24.0399 33.937 25.4007 33.5202 26.5303 32.5932L25.2615 31.0471C24.5473 31.6333 23.6163 31.9732 22.1104 32.1512C20.5825 32.3318 18.5974 32.3334 15.8333 32.3334V34.3334ZM26.047 30.2616C25.8116 30.5486 25.5485 30.8117 25.2615 31.0471L26.5303 32.5932C26.9185 32.2746 27.2745 31.9186 27.5931 31.5304L26.047 30.2616ZM15.8333 7.66675C18.5974 7.66675 20.5825 7.66838 22.1104 7.84899C23.6163 8.02699 24.5473 8.36684 25.2615 8.95302L26.5303 7.407C25.4007 6.47992 24.0399 6.06314 22.3452 5.86282C20.6726 5.66511 18.5484 5.66675 15.8333 5.66675V7.66675ZM25.2615 8.95302C25.5485 9.1885 25.8116 9.45159 26.047 9.73852L27.5931 8.46973C27.2745 8.08154 26.9185 7.72558 26.5303 7.407L25.2615 8.95302ZM15.8333 5.66675C13.1182 5.66675 10.994 5.66511 9.32141 5.86282C7.62673 6.06314 6.26595 6.47992 5.1363 7.407L6.40508 8.95302C7.11935 8.36684 8.05032 8.02699 9.55618 7.84899C11.0841 7.66838 13.0693 7.66675 15.8333 7.66675V5.66675ZM4.33331 19.1667C4.33331 16.4027 4.33495 14.4176 4.51556 12.8896C4.69356 11.3838 5.03341 10.4528 5.61959 9.73852L4.07357 8.46973C3.14648 9.59939 2.7297 10.9602 2.52938 12.6548C2.33168 14.3275 2.33331 16.4517 2.33331 19.1667H4.33331ZM5.1363 7.407C4.7481 7.72558 4.39215 8.08154 4.07357 8.46973L5.61959 9.73852C5.85506 9.45159 6.11816 9.1885 6.40508 8.95302L5.1363 7.407ZM28.7571 16.7307L29.8721 16.182L28.9891 14.3875L27.874 14.9362L28.7571 16.7307ZM35.6666 19.7569V20.2432H37.6666V19.7569H35.6666ZM29.8721 23.8181L28.757 23.2695L27.8741 25.064L28.9891 25.6126L29.8721 23.8181ZM35.6666 20.2432C35.6666 22.0897 35.664 23.36 35.5293 24.2672C35.3967 25.1597 35.1726 25.43 34.9552 25.5643L36.0067 27.2656C36.975 26.6672 37.3437 25.6645 37.5076 24.5609C37.6693 23.4719 37.6666 22.0228 37.6666 20.2432H35.6666ZM28.9834 25.6098C30.575 26.4056 31.87 27.0561 32.9163 27.3985C33.9767 27.7454 35.0384 27.864 36.0067 27.2656L34.9552 25.5643C34.7379 25.6987 34.3959 25.7783 33.5383 25.4976C32.6667 25.2124 31.5293 24.6467 29.8778 23.821L28.9834 25.6098ZM29.8778 16.1792C31.5293 15.3535 32.6667 14.7877 33.5383 14.5025C34.3959 14.2219 34.7379 14.3015 34.9552 14.4359L36.0067 12.7346C35.0384 12.1361 33.9767 12.2547 32.9163 12.6017C31.87 12.9441 30.575 13.5945 28.9834 14.3904L29.8778 16.1792ZM37.6666 19.7569C37.6666 17.9774 37.6693 16.5283 37.5076 15.4392C37.3437 14.3356 36.975 13.333 36.0067 12.7346L34.9552 14.4359C35.1726 14.5702 35.3967 14.8404 35.5293 15.733C35.664 16.6402 35.6666 17.9105 35.6666 19.7569H37.6666ZM27.3157 24.1487C27.2546 27.5303 26.9673 29.1403 26.047 30.2616L27.5931 31.5304C29.0114 29.8022 29.2556 27.4931 29.3154 24.1848L27.3157 24.1487ZM29.3154 15.8154C29.2556 12.5071 29.0114 10.198 27.5931 8.46973L26.047 9.73852C26.9673 10.8598 27.2546 12.4698 27.3157 15.8515L29.3154 15.8154ZM21.894 13.1061C22.4798 13.6919 22.4798 14.6416 21.894 15.2274L23.3082 16.6416C24.675 15.2748 24.675 13.0587 23.3082 11.6919L21.894 13.1061ZM21.894 15.2274C21.3082 15.8132 20.3584 15.8132 19.7727 15.2274L18.3584 16.6416C19.7253 18.0085 21.9414 18.0085 23.3082 16.6416L21.894 15.2274ZM19.7727 15.2274C19.1869 14.6416 19.1869 13.6919 19.7727 13.1061L18.3584 11.6919C16.9916 13.0587 16.9916 15.2748 18.3584 16.6416L19.7727 15.2274ZM19.7727 13.1061C20.3584 12.5203 21.3082 12.5203 21.894 13.1061L23.3082 11.6919C21.9414 10.325 19.7253 10.325 18.3584 11.6919L19.7727 13.1061Z" fill="#FC6A6A"/>
</svg>