<svg xmlns="http://www.w3.org/2000/svg" width="21" height="22" viewBox="0 0 21 22" fill="none">
  <rect width="21" height="21.6562" rx="10.5" fill="white"/>
  <rect width="21" height="21.6562" rx="10.5" fill="url(#paint0_linear_299_26378)"/>
  <path fill-rule="evenodd" clip-rule="evenodd" d="M10.8224 6.23504C10.8224 6.23504 8.74477 6.66977 8.38778 5.61426C8.03986 6.09603 8.24794 7.02687 9.03082 7.16661C9.24895 7.20554 9.49051 7.19127 9.73749 7.17668C10.3769 7.1389 11.0528 7.09898 11.4524 7.97474C11.6588 8.56491 11.6637 9.13185 11.6637 9.74812C9.71858 10.1128 6.45315 10.8283 6.45679 13.3543C6.4585 14.5388 7.40499 15.3258 8.71442 15.3258C9.73275 15.3258 10.7287 14.8206 11.7022 13.8101C11.8264 14.5787 12.2211 15.3853 13.0856 15.3853C14.5931 15.3853 14.8573 14.6942 14.7105 13.9069C14.0939 14.7396 13.3546 14.379 13.3546 13.4534V10.6864C13.3213 10.6997 13.2852 10.7138 13.2467 10.7288C12.6922 10.9456 11.6515 11.3524 11.6646 12.0627C11.6647 12.0677 11.6644 12.0665 11.6637 12.0599V12.9878C10.9264 13.9399 8.38571 14.9599 8.37817 12.8887V12.8788C8.37817 11.2796 10.4573 10.8272 11.6637 10.5902V10.5916C12.059 10.5115 13.0341 10.3341 13.3546 10.2783V10.2776C14.1192 10.1549 14.495 9.78649 14.2082 8.98724C14.0987 9.31127 13.8253 9.44031 13.3546 9.49976C13.3408 8.95954 13.2953 8.44167 13.0952 7.93512C12.6823 6.96944 11.847 6.23504 10.8224 6.23504Z" fill="#3D161A"/>
  <defs>
    <linearGradient id="paint0_linear_299_26378" x1="5.85673" y1="-1.00727" x2="34.5317" y2="12.9737" gradientUnits="userSpaceOnUse">
      <stop stop-color="#FFE68E"/>
      <stop offset="1" stop-color="#D8A217"/>
    </linearGradient>
  </defs>
</svg>