<svg xmlns="http://www.w3.org/2000/svg" width="31" height="23" viewBox="0 0 31 23" fill="none">
  <path d="M11.4245 19.7606C10.7264 19.5862 10.2635 19.4062 10.2517 19.4017C10.1942 19.3792 10.1311 19.3759 10.0717 19.3921L0.73584 22.0044L0.887715 22.5461L10.1341 19.9586C10.3051 20.0221 10.6988 20.16 11.2293 20.2961C11.249 20.0981 11.3159 19.9141 11.4245 19.7606ZM30.1951 8.95382C30.0712 8.57507 29.8075 8.25782 29.4578 8.06676C29.1081 7.8757 28.6986 7.82521 28.313 7.92558L28.0942 7.98295C28.25 7.65931 28.2771 7.28858 28.1701 6.9457C28.0631 6.60239 27.8309 6.31186 27.5197 6.1318C27.2084 5.95173 26.8408 5.8953 26.4899 5.9737L14.8017 8.68945L16.964 4.15064C17.6148 3.01439 17.2795 1.54514 16.2001 0.804888L15.952 0.634451C15.8921 0.593261 15.8186 0.576873 15.7468 0.588723C15.6751 0.600574 15.6108 0.639743 15.5673 0.698014L11.3716 6.3202L9.21609 9.02245C9.19688 9.04617 9.18186 9.073 9.17165 9.10176L7.91615 12.5521L0.762278 13.8403L0.862403 14.3938L8.1749 13.077C8.22327 13.0682 8.2685 13.0469 8.30609 13.0152C8.34369 12.9835 8.37234 12.9426 8.38922 12.8964L9.68465 9.33745L11.8171 6.66389L15.857 1.25095L15.8823 1.26839C16.7221 1.84439 16.9831 2.98739 16.4673 3.8902L14.044 8.9752C14.0207 9.02295 14.0114 9.07638 14.0173 9.1292C14.0233 9.18202 14.0441 9.23207 14.0775 9.27345C14.1109 9.31484 14.1553 9.34586 14.2057 9.36287C14.256 9.37989 14.3102 9.38219 14.3618 9.36951L26.6165 6.52158C26.7793 6.48532 26.9491 6.49677 27.1056 6.55457C27.262 6.61236 27.3985 6.71405 27.4987 6.84744C27.5988 6.98083 27.6584 7.14027 27.6702 7.30664C27.682 7.47302 27.6457 7.63929 27.5654 7.78551C27.4507 7.99364 27.2611 8.14158 27.0322 8.20345L19.2185 10.3044C19.1501 10.3268 19.093 10.3745 19.0586 10.4377C19.0243 10.5009 19.0154 10.5748 19.0338 10.6443C19.0522 10.7138 19.0965 10.7737 19.1576 10.8116C19.2187 10.8495 19.292 10.8627 19.3625 10.8483L28.457 8.47008C28.7038 8.40533 28.966 8.43743 29.1899 8.55979C29.4138 8.68215 29.5825 8.88551 29.6613 9.1282C29.7462 9.38808 29.722 9.66426 29.5949 9.90558C29.4667 10.1475 29.2518 10.3224 28.9891 10.3989L19.9964 13.0066C19.9264 13.0288 19.8678 13.0775 19.8332 13.1422C19.7986 13.207 19.7907 13.2828 19.8112 13.3533C19.8317 13.4238 19.8789 13.4835 19.9429 13.5196C20.0068 13.5558 20.0823 13.5655 20.1533 13.5466L27.7938 11.331C28.0439 11.2574 28.3128 11.2845 28.5432 11.4066C28.7735 11.5286 28.9471 11.7358 29.0268 11.984C29.11 12.2394 29.0887 12.5116 28.9666 12.7513C28.9068 12.8691 28.8242 12.9738 28.7236 13.0594C28.623 13.1449 28.5063 13.2096 28.3805 13.2496L20.5015 15.7882C20.4304 15.8109 20.3713 15.8609 20.337 15.9272C20.3028 15.9935 20.2963 16.0706 20.319 16.1417C20.3417 16.2128 20.3917 16.272 20.458 16.3062C20.5243 16.3404 20.6014 16.3469 20.6725 16.3243L26.468 14.5029C26.6814 14.4355 26.9126 14.4535 27.113 14.5531C27.3134 14.6528 27.4673 14.8264 27.5423 15.0373C27.6205 15.255 27.6087 15.4901 27.5097 15.6988C27.4139 15.9045 27.2403 16.0637 27.0271 16.1414L17.8724 19.1075C17.9326 19.247 17.968 19.4006 17.968 19.5626C17.968 19.5997 17.9602 19.6351 17.9568 19.6711L27.2071 16.6741C27.566 16.5453 27.8534 16.2849 28.0165 15.9401C28.1797 15.5953 28.1982 15.2071 28.07 14.8483C27.9642 14.5503 27.7624 14.296 27.4962 14.1255L28.5509 13.7857C28.9503 13.6569 29.2748 13.3807 29.4655 13.0072C29.6562 12.6337 29.6894 12.2085 29.56 11.8102C29.453 11.4781 29.238 11.1914 28.9492 10.9957L29.1443 10.9389C29.3459 10.8811 29.5337 10.7831 29.6963 10.6508C29.8589 10.5184 29.993 10.3545 30.0905 10.1688C30.1893 9.98394 30.2495 9.78092 30.2675 9.57206C30.2854 9.36321 30.2608 9.15288 30.1951 8.95382Z" fill="white"/>
  <path d="M11.4245 19.7606C10.7264 19.5862 10.2635 19.4062 10.2517 19.4017C10.1942 19.3792 10.1311 19.3759 10.0717 19.3921L0.73584 22.0044L0.887715 22.5461L10.1341 19.9586C10.3051 20.0221 10.6988 20.16 11.2293 20.2961C11.249 20.0981 11.3159 19.9141 11.4245 19.7606ZM30.1951 8.95382C30.0712 8.57507 29.8075 8.25782 29.4578 8.06676C29.1081 7.8757 28.6986 7.82521 28.313 7.92558L28.0942 7.98295C28.25 7.65931 28.2771 7.28858 28.1701 6.9457C28.0631 6.60239 27.8309 6.31186 27.5197 6.1318C27.2084 5.95173 26.8408 5.8953 26.4899 5.9737L14.8017 8.68945L16.964 4.15064C17.6148 3.01439 17.2795 1.54514 16.2001 0.804888L15.952 0.634451C15.8921 0.593261 15.8186 0.576873 15.7468 0.588723C15.6751 0.600574 15.6108 0.639743 15.5673 0.698014L11.3716 6.3202L9.21609 9.02245C9.19688 9.04617 9.18186 9.073 9.17165 9.10176L7.91615 12.5521L0.762278 13.8403L0.862403 14.3938L8.1749 13.077C8.22327 13.0682 8.2685 13.0469 8.30609 13.0152C8.34369 12.9835 8.37234 12.9426 8.38922 12.8964L9.68465 9.33745L11.8171 6.66389L15.857 1.25095L15.8823 1.26839C16.7221 1.84439 16.9831 2.98739 16.4673 3.8902L14.044 8.9752C14.0207 9.02295 14.0114 9.07638 14.0173 9.1292C14.0233 9.18202 14.0441 9.23207 14.0775 9.27345C14.1109 9.31484 14.1553 9.34586 14.2057 9.36287C14.256 9.37989 14.3102 9.38219 14.3618 9.36951L26.6165 6.52158C26.7793 6.48532 26.9491 6.49677 27.1056 6.55457C27.262 6.61236 27.3985 6.71405 27.4987 6.84744C27.5988 6.98083 27.6584 7.14027 27.6702 7.30664C27.682 7.47302 27.6457 7.63929 27.5654 7.78551C27.4507 7.99364 27.2611 8.14158 27.0322 8.20345L19.2185 10.3044C19.1501 10.3268 19.093 10.3745 19.0586 10.4377C19.0243 10.5009 19.0154 10.5748 19.0338 10.6443C19.0522 10.7138 19.0965 10.7737 19.1576 10.8116C19.2187 10.8495 19.292 10.8627 19.3625 10.8483L28.457 8.47008C28.7038 8.40533 28.966 8.43743 29.1899 8.55979C29.4138 8.68215 29.5825 8.88551 29.6613 9.1282C29.7462 9.38808 29.722 9.66426 29.5949 9.90558C29.4667 10.1475 29.2518 10.3224 28.9891 10.3989L19.9964 13.0066C19.9264 13.0288 19.8678 13.0775 19.8332 13.1422C19.7986 13.207 19.7907 13.2828 19.8112 13.3533C19.8317 13.4238 19.8789 13.4835 19.9429 13.5196C20.0068 13.5558 20.0823 13.5655 20.1533 13.5466L27.7938 11.331C28.0439 11.2574 28.3128 11.2845 28.5432 11.4066C28.7735 11.5286 28.9471 11.7358 29.0268 11.984C29.11 12.2394 29.0887 12.5116 28.9666 12.7513C28.9068 12.8691 28.8242 12.9738 28.7236 13.0594C28.623 13.1449 28.5063 13.2096 28.3805 13.2496L20.5015 15.7882C20.4304 15.8109 20.3713 15.8609 20.337 15.9272C20.3028 15.9935 20.2963 16.0706 20.319 16.1417C20.3417 16.2128 20.3917 16.272 20.458 16.3062C20.5243 16.3404 20.6014 16.3469 20.6725 16.3243L26.468 14.5029C26.6814 14.4355 26.9126 14.4535 27.113 14.5531C27.3134 14.6528 27.4673 14.8264 27.5423 15.0373C27.6205 15.255 27.6087 15.4901 27.5097 15.6988C27.4139 15.9045 27.2403 16.0637 27.0271 16.1414L17.8724 19.1075C17.9326 19.247 17.968 19.4006 17.968 19.5626C17.968 19.5997 17.9602 19.6351 17.9568 19.6711L27.2071 16.6741C27.566 16.5453 27.8534 16.2849 28.0165 15.9401C28.1797 15.5953 28.1982 15.2071 28.07 14.8483C27.9642 14.5503 27.7624 14.296 27.4962 14.1255L28.5509 13.7857C28.9503 13.6569 29.2748 13.3807 29.4655 13.0072C29.6562 12.6337 29.6894 12.2085 29.56 11.8102C29.453 11.4781 29.238 11.1914 28.9492 10.9957L29.1443 10.9389C29.3459 10.8811 29.5337 10.7831 29.6963 10.6508C29.8589 10.5184 29.993 10.3545 30.0905 10.1688C30.1893 9.98394 30.2495 9.78092 30.2675 9.57206C30.2854 9.36321 30.2608 9.15288 30.1951 8.95382Z" fill="url(#paint0_linear_299_26407)"/>
  <defs>
    <linearGradient id="paint0_linear_299_26407" x1="8.97356" y1="-0.436488" x2="43.2282" y2="22.7286" gradientUnits="userSpaceOnUse">
      <stop stop-color="#FFE68E"/>
      <stop offset="1" stop-color="#D8A217"/>
    </linearGradient>
  </defs>
</svg>