<svg xmlns="http://www.w3.org/2000/svg" width="21" height="21" viewBox="0 0 21 21" fill="none">
  <path d="M17.1667 8.17725H9.66667C8.74619 8.17725 8 8.92344 8 9.84391V17.3439C8 18.2644 8.74619 19.0106 9.66667 19.0106H17.1667C18.0871 19.0106 18.8333 18.2644 18.8333 17.3439V9.84391C18.8333 8.92344 18.0871 8.17725 17.1667 8.17725Z" stroke="#E1931E" stroke-width="1.5" stroke-linecap="round" stroke-linejoin="round"/>
  <path d="M4.66675 13.1771H3.83341C3.39139 13.1771 2.96746 13.0015 2.6549 12.6889C2.34234 12.3764 2.16675 11.9524 2.16675 11.5104V4.01042C2.16675 3.56839 2.34234 3.14447 2.6549 2.83191C2.96746 2.51934 3.39139 2.34375 3.83341 2.34375H11.3334C11.7754 2.34375 12.1994 2.51934 12.5119 2.83191C12.8245 3.14447 13.0001 3.56839 13.0001 4.01042V4.84375" stroke="#E1931E" stroke-width="1.5" stroke-linecap="round" stroke-linejoin="round"/>
</svg>