<svg xmlns="http://www.w3.org/2000/svg" width="75" height="20" viewBox="0 0 75 20" fill="none">
  <path d="M53.1245 0.616211H55.4738C56.3789 0.616211 56.8944 1.24583 57.0203 2.50508V6.60157C57.0203 6.92425 57.0243 7.65619 57.0321 8.79738C57.8163 8.23257 58.7853 8.0625 59.6412 7.93559C60.497 7.80868 62.6778 6.89583 62.8251 5.16613C63.6793 6.93845 63.03 7.86012 61.6245 8.63211C62.561 9.16729 63.0293 9.86774 63.0293 10.7335V12.9529C63.0293 13.8973 63.2025 14.4168 63.5488 14.5112L63.8911 14.5821H64.7175L64.7883 14.6529V14.9126L64.7175 14.9834H62.6161C61.8055 14.889 61.4002 14.405 61.4002 13.5314V10.8869C61.4002 8.63211 57.0203 9.07324 57.0203 10.521V12.9883C57.0203 14.0508 56.6032 14.7158 55.769 14.9834L55.3204 15.0189H53.0537V14.948V14.2161V14.1453H54.0808C54.6396 14.1453 54.9662 13.7596 55.0606 12.9883V2.68216C55.0606 1.86365 54.6593 1.4544 53.8565 1.4544H53.1245L53.0537 1.38356V0.687044L53.1245 0.616211Z" fill="white"/>
  <path d="M53.1245 0.616211H55.4738C56.3789 0.616211 56.8944 1.24583 57.0203 2.50508V6.60157C57.0203 6.92425 57.0243 7.65619 57.0321 8.79738C57.8163 8.23257 58.7853 8.0625 59.6412 7.93559C60.497 7.80868 62.6778 6.89583 62.8251 5.16613C63.6793 6.93845 63.03 7.86012 61.6245 8.63211C62.561 9.16729 63.0293 9.86774 63.0293 10.7335V12.9529C63.0293 13.8973 63.2025 14.4168 63.5488 14.5112L63.8911 14.5821H64.7175L64.7883 14.6529V14.9126L64.7175 14.9834H62.6161C61.8055 14.889 61.4002 14.405 61.4002 13.5314V10.8869C61.4002 8.63211 57.0203 9.07324 57.0203 10.521V12.9883C57.0203 14.0508 56.6032 14.7158 55.769 14.9834L55.3204 15.0189H53.0537V14.948V14.2161V14.1453H54.0808C54.6396 14.1453 54.9662 13.7596 55.0606 12.9883V2.68216C55.0606 1.86365 54.6593 1.4544 53.8565 1.4544H53.1245L53.0537 1.38356V0.687044L53.1245 0.616211Z" fill="url(#paint0_linear_299_26382)"/>
  <path d="M46.301 4.59473H48.9337C49.5003 4.59473 49.9765 4.88986 50.3621 5.48013C50.5667 5.88152 50.6691 6.36948 50.6691 6.94401V12.646C50.6297 13.5669 50.9406 14.0627 51.6017 14.1335L51.8968 14.1689H52.3927L52.4281 14.1926V15.0189L52.3927 15.0544H50.2559C49.5003 15.0544 48.9848 14.653 48.7094 13.8502C48.5756 13.4567 48.5087 13.0789 48.5087 12.7169V7.02665C48.5087 6.33406 48.2411 5.88152 47.7059 5.66902C47.5564 5.62967 47.4265 5.60999 47.3163 5.60999H46.301L46.2656 5.58638V4.61834L46.301 4.59473Z" fill="white"/>
  <path d="M46.301 4.59473H48.9337C49.5003 4.59473 49.9765 4.88986 50.3621 5.48013C50.5667 5.88152 50.6691 6.36948 50.6691 6.94401V12.646C50.6297 13.5669 50.9406 14.0627 51.6017 14.1335L51.8968 14.1689H52.3927L52.4281 14.1926V15.0189L52.3927 15.0544H50.2559C49.5003 15.0544 48.9848 14.653 48.7094 13.8502C48.5756 13.4567 48.5087 13.0789 48.5087 12.7169V7.02665C48.5087 6.33406 48.2411 5.88152 47.7059 5.66902C47.5564 5.62967 47.4265 5.60999 47.3163 5.60999H46.301L46.2656 5.58638V4.61834L46.301 4.59473Z" fill="url(#paint1_linear_299_26382)"/>
  <path d="M40.9531 4.32275H41.1774C42.2478 4.32275 43.1725 4.71627 43.9517 5.5033C44.7151 6.35329 45.0968 7.33314 45.0968 8.44285V12.3268C45.0968 13.4287 45.3133 14.0819 45.7461 14.2866C45.7461 14.3338 45.9035 14.3849 46.2183 14.44H47.4461L47.4815 14.4754V15.0421L47.4461 15.0775H44.5302C43.7274 15.0775 43.204 14.4912 42.96 13.3185C42.9286 13.1847 42.9128 13.043 42.9128 12.8935V8.71438C42.9128 7.33708 42.4209 6.4438 41.4371 6.03454C41.0358 5.89288 40.6147 5.82205 40.174 5.82205C39.3633 5.84566 38.5645 6.25098 37.7774 7.03801C37.4862 7.39217 37.3406 7.74633 37.3406 8.1005V15.0775L37.3052 15.1129H35.1803L35.133 15.0775V6.88454C35.133 6.19195 34.8497 5.72367 34.283 5.47969L33.8698 5.42066H32.8782L32.8428 5.38524V4.46442L32.8782 4.429H35.558C36.2349 4.429 36.7582 4.80284 37.1281 5.55052L37.2344 5.91649C38.3913 4.87761 39.6309 4.34636 40.9531 4.32275Z" fill="white"/>
  <path d="M40.9531 4.32275H41.1774C42.2478 4.32275 43.1725 4.71627 43.9517 5.5033C44.7151 6.35329 45.0968 7.33314 45.0968 8.44285V12.3268C45.0968 13.4287 45.3133 14.0819 45.7461 14.2866C45.7461 14.3338 45.9035 14.3849 46.2183 14.44H47.4461L47.4815 14.4754V15.0421L47.4461 15.0775H44.5302C43.7274 15.0775 43.204 14.4912 42.96 13.3185C42.9286 13.1847 42.9128 13.043 42.9128 12.8935V8.71438C42.9128 7.33708 42.4209 6.4438 41.4371 6.03454C41.0358 5.89288 40.6147 5.82205 40.174 5.82205C39.3633 5.84566 38.5645 6.25098 37.7774 7.03801C37.4862 7.39217 37.3406 7.74633 37.3406 8.1005V15.0775L37.3052 15.1129H35.1803L35.133 15.0775V6.88454C35.133 6.19195 34.8497 5.72367 34.283 5.47969L33.8698 5.42066H32.8782L32.8428 5.38524V4.46442L32.8782 4.429H35.558C36.2349 4.429 36.7582 4.80284 37.1281 5.55052L37.2344 5.91649C38.3913 4.87761 39.6309 4.34636 40.9531 4.32275Z" fill="url(#paint2_linear_299_26382)"/>
  <path d="M25.7358 15.078H25.5233C24.4608 15.078 23.54 14.6884 22.7609 13.9092C22.0053 13.0671 21.6275 12.0912 21.6275 10.9815V7.1211C21.6275 6.02713 21.4111 5.38177 20.9782 5.18501C20.9782 5.12992 20.8208 5.07482 20.506 5.01973H19.2901L19.2546 4.98432V4.42946L19.2901 4.39404H22.1824C22.9852 4.39404 23.5046 4.97644 23.7407 6.14125C23.7801 6.27504 23.7997 6.41671 23.7997 6.56624V10.71C23.7997 12.0794 24.2838 12.9687 25.2518 13.378C25.6611 13.5197 26.0782 13.5905 26.5032 13.5905C27.1328 13.5905 27.8372 13.2009 28.6164 12.4217C28.9076 12.0676 29.0532 11.7134 29.0532 11.3593V4.42946L29.0886 4.39404H31.2017L31.2372 4.42946V12.5634C31.2372 13.256 31.5205 13.7243 32.0872 13.9683L32.5003 14.0155H33.4802L33.5156 14.0509V14.9717L33.4802 15.0071H30.824C30.155 15.0071 29.6356 14.6372 29.2657 13.8974L29.1594 13.5315C28.0103 14.5625 26.8691 15.078 25.7358 15.078Z" fill="white"/>
  <path d="M25.7358 15.078H25.5233C24.4608 15.078 23.54 14.6884 22.7609 13.9092C22.0053 13.0671 21.6275 12.0912 21.6275 10.9815V7.1211C21.6275 6.02713 21.4111 5.38177 20.9782 5.18501C20.9782 5.12992 20.8208 5.07482 20.506 5.01973H19.2901L19.2546 4.98432V4.42946L19.2901 4.39404H22.1824C22.9852 4.39404 23.5046 4.97644 23.7407 6.14125C23.7801 6.27504 23.7997 6.41671 23.7997 6.56624V10.71C23.7997 12.0794 24.2838 12.9687 25.2518 13.378C25.6611 13.5197 26.0782 13.5905 26.5032 13.5905C27.1328 13.5905 27.8372 13.2009 28.6164 12.4217C28.9076 12.0676 29.0532 11.7134 29.0532 11.3593V4.42946L29.0886 4.39404H31.2017L31.2372 4.42946V12.5634C31.2372 13.256 31.5205 13.7243 32.0872 13.9683L32.5003 14.0155H33.4802L33.5156 14.0509V14.9717L33.4802 15.0071H30.824C30.155 15.0071 29.6356 14.6372 29.2657 13.8974L29.1594 13.5315C28.0103 14.5625 26.8691 15.078 25.7358 15.078Z" fill="url(#paint3_linear_299_26382)"/>
  <path d="M14.981 15.0069L11.4394 6.5896C11.0065 5.55072 10.1683 4.97618 8.9248 4.866V4.4292H10.8727C12.2107 4.4292 13.1236 5.00373 13.6116 6.15279L16.1261 12.0909L18.5159 6.75868H19.661L15.6657 16.1874C15.225 17.3286 14.7173 18.1117 14.1428 18.5367C13.6549 18.9145 12.9819 19.0798 12.1241 19.0325L10.9553 18.9617V17.852C12.8993 18.1353 14.0877 17.5805 14.5206 16.1874L14.981 15.0069Z" fill="white"/>
  <path d="M14.981 15.0069L11.4394 6.5896C11.0065 5.55072 10.1683 4.97618 8.9248 4.866V4.4292H10.8727C12.2107 4.4292 13.1236 5.00373 13.6116 6.15279L16.1261 12.0909L18.5159 6.75868H19.661L15.6657 16.1874C15.225 17.3286 14.7173 18.1117 14.1428 18.5367C13.6549 18.9145 12.9819 19.0798 12.1241 19.0325L10.9553 18.9617V17.852C12.8993 18.1353 14.0877 17.5805 14.5206 16.1874L14.981 15.0069Z" fill="url(#paint4_linear_299_26382)"/>
  <path fill-rule="evenodd" clip-rule="evenodd" d="M5.13537 4.2876H2.3729L2.36109 4.2994V5.27926L2.3729 5.29106C2.65279 5.29967 2.95531 5.2829 3.26453 5.26575C4.3903 5.20334 5.60476 5.136 6.13883 6.27091C6.39246 6.97416 6.39855 7.64973 6.39855 8.38409C4.00824 8.81869 -0.00446551 9.67126 3.7301e-06 12.6813C0.00209934 14.0927 1.39873 15.0306 2.77428 15.0306C4.02566 15.0306 5.24949 14.4285 6.44578 13.2243C6.59844 14.1403 7.08345 15.1014 8.14576 15.1014H10.0228V14.4757C8.92897 14.4757 8.47631 13.9022 8.47631 12.7993V9.48165C8.10002 9.56869 6.86742 9.89067 6.39855 10.0178V12.2445C5.49244 13.379 2.37035 14.5945 2.36109 12.1264V12.1146C2.36109 10.209 4.91607 9.66993 6.39855 9.38755V9.38904C6.88268 9.29377 8.08046 9.08242 8.47631 9.01563V9.01498C9.41588 8.86876 9.87777 8.42981 9.52531 7.47741C9.39078 7.86352 9.05478 8.0173 8.47631 8.08813C8.45934 7.4444 8.40348 6.82731 8.15757 6.22369C7.65026 5.07298 6.39441 4.2876 5.13537 4.2876Z" fill="white"/>
  <path fill-rule="evenodd" clip-rule="evenodd" d="M5.13537 4.2876H2.3729L2.36109 4.2994V5.27926L2.3729 5.29106C2.65279 5.29967 2.95531 5.2829 3.26453 5.26575C4.3903 5.20334 5.60476 5.136 6.13883 6.27091C6.39246 6.97416 6.39855 7.64973 6.39855 8.38409C4.00824 8.81869 -0.00446551 9.67126 3.7301e-06 12.6813C0.00209934 14.0927 1.39873 15.0306 2.77428 15.0306C4.02566 15.0306 5.24949 14.4285 6.44578 13.2243C6.59844 14.1403 7.08345 15.1014 8.14576 15.1014H10.0228V14.4757C8.92897 14.4757 8.47631 13.9022 8.47631 12.7993V9.48165C8.10002 9.56869 6.86742 9.89067 6.39855 10.0178V12.2445C5.49244 13.379 2.37035 14.5945 2.36109 12.1264V12.1146C2.36109 10.209 4.91607 9.66993 6.39855 9.38755V9.38904C6.88268 9.29377 8.08046 9.08242 8.47631 9.01563V9.01498C9.41588 8.86876 9.87777 8.42981 9.52531 7.47741C9.39078 7.86352 9.05478 8.0173 8.47631 8.08813C8.45934 7.4444 8.40348 6.82731 8.15757 6.22369C7.65026 5.07298 6.39441 4.2876 5.13537 4.2876Z" fill="url(#paint5_linear_299_26382)"/>
  <path fill-rule="evenodd" clip-rule="evenodd" d="M70.1124 4.2876H67.3499L67.3381 4.2994V5.27926L67.3499 5.29106C67.6298 5.29967 67.9324 5.2829 68.2416 5.26575C69.3673 5.20334 70.5818 5.136 71.1159 6.27091C71.3695 6.97416 71.3756 7.64973 71.3756 8.38409C68.9853 8.81869 64.9726 9.67126 64.9771 12.6813C64.9792 14.0927 66.3758 15.0306 67.7513 15.0306C69.0027 15.0306 70.2265 14.4285 71.4228 13.2243C71.5755 14.1403 72.0605 15.1014 73.1228 15.1014H74.9999V14.4757C73.906 14.4757 73.4534 13.9022 73.4534 12.7993V9.48165C73.0771 9.56869 71.8445 9.89067 71.3756 10.0178V12.2445C70.4695 13.379 67.3474 14.5945 67.3381 12.1264V12.1146C67.3381 10.209 69.8931 9.66993 71.3756 9.38755V9.38904C71.8597 9.29377 73.0575 9.08242 73.4534 9.01563V9.01498C74.3929 8.86876 74.8548 8.42981 74.5024 7.47741C74.3678 7.86352 74.0318 8.0173 73.4534 8.08813C73.4364 7.4444 73.3805 6.82731 73.1346 6.22369C72.6273 5.07298 71.3715 4.2876 70.1124 4.2876Z" fill="white"/>
  <path fill-rule="evenodd" clip-rule="evenodd" d="M70.1124 4.2876H67.3499L67.3381 4.2994V5.27926L67.3499 5.29106C67.6298 5.29967 67.9324 5.2829 68.2416 5.26575C69.3673 5.20334 70.5818 5.136 71.1159 6.27091C71.3695 6.97416 71.3756 7.64973 71.3756 8.38409C68.9853 8.81869 64.9726 9.67126 64.9771 12.6813C64.9792 14.0927 66.3758 15.0306 67.7513 15.0306C69.0027 15.0306 70.2265 14.4285 71.4228 13.2243C71.5755 14.1403 72.0605 15.1014 73.1228 15.1014H74.9999V14.4757C73.906 14.4757 73.4534 13.9022 73.4534 12.7993V9.48165C73.0771 9.56869 71.8445 9.89067 71.3756 10.0178V12.2445C70.4695 13.379 67.3474 14.5945 67.3381 12.1264V12.1146C67.3381 10.209 69.8931 9.66993 71.3756 9.38755V9.38904C71.8597 9.29377 73.0575 9.08242 73.4534 9.01563V9.01498C74.3929 8.86876 74.8548 8.42981 74.5024 7.47741C74.3678 7.86352 74.0318 8.0173 73.4534 8.08813C73.4364 7.4444 73.3805 6.82731 73.1346 6.22369C72.6273 5.07298 71.3715 4.2876 70.1124 4.2876Z" fill="url(#paint6_linear_299_26382)"/>
  <defs>
    <linearGradient id="paint0_linear_299_26382" x1="56.3264" y1="-0.0536804" x2="73.3088" y2="6.90332" gradientUnits="userSpaceOnUse">
      <stop stop-color="#FFE68E"/>
      <stop offset="1" stop-color="#D8A217"/>
    </linearGradient>
    <linearGradient id="paint1_linear_299_26382" x1="47.9843" y1="4.10823" x2="57.559" y2="6.9446" gradientUnits="userSpaceOnUse">
      <stop stop-color="#FFE68E"/>
      <stop offset="1" stop-color="#D8A217"/>
    </linearGradient>
    <linearGradient id="paint2_linear_299_26382" x1="36.9254" y1="3.82088" x2="53.8096" y2="15.3382" gradientUnits="userSpaceOnUse">
      <stop stop-color="#FFE68E"/>
      <stop offset="1" stop-color="#D8A217"/>
    </linearGradient>
    <linearGradient id="paint3_linear_299_26382" x1="23.2319" y1="3.89712" x2="39.8491" y2="15.0496" gradientUnits="userSpaceOnUse">
      <stop stop-color="#FFE68E"/>
      <stop offset="1" stop-color="#D8A217"/>
    </linearGradient>
    <linearGradient id="paint4_linear_299_26382" x1="11.919" y1="3.74961" x2="27.8848" y2="9.64822" gradientUnits="userSpaceOnUse">
      <stop stop-color="#FFE68E"/>
      <stop offset="1" stop-color="#D8A217"/>
    </linearGradient>
    <linearGradient id="paint5_linear_299_26382" x1="2.79529" y1="3.78463" x2="16.7122" y2="10.2702" gradientUnits="userSpaceOnUse">
      <stop stop-color="#FFE68E"/>
      <stop offset="1" stop-color="#D8A217"/>
    </linearGradient>
    <linearGradient id="paint6_linear_299_26382" x1="67.7723" y1="3.78463" x2="81.6892" y2="10.2702" gradientUnits="userSpaceOnUse">
      <stop stop-color="#FFE68E"/>
      <stop offset="1" stop-color="#D8A217"/>
    </linearGradient>
  </defs>
</svg>