<svg width="375" height="433" viewBox="0 0 375 433" fill="none" xmlns="http://www.w3.org/2000/svg">
<path d="M111.261 290.585C70.4111 248.546 71.3778 181.112 113.416 140.262C155.455 99.4114 222.888 100.379 263.738 142.418C304.588 184.456 303.621 251.889 261.583 292.738C219.546 333.588 152.112 332.623 111.261 290.585ZM262.716 143.411C222.414 101.936 155.885 100.983 114.41 141.285C72.9361 181.587 71.9824 248.116 112.284 289.591C152.587 331.065 219.116 332.019 260.59 291.716C302.065 251.414 303.018 184.885 262.716 143.411Z" fill="url(#paint0_linear_3606_15479)"/>
<path d="M273.39 131.364C281.955 121.753 285.615 112.529 279.737 103.298C273.648 104.191 274.038 108.681 274.758 113.418C276.19 122.847 273.39 131.364 273.39 131.364Z" fill="url(#paint1_linear_3606_15479)"/>
<path d="M265.892 134.85C267.055 131.143 267.806 125.139 264.825 121.167C259.826 114.507 250.844 120.833 254.777 121.756C264.089 123.939 265.892 134.85 265.892 134.85Z" fill="url(#paint2_linear_3606_15479)"/>
<path d="M265.714 105.784C262.422 101.883 254.439 106.577 259.508 113.535C257.962 110.236 265.922 105.378 268.159 110.356L267.382 107.67L265.714 105.784Z" fill="url(#paint3_linear_3606_15479)"/>
<path d="M270.644 114.835C269.285 105.003 258.11 92.111 261.508 89.7749C258.153 89.1067 254.369 93.2987 258.332 97.1117C262.296 100.925 263.771 101.069 265.577 104.369C267.384 107.668 268.919 110.526 268.919 110.526L269.801 112.89L270.644 114.835Z" fill="url(#paint4_linear_3606_15479)"/>
<path d="M252.469 114.888C254.929 112.498 257.765 107.033 253.91 102.503C249.154 96.9139 240.138 101.105 244.614 108.396C243.869 104.87 249.794 101.648 252.447 105.725C253.534 107.396 253.954 110.698 253.954 110.698L252.457 113.384L252.469 114.888Z" fill="url(#paint5_linear_3606_15479)"/>
<path d="M271.626 134.753C275.328 114.073 264.679 100.493 258.712 96.6703C251.41 91.991 242.921 92.7323 238.068 98.4707C236.01 100.905 235.024 103.996 235.289 107.173C235.521 109.952 236.688 112.506 238.607 114.481C238.881 114.763 239.171 115.034 239.477 115.293C243.567 118.75 249.71 118.237 253.169 114.147C255.995 110.805 255.576 105.78 252.231 102.959L251.155 104.232C253.793 106.474 254.128 110.43 251.896 113.071C249.031 116.46 243.942 116.885 240.554 114.021C238.463 112.249 237.18 109.77 236.951 107.036C236.723 104.303 237.571 101.644 239.343 99.5492C244.385 93.5866 252.252 94.5121 257.814 98.0755C263.432 101.677 272.893 111.4 270.378 134.911L268.475 135.149L267.991 138.289L271.143 137.894L271.626 134.753Z" fill="url(#paint6_linear_3606_15479)"/>
<path d="M283.184 121.445C287.52 114.672 287.092 108.614 287.092 108.614C288.99 109.523 291.266 111.368 291.052 112.689C291.706 111.571 296.14 109.871 296.869 110.223L289.715 117.176C290.656 114.764 288.978 113.931 287.474 116.262C285.969 118.592 283.184 121.445 283.184 121.445Z" fill="url(#paint7_linear_3606_15479)"/>
<path d="M275.064 133.087C284.917 124.8 294.242 121.407 303.301 127.547C302.234 133.607 297.757 133.09 293.042 132.234C283.658 130.532 275.064 133.087 275.064 133.087Z" fill="url(#paint8_linear_3606_15479)"/>
<path d="M271.365 140.482C275.103 139.425 281.127 138.847 285.012 141.94C291.525 147.128 284.945 155.925 284.135 151.967C282.22 142.597 271.365 140.482 271.365 140.482Z" fill="url(#paint9_linear_3606_15479)"/>
<path d="M300.412 141.491C304.217 144.894 299.297 152.739 292.487 147.473C295.739 149.113 300.824 141.295 295.912 138.916L298.575 139.77L300.412 141.491Z" fill="url(#paint10_linear_3606_15479)"/>
<path d="M291.507 136.306C301.296 137.946 313.863 149.486 316.295 146.155C316.867 149.529 312.568 153.191 308.87 149.12C305.173 145.049 305.071 143.57 301.824 141.67C298.577 139.77 295.766 138.153 295.766 138.153L293.428 137.204L291.507 136.306Z" fill="url(#paint11_linear_3606_15479)"/>
<path d="M290.933 154.471C293.393 152.081 298.937 149.403 303.355 153.385C308.805 158.3 304.357 167.192 297.197 162.509C300.701 163.355 304.091 157.525 300.092 154.755C298.453 153.622 295.164 153.107 295.164 153.107L292.436 154.526L290.933 154.471Z" fill="url(#paint12_linear_3606_15479)"/>
<path d="M271.626 134.753C292.404 131.645 305.673 142.679 309.322 148.753C313.79 156.186 312.806 164.65 306.931 169.336C304.439 171.324 301.321 172.221 298.153 171.866C295.381 171.553 292.861 170.314 290.944 168.34C290.67 168.058 290.407 167.76 290.158 167.448C286.818 163.26 287.508 157.134 291.696 153.795C295.117 151.066 300.129 151.629 302.853 155.053L301.55 156.092C299.384 153.391 295.439 152.942 292.735 155.098C289.266 157.865 288.695 162.94 291.461 166.408C293.172 168.549 295.614 169.903 298.339 170.21C301.065 170.517 303.747 169.745 305.892 168.033C311.996 163.164 311.297 155.274 307.894 149.612C304.455 143.894 295.008 134.158 271.435 135.997L271.142 137.893L267.989 138.287L268.473 135.147L271.626 134.753Z" fill="url(#paint13_linear_3606_15479)"/>
<path d="M285.26 123.581C292.154 119.441 298.198 120.042 298.198 120.042C297.343 118.119 295.564 115.791 294.238 115.967C295.374 115.346 297.2 110.962 296.869 110.223L289.714 117.175C292.151 116.304 292.936 118.005 290.563 119.441C288.191 120.879 285.26 123.581 285.26 123.581Z" fill="url(#paint14_linear_3606_15479)"/>
<path d="M188.032 95.5669C187.293 82.7137 183.359 73.6039 172.675 71.2324C169.001 76.1693 172.452 79.0686 176.31 81.9099C183.991 87.5636 188.032 95.5669 188.032 95.5669Z" fill="url(#paint15_linear_3606_15479)"/>
<path d="M185.195 103.334C183.397 99.8897 179.682 95.1136 174.765 94.4139C166.521 93.239 164.644 104.064 168.078 101.935C176.206 96.8934 185.195 103.334 185.195 103.334Z" fill="url(#paint16_linear_3606_15479)"/>
<path d="M164.518 82.9063C159.431 82.4754 157.106 91.4396 165.61 92.7756C162.185 91.5364 164.377 82.4722 169.479 84.4103L167.031 83.0608L164.518 82.9063Z" fill="url(#paint17_linear_3606_15479)"/>
<path d="M174.403 85.8203C166.49 79.8281 149.472 78.6152 150.222 74.5598C147.377 76.4592 147.665 82.0992 153.163 81.9934C158.662 81.8875 159.807 80.9452 163.418 82.0013C167.029 83.0573 170.135 83.991 170.135 83.991L172.429 85.0407L174.403 85.8203Z" fill="url(#paint18_linear_3606_15479)"/>
<path d="M161.59 98.7116C161.639 95.2834 159.779 89.4122 153.851 88.934C146.535 88.3446 143.123 97.6842 151.444 99.6742C148.423 97.7078 150.335 91.2398 155.093 92.2462C157.043 92.6583 159.675 94.6989 159.675 94.6989L160.516 97.6554L161.59 98.7116Z" fill="url(#paint19_linear_3606_15479)"/>
<path d="M189.181 99.2106C177.176 81.969 160.043 79.8972 153.123 81.4121C144.65 83.2662 139.171 89.7925 139.798 97.2818C140.064 100.458 141.551 103.342 143.985 105.4C146.115 107.201 148.746 108.183 151.498 108.221C151.892 108.226 152.288 108.213 152.686 108.179C158.024 107.732 162.003 103.025 161.557 97.686C161.192 93.3251 157.343 90.0689 152.983 90.4373L153.122 92.0979C156.572 91.8179 159.608 94.3796 159.896 97.8241C160.265 102.248 156.969 106.146 152.547 106.516C149.816 106.74 147.156 105.895 145.061 104.125C142.966 102.353 141.686 99.8726 141.459 97.1403C140.808 89.36 147.026 84.4505 153.479 83.0371C159.997 81.6121 173.564 81.7975 188.409 100.199L187.232 101.714L189.11 104.277L191.061 101.769L189.181 99.2106Z" fill="url(#paint20_linear_3606_15479)"/>
<path d="M187.945 81.6268C186.221 73.7718 181.637 69.7915 181.637 69.7915C183.621 69.0926 186.537 68.7879 187.317 69.8729C186.988 68.6211 188.921 64.284 189.688 64.0179L189.545 73.9949C188.504 71.6238 186.729 72.2219 187.314 74.9331C187.898 77.6408 187.945 81.6268 187.945 81.6268Z" fill="url(#paint21_linear_3606_15479)"/>
<path d="M190.435 95.6017C191.542 82.775 195.736 73.7817 206.484 71.7174C210.015 76.7576 206.483 79.5579 202.544 82.2863C194.704 87.7175 190.435 95.6017 190.435 95.6017Z" fill="url(#paint22_linear_3606_15479)"/>
<path d="M193.048 103.446C194.944 100.055 198.795 95.3874 203.73 94.8288C212.004 93.8907 213.571 104.764 210.199 102.539C202.218 97.266 193.048 103.446 193.048 103.446Z" fill="url(#paint23_linear_3606_15479)"/>
<path d="M214.303 83.62C219.4 83.3352 221.467 92.3624 212.928 93.454C216.387 92.3135 214.456 83.1902 209.3 84.9812L211.787 83.7025L214.303 83.62Z" fill="url(#paint24_linear_3606_15479)"/>
<path d="M204.338 86.2492C212.421 80.4875 229.465 79.7617 228.832 75.6865C231.621 77.6666 231.171 83.2961 225.678 83.0326C220.185 82.7692 219.067 81.7945 215.427 82.7466C211.788 83.6987 208.657 84.543 208.657 84.543L206.333 85.5265L204.338 86.2492Z" fill="url(#paint25_linear_3606_15479)"/>
<path d="M216.776 99.5016C216.825 96.0734 218.852 90.258 224.792 89.9498C232.12 89.5715 235.265 99.004 226.889 100.755C229.966 98.8756 228.24 92.3555 223.454 93.2251C221.494 93.5811 218.804 95.5455 218.804 95.5455L217.879 98.4767L216.776 99.5016Z" fill="url(#paint26_linear_3606_15479)"/>
<path d="M189.181 99.2109C201.676 82.3205 218.861 80.7406 225.736 82.4533C234.151 84.5495 239.441 91.2301 238.6 98.6984C238.243 101.866 236.674 104.706 234.182 106.693C232.001 108.432 229.343 109.338 226.591 109.298C226.197 109.292 225.802 109.267 225.404 109.221C220.081 108.622 216.239 103.803 216.838 98.4788C217.328 94.1301 221.269 90.9856 225.615 91.48L225.429 93.1359C221.988 92.7571 218.88 95.2307 218.494 98.6655C217.998 103.076 221.181 107.068 225.59 107.564C228.314 107.867 230.997 107.098 233.141 105.389C235.286 103.678 236.637 101.235 236.943 98.5105C237.816 90.752 231.742 85.6663 225.332 84.0685C218.857 82.4573 205.29 82.2537 189.924 100.222L191.058 101.771L189.106 104.278L187.228 101.716L189.181 99.2109Z" fill="url(#paint27_linear_3606_15479)"/>
<path d="M190.922 81.6691C192.87 73.8667 197.567 70.0195 197.567 70.0195C195.604 69.2641 192.698 68.8759 191.887 69.9381C192.251 68.6962 190.443 64.3054 189.685 64.0176L189.542 73.9946C190.65 71.6542 192.407 72.3029 191.745 74.9962C191.084 77.6861 190.922 81.6691 190.922 81.6691Z" fill="url(#paint28_linear_3606_15479)"/>
<path d="M102.364 130.611C92.7525 122.045 83.527 118.385 74.2969 124.264C75.19 130.352 79.6801 129.963 84.4178 129.243C93.8463 127.811 102.364 130.611 102.364 130.611Z" fill="url(#paint29_linear_3606_15479)"/>
<path d="M105.849 138.109C102.143 136.946 96.1383 136.195 92.1662 139.176C85.5068 144.175 91.8335 153.156 92.7551 149.224C94.9382 139.912 105.849 138.109 105.849 138.109Z" fill="url(#paint30_linear_3606_15479)"/>
<path d="M76.7838 138.286C72.8824 141.578 77.5763 149.561 84.5342 144.493C81.2358 146.039 76.3775 138.079 81.3558 135.842L78.6692 136.618L76.7838 138.286Z" fill="url(#paint31_linear_3606_15479)"/>
<path d="M85.8352 133.357C76.0031 134.717 63.1109 145.891 60.7748 142.493C60.1066 145.848 64.2976 149.631 68.1116 145.669C71.9245 141.705 72.0688 140.23 75.3686 138.424C78.6684 136.617 81.5255 135.082 81.5255 135.082L83.8898 134.2L85.8352 133.357Z" fill="url(#paint32_linear_3606_15479)"/>
<path d="M85.888 151.532C83.4975 149.072 78.0334 146.236 73.5027 150.09C67.9127 154.846 72.1049 163.862 79.3963 159.386C75.87 160.132 72.648 154.207 76.7249 151.553C78.3956 150.467 81.6983 150.047 81.6983 150.047L84.3843 151.543L85.888 151.532Z" fill="url(#paint33_linear_3606_15479)"/>
<path d="M105.753 132.375C85.0725 128.673 71.4925 139.322 67.6702 145.289C62.9909 152.591 63.7322 161.08 69.4706 165.933C71.9045 167.991 74.9956 168.977 78.173 168.712C80.9521 168.48 83.5063 167.313 85.4809 165.394C85.7629 165.12 86.0338 164.83 86.2924 164.524C89.7504 160.434 89.2366 154.291 85.147 150.832C81.8053 148.006 76.7801 148.425 73.9587 151.769L75.2314 152.846C77.4739 150.208 81.4297 149.873 84.0709 152.105C87.4599 154.97 87.8851 160.059 85.0209 163.447C83.2491 165.538 80.7696 166.821 78.0361 167.05C75.3027 167.278 72.644 166.43 70.5491 164.658C64.5865 159.616 65.512 151.749 69.0754 146.187C72.6772 140.569 82.3998 131.108 105.91 133.622L106.149 135.526L109.289 136.01L108.895 132.857L105.753 132.375Z" fill="url(#paint34_linear_3606_15479)"/>
<path d="M92.4442 120.817C85.6712 116.481 79.6131 116.909 79.6131 116.909C80.5226 115.011 82.3678 112.735 83.6882 112.949C82.5702 112.295 80.8713 107.862 81.2227 107.132L88.1752 114.286C85.764 113.346 84.9306 115.023 87.2619 116.527C89.592 118.032 92.4442 120.817 92.4442 120.817Z" fill="url(#paint35_linear_3606_15479)"/>
<path d="M104.086 128.937C95.7999 119.084 92.4055 109.758 98.5462 100.7C104.607 101.767 104.089 106.244 103.234 110.959C101.532 120.343 104.086 128.937 104.086 128.937Z" fill="url(#paint36_linear_3606_15479)"/>
<path d="M111.482 132.636C110.425 128.898 109.847 122.874 112.94 118.989C118.128 112.476 126.925 119.056 122.967 119.866C113.597 121.781 111.482 132.636 111.482 132.636Z" fill="url(#paint37_linear_3606_15479)"/>
<path d="M112.491 103.589C115.893 99.7834 123.738 104.704 118.472 111.514C120.113 108.261 112.295 103.177 109.916 108.089L110.769 105.426L112.491 103.589Z" fill="url(#paint38_linear_3606_15479)"/>
<path d="M107.305 112.494C108.946 102.705 120.485 90.1384 117.155 87.7059C120.529 87.1341 124.19 91.4317 120.12 95.1306C116.049 98.8284 114.57 98.9303 112.67 102.177C110.77 105.424 109.153 108.236 109.153 108.236L108.204 110.574L107.305 112.494Z" fill="url(#paint39_linear_3606_15479)"/>
<path d="M125.471 113.068C123.08 110.608 120.402 105.065 124.385 100.646C129.297 95.1959 138.191 99.6437 133.508 106.804C134.354 103.3 128.524 99.9099 125.755 103.909C124.621 105.548 124.107 108.837 124.107 108.837L125.525 111.565L125.471 113.068Z" fill="url(#paint40_linear_3606_15479)"/>
<path d="M105.753 132.375C102.644 111.598 113.679 98.3283 119.752 94.6786C127.186 90.2106 135.65 91.1949 140.336 97.0701C142.324 99.562 143.221 102.68 142.865 105.849C142.553 108.62 141.313 111.14 139.339 113.058C139.057 113.332 138.759 113.595 138.446 113.845C134.258 117.184 128.133 116.494 124.793 112.307C122.064 108.886 122.627 103.875 126.05 101.15L127.089 102.453C124.389 104.619 123.94 108.564 126.096 111.268C128.863 114.738 133.937 115.309 137.406 112.543C139.546 110.832 140.9 108.39 141.207 105.664C141.514 102.938 140.742 100.256 139.031 98.1115C134.162 92.0068 126.272 92.7065 120.61 96.109C114.892 99.5483 105.155 108.996 106.995 132.569L108.891 132.861L109.285 136.015L106.144 135.531L105.753 132.375Z" fill="url(#paint41_linear_3606_15479)"/>
<path d="M94.5805 118.741C90.4411 111.846 91.0418 105.803 91.0418 105.803C89.119 106.658 86.7908 108.437 86.9668 109.763C86.3458 108.627 81.9627 106.801 81.2227 107.132L88.1752 114.286C87.3039 111.849 89.0046 111.064 90.4411 113.438C91.8787 115.81 94.5805 118.741 94.5805 118.741Z" fill="url(#paint42_linear_3606_15479)"/>
<path d="M66.5669 215.969C53.7137 216.708 44.6028 220.644 42.2325 231.326C47.1693 235 50.0698 231.55 52.91 227.691C58.5636 220.01 66.5669 215.969 66.5669 215.969Z" fill="url(#paint43_linear_3606_15479)"/>
<path d="M74.3336 218.805C70.8891 220.604 66.1131 224.319 65.4133 229.236C64.2384 237.48 75.0638 239.357 72.9346 235.923C67.8928 227.795 74.3336 218.805 74.3336 218.805Z" fill="url(#paint44_linear_3606_15479)"/>
<path d="M53.906 239.483C53.4751 244.57 62.4393 246.895 63.7752 238.391C62.536 241.816 53.4719 239.624 55.41 234.522L54.0605 236.971L53.906 239.483Z" fill="url(#paint45_linear_3606_15479)"/>
<path d="M56.8209 229.597C50.8299 237.511 49.6159 254.528 45.5605 253.778C47.4599 256.623 53.0999 256.335 52.994 250.836C52.8882 245.338 51.9459 244.192 53.002 240.581C54.058 236.97 54.9917 233.865 54.9917 233.865L56.0414 231.57L56.8209 229.597Z" fill="url(#paint46_linear_3606_15479)"/>
<path d="M69.7103 242.41C66.2821 242.361 60.4109 244.221 59.9326 250.149C59.3445 257.464 68.683 260.877 70.6729 252.556C68.7065 255.577 62.2385 253.665 63.2449 248.906C63.657 246.957 65.6976 244.325 65.6976 244.325L68.6542 243.484L69.7103 242.41Z" fill="url(#paint47_linear_3606_15479)"/>
<path d="M70.2105 214.819C52.9689 226.824 50.8971 243.957 52.412 250.878C54.2661 259.35 60.7924 264.829 68.2817 264.202C71.4579 263.937 74.3417 262.449 76.3999 260.015C78.2008 257.886 79.1824 255.255 79.2207 252.503C79.2263 252.108 79.2127 251.713 79.1785 251.314C78.7318 245.976 74.025 241.998 68.6859 242.443C64.325 242.808 61.0688 246.658 61.4372 251.018L63.0978 250.878C62.8178 247.428 65.3795 244.393 68.824 244.105C73.2477 243.735 77.1458 247.032 77.5156 251.453C77.7397 254.184 76.8945 256.844 75.125 258.939C73.3531 261.034 70.8725 262.314 68.1402 262.542C60.3598 263.193 55.4503 256.975 54.037 250.522C52.612 244.004 52.7974 230.436 71.1991 215.591L72.7143 216.769L75.2765 214.891L72.7692 212.94L70.2105 214.819Z" fill="url(#paint48_linear_3606_15479)"/>
<path d="M52.6261 216.056C44.7711 217.78 40.7908 222.364 40.7908 222.364C40.092 220.38 39.7872 217.464 40.8722 216.684C39.6204 217.013 35.2833 215.08 35.0173 214.313L44.9943 214.457C42.6243 215.496 43.2212 217.272 45.9324 216.687C48.6401 216.104 52.6261 216.056 52.6261 216.056Z" fill="url(#paint49_linear_3606_15479)"/>
<path d="M66.6011 213.566C53.7744 212.459 44.7811 208.265 42.7168 197.517C47.757 193.986 50.5562 197.519 53.2857 201.457C58.7169 209.297 66.6011 213.566 66.6011 213.566Z" fill="url(#paint50_linear_3606_15479)"/>
<path d="M74.4461 210.953C71.0546 209.057 66.387 205.206 65.8285 200.272C64.8904 191.997 75.765 190.431 73.5383 193.802C68.2657 201.783 74.4461 210.953 74.4461 210.953Z" fill="url(#paint51_linear_3606_15479)"/>
<path d="M54.6195 189.699C54.3346 184.601 63.3618 182.534 64.4535 191.073C63.3129 187.614 54.1897 189.545 55.9807 194.701L54.702 192.214L54.6195 189.699Z" fill="url(#paint52_linear_3606_15479)"/>
<path d="M57.249 199.663C51.4862 191.581 50.7616 174.535 46.6863 175.169C48.6665 172.379 54.2959 172.829 54.0325 178.323C53.7691 183.816 52.7944 184.934 53.7465 188.573C54.6986 192.213 55.5429 195.344 55.5429 195.344L56.5264 197.668L57.249 199.663Z" fill="url(#paint53_linear_3606_15479)"/>
<path d="M70.5011 187.225C67.0728 187.176 61.2574 185.149 60.9493 179.209C60.5699 171.88 70.0035 168.736 71.7541 177.112C69.8751 174.035 63.355 175.761 64.2245 180.547C64.5806 182.507 66.5449 185.197 66.5449 185.197L69.4761 186.122L70.5011 187.225Z" fill="url(#paint54_linear_3606_15479)"/>
<path d="M70.2102 214.819C53.3198 202.325 51.74 185.139 53.4527 178.265C55.5488 169.849 62.2295 164.56 69.6977 165.401C72.8651 165.758 75.705 167.327 77.6927 169.819C79.4317 171.999 80.3375 174.657 80.2969 177.409C80.2913 177.804 80.2662 178.199 80.2206 178.596C79.6211 183.919 74.8022 187.761 69.4781 187.163C65.1294 186.673 61.9849 182.732 62.4782 178.384L64.1341 178.571C63.7553 182.011 66.229 185.119 69.6638 185.506C74.0751 186.002 78.066 182.818 78.5624 178.409C78.8648 175.686 78.0962 173.003 76.3874 170.858C74.6763 168.713 72.2334 167.363 69.5087 167.057C61.7503 166.183 56.6645 172.258 55.0668 178.668C53.4556 185.142 53.2519 198.709 71.2206 214.076L72.7689 212.942L75.2762 214.893L72.714 216.771L70.2102 214.819Z" fill="url(#paint55_linear_3606_15479)"/>
<path d="M52.6692 213.079C44.8668 211.131 41.0196 206.434 41.0196 206.434C40.2642 208.398 39.876 211.303 40.9382 212.114C39.6963 211.75 35.3055 213.558 35.0177 214.316L44.9947 214.459C42.6543 213.351 43.303 211.594 45.9963 212.256C48.6862 212.917 52.6692 213.079 52.6692 213.079Z" fill="url(#paint56_linear_3606_15479)"/>
<path d="M101.611 301.637C93.0455 311.249 89.3851 320.474 95.2637 329.704C101.352 328.811 100.963 324.321 100.243 319.583C98.811 310.155 101.611 301.637 101.611 301.637Z" fill="url(#paint57_linear_3606_15479)"/>
<path d="M109.109 298.151C107.945 301.858 107.195 307.862 110.176 311.835C115.175 318.494 124.157 312.168 120.224 311.246C110.912 309.063 109.109 298.151 109.109 298.151Z" fill="url(#paint58_linear_3606_15479)"/>
<path d="M109.285 327.216C112.577 331.117 120.56 326.423 115.491 319.465C117.038 322.764 109.077 327.622 106.84 322.644L107.617 325.33L109.285 327.216Z" fill="url(#paint59_linear_3606_15479)"/>
<path d="M104.357 318.166C105.716 327.998 116.891 340.89 113.492 343.226C116.848 343.895 120.631 339.704 116.668 335.89C112.705 332.077 111.23 331.932 109.423 328.633C107.617 325.333 106.081 322.476 106.081 322.476L105.2 320.111L104.357 318.166Z" fill="url(#paint60_linear_3606_15479)"/>
<path d="M122.532 318.113C120.072 320.504 117.236 325.968 121.09 330.498C125.846 336.088 134.862 331.896 130.386 324.605C131.132 328.131 125.207 331.353 122.553 327.276C121.467 325.605 121.047 322.303 121.047 322.303L122.543 319.617L122.532 318.113Z" fill="url(#paint61_linear_3606_15479)"/>
<path d="M103.375 298.248C99.6721 318.928 110.322 332.509 116.288 336.331C123.591 341.01 132.079 340.269 136.932 334.53C138.99 332.096 139.976 329.005 139.712 325.828C139.479 323.049 138.312 320.495 136.394 318.521C136.12 318.239 135.83 317.968 135.525 317.71C131.434 314.252 125.292 314.766 121.834 318.856C119.008 322.198 119.427 327.223 122.771 330.045L123.847 328.772C121.21 326.529 120.874 322.574 123.106 319.932C125.972 316.543 131.061 316.118 134.449 318.982C136.539 320.754 137.822 323.234 138.051 325.967C138.28 328.701 137.431 331.359 135.659 333.454C130.617 339.417 122.75 338.491 117.188 334.928C111.571 331.326 102.11 321.604 104.624 298.093L106.528 297.855L107.012 294.714L103.859 295.108L103.375 298.248Z" fill="url(#paint62_linear_3606_15479)"/>
<path d="M91.8163 311.556C87.4809 318.329 87.9082 324.388 87.9082 324.388C86.0107 323.478 83.7344 321.633 83.9483 320.312C83.295 321.43 78.8614 323.129 78.1323 322.777L85.2871 315.824C84.3463 318.235 86.0237 319.069 87.5277 316.738C89.0316 314.409 91.8163 311.556 91.8163 311.556Z" fill="url(#paint63_linear_3606_15479)"/>
<path d="M99.9371 299.915C90.0843 308.201 80.7576 311.596 71.6999 305.455C72.7671 299.394 77.2442 299.912 81.9593 300.767C91.3429 302.469 99.9371 299.915 99.9371 299.915Z" fill="url(#paint64_linear_3606_15479)"/>
<path d="M103.636 292.519C99.8977 293.576 93.874 294.154 89.9889 291.061C83.4756 285.873 90.056 277.076 90.8657 281.034C92.7809 290.404 103.636 292.519 103.636 292.519Z" fill="url(#paint65_linear_3606_15479)"/>
<path d="M74.5875 291.509C70.7821 288.106 75.7029 280.261 82.5126 285.527C79.2599 283.887 74.1755 291.705 79.0876 294.084L76.4243 293.23L74.5875 291.509Z" fill="url(#paint66_linear_3606_15479)"/>
<path d="M83.4936 296.696C73.7045 295.055 61.1379 283.515 58.7054 286.846C58.1336 283.472 62.4312 279.811 66.1301 283.881C69.8279 287.952 69.9298 289.431 73.1765 291.331C76.4231 293.231 79.235 294.848 79.235 294.848L81.5731 295.797L83.4936 296.696Z" fill="url(#paint67_linear_3606_15479)"/>
<path d="M84.0672 278.53C81.6072 280.92 76.064 283.598 71.6456 279.616C66.1942 274.702 70.6432 265.809 77.8033 270.492C74.2998 269.646 70.9093 275.476 74.9084 278.246C76.5474 279.379 79.8367 279.894 79.8367 279.894L82.5644 278.475L84.0672 278.53Z" fill="url(#paint68_linear_3606_15479)"/>
<path d="M103.375 298.248C82.597 301.356 69.3277 290.322 65.6781 284.249C61.21 276.815 62.1943 268.351 68.0695 263.665C70.5614 261.677 73.6795 260.78 76.848 261.136C79.6193 261.448 82.139 262.688 84.0577 264.662C84.3318 264.944 84.5943 265.242 84.844 265.555C88.1833 269.743 87.4936 275.868 83.3066 279.208C79.8853 281.937 74.8742 281.374 72.1498 277.951L73.4528 276.912C75.6187 279.612 79.5634 280.061 82.2674 277.905C85.7372 275.138 86.3081 270.064 83.5421 266.595C81.831 264.455 79.3893 263.101 76.6635 262.794C73.9377 262.487 71.2558 263.259 69.1109 264.97C63.0063 269.839 63.706 277.729 67.1085 283.391C70.5478 289.109 79.9951 298.846 103.568 297.006L103.861 295.11L107.014 294.716L106.529 297.856L103.375 298.248Z" fill="url(#paint69_linear_3606_15479)"/>
<path d="M89.7409 309.421C82.8465 313.56 76.8031 312.959 76.8031 312.959C77.6579 314.882 79.437 317.21 80.763 317.034C79.6267 317.655 77.8015 322.038 78.1329 322.777L85.2877 315.825C82.8505 316.696 82.0655 314.995 84.439 313.559C86.8101 312.122 89.7409 309.421 89.7409 309.421Z" fill="url(#paint70_linear_3606_15479)"/>
<path d="M186.968 337.434C187.707 350.287 191.642 359.397 202.326 361.769C206 356.832 202.548 353.932 198.691 351.091C191.01 345.437 186.968 337.434 186.968 337.434Z" fill="url(#paint71_linear_3606_15479)"/>
<path d="M189.805 329.667C191.603 333.112 195.318 337.888 200.235 338.588C208.48 339.763 210.357 328.938 206.923 331.066C198.795 336.108 189.805 329.667 189.805 329.667Z" fill="url(#paint72_linear_3606_15479)"/>
<path d="M210.483 350.095C215.57 350.526 217.895 341.562 209.392 340.227C212.817 341.466 210.625 350.531 205.523 348.592L207.971 349.942L210.483 350.095Z" fill="url(#paint73_linear_3606_15479)"/>
<path d="M200.597 347.18C208.51 353.172 225.528 354.385 224.778 358.44C227.623 356.541 227.334 350.901 221.836 351.007C216.338 351.113 215.192 352.055 211.581 350.999C207.97 349.943 204.865 349.009 204.865 349.009L202.57 347.959L200.597 347.18Z" fill="url(#paint74_linear_3606_15479)"/>
<path d="M213.41 334.291C213.36 337.719 215.22 343.59 221.149 344.069C228.463 344.657 231.877 335.318 223.555 333.328C226.576 335.295 224.664 341.763 219.906 340.756C217.957 340.344 215.324 338.304 215.324 338.304L214.483 335.347L213.41 334.291Z" fill="url(#paint75_linear_3606_15479)"/>
<path d="M185.819 333.791C197.824 351.032 214.957 353.104 221.878 351.589C230.35 349.735 235.829 343.209 235.202 335.719C234.937 332.543 233.449 329.659 231.015 327.601C228.885 325.8 226.255 324.819 223.502 324.78C223.108 324.775 222.712 324.788 222.314 324.823C216.976 325.269 212.997 329.976 213.443 335.315C213.808 339.676 217.658 342.932 222.016 342.563L221.877 340.902C218.427 341.182 215.392 338.62 215.104 335.176C214.734 330.752 218.031 326.854 222.452 326.484C225.183 326.26 227.843 327.105 229.938 328.875C232.033 330.647 233.313 333.127 233.54 335.86C234.192 343.64 227.973 348.55 221.52 349.963C215.002 351.388 201.435 351.202 186.59 332.801L187.769 331.287L185.89 328.725L183.939 331.232L185.819 333.791Z" fill="url(#paint76_linear_3606_15479)"/>
<path d="M187.055 351.375C188.779 359.229 193.364 363.21 193.364 363.21C191.38 363.909 188.464 364.213 187.684 363.128C188.012 364.38 186.08 368.717 185.313 368.983L185.456 359.006C186.497 361.378 188.271 360.779 187.687 358.068C187.103 355.36 187.055 351.375 187.055 351.375Z" fill="url(#paint77_linear_3606_15479)"/>
<path d="M184.566 337.4C183.458 350.227 179.263 359.221 168.517 361.284C164.986 356.244 168.518 353.444 172.457 350.715C180.296 345.284 184.566 337.4 184.566 337.4Z" fill="url(#paint78_linear_3606_15479)"/>
<path d="M181.952 329.555C180.056 332.946 176.206 337.614 171.271 338.172C162.996 339.11 161.431 328.236 164.801 330.462C172.782 335.735 181.952 329.555 181.952 329.555Z" fill="url(#paint79_linear_3606_15479)"/>
<path d="M160.698 349.381C155.601 349.666 153.533 340.639 162.072 339.547C158.613 340.688 160.545 349.811 165.7 348.02L163.214 349.299L160.698 349.381Z" fill="url(#paint80_linear_3606_15479)"/>
<path d="M170.664 346.751C162.581 352.513 145.536 353.238 146.17 357.314C143.38 355.334 143.83 349.704 149.323 349.968C154.816 350.231 155.934 351.206 159.574 350.254C163.214 349.301 166.345 348.457 166.345 348.457L168.669 347.474L170.664 346.751Z" fill="url(#paint81_linear_3606_15479)"/>
<path d="M158.224 333.498C158.175 336.927 156.148 342.742 150.208 343.05C142.879 343.429 139.735 333.996 148.11 332.246C145.034 334.124 146.76 340.645 151.545 339.775C153.505 339.419 156.195 337.455 156.195 337.455L157.121 334.523L158.224 333.498Z" fill="url(#paint82_linear_3606_15479)"/>
<path d="M185.819 333.79C173.325 350.681 156.139 352.26 149.265 350.548C140.849 348.452 135.56 341.771 136.401 334.303C136.757 331.135 138.327 328.295 140.819 326.308C142.999 324.569 145.657 323.663 148.409 323.704C148.804 323.709 149.199 323.734 149.596 323.78C154.919 324.379 158.761 329.198 158.163 334.522C157.673 338.871 153.731 342.016 149.384 341.522L149.571 339.866C153.011 340.245 156.119 337.772 156.506 334.337C157.002 329.925 153.818 325.934 149.409 325.438C146.686 325.136 144.003 325.904 141.858 327.613C139.713 329.324 138.363 331.767 138.057 334.492C137.183 342.25 143.258 347.336 149.667 348.934C156.142 350.545 169.709 350.749 185.075 332.78L183.942 331.232L185.893 328.724L187.771 331.286L185.819 333.79Z" fill="url(#paint83_linear_3606_15479)"/>
<path d="M184.078 351.331C182.129 359.133 177.432 362.98 177.432 362.98C179.396 363.736 182.302 364.124 183.113 363.062C182.748 364.304 184.556 368.694 185.315 368.982L185.458 359.005C184.35 361.344 182.593 360.697 183.255 358.004C183.917 355.31 184.078 351.331 184.078 351.331Z" fill="url(#paint84_linear_3606_15479)"/>
<path d="M272.637 302.39C282.248 310.956 291.472 314.615 300.704 308.737C299.811 302.649 295.32 303.038 290.583 303.758C281.154 305.19 272.637 302.39 272.637 302.39Z" fill="url(#paint85_linear_3606_15479)"/>
<path d="M269.151 294.892C272.859 296.056 278.862 296.806 282.834 293.825C289.494 288.826 283.168 279.844 282.245 283.777C280.062 293.089 269.151 294.892 269.151 294.892Z" fill="url(#paint86_linear_3606_15479)"/>
<path d="M298.215 294.716C302.117 291.424 297.422 283.439 290.465 288.509C293.763 286.963 298.622 294.923 293.643 297.16L296.33 296.384L298.215 294.716Z" fill="url(#paint87_linear_3606_15479)"/>
<path d="M289.166 299.644C298.998 298.285 311.89 287.11 314.226 290.509C314.894 287.153 310.703 283.37 306.889 287.333C303.076 291.296 302.932 292.771 299.632 294.578C296.332 296.384 293.475 297.92 293.475 297.92L291.111 298.801L289.166 299.644Z" fill="url(#paint88_linear_3606_15479)"/>
<path d="M289.112 281.469C291.503 283.929 296.967 286.765 301.498 282.911C307.087 278.156 302.896 269.139 295.604 273.614C299.13 272.869 302.352 278.794 298.276 281.448C296.605 282.534 293.302 282.954 293.302 282.954L290.616 281.458L289.112 281.469Z" fill="url(#paint89_linear_3606_15479)"/>
<path d="M269.248 300.626C289.928 304.329 303.508 293.679 307.331 287.713C312.01 280.41 311.269 271.922 305.53 267.069C303.096 265.01 300.005 264.025 296.828 264.289C294.049 264.522 291.494 265.689 289.52 267.608C289.238 267.882 288.967 268.172 288.708 268.477C285.25 272.568 285.764 278.71 289.854 282.169C293.195 284.995 298.221 284.576 301.042 281.232L299.769 280.156C297.527 282.794 293.571 283.129 290.93 280.897C287.541 278.031 287.116 272.942 289.98 269.554C291.752 267.464 294.231 266.181 296.965 265.952C299.698 265.723 302.357 266.572 304.452 268.344C310.414 273.386 309.489 281.253 305.925 286.815C302.324 292.432 292.601 301.893 269.09 299.379L268.852 297.475L265.714 296.989L266.108 300.142L269.248 300.626Z" fill="url(#paint90_linear_3606_15479)"/>
<path d="M282.556 312.184C289.329 316.52 295.388 316.092 295.388 316.092C294.478 317.99 292.633 320.266 291.312 320.052C292.431 320.705 294.13 325.14 293.778 325.869L286.824 318.713C289.235 319.654 290.069 317.977 287.738 316.473C285.409 314.969 282.556 312.184 282.556 312.184Z" fill="url(#paint91_linear_3606_15479)"/>
<path d="M270.914 304.064C279.201 313.917 282.594 323.242 276.454 332.301C270.394 331.234 270.912 326.757 271.767 322.042C273.469 312.658 270.914 304.064 270.914 304.064Z" fill="url(#paint92_linear_3606_15479)"/>
<path d="M263.519 300.365C264.577 304.104 265.154 310.127 262.06 314.012C256.872 320.525 248.076 313.944 252.033 313.135C261.404 311.22 263.519 300.365 263.519 300.365Z" fill="url(#paint93_linear_3606_15479)"/>
<path d="M262.509 329.413C259.106 333.219 251.26 328.297 256.527 321.488C254.887 324.741 262.705 329.825 265.083 324.913L264.23 327.576L262.509 329.413Z" fill="url(#paint94_linear_3606_15479)"/>
<path d="M267.696 320.507C266.055 330.296 254.515 342.863 257.846 345.296C254.472 345.867 250.811 341.57 254.881 337.871C258.952 334.173 260.431 334.071 262.331 330.824C264.231 327.578 265.848 324.766 265.848 324.766L266.797 322.428L267.696 320.507Z" fill="url(#paint95_linear_3606_15479)"/>
<path d="M249.529 319.933C251.92 322.393 254.598 327.937 250.616 332.355C245.702 337.806 236.809 333.357 241.492 326.197C240.646 329.701 246.476 333.091 249.245 329.092C250.379 327.453 250.894 324.164 250.894 324.164L249.475 321.436L249.529 319.933Z" fill="url(#paint96_linear_3606_15479)"/>
<path d="M269.248 300.626C272.356 321.404 261.322 334.673 255.248 338.323C247.815 342.791 239.351 341.806 234.665 335.931C232.677 333.439 231.78 330.321 232.135 327.153C232.448 324.382 233.687 321.862 235.662 319.943C235.944 319.669 236.242 319.406 236.554 319.157C240.743 315.817 246.868 316.507 250.208 320.694C252.937 324.116 252.374 329.127 248.951 331.851L247.911 330.548C250.612 328.382 251.061 324.437 248.905 321.733C246.138 318.264 241.063 317.693 237.595 320.459C235.455 322.17 234.101 324.612 233.794 327.337C233.487 330.063 234.259 332.745 235.97 334.89C240.839 340.995 248.729 340.295 254.391 336.892C260.109 333.453 269.845 324.006 268.006 300.433L266.11 300.14L265.714 296.989L268.854 297.473L269.248 300.626Z" fill="url(#paint97_linear_3606_15479)"/>
<path d="M280.42 314.26C284.559 321.155 283.959 327.198 283.959 327.198C285.881 326.343 288.21 324.564 288.034 323.238C288.655 324.374 293.039 326.201 293.778 325.869L286.824 318.713C287.695 321.151 285.995 321.936 284.558 319.562C283.122 317.191 280.42 314.26 280.42 314.26Z" fill="url(#paint98_linear_3606_15479)"/>
<path d="M308.434 217.033C321.287 216.294 330.397 212.359 332.769 201.676C327.832 198.001 324.931 201.451 322.091 205.31C316.437 212.991 308.434 217.033 308.434 217.033Z" fill="url(#paint99_linear_3606_15479)"/>
<path d="M300.667 214.196C304.111 212.397 308.887 208.682 309.587 203.765C310.762 195.521 299.938 193.643 302.066 197.078C307.107 205.206 300.667 214.196 300.667 214.196Z" fill="url(#paint100_linear_3606_15479)"/>
<path d="M321.095 193.518C321.526 188.431 312.561 186.106 311.225 194.61C312.465 191.185 321.529 193.377 319.591 198.479L320.94 196.031L321.095 193.518Z" fill="url(#paint101_linear_3606_15479)"/>
<path d="M318.181 203.403C324.172 195.489 325.386 178.472 329.441 179.222C327.542 176.377 321.902 176.666 322.008 182.164C322.114 187.662 323.056 188.808 322 192.419C320.944 196.03 320.01 199.135 320.01 199.135L318.96 201.43L318.181 203.403Z" fill="url(#paint102_linear_3606_15479)"/>
<path d="M305.289 190.59C308.718 190.639 314.589 188.78 315.067 182.851C315.655 175.536 306.317 172.123 304.327 180.444C306.293 177.423 312.761 179.335 311.755 184.094C311.343 186.043 309.302 188.675 309.302 188.675L306.346 189.516L305.289 190.59Z" fill="url(#paint103_linear_3606_15479)"/>
<path d="M304.79 218.182C322.032 206.177 324.103 189.044 322.588 182.123C320.734 173.651 314.208 168.172 306.719 168.799C303.542 169.064 300.659 170.552 298.6 172.986C296.8 175.115 295.818 177.746 295.78 180.499C295.774 180.893 295.788 181.289 295.822 181.687C296.269 187.025 300.975 191.003 306.314 190.558C310.675 190.193 313.932 186.343 313.562 181.985L311.901 182.124C312.181 185.574 309.62 188.609 306.175 188.897C301.753 189.266 297.853 185.97 297.484 181.549C297.259 178.818 298.105 176.158 299.874 174.063C301.646 171.968 304.127 170.688 306.859 170.461C314.639 169.809 319.549 176.028 320.962 182.48C322.387 188.999 322.202 202.566 303.8 217.411L302.285 216.233L299.723 218.112L302.23 220.063L304.79 218.182Z" fill="url(#paint104_linear_3606_15479)"/>
<path d="M322.373 216.944C330.228 215.22 334.209 210.635 334.209 210.635C334.907 212.62 335.212 215.536 334.127 216.316C335.379 215.987 339.716 217.92 339.982 218.686L330.005 218.543C332.376 217.502 331.778 215.728 329.067 216.313C326.359 216.896 322.373 216.944 322.373 216.944Z" fill="url(#paint105_linear_3606_15479)"/>
<path d="M308.399 219.435C321.226 220.542 330.219 224.736 332.284 235.484C327.243 239.015 324.444 235.482 321.715 231.544C316.284 223.704 308.399 219.435 308.399 219.435Z" fill="url(#paint106_linear_3606_15479)"/>
<path d="M300.554 222.048C303.946 223.945 308.613 227.795 309.172 232.73C310.11 241.005 299.236 242.571 301.462 239.199C306.735 231.219 300.554 222.048 300.554 222.048Z" fill="url(#paint107_linear_3606_15479)"/>
<path d="M320.381 243.303C320.666 248.4 311.639 250.468 310.549 241.93C311.689 245.389 320.812 243.457 319.021 238.302L320.3 240.788L320.381 243.303Z" fill="url(#paint108_linear_3606_15479)"/>
<path d="M317.75 233.337C323.513 241.419 324.238 258.465 328.313 257.831C326.333 260.621 320.703 260.171 320.967 254.678C321.23 249.185 322.205 248.067 321.253 244.427C320.301 240.787 319.456 237.656 319.456 237.656L318.473 235.332L317.75 233.337Z" fill="url(#paint109_linear_3606_15479)"/>
<path d="M304.498 245.777C307.927 245.826 313.742 247.853 314.05 253.793C314.428 261.121 304.996 264.266 303.245 255.891C305.124 258.967 311.644 257.241 310.775 252.456C310.419 250.496 308.454 247.806 308.454 247.806L305.523 246.88L304.498 245.777Z" fill="url(#paint110_linear_3606_15479)"/>
<path d="M304.79 218.182C321.681 230.676 323.26 247.862 321.548 254.736C319.452 263.152 312.771 268.441 305.303 267.6C302.135 267.243 299.295 265.674 297.308 263.182C295.569 261.002 294.663 258.344 294.704 255.592C294.709 255.197 294.734 254.802 294.78 254.405C295.379 249.082 300.198 245.24 305.522 245.838C309.871 246.328 313.015 250.269 312.521 254.616L310.865 254.429C311.244 250.988 308.77 247.881 305.336 247.494C300.924 246.998 296.933 250.181 296.437 254.59C296.135 257.314 296.903 259.997 298.612 262.142C300.323 264.287 302.766 265.637 305.491 265.943C313.249 266.817 318.335 260.742 319.933 254.332C321.544 247.858 321.747 234.291 303.779 218.924L302.231 220.059L299.724 218.108L302.286 216.23L304.79 218.182Z" fill="url(#paint111_linear_3606_15479)"/>
<path d="M322.332 219.922C330.134 221.87 333.981 226.567 333.981 226.567C334.737 224.604 335.125 221.698 334.063 220.887C335.305 221.251 339.695 219.444 339.983 218.685L330.006 218.542C332.347 219.651 331.698 221.407 329.004 220.745C326.315 220.084 322.332 219.922 322.332 219.922Z" fill="url(#paint112_linear_3606_15479)"/>
<defs>
<linearGradient id="paint0_linear_3606_15479" x1="261.88" y1="-4.00568" x2="380.887" y2="262.561" gradientUnits="userSpaceOnUse">
<stop stop-color="#FFE5A8"/>
<stop offset="1" stop-color="#CA920E"/>
<stop offset="1" stop-color="#E8B439"/>
</linearGradient>
<linearGradient id="paint1_linear_3606_15479" x1="286.877" y1="94.2566" x2="298.877" y2="115.447" gradientUnits="userSpaceOnUse">
<stop stop-color="#FFE5A8"/>
<stop offset="1" stop-color="#CA920E"/>
<stop offset="1" stop-color="#E8B439"/>
</linearGradient>
<linearGradient id="paint2_linear_3606_15479" x1="262.148" y1="112.297" x2="264.524" y2="133.844" gradientUnits="userSpaceOnUse">
<stop stop-color="#FFE5A8"/>
<stop offset="1" stop-color="#CA920E"/>
<stop offset="1" stop-color="#E8B439"/>
</linearGradient>
<linearGradient id="paint3_linear_3606_15479" x1="265.94" y1="99.2973" x2="271.42" y2="111.166" gradientUnits="userSpaceOnUse">
<stop stop-color="#FFE5A8"/>
<stop offset="1" stop-color="#CA920E"/>
<stop offset="1" stop-color="#E8B439"/>
</linearGradient>
<linearGradient id="paint4_linear_3606_15479" x1="264.012" y1="84.9334" x2="265.508" y2="113.58" gradientUnits="userSpaceOnUse">
<stop stop-color="#FFE5A8"/>
<stop offset="1" stop-color="#CA920E"/>
<stop offset="1" stop-color="#E8B439"/>
</linearGradient>
<linearGradient id="paint5_linear_3606_15479" x1="252.585" y1="93.7778" x2="258.352" y2="112.518" gradientUnits="userSpaceOnUse">
<stop stop-color="#FFE5A8"/>
<stop offset="1" stop-color="#CA920E"/>
<stop offset="1" stop-color="#E8B439"/>
</linearGradient>
<linearGradient id="paint6_linear_3606_15479" x1="259.15" y1="77.8921" x2="269.453" y2="138.891" gradientUnits="userSpaceOnUse">
<stop stop-color="#FFE5A8"/>
<stop offset="1" stop-color="#CA920E"/>
<stop offset="1" stop-color="#E8B439"/>
</linearGradient>
<linearGradient id="paint7_linear_3606_15479" x1="297.307" y1="98.6874" x2="303.864" y2="108.129" gradientUnits="userSpaceOnUse">
<stop stop-color="#FFE5A8"/>
<stop offset="1" stop-color="#CA920E"/>
<stop offset="1" stop-color="#E8B439"/>
</linearGradient>
<linearGradient id="paint8_linear_3606_15479" x1="300.547" y1="108.324" x2="312.547" y2="129.514" gradientUnits="userSpaceOnUse">
<stop stop-color="#FFE5A8"/>
<stop offset="1" stop-color="#CA920E"/>
<stop offset="1" stop-color="#E8B439"/>
</linearGradient>
<linearGradient id="paint9_linear_3606_15479" x1="280.711" y1="131.4" x2="283.086" y2="152.946" gradientUnits="userSpaceOnUse">
<stop stop-color="#FFE5A8"/>
<stop offset="1" stop-color="#CA920E"/>
<stop offset="1" stop-color="#E8B439"/>
</linearGradient>
<linearGradient id="paint10_linear_3606_15479" x1="300.297" y1="134.655" x2="305.778" y2="146.524" gradientUnits="userSpaceOnUse">
<stop stop-color="#FFE5A8"/>
<stop offset="1" stop-color="#CA920E"/>
<stop offset="1" stop-color="#E8B439"/>
</linearGradient>
<linearGradient id="paint11_linear_3606_15479" x1="303.041" y1="125.098" x2="304.537" y2="153.744" gradientUnits="userSpaceOnUse">
<stop stop-color="#FFE5A8"/>
<stop offset="1" stop-color="#CA920E"/>
<stop offset="1" stop-color="#E8B439"/>
</linearGradient>
<linearGradient id="paint12_linear_3606_15479" x1="301.544" y1="144.16" x2="307.311" y2="162.9" gradientUnits="userSpaceOnUse">
<stop stop-color="#FFE5A8"/>
<stop offset="1" stop-color="#CA920E"/>
<stop offset="1" stop-color="#E8B439"/>
</linearGradient>
<linearGradient id="paint13_linear_3606_15479" x1="292.293" y1="111.999" x2="302.597" y2="172.997" gradientUnits="userSpaceOnUse">
<stop stop-color="#FFE5A8"/>
<stop offset="1" stop-color="#CA920E"/>
<stop offset="1" stop-color="#E8B439"/>
</linearGradient>
<linearGradient id="paint14_linear_3606_15479" x1="302.86" y1="104.401" x2="309.417" y2="113.843" gradientUnits="userSpaceOnUse">
<stop stop-color="#FFE5A8"/>
<stop offset="1" stop-color="#CA920E"/>
<stop offset="1" stop-color="#E8B439"/>
</linearGradient>
<linearGradient id="paint15_linear_3606_15479" x1="177.87" y1="66.1839" x2="175.578" y2="93.0682" gradientUnits="userSpaceOnUse">
<stop stop-color="#FFE5A8"/>
<stop offset="1" stop-color="#CA920E"/>
<stop offset="1" stop-color="#E8B439"/>
</linearGradient>
<linearGradient id="paint16_linear_3606_15479" x1="178.787" y1="86.4193" x2="186.137" y2="107.206" gradientUnits="userSpaceOnUse">
<stop stop-color="#FFE5A8"/>
<stop offset="1" stop-color="#CA920E"/>
<stop offset="1" stop-color="#E8B439"/>
</linearGradient>
<linearGradient id="paint17_linear_3606_15479" x1="168.866" y1="76.7715" x2="174.488" y2="88.2687" gradientUnits="userSpaceOnUse">
<stop stop-color="#FFE5A8"/>
<stop offset="1" stop-color="#CA920E"/>
<stop offset="1" stop-color="#E8B439"/>
</linearGradient>
<linearGradient id="paint18_linear_3606_15479" x1="161.85" y1="63.1754" x2="168.025" y2="93.3309" gradientUnits="userSpaceOnUse">
<stop stop-color="#FFE5A8"/>
<stop offset="1" stop-color="#CA920E"/>
<stop offset="1" stop-color="#E8B439"/>
</linearGradient>
<linearGradient id="paint19_linear_3606_15479" x1="157.739" y1="81.6626" x2="164.722" y2="100.365" gradientUnits="userSpaceOnUse">
<stop stop-color="#FFE5A8"/>
<stop offset="1" stop-color="#CA920E"/>
<stop offset="1" stop-color="#E8B439"/>
</linearGradient>
<linearGradient id="paint20_linear_3606_15479" x1="173.916" y1="57.1284" x2="194.956" y2="112.837" gradientUnits="userSpaceOnUse">
<stop stop-color="#FFE5A8"/>
<stop offset="1" stop-color="#CA920E"/>
<stop offset="1" stop-color="#E8B439"/>
</linearGradient>
<linearGradient id="paint21_linear_3606_15479" x1="193.256" y1="58.5002" x2="200.755" y2="74.6303" gradientUnits="userSpaceOnUse">
<stop stop-color="#FFE5A8"/>
<stop offset="1" stop-color="#CA920E"/>
<stop offset="1" stop-color="#E8B439"/>
</linearGradient>
<linearGradient id="paint22_linear_3606_15479" x1="213.954" y1="60.2683" x2="221.874" y2="70.5765" gradientUnits="userSpaceOnUse">
<stop stop-color="#FFE5A8"/>
<stop offset="1" stop-color="#CA920E"/>
<stop offset="1" stop-color="#E8B439"/>
</linearGradient>
<linearGradient id="paint23_linear_3606_15479" x1="209.939" y1="85.7326" x2="218.625" y2="102.126" gradientUnits="userSpaceOnUse">
<stop stop-color="#FFE5A8"/>
<stop offset="1" stop-color="#CA920E"/>
<stop offset="1" stop-color="#E8B439"/>
</linearGradient>
<linearGradient id="paint24_linear_3606_15479" x1="216.664" y1="77.8256" x2="221.862" y2="90.7692" gradientUnits="userSpaceOnUse">
<stop stop-color="#FFE5A8"/>
<stop offset="1" stop-color="#CA920E"/>
<stop offset="1" stop-color="#E8B439"/>
</linearGradient>
<linearGradient id="paint25_linear_3606_15479" x1="230.748" y1="60.5861" x2="241.7" y2="77.8921" gradientUnits="userSpaceOnUse">
<stop stop-color="#FFE5A8"/>
<stop offset="1" stop-color="#CA920E"/>
<stop offset="1" stop-color="#E8B439"/>
</linearGradient>
<linearGradient id="paint26_linear_3606_15479" x1="230.284" y1="81.875" x2="238.231" y2="97.3514" gradientUnits="userSpaceOnUse">
<stop stop-color="#FFE5A8"/>
<stop offset="1" stop-color="#CA920E"/>
<stop offset="1" stop-color="#E8B439"/>
</linearGradient>
<linearGradient id="paint27_linear_3606_15479" x1="233.088" y1="55.6419" x2="256.845" y2="102.236" gradientUnits="userSpaceOnUse">
<stop stop-color="#FFE5A8"/>
<stop offset="1" stop-color="#CA920E"/>
<stop offset="1" stop-color="#E8B439"/>
</linearGradient>
<linearGradient id="paint28_linear_3606_15479" x1="195.116" y1="58.7398" x2="202.371" y2="75.709" gradientUnits="userSpaceOnUse">
<stop stop-color="#FFE5A8"/>
<stop offset="1" stop-color="#CA920E"/>
<stop offset="1" stop-color="#E8B439"/>
</linearGradient>
<linearGradient id="paint29_linear_3606_15479" x1="91.4078" y1="107.636" x2="100.586" y2="137.633" gradientUnits="userSpaceOnUse">
<stop stop-color="#FFE5A8"/>
<stop offset="1" stop-color="#CA920E"/>
<stop offset="1" stop-color="#E8B439"/>
</linearGradient>
<linearGradient id="paint30_linear_3606_15479" x1="106.067" y1="125.567" x2="113.265" y2="136.083" gradientUnits="userSpaceOnUse">
<stop stop-color="#FFE5A8"/>
<stop offset="1" stop-color="#CA920E"/>
<stop offset="1" stop-color="#E8B439"/>
</linearGradient>
<linearGradient id="paint31_linear_3606_15479" x1="83.5696" y1="131.678" x2="88.9022" y2="144.054" gradientUnits="userSpaceOnUse">
<stop stop-color="#FFE5A8"/>
<stop offset="1" stop-color="#CA920E"/>
<stop offset="1" stop-color="#E8B439"/>
</linearGradient>
<linearGradient id="paint32_linear_3606_15479" x1="87.0851" y1="116.926" x2="96.2357" y2="129.774" gradientUnits="userSpaceOnUse">
<stop stop-color="#FFE5A8"/>
<stop offset="1" stop-color="#CA920E"/>
<stop offset="1" stop-color="#E8B439"/>
</linearGradient>
<linearGradient id="paint33_linear_3606_15479" x1="84.2551" y1="139.616" x2="91.764" y2="152.906" gradientUnits="userSpaceOnUse">
<stop stop-color="#FFE5A8"/>
<stop offset="1" stop-color="#CA920E"/>
<stop offset="1" stop-color="#E8B439"/>
</linearGradient>
<linearGradient id="paint34_linear_3606_15479" x1="112.218" y1="101.346" x2="133.656" y2="134.148" gradientUnits="userSpaceOnUse">
<stop stop-color="#FFE5A8"/>
<stop offset="1" stop-color="#CA920E"/>
<stop offset="1" stop-color="#E8B439"/>
</linearGradient>
<linearGradient id="paint35_linear_3606_15479" x1="83.9294" y1="104.501" x2="85.7248" y2="124.451" gradientUnits="userSpaceOnUse">
<stop stop-color="#FFE5A8"/>
<stop offset="1" stop-color="#CA920E"/>
<stop offset="1" stop-color="#E8B439"/>
</linearGradient>
<linearGradient id="paint36_linear_3606_15479" x1="105.475" y1="93.9667" x2="114.653" y2="123.963" gradientUnits="userSpaceOnUse">
<stop stop-color="#FFE5A8"/>
<stop offset="1" stop-color="#CA920E"/>
<stop offset="1" stop-color="#E8B439"/>
</linearGradient>
<linearGradient id="paint37_linear_3606_15479" x1="125.17" y1="107.004" x2="132.368" y2="117.52" gradientUnits="userSpaceOnUse">
<stop stop-color="#FFE5A8"/>
<stop offset="1" stop-color="#CA920E"/>
<stop offset="1" stop-color="#E8B439"/>
</linearGradient>
<linearGradient id="paint38_linear_3606_15479" x1="118.927" y1="97.3199" x2="124.26" y2="109.696" gradientUnits="userSpaceOnUse">
<stop stop-color="#FFE5A8"/>
<stop offset="1" stop-color="#CA920E"/>
<stop offset="1" stop-color="#E8B439"/>
</linearGradient>
<linearGradient id="paint39_linear_3606_15479" x1="127.249" y1="77.897" x2="136.4" y2="90.7451" gradientUnits="userSpaceOnUse">
<stop stop-color="#FFE5A8"/>
<stop offset="1" stop-color="#CA920E"/>
<stop offset="1" stop-color="#E8B439"/>
</linearGradient>
<linearGradient id="paint40_linear_3606_15479" x1="134.637" y1="90.6585" x2="142.146" y2="103.948" gradientUnits="userSpaceOnUse">
<stop stop-color="#FFE5A8"/>
<stop offset="1" stop-color="#CA920E"/>
<stop offset="1" stop-color="#E8B439"/>
</linearGradient>
<linearGradient id="paint41_linear_3606_15479" x1="146.323" y1="68.2049" x2="167.761" y2="101.007" gradientUnits="userSpaceOnUse">
<stop stop-color="#FFE5A8"/>
<stop offset="1" stop-color="#CA920E"/>
<stop offset="1" stop-color="#E8B439"/>
</linearGradient>
<linearGradient id="paint42_linear_3606_15479" x1="89.6438" y1="98.9485" x2="91.4392" y2="118.898" gradientUnits="userSpaceOnUse">
<stop stop-color="#FFE5A8"/>
<stop offset="1" stop-color="#CA920E"/>
<stop offset="1" stop-color="#E8B439"/>
</linearGradient>
<linearGradient id="paint43_linear_3606_15479" x1="69.8942" y1="200.256" x2="77.8143" y2="210.564" gradientUnits="userSpaceOnUse">
<stop stop-color="#FFE5A8"/>
<stop offset="1" stop-color="#CA920E"/>
<stop offset="1" stop-color="#E8B439"/>
</linearGradient>
<linearGradient id="paint44_linear_3606_15479" x1="79.3219" y1="212.658" x2="88.0073" y2="229.051" gradientUnits="userSpaceOnUse">
<stop stop-color="#FFE5A8"/>
<stop offset="1" stop-color="#CA920E"/>
<stop offset="1" stop-color="#E8B439"/>
</linearGradient>
<linearGradient id="paint45_linear_3606_15479" x1="60.907" y1="229.18" x2="66.1044" y2="242.124" gradientUnits="userSpaceOnUse">
<stop stop-color="#FFE5A8"/>
<stop offset="1" stop-color="#CA920E"/>
<stop offset="1" stop-color="#E8B439"/>
</linearGradient>
<linearGradient id="paint46_linear_3606_15479" x1="65.3097" y1="221.348" x2="76.2624" y2="238.654" gradientUnits="userSpaceOnUse">
<stop stop-color="#FFE5A8"/>
<stop offset="1" stop-color="#CA920E"/>
<stop offset="1" stop-color="#E8B439"/>
</linearGradient>
<linearGradient id="paint47_linear_3606_15479" x1="72.5263" y1="235.174" x2="80.4734" y2="250.65" gradientUnits="userSpaceOnUse">
<stop stop-color="#FFE5A8"/>
<stop offset="1" stop-color="#CA920E"/>
<stop offset="1" stop-color="#E8B439"/>
</linearGradient>
<linearGradient id="paint48_linear_3606_15479" x1="87.4127" y1="197.2" x2="111.169" y2="243.794" gradientUnits="userSpaceOnUse">
<stop stop-color="#FFE5A8"/>
<stop offset="1" stop-color="#CA920E"/>
<stop offset="1" stop-color="#E8B439"/>
</linearGradient>
<linearGradient id="paint49_linear_3606_15479" x1="47.5802" y1="202.106" x2="54.8353" y2="219.075" gradientUnits="userSpaceOnUse">
<stop stop-color="#FFE5A8"/>
<stop offset="1" stop-color="#CA920E"/>
<stop offset="1" stop-color="#E8B439"/>
</linearGradient>
<linearGradient id="paint50_linear_3606_15479" x1="50.0207" y1="190.42" x2="47.7285" y2="217.304" gradientUnits="userSpaceOnUse">
<stop stop-color="#FFE5A8"/>
<stop offset="1" stop-color="#CA920E"/>
<stop offset="1" stop-color="#E8B439"/>
</linearGradient>
<linearGradient id="paint51_linear_3606_15479" x1="76.1784" y1="186.128" x2="83.5279" y2="206.915" gradientUnits="userSpaceOnUse">
<stop stop-color="#FFE5A8"/>
<stop offset="1" stop-color="#CA920E"/>
<stop offset="1" stop-color="#E8B439"/>
</linearGradient>
<linearGradient id="paint52_linear_3606_15479" x1="62.761" y1="179.877" x2="68.3831" y2="191.374" gradientUnits="userSpaceOnUse">
<stop stop-color="#FFE5A8"/>
<stop offset="1" stop-color="#CA920E"/>
<stop offset="1" stop-color="#E8B439"/>
</linearGradient>
<linearGradient id="paint53_linear_3606_15479" x1="54.9595" y1="167.045" x2="61.134" y2="197.2" gradientUnits="userSpaceOnUse">
<stop stop-color="#FFE5A8"/>
<stop offset="1" stop-color="#CA920E"/>
<stop offset="1" stop-color="#E8B439"/>
</linearGradient>
<linearGradient id="paint54_linear_3606_15479" x1="70.9442" y1="166.004" x2="77.927" y2="184.707" gradientUnits="userSpaceOnUse">
<stop stop-color="#FFE5A8"/>
<stop offset="1" stop-color="#CA920E"/>
<stop offset="1" stop-color="#E8B439"/>
</linearGradient>
<linearGradient id="paint55_linear_3606_15479" x1="80.8614" y1="147.553" x2="101.902" y2="203.261" gradientUnits="userSpaceOnUse">
<stop stop-color="#FFE5A8"/>
<stop offset="1" stop-color="#CA920E"/>
<stop offset="1" stop-color="#E8B439"/>
</linearGradient>
<linearGradient id="paint56_linear_3606_15479" x1="48.2833" y1="199.376" x2="55.7825" y2="215.506" gradientUnits="userSpaceOnUse">
<stop stop-color="#FFE5A8"/>
<stop offset="1" stop-color="#CA920E"/>
<stop offset="1" stop-color="#E8B439"/>
</linearGradient>
<linearGradient id="paint57_linear_3606_15479" x1="109.802" y1="293.678" x2="121.801" y2="314.868" gradientUnits="userSpaceOnUse">
<stop stop-color="#FFE5A8"/>
<stop offset="1" stop-color="#CA920E"/>
<stop offset="1" stop-color="#E8B439"/>
</linearGradient>
<linearGradient id="paint58_linear_3606_15479" x1="112.113" y1="295.232" x2="114.489" y2="316.778" gradientUnits="userSpaceOnUse">
<stop stop-color="#FFE5A8"/>
<stop offset="1" stop-color="#CA920E"/>
<stop offset="1" stop-color="#E8B439"/>
</linearGradient>
<linearGradient id="paint59_linear_3606_15479" x1="116.229" y1="313.521" x2="121.709" y2="325.39" gradientUnits="userSpaceOnUse">
<stop stop-color="#FFE5A8"/>
<stop offset="1" stop-color="#CA920E"/>
<stop offset="1" stop-color="#E8B439"/>
</linearGradient>
<linearGradient id="paint60_linear_3606_15479" x1="108.064" y1="314.564" x2="109.561" y2="343.21" gradientUnits="userSpaceOnUse">
<stop stop-color="#FFE5A8"/>
<stop offset="1" stop-color="#CA920E"/>
<stop offset="1" stop-color="#E8B439"/>
</linearGradient>
<linearGradient id="paint61_linear_3606_15479" x1="126.993" y1="313.778" x2="132.76" y2="332.517" gradientUnits="userSpaceOnUse">
<stop stop-color="#FFE5A8"/>
<stop offset="1" stop-color="#CA920E"/>
<stop offset="1" stop-color="#E8B439"/>
</linearGradient>
<linearGradient id="paint62_linear_3606_15479" x1="118.165" y1="281.206" x2="128.469" y2="342.203" gradientUnits="userSpaceOnUse">
<stop stop-color="#FFE5A8"/>
<stop offset="1" stop-color="#CA920E"/>
<stop offset="1" stop-color="#E8B439"/>
</linearGradient>
<linearGradient id="paint63_linear_3606_15479" x1="96.7685" y1="304.667" x2="103.325" y2="314.109" gradientUnits="userSpaceOnUse">
<stop stop-color="#FFE5A8"/>
<stop offset="1" stop-color="#CA920E"/>
<stop offset="1" stop-color="#E8B439"/>
</linearGradient>
<linearGradient id="paint64_linear_3606_15479" x1="96.1322" y1="279.611" x2="108.132" y2="300.801" gradientUnits="userSpaceOnUse">
<stop stop-color="#FFE5A8"/>
<stop offset="1" stop-color="#CA920E"/>
<stop offset="1" stop-color="#E8B439"/>
</linearGradient>
<linearGradient id="paint65_linear_3606_15479" x1="93.5505" y1="276.13" x2="95.926" y2="297.676" gradientUnits="userSpaceOnUse">
<stop stop-color="#FFE5A8"/>
<stop offset="1" stop-color="#CA920E"/>
<stop offset="1" stop-color="#E8B439"/>
</linearGradient>
<linearGradient id="paint66_linear_3606_15479" x1="81.871" y1="278.163" x2="87.3511" y2="290.032" gradientUnits="userSpaceOnUse">
<stop stop-color="#FFE5A8"/>
<stop offset="1" stop-color="#CA920E"/>
<stop offset="1" stop-color="#E8B439"/>
</linearGradient>
<linearGradient id="paint67_linear_3606_15479" x1="69.035" y1="274.399" x2="70.5314" y2="303.045" gradientUnits="userSpaceOnUse">
<stop stop-color="#FFE5A8"/>
<stop offset="1" stop-color="#CA920E"/>
<stop offset="1" stop-color="#E8B439"/>
</linearGradient>
<linearGradient id="paint68_linear_3606_15479" x1="78.0347" y1="263.395" x2="83.8013" y2="282.134" gradientUnits="userSpaceOnUse">
<stop stop-color="#FFE5A8"/>
<stop offset="1" stop-color="#CA920E"/>
<stop offset="1" stop-color="#E8B439"/>
</linearGradient>
<linearGradient id="paint69_linear_3606_15479" x1="85.0219" y1="247.098" x2="95.3252" y2="308.098" gradientUnits="userSpaceOnUse">
<stop stop-color="#FFE5A8"/>
<stop offset="1" stop-color="#CA920E"/>
<stop offset="1" stop-color="#E8B439"/>
</linearGradient>
<linearGradient id="paint70_linear_3606_15479" x1="91.2163" y1="298.954" x2="97.7732" y2="308.395" gradientUnits="userSpaceOnUse">
<stop stop-color="#FFE5A8"/>
<stop offset="1" stop-color="#CA920E"/>
<stop offset="1" stop-color="#E8B439"/>
</linearGradient>
<linearGradient id="paint71_linear_3606_15479" x1="190.009" y1="334.48" x2="187.716" y2="361.364" gradientUnits="userSpaceOnUse">
<stop stop-color="#FFE5A8"/>
<stop offset="1" stop-color="#CA920E"/>
<stop offset="1" stop-color="#E8B439"/>
</linearGradient>
<linearGradient id="paint72_linear_3606_15479" x1="203.103" y1="316.745" x2="210.453" y2="337.532" gradientUnits="userSpaceOnUse">
<stop stop-color="#FFE5A8"/>
<stop offset="1" stop-color="#CA920E"/>
<stop offset="1" stop-color="#E8B439"/>
</linearGradient>
<linearGradient id="paint73_linear_3606_15479" x1="214.117" y1="335.636" x2="219.739" y2="347.131" gradientUnits="userSpaceOnUse">
<stop stop-color="#FFE5A8"/>
<stop offset="1" stop-color="#CA920E"/>
<stop offset="1" stop-color="#E8B439"/>
</linearGradient>
<linearGradient id="paint74_linear_3606_15479" x1="215.721" y1="332.483" x2="221.896" y2="362.638" gradientUnits="userSpaceOnUse">
<stop stop-color="#FFE5A8"/>
<stop offset="1" stop-color="#CA920E"/>
<stop offset="1" stop-color="#E8B439"/>
</linearGradient>
<linearGradient id="paint75_linear_3606_15479" x1="224.244" y1="323.763" x2="231.227" y2="342.465" gradientUnits="userSpaceOnUse">
<stop stop-color="#FFE5A8"/>
<stop offset="1" stop-color="#CA920E"/>
<stop offset="1" stop-color="#E8B439"/>
</linearGradient>
<linearGradient id="paint76_linear_3606_15479" x1="222.419" y1="293.228" x2="243.46" y2="348.937" gradientUnits="userSpaceOnUse">
<stop stop-color="#FFE5A8"/>
<stop offset="1" stop-color="#CA920E"/>
<stop offset="1" stop-color="#E8B439"/>
</linearGradient>
<linearGradient id="paint77_linear_3606_15479" x1="191.649" y1="346.911" x2="199.148" y2="363.041" gradientUnits="userSpaceOnUse">
<stop stop-color="#FFE5A8"/>
<stop offset="1" stop-color="#CA920E"/>
<stop offset="1" stop-color="#E8B439"/>
</linearGradient>
<linearGradient id="paint78_linear_3606_15479" x1="194.13" y1="328.106" x2="202.05" y2="338.414" gradientUnits="userSpaceOnUse">
<stop stop-color="#FFE5A8"/>
<stop offset="1" stop-color="#CA920E"/>
<stop offset="1" stop-color="#E8B439"/>
</linearGradient>
<linearGradient id="paint79_linear_3606_15479" x1="179.03" y1="315.267" x2="187.716" y2="331.66" gradientUnits="userSpaceOnUse">
<stop stop-color="#FFE5A8"/>
<stop offset="1" stop-color="#CA920E"/>
<stop offset="1" stop-color="#E8B439"/>
</linearGradient>
<linearGradient id="paint80_linear_3606_15479" x1="164.013" y1="335.285" x2="169.21" y2="348.228" gradientUnits="userSpaceOnUse">
<stop stop-color="#FFE5A8"/>
<stop offset="1" stop-color="#CA920E"/>
<stop offset="1" stop-color="#E8B439"/>
</linearGradient>
<linearGradient id="paint81_linear_3606_15479" x1="169.179" y1="328.239" x2="180.132" y2="345.545" gradientUnits="userSpaceOnUse">
<stop stop-color="#FFE5A8"/>
<stop offset="1" stop-color="#CA920E"/>
<stop offset="1" stop-color="#E8B439"/>
</linearGradient>
<linearGradient id="paint82_linear_3606_15479" x1="156.868" y1="321.969" x2="164.815" y2="337.445" gradientUnits="userSpaceOnUse">
<stop stop-color="#FFE5A8"/>
<stop offset="1" stop-color="#CA920E"/>
<stop offset="1" stop-color="#E8B439"/>
</linearGradient>
<linearGradient id="paint83_linear_3606_15479" x1="177.837" y1="290.254" x2="201.593" y2="336.848" gradientUnits="userSpaceOnUse">
<stop stop-color="#FFE5A8"/>
<stop offset="1" stop-color="#CA920E"/>
<stop offset="1" stop-color="#E8B439"/>
</linearGradient>
<linearGradient id="paint84_linear_3606_15479" x1="188.455" y1="347.077" x2="195.71" y2="364.047" gradientUnits="userSpaceOnUse">
<stop stop-color="#FFE5A8"/>
<stop offset="1" stop-color="#CA920E"/>
<stop offset="1" stop-color="#E8B439"/>
</linearGradient>
<linearGradient id="paint85_linear_3606_15479" x1="290.829" y1="284.712" x2="300.007" y2="314.709" gradientUnits="userSpaceOnUse">
<stop stop-color="#FFE5A8"/>
<stop offset="1" stop-color="#CA920E"/>
<stop offset="1" stop-color="#E8B439"/>
</linearGradient>
<linearGradient id="paint86_linear_3606_15479" x1="289.002" y1="275.602" x2="296.2" y2="286.118" gradientUnits="userSpaceOnUse">
<stop stop-color="#FFE5A8"/>
<stop offset="1" stop-color="#CA920E"/>
<stop offset="1" stop-color="#E8B439"/>
</linearGradient>
<linearGradient id="paint87_linear_3606_15479" x1="297.793" y1="281.388" x2="303.126" y2="293.765" gradientUnits="userSpaceOnUse">
<stop stop-color="#FFE5A8"/>
<stop offset="1" stop-color="#CA920E"/>
<stop offset="1" stop-color="#E8B439"/>
</linearGradient>
<linearGradient id="paint88_linear_3606_15479" x1="316.715" y1="272.873" x2="325.866" y2="285.722" gradientUnits="userSpaceOnUse">
<stop stop-color="#FFE5A8"/>
<stop offset="1" stop-color="#CA920E"/>
<stop offset="1" stop-color="#E8B439"/>
</linearGradient>
<linearGradient id="paint89_linear_3606_15479" x1="304.254" y1="265.209" x2="311.763" y2="278.499" gradientUnits="userSpaceOnUse">
<stop stop-color="#FFE5A8"/>
<stop offset="1" stop-color="#CA920E"/>
<stop offset="1" stop-color="#E8B439"/>
</linearGradient>
<linearGradient id="paint90_linear_3606_15479" x1="315.529" y1="242.334" x2="336.965" y2="275.136" gradientUnits="userSpaceOnUse">
<stop stop-color="#FFE5A8"/>
<stop offset="1" stop-color="#CA920E"/>
<stop offset="1" stop-color="#E8B439"/>
</linearGradient>
<linearGradient id="paint91_linear_3606_15479" x1="289.909" y1="305.039" x2="291.705" y2="324.989" gradientUnits="userSpaceOnUse">
<stop stop-color="#FFE5A8"/>
<stop offset="1" stop-color="#CA920E"/>
<stop offset="1" stop-color="#E8B439"/>
</linearGradient>
<linearGradient id="paint92_linear_3606_15479" x1="276.762" y1="298.382" x2="285.94" y2="328.378" gradientUnits="userSpaceOnUse">
<stop stop-color="#FFE5A8"/>
<stop offset="1" stop-color="#CA920E"/>
<stop offset="1" stop-color="#E8B439"/>
</linearGradient>
<linearGradient id="paint93_linear_3606_15479" x1="269.899" y1="294.165" x2="277.097" y2="304.681" gradientUnits="userSpaceOnUse">
<stop stop-color="#FFE5A8"/>
<stop offset="1" stop-color="#CA920E"/>
<stop offset="1" stop-color="#E8B439"/>
</linearGradient>
<linearGradient id="paint94_linear_3606_15479" x1="262.436" y1="315.747" x2="267.768" y2="328.123" gradientUnits="userSpaceOnUse">
<stop stop-color="#FFE5A8"/>
<stop offset="1" stop-color="#CA920E"/>
<stop offset="1" stop-color="#E8B439"/>
</linearGradient>
<linearGradient id="paint95_linear_3606_15479" x1="276.551" y1="311.902" x2="285.701" y2="324.751" gradientUnits="userSpaceOnUse">
<stop stop-color="#FFE5A8"/>
<stop offset="1" stop-color="#CA920E"/>
<stop offset="1" stop-color="#E8B439"/>
</linearGradient>
<linearGradient id="paint96_linear_3606_15479" x1="253.872" y1="314.167" x2="261.381" y2="327.457" gradientUnits="userSpaceOnUse">
<stop stop-color="#FFE5A8"/>
<stop offset="1" stop-color="#CA920E"/>
<stop offset="1" stop-color="#E8B439"/>
</linearGradient>
<linearGradient id="paint97_linear_3606_15479" x1="281.422" y1="275.477" x2="302.858" y2="308.279" gradientUnits="userSpaceOnUse">
<stop stop-color="#FFE5A8"/>
<stop offset="1" stop-color="#CA920E"/>
<stop offset="1" stop-color="#E8B439"/>
</linearGradient>
<linearGradient id="paint98_linear_3606_15479" x1="284.195" y1="310.592" x2="285.99" y2="330.542" gradientUnits="userSpaceOnUse">
<stop stop-color="#FFE5A8"/>
<stop offset="1" stop-color="#CA920E"/>
<stop offset="1" stop-color="#E8B439"/>
</linearGradient>
<linearGradient id="paint99_linear_3606_15479" x1="338.19" y1="188.118" x2="346.11" y2="198.426" gradientUnits="userSpaceOnUse">
<stop stop-color="#FFE5A8"/>
<stop offset="1" stop-color="#CA920E"/>
<stop offset="1" stop-color="#E8B439"/>
</linearGradient>
<linearGradient id="paint100_linear_3606_15479" x1="309.648" y1="188.341" x2="318.333" y2="204.734" gradientUnits="userSpaceOnUse">
<stop stop-color="#FFE5A8"/>
<stop offset="1" stop-color="#CA920E"/>
<stop offset="1" stop-color="#E8B439"/>
</linearGradient>
<linearGradient id="paint101_linear_3606_15479" x1="319.77" y1="183.93" x2="324.967" y2="196.874" gradientUnits="userSpaceOnUse">
<stop stop-color="#FFE5A8"/>
<stop offset="1" stop-color="#CA920E"/>
<stop offset="1" stop-color="#E8B439"/>
</linearGradient>
<linearGradient id="paint102_linear_3606_15479" x1="334.617" y1="167.477" x2="345.57" y2="184.783" gradientUnits="userSpaceOnUse">
<stop stop-color="#FFE5A8"/>
<stop offset="1" stop-color="#CA920E"/>
<stop offset="1" stop-color="#E8B439"/>
</linearGradient>
<linearGradient id="paint103_linear_3606_15479" x1="314.626" y1="168.67" x2="322.573" y2="184.146" gradientUnits="userSpaceOnUse">
<stop stop-color="#FFE5A8"/>
<stop offset="1" stop-color="#CA920E"/>
<stop offset="1" stop-color="#E8B439"/>
</linearGradient>
<linearGradient id="paint104_linear_3606_15479" x1="323.513" y1="148.696" x2="347.269" y2="195.29" gradientUnits="userSpaceOnUse">
<stop stop-color="#FFE5A8"/>
<stop offset="1" stop-color="#CA920E"/>
<stop offset="1" stop-color="#E8B439"/>
</linearGradient>
<linearGradient id="paint105_linear_3606_15479" x1="335.991" y1="203.712" x2="343.246" y2="220.681" gradientUnits="userSpaceOnUse">
<stop stop-color="#FFE5A8"/>
<stop offset="1" stop-color="#CA920E"/>
<stop offset="1" stop-color="#E8B439"/>
</linearGradient>
<linearGradient id="paint106_linear_3606_15479" x1="317.858" y1="210.244" x2="315.566" y2="237.128" gradientUnits="userSpaceOnUse">
<stop stop-color="#FFE5A8"/>
<stop offset="1" stop-color="#CA920E"/>
<stop offset="1" stop-color="#E8B439"/>
</linearGradient>
<linearGradient id="paint107_linear_3606_15479" x1="305.712" y1="217.036" x2="313.062" y2="237.823" gradientUnits="userSpaceOnUse">
<stop stop-color="#FFE5A8"/>
<stop offset="1" stop-color="#CA920E"/>
<stop offset="1" stop-color="#E8B439"/>
</linearGradient>
<linearGradient id="paint108_linear_3606_15479" x1="320.222" y1="232.53" x2="325.844" y2="244.025" gradientUnits="userSpaceOnUse">
<stop stop-color="#FFE5A8"/>
<stop offset="1" stop-color="#CA920E"/>
<stop offset="1" stop-color="#E8B439"/>
</linearGradient>
<linearGradient id="paint109_linear_3606_15479" x1="322.612" y1="228.613" x2="328.786" y2="258.769" gradientUnits="userSpaceOnUse">
<stop stop-color="#FFE5A8"/>
<stop offset="1" stop-color="#CA920E"/>
<stop offset="1" stop-color="#E8B439"/>
</linearGradient>
<linearGradient id="paint110_linear_3606_15479" x1="311.039" y1="239.421" x2="318.022" y2="258.123" gradientUnits="userSpaceOnUse">
<stop stop-color="#FFE5A8"/>
<stop offset="1" stop-color="#CA920E"/>
<stop offset="1" stop-color="#E8B439"/>
</linearGradient>
<linearGradient id="paint111_linear_3606_15479" x1="315.474" y1="202.804" x2="336.514" y2="258.512" gradientUnits="userSpaceOnUse">
<stop stop-color="#FFE5A8"/>
<stop offset="1" stop-color="#CA920E"/>
<stop offset="1" stop-color="#E8B439"/>
</linearGradient>
<linearGradient id="paint112_linear_3606_15479" x1="336.622" y1="206.036" x2="344.121" y2="222.166" gradientUnits="userSpaceOnUse">
<stop stop-color="#FFE5A8"/>
<stop offset="1" stop-color="#CA920E"/>
<stop offset="1" stop-color="#E8B439"/>
</linearGradient>
</defs>
</svg>
