<svg xmlns="http://www.w3.org/2000/svg" width="115" height="41" viewBox="0 0 115 41" fill="none">
  <path d="M1.37474 12.8663C2.37474 12.8182 3.44475 12.8182 4.47475 12.7702C9.09929 12.5876 13.7311 12.6742 18.3447 13.0296C18.8491 15.9904 20.0683 18.7966 21.9047 21.2234C22.7272 22.3014 23.6621 23.296 24.6947 24.1916C25.6692 25.188 26.8804 25.9428 28.2247 26.3914C28.4964 26.45 28.7776 26.4552 29.0513 26.4065C29.3251 26.3578 29.5857 26.2563 29.8175 26.1082C30.0493 25.9601 30.2474 25.7683 30.3999 25.5446C30.5524 25.3209 30.6561 25.0697 30.7047 24.8064C30.8921 23.6585 30.7252 22.483 30.2247 21.4251C29.2895 19.0693 27.6982 17.0058 25.6247 15.4599C24.5571 14.6417 23.3964 13.9424 22.1647 13.3754C24.3947 13.6251 26.6347 13.9325 28.8447 14.336C29.3047 14.4128 29.7547 14.5089 30.2147 14.5953C30.2066 14.6527 30.2066 14.7109 30.2147 14.7682C31.3436 17.5299 32.8071 20.1544 34.5748 22.5874C35.3526 23.6607 36.194 24.6902 37.0947 25.6709C37.8747 26.5066 38.7447 27.5921 40.0247 27.5921C42.8747 27.6497 41.6347 23.8938 41.0247 22.4818C39.8264 19.6693 37.7695 17.2715 35.1247 15.6039C37.5847 16.1899 40.0247 16.8719 42.4547 17.602C42.6895 18.2302 42.9806 18.8377 43.3248 19.4175C43.7248 20.1379 44.1548 20.8392 44.6048 21.5212C45.5285 22.9364 46.572 24.2762 47.7247 25.5268C49.7127 27.7616 52.0466 29.6893 54.6447 31.2424C55.7547 31.8764 57.2947 32.203 58.0847 30.9446C58.8747 29.6862 58.1447 28.303 57.4547 27.1887C55.6687 24.308 53.1763 21.8907 50.1947 20.1475L51.9247 20.7527L58.7047 23.231C58.6909 23.2911 58.6909 23.3534 58.7047 23.4136C60.57 28.0259 63.8124 32.0061 68.0247 34.8542C68.8247 35.3921 69.9647 36.0837 70.9247 35.4593C71.8847 34.835 71.7548 33.7399 71.5448 32.8562C70.9523 30.6541 69.6714 28.6795 67.8747 27.1983C67.2947 26.7007 66.6799 26.2417 66.0347 25.8246C68.7647 26.7372 71.5247 27.5825 74.3248 28.3222L75.4547 28.6007C76.1241 29.7671 76.9112 30.8675 77.8047 31.8859C78.7327 33.0005 79.7348 34.0561 80.8047 35.0463C81.7872 35.9691 82.8257 36.8351 83.9147 37.6399C84.9611 38.4496 86.0863 39.1605 87.2747 39.7628C87.7265 40.1113 88.2898 40.2989 88.8691 40.2938C89.4485 40.2888 90.0081 40.0914 90.4532 39.7351C90.8983 39.3788 91.2013 38.8856 91.311 38.3391C91.4206 37.7927 91.3301 37.2266 91.0547 36.7369C90.2747 34.4411 88.1047 32.616 86.0047 31.4153C85.0774 30.8953 84.1075 30.4488 83.1048 30.0801C86.3897 30.5629 89.7124 30.7686 93.0347 30.6948C93.6713 31.3501 94.3749 31.9422 95.1348 32.4623C96.0103 33.1334 96.9324 33.7464 97.8947 34.297C99.5543 35.314 101.356 36.0999 103.245 36.6313C103.635 36.7729 104.063 36.7934 104.466 36.6901C104.87 36.5867 105.229 36.3646 105.495 36.0549C105.682 35.7151 105.739 35.3226 105.655 34.9465C105.571 34.5704 105.351 34.235 105.035 33.9993C103.673 32.7009 102.068 31.6613 100.305 30.935C99.7247 30.6948 99.1247 30.4643 98.5047 30.2722C104.236 29.6476 109.685 27.5467 114.275 24.1916C114.362 24.1098 114.414 24.0003 114.423 23.8837C114.432 23.7671 114.396 23.6514 114.323 23.5583C114.249 23.4652 114.143 23.4011 114.023 23.378C113.904 23.3549 113.78 23.3744 113.675 23.4328C112.945 23.8554 112.205 24.2492 111.455 24.6239C106.503 27.1474 101.049 28.6307 95.4547 28.9754C96.6121 28.3553 97.6782 27.5897 98.6247 26.6988C100.417 25.0391 101.71 22.9448 102.365 20.6374C102.554 20.0636 102.6 19.4552 102.499 18.8612C102.398 18.2672 102.153 17.7043 101.785 17.2177C101.431 16.8043 100.945 16.5151 100.402 16.3952C99.8596 16.2752 99.2908 16.3314 98.7847 16.5549C97.5758 17.1921 96.5223 18.0697 95.6947 19.1293C93.8798 21.091 92.386 23.3065 91.2648 25.6997C90.6794 26.7712 90.252 27.9157 89.9947 29.1002C87.1376 29.0109 84.2906 28.7284 81.4747 28.2549H81.8147C83.6747 28.3318 85.8147 28.3222 87.2847 27.0446C87.631 26.8122 87.8828 26.4719 87.9977 26.0815C88.1125 25.6911 88.0832 25.2745 87.9147 24.9025C87.4047 24.0956 86.1847 24.0379 85.3147 23.9419C83.0411 23.6438 80.7326 23.6924 78.4747 24.0859C76.3479 24.3927 74.3072 25.1082 72.4747 26.1896L70.8047 25.719C67.3147 24.6719 63.8647 23.4808 60.4347 22.2608C63.4843 22.6655 66.5738 22.7106 69.6348 22.3953C71.0748 22.3747 72.4947 22.0672 73.8047 21.4924C74.3147 21.2437 74.7105 20.8222 74.9155 20.3093C75.1206 19.7965 75.1203 19.2289 74.9147 18.7162C74.622 18.2912 74.2319 17.936 73.7743 17.6779C73.3168 17.4199 72.8038 17.2658 72.2747 17.2273C69.0916 16.7081 65.8354 16.7668 62.6747 17.4002C61.1547 17.6692 59.6747 18.0246 58.1547 18.4281C57.2247 18.6682 56.2848 18.9276 55.3548 19.2062C55.2809 19.2154 55.2096 19.2383 55.1447 19.2734C54.6147 19.4367 54.0747 19.5904 53.5647 19.7825C51.8747 19.187 50.1947 18.5914 48.4947 18.015L48.3147 17.9574C49.114 18.0054 49.9155 18.0054 50.7147 17.9574C51.6877 17.8918 52.654 17.7537 53.6048 17.5443C54.4583 17.4294 55.2783 17.1483 56.0148 16.7182C56.2879 16.5161 56.4764 16.2266 56.5462 15.9022C56.6159 15.5779 56.5622 15.2403 56.3947 14.9507C56.1899 14.6468 55.9163 14.3913 55.5942 14.2034C55.2721 14.0154 54.9099 13.8998 54.5347 13.8653C52.5732 13.5658 50.5657 13.7139 48.6747 14.2975C46.8655 14.794 45.126 15.5005 43.4947 16.4012C41.4947 15.7992 39.4447 15.2421 37.3447 14.7298C38.1647 14.7298 38.9847 14.8066 39.8047 14.8163C41.9847 14.8163 44.8047 14.6433 45.9447 12.53C46.197 12.107 46.2965 11.6157 46.2278 11.1327C46.159 10.6497 45.9259 10.2021 45.5647 9.8596C44.7186 9.2564 43.6759 8.96344 42.6247 9.0335C39.9647 8.94445 37.3071 9.26882 34.7547 9.99409C33.4174 10.3732 32.1187 10.8683 30.8747 11.4734C30.0258 11.8644 29.2186 12.3341 28.4647 12.8759C27.4647 12.703 26.4047 12.5493 25.3647 12.4148C23.2647 12.1458 21.1348 11.9345 19.0148 11.7904L19.4847 11.6943C20.9535 11.3302 22.3585 10.7606 23.6547 10.0037C26.0352 8.70258 27.9308 6.71702 29.0748 4.32658C29.5248 3.23151 29.5647 1.84827 28.3947 1.15664C27.2247 0.465018 25.9547 0.849255 24.8447 1.15664C22.3304 1.89708 20.0549 3.24293 18.2347 5.06626C16.3673 6.85012 15.0549 9.09889 14.4447 11.5599C10.0442 11.434 5.64016 11.646 1.27473 12.1938C1.22877 12.2001 1.18456 12.2151 1.14461 12.2378C1.10465 12.2605 1.06974 12.2906 1.04188 12.3263C1.01403 12.362 0.993775 12.4026 0.982252 12.4458C0.970729 12.489 0.968179 12.5339 0.974745 12.5781C0.981311 12.6222 0.996866 12.6647 1.02052 12.7031C1.04418 12.7415 1.07545 12.775 1.11259 12.8017C1.14974 12.8285 1.19201 12.848 1.23698 12.859C1.28196 12.8701 1.32878 12.8726 1.37474 12.8663ZM91.6747 29.1387C93.6197 27.7466 95.3824 26.1339 96.9247 24.3357C97.7832 23.3211 98.5653 22.2489 99.2648 21.1273C99.9813 20.0631 100.565 18.9218 101.005 17.7268C101.005 17.7268 101.005 17.7268 101.005 17.6692C101.292 17.9056 101.503 18.2154 101.615 18.5625C101.857 19.7688 101.645 21.0187 101.015 22.0879C100.269 23.694 99.2009 25.1427 97.8709 26.3511C96.5409 27.5594 94.9756 28.5034 93.2648 29.1291C92.8248 29.1291 92.3847 29.1291 91.9547 29.1291L91.6747 29.1387ZM90.9347 28.6296L91.2347 27.8419C91.4847 27.2271 91.7548 26.6123 92.0448 26.0167C92.6266 24.8484 93.295 23.7216 94.0448 22.6451C94.6901 21.7054 95.3983 20.807 96.1647 19.9554C96.8974 19.0432 97.7669 18.2403 98.7447 17.5731C99.0249 17.3847 99.3522 17.2711 99.6931 17.2441C100.034 17.2171 100.376 17.2776 100.685 17.4194C100.639 17.4364 100.601 17.4666 100.575 17.5059C99.8948 18.649 99.3447 19.8402 98.5748 20.9544C97.9053 21.9816 97.1635 22.9637 96.3548 23.8938C94.765 25.693 92.9282 27.2765 90.8947 28.6007L90.9347 28.6296ZM89.9347 39.052C88.1708 36.8563 86.1584 34.8556 83.9347 33.0867C82.8347 32.1453 81.7048 31.2359 80.5448 30.3586L79.6947 29.7054C81.7835 30.2877 83.7965 31.0966 85.6947 32.1165C87.705 33.1834 89.2962 34.8536 90.2247 36.8714C90.3744 37.2246 90.4245 37.6095 90.37 37.9872C90.3156 38.3649 90.1586 38.7223 89.9147 39.0232L89.9347 39.052ZM76.7747 28.9177L77.1348 28.9946C77.5748 29.2828 78.0347 29.5517 78.4647 29.8399C79.0781 30.2434 79.6781 30.6564 80.2648 31.0791C81.3948 31.8859 82.4848 32.7217 83.5448 33.5958C84.6048 34.4699 85.7147 35.517 86.7447 36.4776C87.7747 37.4382 88.5947 38.3988 89.5748 39.2921C89.2803 39.4089 88.9556 39.4357 88.6447 39.369C87.4852 39.0283 86.4123 38.459 85.4947 37.6975C83.563 36.3779 81.7829 34.8644 80.1847 33.1828C79.3958 32.3579 78.6547 31.4921 77.9647 30.5892C77.5247 30.0128 77.1447 29.446 76.7547 28.8889L76.7747 28.9177ZM74.0647 19.1197C72.6577 18.9196 71.2371 18.82 69.8147 18.8219C68.2547 18.7739 66.6947 18.7643 65.1247 18.7739C63.1847 18.7739 61.2547 18.8699 59.3147 18.9756C60.5047 18.6778 61.7048 18.4185 62.9147 18.2168C65.69 17.7017 68.5343 17.6271 71.3347 17.9958C72.0947 18.0823 73.6548 18.2456 74.0448 19.0909L74.0647 19.1197ZM54.7347 20.2148L55.2347 20.0707C55.3134 20.0906 55.3961 20.0906 55.4747 20.0707C58.6747 19.7729 61.8848 19.5904 65.1048 19.552C66.7648 19.552 68.4147 19.552 70.1048 19.552C71.4648 19.552 72.8347 19.7057 74.1847 19.6192C74.0647 20.7815 72.1848 21.0601 71.2948 21.1946C68.5348 21.5897 65.7381 21.6927 62.9547 21.502C61.5629 21.4039 60.1776 21.2339 58.8047 20.9928C57.3747 20.7911 56.0647 20.3204 54.7147 20.186L54.7347 20.2148ZM44.3848 19.2542C46.5213 20.6695 48.5286 22.257 50.3848 23.9995C51.5263 25.088 52.6046 26.2361 53.6147 27.4384C54.0947 28.0148 54.6147 28.5911 55.0347 29.1867C55.379 29.7962 55.8326 30.3426 56.3747 30.8005C56.5347 30.8966 56.7847 30.8005 56.7447 30.5988C56.5081 29.9163 56.1267 29.2883 55.6247 28.7544C55.1747 28.1493 54.7147 27.5633 54.2247 26.987C53.2387 25.8155 52.1872 24.6964 51.0748 23.6345C49.1207 21.7386 46.9845 20.0243 44.6947 18.5145C47.0499 19.277 49.2616 20.3993 51.2447 21.8382C53.3159 23.3557 55.0843 25.2204 56.4647 27.3424C56.939 27.9629 57.279 28.6684 57.4647 29.4172C57.5541 29.7153 57.521 30.035 57.3721 30.3103C57.2232 30.5855 56.97 30.7954 56.6647 30.8965C55.9147 31.0502 55.1347 30.4931 54.5547 30.1089C53.9747 29.7246 53.5047 29.4076 53.0047 29.0426C50.8323 27.4376 48.8831 25.5717 47.2047 23.4904C46.3779 22.4784 45.6197 21.4163 44.9347 20.3108C44.7447 19.9554 44.5447 19.5904 44.3747 19.235L44.3848 19.2542ZM30.5647 13.2601C30.9247 13.1736 31.2947 13.0103 31.5647 12.9239C32.2314 12.7382 32.8981 12.5749 33.5647 12.434C34.8247 12.1458 36.0947 11.9153 37.3747 11.7423C38.6947 11.5598 40.0247 11.4446 41.3747 11.3869C42.0047 11.3869 42.6347 11.3869 43.2547 11.3389C43.8562 11.3899 44.4623 11.3378 45.0448 11.1852C45.0769 11.1718 45.1042 11.1496 45.1234 11.1215C45.1426 11.0933 45.1528 11.0604 45.1528 11.0267C45.1528 10.9931 45.1426 10.9601 45.1234 10.932C45.1042 10.9038 45.0769 10.8817 45.0448 10.8682C44.4365 10.6594 43.7873 10.5839 43.1447 10.6473C42.4847 10.6473 41.8247 10.6473 41.1447 10.6473C39.8147 10.7049 38.4847 10.8202 37.1447 11.0027C35.8047 11.1852 34.4447 11.435 33.1447 11.7423C32.6947 11.848 32.2547 11.9633 31.8147 12.0882C32.9017 11.6126 34.0209 11.2082 35.1647 10.8778C37.4383 10.2381 39.7956 9.91461 42.1647 9.91723C43.0648 9.91723 44.3047 9.85959 45.0347 10.484C45.9347 11.2524 45.2147 12.482 44.4247 13.0296C42.5447 14.3552 39.7148 13.9901 37.5448 13.8557C36.2048 13.7788 34.8648 13.6827 33.5448 13.5483L31.6047 13.3273C31.1747 13.3177 30.8648 13.2697 30.5448 13.2409L30.5647 13.2601ZM29.2247 25.3539C29.0418 24.7422 28.7798 24.1548 28.4447 23.6057C28.1181 22.9653 27.7681 22.3601 27.3947 21.7902C26.6566 20.5993 25.8417 19.454 24.9547 18.3608C24.0424 17.2448 23.0641 16.18 22.0247 15.1717C21.5447 14.6914 21.0547 14.2303 20.5547 13.7884L20.3248 13.5771C20.8942 13.7708 21.4517 13.9953 21.9947 14.2495C23.1535 14.8011 24.2409 15.4814 25.2347 16.2763C27.0034 17.6642 28.3792 19.4583 29.2347 21.4924C29.7204 22.4452 29.9046 23.5139 29.7648 24.5662C29.7359 24.7261 29.673 24.8786 29.5801 25.0141C29.4872 25.1496 29.3662 25.2653 29.2247 25.3539ZM19.5247 14.0094C19.6847 14.1246 19.8347 14.2303 19.9647 14.3456C20.5147 14.797 21.0447 15.2581 21.5647 15.748C22.5629 16.7035 23.4949 17.7207 24.3547 18.7931C25.2247 19.8617 26.0294 20.9778 26.7648 22.136C27.1648 22.7507 27.5347 23.3847 27.8847 24.0571C28.1251 24.5461 28.3956 25.0208 28.6947 25.4788C27.9614 25.3737 27.2708 25.0818 26.6947 24.6335C23.0616 22.0274 20.5184 18.2591 19.5247 14.0094ZM17.0347 11.1756C17.8147 10.484 18.5647 9.75393 19.3647 9.08152C20.3647 8.26502 21.3647 7.48694 22.4247 6.73768C23.4847 5.98841 24.6047 5.24875 25.7447 4.56673L27.4247 3.60614C27.773 3.43168 28.1072 3.23261 28.4247 3.01058C28.3124 3.94048 27.9197 4.8186 27.2948 5.53694C25.9058 7.42876 24.0321 8.94416 21.8547 9.93646C20.7731 10.4291 19.6306 10.7874 18.4547 11.0027C17.9857 11.0892 17.5114 11.147 17.0347 11.1756ZM15.3747 11.3005C16.1642 9.13367 17.449 7.16426 19.1347 5.53694C20.7808 4.00512 22.7674 2.85224 24.9447 2.16525C25.8647 1.88668 27.6447 1.32955 28.2547 2.3862C28.2547 2.3862 28.2547 2.43425 28.2547 2.46306C27.7436 2.58397 27.2592 2.79219 26.8248 3.07783C26.2847 3.3564 25.7547 3.66378 25.2347 3.97117C24.0947 4.64358 22.9747 5.35443 21.8847 6.1133C20.7947 6.87216 19.6947 7.71748 18.6547 8.57241C17.6362 9.35771 16.6833 10.2185 15.8047 11.1468C15.7705 11.1781 15.7463 11.218 15.7347 11.2621C15.6139 11.2668 15.4937 11.2797 15.3747 11.3005Z" fill="white"/>
  <path d="M1.37474 12.8663C2.37474 12.8182 3.44475 12.8182 4.47475 12.7702C9.09929 12.5876 13.7311 12.6742 18.3447 13.0296C18.8491 15.9904 20.0683 18.7966 21.9047 21.2234C22.7272 22.3014 23.6621 23.296 24.6947 24.1916C25.6692 25.188 26.8804 25.9428 28.2247 26.3914C28.4964 26.45 28.7776 26.4552 29.0513 26.4065C29.3251 26.3578 29.5857 26.2563 29.8175 26.1082C30.0493 25.9601 30.2474 25.7683 30.3999 25.5446C30.5524 25.3209 30.6561 25.0697 30.7047 24.8064C30.8921 23.6585 30.7252 22.483 30.2247 21.4251C29.2895 19.0693 27.6982 17.0058 25.6247 15.4599C24.5571 14.6417 23.3964 13.9424 22.1647 13.3754C24.3947 13.6251 26.6347 13.9325 28.8447 14.336C29.3047 14.4128 29.7547 14.5089 30.2147 14.5953C30.2066 14.6527 30.2066 14.7109 30.2147 14.7682C31.3436 17.5299 32.8071 20.1544 34.5748 22.5874C35.3526 23.6607 36.194 24.6902 37.0947 25.6709C37.8747 26.5066 38.7447 27.5921 40.0247 27.5921C42.8747 27.6497 41.6347 23.8938 41.0247 22.4818C39.8264 19.6693 37.7695 17.2715 35.1247 15.6039C37.5847 16.1899 40.0247 16.8719 42.4547 17.602C42.6895 18.2302 42.9806 18.8377 43.3248 19.4175C43.7248 20.1379 44.1548 20.8392 44.6048 21.5212C45.5285 22.9364 46.572 24.2762 47.7247 25.5268C49.7127 27.7616 52.0466 29.6893 54.6447 31.2424C55.7547 31.8764 57.2947 32.203 58.0847 30.9446C58.8747 29.6862 58.1447 28.303 57.4547 27.1887C55.6687 24.308 53.1763 21.8907 50.1947 20.1475L51.9247 20.7527L58.7047 23.231C58.6909 23.2911 58.6909 23.3534 58.7047 23.4136C60.57 28.0259 63.8124 32.0061 68.0247 34.8542C68.8247 35.3921 69.9647 36.0837 70.9247 35.4593C71.8847 34.835 71.7548 33.7399 71.5448 32.8562C70.9523 30.6541 69.6714 28.6795 67.8747 27.1983C67.2947 26.7007 66.6799 26.2417 66.0347 25.8246C68.7647 26.7372 71.5247 27.5825 74.3248 28.3222L75.4547 28.6007C76.1241 29.7671 76.9112 30.8675 77.8047 31.8859C78.7327 33.0005 79.7348 34.0561 80.8047 35.0463C81.7872 35.9691 82.8257 36.8351 83.9147 37.6399C84.9611 38.4496 86.0863 39.1605 87.2747 39.7628C87.7265 40.1113 88.2898 40.2989 88.8691 40.2938C89.4485 40.2888 90.0081 40.0914 90.4532 39.7351C90.8983 39.3788 91.2013 38.8856 91.311 38.3391C91.4206 37.7927 91.3301 37.2266 91.0547 36.7369C90.2747 34.4411 88.1047 32.616 86.0047 31.4153C85.0774 30.8953 84.1075 30.4488 83.1048 30.0801C86.3897 30.5629 89.7124 30.7686 93.0347 30.6948C93.6713 31.3501 94.3749 31.9422 95.1348 32.4623C96.0103 33.1334 96.9324 33.7464 97.8947 34.297C99.5543 35.314 101.356 36.0999 103.245 36.6313C103.635 36.7729 104.063 36.7934 104.466 36.6901C104.87 36.5867 105.229 36.3646 105.495 36.0549C105.682 35.7151 105.739 35.3226 105.655 34.9465C105.571 34.5704 105.351 34.235 105.035 33.9993C103.673 32.7009 102.068 31.6613 100.305 30.935C99.7247 30.6948 99.1247 30.4643 98.5047 30.2722C104.236 29.6476 109.685 27.5467 114.275 24.1916C114.362 24.1098 114.414 24.0003 114.423 23.8837C114.432 23.7671 114.396 23.6514 114.323 23.5583C114.249 23.4652 114.143 23.4011 114.023 23.378C113.904 23.3549 113.78 23.3744 113.675 23.4328C112.945 23.8554 112.205 24.2492 111.455 24.6239C106.503 27.1474 101.049 28.6307 95.4547 28.9754C96.6121 28.3553 97.6782 27.5897 98.6247 26.6988C100.417 25.0391 101.71 22.9448 102.365 20.6374C102.554 20.0636 102.6 19.4552 102.499 18.8612C102.398 18.2672 102.153 17.7043 101.785 17.2177C101.431 16.8043 100.945 16.5151 100.402 16.3952C99.8596 16.2752 99.2908 16.3314 98.7847 16.5549C97.5758 17.1921 96.5223 18.0697 95.6947 19.1293C93.8798 21.091 92.386 23.3065 91.2648 25.6997C90.6794 26.7712 90.252 27.9157 89.9947 29.1002C87.1376 29.0109 84.2906 28.7284 81.4747 28.2549H81.8147C83.6747 28.3318 85.8147 28.3222 87.2847 27.0446C87.631 26.8122 87.8828 26.4719 87.9977 26.0815C88.1125 25.6911 88.0832 25.2745 87.9147 24.9025C87.4047 24.0956 86.1847 24.0379 85.3147 23.9419C83.0411 23.6438 80.7326 23.6924 78.4747 24.0859C76.3479 24.3927 74.3072 25.1082 72.4747 26.1896L70.8047 25.719C67.3147 24.6719 63.8647 23.4808 60.4347 22.2608C63.4843 22.6655 66.5738 22.7106 69.6348 22.3953C71.0748 22.3747 72.4947 22.0672 73.8047 21.4924C74.3147 21.2437 74.7105 20.8222 74.9155 20.3093C75.1206 19.7965 75.1203 19.2289 74.9147 18.7162C74.622 18.2912 74.2319 17.936 73.7743 17.6779C73.3168 17.4199 72.8038 17.2658 72.2747 17.2273C69.0916 16.7081 65.8354 16.7668 62.6747 17.4002C61.1547 17.6692 59.6747 18.0246 58.1547 18.4281C57.2247 18.6682 56.2848 18.9276 55.3548 19.2062C55.2809 19.2154 55.2096 19.2383 55.1447 19.2734C54.6147 19.4367 54.0747 19.5904 53.5647 19.7825C51.8747 19.187 50.1947 18.5914 48.4947 18.015L48.3147 17.9574C49.114 18.0054 49.9155 18.0054 50.7147 17.9574C51.6877 17.8918 52.654 17.7537 53.6048 17.5443C54.4583 17.4294 55.2783 17.1483 56.0148 16.7182C56.2879 16.5161 56.4764 16.2266 56.5462 15.9022C56.6159 15.5779 56.5622 15.2403 56.3947 14.9507C56.1899 14.6468 55.9163 14.3913 55.5942 14.2034C55.2721 14.0154 54.9099 13.8998 54.5347 13.8653C52.5732 13.5658 50.5657 13.7139 48.6747 14.2975C46.8655 14.794 45.126 15.5005 43.4947 16.4012C41.4947 15.7992 39.4447 15.2421 37.3447 14.7298C38.1647 14.7298 38.9847 14.8066 39.8047 14.8163C41.9847 14.8163 44.8047 14.6433 45.9447 12.53C46.197 12.107 46.2965 11.6157 46.2278 11.1327C46.159 10.6497 45.9259 10.2021 45.5647 9.8596C44.7186 9.2564 43.6759 8.96344 42.6247 9.0335C39.9647 8.94445 37.3071 9.26882 34.7547 9.99409C33.4174 10.3732 32.1187 10.8683 30.8747 11.4734C30.0258 11.8644 29.2186 12.3341 28.4647 12.8759C27.4647 12.703 26.4047 12.5493 25.3647 12.4148C23.2647 12.1458 21.1348 11.9345 19.0148 11.7904L19.4847 11.6943C20.9535 11.3302 22.3585 10.7606 23.6547 10.0037C26.0352 8.70258 27.9308 6.71702 29.0748 4.32658C29.5248 3.23151 29.5647 1.84827 28.3947 1.15664C27.2247 0.465018 25.9547 0.849255 24.8447 1.15664C22.3304 1.89708 20.0549 3.24293 18.2347 5.06626C16.3673 6.85012 15.0549 9.09889 14.4447 11.5599C10.0442 11.434 5.64016 11.646 1.27473 12.1938C1.22877 12.2001 1.18456 12.2151 1.14461 12.2378C1.10465 12.2605 1.06974 12.2906 1.04188 12.3263C1.01403 12.362 0.993775 12.4026 0.982252 12.4458C0.970729 12.489 0.968179 12.5339 0.974745 12.5781C0.981311 12.6222 0.996866 12.6647 1.02052 12.7031C1.04418 12.7415 1.07545 12.775 1.11259 12.8017C1.14974 12.8285 1.19201 12.848 1.23698 12.859C1.28196 12.8701 1.32878 12.8726 1.37474 12.8663ZM91.6747 29.1387C93.6197 27.7466 95.3824 26.1339 96.9247 24.3357C97.7832 23.3211 98.5653 22.2489 99.2648 21.1273C99.9813 20.0631 100.565 18.9218 101.005 17.7268C101.005 17.7268 101.005 17.7268 101.005 17.6692C101.292 17.9056 101.503 18.2154 101.615 18.5625C101.857 19.7688 101.645 21.0187 101.015 22.0879C100.269 23.694 99.2009 25.1427 97.8709 26.3511C96.5409 27.5594 94.9756 28.5034 93.2648 29.1291C92.8248 29.1291 92.3847 29.1291 91.9547 29.1291L91.6747 29.1387ZM90.9347 28.6296L91.2347 27.8419C91.4847 27.2271 91.7548 26.6123 92.0448 26.0167C92.6266 24.8484 93.295 23.7216 94.0448 22.6451C94.6901 21.7054 95.3983 20.807 96.1647 19.9554C96.8974 19.0432 97.7669 18.2403 98.7447 17.5731C99.0249 17.3847 99.3522 17.2711 99.6931 17.2441C100.034 17.2171 100.376 17.2776 100.685 17.4194C100.639 17.4364 100.601 17.4666 100.575 17.5059C99.8948 18.649 99.3447 19.8402 98.5748 20.9544C97.9053 21.9816 97.1635 22.9637 96.3548 23.8938C94.765 25.693 92.9282 27.2765 90.8947 28.6007L90.9347 28.6296ZM89.9347 39.052C88.1708 36.8563 86.1584 34.8556 83.9347 33.0867C82.8347 32.1453 81.7048 31.2359 80.5448 30.3586L79.6947 29.7054C81.7835 30.2877 83.7965 31.0966 85.6947 32.1165C87.705 33.1834 89.2962 34.8536 90.2247 36.8714C90.3744 37.2246 90.4245 37.6095 90.37 37.9872C90.3156 38.3649 90.1586 38.7223 89.9147 39.0232L89.9347 39.052ZM76.7747 28.9177L77.1348 28.9946C77.5748 29.2828 78.0347 29.5517 78.4647 29.8399C79.0781 30.2434 79.6781 30.6564 80.2648 31.0791C81.3948 31.8859 82.4848 32.7217 83.5448 33.5958C84.6048 34.4699 85.7147 35.517 86.7447 36.4776C87.7747 37.4382 88.5947 38.3988 89.5748 39.2921C89.2803 39.4089 88.9556 39.4357 88.6447 39.369C87.4852 39.0283 86.4123 38.459 85.4947 37.6975C83.563 36.3779 81.7829 34.8644 80.1847 33.1828C79.3958 32.3579 78.6547 31.4921 77.9647 30.5892C77.5247 30.0128 77.1447 29.446 76.7547 28.8889L76.7747 28.9177ZM74.0647 19.1197C72.6577 18.9196 71.2371 18.82 69.8147 18.8219C68.2547 18.7739 66.6947 18.7643 65.1247 18.7739C63.1847 18.7739 61.2547 18.8699 59.3147 18.9756C60.5047 18.6778 61.7048 18.4185 62.9147 18.2168C65.69 17.7017 68.5343 17.6271 71.3347 17.9958C72.0947 18.0823 73.6548 18.2456 74.0448 19.0909L74.0647 19.1197ZM54.7347 20.2148L55.2347 20.0707C55.3134 20.0906 55.3961 20.0906 55.4747 20.0707C58.6747 19.7729 61.8848 19.5904 65.1048 19.552C66.7648 19.552 68.4147 19.552 70.1048 19.552C71.4648 19.552 72.8347 19.7057 74.1847 19.6192C74.0647 20.7815 72.1848 21.0601 71.2948 21.1946C68.5348 21.5897 65.7381 21.6927 62.9547 21.502C61.5629 21.4039 60.1776 21.2339 58.8047 20.9928C57.3747 20.7911 56.0647 20.3204 54.7147 20.186L54.7347 20.2148ZM44.3848 19.2542C46.5213 20.6695 48.5286 22.257 50.3848 23.9995C51.5263 25.088 52.6046 26.2361 53.6147 27.4384C54.0947 28.0148 54.6147 28.5911 55.0347 29.1867C55.379 29.7962 55.8326 30.3426 56.3747 30.8005C56.5347 30.8966 56.7847 30.8005 56.7447 30.5988C56.5081 29.9163 56.1267 29.2883 55.6247 28.7544C55.1747 28.1493 54.7147 27.5633 54.2247 26.987C53.2387 25.8155 52.1872 24.6964 51.0748 23.6345C49.1207 21.7386 46.9845 20.0243 44.6947 18.5145C47.0499 19.277 49.2616 20.3993 51.2447 21.8382C53.3159 23.3557 55.0843 25.2204 56.4647 27.3424C56.939 27.9629 57.279 28.6684 57.4647 29.4172C57.5541 29.7153 57.521 30.035 57.3721 30.3103C57.2232 30.5855 56.97 30.7954 56.6647 30.8965C55.9147 31.0502 55.1347 30.4931 54.5547 30.1089C53.9747 29.7246 53.5047 29.4076 53.0047 29.0426C50.8323 27.4376 48.8831 25.5717 47.2047 23.4904C46.3779 22.4784 45.6197 21.4163 44.9347 20.3108C44.7447 19.9554 44.5447 19.5904 44.3747 19.235L44.3848 19.2542ZM30.5647 13.2601C30.9247 13.1736 31.2947 13.0103 31.5647 12.9239C32.2314 12.7382 32.8981 12.5749 33.5647 12.434C34.8247 12.1458 36.0947 11.9153 37.3747 11.7423C38.6947 11.5598 40.0247 11.4446 41.3747 11.3869C42.0047 11.3869 42.6347 11.3869 43.2547 11.3389C43.8562 11.3899 44.4623 11.3378 45.0448 11.1852C45.0769 11.1718 45.1042 11.1496 45.1234 11.1215C45.1426 11.0933 45.1528 11.0604 45.1528 11.0267C45.1528 10.9931 45.1426 10.9601 45.1234 10.932C45.1042 10.9038 45.0769 10.8817 45.0448 10.8682C44.4365 10.6594 43.7873 10.5839 43.1447 10.6473C42.4847 10.6473 41.8247 10.6473 41.1447 10.6473C39.8147 10.7049 38.4847 10.8202 37.1447 11.0027C35.8047 11.1852 34.4447 11.435 33.1447 11.7423C32.6947 11.848 32.2547 11.9633 31.8147 12.0882C32.9017 11.6126 34.0209 11.2082 35.1647 10.8778C37.4383 10.2381 39.7956 9.91461 42.1647 9.91723C43.0648 9.91723 44.3047 9.85959 45.0347 10.484C45.9347 11.2524 45.2147 12.482 44.4247 13.0296C42.5447 14.3552 39.7148 13.9901 37.5448 13.8557C36.2048 13.7788 34.8648 13.6827 33.5448 13.5483L31.6047 13.3273C31.1747 13.3177 30.8648 13.2697 30.5448 13.2409L30.5647 13.2601ZM29.2247 25.3539C29.0418 24.7422 28.7798 24.1548 28.4447 23.6057C28.1181 22.9653 27.7681 22.3601 27.3947 21.7902C26.6566 20.5993 25.8417 19.454 24.9547 18.3608C24.0424 17.2448 23.0641 16.18 22.0247 15.1717C21.5447 14.6914 21.0547 14.2303 20.5547 13.7884L20.3248 13.5771C20.8942 13.7708 21.4517 13.9953 21.9947 14.2495C23.1535 14.8011 24.2409 15.4814 25.2347 16.2763C27.0034 17.6642 28.3792 19.4583 29.2347 21.4924C29.7204 22.4452 29.9046 23.5139 29.7648 24.5662C29.7359 24.7261 29.673 24.8786 29.5801 25.0141C29.4872 25.1496 29.3662 25.2653 29.2247 25.3539ZM19.5247 14.0094C19.6847 14.1246 19.8347 14.2303 19.9647 14.3456C20.5147 14.797 21.0447 15.2581 21.5647 15.748C22.5629 16.7035 23.4949 17.7207 24.3547 18.7931C25.2247 19.8617 26.0294 20.9778 26.7648 22.136C27.1648 22.7507 27.5347 23.3847 27.8847 24.0571C28.1251 24.5461 28.3956 25.0208 28.6947 25.4788C27.9614 25.3737 27.2708 25.0818 26.6947 24.6335C23.0616 22.0274 20.5184 18.2591 19.5247 14.0094ZM17.0347 11.1756C17.8147 10.484 18.5647 9.75393 19.3647 9.08152C20.3647 8.26502 21.3647 7.48694 22.4247 6.73768C23.4847 5.98841 24.6047 5.24875 25.7447 4.56673L27.4247 3.60614C27.773 3.43168 28.1072 3.23261 28.4247 3.01058C28.3124 3.94048 27.9197 4.8186 27.2948 5.53694C25.9058 7.42876 24.0321 8.94416 21.8547 9.93646C20.7731 10.4291 19.6306 10.7874 18.4547 11.0027C17.9857 11.0892 17.5114 11.147 17.0347 11.1756ZM15.3747 11.3005C16.1642 9.13367 17.449 7.16426 19.1347 5.53694C20.7808 4.00512 22.7674 2.85224 24.9447 2.16525C25.8647 1.88668 27.6447 1.32955 28.2547 2.3862C28.2547 2.3862 28.2547 2.43425 28.2547 2.46306C27.7436 2.58397 27.2592 2.79219 26.8248 3.07783C26.2847 3.3564 25.7547 3.66378 25.2347 3.97117C24.0947 4.64358 22.9747 5.35443 21.8847 6.1133C20.7947 6.87216 19.6947 7.71748 18.6547 8.57241C17.6362 9.35771 16.6833 10.2185 15.8047 11.1468C15.7705 11.1781 15.7463 11.218 15.7347 11.2621C15.6139 11.2668 15.4937 11.2797 15.3747 11.3005Z" fill="url(#paint0_linear_299_24755)"/>
  <defs>
    <linearGradient id="paint0_linear_299_24755" x1="32.6124" y1="-1.06933" x2="94.8067" y2="88.6931" gradientUnits="userSpaceOnUse">
      <stop stop-color="#FFE68E"/>
      <stop offset="1" stop-color="#D8A217"/>
    </linearGradient>
  </defs>
</svg>