<svg xmlns="http://www.w3.org/2000/svg" width="115" height="41" viewBox="0 0 115 41" fill="none">
  <path d="M113.895 12.261C109.529 11.7137 105.126 11.5017 100.725 11.627C100.115 9.16383 98.7985 6.91423 96.9249 5.13342C95.1101 3.30846 92.8374 1.96218 90.3249 1.22381C89.2049 0.897205 87.8349 0.570604 86.7649 1.22381C85.6949 1.87701 85.6449 3.29867 86.0849 4.39374C87.2354 6.78305 89.1337 8.76775 91.5149 10.0708C92.8076 10.8276 94.2093 11.3973 95.6749 11.7615L96.1549 11.8576C94.0283 11.9984 91.9083 12.2066 89.7949 12.4819C88.7683 12.6164 87.7383 12.7701 86.7049 12.943C85.949 12.3991 85.1383 11.9293 84.2849 11.5405C83.0424 10.9325 81.7434 10.4372 80.4049 10.0612C77.8529 9.33463 75.1951 9.01023 72.5349 9.10064C71.4839 9.03227 70.4419 9.32509 69.5949 9.92676C69.2338 10.2695 69.0016 10.7178 68.9346 11.2012C68.8676 11.6846 68.9697 12.1756 69.2249 12.5972C70.3449 14.7105 73.2249 14.9218 75.3549 14.8834C76.1749 14.8834 76.9949 14.8354 77.8149 14.797C75.7549 15.3093 73.7049 15.8664 71.6649 16.4684C70.038 15.566 68.3016 14.8595 66.4949 14.3647C64.6039 13.781 62.5965 13.6329 60.6349 13.9324C60.259 13.9642 59.8957 14.0786 59.5732 14.2668C59.2506 14.4551 58.9775 14.712 58.7749 15.0179C58.6075 15.3074 58.5538 15.645 58.6235 15.9694C58.6932 16.2937 58.8818 16.5832 59.1549 16.7854C59.8913 17.2155 60.7114 17.4966 61.5649 17.6115C62.5155 17.8216 63.4818 17.9597 64.4549 18.0245C65.2508 18.0725 66.049 18.0725 66.8449 18.0245L66.6749 18.0822C64.9749 18.6585 63.2949 19.2541 61.6049 19.8497C61.0849 19.6575 60.6049 19.5038 60.0249 19.3405C59.9601 19.3054 59.8888 19.2826 59.8149 19.2733C58.8816 18.998 57.9516 18.7386 57.0249 18.4952C55.5249 18.0918 54.0249 17.7364 52.4949 17.4674C49.3377 16.834 46.0847 16.7753 42.9049 17.2945C42.3745 17.3329 41.8601 17.487 41.4009 17.745C40.9417 18.003 40.5498 18.3581 40.2549 18.7834C40.062 19.291 40.0694 19.849 40.2758 20.3517C40.4822 20.8544 40.8732 21.267 41.3749 21.5115C42.6849 22.0863 44.1049 22.3938 45.5449 22.4144C48.6025 22.7296 51.6888 22.6845 54.7349 22.2799C51.3049 23.4999 47.8649 24.691 44.3749 25.7381L42.7049 26.2088C40.8724 25.1273 38.8318 24.4118 36.7049 24.1051C34.4504 23.7114 32.1453 23.6628 29.8749 23.961C29.0049 24.0666 27.7749 24.1243 27.2749 24.9216C27.1035 25.2923 27.0717 25.7087 27.1848 26.0995C27.2979 26.4903 27.5489 26.8312 27.8949 27.0637C29.3649 28.3413 31.5149 28.3509 33.3649 28.2741H33.7049C30.8925 28.748 28.0488 29.0305 25.1949 29.1194C24.9327 27.9362 24.5056 26.7924 23.9249 25.7189C23.369 24.5385 22.724 23.3987 21.9949 22.3088C21.2481 21.1947 20.4122 20.1381 19.4949 19.1484C18.6674 18.0889 17.6139 17.2112 16.4049 16.574C15.8983 16.3538 15.3304 16.2994 14.7885 16.4192C14.2466 16.5389 13.7605 16.8261 13.4049 17.2368C13.0379 17.7242 12.7951 18.2876 12.6961 18.8815C12.5971 19.4755 12.6447 20.0835 12.8349 20.6565C13.4863 22.9654 14.7791 25.0607 16.5749 26.7179C17.5179 27.6086 18.5807 28.3743 19.7349 28.9945C14.1409 28.6493 8.68708 27.166 3.73493 24.643C2.97493 24.2684 2.23493 23.8745 1.51493 23.4519C1.40952 23.3935 1.28554 23.374 1.16626 23.3971C1.04697 23.4203 0.940559 23.4844 0.866958 23.5775C0.793357 23.6705 0.757625 23.7862 0.766456 23.9028C0.775287 24.0194 0.828078 24.1289 0.914931 24.2107C5.50506 27.5658 10.9538 29.6667 16.6849 30.2913C16.0649 30.4834 15.4649 30.7139 14.8849 30.9541C13.1215 31.6804 11.5167 32.72 10.1549 34.0184C9.83849 34.2541 9.61884 34.5896 9.53469 34.9656C9.45054 35.3417 9.50729 35.7342 9.69494 36.0741C9.95969 36.3818 10.3177 36.6026 10.7191 36.7059C11.1205 36.8092 11.5455 36.7898 11.9349 36.6504C13.828 36.121 15.6329 35.335 17.2949 34.3162C18.2572 33.7655 19.1794 33.1525 20.0549 32.4814C20.8128 31.9589 21.5161 31.367 22.1549 30.7139C25.4739 30.788 28.7933 30.5823 32.0749 30.0992C31.0762 30.4699 30.1098 30.9163 29.1849 31.4344C27.0849 32.6351 24.9149 34.4603 24.1349 36.7561C23.8596 37.2457 23.7691 37.8118 23.8787 38.3583C23.9883 38.9047 24.2914 39.3979 24.7365 39.7542C25.1815 40.1105 25.7412 40.3079 26.3205 40.313C26.8999 40.318 27.4632 40.1304 27.9149 39.7819C29.0912 39.1802 30.2031 38.4692 31.2349 37.659C32.3293 36.8568 33.3713 35.9906 34.3549 35.0654C35.4249 34.0753 36.427 33.0196 37.3549 31.9051C38.2451 30.8842 39.032 29.7842 39.7049 28.6199L40.8349 28.3413C43.6349 27.6016 46.3949 26.7563 49.1249 25.8438C48.4783 26.2632 47.8604 26.722 47.2749 27.2174C45.4844 28.702 44.2076 30.6757 43.6149 32.8753C43.4049 33.759 43.3549 34.9021 44.2349 35.4785C45.1149 36.0548 46.3349 35.4112 47.1349 34.8733C51.3102 32.0067 54.522 28.03 56.3749 23.4327C56.3838 23.3721 56.3838 23.3107 56.3749 23.2502L63.1549 20.7718L64.8849 20.1667C61.9034 21.9099 59.4109 24.3271 57.6249 27.2078C56.9349 28.3221 56.1949 29.7149 56.9949 30.9637C57.7949 32.2125 59.3249 31.9243 60.4349 31.2615C63.0292 29.7034 65.3624 27.7764 67.3549 25.546C68.5046 24.2929 69.5479 22.9534 70.4749 21.5403C70.9249 20.8583 71.3549 20.157 71.7449 19.4366C72.0965 18.8591 72.3911 18.2513 72.6249 17.6211C75.0449 16.8911 77.4849 16.209 79.9549 15.6231C79.2487 16.0648 78.58 16.5594 77.9549 17.1024C76.2358 18.5883 74.8976 20.4359 74.0449 22.5009C73.4649 23.913 72.2249 27.6689 75.0449 27.6112C76.3249 27.6112 77.1949 26.4874 77.9649 25.6901C78.8657 24.7094 79.707 23.6799 80.4849 22.6066C82.2595 20.176 83.7265 17.5511 84.8549 14.7873C84.863 14.73 84.863 14.6718 84.8549 14.6144L86.2149 14.3551C88.4349 13.9772 90.6649 13.657 92.9049 13.3945C91.672 13.9593 90.511 14.6587 89.4449 15.479C87.3689 17.0246 85.7743 19.088 84.8349 21.4442C84.3438 22.5047 84.1773 23.6775 84.3549 24.8255C84.4048 25.0892 84.5096 25.3405 84.6631 25.5643C84.8166 25.7881 85.0156 25.9798 85.2482 26.1279C85.4808 26.2759 85.7421 26.3773 86.0165 26.4258C86.2909 26.4744 86.5727 26.4692 86.8449 26.4105C88.1877 25.9644 89.3962 25.2091 90.3649 24.2107C91.4029 23.3201 92.3382 22.325 93.1549 21.2425C94.9949 18.8166 96.2176 16.0103 96.7249 13.0487C101.339 12.6933 105.97 12.6067 110.595 12.7893C111.595 12.8374 112.655 12.8373 113.695 12.8854C113.781 12.9108 113.874 12.9024 113.954 12.8619C114.034 12.8213 114.093 12.7521 114.12 12.6693C114.146 12.5865 114.138 12.4969 114.095 12.4203C114.053 12.3438 113.981 12.2865 113.895 12.261ZM23.2449 29.1098C22.8049 29.1098 22.3749 29.1098 21.9349 29.1098C18.4817 27.8393 15.6921 25.308 14.1749 22.0686C13.5526 20.9968 13.3437 19.7485 13.5849 18.5433C13.6963 18.1961 13.9078 17.8863 14.1949 17.6499C14.1949 17.6499 14.1949 17.6499 14.1949 17.7076C14.6379 18.9028 15.2253 20.0441 15.9449 21.108C16.6444 22.2296 17.4264 23.3018 18.2849 24.3164C19.8247 26.1169 21.5878 27.7298 23.5349 29.1194L23.2449 29.1098ZM18.8149 23.8649C18.0094 22.9324 17.2678 21.9505 16.5949 20.9255C15.8649 19.8113 15.3149 18.6201 14.6449 17.477C14.6187 17.4377 14.5802 17.4075 14.5349 17.3905C14.8435 17.2487 15.1857 17.1882 15.5266 17.2152C15.8675 17.2422 16.1948 17.3558 16.4749 17.5442C17.4528 18.2114 18.3223 19.0143 19.0549 19.9265C19.8214 20.7781 20.5296 21.6765 21.1749 22.6162C21.921 23.6949 22.5892 24.8214 23.1749 25.9878C23.4649 26.5834 23.7349 27.1982 23.9849 27.813C24.0849 28.0723 24.1849 28.3317 24.2749 28.6007C22.2437 27.2625 20.4075 25.6698 18.8149 23.8649ZM24.9349 36.8809C25.8635 34.8631 27.4546 33.1929 29.4649 32.126C31.3632 31.1061 33.3761 30.2973 35.4649 29.7149L34.6149 30.3681C33.4449 31.2423 32.3249 32.1548 31.2249 33.0962C29.0012 34.8652 26.9889 36.8658 25.2249 39.0615C24.9789 38.7557 24.8223 38.3924 24.7714 38.0091C24.7204 37.6257 24.7769 37.2363 24.9349 36.8809ZM37.2149 30.5987C36.5219 31.4993 35.7809 32.365 34.9949 33.1923C33.3967 34.8739 31.6167 36.3874 29.6849 37.707C28.7673 38.4685 27.6945 39.0378 26.5349 39.3785C26.2241 39.4453 25.8993 39.4184 25.6049 39.3016C26.6049 38.3987 27.4749 37.3804 28.4349 36.4871C29.3949 35.5937 30.5249 34.5179 31.6249 33.6053C32.7249 32.6928 33.7849 31.8955 34.9049 31.0886L36.7049 29.8494L38.0349 29.0041L38.3949 28.9273C38.0149 29.446 37.6349 30.0127 37.2149 30.5603V30.5987ZM43.8449 18.0053C46.6453 17.6366 49.4897 17.7112 52.2649 18.2263C53.4749 18.428 54.6749 18.6873 55.8649 18.9851C53.9249 18.8795 51.9849 18.8026 50.0549 18.7834C48.4849 18.7834 46.9249 18.7834 45.3549 18.8314C43.9326 18.8302 42.5121 18.9298 41.1049 19.1292C41.5049 18.2455 43.0549 18.0822 43.8449 17.9669V18.0053ZM56.3749 21.0312C55.0022 21.2729 53.6168 21.4428 52.2249 21.5403C49.4449 21.7311 46.6515 21.628 43.8949 21.2329C42.9549 21.0984 41.1249 20.8199 41.0049 19.6576C42.3549 19.744 43.7249 19.6575 45.0749 19.5903C46.7349 19.5903 48.3849 19.5423 50.0749 19.5903C53.2849 19.5903 56.5049 19.8112 59.7049 20.109C59.78 20.1301 59.8598 20.1301 59.9349 20.109L60.4349 20.2531C59.0849 20.3204 57.7449 20.791 56.3749 21.0312ZM70.1749 20.2915C69.4865 21.3949 68.7284 22.4567 67.9049 23.4711C66.2266 25.5524 64.2774 27.4183 62.1049 29.0233C61.5949 29.3883 61.1049 29.7534 60.5549 30.0896C60.0049 30.4258 59.1849 31.0502 58.4349 30.8773C58.1311 30.7742 57.8794 30.564 57.7309 30.2893C57.5823 30.0146 57.548 29.696 57.6349 29.3979C57.8207 28.6491 58.1607 27.9436 58.6349 27.3231C60.0117 25.2014 61.7768 23.3367 63.8449 21.8189C65.8293 20.3819 68.0407 19.2597 70.3949 18.4952C68.1064 20.0027 65.9733 21.7172 64.0249 23.6152C62.912 24.6794 61.8572 25.7984 60.8649 26.9676C60.3849 27.544 59.9249 28.1299 59.4749 28.7351C58.9693 29.2664 58.5875 29.8952 58.3549 30.5795C58.3549 30.7812 58.5649 30.8772 58.7249 30.7812C59.267 30.3232 59.7207 29.7769 60.0649 29.1674C60.5249 28.5718 60.9949 27.9955 61.4849 27.4191C62.4951 26.2168 63.5734 25.0687 64.7149 23.9802C66.5669 22.2332 68.5746 20.6454 70.7149 19.2349C70.6049 19.5903 70.3749 19.9553 70.2049 20.2915H70.1749ZM83.6349 13.3561L81.6949 13.577C80.3549 13.7115 79.0149 13.8075 77.6949 13.8844C75.5249 13.9997 72.6949 14.3839 70.8149 13.0583C70.0249 12.5108 69.3049 11.2812 70.2049 10.5127C70.9249 9.88832 72.2049 9.94596 73.0749 9.94596C75.444 9.94334 77.8013 10.2668 80.0749 10.9066C81.2007 11.2343 82.3031 11.6322 83.3749 12.0977C82.9349 11.9728 82.4849 11.8575 82.0449 11.7519C80.7049 11.4445 79.3549 11.1947 77.9949 11.0122C76.6349 10.8297 75.3549 10.7145 73.9949 10.6568C73.3349 10.6568 72.6749 10.6088 71.9949 10.6568C71.3524 10.5947 70.7035 10.6701 70.0949 10.8777C70.0628 10.8912 70.0355 10.9133 70.0163 10.9415C69.9971 10.9696 69.9869 11.0026 69.9869 11.0362C69.9869 11.0699 69.9971 11.1028 70.0163 11.131C70.0355 11.1591 70.0628 11.1813 70.0949 11.1947C70.6774 11.3474 71.2835 11.3994 71.8849 11.3484C72.5049 11.3484 73.1349 11.3484 73.7549 11.3965C75.0949 11.4541 76.4149 11.5694 77.7549 11.7519C79.0949 11.9344 80.3149 12.1553 81.5749 12.4435C82.2249 12.5876 82.8749 12.7509 83.5149 12.9334C83.8349 13.0199 84.1949 13.1832 84.5649 13.2696C84.2949 13.2696 83.9849 13.3177 83.6649 13.3561H83.6349ZM85.3749 24.5662C85.235 23.5138 85.4193 22.4451 85.9049 21.4923C86.7597 19.4578 88.1356 17.6636 89.9049 16.2763C90.9004 15.4835 91.9875 14.8034 93.1449 14.2494C93.6905 13.9934 94.2515 13.7689 94.8249 13.577L94.5949 13.7883C94.0883 14.2302 93.5983 14.6913 93.1249 15.1716C92.0829 16.1775 91.1044 17.2425 90.1949 18.3608C89.308 19.4539 88.4931 20.5992 87.7549 21.7901C87.3883 22.3856 87.0549 22.9908 86.7549 23.6056C86.4159 24.1528 86.1536 24.7406 85.9749 25.3539C85.8197 25.2743 85.6852 25.1622 85.5813 25.0258C85.4774 24.8895 85.4069 24.7323 85.3749 24.5662ZM88.3749 24.6142C87.8001 25.0646 87.1089 25.3567 86.3749 25.4595C86.6779 25.0036 86.9485 24.5287 87.1849 24.0378C87.5449 23.3846 87.9149 22.7507 88.3149 22.1167C89.0468 20.9587 89.8482 19.8425 90.7149 18.7738C91.5811 17.7035 92.5162 16.6865 93.5149 15.7287C94.0249 15.2388 94.5649 14.7681 95.1049 14.3263C95.2449 14.211 95.3949 14.1053 95.5549 13.9901C94.5586 18.2412 92.0118 22.0097 88.3749 24.6142ZM96.6649 11.0026C95.4888 10.7883 94.3461 10.43 93.2649 9.93637C91.0831 8.9508 89.2077 7.43407 87.8249 5.53685C87.2 4.81851 86.8073 3.9404 86.6949 3.01049C87.0125 3.23253 87.3467 3.43159 87.6949 3.60605C88.2549 3.92305 88.8149 4.24004 89.3649 4.56664C90.5049 5.24866 91.6149 5.96912 92.6949 6.73759C93.7749 7.50606 94.7649 8.26493 95.6949 9.08143C96.5049 9.75385 97.2549 10.4839 98.0349 11.1755C97.5884 11.1434 97.1443 11.0856 96.7049 11.0026H96.6649ZM99.3549 11.2524C99.3354 11.212 99.3119 11.1734 99.2849 11.1371C98.4064 10.2088 97.4535 9.34801 96.4349 8.56271C95.4349 7.70778 94.3149 6.88167 93.1949 6.1036C92.0749 5.32552 90.9949 4.63391 89.8549 3.9615C89.3249 3.65411 88.8049 3.3467 88.2649 3.06812C87.8269 2.78236 87.3392 2.57417 86.8249 2.45336C86.8275 2.42781 86.8275 2.40205 86.8249 2.3765C87.4449 1.31985 89.2249 1.87701 90.1449 2.15558C92.3192 2.84297 94.3024 3.99585 95.9449 5.52724C97.6327 7.15482 98.9207 9.12393 99.7149 11.2908C99.6026 11.2708 99.489 11.258 99.3749 11.2524H99.3549Z" fill="white"/>
  <path d="M113.895 12.261C109.529 11.7137 105.126 11.5017 100.725 11.627C100.115 9.16383 98.7985 6.91423 96.9249 5.13342C95.1101 3.30846 92.8374 1.96218 90.3249 1.22381C89.2049 0.897205 87.8349 0.570604 86.7649 1.22381C85.6949 1.87701 85.6449 3.29867 86.0849 4.39374C87.2354 6.78305 89.1337 8.76775 91.5149 10.0708C92.8076 10.8276 94.2093 11.3973 95.6749 11.7615L96.1549 11.8576C94.0283 11.9984 91.9083 12.2066 89.7949 12.4819C88.7683 12.6164 87.7383 12.7701 86.7049 12.943C85.949 12.3991 85.1383 11.9293 84.2849 11.5405C83.0424 10.9325 81.7434 10.4372 80.4049 10.0612C77.8529 9.33463 75.1951 9.01023 72.5349 9.10064C71.4839 9.03227 70.4419 9.32509 69.5949 9.92676C69.2338 10.2695 69.0016 10.7178 68.9346 11.2012C68.8676 11.6846 68.9697 12.1756 69.2249 12.5972C70.3449 14.7105 73.2249 14.9218 75.3549 14.8834C76.1749 14.8834 76.9949 14.8354 77.8149 14.797C75.7549 15.3093 73.7049 15.8664 71.6649 16.4684C70.038 15.566 68.3016 14.8595 66.4949 14.3647C64.6039 13.781 62.5965 13.6329 60.6349 13.9324C60.259 13.9642 59.8957 14.0786 59.5732 14.2668C59.2506 14.4551 58.9775 14.712 58.7749 15.0179C58.6075 15.3074 58.5538 15.645 58.6235 15.9694C58.6932 16.2937 58.8818 16.5832 59.1549 16.7854C59.8913 17.2155 60.7114 17.4966 61.5649 17.6115C62.5155 17.8216 63.4818 17.9597 64.4549 18.0245C65.2508 18.0725 66.049 18.0725 66.8449 18.0245L66.6749 18.0822C64.9749 18.6585 63.2949 19.2541 61.6049 19.8497C61.0849 19.6575 60.6049 19.5038 60.0249 19.3405C59.9601 19.3054 59.8888 19.2826 59.8149 19.2733C58.8816 18.998 57.9516 18.7386 57.0249 18.4952C55.5249 18.0918 54.0249 17.7364 52.4949 17.4674C49.3377 16.834 46.0847 16.7753 42.9049 17.2945C42.3745 17.3329 41.8601 17.487 41.4009 17.745C40.9417 18.003 40.5498 18.3581 40.2549 18.7834C40.062 19.291 40.0694 19.849 40.2758 20.3517C40.4822 20.8544 40.8732 21.267 41.3749 21.5115C42.6849 22.0863 44.1049 22.3938 45.5449 22.4144C48.6025 22.7296 51.6888 22.6845 54.7349 22.2799C51.3049 23.4999 47.8649 24.691 44.3749 25.7381L42.7049 26.2088C40.8724 25.1273 38.8318 24.4118 36.7049 24.1051C34.4504 23.7114 32.1453 23.6628 29.8749 23.961C29.0049 24.0666 27.7749 24.1243 27.2749 24.9216C27.1035 25.2923 27.0717 25.7087 27.1848 26.0995C27.2979 26.4903 27.5489 26.8312 27.8949 27.0637C29.3649 28.3413 31.5149 28.3509 33.3649 28.2741H33.7049C30.8925 28.748 28.0488 29.0305 25.1949 29.1194C24.9327 27.9362 24.5056 26.7924 23.9249 25.7189C23.369 24.5385 22.724 23.3987 21.9949 22.3088C21.2481 21.1947 20.4122 20.1381 19.4949 19.1484C18.6674 18.0889 17.6139 17.2112 16.4049 16.574C15.8983 16.3538 15.3304 16.2994 14.7885 16.4192C14.2466 16.5389 13.7605 16.8261 13.4049 17.2368C13.0379 17.7242 12.7951 18.2876 12.6961 18.8815C12.5971 19.4755 12.6447 20.0835 12.8349 20.6565C13.4863 22.9654 14.7791 25.0607 16.5749 26.7179C17.5179 27.6086 18.5807 28.3743 19.7349 28.9945C14.1409 28.6493 8.68708 27.166 3.73493 24.643C2.97493 24.2684 2.23493 23.8745 1.51493 23.4519C1.40952 23.3935 1.28554 23.374 1.16626 23.3971C1.04697 23.4203 0.940559 23.4844 0.866958 23.5775C0.793357 23.6705 0.757625 23.7862 0.766456 23.9028C0.775287 24.0194 0.828078 24.1289 0.914931 24.2107C5.50506 27.5658 10.9538 29.6667 16.6849 30.2913C16.0649 30.4834 15.4649 30.7139 14.8849 30.9541C13.1215 31.6804 11.5167 32.72 10.1549 34.0184C9.83849 34.2541 9.61884 34.5896 9.53469 34.9656C9.45054 35.3417 9.50729 35.7342 9.69494 36.0741C9.95969 36.3818 10.3177 36.6026 10.7191 36.7059C11.1205 36.8092 11.5455 36.7898 11.9349 36.6504C13.828 36.121 15.6329 35.335 17.2949 34.3162C18.2572 33.7655 19.1794 33.1525 20.0549 32.4814C20.8128 31.9589 21.5161 31.367 22.1549 30.7139C25.4739 30.788 28.7933 30.5823 32.0749 30.0992C31.0762 30.4699 30.1098 30.9163 29.1849 31.4344C27.0849 32.6351 24.9149 34.4603 24.1349 36.7561C23.8596 37.2457 23.7691 37.8118 23.8787 38.3583C23.9883 38.9047 24.2914 39.3979 24.7365 39.7542C25.1815 40.1105 25.7412 40.3079 26.3205 40.313C26.8999 40.318 27.4632 40.1304 27.9149 39.7819C29.0912 39.1802 30.2031 38.4692 31.2349 37.659C32.3293 36.8568 33.3713 35.9906 34.3549 35.0654C35.4249 34.0753 36.427 33.0196 37.3549 31.9051C38.2451 30.8842 39.032 29.7842 39.7049 28.6199L40.8349 28.3413C43.6349 27.6016 46.3949 26.7563 49.1249 25.8438C48.4783 26.2632 47.8604 26.722 47.2749 27.2174C45.4844 28.702 44.2076 30.6757 43.6149 32.8753C43.4049 33.759 43.3549 34.9021 44.2349 35.4785C45.1149 36.0548 46.3349 35.4112 47.1349 34.8733C51.3102 32.0067 54.522 28.03 56.3749 23.4327C56.3838 23.3721 56.3838 23.3107 56.3749 23.2502L63.1549 20.7718L64.8849 20.1667C61.9034 21.9099 59.4109 24.3271 57.6249 27.2078C56.9349 28.3221 56.1949 29.7149 56.9949 30.9637C57.7949 32.2125 59.3249 31.9243 60.4349 31.2615C63.0292 29.7034 65.3624 27.7764 67.3549 25.546C68.5046 24.2929 69.5479 22.9534 70.4749 21.5403C70.9249 20.8583 71.3549 20.157 71.7449 19.4366C72.0965 18.8591 72.3911 18.2513 72.6249 17.6211C75.0449 16.8911 77.4849 16.209 79.9549 15.6231C79.2487 16.0648 78.58 16.5594 77.9549 17.1024C76.2358 18.5883 74.8976 20.4359 74.0449 22.5009C73.4649 23.913 72.2249 27.6689 75.0449 27.6112C76.3249 27.6112 77.1949 26.4874 77.9649 25.6901C78.8657 24.7094 79.707 23.6799 80.4849 22.6066C82.2595 20.176 83.7265 17.5511 84.8549 14.7873C84.863 14.73 84.863 14.6718 84.8549 14.6144L86.2149 14.3551C88.4349 13.9772 90.6649 13.657 92.9049 13.3945C91.672 13.9593 90.511 14.6587 89.4449 15.479C87.3689 17.0246 85.7743 19.088 84.8349 21.4442C84.3438 22.5047 84.1773 23.6775 84.3549 24.8255C84.4048 25.0892 84.5096 25.3405 84.6631 25.5643C84.8166 25.7881 85.0156 25.9798 85.2482 26.1279C85.4808 26.2759 85.7421 26.3773 86.0165 26.4258C86.2909 26.4744 86.5727 26.4692 86.8449 26.4105C88.1877 25.9644 89.3962 25.2091 90.3649 24.2107C91.4029 23.3201 92.3382 22.325 93.1549 21.2425C94.9949 18.8166 96.2176 16.0103 96.7249 13.0487C101.339 12.6933 105.97 12.6067 110.595 12.7893C111.595 12.8374 112.655 12.8373 113.695 12.8854C113.781 12.9108 113.874 12.9024 113.954 12.8619C114.034 12.8213 114.093 12.7521 114.12 12.6693C114.146 12.5865 114.138 12.4969 114.095 12.4203C114.053 12.3438 113.981 12.2865 113.895 12.261ZM23.2449 29.1098C22.8049 29.1098 22.3749 29.1098 21.9349 29.1098C18.4817 27.8393 15.6921 25.308 14.1749 22.0686C13.5526 20.9968 13.3437 19.7485 13.5849 18.5433C13.6963 18.1961 13.9078 17.8863 14.1949 17.6499C14.1949 17.6499 14.1949 17.6499 14.1949 17.7076C14.6379 18.9028 15.2253 20.0441 15.9449 21.108C16.6444 22.2296 17.4264 23.3018 18.2849 24.3164C19.8247 26.1169 21.5878 27.7298 23.5349 29.1194L23.2449 29.1098ZM18.8149 23.8649C18.0094 22.9324 17.2678 21.9505 16.5949 20.9255C15.8649 19.8113 15.3149 18.6201 14.6449 17.477C14.6187 17.4377 14.5802 17.4075 14.5349 17.3905C14.8435 17.2487 15.1857 17.1882 15.5266 17.2152C15.8675 17.2422 16.1948 17.3558 16.4749 17.5442C17.4528 18.2114 18.3223 19.0143 19.0549 19.9265C19.8214 20.7781 20.5296 21.6765 21.1749 22.6162C21.921 23.6949 22.5892 24.8214 23.1749 25.9878C23.4649 26.5834 23.7349 27.1982 23.9849 27.813C24.0849 28.0723 24.1849 28.3317 24.2749 28.6007C22.2437 27.2625 20.4075 25.6698 18.8149 23.8649ZM24.9349 36.8809C25.8635 34.8631 27.4546 33.1929 29.4649 32.126C31.3632 31.1061 33.3761 30.2973 35.4649 29.7149L34.6149 30.3681C33.4449 31.2423 32.3249 32.1548 31.2249 33.0962C29.0012 34.8652 26.9889 36.8658 25.2249 39.0615C24.9789 38.7557 24.8223 38.3924 24.7714 38.0091C24.7204 37.6257 24.7769 37.2363 24.9349 36.8809ZM37.2149 30.5987C36.5219 31.4993 35.7809 32.365 34.9949 33.1923C33.3967 34.8739 31.6167 36.3874 29.6849 37.707C28.7673 38.4685 27.6945 39.0378 26.5349 39.3785C26.2241 39.4453 25.8993 39.4184 25.6049 39.3016C26.6049 38.3987 27.4749 37.3804 28.4349 36.4871C29.3949 35.5937 30.5249 34.5179 31.6249 33.6053C32.7249 32.6928 33.7849 31.8955 34.9049 31.0886L36.7049 29.8494L38.0349 29.0041L38.3949 28.9273C38.0149 29.446 37.6349 30.0127 37.2149 30.5603V30.5987ZM43.8449 18.0053C46.6453 17.6366 49.4897 17.7112 52.2649 18.2263C53.4749 18.428 54.6749 18.6873 55.8649 18.9851C53.9249 18.8795 51.9849 18.8026 50.0549 18.7834C48.4849 18.7834 46.9249 18.7834 45.3549 18.8314C43.9326 18.8302 42.5121 18.9298 41.1049 19.1292C41.5049 18.2455 43.0549 18.0822 43.8449 17.9669V18.0053ZM56.3749 21.0312C55.0022 21.2729 53.6168 21.4428 52.2249 21.5403C49.4449 21.7311 46.6515 21.628 43.8949 21.2329C42.9549 21.0984 41.1249 20.8199 41.0049 19.6576C42.3549 19.744 43.7249 19.6575 45.0749 19.5903C46.7349 19.5903 48.3849 19.5423 50.0749 19.5903C53.2849 19.5903 56.5049 19.8112 59.7049 20.109C59.78 20.1301 59.8598 20.1301 59.9349 20.109L60.4349 20.2531C59.0849 20.3204 57.7449 20.791 56.3749 21.0312ZM70.1749 20.2915C69.4865 21.3949 68.7284 22.4567 67.9049 23.4711C66.2266 25.5524 64.2774 27.4183 62.1049 29.0233C61.5949 29.3883 61.1049 29.7534 60.5549 30.0896C60.0049 30.4258 59.1849 31.0502 58.4349 30.8773C58.1311 30.7742 57.8794 30.564 57.7309 30.2893C57.5823 30.0146 57.548 29.696 57.6349 29.3979C57.8207 28.6491 58.1607 27.9436 58.6349 27.3231C60.0117 25.2014 61.7768 23.3367 63.8449 21.8189C65.8293 20.3819 68.0407 19.2597 70.3949 18.4952C68.1064 20.0027 65.9733 21.7172 64.0249 23.6152C62.912 24.6794 61.8572 25.7984 60.8649 26.9676C60.3849 27.544 59.9249 28.1299 59.4749 28.7351C58.9693 29.2664 58.5875 29.8952 58.3549 30.5795C58.3549 30.7812 58.5649 30.8772 58.7249 30.7812C59.267 30.3232 59.7207 29.7769 60.0649 29.1674C60.5249 28.5718 60.9949 27.9955 61.4849 27.4191C62.4951 26.2168 63.5734 25.0687 64.7149 23.9802C66.5669 22.2332 68.5746 20.6454 70.7149 19.2349C70.6049 19.5903 70.3749 19.9553 70.2049 20.2915H70.1749ZM83.6349 13.3561L81.6949 13.577C80.3549 13.7115 79.0149 13.8075 77.6949 13.8844C75.5249 13.9997 72.6949 14.3839 70.8149 13.0583C70.0249 12.5108 69.3049 11.2812 70.2049 10.5127C70.9249 9.88832 72.2049 9.94596 73.0749 9.94596C75.444 9.94334 77.8013 10.2668 80.0749 10.9066C81.2007 11.2343 82.3031 11.6322 83.3749 12.0977C82.9349 11.9728 82.4849 11.8575 82.0449 11.7519C80.7049 11.4445 79.3549 11.1947 77.9949 11.0122C76.6349 10.8297 75.3549 10.7145 73.9949 10.6568C73.3349 10.6568 72.6749 10.6088 71.9949 10.6568C71.3524 10.5947 70.7035 10.6701 70.0949 10.8777C70.0628 10.8912 70.0355 10.9133 70.0163 10.9415C69.9971 10.9696 69.9869 11.0026 69.9869 11.0362C69.9869 11.0699 69.9971 11.1028 70.0163 11.131C70.0355 11.1591 70.0628 11.1813 70.0949 11.1947C70.6774 11.3474 71.2835 11.3994 71.8849 11.3484C72.5049 11.3484 73.1349 11.3484 73.7549 11.3965C75.0949 11.4541 76.4149 11.5694 77.7549 11.7519C79.0949 11.9344 80.3149 12.1553 81.5749 12.4435C82.2249 12.5876 82.8749 12.7509 83.5149 12.9334C83.8349 13.0199 84.1949 13.1832 84.5649 13.2696C84.2949 13.2696 83.9849 13.3177 83.6649 13.3561H83.6349ZM85.3749 24.5662C85.235 23.5138 85.4193 22.4451 85.9049 21.4923C86.7597 19.4578 88.1356 17.6636 89.9049 16.2763C90.9004 15.4835 91.9875 14.8034 93.1449 14.2494C93.6905 13.9934 94.2515 13.7689 94.8249 13.577L94.5949 13.7883C94.0883 14.2302 93.5983 14.6913 93.1249 15.1716C92.0829 16.1775 91.1044 17.2425 90.1949 18.3608C89.308 19.4539 88.4931 20.5992 87.7549 21.7901C87.3883 22.3856 87.0549 22.9908 86.7549 23.6056C86.4159 24.1528 86.1536 24.7406 85.9749 25.3539C85.8197 25.2743 85.6852 25.1622 85.5813 25.0258C85.4774 24.8895 85.4069 24.7323 85.3749 24.5662ZM88.3749 24.6142C87.8001 25.0646 87.1089 25.3567 86.3749 25.4595C86.6779 25.0036 86.9485 24.5287 87.1849 24.0378C87.5449 23.3846 87.9149 22.7507 88.3149 22.1167C89.0468 20.9587 89.8482 19.8425 90.7149 18.7738C91.5811 17.7035 92.5162 16.6865 93.5149 15.7287C94.0249 15.2388 94.5649 14.7681 95.1049 14.3263C95.2449 14.211 95.3949 14.1053 95.5549 13.9901C94.5586 18.2412 92.0118 22.0097 88.3749 24.6142ZM96.6649 11.0026C95.4888 10.7883 94.3461 10.43 93.2649 9.93637C91.0831 8.9508 89.2077 7.43407 87.8249 5.53685C87.2 4.81851 86.8073 3.9404 86.6949 3.01049C87.0125 3.23253 87.3467 3.43159 87.6949 3.60605C88.2549 3.92305 88.8149 4.24004 89.3649 4.56664C90.5049 5.24866 91.6149 5.96912 92.6949 6.73759C93.7749 7.50606 94.7649 8.26493 95.6949 9.08143C96.5049 9.75385 97.2549 10.4839 98.0349 11.1755C97.5884 11.1434 97.1443 11.0856 96.7049 11.0026H96.6649ZM99.3549 11.2524C99.3354 11.212 99.3119 11.1734 99.2849 11.1371C98.4064 10.2088 97.4535 9.34801 96.4349 8.56271C95.4349 7.70778 94.3149 6.88167 93.1949 6.1036C92.0749 5.32552 90.9949 4.63391 89.8549 3.9615C89.3249 3.65411 88.8049 3.3467 88.2649 3.06812C87.8269 2.78236 87.3392 2.57417 86.8249 2.45336C86.8275 2.42781 86.8275 2.40205 86.8249 2.3765C87.4449 1.31985 89.2249 1.87701 90.1449 2.15558C92.3192 2.84297 94.3024 3.99585 95.9449 5.52724C97.6327 7.15482 98.9207 9.12393 99.7149 11.2908C99.6026 11.2708 99.489 11.258 99.3749 11.2524H99.3549Z" fill="url(#paint0_linear_299_24744)"/>
  <defs>
    <linearGradient id="paint0_linear_299_24744" x1="32.3831" y1="-0.988968" x2="94.4691" y2="88.6839" gradientUnits="userSpaceOnUse">
      <stop stop-color="#FFE68E"/>
      <stop offset="1" stop-color="#D8A217"/>
    </linearGradient>
  </defs>
</svg>