<svg xmlns="http://www.w3.org/2000/svg" width="23" height="20" viewBox="0 0 23 20" fill="none">
  <path d="M20.7251 9.25689C21.9051 8.133 22.885 6.74975 22.305 5.08793C22.1991 4.76054 22.0181 4.4601 21.7754 4.20869C21.5328 3.95727 21.2346 3.76124 20.9027 3.63502C20.5709 3.5088 20.2138 3.45559 19.8577 3.47927C19.5017 3.50296 19.1556 3.60297 18.8451 3.77192C18.8286 3.74098 18.8085 3.71195 18.7851 3.68544C17.8338 2.68765 16.6694 1.89902 15.3715 1.37347C14.0736 0.84791 12.6729 0.597847 11.2651 0.640387C9.86676 0.703975 8.50058 1.06487 7.26505 1.69704C6.66297 2.0036 6.09646 2.37067 5.57505 2.7921C5.09797 3.14302 4.6971 3.58031 4.39506 4.07929C4.2277 3.96779 4.0541 3.86519 3.87505 3.77192C3.56043 3.57642 3.20268 3.45408 2.83022 3.41463C2.45777 3.37518 2.08088 3.41969 1.72947 3.54465C1.37806 3.6696 1.06182 3.87154 0.805872 4.13443C0.549927 4.39733 0.361338 4.71395 0.25506 5.05911C-0.30494 6.72094 0.685055 8.09458 1.87505 9.19926C1.50479 9.21747 1.15206 9.3564 0.875055 9.5931C0.590061 9.87986 0.404402 10.2443 0.34353 10.6364C0.282658 11.0285 0.349559 11.4291 0.535059 11.7833C1.00899 12.6617 1.64613 13.4495 2.41505 14.1079C3.17981 14.8625 4.02438 15.5386 4.93505 16.1251C6.64472 17.2842 8.5745 18.1099 10.6151 18.5554C10.6151 18.5554 10.6151 18.613 10.6151 18.6419C10.609 18.7693 10.6294 18.8967 10.6751 19.0165C10.7046 19.1183 10.7556 19.2131 10.8251 19.295C10.9207 19.396 11.0362 19.4776 11.165 19.5352H11.2651C11.3427 19.5606 11.4233 19.5767 11.5051 19.5832C11.6461 19.5971 11.7885 19.582 11.923 19.5389C12.0575 19.4959 12.1809 19.4258 12.2851 19.3335C12.4156 19.2226 12.5182 19.0846 12.5851 18.93C12.6222 18.8502 12.649 18.7664 12.665 18.6803C12.665 18.6803 12.665 18.5938 12.665 18.5554C15.5854 17.7526 18.2342 16.2253 20.3451 14.1271C21.1107 13.4654 21.7385 12.67 22.1951 11.7833C22.3757 11.4283 22.4381 11.0285 22.3737 10.6383C22.3093 10.2481 22.1212 9.88649 21.835 9.60269C21.5271 9.35109 21.1281 9.22678 20.7251 9.25689ZM21.455 5.17438C21.6723 5.69832 21.697 6.27774 21.525 6.81698C21.0429 7.88535 20.2603 8.80347 19.2651 9.46822C19.219 9.5089 19.1816 9.55785 19.1551 9.61231C17.2618 10.4245 15.5809 11.6321 14.235 13.1473L13.985 13.4355C14.5758 12.3731 15.2441 11.3523 15.985 10.3808C16.7763 9.38375 17.6455 8.44608 18.585 7.57586C19.485 6.74014 20.485 6.01971 21.425 5.21281L21.455 5.17438ZM20.8151 4.43473C21.0056 4.55202 21.169 4.70566 21.2951 4.88618C21.2951 4.88618 21.2451 4.88618 21.215 4.88618C19.0555 6.21204 17.1591 7.89703 15.615 9.86207C14.499 11.1434 13.527 12.5344 12.7151 14.0118C13.4046 11.5891 14.5538 9.3095 16.1051 7.28766C16.7402 6.45211 17.4789 5.69407 18.305 5.0303C18.965 4.51158 19.9651 3.94483 20.8151 4.43473ZM11.0851 1.36083C12.31 1.28773 13.5364 1.47806 14.675 1.91796C13.1469 4.8776 12.1335 8.0576 11.6751 11.3318C11.6751 10.9091 11.6751 10.4864 11.5951 10.0638L11.3551 5.67388C11.3288 4.23492 11.222 2.79838 11.0351 1.37045L11.0851 1.36083ZM7.37505 2.37905C8.40712 1.85675 9.53439 1.5306 10.6951 1.41846C10.6251 2.73447 10.745 4.07932 10.805 5.39533C10.885 6.90345 10.9551 8.41156 11.0351 9.91009C11.0351 10.2559 11.0351 10.6017 11.0351 10.9379C10.8851 10.448 10.7451 9.97733 10.5651 9.45861C10.0854 8.16125 9.48635 6.90753 8.77505 5.71231C8.44505 5.15516 8.10506 4.62683 7.72506 4.10811C7.44292 3.64445 7.10749 3.21268 6.72506 2.82092C6.92506 2.66722 7.13505 2.53275 7.37505 2.37905ZM1.74505 4.35787C2.59505 3.84876 3.59505 4.41551 4.26505 4.93423C5.09509 5.59228 5.84336 6.34009 6.49505 7.16281C8.0685 9.18104 9.24142 11.4605 9.95506 13.8869C9.12446 12.418 8.13572 11.0368 7.00506 9.766C5.43867 7.81912 3.52581 6.15401 1.35505 4.84778C1.35505 4.84778 1.30505 4.84778 1.27505 4.84778C1.39082 4.66317 1.54797 4.50565 1.73506 4.38669L1.74505 4.35787ZM1.05505 6.74015C0.885416 6.2013 0.906529 5.62362 1.11506 5.09751C1.11506 5.09751 1.11506 5.09753 1.11506 5.14556C2.06506 5.93325 3.11506 6.64408 3.98506 7.47979C4.93611 8.33407 5.81552 9.25911 6.61506 10.2463C7.35294 11.2132 8.02117 12.2274 8.61506 13.2818L8.36506 12.9936C6.98849 11.4916 5.2803 10.3036 3.36506 9.51624C3.33853 9.46178 3.30116 9.41284 3.25506 9.37216C2.28711 8.71213 1.52338 7.81254 1.04505 6.76896L1.05505 6.74015ZM6.56506 16.2788C5.00698 15.4164 3.59979 14.324 2.39506 13.0416C1.81506 12.4365 0.995053 11.6488 1.04505 10.765C1.04925 10.7203 1.04925 10.6753 1.04505 10.6305C4.1664 12.7519 7.10885 15.1062 9.84506 17.6717C8.70433 17.3221 7.6023 16.8652 6.55505 16.3076L6.56506 16.2788ZM1.22506 10.2175C1.67506 9.57389 2.89505 10.0061 3.57505 10.3039C5.20229 11.0415 6.65537 12.0908 7.84506 13.3874C8.48492 14.0798 9.04485 14.8367 9.51505 15.6448C9.77686 16.1011 10.0009 16.5765 10.1851 17.0665C7.49604 14.4499 4.48363 12.1595 1.21505 10.2463L1.22506 10.2175ZM7.78506 7.57586C6.97108 6.34729 5.95837 5.25125 4.78506 4.32905C5.13506 4.06969 5.42506 3.73349 5.78506 3.46453C5.94506 3.33004 6.11505 3.21476 6.27505 3.08988C6.52505 3.51254 6.86506 3.88719 7.14506 4.28104C7.54506 4.83818 7.91505 5.41451 8.26505 6.00047C8.94289 7.14257 9.5183 8.33802 9.98505 9.57387C10.4575 10.8223 10.8155 12.108 11.055 13.4162C11.135 13.8773 11.1851 14.3768 11.245 14.7995C11.245 15.5199 11.2451 16.2404 11.3251 16.9608C10.8488 13.6348 9.63847 10.445 7.77505 7.60467L7.78506 7.57586ZM11.9351 14.4345C12.0484 12.7035 12.2924 10.9827 12.665 9.28571C13.2555 6.82033 14.1484 4.43096 15.3251 2.16772C16.3717 2.65905 17.309 3.34087 18.085 4.17536C16.7799 5.142 15.6743 6.33439 14.8251 7.69112C13.4555 9.76921 12.4741 12.061 11.9251 14.4633L11.9351 14.4345ZM12.525 17.201C13.046 15.8417 13.826 14.5875 14.8251 13.5027C16.0046 12.1954 17.4467 11.1303 19.0651 10.3712C19.7351 10.0638 20.9551 9.6219 21.4151 10.2655C18.1628 12.2283 15.1738 14.5672 12.5151 17.2298L12.525 17.201ZM20.275 13.0993C19.0835 14.3929 17.6902 15.5011 16.145 16.3845C15.0978 16.9575 13.9962 17.4336 12.8551 17.8061C15.5694 15.2184 18.4844 12.8325 21.5751 10.669C21.5799 10.7137 21.5799 10.7587 21.5751 10.8034C21.6551 11.716 20.8351 12.5133 20.2651 13.1281L20.275 13.0993Z" fill="white"/>
  <path d="M20.7251 9.25689C21.9051 8.133 22.885 6.74975 22.305 5.08793C22.1991 4.76054 22.0181 4.4601 21.7754 4.20869C21.5328 3.95727 21.2346 3.76124 20.9027 3.63502C20.5709 3.5088 20.2138 3.45559 19.8577 3.47927C19.5017 3.50296 19.1556 3.60297 18.8451 3.77192C18.8286 3.74098 18.8085 3.71195 18.7851 3.68544C17.8338 2.68765 16.6694 1.89902 15.3715 1.37347C14.0736 0.84791 12.6729 0.597847 11.2651 0.640387C9.86676 0.703975 8.50058 1.06487 7.26505 1.69704C6.66297 2.0036 6.09646 2.37067 5.57505 2.7921C5.09797 3.14302 4.6971 3.58031 4.39506 4.07929C4.2277 3.96779 4.0541 3.86519 3.87505 3.77192C3.56043 3.57642 3.20268 3.45408 2.83022 3.41463C2.45777 3.37518 2.08088 3.41969 1.72947 3.54465C1.37806 3.6696 1.06182 3.87154 0.805872 4.13443C0.549927 4.39733 0.361338 4.71395 0.25506 5.05911C-0.30494 6.72094 0.685055 8.09458 1.87505 9.19926C1.50479 9.21747 1.15206 9.3564 0.875055 9.5931C0.590061 9.87986 0.404402 10.2443 0.34353 10.6364C0.282658 11.0285 0.349559 11.4291 0.535059 11.7833C1.00899 12.6617 1.64613 13.4495 2.41505 14.1079C3.17981 14.8625 4.02438 15.5386 4.93505 16.1251C6.64472 17.2842 8.5745 18.1099 10.6151 18.5554C10.6151 18.5554 10.6151 18.613 10.6151 18.6419C10.609 18.7693 10.6294 18.8967 10.6751 19.0165C10.7046 19.1183 10.7556 19.2131 10.8251 19.295C10.9207 19.396 11.0362 19.4776 11.165 19.5352H11.2651C11.3427 19.5606 11.4233 19.5767 11.5051 19.5832C11.6461 19.5971 11.7885 19.582 11.923 19.5389C12.0575 19.4959 12.1809 19.4258 12.2851 19.3335C12.4156 19.2226 12.5182 19.0846 12.5851 18.93C12.6222 18.8502 12.649 18.7664 12.665 18.6803C12.665 18.6803 12.665 18.5938 12.665 18.5554C15.5854 17.7526 18.2342 16.2253 20.3451 14.1271C21.1107 13.4654 21.7385 12.67 22.1951 11.7833C22.3757 11.4283 22.4381 11.0285 22.3737 10.6383C22.3093 10.2481 22.1212 9.88649 21.835 9.60269C21.5271 9.35109 21.1281 9.22678 20.7251 9.25689ZM21.455 5.17438C21.6723 5.69832 21.697 6.27774 21.525 6.81698C21.0429 7.88535 20.2603 8.80347 19.2651 9.46822C19.219 9.5089 19.1816 9.55785 19.1551 9.61231C17.2618 10.4245 15.5809 11.6321 14.235 13.1473L13.985 13.4355C14.5758 12.3731 15.2441 11.3523 15.985 10.3808C16.7763 9.38375 17.6455 8.44608 18.585 7.57586C19.485 6.74014 20.485 6.01971 21.425 5.21281L21.455 5.17438ZM20.8151 4.43473C21.0056 4.55202 21.169 4.70566 21.2951 4.88618C21.2951 4.88618 21.2451 4.88618 21.215 4.88618C19.0555 6.21204 17.1591 7.89703 15.615 9.86207C14.499 11.1434 13.527 12.5344 12.7151 14.0118C13.4046 11.5891 14.5538 9.3095 16.1051 7.28766C16.7402 6.45211 17.4789 5.69407 18.305 5.0303C18.965 4.51158 19.9651 3.94483 20.8151 4.43473ZM11.0851 1.36083C12.31 1.28773 13.5364 1.47806 14.675 1.91796C13.1469 4.8776 12.1335 8.0576 11.6751 11.3318C11.6751 10.9091 11.6751 10.4864 11.5951 10.0638L11.3551 5.67388C11.3288 4.23492 11.222 2.79838 11.0351 1.37045L11.0851 1.36083ZM7.37505 2.37905C8.40712 1.85675 9.53439 1.5306 10.6951 1.41846C10.6251 2.73447 10.745 4.07932 10.805 5.39533C10.885 6.90345 10.9551 8.41156 11.0351 9.91009C11.0351 10.2559 11.0351 10.6017 11.0351 10.9379C10.8851 10.448 10.7451 9.97733 10.5651 9.45861C10.0854 8.16125 9.48635 6.90753 8.77505 5.71231C8.44505 5.15516 8.10506 4.62683 7.72506 4.10811C7.44292 3.64445 7.10749 3.21268 6.72506 2.82092C6.92506 2.66722 7.13505 2.53275 7.37505 2.37905ZM1.74505 4.35787C2.59505 3.84876 3.59505 4.41551 4.26505 4.93423C5.09509 5.59228 5.84336 6.34009 6.49505 7.16281C8.0685 9.18104 9.24142 11.4605 9.95506 13.8869C9.12446 12.418 8.13572 11.0368 7.00506 9.766C5.43867 7.81912 3.52581 6.15401 1.35505 4.84778C1.35505 4.84778 1.30505 4.84778 1.27505 4.84778C1.39082 4.66317 1.54797 4.50565 1.73506 4.38669L1.74505 4.35787ZM1.05505 6.74015C0.885416 6.2013 0.906529 5.62362 1.11506 5.09751C1.11506 5.09751 1.11506 5.09753 1.11506 5.14556C2.06506 5.93325 3.11506 6.64408 3.98506 7.47979C4.93611 8.33407 5.81552 9.25911 6.61506 10.2463C7.35294 11.2132 8.02117 12.2274 8.61506 13.2818L8.36506 12.9936C6.98849 11.4916 5.2803 10.3036 3.36506 9.51624C3.33853 9.46178 3.30116 9.41284 3.25506 9.37216C2.28711 8.71213 1.52338 7.81254 1.04505 6.76896L1.05505 6.74015ZM6.56506 16.2788C5.00698 15.4164 3.59979 14.324 2.39506 13.0416C1.81506 12.4365 0.995053 11.6488 1.04505 10.765C1.04925 10.7203 1.04925 10.6753 1.04505 10.6305C4.1664 12.7519 7.10885 15.1062 9.84506 17.6717C8.70433 17.3221 7.6023 16.8652 6.55505 16.3076L6.56506 16.2788ZM1.22506 10.2175C1.67506 9.57389 2.89505 10.0061 3.57505 10.3039C5.20229 11.0415 6.65537 12.0908 7.84506 13.3874C8.48492 14.0798 9.04485 14.8367 9.51505 15.6448C9.77686 16.1011 10.0009 16.5765 10.1851 17.0665C7.49604 14.4499 4.48363 12.1595 1.21505 10.2463L1.22506 10.2175ZM7.78506 7.57586C6.97108 6.34729 5.95837 5.25125 4.78506 4.32905C5.13506 4.06969 5.42506 3.73349 5.78506 3.46453C5.94506 3.33004 6.11505 3.21476 6.27505 3.08988C6.52505 3.51254 6.86506 3.88719 7.14506 4.28104C7.54506 4.83818 7.91505 5.41451 8.26505 6.00047C8.94289 7.14257 9.5183 8.33802 9.98505 9.57387C10.4575 10.8223 10.8155 12.108 11.055 13.4162C11.135 13.8773 11.1851 14.3768 11.245 14.7995C11.245 15.5199 11.2451 16.2404 11.3251 16.9608C10.8488 13.6348 9.63847 10.445 7.77505 7.60467L7.78506 7.57586ZM11.9351 14.4345C12.0484 12.7035 12.2924 10.9827 12.665 9.28571C13.2555 6.82033 14.1484 4.43096 15.3251 2.16772C16.3717 2.65905 17.309 3.34087 18.085 4.17536C16.7799 5.142 15.6743 6.33439 14.8251 7.69112C13.4555 9.76921 12.4741 12.061 11.9251 14.4633L11.9351 14.4345ZM12.525 17.201C13.046 15.8417 13.826 14.5875 14.8251 13.5027C16.0046 12.1954 17.4467 11.1303 19.0651 10.3712C19.7351 10.0638 20.9551 9.6219 21.4151 10.2655C18.1628 12.2283 15.1738 14.5672 12.5151 17.2298L12.525 17.201ZM20.275 13.0993C19.0835 14.3929 17.6902 15.5011 16.145 16.3845C15.0978 16.9575 13.9962 17.4336 12.8551 17.8061C15.5694 15.2184 18.4844 12.8325 21.5751 10.669C21.5799 10.7137 21.5799 10.7587 21.5751 10.8034C21.6551 11.716 20.8351 12.5133 20.2651 13.1281L20.275 13.0993Z" fill="url(#paint0_linear_299_24766)"/>
  <defs>
    <linearGradient id="paint0_linear_299_24766" x1="6.33655" y1="-0.24577" x2="34.3036" y2="16.3611" gradientUnits="userSpaceOnUse">
      <stop stop-color="#FFE68E"/>
      <stop offset="1" stop-color="#D8A217"/>
    </linearGradient>
  </defs>
</svg>