<svg width="180" height="180" viewBox="0 0 180 180" fill="none" xmlns="http://www.w3.org/2000/svg">
<g filter="url(#filter0_i_299_15004)">
<rect width="180" height="180" rx="90" fill="#3D161A"/>
<path d="M178.925 40.071C173.607 48.3821 168.793 56.2443 166.633 65.8353C164.267 76.299 164.834 87.0618 162.683 97.5171C161.549 103.002 158.454 107.715 155.251 112.361C153.637 114.856 151.759 117.197 149.645 119.35C148.394 120.564 146.144 121.894 144.408 120.181C143.715 119.475 143.508 117.58 143.418 116.558C142.842 110.865 146.612 107.158 149.186 102.429C151.399 98.3482 153.208 93.7522 153.208 89.1312C153.208 88.35 152.02 88.6658 152.02 89.2975C152.02 96.3536 147.926 101.955 144.417 107.881C143.334 109.572 142.623 111.444 142.323 113.389C142.024 115.334 142.142 117.314 142.671 119.217C145.668 128.908 155.107 114.438 157.068 111.488C159.939 107.2 162.584 103.002 163.709 98.0158C165.112 91.849 165.139 85.4079 165.742 79.1497C166.399 72.2348 167.452 65.2037 169.827 58.5964C172.203 51.9891 176.126 46.3542 179.887 40.5032C180.337 39.805 179.312 39.4809 178.916 40.0959L178.925 40.071Z" fill="white"/>
<path d="M178.925 40.071C173.607 48.3821 168.793 56.2443 166.633 65.8353C164.267 76.299 164.834 87.0618 162.683 97.5171C161.549 103.002 158.454 107.715 155.251 112.361C153.637 114.856 151.759 117.197 149.645 119.35C148.394 120.564 146.144 121.894 144.408 120.181C143.715 119.475 143.508 117.58 143.418 116.558C142.842 110.865 146.612 107.158 149.186 102.429C151.399 98.3482 153.208 93.7522 153.208 89.1312C153.208 88.35 152.02 88.6658 152.02 89.2975C152.02 96.3536 147.926 101.955 144.417 107.881C143.334 109.572 142.623 111.444 142.323 113.389C142.024 115.334 142.142 117.314 142.671 119.217C145.668 128.908 155.107 114.438 157.068 111.488C159.939 107.2 162.584 103.002 163.709 98.0158C165.112 91.849 165.139 85.4079 165.742 79.1497C166.399 72.2348 167.452 65.2037 169.827 58.5964C172.203 51.9891 176.126 46.3542 179.887 40.5032C180.337 39.805 179.312 39.4809 178.916 40.0959L178.925 40.071Z" fill="url(#paint0_linear_299_15004)"/>
<path d="M151.804 92.2476C146.999 95.2479 142.239 96.7522 138.019 100.559C134.118 103.941 130.917 107.952 128.571 112.394C126.054 117.005 124.439 121.99 123.802 127.121C123.469 130.179 123.208 133.346 122.11 136.263C120.923 139.446 117.449 144.067 115.632 138.939C115.416 138.316 114.327 139.047 114.534 139.629C115.614 142.679 117.234 144.408 120.005 141.765C123.775 138.175 124.504 132.299 124.936 127.636C125.69 120.169 128.527 113.011 133.169 106.858C135.858 103.423 139.11 100.395 142.806 97.8825C145.749 95.9543 149.285 94.9653 152.272 93.0953C152.92 92.6881 152.533 91.7572 151.804 92.2144V92.2476Z" fill="white"/>
<path d="M151.804 92.2476C146.999 95.2479 142.239 96.7522 138.019 100.559C134.118 103.941 130.917 107.952 128.571 112.394C126.054 117.005 124.439 121.99 123.802 127.121C123.469 130.179 123.208 133.346 122.11 136.263C120.923 139.446 117.449 144.067 115.632 138.939C115.416 138.316 114.327 139.047 114.534 139.629C115.614 142.679 117.234 144.408 120.005 141.765C123.775 138.175 124.504 132.299 124.936 127.636C125.69 120.169 128.527 113.011 133.169 106.858C135.858 103.423 139.11 100.395 142.806 97.8825C145.749 95.9543 149.285 94.9653 152.272 93.0953C152.92 92.6881 152.533 91.7572 151.804 92.2144V92.2476Z" fill="url(#paint1_linear_299_15004)"/>
<path d="M120.464 102.595C119.564 105.346 117.396 107.848 117.018 110.707C116.361 115.693 117.639 121.029 117.369 126.065C117.189 129.39 117.513 134.377 115.569 137.385C112.96 141.391 111.484 137.443 111.016 135.374C110.564 133.429 110.29 131.452 110.197 129.465C110.197 128.758 108.982 129.307 109.009 129.905C109.09 131.991 109.153 139.205 111.934 140.477C114.327 141.566 116.172 138.815 116.874 137.152C118.961 132.374 118.799 126.248 118.673 121.195C118.601 118.054 117.972 114.771 118.26 111.646C118.547 108.521 120.563 105.728 121.589 102.703C121.859 101.93 120.689 101.947 120.473 102.578L120.464 102.595Z" fill="white"/>
<path d="M120.464 102.595C119.564 105.346 117.396 107.848 117.018 110.707C116.361 115.693 117.639 121.029 117.369 126.065C117.189 129.39 117.513 134.377 115.569 137.385C112.96 141.391 111.484 137.443 111.016 135.374C110.564 133.429 110.29 131.452 110.197 129.465C110.197 128.758 108.982 129.307 109.009 129.905C109.09 131.991 109.153 139.205 111.934 140.477C114.327 141.566 116.172 138.815 116.874 137.152C118.961 132.374 118.799 126.248 118.673 121.195C118.601 118.054 117.972 114.771 118.26 111.646C118.547 108.521 120.563 105.728 121.589 102.703C121.859 101.93 120.689 101.947 120.473 102.578L120.464 102.595Z" fill="url(#paint2_linear_299_15004)"/>
<path d="M122.849 103.659C120.446 106.858 119.312 110.806 117.351 114.222C116.937 114.937 117.954 115.269 118.314 114.629C120.275 111.213 121.427 107.249 123.82 104.066C124.324 103.393 123.29 103.077 122.849 103.659Z" fill="white"/>
<path d="M122.849 103.659C120.446 106.858 119.312 110.806 117.351 114.222C116.937 114.937 117.954 115.269 118.314 114.629C120.275 111.213 121.427 107.249 123.82 104.066C124.324 103.393 123.29 103.077 122.849 103.659Z" fill="url(#paint3_linear_299_15004)"/>
<path d="M113.859 96.9935C111.682 102.288 107.111 104.282 108.91 110.374C109.927 113.799 111.16 117.156 111.907 120.639C112.267 122.301 113.193 125.16 112.546 126.739C111.241 129.955 108.721 127.42 107.84 125.742C106.958 124.063 106.184 122.184 105.248 120.447C103.203 116.764 101.927 112.757 101.487 108.637C101.083 103.893 101.526 99.1196 102.801 94.5085C103.61 91.6079 104.33 88.0425 105.743 85.3663C106.121 84.635 104.924 84.6599 104.627 85.2417C102.783 88.7656 101.712 93.4198 100.974 97.2844C99.961 102.146 99.8818 107.133 100.74 112.02C101.64 116.549 103.799 120.206 105.761 124.379C106.598 126.149 107.894 130.57 110.809 130.396C115.002 130.146 113.742 123.622 113.319 121.254C112.51 116.907 110.62 112.826 109.657 108.529C108.649 103.95 113.364 101.049 114.984 97.1099C115.299 96.3453 114.084 96.3702 113.859 96.9852V96.9935Z" fill="white"/>
<path d="M113.859 96.9935C111.682 102.288 107.111 104.282 108.91 110.374C109.927 113.799 111.16 117.156 111.907 120.639C112.267 122.301 113.193 125.16 112.546 126.739C111.241 129.955 108.721 127.42 107.84 125.742C106.958 124.063 106.184 122.184 105.248 120.447C103.203 116.764 101.927 112.757 101.487 108.637C101.083 103.893 101.526 99.1196 102.801 94.5085C103.61 91.6079 104.33 88.0425 105.743 85.3663C106.121 84.635 104.924 84.6599 104.627 85.2417C102.783 88.7656 101.712 93.4198 100.974 97.2844C99.961 102.146 99.8818 107.133 100.74 112.02C101.64 116.549 103.799 120.206 105.761 124.379C106.598 126.149 107.894 130.57 110.809 130.396C115.002 130.146 113.742 123.622 113.319 121.254C112.51 116.907 110.62 112.826 109.657 108.529C108.649 103.95 113.364 101.049 114.984 97.1099C115.299 96.3453 114.084 96.3702 113.859 96.9852V96.9935Z" fill="url(#paint4_linear_299_15004)"/>
<path d="M104.807 84.9344C103.457 86.3141 101.604 86.9125 99.912 87.8267C98.4736 88.719 96.9703 89.5188 95.4129 90.2202C94.7561 90.4696 94.774 91.5667 95.5929 91.2508C97.2451 90.5023 98.8413 89.6527 100.371 88.7077C102.17 87.7353 104.105 87.0454 105.545 85.5993C106.112 85.0258 105.374 84.3526 104.798 84.9344H104.807Z" fill="white"/>
<path d="M104.807 84.9344C103.457 86.3141 101.604 86.9125 99.912 87.8267C98.4736 88.719 96.9703 89.5188 95.4129 90.2202C94.7561 90.4696 94.774 91.5667 95.5929 91.2508C97.2451 90.5023 98.8413 89.6527 100.371 88.7077C102.17 87.7353 104.105 87.0454 105.545 85.5993C106.112 85.0258 105.374 84.3526 104.798 84.9344H104.807Z" fill="url(#paint5_linear_299_15004)"/>
<path d="M86.1453 89.5798C85.1015 93.1951 84.4446 97.7662 86.3972 101.257C87.2971 102.919 89.7535 105.595 92.0031 104.407C92.6779 104.041 92.291 103.118 91.5262 103.517C89.3306 104.689 86.9821 99.578 86.7212 98.4643C86.1619 95.5425 86.3468 92.5405 87.2611 89.6961C87.486 88.9149 86.3612 88.9315 86.1453 89.5798Z" fill="white"/>
<path d="M86.1453 89.5798C85.1015 93.1951 84.4446 97.7662 86.3972 101.257C87.2971 102.919 89.7535 105.595 92.0031 104.407C92.6779 104.041 92.291 103.118 91.5262 103.517C89.3306 104.689 86.9821 99.578 86.7212 98.4643C86.1619 95.5425 86.3468 92.5405 87.2611 89.6961C87.486 88.9149 86.3612 88.9315 86.1453 89.5798Z" fill="url(#paint6_linear_299_15004)"/>
<path d="M92.2822 82.4242C98.4729 78.5512 104.394 74.0632 110.539 70.0739C116.37 66.284 122.066 62.2698 127.744 58.2888C139.051 50.5126 148.585 40.7518 155.8 29.5657C156.25 28.8676 155.233 28.5435 154.828 29.1585C146.946 41.3591 137.12 50.6509 124.828 59.0783C119.502 62.7352 114.238 66.5583 108.767 69.9991C102.999 73.6726 97.5821 77.9112 91.8143 81.5183C91.1754 81.9255 91.5533 82.8563 92.2822 82.3992V82.4242Z" fill="white"/>
<path d="M92.2822 82.4242C98.4729 78.5512 104.394 74.0632 110.539 70.0739C116.37 66.284 122.066 62.2698 127.744 58.2888C139.051 50.5126 148.585 40.7518 155.8 29.5657C156.25 28.8676 155.233 28.5435 154.828 29.1585C146.946 41.3591 137.12 50.6509 124.828 59.0783C119.502 62.7352 114.238 66.5583 108.767 69.9991C102.999 73.6726 97.5821 77.9112 91.8143 81.5183C91.1754 81.9255 91.5533 82.8563 92.2822 82.3992V82.4242Z" fill="url(#paint7_linear_299_15004)"/>
<path d="M123.074 75.5756C128.473 73.2485 134.249 71.5281 139.207 68.4364C143.607 65.702 146.64 61.7875 149.789 57.9229C150.32 57.2746 149.276 56.9588 148.817 57.5239C145.479 61.613 142.285 65.594 137.471 68.3283C132.891 70.9048 127.735 72.4839 122.903 74.5783C122.264 74.8525 122.273 75.9579 123.074 75.6088V75.5756Z" fill="white"/>
<path d="M123.074 75.5756C128.473 73.2485 134.249 71.5281 139.207 68.4364C143.607 65.702 146.64 61.7875 149.789 57.9229C150.32 57.2746 149.276 56.9588 148.817 57.5239C145.479 61.613 142.285 65.594 137.471 68.3283C132.891 70.9048 127.735 72.4839 122.903 74.5783C122.264 74.8525 122.273 75.9579 123.074 75.6088V75.5756Z" fill="url(#paint8_linear_299_15004)"/>
<path d="M157.734 63.5332C153.885 66.5839 150.373 69.9805 147.251 73.6727C143.859 77.8282 142.662 82.0752 140.71 86.8624C140.404 87.627 141.609 87.6021 141.834 86.987C143.706 82.3744 144.939 78.0776 148.223 74.0799C151.285 70.4847 154.721 67.1749 158.481 64.1981C159.12 63.6828 158.355 63.0179 157.734 63.5332Z" fill="white"/>
<path d="M157.734 63.5332C153.885 66.5839 150.373 69.9805 147.251 73.6727C143.859 77.8282 142.662 82.0752 140.71 86.8624C140.404 87.627 141.609 87.6021 141.834 86.987C143.706 82.3744 144.939 78.0776 148.223 74.0799C151.285 70.4847 154.721 67.1749 158.481 64.1981C159.12 63.6828 158.355 63.0179 157.734 63.5332Z" fill="url(#paint9_linear_299_15004)"/>
<path d="M29.7169 28.0944C33.3161 32.4577 35.8806 37.2366 39.7948 41.3921C44.3748 46.2126 48.9368 51.0745 53.8228 55.6456C58.0339 59.5851 62.0741 63.3583 67.1491 66.3337C70.0844 68.0201 72.8491 69.9478 75.4093 72.0932C77.2089 73.5975 78.7296 75.3678 80.8082 76.548C83.1387 77.8694 85.8831 78.3349 88.2227 79.6231C91.7499 81.5596 92.8297 84.859 93.6755 88.3248C94.4044 91.3084 95.3132 94.2589 96.006 97.2509C96.393 98.9131 97.1578 101.406 96.7259 103.069C96.231 105.022 94.5393 105.994 93.1266 103.767C90.3192 99.3536 91.246 93.702 87.6648 89.5216C86.4557 88.2633 85.0446 87.1842 83.4806 86.3218C81.969 85.366 78.2437 83.8285 77.2809 82.4655C76.876 81.892 75.8232 82.6483 76.1832 83.1553C77.083 84.4186 78.8826 84.9255 80.1963 85.7234C83.7956 87.876 87.0079 89.8789 88.6186 93.7436C89.9683 96.935 89.9053 104.756 94.0174 106.576C97.5087 108.113 97.9496 103.625 97.8956 101.589C97.7786 97.6997 96.348 93.968 95.4032 90.2197C94.7463 87.6266 94.3684 84.9089 93.0366 82.5153C91.886 80.5187 90.0414 78.9378 87.7997 78.0274C84.2005 76.3651 81.1951 75.534 78.2167 72.8329C72.9078 68.0457 66.1592 65.1369 60.9223 60.3663C55.0376 55.014 49.3957 49.5037 43.9249 43.7857C41.0815 40.8187 38.2201 37.968 36.0695 34.5687C34.4412 31.9921 32.638 29.5132 30.6707 27.147C30.2657 26.6483 29.3209 27.5376 29.7708 28.0446L29.7169 28.0944Z" fill="white"/>
<path d="M29.7169 28.0944C33.3161 32.4577 35.8806 37.2366 39.7948 41.3921C44.3748 46.2126 48.9368 51.0745 53.8228 55.6456C58.0339 59.5851 62.0741 63.3583 67.1491 66.3337C70.0844 68.0201 72.8491 69.9478 75.4093 72.0932C77.2089 73.5975 78.7296 75.3678 80.8082 76.548C83.1387 77.8694 85.8831 78.3349 88.2227 79.6231C91.7499 81.5596 92.8297 84.859 93.6755 88.3248C94.4044 91.3084 95.3132 94.2589 96.006 97.2509C96.393 98.9131 97.1578 101.406 96.7259 103.069C96.231 105.022 94.5393 105.994 93.1266 103.767C90.3192 99.3536 91.246 93.702 87.6648 89.5216C86.4557 88.2633 85.0446 87.1842 83.4806 86.3218C81.969 85.366 78.2437 83.8285 77.2809 82.4655C76.876 81.892 75.8232 82.6483 76.1832 83.1553C77.083 84.4186 78.8826 84.9255 80.1963 85.7234C83.7956 87.876 87.0079 89.8789 88.6186 93.7436C89.9683 96.935 89.9053 104.756 94.0174 106.576C97.5087 108.113 97.9496 103.625 97.8956 101.589C97.7786 97.6997 96.348 93.968 95.4032 90.2197C94.7463 87.6266 94.3684 84.9089 93.0366 82.5153C91.886 80.5187 90.0414 78.9378 87.7997 78.0274C84.2005 76.3651 81.1951 75.534 78.2167 72.8329C72.9078 68.0457 66.1592 65.1369 60.9223 60.3663C55.0376 55.014 49.3957 49.5037 43.9249 43.7857C41.0815 40.8187 38.2201 37.968 36.0695 34.5687C34.4412 31.9921 32.638 29.5132 30.6707 27.147C30.2657 26.6483 29.3209 27.5376 29.7708 28.0446L29.7169 28.0944Z" fill="url(#paint10_linear_299_15004)"/>
<path d="M0.0239371 34.9758C0.923749 40.5442 6.09767 45.7137 8.78811 50.7003C12.7482 58.3849 14.8718 66.7665 15.0148 75.2762C15.0148 78.7585 15.0148 82.2741 14.7719 85.7564C14.6009 88.7235 13.7821 91.8318 14.5829 94.7739C15.4197 97.8657 17.7322 100.592 19.082 103.517C20.5306 106.626 21.7814 109.8 23.428 112.817C25.0027 115.676 27.3422 122.832 31.8683 123.065C33.6679 123.156 34.2708 121.943 34.7477 120.463C35.8095 117.139 35.4765 112.909 35.0356 109.501C34.6819 106.857 33.9183 104.273 32.7681 101.83C31.2114 98.4059 30.1407 94.7573 28.1161 91.5326C27.7472 90.9425 26.6764 91.6905 27.0093 92.2224C28.557 94.7157 29.3578 97.2756 30.4466 99.9019C31.6523 102.811 33.101 105.512 33.6589 108.62C34.2734 111.974 34.3583 115.392 33.9109 118.768C33.5149 121.403 32.3272 122.533 29.8617 120.613C27.8011 119.017 26.9913 116.507 25.8216 114.347C23.1221 109.36 21.0795 104.057 18.2361 99.1456C16.0946 95.4471 15.3837 93.0452 15.6897 88.7401C15.8876 85.8894 16.0406 83.0802 16.0946 80.2212C16.1936 74.8689 16.2296 69.8241 14.8169 64.5798C13.4041 59.3355 12.0274 53.6923 9.16603 48.7888C6.62856 44.4504 1.96753 39.472 1.1937 34.5186C1.07672 33.8039 -0.0930423 34.3607 0.00593705 34.9591L0.0239371 34.9758Z" fill="white"/>
<path d="M0.0239371 34.9758C0.923749 40.5442 6.09767 45.7137 8.78811 50.7003C12.7482 58.3849 14.8718 66.7665 15.0148 75.2762C15.0148 78.7585 15.0148 82.2741 14.7719 85.7564C14.6009 88.7235 13.7821 91.8318 14.5829 94.7739C15.4197 97.8657 17.7322 100.592 19.082 103.517C20.5306 106.626 21.7814 109.8 23.428 112.817C25.0027 115.676 27.3422 122.832 31.8683 123.065C33.6679 123.156 34.2708 121.943 34.7477 120.463C35.8095 117.139 35.4765 112.909 35.0356 109.501C34.6819 106.857 33.9183 104.273 32.7681 101.83C31.2114 98.4059 30.1407 94.7573 28.1161 91.5326C27.7472 90.9425 26.6764 91.6905 27.0093 92.2224C28.557 94.7157 29.3578 97.2756 30.4466 99.9019C31.6523 102.811 33.101 105.512 33.6589 108.62C34.2734 111.974 34.3583 115.392 33.9109 118.768C33.5149 121.403 32.3272 122.533 29.8617 120.613C27.8011 119.017 26.9913 116.507 25.8216 114.347C23.1221 109.36 21.0795 104.057 18.2361 99.1456C16.0946 95.4471 15.3837 93.0452 15.6897 88.7401C15.8876 85.8894 16.0406 83.0802 16.0946 80.2212C16.1936 74.8689 16.2296 69.8241 14.8169 64.5798C13.4041 59.3355 12.0274 53.6923 9.16603 48.7888C6.62856 44.4504 1.96753 39.472 1.1937 34.5186C1.07672 33.8039 -0.0930423 34.3607 0.00593705 34.9591L0.0239371 34.9758Z" fill="url(#paint11_linear_299_15004)"/>
<path d="M24.5617 90.5692C31.6342 95.5558 39.7955 99.4371 46.2562 105.064C49.6125 107.989 50.0174 111.787 51.3671 115.644C52.9148 120.073 54.7324 124.312 55.7222 128.892C56.4331 132.216 57.2159 135.15 59.1055 138.075C59.7894 139.131 60.5992 141.225 61.9399 141.757C65.6021 143.212 67.2398 138.881 66.394 136.496C66.169 135.865 65.0803 136.604 65.2872 137.178C64.6453 140.735 63.5236 141.679 61.9219 140.012C61.7959 139.804 61.67 139.596 61.553 139.38C60.6253 138.223 59.8236 136.984 59.1595 135.682C57.7198 133.014 57.2789 130.055 56.631 127.179C55.3443 121.486 52.8878 116.026 51.1422 110.449C49.7115 105.87 46.5531 103.443 42.531 100.559C37.0871 96.6612 31.0044 93.5279 25.4975 89.6716C24.9486 89.2893 24.0218 90.1952 24.5977 90.5692H24.5617Z" fill="white"/>
<path d="M24.5617 90.5692C31.6342 95.5558 39.7955 99.4371 46.2562 105.064C49.6125 107.989 50.0174 111.787 51.3671 115.644C52.9148 120.073 54.7324 124.312 55.7222 128.892C56.4331 132.216 57.2159 135.15 59.1055 138.075C59.7894 139.131 60.5992 141.225 61.9399 141.757C65.6021 143.212 67.2398 138.881 66.394 136.496C66.169 135.865 65.0803 136.604 65.2872 137.178C64.6453 140.735 63.5236 141.679 61.9219 140.012C61.7959 139.804 61.67 139.596 61.553 139.38C60.6253 138.223 59.8236 136.984 59.1595 135.682C57.7198 133.014 57.2789 130.055 56.631 127.179C55.3443 121.486 52.8878 116.026 51.1422 110.449C49.7115 105.87 46.5531 103.443 42.531 100.559C37.0871 96.6612 31.0044 93.5279 25.4975 89.6716C24.9486 89.2893 24.0218 90.1952 24.5977 90.5692H24.5617Z" fill="url(#paint12_linear_299_15004)"/>
<path d="M56.9543 106.002C58.2771 111.961 59.5998 117.92 61.2644 123.804C61.9483 126.223 62.7311 128.617 63.496 131.019C64.1078 132.955 64.2968 135.905 65.5296 137.667C66.6453 139.246 68.022 139.13 69.5427 137.9C71.9542 135.955 72.5751 131.933 72.0172 129.232C71.8642 128.517 70.7035 129.074 70.8294 129.664C71.0724 130.836 71.2344 133.686 70.3615 134.817C66.5823 139.745 65.8625 134.501 65.4216 133.063C64.5757 130.071 63.523 127.129 62.6592 124.129C60.8595 118.012 59.5188 111.803 58.1601 105.595C57.9981 104.88 56.8374 105.445 56.9723 106.035L56.9543 106.002Z" fill="white"/>
<path d="M56.9543 106.002C58.2771 111.961 59.5998 117.92 61.2644 123.804C61.9483 126.223 62.7311 128.617 63.496 131.019C64.1078 132.955 64.2968 135.905 65.5296 137.667C66.6453 139.246 68.022 139.13 69.5427 137.9C71.9542 135.955 72.5751 131.933 72.0172 129.232C71.8642 128.517 70.7035 129.074 70.8294 129.664C71.0724 130.836 71.2344 133.686 70.3615 134.817C66.5823 139.745 65.8625 134.501 65.4216 133.063C64.5757 130.071 63.523 127.129 62.6592 124.129C60.8595 118.012 59.5188 111.803 58.1601 105.595C57.9981 104.88 56.8374 105.445 56.9723 106.035L56.9543 106.002Z" fill="url(#paint13_linear_299_15004)"/>
<path d="M66.0519 99.7614C67.1497 101.964 68.1845 104.208 69.1203 106.477C70.317 109.361 70.1731 111.588 69.8311 114.588C69.5644 117.049 69.0615 119.482 68.3285 121.861C67.8876 123.282 66.9697 124.728 66.6998 126.174C66.1599 129.133 68.2835 132.565 71.2888 129.897C76.2558 125.501 77.9475 118.52 79.3242 112.536C80.224 108.496 80.4669 104.432 79.0812 100.468C77.5245 96.0132 75.0141 91.8493 73.5924 87.3779C73.3674 86.6798 72.2246 87.2367 72.4046 87.8184C74.5822 94.6751 79.3512 100.742 78.8473 108.197C78.4424 114.231 76.3008 122.567 72.1887 127.404C70.9199 128.9 68.6884 130.305 67.8965 127.562C67.4916 126.166 68.6074 124.504 69.0843 123.215C70.008 120.601 70.6323 117.905 70.9469 115.17C71.3068 112.419 71.7208 109.942 70.8479 107.258C69.8209 104.455 68.5883 101.72 67.1587 99.0716C66.8528 98.4566 65.773 99.2046 66.0519 99.7614Z" fill="white"/>
<path d="M66.0519 99.7614C67.1497 101.964 68.1845 104.208 69.1203 106.477C70.317 109.361 70.1731 111.588 69.8311 114.588C69.5644 117.049 69.0615 119.482 68.3285 121.861C67.8876 123.282 66.9697 124.728 66.6998 126.174C66.1599 129.133 68.2835 132.565 71.2888 129.897C76.2558 125.501 77.9475 118.52 79.3242 112.536C80.224 108.496 80.4669 104.432 79.0812 100.468C77.5245 96.0132 75.0141 91.8493 73.5924 87.3779C73.3674 86.6798 72.2246 87.2367 72.4046 87.8184C74.5822 94.6751 79.3512 100.742 78.8473 108.197C78.4424 114.231 76.3008 122.567 72.1887 127.404C70.9199 128.9 68.6884 130.305 67.8965 127.562C67.4916 126.166 68.6074 124.504 69.0843 123.215C70.008 120.601 70.6323 117.905 70.9469 115.17C71.3068 112.419 71.7208 109.942 70.8479 107.258C69.8209 104.455 68.5883 101.72 67.1587 99.0716C66.8528 98.4566 65.773 99.2046 66.0519 99.7614Z" fill="url(#paint14_linear_299_15004)"/>
<path d="M64.1897 102.113C66.2053 107.1 68.7518 112.153 69.3006 117.488C69.3726 118.203 70.5514 117.646 70.4884 117.048C69.9305 111.612 67.348 106.476 65.2965 101.423C65.0445 100.8 63.9557 101.539 64.1897 102.113Z" fill="white"/>
<path d="M64.1897 102.113C66.2053 107.1 68.7518 112.153 69.3006 117.488C69.3726 118.203 70.5514 117.646 70.4884 117.048C69.9305 111.612 67.348 106.476 65.2965 101.423C65.0445 100.8 63.9557 101.539 64.1897 102.113Z" fill="url(#paint15_linear_299_15004)"/>
<path d="M66.5385 98.4402C65.1299 100.541 63.1909 102.295 60.8877 103.551C60.2309 103.942 60.6088 104.873 61.3556 104.432C63.8654 103.057 65.9772 101.141 67.5103 98.8474C67.9512 98.141 66.9255 97.8168 66.5385 98.4402Z" fill="white"/>
<path d="M66.5385 98.4402C65.1299 100.541 63.1909 102.295 60.8877 103.551C60.2309 103.942 60.6088 104.873 61.3556 104.432C63.8654 103.057 65.9772 101.141 67.5103 98.8474C67.9512 98.141 66.9255 97.8168 66.5385 98.4402Z" fill="url(#paint16_linear_299_15004)"/>
<path d="M76.0409 82.8395C75.501 83.4878 75.0151 84.1693 74.4752 84.8259C73.7035 85.6578 73.0392 86.5699 72.4956 87.5436C72.1537 88.2916 73.3414 88.2666 73.6204 87.6682C74.1685 86.7253 74.8328 85.844 75.6 85.0419C76.0859 84.4519 76.4998 83.8285 77.0127 83.2468C77.5256 82.665 76.5088 82.2827 76.0409 82.8395Z" fill="white"/>
<path d="M76.0409 82.8395C75.501 83.4878 75.0151 84.1693 74.4752 84.8259C73.7035 85.6578 73.0392 86.5699 72.4956 87.5436C72.1537 88.2916 73.3414 88.2666 73.6204 87.6682C74.1685 86.7253 74.8328 85.844 75.6 85.0419C76.0859 84.4519 76.4998 83.8285 77.0127 83.2468C77.5256 82.665 76.5088 82.2827 76.0409 82.8395Z" fill="url(#paint17_linear_299_15004)"/>
<path d="M102.737 91.2002C104.258 93.1284 105.554 95.2228 107.056 97.1759C108.559 99.129 109.837 99.7357 112.023 100.733C112.617 101.007 113.391 99.9933 112.734 99.6941C111.75 99.3558 110.806 98.924 109.918 98.4059C108.94 97.5443 108.095 96.5627 107.407 95.4887C106.156 93.8265 105.104 92.1144 103.808 90.5021C103.376 89.9535 102.323 90.7015 102.71 91.1919L102.737 91.2002Z" fill="white"/>
<path d="M102.737 91.2002C104.258 93.1284 105.554 95.2228 107.056 97.1759C108.559 99.129 109.837 99.7357 112.023 100.733C112.617 101.007 113.391 99.9933 112.734 99.6941C111.75 99.3558 110.806 98.924 109.918 98.4059C108.94 97.5443 108.095 96.5627 107.407 95.4887C106.156 93.8265 105.104 92.1144 103.808 90.5021C103.376 89.9535 102.323 90.7015 102.71 91.1919L102.737 91.2002Z" fill="url(#paint18_linear_299_15004)"/>
<path d="M101.703 94.6076C102.795 97.063 104.358 99.3156 106.319 101.256C107.435 102.47 109.018 103.55 110.818 103.027C111.502 102.827 111.484 101.755 110.647 101.996C108.739 102.553 107.048 100.226 106.148 99.1371C104.727 97.5884 103.593 95.8333 102.792 93.9427C102.558 93.3194 101.469 94.0591 101.694 94.6325L101.703 94.6076Z" fill="white"/>
<path d="M101.703 94.6076C102.795 97.063 104.358 99.3156 106.319 101.256C107.435 102.47 109.018 103.55 110.818 103.027C111.502 102.827 111.484 101.755 110.647 101.996C108.739 102.553 107.048 100.226 106.148 99.1371C104.727 97.5884 103.593 95.8333 102.792 93.9427C102.558 93.3194 101.469 94.0591 101.694 94.6325L101.703 94.6076Z" fill="url(#paint19_linear_299_15004)"/>
<rect x="1" y="1" width="178" height="178" rx="89" stroke="url(#paint20_linear_299_15004)" stroke-width="2"/>
</g>
<defs>
<filter id="filter0_i_299_15004" x="0" y="0" width="180" height="180" filterUnits="userSpaceOnUse" color-interpolation-filters="sRGB">
<feFlood flood-opacity="0" result="BackgroundImageFix"/>
<feBlend mode="normal" in="SourceGraphic" in2="BackgroundImageFix" result="shape"/>
<feColorMatrix in="SourceAlpha" type="matrix" values="0 0 0 0 0 0 0 0 0 0 0 0 0 0 0 0 0 0 127 0" result="hardAlpha"/>
<feOffset/>
<feGaussianBlur stdDeviation="40"/>
<feComposite in2="hardAlpha" operator="arithmetic" k2="-1" k3="1"/>
<feColorMatrix type="matrix" values="0 0 0 0 0 0 0 0 0 0 0 0 0 0 0 0 0 0 0.25 0"/>
<feBlend mode="normal" in2="shape" result="effect1_innerShadow_299_15004"/>
</filter>
<linearGradient id="paint0_linear_299_15004" x1="152.714" y1="35.9218" x2="213.452" y2="49.8867" gradientUnits="userSpaceOnUse">
<stop stop-color="#FFE68E"/>
<stop offset="1" stop-color="#D8A217"/>
</linearGradient>
<linearGradient id="paint1_linear_299_15004" x1="125.132" y1="89.7201" x2="181.548" y2="110.919" gradientUnits="userSpaceOnUse">
<stop stop-color="#FFE68E"/>
<stop offset="1" stop-color="#D8A217"/>
</linearGradient>
<linearGradient id="paint2_linear_299_15004" x1="112.529" y1="100.317" x2="133.297" y2="103.73" gradientUnits="userSpaceOnUse">
<stop stop-color="#FFE68E"/>
<stop offset="1" stop-color="#D8A217"/>
</linearGradient>
<linearGradient id="paint3_linear_299_15004" x1="119.123" y1="102.814" x2="129.571" y2="105.845" gradientUnits="userSpaceOnUse">
<stop stop-color="#FFE68E"/>
<stop offset="1" stop-color="#D8A217"/>
</linearGradient>
<linearGradient id="paint4_linear_299_15004" x1="104.302" y1="82.6904" x2="128.799" y2="86.7121" gradientUnits="userSpaceOnUse">
<stop stop-color="#FFE68E"/>
<stop offset="1" stop-color="#D8A217"/>
</linearGradient>
<linearGradient id="paint5_linear_299_15004" x1="97.9594" y1="84.4042" x2="108.84" y2="93.3618" gradientUnits="userSpaceOnUse">
<stop stop-color="#FFE68E"/>
<stop offset="1" stop-color="#D8A217"/>
</linearGradient>
<linearGradient id="paint6_linear_299_15004" x1="87.1529" y1="88.3756" x2="98.7118" y2="91.061" gradientUnits="userSpaceOnUse">
<stop stop-color="#FFE68E"/>
<stop offset="1" stop-color="#D8A217"/>
</linearGradient>
<linearGradient id="paint7_linear_299_15004" x1="109.456" y1="26.3357" x2="189.281" y2="74.4963" gradientUnits="userSpaceOnUse">
<stop stop-color="#FFE68E"/>
<stop offset="1" stop-color="#D8A217"/>
</linearGradient>
<linearGradient id="paint8_linear_299_15004" x1="130.113" y1="56.3726" x2="159.867" y2="78.6677" gradientUnits="userSpaceOnUse">
<stop stop-color="#FFE68E"/>
<stop offset="1" stop-color="#D8A217"/>
</linearGradient>
<linearGradient id="paint9_linear_299_15004" x1="145.697" y1="62.2264" x2="172.426" y2="72.3003" gradientUnits="userSpaceOnUse">
<stop stop-color="#FFE68E"/>
<stop offset="1" stop-color="#D8A217"/>
</linearGradient>
<linearGradient id="paint10_linear_299_15004" x1="48.6858" y1="23.2841" x2="146.064" y2="65.1105" gradientUnits="userSpaceOnUse">
<stop stop-color="#FFE68E"/>
<stop offset="1" stop-color="#D8A217"/>
</linearGradient>
<linearGradient id="paint11_linear_299_15004" x1="9.8882" y1="30.0479" x2="67.4933" y2="41.601" gradientUnits="userSpaceOnUse">
<stop stop-color="#FFE68E"/>
<stop offset="1" stop-color="#D8A217"/>
</linearGradient>
<linearGradient id="paint12_linear_299_15004" x1="36.1841" y1="87.1389" x2="97.4776" y2="111.923" gradientUnits="userSpaceOnUse">
<stop stop-color="#FFE68E"/>
<stop offset="1" stop-color="#D8A217"/>
</linearGradient>
<linearGradient id="paint13_linear_299_15004" x1="61.2084" y1="103.699" x2="85.7096" y2="109.295" gradientUnits="userSpaceOnUse">
<stop stop-color="#FFE68E"/>
<stop offset="1" stop-color="#D8A217"/>
</linearGradient>
<linearGradient id="paint14_linear_299_15004" x1="69.9257" y1="85.0151" x2="93.0747" y2="88.7493" gradientUnits="userSpaceOnUse">
<stop stop-color="#FFE68E"/>
<stop offset="1" stop-color="#D8A217"/>
</linearGradient>
<linearGradient id="paint15_linear_299_15004" x1="65.9234" y1="100.412" x2="76.2498" y2="102.389" gradientUnits="userSpaceOnUse">
<stop stop-color="#FFE68E"/>
<stop offset="1" stop-color="#D8A217"/>
</linearGradient>
<linearGradient id="paint16_linear_299_15004" x1="62.521" y1="97.8093" x2="71.6782" y2="102.864" gradientUnits="userSpaceOnUse">
<stop stop-color="#FFE68E"/>
<stop offset="1" stop-color="#D8A217"/>
</linearGradient>
<linearGradient id="paint17_linear_299_15004" x1="73.7505" y1="82.3103" x2="80.4914" y2="85.1958" gradientUnits="userSpaceOnUse">
<stop stop-color="#FFE68E"/>
<stop offset="1" stop-color="#D8A217"/>
</linearGradient>
<linearGradient id="paint18_linear_299_15004" x1="105.515" y1="89.8225" x2="119.549" y2="96.8038" gradientUnits="userSpaceOnUse">
<stop stop-color="#FFE68E"/>
<stop offset="1" stop-color="#D8A217"/>
</linearGradient>
<linearGradient id="paint19_linear_299_15004" x1="104.352" y1="93.266" x2="117.256" y2="99.881" gradientUnits="userSpaceOnUse">
<stop stop-color="#FFE68E"/>
<stop offset="1" stop-color="#D8A217"/>
</linearGradient>
<linearGradient id="paint20_linear_299_15004" x1="-7.44309e-06" y1="-85.2631" x2="232.068" y2="-0.243505" gradientUnits="userSpaceOnUse">
<stop stop-color="#FFE5A8"/>
<stop offset="1" stop-color="#CA920E"/>
<stop offset="1" stop-color="#E8B439"/>
</linearGradient>
</defs>
</svg>
