<svg xmlns="http://www.w3.org/2000/svg" width="113" height="40" viewBox="0 0 113 40" fill="none">
  <path fill-rule="evenodd" clip-rule="evenodd" d="M67.8485 0H74.7829L91.6845 22.7801V3.4712C91.6845 1.51859 89.0123 0.0720846 89.0123 0.0720846H97.6793C97.6793 0.0720846 95.4042 1.37416 95.4042 3.43529V32.7238C95.4042 32.7238 91.3954 31.0967 88.3618 26.9744C85.3279 22.8522 73.9525 7.99106 73.9525 7.99106V27.6616C73.9525 29.072 76.3356 30.8078 76.3356 30.8078H67.7769C67.7769 30.8078 70.16 29.506 70.16 27.7704V3.76055C70.16 1.15715 67.8485 0 67.8485 0ZM105.146 22.7763V3.44232C105.146 1.48719 102.459 0.0389325 102.459 0.0389325H112.661C112.661 0.0389325 110.374 1.34252 110.374 3.4064V27.46C110.374 29.3066 112.552 30.8267 112.552 30.8267H102.749C102.749 30.8267 105.146 29.342 105.146 27.8219V22.7763ZM46.9703 3.1158V12.4453H51.404C53.4586 12.4453 56.3787 11.3605 56.3787 7.56381C56.3787 3.76684 52.0533 3.1158 50.5389 3.1158H46.9703ZM46.9703 15.4828V27.6325H52.81C55.0812 27.6325 59.2988 25.6801 59.2988 21.8834C59.2988 18.0864 55.8379 15.4828 52.5938 15.4828H46.9703ZM39.4163 0.0278818H54.4032C57.7559 0.0278818 61.5694 2.89903 61.5694 6.80426C61.5694 12.1198 57.4957 12.8432 57.4957 12.8432C57.4957 12.8432 64.6335 14.5788 64.6335 21.413C64.6335 28.2479 56.8449 30.8267 54.2495 30.8267L39.2241 30.7882C39.2241 30.7882 41.8152 29.441 41.8152 27.1631V3.73042C41.8152 1.34403 39.4163 0.0278818 39.4163 0.0278818Z" fill="#046682"/>
  <path fill-rule="evenodd" clip-rule="evenodd" d="M0 30.8267H30.7993V0.0278931H0V30.8267Z" fill="white"/>
  <path fill-rule="evenodd" clip-rule="evenodd" d="M0 0.0278931H9.62468C9.59681 0.0964584 9.52598 0.278812 9.43982 0.611872C9.01886 2.23997 8.41378 6.94041 12.6383 13.8273C13.6804 15.5265 14.6903 16.8765 15.7264 18.1977L12.3798 20.8735C6.82989 14.0777 0 5.4178 0 5.4178V0.0278931ZM0 11.77V30.8267L9.33182 23.2918L2.89879 15.2869L0 11.77ZM30.7993 9.84497C30.7307 9.75154 30.4454 9.31877 30.0274 8.88951C28.7482 7.57563 25.9821 5.46076 22.6492 7.26895C19.5706 8.93925 17.996 12.7664 21.8349 17.8262C24.9894 21.9894 27.8417 22.3961 29.4482 22.161C29.7248 22.1205 30.5788 21.9143 30.7993 21.7797V9.84497ZM30.7993 4.26291L30.799 0.0278931H13.6671C13.6472 0.102494 13.5226 0.361701 13.4732 0.795475C13.3621 1.76977 13.323 3.62594 14.0139 6.25848C14.9626 9.87109 17.6012 13.0916 17.6012 13.0916C17.6012 13.0916 17.3297 9.50011 20.6409 6.18062C22.7357 4.08056 25.1112 3.42977 27.0372 3.45966C27.7172 3.47021 28.3421 3.56265 28.8796 3.68471C29.1061 3.73596 30.6232 4.17174 30.7993 4.26291ZM30.7993 23.3196C30.7232 23.3837 30.5401 23.5012 30.2276 23.7142C29.3882 24.2861 27.581 25.1303 24.6034 24.6827C21.9055 24.2769 19.3245 22.4802 16.9552 19.6842L13.5658 22.4024C15.957 25.28 17.8086 27.5833 18.4298 28.0291C20.768 29.7077 22.378 29.0705 22.378 29.0705L20.2121 30.8267H30.7993V23.3196ZM14.8222 30.8267H3.07988L4.03836 30.0478L10.558 24.8234C10.558 24.8234 13.1424 28.1788 14.1591 29.4103C14.3515 29.6434 14.4979 29.8624 14.6092 30.0601C14.8099 30.4163 14.7845 30.6511 14.8222 30.8267Z" fill="#F15A25"/>
  <path fill-rule="evenodd" clip-rule="evenodd" d="M0.506348 38.7104H1.12875V34.5653L2.59158 38.7104H3.20118L4.72203 34.5397V38.7104H5.35071V34.0775H4.29202L2.95101 37.8954L1.6419 34.0775H0.506348V38.7104ZM9.10775 37.2089C9.12056 36.6827 9.15271 35.4057 7.70897 35.4057C7.52285 35.4057 7.13806 35.4251 6.82987 35.6434C6.323 35.9963 6.19465 36.5222 6.19465 37.1574C6.19465 38.1777 6.6759 38.8066 7.68988 38.8066C8.33791 38.8066 8.65865 38.5371 8.79981 38.3766C9.03089 38.1264 9.05651 37.8632 9.07585 37.703H8.47253C8.4213 38.1649 8.10683 38.3703 7.7155 38.3703C7.05467 38.3703 6.77863 37.8763 6.79144 37.2089H9.10775ZM6.81706 36.7854C6.82987 36.0731 7.30484 35.8358 7.69616 35.8358C8.44064 35.8358 8.49816 36.4775 8.49188 36.7854H6.81706ZM9.88136 38.7104H10.4844V34.0906H9.88136V38.7104ZM14.0363 38.7104C13.9913 38.3831 13.9848 37.9531 13.9848 37.9019L14.0106 36.362C14.0106 36.2143 14.0041 36.0603 13.9014 35.8679C13.7283 35.5406 13.2277 35.3929 12.7593 35.3929C12.4192 35.3929 11.9636 35.47 11.72 35.7396C11.5338 35.9576 11.5145 36.1821 11.4954 36.3492H12.0985C12.1047 36.2208 12.1369 35.8036 12.7465 35.8036C12.9198 35.8036 13.1828 35.8551 13.3049 36.0153C13.4201 36.1565 13.4201 36.3298 13.4201 36.7277C13.2343 36.7149 13.1378 36.7083 12.9838 36.7083C12.7271 36.7083 12.214 36.7277 11.8674 36.9201C11.3927 37.1961 11.3028 37.6068 11.3028 37.8632C11.3028 38.396 11.7006 38.8129 12.4386 38.8129C12.7081 38.8129 13.1443 38.7617 13.4329 38.2292C13.4329 38.396 13.446 38.5499 13.4907 38.7104H14.0363ZM13.4201 37.1446C13.4073 37.594 13.401 37.7735 13.2662 37.9916C13.1187 38.2161 12.8877 38.3382 12.5797 38.3382C12.0407 38.3382 11.9123 37.9853 11.9123 37.7798C11.9123 37.1255 12.8299 37.1255 13.0738 37.1255C13.2212 37.1255 13.3111 37.1318 13.4201 37.1446ZM17.8511 35.4894H17.1965L16.17 38.0302L15.1625 35.4894H14.4823L15.8234 38.6974L15.3358 39.9294H15.9582L16.4201 38.7295L17.8511 35.4894ZM20.9217 38.7104C20.8767 38.3831 20.8702 37.9531 20.8702 37.9019L20.896 36.362C20.896 36.2143 20.8895 36.0603 20.7868 35.8679C20.6137 35.5406 20.1131 35.3929 19.6447 35.3929C19.3046 35.3929 18.849 35.47 18.6053 35.7396C18.4192 35.9576 18.3999 36.1821 18.3808 36.3492H18.9839C18.9901 36.2208 19.0223 35.8036 19.6319 35.8036C19.8052 35.8036 20.0682 35.8551 20.1902 36.0153C20.3055 36.1565 20.3055 36.3298 20.3055 36.7277C20.1197 36.7149 20.0232 36.7083 19.8693 36.7083C19.6126 36.7083 19.0994 36.7277 18.7528 36.9201C18.2781 37.1961 18.1881 37.6068 18.1881 37.8632C18.1881 38.396 18.586 38.8129 19.3239 38.8129C19.5935 38.8129 20.0297 38.7617 20.3183 38.2292C20.3183 38.396 20.3314 38.5499 20.3761 38.7104H20.9217ZM20.3055 37.1446C20.2927 37.594 20.2864 37.7735 20.1516 37.9916C20.0041 38.2161 19.773 38.3382 19.4651 38.3382C18.9261 38.3382 18.7977 37.9853 18.7977 37.7798C18.7977 37.1255 19.7153 37.1255 19.9592 37.1255C20.1066 37.1255 20.1965 37.1318 20.3055 37.1446ZM21.8746 38.7104H22.4779V36.856C22.4779 36.208 22.8821 35.8935 23.3184 35.8935C23.5238 35.8935 23.7356 35.9641 23.8895 36.1115C24.037 36.2592 24.0628 36.4516 24.0628 36.6634V38.7104H24.6787V36.5222C24.6787 35.5341 23.7996 35.4251 23.511 35.4251C22.7793 35.4251 22.5485 35.8742 22.4779 36.0091L22.4714 35.4894H21.8683L21.8746 35.8614V38.7104ZM25.5932 34.7514H26.3184V34.0906H25.5932V34.7514ZM25.6575 38.7104H26.2606V35.4894H25.6575V38.7104ZM29.2636 38.7104H29.8476V34.7771L32.2023 38.7104H33.0237V34.0775H32.4334V37.9082L30.1555 34.0775H29.2636V38.7104ZM36.7679 37.2089C36.7807 36.6827 36.8128 35.4057 35.3691 35.4057C35.183 35.4057 34.7979 35.4251 34.49 35.6434C33.9831 35.9963 33.8548 36.5222 33.8548 37.1574C33.8548 38.1777 34.336 38.8066 35.3498 38.8066C35.998 38.8066 36.3188 38.5371 36.46 38.3766C36.691 38.1264 36.7166 37.8632 36.7357 37.703H36.1327C36.0814 38.1649 35.767 38.3703 35.3756 38.3703C34.7146 38.3703 34.4388 37.8763 34.4516 37.2089H36.7679ZM34.4772 36.7854C34.49 36.0731 34.965 35.8358 35.3563 35.8358C36.1005 35.8358 36.1583 36.4775 36.152 36.7854H34.4772ZM37.4644 38.9606C37.49 39.3969 37.5284 39.9999 38.8182 39.9999C39.261 39.9999 39.8897 39.9359 40.1592 39.4225C40.2876 39.1786 40.3132 38.8644 40.3132 38.088L40.3197 36.0731L40.3325 35.4894H39.7486L39.7423 35.932C39.6139 35.7652 39.3766 35.4444 38.7283 35.4444C37.9391 35.4444 37.2976 35.9769 37.2976 37.0678C37.2976 37.4975 37.3873 37.9275 37.6633 38.2548C37.9328 38.5884 38.3563 38.6527 38.6514 38.6527C38.8438 38.6527 39.4534 38.6396 39.7101 38.1071C39.7101 38.9797 39.6973 39.5893 38.8566 39.5893C38.2857 39.5893 38.1318 39.3198 38.1059 38.9606H37.4644ZM38.8054 38.2033C38.0675 38.2033 37.92 37.549 37.92 37.0549C37.92 36.6443 38.0225 35.8742 38.7861 35.8742C39.0621 35.8742 39.3188 35.9834 39.4791 36.1565C39.6396 36.3233 39.7295 36.5544 39.7295 36.9587C39.7295 37.5425 39.6396 37.7158 39.5112 37.8826C39.3638 38.075 39.1583 38.2033 38.8054 38.2033ZM44.0062 37.2089C44.019 36.6827 44.0511 35.4057 42.6074 35.4057C42.4213 35.4057 42.0365 35.4251 41.7283 35.6434C41.2214 35.9963 41.0931 36.5222 41.0931 37.1574C41.0931 38.1777 41.5743 38.8066 42.5881 38.8066C43.2363 38.8066 43.5571 38.5371 43.6982 38.3766C43.9293 38.1264 43.9549 37.8632 43.974 37.703H43.371C43.3197 38.1649 43.0053 38.3703 42.6139 38.3703C41.9528 38.3703 41.6771 37.8763 41.6899 37.2089H44.0062ZM41.7155 36.7854C41.7283 36.0731 42.2033 35.8358 42.5946 35.8358C43.3388 35.8358 43.3966 36.4775 43.3903 36.7854H41.7155ZM44.7989 38.7104H45.4085V36.9972C45.4085 36.4453 45.5753 36.0219 46.2876 36.0219C46.3582 36.0219 46.4159 36.0219 46.4609 36.0281C46.5056 36.0347 46.5443 36.041 46.5762 36.054V35.4635C46.4737 35.4572 46.3388 35.4507 46.1592 35.4763C45.8897 35.515 45.5047 35.6624 45.3891 36.1115L45.3763 35.4894H44.7667C44.7861 35.7011 44.7989 35.9257 44.7989 36.1437V38.7104ZM47.0803 34.7514H47.8054V34.0906H47.0803V34.7514ZM47.1443 38.7104H47.7477V35.4894H47.1443V38.7104ZM48.9573 37.9403L48.5466 39.5187H48.9829L49.7015 37.9403H48.9573ZM52.3966 38.7104H53.0318V36.2527L55.1685 38.7104H56.0667L53.7698 36.1502L55.8422 34.0775H54.9631L53.0318 36.1053V34.0775H52.3966V38.7104ZM59.0733 37.2089C59.0861 36.6827 59.118 35.4057 57.6745 35.4057C57.4884 35.4057 57.1033 35.4251 56.7954 35.6434C56.2885 35.9963 56.1602 36.5222 56.1602 37.1574C56.1602 38.1777 56.6414 38.8066 57.6552 38.8066C58.3032 38.8066 58.6239 38.5371 58.7651 38.3766C58.9962 38.1264 59.0218 37.8632 59.0411 37.703H58.4381C58.3866 38.1649 58.0721 38.3703 57.6808 38.3703C57.0199 38.3703 56.7439 37.8763 56.7567 37.2089H59.0733ZM56.7826 36.7854C56.7954 36.0731 57.2701 35.8358 57.6614 35.8358C58.4059 35.8358 58.4637 36.4775 58.4572 36.7854H56.7826ZM60.4369 34.0775H59.8338V38.1327L59.821 38.7104H60.4047L60.4176 38.2226C60.4819 38.3188 60.5524 38.4279 60.732 38.5499C61.0081 38.736 61.2967 38.7551 61.4506 38.7551C61.8934 38.7551 62.3235 38.5693 62.5802 38.2033C62.7404 37.9916 62.8881 37.6515 62.8881 37.0291C62.8881 36.3233 62.6698 36.0025 62.5096 35.8164C62.2142 35.4829 61.8101 35.4057 61.4893 35.4057C60.7576 35.4057 60.5203 35.8101 60.4369 35.9576V34.0775ZM62.2529 37.0678C62.2529 37.594 62.0668 38.3188 61.3223 38.3188C60.4241 38.3188 60.4241 37.3116 60.4241 37.0999C60.4241 36.8944 60.4241 35.8164 61.3482 35.8164C62.1886 35.8164 62.2529 36.747 62.2529 37.0678ZM66.1383 38.7104C66.0933 38.3831 66.087 37.9531 66.087 37.9019L66.1126 36.362C66.1126 36.2143 66.1061 36.0603 66.0034 35.8679C65.8303 35.5406 65.3297 35.3929 64.8613 35.3929C64.5212 35.3929 64.0658 35.47 63.822 35.7396C63.6358 35.9576 63.6165 36.1821 63.5974 36.3492H64.2005C64.207 36.2208 64.2389 35.8036 64.8485 35.8036C65.0218 35.8036 65.2848 35.8551 65.4068 36.0153C65.5221 36.1565 65.5221 36.3298 65.5221 36.7277C65.3363 36.7149 65.2398 36.7083 65.0858 36.7083C64.8291 36.7083 64.316 36.7277 63.9694 36.9201C63.4947 37.1961 63.4048 37.6068 63.4048 37.8632C63.4048 38.396 63.8026 38.8129 64.5406 38.8129C64.8101 38.8129 65.2463 38.7617 65.5352 38.2292C65.5352 38.396 65.548 38.5499 65.5927 38.7104H66.1383ZM65.5221 37.1446C65.5093 37.594 65.503 37.7735 65.3682 37.9916C65.2207 38.2161 64.9896 38.3382 64.6817 38.3382C64.1427 38.3382 64.0143 37.9853 64.0143 37.7798C64.0143 37.1255 64.9319 37.1255 65.1758 37.1255C65.3235 37.1255 65.4131 37.1318 65.5221 37.1446ZM67.0915 38.7104H67.6945V36.856C67.6945 36.208 68.0987 35.8935 68.5349 35.8935C68.7404 35.8935 68.9521 35.9641 69.1061 36.1115C69.2538 36.2592 69.2794 36.4516 69.2794 36.6634V38.7104H69.8953V36.5222C69.8953 35.5341 69.0162 35.4251 68.7276 35.4251C67.9962 35.4251 67.7651 35.8742 67.6945 36.0091L67.688 35.4894H67.0849L67.0915 35.8614V38.7104ZM70.8035 38.9606C70.8292 39.3969 70.8676 39.9999 72.1574 39.9999C72.6002 39.9999 73.2289 39.9359 73.4984 39.4225C73.6267 39.1786 73.6523 38.8644 73.6523 38.088L73.6589 36.0731L73.6717 35.4894H73.0877L73.0814 35.932C72.9531 35.7652 72.7157 35.4444 72.0677 35.4444C71.2783 35.4444 70.6368 35.9769 70.6368 37.0678C70.6368 37.4975 70.7264 37.9275 71.0025 38.2548C71.272 38.5884 71.6955 38.6527 71.9906 38.6527C72.183 38.6527 72.7926 38.6396 73.0493 38.1071C73.0493 38.9797 73.0365 39.5893 72.196 39.5893C71.6249 39.5893 71.4709 39.3198 71.4453 38.9606H70.8035ZM72.1446 38.2033C71.4066 38.2033 71.2592 37.549 71.2592 37.0549C71.2592 36.6443 71.3617 35.8742 72.1252 35.8742C72.4012 35.8742 72.6579 35.9834 72.8182 36.1565C72.9787 36.3233 73.0686 36.5544 73.0686 36.9587C73.0686 37.5425 72.9787 37.7158 72.8504 37.8826C72.7029 38.075 72.4975 38.2033 72.1446 38.2033ZM74.5993 38.9606C74.6249 39.3969 74.6633 39.9999 75.9531 39.9999C76.3957 39.9999 77.0246 39.9359 77.2941 39.4225C77.4224 39.1786 77.4481 38.8644 77.4481 38.088L77.4546 36.0731L77.4674 35.4894H76.8834L76.8769 35.932C76.7488 35.7652 76.5112 35.4444 75.8632 35.4444C75.074 35.4444 74.4322 35.9769 74.4322 37.0678C74.4322 37.4975 74.5222 37.9275 74.7979 38.2548C75.0675 38.5884 75.4909 38.6527 75.7863 38.6527C75.9787 38.6527 76.5883 38.6396 76.845 38.1071C76.845 38.9797 76.8322 39.5893 75.9915 39.5893C75.4204 39.5893 75.2664 39.3198 75.2408 38.9606H74.5993ZM75.9403 38.2033C75.2023 38.2033 75.0546 37.549 75.0546 37.0549C75.0546 36.6443 75.1574 35.8742 75.9209 35.8742C76.197 35.8742 76.4534 35.9834 76.6139 36.1565C76.7744 36.3233 76.8641 36.5544 76.8641 36.9587C76.8641 37.5425 76.7744 37.7158 76.6461 37.8826C76.4984 38.075 76.2932 38.2033 75.9403 38.2033ZM80.8394 38.7104C80.7944 38.3831 80.7882 37.9531 80.7882 37.9019L80.8138 36.362C80.8138 36.2143 80.8072 36.0603 80.7048 35.8679C80.5315 35.5406 80.0309 35.3929 79.5624 35.3929C79.2226 35.3929 78.767 35.47 78.5231 35.7396C78.337 35.9576 78.3179 36.1821 78.2985 36.3492H78.9016C78.9081 36.2208 78.9403 35.8036 79.5496 35.8036C79.7229 35.8036 79.9862 35.8551 80.108 36.0153C80.2235 36.1565 80.2235 36.3298 80.2235 36.7277C80.0374 36.7149 79.9412 36.7083 79.7872 36.7083C79.5305 36.7083 79.0171 36.7277 78.6708 36.9201C78.1958 37.1961 78.1059 37.6068 78.1059 37.8632C78.1059 38.396 78.5037 38.8129 79.2417 38.8129C79.5112 38.8129 79.9475 38.7617 80.2363 38.2292C80.2363 38.396 80.2491 38.5499 80.2941 38.7104H80.8394ZM80.2235 37.1446C80.2107 37.594 80.2042 37.7735 80.0696 37.9916C79.9219 38.2161 79.6908 38.3382 79.3828 38.3382C78.8438 38.3382 78.7155 37.9853 78.7155 37.7798C78.7155 37.1255 79.633 37.1255 79.8769 37.1255C80.0246 37.1255 80.1143 37.1318 80.2235 37.1446ZM84.2822 38.7104C84.2373 38.3831 84.2307 37.9531 84.2307 37.9019L84.2563 36.362C84.2563 36.2143 84.2501 36.0603 84.1473 35.8679C83.974 35.5406 83.4737 35.3929 83.0053 35.3929C82.6652 35.3929 82.2095 35.47 81.9659 35.7396C81.7798 35.9576 81.7604 36.1821 81.7411 36.3492H82.3444C82.3507 36.2208 82.3829 35.8036 82.9925 35.8036C83.1658 35.8036 83.4287 35.8551 83.5506 36.0153C83.6661 36.1565 83.6661 36.3298 83.6661 36.7277C83.48 36.7149 83.3838 36.7083 83.2298 36.7083C82.9731 36.7083 82.46 36.7277 82.1133 36.9201C81.6386 37.1961 81.5487 37.6068 81.5487 37.8632C81.5487 38.396 81.9466 38.8129 82.6845 38.8129C82.954 38.8129 83.3903 38.7617 83.6789 38.2292C83.6789 38.396 83.6917 38.5499 83.7367 38.7104H84.2822ZM83.6661 37.1446C83.6533 37.594 83.647 37.7735 83.5121 37.9916C83.3647 38.2161 83.1336 38.3382 82.8257 38.3382C82.2867 38.3382 82.1583 37.9853 82.1583 37.7798C82.1583 37.1255 83.0758 37.1255 83.3197 37.1255C83.4672 37.1255 83.5571 37.1318 83.6661 37.1446ZM85.2352 38.7104H85.8385V36.856C85.8385 36.208 86.2426 35.8935 86.6789 35.8935C86.8844 35.8935 87.0961 35.9641 87.2501 36.1115C87.3975 36.2592 87.4234 36.4516 87.4234 36.6634V38.7104H88.0393V36.5222C88.0393 35.5341 87.1602 35.4251 86.8716 35.4251C86.1399 35.4251 85.9091 35.8742 85.8385 36.0091L85.832 35.4894H85.2289L85.2352 35.8614V38.7104ZM90.9652 38.7104H92.6528C93.0185 38.7104 93.3777 38.7104 93.6987 38.4984C93.8527 38.396 94.2568 38.075 94.2568 37.4463C94.2568 36.5609 93.6022 36.3682 93.333 36.2914C93.5575 36.208 94.1156 36.0091 94.1156 35.2455C94.1156 34.8798 93.9873 34.6103 93.7884 34.4176C93.4998 34.1353 93.1853 34.0775 92.6207 34.0775H90.9652V38.7104ZM91.5876 34.6038H92.5116C92.8645 34.6038 93.4483 34.6038 93.4483 35.3033C93.4483 36.0347 92.704 36.0347 92.4858 36.0347H91.5876V34.6038ZM91.5876 36.5865H92.7106C93.2752 36.5865 93.596 36.9266 93.596 37.3885C93.596 37.921 93.1918 38.1905 92.6847 38.1905H91.5876V36.5865ZM97.5841 38.7104C97.5391 38.3831 97.5328 37.9531 97.5328 37.9019L97.5585 36.362C97.5585 36.2143 97.5519 36.0603 97.4492 35.8679C97.2761 35.5406 96.7756 35.3929 96.3071 35.3929C95.967 35.3929 95.5114 35.47 95.2678 35.7396C95.0816 35.9576 95.0623 36.1821 95.0432 36.3492H95.6463C95.6526 36.2208 95.6847 35.8036 96.2943 35.8036C96.4676 35.8036 96.7306 35.8551 96.8527 36.0153C96.9679 36.1565 96.9679 36.3298 96.9679 36.7277C96.7821 36.7149 96.6856 36.7083 96.5317 36.7083C96.275 36.7083 95.7618 36.7277 95.4152 36.9201C94.9405 37.1961 94.8506 37.6068 94.8506 37.8632C94.8506 38.396 95.2484 38.8129 95.9864 38.8129C96.2559 38.8129 96.6922 38.7617 96.981 38.2292C96.981 38.396 96.9938 38.5499 97.0385 38.7104H97.5841ZM96.9679 37.1446C96.9551 37.594 96.9489 37.7735 96.814 37.9916C96.6665 38.2161 96.4355 38.3382 96.1275 38.3382C95.5885 38.3382 95.4602 37.9853 95.4602 37.7798C95.4602 37.1255 96.3777 37.1255 96.6216 37.1255C96.7693 37.1255 96.8589 37.1318 96.9679 37.1446ZM98.537 38.7104H99.1403V36.856C99.1403 36.208 99.5445 35.8935 99.9808 35.8935C100.186 35.8935 100.398 35.9641 100.552 36.1115C100.7 36.2592 100.725 36.4516 100.725 36.6634V38.7104H101.341V36.5222C101.341 35.5341 100.462 35.4251 100.173 35.4251C99.4417 35.4251 99.2109 35.8742 99.1403 36.0091L99.1338 35.4894H98.5307L98.537 35.8614V38.7104ZM102.249 38.9606C102.275 39.3969 102.313 39.9999 103.603 39.9999C104.046 39.9999 104.675 39.9359 104.944 39.4225C105.073 39.1786 105.098 38.8644 105.098 38.088L105.105 36.0731L105.117 35.4894H104.534L104.527 35.932C104.399 35.7652 104.162 35.4444 103.514 35.4444C102.724 35.4444 102.083 35.9769 102.083 37.0678C102.083 37.4975 102.172 37.9275 102.448 38.2548C102.718 38.5884 103.141 38.6527 103.436 38.6527C103.629 38.6527 104.238 38.6396 104.495 38.1071C104.495 38.9797 104.482 39.5893 103.642 39.5893C103.071 39.5893 102.917 39.3198 102.891 38.9606H102.249ZM103.59 38.2033C102.852 38.2033 102.705 37.549 102.705 37.0549C102.705 36.6443 102.807 35.8742 103.571 35.8742C103.847 35.8742 104.104 35.9834 104.264 36.1565C104.425 36.3233 104.514 36.5544 104.514 36.9587C104.514 37.5425 104.425 37.7158 104.296 37.8826C104.149 38.075 103.943 38.2033 103.59 38.2033ZM105.82 37.7542C105.814 38.5306 106.424 38.8001 107.078 38.8001C107.412 38.8001 107.752 38.7551 108.034 38.5821C108.271 38.4344 108.47 38.1264 108.47 37.767C108.47 37.5618 108.406 37.3373 108.227 37.1705C108.034 36.9906 107.841 36.9394 106.95 36.7277C106.783 36.6827 106.494 36.6121 106.494 36.317C106.494 35.8551 107.059 35.8551 107.148 35.8551C107.367 35.8551 107.79 35.8935 107.771 36.381H108.387C108.387 36.2464 108.387 36.0925 108.304 35.9129C108.111 35.5278 107.546 35.4123 107.142 35.4123C106.398 35.4123 105.885 35.7973 105.885 36.3876C105.885 37.0612 106.449 37.1961 107.123 37.3501C107.604 37.4591 107.829 37.5168 107.829 37.8313C107.829 37.9403 107.79 38.0493 107.726 38.1327C107.598 38.2932 107.412 38.3382 107.162 38.3382C106.578 38.3382 106.449 37.9981 106.455 37.7542H105.82ZM111.701 38.7104C111.657 38.3831 111.65 37.9531 111.65 37.9019L111.676 36.362C111.676 36.2143 111.669 36.0603 111.567 35.8679C111.393 35.5406 110.893 35.3929 110.425 35.3929C110.084 35.3929 109.629 35.47 109.385 35.7396C109.199 35.9576 109.18 36.1821 109.16 36.3492H109.764C109.77 36.2208 109.802 35.8036 110.412 35.8036C110.585 35.8036 110.848 35.8551 110.97 36.0153C111.085 36.1565 111.085 36.3298 111.085 36.7277C110.899 36.7149 110.803 36.7083 110.649 36.7083C110.392 36.7083 109.879 36.7277 109.533 36.9201C109.058 37.1961 108.968 37.6068 108.968 37.8632C108.968 38.396 109.366 38.8129 110.104 38.8129C110.373 38.8129 110.81 38.7617 111.098 38.2292C111.098 38.396 111.111 38.5499 111.156 38.7104H111.701ZM111.085 37.1446C111.073 37.594 111.066 37.7735 110.931 37.9916C110.784 38.2161 110.553 38.3382 110.245 38.3382C109.706 38.3382 109.578 37.9853 109.578 37.7798C109.578 37.1255 110.495 37.1255 110.739 37.1255C110.886 37.1255 110.976 37.1318 111.085 37.1446Z" fill="#555555"/>
</svg>