<svg xmlns="http://www.w3.org/2000/svg" width="160" height="38" viewBox="0 0 160 38" fill="none">
  <path d="M43.292 9.61409H51.9142C55.4062 9.61409 58.0094 11.1442 58.0094 14.368C58.0094 16.7315 56.8015 18.0474 54.7062 18.7458V18.7998C57.2046 19.3109 58.4935 20.6537 58.4935 22.9363C58.4935 27.422 54.5443 28.3616 51.1872 28.3616H43.292V9.61409ZM48.2872 17.0283H49.684C51.3221 17.0283 53.0158 16.6252 53.0158 15.0395C53.0158 13.322 51.4031 13.1601 49.7364 13.1601H48.2872V17.0283ZM48.2872 24.8172H49.765C51.592 24.8172 53.4983 24.5474 53.4983 22.641C53.4983 20.5998 51.538 20.4125 49.8174 20.4125H48.2872V24.8172Z" fill="#00529C"/>
  <path d="M65.0505 9.61409H71.1743L78.3997 28.3616H72.9204L71.5235 24.3601H64.4871L63.0093 28.3616H57.9331L65.0505 9.61409ZM68.1124 13.4823H68.0585L65.641 20.8156H70.3426L68.1124 13.4823Z" fill="#00529C"/>
  <path d="M79.0947 9.61409H85.4598L91.7994 22.3458H91.8518L91.7725 9.61409H96.3391V28.3616H90.1328L83.5804 15.549H83.528L83.6868 28.3616H79.0947V9.61409Z" fill="#00529C"/>
  <path d="M98.0342 9.61409H103.029V17.2696H103.083L108.723 9.61409H114.739L107.81 18.3426L115.277 28.3616H108.91L103.083 19.8474H103.029V28.3616H98.0342V9.61409Z" fill="#00529C"/>
  <path d="M121.472 9.61409H130.094C133.585 9.61409 136.191 11.1442 136.191 14.368C136.191 16.7315 134.983 18.0474 132.888 18.7458V18.7998C135.386 19.3109 136.674 20.6537 136.674 22.9363C136.674 27.422 132.726 28.3616 129.369 28.3616H121.472V9.61409ZM126.467 17.0283H127.864C129.504 17.0283 131.194 16.6252 131.194 15.0395C131.194 13.322 129.585 13.1601 127.918 13.1601H126.467V17.0283ZM126.467 24.8172H127.945C129.771 24.8172 131.678 24.5474 131.678 22.641C131.678 20.5998 129.718 20.4125 127.999 20.4125H126.467V24.8172Z" fill="#00529C"/>
  <path d="M137.782 9.61409H146.699C150.029 9.61409 152.742 11.1188 152.742 14.3426C152.742 16.8395 151.561 18.5045 149.144 19.068V19.122C150.753 19.5522 150.861 20.976 151.802 23.2585L153.628 28.3616H148.418L147.344 24.9791C146.323 21.7553 145.677 20.9474 143.825 20.9474H142.777V28.3616H137.782V9.61409ZM142.777 17.403H144.093C145.706 17.403 147.747 17.349 147.747 15.2268C147.747 13.4823 146.001 13.1601 144.093 13.1601H142.777V17.403Z" fill="#00529C"/>
  <path d="M155.005 9.61374H160V28.3613H155.005V9.61374Z" fill="#00529C"/>
  <path d="M31.892 0.160031H5.7476C2.57301 0.160031 0 2.79653 0 6.0489V6.11081V31.9409C0 35.1615 2.52539 37.7806 5.65871 37.8282H31.8777C35.0523 37.8282 37.6269 35.1933 37.6269 31.9409L37.638 6.0489C37.638 2.79653 35.0666 0.160031 31.892 0.160031ZM8.85394 34.8107L7.42855 34.8266C5.70157 34.8266 4.30157 33.4075 4.30157 31.6568L4.29364 31.4076V7.49652L4.30316 6.20763C4.36824 4.51398 5.65554 3.15209 7.33966 3.15209H10.2397C12.8682 3.15209 14.9984 5.43779 14.9984 8.13143C14.9984 9.46476 14.4761 10.6743 13.6301 11.5536L6.23173 19.0616L13.1666 26.1234C14.0603 27.0457 14.6 28.2552 14.6 29.5806C14.6 32.4695 12.0285 34.8107 8.85394 34.8107ZM30.1729 34.7869L17.2444 34.7821C17.2444 34.7821 18.738 31.552 18.738 29.552C18.738 27.1123 17.9238 24.9346 16.6476 23.4933L12.2254 18.9854L16.738 14.3219C18.0825 13.06 18.9745 10.8187 18.9745 8.26477C18.9745 6.24255 18.4158 4.45208 17.5158 3.15209H20.6476C23.2761 3.15209 25.4079 5.43779 25.4079 8.13143C25.4079 9.46476 24.8856 10.6743 24.0396 11.5536L16.7825 18.9838L31.8555 34.3536C31.3777 34.6536 30.7761 34.7869 30.1729 34.7869ZM33.3301 29.9885L22.5285 18.979L27.6729 13.7505C28.719 12.4409 29.384 10.4695 29.384 8.26477C29.384 6.22985 28.8174 4.39335 27.9094 3.09335L30.211 3.1632C31.938 3.1632 33.338 4.58224 33.338 6.33303L33.3301 29.9885Z" fill="#00529C"/>
</svg>