<svg xmlns="http://www.w3.org/2000/svg" width="144" height="40" viewBox="0 0 144 40" fill="none">
  <path d="M68.1931 27.8465C68.5001 27.8465 68.7645 27.8117 68.9865 27.7422C69.2084 27.6726 69.3896 27.5756 69.5302 27.4511C69.6744 27.3229 69.7798 27.1728 69.8464 27.0007C69.913 26.825 69.9463 26.6328 69.9463 26.424C69.9463 26.0176 69.8002 25.6973 69.508 25.4629C69.2158 25.2249 68.7775 25.1059 68.1931 25.1059H66.4731V27.8465L68.1931 27.8465ZM66.4731 21.6623V24.348H67.8935C68.1968 24.348 68.4594 24.3151 68.6813 24.2492C68.9069 24.1833 69.0919 24.0917 69.2361 23.9746C69.3841 23.8574 69.4932 23.7164 69.5635 23.5517C69.6337 23.3832 69.6689 23.2002 69.6689 23.0025C69.6689 22.5375 69.5283 22.1988 69.2472 21.9864C68.9661 21.7704 68.5297 21.6624 67.9379 21.6624L66.4731 21.6623ZM67.9379 20.822C68.4261 20.822 68.8459 20.8696 69.1973 20.9648C69.5524 21.06 69.8427 21.1955 70.0684 21.3713C70.2977 21.547 70.466 21.763 70.5732 22.0193C70.6805 22.272 70.7341 22.5576 70.7341 22.8761C70.7341 23.0702 70.7027 23.2569 70.6398 23.4363C70.5806 23.612 70.49 23.7768 70.368 23.9306C70.2459 24.0844 70.0905 24.2235 69.9019 24.348C69.717 24.4688 69.4987 24.5677 69.2472 24.6446C69.8316 24.7544 70.2699 24.9613 70.5621 25.2652C70.858 25.5654 71.006 25.9609 71.006 26.4515C71.006 26.7847 70.9431 27.0886 70.8174 27.3632C70.6953 27.6378 70.5141 27.874 70.2736 28.0717C70.0369 28.2694 69.7447 28.4232 69.397 28.533C69.0493 28.6392 68.6536 28.6923 68.2097 28.6923H65.4023V20.822H67.9379Z" fill="#00A39D"/>
  <path d="M76.8429 25.7705L75.5945 22.5685C75.5575 22.4733 75.5187 22.3635 75.478 22.239C75.4373 22.1109 75.3985 21.9754 75.3615 21.8326C75.2838 22.1292 75.2043 22.3763 75.1229 22.574L73.8746 25.7705H76.8429ZM79.0843 28.6923H78.2521C78.1559 28.6923 78.0782 28.6685 78.0191 28.6209C77.9599 28.5733 77.9155 28.5129 77.8859 28.4397L77.1424 26.5394H73.575L72.8315 28.4397C72.8093 28.5055 72.7668 28.5641 72.7039 28.6154C72.641 28.6667 72.5634 28.6923 72.4709 28.6923H71.6387L74.8178 20.822H75.9052L79.0843 28.6923Z" fill="#00A39D"/>
  <path d="M86.7295 20.8221V28.6923H86.1913C86.1063 28.6923 86.0341 28.6777 85.975 28.6484C85.9195 28.6191 85.864 28.5697 85.8085 28.5001L81.2091 22.5686C81.2165 22.6601 81.222 22.7498 81.2257 22.8377C81.2294 22.9256 81.2313 23.008 81.2313 23.0849V28.6923H80.2881V20.8221H80.8429C80.891 20.8221 80.9317 20.8258 80.965 20.8331C80.9983 20.8366 81.0279 20.8458 81.0537 20.8605C81.0796 20.8715 81.1055 20.8898 81.1314 20.9154C81.1573 20.9374 81.185 20.9667 81.2146 21.0033L85.8141 26.9293C85.8067 26.8341 85.7993 26.7426 85.7919 26.6547C85.7882 26.5632 85.7863 26.4771 85.7863 26.3966V20.822L86.7295 20.8221Z" fill="#00A39D"/>
  <path d="M89.9863 24.2711H90.3913C90.5319 24.2711 90.6447 24.2546 90.7298 24.2217C90.8149 24.1851 90.8925 24.1247 90.9628 24.0404L93.6093 21.0747C93.6833 20.9795 93.7609 20.9136 93.8423 20.8769C93.9237 20.8403 94.0235 20.822 94.1419 20.822H95.0518L92.0225 24.2107C91.9485 24.2986 91.8764 24.3718 91.8061 24.4304C91.7395 24.4853 91.6674 24.531 91.5897 24.5677C91.6896 24.6006 91.7802 24.6501 91.8616 24.716C91.943 24.7782 92.0225 24.8606 92.1002 24.9631L95.2626 28.6923H94.3305C94.2603 28.6923 94.1992 28.6886 94.1474 28.6813C94.0994 28.6703 94.0568 28.6557 94.0198 28.6374C93.9829 28.6154 93.9496 28.5916 93.92 28.566C93.8941 28.5367 93.8682 28.5038 93.8423 28.4672L91.1015 25.3422C91.0275 25.2506 90.948 25.1865 90.8629 25.1499C90.7779 25.1097 90.6484 25.0895 90.4746 25.0895H89.9863V28.6924H88.9155V20.8221H89.9863V24.2711Z" fill="#00A39D"/>
  <path d="M103.485 22.0523C103.452 22.1072 103.415 22.1494 103.374 22.1787C103.337 22.2043 103.291 22.2171 103.235 22.2171C103.172 22.2171 103.098 22.186 103.013 22.1238C102.928 22.0615 102.821 21.9938 102.692 21.9206C102.566 21.8437 102.412 21.7741 102.231 21.7118C102.054 21.6496 101.837 21.6185 101.582 21.6185C101.342 21.6185 101.129 21.6515 100.944 21.7173C100.763 21.7796 100.609 21.8656 100.483 21.9755C100.361 22.0853 100.269 22.2153 100.206 22.3654C100.143 22.5119 100.112 22.6711 100.112 22.8432C100.112 23.0629 100.165 23.246 100.273 23.3924C100.384 23.5352 100.528 23.6579 100.705 23.7604C100.887 23.8629 101.09 23.9526 101.316 24.0295C101.545 24.1028 101.778 24.1796 102.015 24.2602C102.255 24.3407 102.488 24.4323 102.714 24.5348C102.943 24.6337 103.147 24.76 103.324 24.9138C103.505 25.0675 103.65 25.2561 103.757 25.4795C103.868 25.7028 103.923 25.9774 103.923 26.3033C103.923 26.6475 103.864 26.9715 103.746 27.2754C103.627 27.5756 103.454 27.8374 103.224 28.0608C102.999 28.2841 102.719 28.4599 102.386 28.588C102.057 28.7162 101.682 28.7802 101.26 28.7802C100.742 28.7802 100.273 28.6887 99.8509 28.5056C99.4293 28.3189 99.0686 28.0681 98.769 27.7532L99.0797 27.2479C99.1093 27.2077 99.1445 27.1747 99.1852 27.1491C99.2295 27.1198 99.2776 27.1052 99.3294 27.1052C99.3775 27.1052 99.4311 27.1253 99.4903 27.1656C99.5532 27.2022 99.6235 27.2498 99.7011 27.3084C99.7788 27.3669 99.8676 27.431 99.9674 27.5006C100.067 27.5701 100.18 27.6342 100.306 27.6928C100.435 27.7514 100.581 27.8008 100.744 27.8411C100.907 27.8777 101.09 27.896 101.293 27.896C101.549 27.896 101.776 27.8612 101.976 27.7917C102.176 27.7221 102.344 27.6251 102.481 27.5006C102.621 27.3724 102.729 27.2205 102.803 27.0448C102.877 26.869 102.914 26.6731 102.914 26.4571C102.914 26.2191 102.858 26.025 102.747 25.8749C102.64 25.7211 102.497 25.593 102.32 25.4905C102.142 25.3879 101.939 25.3019 101.71 25.2323C101.48 25.1591 101.247 25.0859 101.01 25.0127C100.774 24.9358 100.541 24.8479 100.311 24.749C100.082 24.6502 99.8787 24.522 99.7011 24.3646C99.5236 24.2071 99.3793 24.0113 99.2684 23.7769C99.1611 23.5389 99.1075 23.246 99.1075 22.8982C99.1075 22.6199 99.1611 22.3508 99.2684 22.0908C99.3793 21.8309 99.5384 21.6002 99.7455 21.3988C99.9563 21.1974 100.213 21.0363 100.517 20.9155C100.824 20.7947 101.175 20.7343 101.571 20.7343C102.015 20.7343 102.418 20.8038 102.78 20.943C103.147 21.0821 103.468 21.2835 103.746 21.5471L103.485 22.0523Z" fill="#00A39D"/>
  <path d="M108.417 25.5563V28.6923H107.341V25.5563L104.428 20.822H105.371C105.468 20.822 105.543 20.8458 105.599 20.8934C105.654 20.9373 105.702 20.9959 105.743 21.0692L107.563 24.1283C107.63 24.2564 107.691 24.3773 107.746 24.4908C107.802 24.6006 107.85 24.7123 107.89 24.8258C107.931 24.7123 107.977 24.6006 108.029 24.4908C108.081 24.3773 108.138 24.2564 108.201 24.1283L110.015 21.0692C110.049 21.0069 110.095 20.9502 110.154 20.8989C110.213 20.8477 110.289 20.822 110.381 20.822H111.33L108.417 25.5563Z" fill="#00A39D"/>
  <path d="M115.957 25.7705L114.709 22.5685C114.672 22.4733 114.633 22.3635 114.592 22.239C114.552 22.1109 114.513 21.9754 114.476 21.8326C114.398 22.1292 114.319 22.3763 114.237 22.574L112.989 25.7705H115.957ZM118.199 28.6923H117.366C117.27 28.6923 117.193 28.6685 117.133 28.6209C117.074 28.5733 117.03 28.5129 117 28.4397L116.257 26.5394H112.689L111.946 28.4397C111.924 28.5055 111.881 28.5641 111.818 28.6154C111.755 28.6667 111.678 28.6923 111.585 28.6923H110.753L113.932 20.822H115.019L118.199 28.6923Z" fill="#00A39D"/>
  <path d="M121.605 24.6336C121.916 24.6336 122.189 24.597 122.426 24.5237C122.667 24.4468 122.866 24.3407 123.025 24.2052C123.188 24.0661 123.31 23.9013 123.391 23.7109C123.473 23.5205 123.514 23.31 123.514 23.0793C123.514 22.6106 123.358 22.2573 123.047 22.0193C122.737 21.7813 122.271 21.6623 121.649 21.6623H120.473V24.6336H121.605ZM125.278 28.6923H124.324C124.128 28.6923 123.983 28.6172 123.891 28.4671L121.827 25.6551C121.764 25.5672 121.696 25.505 121.622 25.4684C121.551 25.4281 121.44 25.408 121.289 25.408H120.473V28.6923H119.402V20.822H121.649C122.152 20.822 122.587 20.8733 122.953 20.9758C123.319 21.0747 123.621 21.2193 123.858 21.4097C124.098 21.6001 124.275 21.8308 124.39 22.1017C124.505 22.369 124.562 22.6692 124.562 23.0024C124.562 23.2807 124.518 23.5407 124.429 23.7823C124.34 24.024 124.211 24.2418 124.041 24.4359C123.874 24.6263 123.669 24.7892 123.425 24.9247C123.184 25.0601 122.911 25.1627 122.604 25.2322C122.74 25.3091 122.859 25.4208 122.959 25.5673L125.278 28.6923Z" fill="#00A39D"/>
  <path d="M127.586 28.6923H126.51V20.822H127.586V28.6923Z" fill="#00A39D"/>
  <path d="M133.994 25.7705L132.746 22.5685C132.709 22.4733 132.67 22.3635 132.629 22.239C132.589 22.1109 132.55 21.9754 132.513 21.8326C132.435 22.1292 132.356 22.3763 132.274 22.574L131.026 25.7705H133.994ZM136.236 28.6923H135.403C135.307 28.6923 135.23 28.6685 135.17 28.6209C135.111 28.5733 135.067 28.5129 135.037 28.4397L134.294 26.5394H130.726L129.983 28.4397C129.961 28.5055 129.918 28.5641 129.855 28.6154C129.792 28.6667 129.715 28.6923 129.622 28.6923H128.79L131.969 20.822H133.057L136.236 28.6923Z" fill="#00A39D"/>
  <path d="M143.881 20.822V28.6923H142.805V25.1114H138.516V28.6923H137.439V20.822H138.516V24.3315H142.805V20.822H143.881Z" fill="#00A39D"/>
  <path d="M66.4787 39.6766H65.4023V31.8064H66.4787V39.6766Z" fill="#00A39D"/>
  <path d="M75.1065 31.8064V39.6767H74.5683C74.4832 39.6767 74.4111 39.662 74.3519 39.6327C74.2964 39.6034 74.2409 39.554 74.1855 39.4844L69.586 33.5529C69.5934 33.6445 69.599 33.7342 69.6027 33.822C69.6064 33.9099 69.6082 33.9923 69.6082 34.0692V39.6767H68.665V31.8064H69.2199C69.2679 31.8064 69.3086 31.8101 69.3419 31.8174C69.3752 31.8209 69.4048 31.8301 69.4307 31.8448C69.4566 31.8558 69.4825 31.8741 69.5084 31.8998C69.5343 31.9217 69.562 31.951 69.5916 31.9876L74.191 37.9136C74.1836 37.8184 74.1762 37.7269 74.1688 37.639C74.1651 37.5475 74.1633 37.4614 74.1633 37.3809V31.8064L75.1065 31.8064Z" fill="#00A39D"/>
  <path d="M84.1828 35.7442C84.1828 36.3337 84.0885 36.8701 83.8999 37.3534C83.7112 37.8367 83.4449 38.2505 83.1009 38.5947C82.7569 38.9388 82.3427 39.2061 81.8581 39.3965C81.3773 39.5832 80.8447 39.6766 80.2603 39.6766H77.292V31.8064H80.2603C80.8447 31.8064 81.3773 31.9016 81.8581 32.092C82.3427 32.2787 82.7569 32.546 83.1009 32.8938C83.4449 33.238 83.7112 33.6517 83.8999 34.135C84.0885 34.6183 84.1828 35.1547 84.1828 35.7442ZM83.0787 35.7442C83.0787 35.2609 83.0122 34.8289 82.879 34.4481C82.7458 34.0673 82.5572 33.7451 82.3131 33.4815C82.069 33.2179 81.7731 33.0165 81.4254 32.8773C81.0777 32.7382 80.6893 32.6686 80.2603 32.6686H78.3683V38.8143H80.2603C80.6893 38.8143 81.0777 38.7448 81.4254 38.6056C81.7731 38.4665 82.069 38.267 82.3131 38.007C82.5572 37.7434 82.7458 37.4212 82.879 37.0404C83.0122 36.6596 83.0787 36.2275 83.0787 35.7442Z" fill="#00A39D"/>
  <path d="M93.2321 35.7443C93.2321 36.3338 93.1378 36.8757 92.9492 37.37C92.7605 37.8606 92.4942 38.2835 92.1502 38.6387C91.8063 38.9939 91.392 39.2703 90.9075 39.468C90.4266 39.6621 89.894 39.7591 89.3096 39.7591C88.7252 39.7591 88.1926 39.6621 87.7117 39.468C87.2309 39.2703 86.8185 38.9939 86.4745 38.6387C86.1305 38.2835 85.8642 37.8606 85.6755 37.37C85.4869 36.8757 85.3926 36.3338 85.3926 35.7443C85.3926 35.1548 85.4869 34.6148 85.6755 34.1242C85.8642 33.6299 86.1305 33.2051 86.4745 32.85C86.8185 32.4912 87.2309 32.2129 87.7117 32.0152C88.1926 31.8175 88.7252 31.7186 89.3096 31.7186C89.894 31.7186 90.4266 31.8175 90.9075 32.0152C91.392 32.2129 91.8063 32.4912 92.1502 32.85C92.4942 33.2051 92.7605 33.6299 92.9492 34.1242C93.1378 34.6148 93.2321 35.1548 93.2321 35.7443ZM92.1281 35.7443C92.1281 35.261 92.0615 34.8272 91.9283 34.4427C91.7952 34.0582 91.6065 33.7342 91.3624 33.4706C91.1183 33.2033 90.8224 32.9983 90.4747 32.8555C90.127 32.7127 89.7386 32.6413 89.3096 32.6413C88.8842 32.6413 88.4977 32.7127 88.15 32.8555C87.8023 32.9983 87.5046 33.2033 87.2568 33.4706C87.0126 33.7342 86.824 34.0582 86.6908 34.4427C86.5577 34.8272 86.4911 35.261 86.4911 35.7443C86.4911 36.2276 86.5577 36.6615 86.6908 37.046C86.824 37.4268 87.0126 37.7508 87.2568 38.0181C87.5046 38.2817 87.8023 38.4849 88.15 38.6277C88.4977 38.7669 88.8842 38.8364 89.3096 38.8364C89.7386 38.8364 90.127 38.7669 90.4747 38.6277C90.8224 38.4849 91.1183 38.2817 91.3624 38.0181C91.6065 37.7508 91.7952 37.4268 91.9283 37.046C92.0615 36.6615 92.1281 36.2276 92.1281 35.7443Z" fill="#00A39D"/>
  <path d="M101.366 31.8064V39.6767H100.828C100.742 39.6767 100.67 39.662 100.611 39.6327C100.556 39.6034 100.5 39.554 100.445 39.4844L95.8453 33.5529C95.8527 33.6445 95.8583 33.7342 95.862 33.822C95.8657 33.9099 95.8675 33.9923 95.8675 34.0692V39.6767H94.9243V31.8064H95.4791C95.5272 31.8064 95.5679 31.8101 95.6012 31.8174C95.6345 31.8209 95.6641 31.8301 95.69 31.8448C95.7159 31.8558 95.7417 31.8741 95.7676 31.8998C95.7935 31.9217 95.8213 31.951 95.8509 31.9876L100.45 37.9136C100.443 37.8184 100.435 37.7269 100.428 37.639C100.424 37.5475 100.423 37.4614 100.423 37.3809V31.8064L101.366 31.8064Z" fill="#00A39D"/>
  <path d="M108.456 38.8089L108.45 39.6766H103.551V31.8064H108.45V32.6741H104.628V35.2884H107.723V36.1232H104.628V38.8089H108.456Z" fill="#00A39D"/>
  <path d="M114.182 33.0367C114.148 33.0916 114.111 33.1337 114.071 33.163C114.034 33.1886 113.988 33.2014 113.932 33.2014C113.869 33.2014 113.795 33.1703 113.71 33.1081C113.625 33.0459 113.518 32.9781 113.388 32.9049C113.263 32.828 113.109 32.7584 112.928 32.6962C112.75 32.634 112.534 32.6028 112.279 32.6028C112.038 32.6028 111.826 32.6358 111.641 32.7017C111.459 32.7639 111.306 32.8499 111.18 32.9598C111.058 33.0696 110.966 33.1996 110.903 33.3497C110.84 33.4962 110.808 33.6555 110.808 33.8276C110.808 34.0472 110.862 34.2303 110.969 34.3768C111.08 34.5196 111.225 34.6422 111.402 34.7447C111.583 34.8473 111.787 34.937 112.012 35.0139C112.242 35.0871 112.475 35.164 112.711 35.2445C112.952 35.3251 113.185 35.4166 113.411 35.5191C113.64 35.618 113.843 35.7443 114.021 35.8981C114.202 36.0519 114.346 36.2404 114.454 36.4638C114.565 36.6871 114.62 36.9617 114.62 37.2876C114.62 37.6318 114.561 37.9558 114.443 38.2597C114.324 38.5599 114.15 38.8217 113.921 39.0451C113.695 39.2684 113.416 39.4442 113.083 39.5723C112.754 39.7005 112.379 39.7646 111.957 39.7646C111.439 39.7646 110.969 39.673 110.548 39.4899C110.126 39.3032 109.765 39.0524 109.466 38.7375L109.777 38.2323C109.806 38.192 109.841 38.1591 109.882 38.1334C109.926 38.1042 109.974 38.0895 110.026 38.0895C110.074 38.0895 110.128 38.1096 110.187 38.1499C110.25 38.1865 110.32 38.2341 110.398 38.2927C110.476 38.3512 110.564 38.4153 110.664 38.4849C110.764 38.5544 110.877 38.6185 111.003 38.6771C111.132 38.7357 111.278 38.7851 111.441 38.8254C111.604 38.862 111.787 38.8803 111.99 38.8803C112.245 38.8803 112.473 38.8455 112.673 38.776C112.872 38.7065 113.041 38.6094 113.178 38.4849C113.318 38.3568 113.425 38.2048 113.499 38.0291C113.573 37.8533 113.61 37.6574 113.61 37.4414C113.61 37.2034 113.555 37.0094 113.444 36.8592C113.337 36.7055 113.194 36.5773 113.017 36.4748C112.839 36.3723 112.636 36.2862 112.406 36.2167C112.177 36.1434 111.944 36.0702 111.707 35.997C111.471 35.9201 111.238 35.8322 111.008 35.7334C110.779 35.6345 110.575 35.5063 110.398 35.3489C110.22 35.1915 110.076 34.9956 109.965 34.7613C109.858 34.5233 109.804 34.2303 109.804 33.8825C109.804 33.6042 109.858 33.3351 109.965 33.0752C110.076 32.8152 110.235 32.5845 110.442 32.3831C110.653 32.1818 110.91 32.0207 111.213 31.8998C111.52 31.779 111.872 31.7186 112.268 31.7186C112.711 31.7186 113.115 31.7882 113.477 31.9273C113.843 32.0664 114.165 32.2678 114.443 32.5314L114.182 33.0367Z" fill="#00A39D"/>
  <path d="M117.366 39.6766H116.29V31.8064H117.366V39.6766Z" fill="#00A39D"/>
  <path d="M123.774 36.7548L122.526 33.5529C122.489 33.4577 122.45 33.3478 122.41 33.2233C122.369 33.0952 122.33 32.9597 122.293 32.8169C122.215 33.1135 122.136 33.3606 122.055 33.5584L120.806 36.7548H123.774ZM126.016 39.6766H125.184C125.088 39.6766 125.01 39.6528 124.951 39.6052C124.892 39.5576 124.847 39.4972 124.818 39.424L124.074 37.5237H120.507L119.763 39.424C119.741 39.4899 119.698 39.5485 119.636 39.5997C119.573 39.651 119.495 39.6766 119.403 39.6766H118.57L121.749 31.8064H122.837L126.016 39.6766Z" fill="#00A39D"/>
  <path d="M11.2938 34.6792C12.1619 34.6792 12.868 34.5679 13.4121 34.3452C13.9692 34.1226 14.4032 33.8344 14.7141 33.4808C15.0251 33.1271 15.2389 32.7276 15.3555 32.2823C15.4721 31.837 15.5304 31.3851 15.5304 30.9267C15.5304 30.4028 15.4591 29.9313 15.3166 29.5122C15.187 29.093 14.9538 28.7394 14.617 28.4512C14.2931 28.1631 13.8591 27.9404 13.3149 27.7832C12.7708 27.6261 12.0841 27.5475 11.255 27.5475H6.66864V34.6792H11.2938ZM6.66864 16.0345V23.1073H10.089C10.8145 23.1073 11.4687 23.0549 12.0517 22.9502C12.6348 22.8454 13.1271 22.662 13.5287 22.4001C13.9433 22.1381 14.2542 21.7779 14.4615 21.3195C14.6818 20.8611 14.7919 20.2848 14.7919 19.5906C14.7919 18.9095 14.7077 18.3463 14.5392 17.901C14.3708 17.4426 14.1117 17.0758 13.7619 16.8008C13.4121 16.5257 12.9651 16.3292 12.421 16.2114C11.8898 16.0935 11.255 16.0345 10.5165 16.0345H6.66864ZM10.5165 11.064C12.4728 11.064 14.1376 11.2473 15.5109 11.6141C16.8842 11.9808 18.0049 12.4982 18.8729 13.1662C19.741 13.8341 20.3693 14.6462 20.758 15.6023C21.1596 16.5585 21.3604 17.6259 21.3604 18.8047C21.3604 19.4465 21.2697 20.0687 21.0884 20.6711C20.907 21.2605 20.6219 21.8172 20.2333 22.3411C19.8446 22.8519 19.3458 23.3234 18.7369 23.7557C18.128 24.1879 17.396 24.5612 16.5409 24.8755C18.4065 25.334 19.7863 26.074 20.6803 27.0956C21.5742 28.1172 22.0212 29.4401 22.0212 31.0642C22.0212 32.2823 21.788 33.4153 21.3216 34.4631C20.8552 35.5109 20.1685 36.4278 19.2616 37.2136C18.3677 37.9864 17.2599 38.5955 15.9385 39.0408C14.617 39.473 13.1076 39.6891 11.4104 39.6891H0.100098V11.064H10.5165Z" fill="#00A39D"/>
  <path d="M42.1989 16.9024C42.0046 17.2164 41.7973 17.4519 41.577 17.6089C41.3697 17.7659 41.0977 17.8444 40.7608 17.8444C40.4628 17.8444 40.1389 17.7528 39.7891 17.5696C39.4523 17.3734 39.0636 17.1575 38.6231 16.922C38.1956 16.6865 37.7033 16.4772 37.1462 16.294C36.5891 16.0978 35.9543 15.9997 35.2417 15.9997C34.0109 15.9997 33.091 16.2679 32.4821 16.8043C31.8862 17.3276 31.5882 18.0406 31.5882 18.9433C31.5882 19.5189 31.7696 19.9965 32.1323 20.3759C32.4951 20.7553 32.968 21.0823 33.551 21.3571C34.1469 21.6318 34.8206 21.8869 35.5721 22.1224C36.3364 22.3448 37.1138 22.5999 37.9041 22.8878C38.6944 23.1625 39.4652 23.4896 40.2167 23.869C40.9811 24.2484 41.6548 24.7325 42.2378 25.3212C42.8337 25.9099 43.3131 26.6295 43.6759 27.4798C44.0386 28.3171 44.22 29.3311 44.22 30.5216C44.22 31.8429 43.9933 33.0793 43.5398 34.2306C43.0864 35.3818 42.4256 36.3892 41.5576 37.2527C40.7025 38.1031 39.6402 38.7768 38.3705 39.274C37.1138 39.758 35.6822 40.0001 34.0757 40.0001C33.1947 40.0001 32.2943 39.9085 31.3744 39.7253C30.4675 39.5422 29.5865 39.2871 28.7314 38.96C27.8764 38.6198 27.0731 38.2208 26.3217 37.7629C25.5702 37.305 24.916 36.7948 24.3589 36.2322L26.3022 33.1316C26.4577 32.9092 26.6585 32.726 26.9047 32.5821C27.1638 32.4251 27.4423 32.3466 27.7403 32.3466C28.129 32.3466 28.5177 32.4709 28.9063 32.7195C29.308 32.9681 29.7549 33.2428 30.2473 33.5437C30.7525 33.8446 31.3291 34.1194 31.9768 34.3679C32.6246 34.6165 33.389 34.7408 34.27 34.7408C35.4619 34.7408 36.3883 34.4791 37.049 33.9558C37.7098 33.4194 38.0401 32.5756 38.0401 31.4243C38.0401 30.7571 37.8587 30.2141 37.496 29.7955C37.1332 29.3768 36.6539 29.0301 36.0579 28.7554C35.4749 28.4807 34.8077 28.2386 34.0562 28.0293C33.3048 27.82 32.5339 27.591 31.7436 27.3425C30.9533 27.0808 30.1825 26.7668 29.4311 26.4005C28.6796 26.0211 28.0059 25.5305 27.41 24.9287C26.827 24.3138 26.3541 23.555 25.9913 22.6523C25.6285 21.7365 25.4472 20.6114 25.4472 19.2769C25.4472 18.2041 25.6609 17.1575 26.0885 16.137C26.516 15.1166 27.1444 14.2073 27.9735 13.4093C28.8027 12.6112 29.8197 11.9767 31.0246 11.5057C32.2295 11.0217 33.6093 10.7796 35.164 10.7796C36.032 10.7796 36.8741 10.8516 37.6903 10.9955C38.5195 11.1263 39.3033 11.3291 40.0418 11.6039C40.7803 11.8655 41.4669 12.186 42.1017 12.5654C42.7495 12.9318 43.3261 13.3504 43.8313 13.8214L42.1989 16.9024Z" fill="#00A39D"/>
  <path fill-rule="evenodd" clip-rule="evenodd" d="M65.676 9.87992C60.6325 9.38865 58.8592 12.1657 57.8698 13.5393C56.608 8.04791 54.4743 8.4809 52.1914 7.09757C55.4908 5.18249 56.4136 2.20513 56.3229 0C59.5547 2.36949 61.8081 2.11524 64.5989 1.3469C63.2102 5.49076 64.087 6.66038 65.676 9.87992Z" fill="#F8AD3C"/>
  <path d="M55.1275 39.701H48.2969V10.4279C52.5712 11.007 55.1342 14.5423 55.1275 18.2841V39.701Z" fill="#00A39D"/>
</svg>