<svg xmlns="http://www.w3.org/2000/svg" width="152" height="40" viewBox="0 0 152 40" fill="none">
  <path fill-rule="evenodd" clip-rule="evenodd" d="M55.6124 30.5904C55.6124 33.6005 53.7612 35.2905 49.8237 35.4176V40C54.2987 40 59.963 37.4972 59.963 30.5904V8.12781H55.6124V30.5867V30.5904Z" fill="#009BD2"/>
  <path fill-rule="evenodd" clip-rule="evenodd" d="M81.3387 17.8036C81.3387 20.6866 80.0677 21.7965 77.3465 21.7965H68.1765C68.5534 24.247 70.1057 26.6283 73.4889 26.6283C75.4532 26.5521 77.353 25.9029 78.9573 24.7598L81.1772 28.3239C78.9811 30.056 76.2789 31.0112 73.4889 31.0416C65.8759 31.0416 63.5762 25.3101 63.5762 19.3731C63.5762 13.436 65.8341 7.70828 72.4574 7.70828C79.4512 7.70828 81.3387 14.2432 81.3387 17.8036ZM68.1394 17.3888H76.7681C76.4896 14.5795 75.33 12.1244 72.4574 12.1244C69.5849 12.1244 68.4253 14.5795 68.1394 17.3888Z" fill="#009BD2"/>
  <path fill-rule="evenodd" clip-rule="evenodd" d="M93.1928 7.71198C87.7625 7.71198 84.9624 12.3336 84.9624 12.3336V30.7828H89.326V13.82C89.8158 13.2801 90.4131 12.8502 91.079 12.558C91.745 12.2659 92.4646 12.1181 93.191 12.1243C93.7607 12.1268 94.3243 12.2433 94.8489 12.4671C95.3734 12.6908 95.8485 13.0174 96.2465 13.4276C96.6445 13.8379 96.9574 14.3238 97.1669 14.8569C97.3765 15.39 97.4786 15.9598 97.4673 16.533V30.7828H101.831V16.5358C101.831 12.2505 98.9147 7.71571 93.1966 7.71571" fill="#009BD2"/>
  <path fill-rule="evenodd" clip-rule="evenodd" d="M106.67 30.7829H111.033V7.96994H106.67V30.7829Z" fill="#009BD2"/>
  <path fill-rule="evenodd" clip-rule="evenodd" d="M144.002 16.9562H144.042C142.557 16.5321 140.626 15.7725 140.626 14.204C140.626 13.0633 141.784 12.1244 143.962 12.1244C145.907 12.2368 147.81 12.7389 149.56 13.6014L150.96 9.57391C148.788 8.45331 146.401 7.81848 143.962 7.71292C140.182 7.71292 136.228 9.7047 136.228 14.2049C136.228 18.3594 139.767 20.4343 143.268 21.334C145.151 21.7535 147.539 22.5662 147.539 24.1647C147.539 25.8688 145.598 26.6236 143.717 26.6236C141.861 26.6236 139.325 25.396 137.388 24.3347L135.688 28.5388C138.131 29.9962 140.882 30.8536 143.716 31.0416C147.694 31.0416 151.897 29.0844 151.897 24.1656C151.897 19.4263 147.295 17.8045 144.005 16.9571" fill="#009BD2"/>
  <path fill-rule="evenodd" clip-rule="evenodd" d="M128.493 22.2207C128.51 22.7933 128.413 23.3636 128.206 23.8976C128 24.4316 127.69 24.9186 127.293 25.3296C126.896 25.7407 126.422 26.0675 125.897 26.2906C125.373 26.5138 124.81 26.6287 124.24 26.6287C123.671 26.6287 123.107 26.5138 122.583 26.2906C122.059 26.0675 121.584 25.7407 121.187 25.3296C120.791 24.9186 120.48 24.4316 120.274 23.8976C120.068 23.3636 119.97 22.7933 119.987 22.2207V7.96994H115.624V22.2207C115.624 26.4892 118.529 31.0193 124.206 31.0408H124.257C129.942 31.0183 132.839 26.4883 132.839 22.2207V7.96994H128.493V22.2207Z" fill="#009BD2"/>
  <path fill-rule="evenodd" clip-rule="evenodd" d="M42.3536 18.9938C42.3536 29.191 34.3692 36.9974 25.292 36.9974C24.2126 36.9977 23.1349 36.9102 22.0695 36.7358C20.6125 37.1833 19.1031 37.4346 17.5806 37.4832C7.97048 37.4823 0 31.5443 0 21.6078C0.0803357 18.4519 1.03974 15.3821 2.76895 12.7481C4.49817 10.114 6.92771 8.02142 9.7809 6.70871C13.36 1.96188 19.4188 0 23.6747 0C34.4713 0 42.3536 8.4716 42.3536 18.9938ZM25.0395 1.86846C21.5709 1.90446 18.2134 3.10416 15.499 5.27747C15.6968 5.27186 16.0357 5.26158 16.2316 5.26158C18.6391 5.21488 21.0113 5.84967 23.0777 7.09361C23.0777 7.09361 33.4352 11.1295 33.4352 22.3916C33.4176 24.8852 32.7699 27.3333 31.5529 29.5055C30.3359 31.6777 28.5897 33.5026 26.4785 34.8085C33.3405 33.424 39.2592 26.5387 39.2592 17.6513C39.2592 10.0215 33.1446 1.86846 25.0395 1.86846ZM17.1758 7.61491C12.8419 7.61491 9.4968 11.5873 9.4968 16.364C9.4968 22.1627 13.1928 26.2416 17.3392 26.2416C21.9608 26.2416 25.2762 22.3916 25.2762 16.6405C25.2799 12.3804 21.7417 7.61491 17.1758 7.61491ZM16.5639 35.6923C17.0796 35.6931 17.5948 35.6594 18.106 35.5914C11.0937 32.6784 6.6122 25.4849 6.6122 16.8049C6.6122 16.1612 6.65305 15.5484 6.71247 14.9365C6.82023 13.4881 7.16531 12.0675 7.73374 10.7324C4.80457 13.3791 3.64869 17.2926 3.64869 21.2173C3.65704 29.2489 10.2822 35.6923 16.5676 35.6923H16.5639ZM21.2664 34.7823C26.5909 32.6999 30.6741 27.3085 30.6741 21.5228C30.7655 17.8734 29.4599 14.3281 27.0272 11.62C27.7542 13.2721 28.1154 15.0637 28.0856 16.8703C28.1068 19.0078 27.4916 21.1028 26.3192 22.8854C25.1468 24.6679 23.4709 26.0565 21.5074 26.8723C19.5438 27.688 17.3826 27.8936 15.3019 27.4625C13.2212 27.0314 11.3165 25.9834 9.83289 24.4535C11.6981 29.4628 16.0106 33.6902 21.2701 34.7823H21.2664Z" fill="#009BD2"/>
</svg>