<svg xmlns="http://www.w3.org/2000/svg" width="128" height="40" viewBox="0 0 128 40" fill="none">
  <path d="M18.9305 30.3614C18.9305 28.7672 18.9478 24.5059 18.9084 23.9808C18.9427 17.6399 14.3264 13.1669 11.4101 13.5156C9.39204 13.6905 7.70078 14.5123 6.79269 16.8765C5.95103 19.0798 6.7035 22.0105 9.50181 22.6981C12.494 23.4367 14.2412 24.0511 15.5057 24.918C17.0551 25.9793 18.3199 28.007 18.3535 30.3639" fill="#0060AF"/>
  <path d="M20.1248 40C14.8488 40 9.42658 38.7022 4.01159 36.1354L3.87871 36.0701L3.81516 35.9349C1.38515 30.8121 0.100098 25.209 0.100098 19.727C0.100098 14.2534 1.33244 8.89005 3.76425 3.77412L3.83105 3.63817L3.96645 3.57037C8.9756 1.20046 14.3642 0 19.9876 0C25.226 0 30.8204 1.33641 36.1636 3.87148L36.3008 3.93242L36.364 4.0709C38.8406 9.28816 40.1466 14.8898 40.1466 20.2809C40.1466 25.6511 38.8926 31.0191 36.4131 36.2331L36.3477 36.3701L36.2098 36.4336C31.2772 38.7656 25.7145 40 20.1248 40ZM4.51276 35.4329C9.77321 37.9042 15.0196 39.1522 20.1248 39.1522C25.538 39.1522 30.9215 37.9705 35.7137 35.7304C38.0942 30.6779 39.3009 25.478 39.3009 20.2809C39.3009 15.0629 38.0415 9.63507 35.6592 4.57142C30.4738 2.13696 25.0585 0.845984 19.9876 0.845984C14.5433 0.845984 9.32512 1.99921 4.46726 4.27428C2.13546 9.23298 0.948618 14.429 0.948618 19.727C0.948618 25.0352 2.18204 30.4652 4.51276 35.4329Z" fill="#0060AF"/>
  <path d="M17.6799 30.364C17.6897 28.3205 16.5476 26.5135 15.0549 25.5423C13.7309 24.6841 11.9533 24.1201 9.08569 23.3938C8.19926 23.1674 7.27203 22.6643 6.98498 22.0232C6.22564 22.7873 6.08771 24.5052 6.22131 25.5091C6.37657 26.671 7.73601 28.5858 9.78292 28.6609C11.0329 28.711 12.6134 28.3922 13.3713 28.2314C14.6787 27.9494 16.7473 28.7672 17.0766 30.3615" fill="#0060AF"/>
  <path d="M19.9876 3.63306C16.517 3.63306 13.519 5.91895 13.5298 9.87444C13.5407 13.2007 16.2191 14.9814 17.1748 16.2532C18.6191 18.1699 19.4008 20.4384 19.4821 23.9096C19.5453 26.6723 19.542 29.4002 19.5561 30.367H20.3223C20.3089 29.3555 20.2743 26.4595 20.314 23.8242C20.366 20.3519 21.1759 18.1699 22.6209 16.2532C23.5849 14.9814 26.2612 13.2007 26.267 9.87444C26.28 5.91895 23.2838 3.63306 19.8161 3.63306" fill="#0060AF"/>
  <path d="M20.8685 30.3614C20.8685 28.7672 20.8504 24.5059 20.8891 23.9808C20.8551 17.6399 25.4685 13.1669 28.3874 13.5156C30.4055 13.6905 32.0949 14.5123 33.0055 16.8765C33.8465 19.0798 33.0897 22.0105 30.2946 22.6981C27.301 23.4367 25.5559 24.0511 24.2882 24.918C22.7406 25.9793 21.5643 28.007 21.5282 30.3639" fill="#0060AF"/>
  <path d="M22.1182 30.364C22.1074 28.3205 23.2491 26.5135 24.7375 25.5423C26.0669 24.6841 27.8466 24.1201 30.7117 23.3938C31.6 23.1674 32.5261 22.6643 32.8081 22.0232C33.5711 22.7873 33.7086 24.5052 33.575 25.5091C33.4165 26.671 32.0607 28.5858 30.0174 28.6609C28.7677 28.711 27.179 28.3922 26.4244 28.2314C25.122 27.9494 23.0476 28.7672 22.7169 30.3615" fill="#0060AF"/>
  <path d="M23.1887 36.9613L22.7446 33.7249L23.8167 33.5626C24.0777 33.5269 24.3954 33.5723 24.5225 33.7357C24.663 33.9063 24.706 34.0473 24.7331 34.2708C24.7735 34.5474 24.6933 34.8673 24.3814 35.0267V35.0364C24.7298 35.0364 24.9403 35.2863 25.0013 35.7082C25.0103 35.7973 25.0367 36.0126 25.0103 36.1921C24.9396 36.6195 24.6843 36.7568 24.2535 36.8171L23.1887 36.9613ZM23.8788 36.3819C24.0059 36.3637 24.1348 36.357 24.2355 36.2928C24.3897 36.1922 24.3756 35.9769 24.3543 35.8171C24.3005 35.4659 24.2088 35.3325 23.8358 35.3877L23.6015 35.4237L23.7499 36.3999L23.8788 36.3819ZM23.6542 34.8864C23.7961 34.8634 23.9885 34.8464 24.0687 34.7119C24.1106 34.6221 24.1644 34.5507 24.129 34.3509C24.0853 34.114 24.0066 33.9672 23.7054 34.0242L23.4249 34.0693L23.5354 34.8987" fill="#0060AF"/>
  <path d="M27.8326 35.0145C27.8409 35.0747 27.8506 35.1418 27.8542 35.202C27.9409 35.7923 27.8326 36.2809 27.1682 36.4154C26.1861 36.6044 25.998 35.995 25.825 35.1418L25.7329 34.6802C25.5975 33.8638 25.5394 33.2457 26.497 33.0553C27.0368 32.9568 27.3935 33.1714 27.5419 33.708C27.565 33.788 27.5939 33.8674 27.6047 33.9478L27.0173 34.069C26.9494 33.8674 26.8595 33.5071 26.5952 33.5374C26.1207 33.5944 26.2774 34.184 26.3262 34.4303L26.5027 35.3163C26.5558 35.5842 26.6612 36.0123 27.0718 35.9297C27.4051 35.863 27.2599 35.3444 27.2303 35.132" fill="#0060AF"/>
  <path d="M28.7755 35.994L28.5723 32.6447L29.3616 32.4042L31.0164 35.3172L30.395 35.5029L30.0028 34.7626L29.3128 34.9696L29.402 35.8112L28.7755 35.994ZM29.2551 34.4287L29.7537 34.2844L29.0915 32.9292" fill="#0060AF"/>
  <path d="M9.28057 33.4617C9.52754 32.672 9.74888 32.0907 10.6913 32.3489C11.1957 32.4895 11.5084 32.7116 11.4936 33.2969C11.4911 33.4271 11.4481 33.5598 11.4199 33.6885L10.8332 33.5266C10.9101 33.2035 10.9588 32.9471 10.5602 32.8245C10.0995 32.6983 9.98719 33.2562 9.92364 33.497L9.68497 34.3751C9.60915 34.6359 9.51816 35.0668 9.92364 35.1778C10.2587 35.268 10.462 34.9395 10.5833 34.4599L10.1728 34.3513L10.3147 33.8432L11.2798 34.1534L10.8216 35.8457L10.3775 35.7252L10.4775 35.3675H10.4649C10.2605 35.66 10.011 35.6906 9.79256 35.6488C8.82742 35.3881 8.92816 34.7581 9.15852 33.9164" fill="#0060AF"/>
  <path d="M12.8727 34.8914L12.582 36.2682L11.9277 36.1268L12.625 32.912L13.7403 33.1637C14.3931 33.3043 14.5903 33.5946 14.4978 34.1922C14.4451 34.5351 14.2758 34.9047 13.8624 34.8748L13.858 34.8692C14.2075 34.9914 14.2371 35.1674 14.1761 35.4718C14.1498 35.6012 13.9682 36.387 14.0934 36.5139L14.0978 36.6102L13.4208 36.4338C13.3926 36.2161 13.4883 35.8244 13.5262 35.6077C13.5645 35.4159 13.6255 35.1454 13.4305 35.0437C13.2778 34.9626 13.2211 34.9665 13.0485 34.9269L12.8727 34.8914ZM12.9842 34.3934L13.4247 34.512C13.6923 34.5506 13.8411 34.4121 13.8938 34.0894C13.9414 33.7933 13.8797 33.6776 13.6396 33.6202L13.1673 33.5247" fill="#0060AF"/>
  <path d="M17.0689 33.6303L17.716 33.7053L17.4372 35.9653C17.3018 36.6818 17.0245 36.9951 16.2352 36.897C15.4322 36.7957 15.2416 36.4304 15.2903 35.7081L15.5708 33.45L16.2229 33.5247L15.9431 35.7323C15.9135 35.9721 15.8579 36.3273 16.285 36.3702C16.6638 36.3991 16.7497 36.1484 16.7924 35.8369" fill="#0060AF"/>
  <path d="M18.4297 37.0207L18.6243 33.7889L19.8675 33.8427C20.4549 33.8715 20.6088 34.3507 20.5903 34.808C20.5734 35.086 20.4864 35.3965 20.2437 35.5649C20.0448 35.7081 19.7891 35.7419 19.5519 35.7304L19.1468 35.708L19.0659 37.0624L18.4297 37.0207ZM19.1652 35.2151L19.4945 35.2335C19.762 35.2432 19.9393 35.1376 19.9624 34.7453C19.9754 34.3684 19.8328 34.3046 19.4862 34.2894L19.2251 34.2805" fill="#0060AF"/>
  <path d="M106.11 6.75662L101.169 15.713C99.3037 14.2006 97.0264 13.0874 94.1209 13.0874C87.245 13.0874 84.4521 18.2063 84.4521 21.812C84.4521 24.4884 86.2069 28.4374 92.3249 28.4374C94.8929 28.4374 98.5437 26.6531 99.5944 25.8414L94.7076 36.2323C92.3784 36.6964 91.6132 36.9842 89.6414 37.0451C78.6912 37.3715 74.2663 30.6534 74.2695 23.7885C74.2768 14.7134 82.3557 3.67667 95.7486 3.67667C96.5693 3.67667 97.5731 3.96011 98.4314 4.2742L99.2987 3.16641" fill="#0060AF"/>
  <path d="M126.497 3.44742L127.896 36.0002H117.483L117.477 30.4172H110.377L108.04 36.0002H96.7476L108.554 12.7547L105.891 12.7374L110.95 3.44742H126.497ZM117.41 13.406L113.395 22.8744H117.53" fill="#0060AF"/>
  <path d="M67.6957 3.44736C72.8522 3.47621 75.766 6.27164 75.766 10.3097C75.766 14.0323 72.6929 17.3275 69.3194 19.0314C72.7926 20.3065 73.093 23.4366 73.093 25.651C73.093 31.001 67.7177 36.0001 60.7306 36.0001H45.4927L51.4366 13.0785L48.9951 13.0644L53.9862 3.44736C53.9862 3.44736 63.5026 3.41851 67.6957 3.44736ZM62.6367 16.6456C63.7033 16.6456 65.5867 16.3759 66.0575 14.3143C66.5735 12.0763 64.806 12.0161 63.9582 12.0161L60.9288 12.0029L59.8724 16.6457L62.6367 16.6456ZM58.3537 22.398L56.9589 27.748H60.5259C61.9294 27.748 63.842 27.0524 64.3106 25.3114C64.7735 23.5653 63.4365 22.398 62.0381 22.398" fill="#0060AF"/>
</svg>