<svg xmlns="http://www.w3.org/2000/svg" width="140" height="42" viewBox="0 0 140 42" fill="none">
  <path d="M0.142682 28.6112C0.142682 26.5977 0.103048 24.9 0 23.3919H3.82863L4.01095 25.9897H4.12193C4.98594 24.6237 6.57923 22.9971 9.54384 22.9971C11.8585 22.9971 13.6658 24.292 14.4188 26.2345H14.4902C15.1005 25.2632 15.8219 24.5447 16.6542 24.0394C17.6292 23.3524 18.7548 22.9892 20.1974 22.9892C23.1224 22.9892 26.087 24.9711 26.087 30.5852V40.9132H21.7511V31.2326C21.7511 28.319 20.7365 26.5898 18.6042 26.5898C17.0901 26.5898 15.9645 27.6715 15.4969 28.927C15.3859 29.3534 15.2828 29.8982 15.2828 30.3957V40.9053H10.9469V30.751C10.9469 28.3111 9.97189 26.5819 7.91093 26.5819C6.25423 26.5819 5.12863 27.8768 4.73229 29.1007C4.54997 29.5429 4.47863 30.0482 4.47863 30.5536V40.9211H0.142682V28.6112Z" fill="#003D79"/>
  <path d="M42.9744 36.7108C42.9744 38.29 43.0457 39.8376 43.228 40.9194H39.2171L38.9317 38.9769H38.8208C37.7348 40.343 35.8958 41.3142 33.6208 41.3142C30.0775 41.3142 28.0879 38.7637 28.0879 36.0949C28.0879 31.6652 32.0196 29.4385 38.5275 29.4701V29.1859C38.5275 28.033 38.0519 26.1222 34.9525 26.1222C33.2165 26.1222 31.4092 26.667 30.2202 27.4172L29.3562 24.5351C30.6562 23.7455 32.9312 22.9875 35.7135 22.9875C41.3494 22.9875 42.9823 26.5565 42.9823 30.3703V36.7108H42.9744ZM38.6384 32.3601C35.4915 32.289 32.4952 32.9681 32.4952 35.629C32.4952 37.3583 33.6208 38.1479 35.0238 38.1479C36.7915 38.1479 38.0915 36.995 38.4878 35.7317C38.5988 35.4079 38.6305 35.0526 38.6305 34.7605V32.3601H38.6384Z" fill="#003D79"/>
  <path d="M46.0445 28.6112C46.0445 26.5977 46.0049 24.9 45.9019 23.3919H49.8018L50.0159 26.0213H50.1268C50.8878 24.6552 52.7982 22.9892 55.7231 22.9892C58.7987 22.9892 61.9774 24.9711 61.9774 30.5141V40.9132H57.5304V31.0194C57.5304 28.5006 56.5872 26.5898 54.1695 26.5898C52.4018 26.5898 51.1732 27.8531 50.6976 29.1797C50.5628 29.5824 50.5232 30.1272 50.5232 30.6246V40.9211H46.0445V28.6112Z" fill="#003D79"/>
  <path d="M81.243 16.3523V35.9897C81.243 37.79 81.3144 39.7324 81.3857 40.9247H77.4144L77.2321 38.1532H77.1607C76.1144 40.0956 73.9821 41.3195 71.4138 41.3195C67.2206 41.3195 63.8992 37.7584 63.8992 32.3575C63.8596 26.4908 67.5456 22.9928 71.7705 22.9928C74.1882 22.9928 75.9242 24.0035 76.7168 25.2985H76.7882L76.804 16.3523H81.243ZM76.804 30.6994C76.804 30.344 76.7644 29.9098 76.6931 29.5465C76.2967 27.8252 74.8858 26.4197 72.8644 26.4197C70.0108 26.4197 68.4175 28.9385 68.4175 32.2154C68.4175 35.4133 70.0108 37.7584 72.8327 37.7584C74.6321 37.7584 76.2254 36.5345 76.6614 34.6237C76.7723 34.2289 76.804 33.7946 76.804 33.3287V30.6994Z" fill="#003D79"/>
  <path d="M84.3857 23.3902H88.8691V40.9194H84.3857V23.3902Z" fill="#003D79"/>
  <path d="M92.0094 29.0448C92.0094 26.6681 91.9697 24.9783 91.8667 23.3912H95.735L95.8777 26.7313H96.0203C96.8844 24.2519 98.9453 23.3912 100.832 23.3912C101.26 23.3912 101.514 23.3202 101.878 23.3912V27.284C101.522 27.2129 101.125 27.1419 100.578 27.1419C98.4459 27.1419 96.9953 28.5079 96.599 30.4819C96.5276 30.8767 96.4563 31.3504 96.4563 31.8558V40.9204H92.0094V29.0448Z" fill="#003D79"/>
  <path d="M103.936 23.3902H108.413V40.9194H103.936V23.3902Z" fill="#003D79"/>
  <path d="M103.022 2.17652C100.327 3.73204 91.5357 8.73812 91.5357 8.73812C88.2382 10.0962 85.7096 8.44599 84.8931 7.23C84.8535 7.18263 84.8217 7.12736 84.798 7.08788L84.687 6.90624L84.1321 5.99822C83.8943 5.62711 83.6327 5.24019 83.3236 4.84539C83.0541 4.49796 82.7529 4.15845 82.4279 3.82682C80.3114 1.69489 76.9187 0.194624 71.2749 2.87138C67.8584 4.8138 59.9158 9.33823 59.9158 9.33823C56.65 11.2017 54.1055 12.6467 54.1055 12.6467L57.1097 16.3262C58.378 17.5264 60.756 19.5004 64.4341 17.8344C64.4341 17.8344 74.5962 11.9755 74.6358 11.9597C83.3236 7.2142 87.612 11.7465 89.4986 14.7707C89.562 14.8655 89.6175 14.9681 89.6809 15.0549L89.6888 15.0628C89.7126 15.1023 89.7284 15.1339 89.7443 15.1655L89.9583 15.5129C90.8778 16.9105 92.3363 17.8107 94.0723 17.7633C95.0314 17.7475 95.6814 17.4317 96.6247 16.9105L106.454 11.2333C106.462 11.2333 106.462 11.2254 106.478 11.2254C115.269 6.41671 119.628 11.2491 121.491 14.2732C121.634 14.5338 121.8 14.7865 121.967 15.0155C122.886 16.263 124.162 17.0763 125.771 17.0369C126.834 17.0132 128.031 16.3815 128.213 16.2631L140 9.48825C140 9.48825 138.795 7.68007 136.314 4.85329C134.095 2.33446 131.74 3.47148 129.87 4.40321C129.085 4.79012 123.393 8.0038 123.393 8.0038C120.278 9.28295 117.853 7.88535 116.894 6.70884C116.798 6.5825 116.711 6.47199 116.648 6.35355L116.426 5.97451C116.085 5.3981 115.673 4.75064 115.173 4.11106C114.904 3.76364 114.603 3.41623 114.278 3.09249C112.97 1.77385 111.178 0.69997 108.666 0.69997C107.072 0.69997 105.217 1.11846 103.022 2.17652Z" fill="#FFB700"/>
</svg>